<?xml version="1.0" encoding="utf-8" standalone="no"?>
<!DOCTYPE svg PUBLIC "-//W3C//DTD SVG 1.1//EN"
  "http://www.w3.org/Graphics/SVG/1.1/DTD/svg11.dtd">
<!-- Created with matplotlib (https://matplotlib.org/) -->
<svg height="264.324375pt" version="1.1" viewBox="0 0 617.9486 264.324375" width="617.9486pt" xmlns="http://www.w3.org/2000/svg" xmlns:xlink="http://www.w3.org/1999/xlink">
 <defs>
  <style type="text/css">
*{stroke-linecap:butt;stroke-linejoin:round;white-space:pre;}
  </style>
 </defs>
 <g id="figure_1">
  <g id="patch_1">
   <path d="M 0 264.324375 
L 617.9486 264.324375 
L 617.9486 0 
L 0 0 
z
" style="fill:#f0f0f0;"/>
  </g>
  <g id="axes_1">
   <g id="patch_2">
    <path d="M 34.921875 224.64 
L 410.761875 224.64 
L 410.761875 7.2 
L 34.921875 7.2 
z
" style="fill:#f0f0f0;"/>
   </g>
   <g id="matplotlib.axis_1">
    <g id="xtick_1">
     <g id="line2d_1">
      <path clip-path="url(#pe808e29ad1)" d="M 52.005511 224.64 
L 52.005511 7.2 
" style="fill:none;stroke:#cbcbcb;"/>
     </g>
     <g id="line2d_2"/>
     <g id="text_1">
      <!-- 0 -->
      <defs>
       <path d="M 5 34.703125 
Q 5 52.09375 11.140625 61.5 
Q 17.296875 70.90625 28.203125 70.90625 
Q 39.09375 70.90625 45.25 61.5 
Q 51.40625 52.09375 51.40625 34.703125 
Q 51.40625 17.296875 45.25 7.890625 
Q 39.09375 -1.5 28.203125 -1.5 
Q 17.296875 -1.5 11.140625 7.890625 
Q 5 17.296875 5 34.703125 
z
M 41.59375 34.703125 
Q 41.59375 40.40625 40.9375 45.5 
Q 40.296875 50.59375 38.75 54.390625 
Q 37.203125 58.203125 34.59375 60.453125 
Q 32 62.703125 28.203125 62.703125 
Q 24.40625 62.703125 21.796875 60.453125 
Q 19.203125 58.203125 17.640625 54.390625 
Q 16.09375 50.59375 15.4375 45.5 
Q 14.796875 40.40625 14.796875 34.703125 
Q 14.796875 29 15.4375 23.890625 
Q 16.09375 18.796875 17.640625 15 
Q 19.203125 11.203125 21.796875 8.953125 
Q 24.40625 6.703125 28.203125 6.703125 
Q 32 6.703125 34.59375 8.953125 
Q 37.203125 11.203125 38.75 15 
Q 40.296875 18.796875 40.9375 23.890625 
Q 41.59375 29 41.59375 34.703125 
z
" id="Ubuntu-48"/>
      </defs>
      <g transform="translate(48.621136 237.45125)scale(0.12 -0.12)">
       <use xlink:href="#Ubuntu-48"/>
      </g>
     </g>
    </g>
    <g id="xtick_2">
     <g id="line2d_3">
      <path clip-path="url(#pe808e29ad1)" d="M 108.950966 224.64 
L 108.950966 7.2 
" style="fill:none;stroke:#cbcbcb;"/>
     </g>
     <g id="line2d_4"/>
     <g id="text_2">
      <!-- 1 -->
      <defs>
       <path d="M 9.296875 55 
Q 15 57.203125 20.390625 60.640625 
Q 25.796875 64.09375 30.296875 69.296875 
L 36.90625 69.296875 
L 36.90625 0 
L 27.59375 0 
L 27.59375 56.40625 
Q 26.40625 55.296875 24.65625 54.09375 
Q 22.90625 52.90625 20.84375 51.796875 
Q 18.796875 50.703125 16.546875 49.703125 
Q 14.296875 48.703125 12.203125 48 
z
" id="Ubuntu-49"/>
      </defs>
      <g transform="translate(105.566591 237.45125)scale(0.12 -0.12)">
       <use xlink:href="#Ubuntu-49"/>
      </g>
     </g>
    </g>
    <g id="xtick_3">
     <g id="line2d_5">
      <path clip-path="url(#pe808e29ad1)" d="M 165.89642 224.64 
L 165.89642 7.2 
" style="fill:none;stroke:#cbcbcb;"/>
     </g>
     <g id="line2d_6"/>
     <g id="text_3">
      <!-- 2 -->
      <defs>
       <path d="M 46.703125 51.59375 
Q 46.703125 48 45.25 44.640625 
Q 43.796875 41.296875 41.390625 38.046875 
Q 39 34.796875 36 31.640625 
Q 33 28.5 30 25.5 
Q 28.296875 23.796875 26.046875 21.5 
Q 23.796875 19.203125 21.796875 16.703125 
Q 19.796875 14.203125 18.4375 11.890625 
Q 17.09375 9.59375 17.09375 7.90625 
L 49 7.90625 
L 49 0 
L 7 0 
Q 6.90625 0.59375 6.90625 1.1875 
Q 6.90625 1.796875 6.90625 2.296875 
Q 6.90625 7 8.453125 11.046875 
Q 10 15.09375 12.5 18.6875 
Q 15 22.296875 18.09375 25.5 
Q 21.203125 28.703125 24.203125 31.703125 
Q 26.703125 34.09375 28.953125 36.4375 
Q 31.203125 38.796875 32.953125 41.140625 
Q 34.703125 43.5 35.75 46 
Q 36.796875 48.5 36.796875 51.296875 
Q 36.796875 54.296875 35.84375 56.390625 
Q 34.90625 58.5 33.296875 59.890625 
Q 31.703125 61.296875 29.546875 61.9375 
Q 27.40625 62.59375 25 62.59375 
Q 22.09375 62.59375 19.6875 61.796875 
Q 17.296875 61 15.390625 59.953125 
Q 13.5 58.90625 12.203125 57.75 
Q 10.90625 56.59375 10.203125 56 
L 5.59375 62.59375 
Q 6.5 63.59375 8.296875 65.046875 
Q 10.09375 66.5 12.59375 67.796875 
Q 15.09375 69.09375 18.1875 70 
Q 21.296875 70.90625 24.90625 70.90625 
Q 35.796875 70.90625 41.25 65.84375 
Q 46.703125 60.796875 46.703125 51.59375 
z
" id="Ubuntu-50"/>
      </defs>
      <g transform="translate(162.512045 237.45125)scale(0.12 -0.12)">
       <use xlink:href="#Ubuntu-50"/>
      </g>
     </g>
    </g>
    <g id="xtick_4">
     <g id="line2d_7">
      <path clip-path="url(#pe808e29ad1)" d="M 222.841875 224.64 
L 222.841875 7.2 
" style="fill:none;stroke:#cbcbcb;"/>
     </g>
     <g id="line2d_8"/>
     <g id="text_4">
      <!-- 3 -->
      <defs>
       <path d="M 22.59375 6.796875 
Q 31.5 6.796875 35.34375 10.296875 
Q 39.203125 13.796875 39.203125 19.703125 
Q 39.203125 23.5 37.59375 26.09375 
Q 36 28.703125 33.390625 30.25 
Q 30.796875 31.796875 27.34375 32.4375 
Q 23.90625 33.09375 20.296875 33.09375 
L 17.90625 33.09375 
L 17.90625 40.703125 
L 21.203125 40.703125 
Q 23.703125 40.703125 26.34375 41.203125 
Q 29 41.703125 31.203125 43 
Q 33.40625 44.296875 34.796875 46.546875 
Q 36.203125 48.796875 36.203125 52.203125 
Q 36.203125 55 35.203125 57 
Q 34.203125 59 32.546875 60.296875 
Q 30.90625 61.59375 28.75 62.140625 
Q 26.59375 62.703125 24.203125 62.703125 
Q 19.40625 62.703125 16.046875 61.296875 
Q 12.703125 59.90625 10.40625 58.40625 
L 6.796875 65.5 
Q 8 66.296875 9.84375 67.25 
Q 11.703125 68.203125 14 69 
Q 16.296875 69.796875 18.9375 70.34375 
Q 21.59375 70.90625 24.5 70.90625 
Q 30 70.90625 34 69.546875 
Q 38 68.203125 40.59375 65.75 
Q 43.203125 63.296875 44.5 59.9375 
Q 45.796875 56.59375 45.796875 52.703125 
Q 45.796875 47.296875 42.6875 43.4375 
Q 39.59375 39.59375 35.203125 37.59375 
Q 37.90625 36.796875 40.40625 35.296875 
Q 42.90625 33.796875 44.75 31.5 
Q 46.59375 29.203125 47.75 26.203125 
Q 48.90625 23.203125 48.90625 19.5 
Q 48.90625 15 47.34375 11.140625 
Q 45.796875 7.296875 42.546875 4.5 
Q 39.296875 1.703125 34.390625 0.09375 
Q 29.5 -1.5 22.796875 -1.5 
Q 20.203125 -1.5 17.453125 -1.09375 
Q 14.703125 -0.703125 12.296875 -0.09375 
Q 9.90625 0.5 8.09375 1.09375 
Q 6.296875 1.703125 5.5 2.09375 
L 7.296875 10.203125 
Q 9 9.40625 12.953125 8.09375 
Q 16.90625 6.796875 22.59375 6.796875 
z
" id="Ubuntu-51"/>
      </defs>
      <g transform="translate(219.4575 237.45125)scale(0.12 -0.12)">
       <use xlink:href="#Ubuntu-51"/>
      </g>
     </g>
    </g>
    <g id="xtick_5">
     <g id="line2d_9">
      <path clip-path="url(#pe808e29ad1)" d="M 279.78733 224.64 
L 279.78733 7.2 
" style="fill:none;stroke:#cbcbcb;"/>
     </g>
     <g id="line2d_10"/>
     <g id="text_5">
      <!-- 4 -->
      <defs>
       <path d="M 4 24 
Q 5.90625 28.40625 9.203125 34.25 
Q 12.5 40.09375 16.640625 46.296875 
Q 20.796875 52.5 25.546875 58.5 
Q 30.296875 64.5 35.09375 69.296875 
L 44 69.296875 
L 44 25.296875 
L 52.203125 25.296875 
L 52.203125 17.703125 
L 44 17.703125 
L 44 0 
L 35 0 
L 35 17.703125 
L 4 17.703125 
z
M 35 58.296875 
Q 32 55.09375 28.953125 51.140625 
Q 25.90625 47.203125 23 42.890625 
Q 20.09375 38.59375 17.546875 34.09375 
Q 15 29.59375 13 25.296875 
L 35 25.296875 
z
" id="Ubuntu-52"/>
      </defs>
      <g transform="translate(276.402955 237.45125)scale(0.12 -0.12)">
       <use xlink:href="#Ubuntu-52"/>
      </g>
     </g>
    </g>
    <g id="xtick_6">
     <g id="line2d_11">
      <path clip-path="url(#pe808e29ad1)" d="M 336.732784 224.64 
L 336.732784 7.2 
" style="fill:none;stroke:#cbcbcb;"/>
     </g>
     <g id="line2d_12"/>
     <g id="text_6">
      <!-- 5 -->
      <defs>
       <path d="M 19.90625 42.59375 
Q 35 42 42.046875 36 
Q 49.09375 30 49.09375 19.703125 
Q 49.09375 15.09375 47.546875 11.1875 
Q 46 7.296875 42.84375 4.5 
Q 39.703125 1.703125 34.890625 0.09375 
Q 30.09375 -1.5 23.5 -1.5 
Q 20.90625 -1.5 18.203125 -1.09375 
Q 15.5 -0.703125 13.203125 -0.09375 
Q 10.90625 0.5 9.09375 1.09375 
Q 7.296875 1.703125 6.5 2.09375 
L 8.296875 10.203125 
Q 10 9.40625 13.84375 8.09375 
Q 17.703125 6.796875 23.296875 6.796875 
Q 27.796875 6.796875 30.84375 7.796875 
Q 33.90625 8.796875 35.796875 10.5 
Q 37.703125 12.203125 38.546875 14.453125 
Q 39.40625 16.703125 39.40625 19.203125 
Q 39.40625 23 38.09375 25.953125 
Q 36.796875 28.90625 33.5 30.90625 
Q 30.203125 32.90625 24.703125 33.953125 
Q 19.203125 35 10.796875 35 
Q 11.40625 39.90625 11.75 44.203125 
Q 12.09375 48.5 12.390625 52.59375 
Q 12.703125 56.703125 12.890625 60.75 
Q 13.09375 64.796875 13.296875 69.296875 
L 46.703125 69.296875 
L 46.703125 61.40625 
L 21.40625 61.40625 
Q 21.296875 59.90625 21.09375 57.34375 
Q 20.90625 54.796875 20.703125 52.046875 
Q 20.5 49.296875 20.296875 46.6875 
Q 20.09375 44.09375 19.90625 42.59375 
z
" id="Ubuntu-53"/>
      </defs>
      <g transform="translate(333.348409 237.45125)scale(0.12 -0.12)">
       <use xlink:href="#Ubuntu-53"/>
      </g>
     </g>
    </g>
    <g id="xtick_7">
     <g id="line2d_13">
      <path clip-path="url(#pe808e29ad1)" d="M 393.678239 224.64 
L 393.678239 7.2 
" style="fill:none;stroke:#cbcbcb;"/>
     </g>
     <g id="line2d_14"/>
     <g id="text_7">
      <!-- 6 -->
      <defs>
       <path d="M 6.296875 27.796875 
Q 6.296875 37.90625 9.09375 45.65625 
Q 11.90625 53.40625 17.046875 58.703125 
Q 22.203125 64 29.546875 66.75 
Q 36.90625 69.5 46.09375 69.59375 
L 46.796875 61.796875 
Q 40.90625 61.703125 36.046875 60.5 
Q 31.203125 59.296875 27.390625 56.6875 
Q 23.59375 54.09375 21 49.9375 
Q 18.40625 45.796875 17.09375 39.703125 
Q 19.703125 40.90625 22.953125 41.703125 
Q 26.203125 42.5 29.703125 42.5 
Q 35.59375 42.5 39.6875 40.703125 
Q 43.796875 38.90625 46.390625 35.953125 
Q 49 33 50.140625 29.140625 
Q 51.296875 25.296875 51.296875 21.09375 
Q 51.296875 17.296875 50 13.296875 
Q 48.703125 9.296875 46.046875 6 
Q 43.40625 2.703125 39.296875 0.59375 
Q 35.203125 -1.5 29.59375 -1.5 
Q 18.203125 -1.5 12.25 6.296875 
Q 6.296875 14.09375 6.296875 27.796875 
z
M 28.703125 34.90625 
Q 25.203125 34.90625 22.203125 34.25 
Q 19.203125 33.59375 16.203125 32.296875 
Q 16.09375 31.203125 16.046875 30.046875 
Q 16 28.90625 16 27.796875 
Q 16 23.40625 16.59375 19.5 
Q 17.203125 15.59375 18.75 12.640625 
Q 20.296875 9.703125 22.890625 7.953125 
Q 25.5 6.203125 29.5 6.203125 
Q 32.796875 6.203125 35.09375 7.59375 
Q 37.40625 9 38.90625 11.203125 
Q 40.40625 13.40625 41.046875 15.953125 
Q 41.703125 18.5 41.703125 20.90625 
Q 41.703125 27.703125 38.453125 31.296875 
Q 35.203125 34.90625 28.703125 34.90625 
z
" id="Ubuntu-54"/>
      </defs>
      <g transform="translate(390.293864 237.45125)scale(0.12 -0.12)">
       <use xlink:href="#Ubuntu-54"/>
      </g>
     </g>
    </g>
    <g id="text_8">
     <!-- X -->
     <defs>
      <path d="M 50.203125 0 
Q 48.703125 3 46.59375 6.640625 
Q 44.5 10.296875 42 14.25 
Q 39.5 18.203125 36.796875 22.140625 
Q 34.09375 26.09375 31.59375 29.59375 
Q 29.09375 26.09375 26.390625 22.140625 
Q 23.703125 18.203125 21.25 14.25 
Q 18.796875 10.296875 16.640625 6.640625 
Q 14.5 3 13 0 
L 2.296875 0 
Q 6.796875 8.796875 12.75 17.890625 
Q 18.703125 27 25.40625 36.59375 
L 3.203125 69.296875 
L 14.40625 69.296875 
L 31.5 43.5 
L 48.40625 69.296875 
L 59.5 69.296875 
L 37.703125 37 
Q 44.5 27.296875 50.5 18.09375 
Q 56.5 8.90625 61.09375 0 
z
" id="Ubuntu-88"/>
     </defs>
     <g transform="translate(218.425312 254.534375)scale(0.14 -0.14)">
      <use xlink:href="#Ubuntu-88"/>
     </g>
    </g>
   </g>
   <g id="matplotlib.axis_2">
    <g id="ytick_1">
     <g id="line2d_15">
      <path clip-path="url(#pe808e29ad1)" d="M 34.921875 193.292373 
L 410.761875 193.292373 
" style="fill:none;stroke:#cbcbcb;"/>
     </g>
     <g id="line2d_16"/>
     <g id="text_9">
      <!-- 0 -->
      <g transform="translate(24.653125 197.947998)scale(0.12 -0.12)">
       <use xlink:href="#Ubuntu-48"/>
      </g>
     </g>
    </g>
    <g id="ytick_2">
     <g id="line2d_17">
      <path clip-path="url(#pe808e29ad1)" d="M 34.921875 150.190965 
L 410.761875 150.190965 
" style="fill:none;stroke:#cbcbcb;"/>
     </g>
     <g id="line2d_18"/>
     <g id="text_10">
      <!-- 2 -->
      <g transform="translate(24.653125 154.84659)scale(0.12 -0.12)">
       <use xlink:href="#Ubuntu-50"/>
      </g>
     </g>
    </g>
    <g id="ytick_3">
     <g id="line2d_19">
      <path clip-path="url(#pe808e29ad1)" d="M 34.921875 107.089557 
L 410.761875 107.089557 
" style="fill:none;stroke:#cbcbcb;"/>
     </g>
     <g id="line2d_20"/>
     <g id="text_11">
      <!-- 4 -->
      <g transform="translate(24.653125 111.745182)scale(0.12 -0.12)">
       <use xlink:href="#Ubuntu-52"/>
      </g>
     </g>
    </g>
    <g id="ytick_4">
     <g id="line2d_21">
      <path clip-path="url(#pe808e29ad1)" d="M 34.921875 63.988149 
L 410.761875 63.988149 
" style="fill:none;stroke:#cbcbcb;"/>
     </g>
     <g id="line2d_22"/>
     <g id="text_12">
      <!-- 6 -->
      <g transform="translate(24.653125 68.643774)scale(0.12 -0.12)">
       <use xlink:href="#Ubuntu-54"/>
      </g>
     </g>
    </g>
    <g id="ytick_5">
     <g id="line2d_23">
      <path clip-path="url(#pe808e29ad1)" d="M 34.921875 20.886741 
L 410.761875 20.886741 
" style="fill:none;stroke:#cbcbcb;"/>
     </g>
     <g id="line2d_24"/>
     <g id="text_13">
      <!-- 8 -->
      <defs>
       <path d="M 50.90625 18 
Q 50.90625 13.796875 49.453125 10.25 
Q 48 6.703125 45.140625 4.046875 
Q 42.296875 1.40625 38 -0.046875 
Q 33.703125 -1.5 28.09375 -1.5 
Q 21.59375 -1.5 17.25 0.34375 
Q 12.90625 2.203125 10.296875 5 
Q 7.703125 7.796875 6.59375 11.140625 
Q 5.5 14.5 5.5 17.5 
Q 5.5 20.40625 6.453125 23.046875 
Q 7.40625 25.703125 8.953125 28 
Q 10.5 30.296875 12.546875 32.140625 
Q 14.59375 34 16.90625 35.40625 
Q 7.09375 41 7.09375 51.90625 
Q 7.09375 55.703125 8.59375 59.140625 
Q 10.09375 62.59375 12.84375 65.1875 
Q 15.59375 67.796875 19.5 69.34375 
Q 23.40625 70.90625 28.203125 70.90625 
Q 33.796875 70.90625 37.796875 69.203125 
Q 41.796875 67.5 44.34375 64.84375 
Q 46.90625 62.203125 48.046875 59 
Q 49.203125 55.796875 49.203125 52.796875 
Q 49.203125 49.90625 48.34375 47.34375 
Q 47.5 44.796875 46.046875 42.59375 
Q 44.59375 40.40625 42.75 38.703125 
Q 40.90625 37 38.90625 35.703125 
Q 50.703125 30.09375 50.90625 18 
z
M 14.90625 17.40625 
Q 14.90625 15.59375 15.546875 13.640625 
Q 16.203125 11.703125 17.796875 10.046875 
Q 19.40625 8.40625 21.90625 7.296875 
Q 24.40625 6.203125 28.203125 6.203125 
Q 31.59375 6.203125 34.140625 7.203125 
Q 36.703125 8.203125 38.296875 9.75 
Q 39.90625 11.296875 40.703125 13.296875 
Q 41.5 15.296875 41.5 17.40625 
Q 41.5 20.59375 40.296875 23 
Q 39.09375 25.40625 36.84375 27.203125 
Q 34.59375 29 31.4375 30.25 
Q 28.296875 31.5 24.296875 32.40625 
Q 19.796875 29.90625 17.34375 26.203125 
Q 14.90625 22.5 14.90625 17.40625 
z
M 39.90625 52.90625 
Q 39.90625 54.40625 39.25 56.203125 
Q 38.59375 58 37.1875 59.546875 
Q 35.796875 61.09375 33.59375 62.140625 
Q 31.40625 63.203125 28.203125 63.203125 
Q 25 63.203125 22.75 62.203125 
Q 20.5 61.203125 19.09375 59.640625 
Q 17.703125 58.09375 17.046875 56.25 
Q 16.40625 54.40625 16.40625 52.59375 
Q 16.40625 50.40625 17.203125 48.203125 
Q 18 46 19.703125 44.09375 
Q 21.40625 42.203125 24.15625 40.703125 
Q 26.90625 39.203125 30.703125 38.296875 
Q 34.90625 40.796875 37.40625 44.140625 
Q 39.90625 47.5 39.90625 52.90625 
z
" id="Ubuntu-56"/>
      </defs>
      <g transform="translate(24.653125 25.542366)scale(0.12 -0.12)">
       <use xlink:href="#Ubuntu-56"/>
      </g>
     </g>
    </g>
    <g id="text_14">
     <!-- Gold content -->
     <defs>
      <path d="M 50.90625 34.09375 
L 60.59375 34.09375 
L 60.59375 1.703125 
Q 59.40625 1.296875 57.15625 0.796875 
Q 54.90625 0.296875 51.953125 -0.203125 
Q 49 -0.703125 45.5 -1.046875 
Q 42 -1.40625 38.40625 -1.40625 
Q 31.09375 -1.40625 25.09375 1 
Q 19.09375 3.40625 14.796875 8 
Q 10.5 12.59375 8.140625 19.296875 
Q 5.796875 26 5.796875 34.703125 
Q 5.796875 43.40625 8.4375 50.15625 
Q 11.09375 56.90625 15.59375 61.5 
Q 20.09375 66.09375 26.140625 68.5 
Q 32.203125 70.90625 39.09375 70.90625 
Q 43.796875 70.90625 47.4375 70.296875 
Q 51.09375 69.703125 53.6875 68.890625 
Q 56.296875 68.09375 57.9375 67.296875 
Q 59.59375 66.5 60.203125 66.09375 
L 57.09375 58 
Q 54.203125 59.90625 49.390625 61.15625 
Q 44.59375 62.40625 39.59375 62.40625 
Q 34.296875 62.40625 29.9375 60.5 
Q 25.59375 58.59375 22.546875 55 
Q 19.5 51.40625 17.796875 46.25 
Q 16.09375 41.09375 16.09375 34.703125 
Q 16.09375 28.5 17.546875 23.390625 
Q 19 18.296875 21.953125 14.640625 
Q 24.90625 11 29.25 9 
Q 33.59375 7 39.5 7 
Q 43.703125 7 46.640625 7.453125 
Q 49.59375 7.90625 50.90625 8.296875 
z
" id="Ubuntu-71"/>
      <path d="M 53.90625 26 
Q 53.90625 19.796875 52.09375 14.796875 
Q 50.296875 9.796875 47.046875 6.1875 
Q 43.796875 2.59375 39.296875 0.640625 
Q 34.796875 -1.296875 29.5 -1.296875 
Q 24.203125 -1.296875 19.703125 0.640625 
Q 15.203125 2.59375 11.953125 6.1875 
Q 8.703125 9.796875 6.890625 14.796875 
Q 5.09375 19.796875 5.09375 26 
Q 5.09375 32.09375 6.890625 37.140625 
Q 8.703125 42.203125 11.953125 45.796875 
Q 15.203125 49.40625 19.703125 51.34375 
Q 24.203125 53.296875 29.5 53.296875 
Q 34.796875 53.296875 39.296875 51.34375 
Q 43.796875 49.40625 47.046875 45.796875 
Q 50.296875 42.203125 52.09375 37.140625 
Q 53.90625 32.09375 53.90625 26 
z
M 44.203125 26 
Q 44.203125 34.796875 40.25 39.9375 
Q 36.296875 45.09375 29.5 45.09375 
Q 22.703125 45.09375 18.75 39.9375 
Q 14.796875 34.796875 14.796875 26 
Q 14.796875 17.203125 18.75 12.046875 
Q 22.703125 6.90625 29.5 6.90625 
Q 36.296875 6.90625 40.25 12.046875 
Q 44.203125 17.203125 44.203125 26 
z
" id="Ubuntu-111"/>
      <path d="M 23.59375 -1 
Q 15 -0.796875 11.390625 2.703125 
Q 7.796875 6.203125 7.796875 13.59375 
L 7.796875 76 
L 17.09375 77.59375 
L 17.09375 15.09375 
Q 17.09375 12.796875 17.5 11.296875 
Q 17.90625 9.796875 18.796875 8.890625 
Q 19.703125 8 21.203125 7.546875 
Q 22.703125 7.09375 24.90625 6.796875 
z
" id="Ubuntu-108"/>
      <path d="M 41.59375 41 
Q 39.90625 42.40625 36.703125 43.703125 
Q 33.5 45 29.703125 45 
Q 25.703125 45 22.84375 43.546875 
Q 20 42.09375 18.203125 39.546875 
Q 16.40625 37 15.59375 33.5 
Q 14.796875 30 14.796875 26 
Q 14.796875 16.90625 19.296875 11.953125 
Q 23.796875 7 31.296875 7 
Q 35.09375 7 37.640625 7.34375 
Q 40.203125 7.703125 41.59375 8.09375 
z
M 41.59375 76 
L 50.90625 77.59375 
L 50.90625 1.5 
Q 47.703125 0.59375 42.703125 -0.296875 
Q 37.703125 -1.203125 31.203125 -1.203125 
Q 25.203125 -1.203125 20.390625 0.6875 
Q 15.59375 2.59375 12.1875 6.09375 
Q 8.796875 9.59375 6.9375 14.640625 
Q 5.09375 19.703125 5.09375 26 
Q 5.09375 32 6.640625 37 
Q 8.203125 42 11.203125 45.59375 
Q 14.203125 49.203125 18.546875 51.203125 
Q 22.90625 53.203125 28.5 53.203125 
Q 33 53.203125 36.453125 52 
Q 39.90625 50.796875 41.59375 49.703125 
z
" id="Ubuntu-100"/>
      <path id="Ubuntu-32"/>
      <path d="M 30.59375 -1.203125 
Q 24.296875 -1.203125 19.546875 0.796875 
Q 14.796875 2.796875 11.546875 6.390625 
Q 8.296875 10 6.6875 14.953125 
Q 5.09375 19.90625 5.09375 25.90625 
Q 5.09375 31.90625 6.84375 36.90625 
Q 8.59375 41.90625 11.796875 45.546875 
Q 15 49.203125 19.640625 51.25 
Q 24.296875 53.296875 30 53.296875 
Q 33.5 53.296875 37 52.6875 
Q 40.5 52.09375 43.703125 50.796875 
L 41.59375 42.90625 
Q 39.5 43.90625 36.75 44.5 
Q 34 45.09375 30.90625 45.09375 
Q 23.09375 45.09375 18.9375 40.1875 
Q 14.796875 35.296875 14.796875 25.90625 
Q 14.796875 21.703125 15.75 18.203125 
Q 16.703125 14.703125 18.75 12.203125 
Q 20.796875 9.703125 24 8.34375 
Q 27.203125 7 31.796875 7 
Q 35.5 7 38.5 7.703125 
Q 41.5 8.40625 43.203125 9.203125 
L 44.5 1.40625 
Q 43.703125 0.90625 42.203125 0.453125 
Q 40.703125 0 38.796875 -0.34375 
Q 36.90625 -0.703125 34.75 -0.953125 
Q 32.59375 -1.203125 30.59375 -1.203125 
z
" id="Ubuntu-99"/>
      <path d="M 8 50.5 
Q 11.203125 51.296875 16.5 52.1875 
Q 21.796875 53.09375 28.703125 53.09375 
Q 34.90625 53.09375 39 51.34375 
Q 43.09375 49.59375 45.546875 46.4375 
Q 48 43.296875 49 38.890625 
Q 50 34.5 50 29.203125 
L 50 0 
L 40.703125 0 
L 40.703125 27.203125 
Q 40.703125 32 40.046875 35.390625 
Q 39.40625 38.796875 37.90625 40.890625 
Q 36.40625 43 33.90625 43.953125 
Q 31.40625 44.90625 27.703125 44.90625 
Q 26.203125 44.90625 24.59375 44.796875 
Q 23 44.703125 21.546875 44.546875 
Q 20.09375 44.40625 18.9375 44.203125 
Q 17.796875 44 17.296875 43.90625 
L 17.296875 0 
L 8 0 
z
" id="Ubuntu-110"/>
      <path d="M 16.703125 52 
L 36.40625 52 
L 36.40625 44.203125 
L 16.703125 44.203125 
L 16.703125 20.203125 
Q 16.703125 16.296875 17.296875 13.75 
Q 17.90625 11.203125 19.09375 9.75 
Q 20.296875 8.296875 22.09375 7.6875 
Q 23.90625 7.09375 26.296875 7.09375 
Q 30.5 7.09375 33.046875 8.046875 
Q 35.59375 9 36.59375 9.40625 
L 38.40625 1.703125 
Q 37 1 33.5 -0.046875 
Q 30 -1.09375 25.5 -1.09375 
Q 20.203125 -1.09375 16.75 0.25 
Q 13.296875 1.59375 11.1875 4.296875 
Q 9.09375 7 8.25 10.953125 
Q 7.40625 14.90625 7.40625 20.09375 
L 7.40625 66.5 
L 16.703125 68.09375 
z
" id="Ubuntu-116"/>
      <path d="M 5.09375 25.90625 
Q 5.09375 32.796875 7.09375 37.9375 
Q 9.09375 43.09375 12.390625 46.5 
Q 15.703125 49.90625 20 51.59375 
Q 24.296875 53.296875 28.796875 53.296875 
Q 39.296875 53.296875 44.890625 46.75 
Q 50.5 40.203125 50.5 26.796875 
Q 50.5 26.203125 50.5 25.25 
Q 50.5 24.296875 50.40625 23.5 
L 14.796875 23.5 
Q 15.40625 15.40625 19.5 11.203125 
Q 23.59375 7 32.296875 7 
Q 37.203125 7 40.546875 7.84375 
Q 43.90625 8.703125 45.59375 9.5 
L 46.90625 1.703125 
Q 45.203125 0.796875 40.953125 -0.203125 
Q 36.703125 -1.203125 31.296875 -1.203125 
Q 24.5 -1.203125 19.546875 0.84375 
Q 14.59375 2.90625 11.390625 6.5 
Q 8.203125 10.09375 6.640625 15.046875 
Q 5.09375 20 5.09375 25.90625 
z
M 40.796875 31 
Q 40.90625 37.296875 37.65625 41.34375 
Q 34.40625 45.40625 28.703125 45.40625 
Q 25.5 45.40625 23.046875 44.15625 
Q 20.59375 42.90625 18.890625 40.90625 
Q 17.203125 38.90625 16.25 36.296875 
Q 15.296875 33.703125 15 31 
z
" id="Ubuntu-101"/>
     </defs>
     <g transform="translate(18.063125 157.366562)rotate(-90)scale(0.14 -0.14)">
      <use xlink:href="#Ubuntu-71"/>
      <use x="67.199997" xlink:href="#Ubuntu-111"/>
      <use x="126.199982" xlink:href="#Ubuntu-108"/>
      <use x="153.499969" xlink:href="#Ubuntu-100"/>
      <use x="212.399963" xlink:href="#Ubuntu-32"/>
      <use x="235.499954" xlink:href="#Ubuntu-99"/>
      <use x="281.984314" xlink:href="#Ubuntu-111"/>
      <use x="340.984299" xlink:href="#Ubuntu-110"/>
      <use x="398.384293" xlink:href="#Ubuntu-116"/>
      <use x="438.568665" xlink:href="#Ubuntu-101"/>
      <use x="494.468658" xlink:href="#Ubuntu-110"/>
      <use x="551.868652" xlink:href="#Ubuntu-116"/>
     </g>
    </g>
   </g>
   <g id="PolyCollection_1">
    <defs>
     <path d="M 52.005511 -146.352275 
L 52.005511 -173.05955 
L 52.575917 -173.598434 
L 53.146322 -174.131917 
L 53.716727 -174.65966 
L 54.287132 -175.181315 
L 54.857537 -175.696523 
L 55.427943 -176.204917 
L 55.998348 -176.706116 
L 56.568753 -177.199733 
L 57.139158 -177.685366 
L 57.709564 -178.162604 
L 58.279969 -178.631025 
L 58.850374 -179.090193 
L 59.420779 -179.539664 
L 59.991184 -179.978979 
L 60.56159 -180.407668 
L 61.131995 -180.825246 
L 61.7024 -181.231219 
L 62.272805 -181.625076 
L 62.843211 -182.006296 
L 63.413616 -182.374341 
L 63.984021 -182.72866 
L 64.554426 -183.06869 
L 65.124831 -183.393851 
L 65.695237 -183.703547 
L 66.265642 -183.997169 
L 66.836047 -184.274093 
L 67.406452 -184.533675 
L 67.976858 -184.77526 
L 68.547263 -184.998172 
L 69.117668 -185.201721 
L 69.688073 -185.385199 
L 70.258478 -185.547879 
L 70.828884 -185.689018 
L 71.399289 -185.807853 
L 71.969694 -185.903604 
L 72.540099 -185.975471 
L 73.110505 -186.022635 
L 73.68091 -186.044255 
L 74.251315 -186.039475 
L 74.82172 -186.007412 
L 75.392125 -185.947168 
L 75.962531 -185.857819 
L 76.532936 -185.738422 
L 77.103341 -185.588011 
L 77.673746 -185.405598 
L 78.244152 -185.190171 
L 78.814557 -184.940695 
L 79.384962 -184.656114 
L 79.955367 -184.335343 
L 80.525772 -184.039592 
L 81.096178 -184.391364 
L 81.666583 -184.706027 
L 82.236988 -184.984684 
L 82.807393 -185.228411 
L 83.377799 -185.438265 
L 83.948204 -185.615275 
L 84.518609 -185.760449 
L 85.089014 -185.874771 
L 85.659419 -185.959204 
L 86.229825 -186.014689 
L 86.80023 -186.042142 
L 87.370635 -186.042462 
L 87.94104 -186.016525 
L 88.511445 -185.965186 
L 89.081851 -185.889282 
L 89.652256 -185.789629 
L 90.222661 -185.667023 
L 90.793066 -185.522241 
L 91.363472 -185.356044 
L 91.933877 -185.169171 
L 92.504282 -184.962346 
L 93.074687 -184.736274 
L 93.645092 -184.491643 
L 94.215498 -184.229125 
L 94.785903 -183.949375 
L 95.356308 -183.65303 
L 95.926713 -183.340715 
L 96.497119 -183.013035 
L 97.067524 -182.670584 
L 97.637929 -182.313938 
L 98.208334 -181.943659 
L 98.778739 -181.560297 
L 99.349145 -181.164384 
L 99.91955 -180.756442 
L 100.489955 -180.336978 
L 101.06036 -179.906485 
L 101.630766 -179.465445 
L 102.201171 -179.014327 
L 102.771576 -178.553585 
L 103.341981 -178.083665 
L 103.912386 -177.604999 
L 104.482792 -177.118007 
L 105.053197 -176.623099 
L 105.623602 -176.120674 
L 106.194007 -175.611118 
L 106.764413 -175.09481 
L 107.334818 -174.572116 
L 107.905223 -174.043392 
L 108.475628 -173.508986 
L 109.046033 -172.969234 
L 109.616439 -172.424464 
L 110.186844 -171.874994 
L 110.757249 -171.321134 
L 111.327654 -170.763184 
L 111.89806 -170.201437 
L 112.468465 -169.636175 
L 113.03887 -169.067674 
L 113.609275 -168.496201 
L 114.17968 -167.922015 
L 114.750086 -167.345369 
L 115.320491 -166.766506 
L 115.890896 -166.185663 
L 116.461301 -165.603069 
L 117.031707 -165.018948 
L 117.602112 -164.433515 
L 118.172517 -163.846979 
L 118.742922 -163.259543 
L 119.313327 -162.671403 
L 119.883733 -162.08275 
L 120.454138 -161.493766 
L 121.024543 -160.904631 
L 121.594948 -160.315516 
L 122.165354 -159.726588 
L 122.735759 -159.138008 
L 123.306164 -158.549933 
L 123.876569 -157.962512 
L 124.446974 -157.375891 
L 125.01738 -156.79021 
L 125.587785 -156.205606 
L 126.15819 -155.622208 
L 126.728595 -155.040144 
L 127.299001 -154.459534 
L 127.869406 -153.880496 
L 128.439811 -153.303143 
L 129.010216 -152.727584 
L 129.580621 -152.153923 
L 130.151027 -151.582262 
L 130.721432 -151.012697 
L 131.291837 -150.445322 
L 131.862242 -149.880225 
L 132.432647 -149.317493 
L 133.003053 -148.757208 
L 133.573458 -148.19945 
L 134.143863 -147.644293 
L 134.714268 -147.09181 
L 135.284674 -146.54207 
L 135.855079 -145.995141 
L 136.425484 -145.451084 
L 136.995889 -144.90996 
L 137.566294 -144.371828 
L 138.1367 -143.836741 
L 138.707105 -143.304752 
L 139.27751 -142.775911 
L 139.847915 -142.250264 
L 140.418321 -141.727856 
L 140.988726 -141.208729 
L 141.559131 -140.692923 
L 142.129536 -140.180476 
L 142.699941 -139.671423 
L 143.270347 -139.165798 
L 143.840752 -138.66363 
L 144.411157 -138.164951 
L 144.981562 -137.669786 
L 145.551968 -137.178162 
L 146.122373 -136.690101 
L 146.692778 -136.205625 
L 147.263183 -135.724755 
L 147.833588 -135.247509 
L 148.403994 -134.773903 
L 148.974399 -134.303952 
L 149.544804 -133.83767 
L 150.115209 -133.375068 
L 150.685615 -132.916158 
L 151.25602 -132.460949 
L 151.826425 -132.009447 
L 152.39683 -131.561661 
L 152.967235 -131.117594 
L 153.537641 -130.677251 
L 154.108046 -130.240635 
L 154.678451 -129.807747 
L 155.248856 -129.378588 
L 155.819262 -128.953156 
L 156.389667 -128.531452 
L 156.960072 -128.113471 
L 157.530477 -127.69921 
L 158.100882 -127.288665 
L 158.671288 -126.88183 
L 159.241693 -126.478699 
L 159.812098 -126.079264 
L 160.382503 -125.683518 
L 160.952909 -125.291451 
L 161.523314 -124.903054 
L 162.093719 -124.518316 
L 162.664124 -124.137227 
L 163.234529 -123.759775 
L 163.804935 -123.385948 
L 164.37534 -123.015731 
L 164.945745 -122.649113 
L 165.51615 -122.286078 
L 166.086556 -121.926611 
L 166.656961 -121.570699 
L 167.227366 -121.218323 
L 167.797771 -120.869469 
L 168.368176 -120.52412 
L 168.938582 -120.182258 
L 169.508987 -119.843865 
L 170.079392 -119.508924 
L 170.649797 -119.177416 
L 171.220203 -118.849322 
L 171.790608 -118.524623 
L 172.361013 -118.2033 
L 172.931418 -117.885332 
L 173.501823 -117.570699 
L 174.072229 -117.259381 
L 174.642634 -116.951358 
L 175.213039 -116.646607 
L 175.783444 -116.345109 
L 176.35385 -116.04684 
L 176.924255 -115.751781 
L 177.49466 -115.459908 
L 178.065065 -115.1712 
L 178.63547 -114.885634 
L 179.205876 -114.603188 
L 179.776281 -114.323839 
L 180.346686 -114.047565 
L 180.917091 -113.774342 
L 181.487496 -113.504149 
L 182.057902 -113.236961 
L 182.628307 -112.972755 
L 183.198712 -112.711508 
L 183.769117 -112.453197 
L 184.339523 -112.197799 
L 184.909928 -111.945289 
L 185.480333 -111.695644 
L 186.050738 -111.448841 
L 186.621143 -111.204856 
L 187.191549 -110.963665 
L 187.761954 -110.725245 
L 188.332359 -110.489572 
L 188.902764 -110.256622 
L 189.47317 -110.026371 
L 190.043575 -109.798796 
L 190.61398 -109.573874 
L 191.184385 -109.35158 
L 191.75479 -109.131891 
L 192.325196 -108.914783 
L 192.895601 -108.700232 
L 193.466006 -108.488216 
L 194.036411 -108.278711 
L 194.606817 -108.071693 
L 195.177222 -107.867139 
L 195.747627 -107.665026 
L 196.318032 -107.46533 
L 196.888437 -107.268029 
L 197.458843 -107.073099 
L 198.029248 -106.880517 
L 198.599653 -106.690261 
L 199.170058 -106.502308 
L 199.740464 -106.316634 
L 200.310869 -106.133218 
L 200.881274 -105.952036 
L 201.451679 -105.773067 
L 202.022084 -105.596289 
L 202.59249 -105.421678 
L 203.162895 -105.249213 
L 203.7333 -105.078872 
L 204.303705 -104.910633 
L 204.874111 -104.744475 
L 205.444516 -104.580375 
L 206.014921 -104.418313 
L 206.585326 -104.258266 
L 207.155731 -104.100215 
L 207.726137 -103.944137 
L 208.296542 -103.790011 
L 208.866947 -103.637818 
L 209.437352 -103.487536 
L 210.007758 -103.339145 
L 210.578163 -103.192623 
L 211.148568 -103.047952 
L 211.718973 -102.905111 
L 212.289378 -102.764079 
L 212.859784 -102.624838 
L 213.430189 -102.487367 
L 214.000594 -102.351647 
L 214.570999 -102.217658 
L 215.141405 -102.085381 
L 215.71181 -101.954798 
L 216.282215 -101.825888 
L 216.85262 -101.698634 
L 217.423025 -101.573016 
L 217.993431 -101.449017 
L 218.563836 -101.326617 
L 219.134241 -101.205798 
L 219.704646 -101.086543 
L 220.275052 -100.968834 
L 220.845457 -100.852652 
L 221.415862 -100.737981 
L 221.986267 -100.624802 
L 222.556672 -100.513099 
L 223.127078 -100.402854 
L 223.697483 -100.29405 
L 224.267888 -100.186671 
L 224.838293 -100.080699 
L 225.408698 -99.976118 
L 225.979104 -99.872913 
L 226.549509 -99.771065 
L 227.119914 -99.67056 
L 227.690319 -99.571382 
L 228.260725 -99.473514 
L 228.83113 -99.376942 
L 229.401535 -99.281648 
L 229.97194 -99.187619 
L 230.542345 -99.094839 
L 231.112751 -99.003293 
L 231.683156 -98.912966 
L 232.253561 -98.823843 
L 232.823966 -98.735909 
L 233.394372 -98.649151 
L 233.964777 -98.563554 
L 234.535182 -98.479103 
L 235.105587 -98.395784 
L 235.675992 -98.313585 
L 236.246398 -98.23249 
L 236.816803 -98.152487 
L 237.387208 -98.073561 
L 237.957613 -97.9957 
L 238.528019 -97.91889 
L 239.098424 -97.843118 
L 239.668829 -97.768372 
L 240.239234 -97.694638 
L 240.809639 -97.621904 
L 241.380045 -97.550157 
L 241.95045 -97.479385 
L 242.520855 -97.409576 
L 243.09126 -97.340718 
L 243.661666 -97.272798 
L 244.232071 -97.205804 
L 244.802476 -97.139726 
L 245.372881 -97.074551 
L 245.943286 -97.010268 
L 246.513692 -96.946865 
L 247.084097 -96.884332 
L 247.654502 -96.822657 
L 248.224907 -96.761829 
L 248.795313 -96.701838 
L 249.365718 -96.642672 
L 249.936123 -96.584321 
L 250.506528 -96.526775 
L 251.076933 -96.470023 
L 251.647339 -96.414055 
L 252.217744 -96.35886 
L 252.788149 -96.30443 
L 253.358554 -96.250753 
L 253.92896 -96.19782 
L 254.499365 -96.145622 
L 255.06977 -96.094148 
L 255.640175 -96.04339 
L 256.21058 -95.993338 
L 256.780986 -95.943982 
L 257.351391 -95.895314 
L 257.921796 -95.847325 
L 258.492201 -95.800006 
L 259.062607 -95.753347 
L 259.633012 -95.707341 
L 260.203417 -95.661978 
L 260.773822 -95.61725 
L 261.344227 -95.573149 
L 261.914633 -95.529666 
L 262.485038 -95.486794 
L 263.055443 -95.444523 
L 263.625848 -95.402847 
L 264.196254 -95.361756 
L 264.766659 -95.321244 
L 265.337064 -95.281303 
L 265.907469 -95.241925 
L 266.477874 -95.203102 
L 267.04828 -95.164827 
L 267.618685 -95.127093 
L 268.18909 -95.089892 
L 268.759495 -95.053218 
L 269.3299 -95.017063 
L 269.900306 -94.98142 
L 270.470711 -94.946282 
L 271.041116 -94.911643 
L 271.611521 -94.877495 
L 272.181927 -94.843833 
L 272.752332 -94.810649 
L 273.322737 -94.777937 
L 273.893142 -94.745691 
L 274.463547 -94.713904 
L 275.033953 -94.68257 
L 275.604358 -94.651683 
L 276.174763 -94.621236 
L 276.745168 -94.591225 
L 277.315574 -94.561642 
L 277.885979 -94.532482 
L 278.456384 -94.50374 
L 279.026789 -94.475409 
L 279.597194 -94.447484 
L 280.1676 -94.419959 
L 280.738005 -94.392829 
L 281.30841 -94.366088 
L 281.878815 -94.339732 
L 282.449221 -94.313754 
L 283.019626 -94.288149 
L 283.590031 -94.262913 
L 284.160436 -94.23804 
L 284.730841 -94.213525 
L 285.301247 -94.189364 
L 285.871652 -94.165551 
L 286.442057 -94.142081 
L 287.012462 -94.11895 
L 287.582868 -94.096154 
L 288.153273 -94.073687 
L 288.723678 -94.051544 
L 289.294083 -94.029722 
L 289.864488 -94.008216 
L 290.434894 -93.987022 
L 291.005299 -93.966134 
L 291.575704 -93.945549 
L 292.146109 -93.925263 
L 292.716515 -93.905272 
L 293.28692 -93.88557 
L 293.857325 -93.866155 
L 294.42773 -93.847022 
L 294.998135 -93.828168 
L 295.568541 -93.809588 
L 296.138946 -93.791278 
L 296.709351 -93.773235 
L 297.279756 -93.755455 
L 297.850162 -93.737934 
L 298.420567 -93.720669 
L 298.990972 -93.703656 
L 299.561377 -93.686891 
L 300.131782 -93.670371 
L 300.702188 -93.654093 
L 301.272593 -93.638053 
L 301.842998 -93.622247 
L 302.413403 -93.606673 
L 302.983809 -93.591327 
L 303.554214 -93.576205 
L 304.124619 -93.561306 
L 304.695024 -93.546625 
L 305.265429 -93.532159 
L 305.835835 -93.517905 
L 306.40624 -93.503861 
L 306.976645 -93.490024 
L 307.54705 -93.476389 
L 308.117456 -93.462955 
L 308.687861 -93.449719 
L 309.258266 -93.436678 
L 309.828671 -93.423828 
L 310.399076 -93.411168 
L 310.969482 -93.398695 
L 311.539887 -93.386405 
L 312.110292 -93.374297 
L 312.680697 -93.362367 
L 313.251103 -93.350614 
L 313.821508 -93.339034 
L 314.391913 -93.327625 
L 314.962318 -93.316385 
L 315.532723 -93.305311 
L 316.103129 -93.294401 
L 316.673534 -93.283652 
L 317.243939 -93.273062 
L 317.814344 -93.26263 
L 318.384749 -93.252351 
L 318.955155 -93.242226 
L 319.52556 -93.23225 
L 320.095965 -93.222422 
L 320.66637 -93.212741 
L 321.236776 -93.203203 
L 321.807181 -93.193806 
L 322.377586 -93.18455 
L 322.947991 -93.17543 
L 323.518396 -93.166447 
L 324.088802 -93.157597 
L 324.659207 -93.148879 
L 325.229612 -93.14029 
L 325.800017 -93.13183 
L 326.370423 -93.123495 
L 326.940828 -93.115285 
L 327.511233 -93.107197 
L 328.081638 -93.09923 
L 328.652043 -93.091382 
L 329.222449 -93.083651 
L 329.792854 -93.076035 
L 330.363259 -93.068533 
L 330.933664 -93.061143 
L 331.50407 -93.053863 
L 332.074475 -93.046693 
L 332.64488 -93.039629 
L 333.215285 -93.032672 
L 333.78569 -93.025818 
L 334.356096 -93.019067 
L 334.926501 -93.012417 
L 335.496906 -93.005867 
L 336.067311 -92.999415 
L 336.637717 -92.99306 
L 337.208122 -92.9868 
L 337.778527 -92.980634 
L 338.348932 -92.97456 
L 338.919337 -92.968578 
L 339.489743 -92.962685 
L 340.060148 -92.956881 
L 340.630553 -92.951165 
L 341.200958 -92.945534 
L 341.771364 -92.939988 
L 342.341769 -92.934525 
L 342.912174 -92.929145 
L 343.482579 -92.923845 
L 344.052984 -92.918625 
L 344.62339 -92.913484 
L 345.193795 -92.908421 
L 345.7642 -92.903433 
L 346.334605 -92.898521 
L 346.905011 -92.893683 
L 347.475416 -92.888918 
L 348.045821 -92.884225 
L 348.616226 -92.879603 
L 349.186631 -92.87505 
L 349.757037 -92.870567 
L 350.327442 -92.866151 
L 350.897847 -92.861801 
L 351.468252 -92.857518 
L 352.038658 -92.853299 
L 352.609063 -92.849144 
L 353.179468 -92.845052 
L 353.749873 -92.841022 
L 354.320278 -92.837053 
L 354.890684 -92.833144 
L 355.461089 -92.829294 
L 356.031494 -92.825503 
L 356.601899 -92.821769 
L 357.172305 -92.818091 
L 357.74271 -92.81447 
L 358.313115 -92.810903 
L 358.88352 -92.80739 
L 359.453925 -92.803931 
L 360.024331 -92.800524 
L 360.594736 -92.797169 
L 361.165141 -92.793865 
L 361.735546 -92.790612 
L 362.305951 -92.787407 
L 362.876357 -92.784252 
L 363.446762 -92.781144 
L 364.017167 -92.778084 
L 364.587572 -92.77507 
L 365.157978 -92.772102 
L 365.728383 -92.769179 
L 366.298788 -92.766301 
L 366.869193 -92.763466 
L 367.439598 -92.760675 
L 368.010004 -92.757926 
L 368.580409 -92.75522 
L 369.150814 -92.752554 
L 369.721219 -92.749929 
L 370.291625 -92.747344 
L 370.86203 -92.744799 
L 371.432435 -92.742293 
L 372.00284 -92.739824 
L 372.573245 -92.737394 
L 373.143651 -92.735 
L 373.714056 -92.732643 
L 374.284461 -92.730323 
L 374.854866 -92.728037 
L 375.425272 -92.725787 
L 375.995677 -92.723571 
L 376.566082 -92.721389 
L 377.136487 -92.71924 
L 377.706892 -92.717124 
L 378.277298 -92.715041 
L 378.847703 -92.712989 
L 379.418108 -92.710969 
L 379.988513 -92.70898 
L 380.558919 -92.707021 
L 381.129324 -92.705092 
L 381.699729 -92.703193 
L 382.270134 -92.701323 
L 382.840539 -92.699482 
L 383.410945 -92.697669 
L 383.98135 -92.695884 
L 384.551755 -92.694126 
L 385.12216 -92.692395 
L 385.692566 -92.690691 
L 386.262971 -92.689013 
L 386.833376 -92.68736 
L 387.403781 -92.685733 
L 387.974186 -92.684131 
L 388.544592 -92.682554 
L 389.114997 -92.681001 
L 389.685402 -92.679472 
L 390.255807 -92.677966 
L 390.826213 -92.676484 
L 391.396618 -92.675024 
L 391.967023 -92.673587 
L 392.537428 -92.672172 
L 393.107833 -92.670778 
L 393.678239 -92.669407 
L 393.678239 -49.568011 
L 393.678239 -49.568011 
L 393.107833 -49.569384 
L 392.537428 -49.570777 
L 391.967023 -49.572193 
L 391.396618 -49.57363 
L 390.826213 -49.575091 
L 390.255807 -49.576574 
L 389.685402 -49.57808 
L 389.114997 -49.579609 
L 388.544592 -49.581163 
L 387.974186 -49.582741 
L 387.403781 -49.584343 
L 386.833376 -49.585971 
L 386.262971 -49.587624 
L 385.692566 -49.589302 
L 385.12216 -49.591007 
L 384.551755 -49.592739 
L 383.98135 -49.594497 
L 383.410945 -49.596283 
L 382.840539 -49.598097 
L 382.270134 -49.599939 
L 381.699729 -49.60181 
L 381.129324 -49.60371 
L 380.558919 -49.605639 
L 379.988513 -49.607599 
L 379.418108 -49.609589 
L 378.847703 -49.61161 
L 378.277298 -49.613662 
L 377.706892 -49.615747 
L 377.136487 -49.617863 
L 376.566082 -49.620013 
L 375.995677 -49.622196 
L 375.425272 -49.624413 
L 374.854866 -49.626665 
L 374.284461 -49.628951 
L 373.714056 -49.631273 
L 373.143651 -49.633632 
L 372.573245 -49.636026 
L 372.00284 -49.638458 
L 371.432435 -49.640928 
L 370.86203 -49.643436 
L 370.291625 -49.645982 
L 369.721219 -49.648569 
L 369.150814 -49.651195 
L 368.580409 -49.653862 
L 368.010004 -49.65657 
L 367.439598 -49.659321 
L 366.869193 -49.662114 
L 366.298788 -49.66495 
L 365.728383 -49.66783 
L 365.157978 -49.670754 
L 364.587572 -49.673724 
L 364.017167 -49.67674 
L 363.446762 -49.679803 
L 362.876357 -49.682912 
L 362.305951 -49.68607 
L 361.735546 -49.689277 
L 361.165141 -49.692533 
L 360.594736 -49.695839 
L 360.024331 -49.699197 
L 359.453925 -49.702606 
L 358.88352 -49.706068 
L 358.313115 -49.709583 
L 357.74271 -49.713152 
L 357.172305 -49.716777 
L 356.601899 -49.720457 
L 356.031494 -49.724194 
L 355.461089 -49.727989 
L 354.890684 -49.731842 
L 354.320278 -49.735754 
L 353.749873 -49.739727 
L 353.179468 -49.74376 
L 352.609063 -49.747856 
L 352.038658 -49.752015 
L 351.468252 -49.756237 
L 350.897847 -49.760525 
L 350.327442 -49.764878 
L 349.757037 -49.769299 
L 349.186631 -49.773787 
L 348.616226 -49.778344 
L 348.045821 -49.782971 
L 347.475416 -49.787669 
L 346.905011 -49.792439 
L 346.334605 -49.797282 
L 345.7642 -49.802199 
L 345.193795 -49.807192 
L 344.62339 -49.812261 
L 344.052984 -49.817408 
L 343.482579 -49.822634 
L 342.912174 -49.827939 
L 342.341769 -49.833326 
L 341.771364 -49.838796 
L 341.200958 -49.844348 
L 340.630553 -49.849986 
L 340.060148 -49.85571 
L 339.489743 -49.861521 
L 338.919337 -49.867421 
L 338.348932 -49.873412 
L 337.778527 -49.879493 
L 337.208122 -49.885668 
L 336.637717 -49.891936 
L 336.067311 -49.8983 
L 335.496906 -49.904762 
L 334.926501 -49.911321 
L 334.356096 -49.917981 
L 333.78569 -49.924742 
L 333.215285 -49.931606 
L 332.64488 -49.938574 
L 332.074475 -49.945648 
L 331.50407 -49.95283 
L 330.933664 -49.960122 
L 330.363259 -49.967524 
L 329.792854 -49.975038 
L 329.222449 -49.982667 
L 328.652043 -49.990411 
L 328.081638 -49.998273 
L 327.511233 -50.006254 
L 326.940828 -50.014357 
L 326.370423 -50.022582 
L 325.800017 -50.030932 
L 325.229612 -50.039408 
L 324.659207 -50.048013 
L 324.088802 -50.056748 
L 323.518396 -50.065615 
L 322.947991 -50.074616 
L 322.377586 -50.083754 
L 321.807181 -50.09303 
L 321.236776 -50.102446 
L 320.66637 -50.112004 
L 320.095965 -50.121706 
L 319.52556 -50.131555 
L 318.955155 -50.141553 
L 318.384749 -50.151702 
L 317.814344 -50.162003 
L 317.243939 -50.17246 
L 316.673534 -50.183074 
L 316.103129 -50.193849 
L 315.532723 -50.204786 
L 314.962318 -50.215887 
L 314.391913 -50.227155 
L 313.821508 -50.238593 
L 313.251103 -50.250203 
L 312.680697 -50.261987 
L 312.110292 -50.273948 
L 311.539887 -50.286089 
L 310.969482 -50.298413 
L 310.399076 -50.310921 
L 309.828671 -50.323617 
L 309.258266 -50.336503 
L 308.687861 -50.349582 
L 308.117456 -50.362858 
L 307.54705 -50.376332 
L 306.976645 -50.390008 
L 306.40624 -50.403888 
L 305.835835 -50.417977 
L 305.265429 -50.432275 
L 304.695024 -50.446788 
L 304.124619 -50.461518 
L 303.554214 -50.476467 
L 302.983809 -50.491639 
L 302.413403 -50.507038 
L 301.842998 -50.522667 
L 301.272593 -50.538529 
L 300.702188 -50.554627 
L 300.131782 -50.570965 
L 299.561377 -50.587546 
L 298.990972 -50.604374 
L 298.420567 -50.621452 
L 297.850162 -50.638784 
L 297.279756 -50.656374 
L 296.709351 -50.674225 
L 296.138946 -50.692341 
L 295.568541 -50.710727 
L 294.998135 -50.729385 
L 294.42773 -50.748319 
L 293.857325 -50.767535 
L 293.28692 -50.787035 
L 292.716515 -50.806824 
L 292.146109 -50.826906 
L 291.575704 -50.847285 
L 291.005299 -50.867965 
L 290.434894 -50.888951 
L 289.864488 -50.910248 
L 289.294083 -50.931859 
L 288.723678 -50.953788 
L 288.153273 -50.976042 
L 287.582868 -50.998623 
L 287.012462 -51.021538 
L 286.442057 -51.04479 
L 285.871652 -51.068385 
L 285.301247 -51.092326 
L 284.730841 -51.11662 
L 284.160436 -51.141272 
L 283.590031 -51.166285 
L 283.019626 -51.191666 
L 282.449221 -51.21742 
L 281.878815 -51.243552 
L 281.30841 -51.270067 
L 280.738005 -51.296971 
L 280.1676 -51.324269 
L 279.597194 -51.351966 
L 279.026789 -51.380069 
L 278.456384 -51.408584 
L 277.885979 -51.437515 
L 277.315574 -51.466869 
L 276.745168 -51.496652 
L 276.174763 -51.52687 
L 275.604358 -51.557528 
L 275.033953 -51.588634 
L 274.463547 -51.620193 
L 273.893142 -51.652212 
L 273.322737 -51.684697 
L 272.752332 -51.717654 
L 272.181927 -51.751091 
L 271.611521 -51.785014 
L 271.041116 -51.81943 
L 270.470711 -51.854345 
L 269.900306 -51.889767 
L 269.3299 -51.925703 
L 268.759495 -51.96216 
L 268.18909 -51.999144 
L 267.618685 -52.036664 
L 267.04828 -52.074727 
L 266.477874 -52.113341 
L 265.907469 -52.152512 
L 265.337064 -52.192249 
L 264.766659 -52.23256 
L 264.196254 -52.273452 
L 263.625848 -52.314934 
L 263.055443 -52.357013 
L 262.485038 -52.399698 
L 261.914633 -52.442998 
L 261.344227 -52.48692 
L 260.773822 -52.531473 
L 260.203417 -52.576666 
L 259.633012 -52.622508 
L 259.062607 -52.669008 
L 258.492201 -52.716174 
L 257.921796 -52.764016 
L 257.351391 -52.812543 
L 256.780986 -52.861764 
L 256.21058 -52.911689 
L 255.640175 -52.962327 
L 255.06977 -53.013688 
L 254.499365 -53.065783 
L 253.92896 -53.11862 
L 253.358554 -53.17221 
L 252.788149 -53.226563 
L 252.217744 -53.28169 
L 251.647339 -53.3376 
L 251.076933 -53.394306 
L 250.506528 -53.451816 
L 249.936123 -53.510143 
L 249.365718 -53.569297 
L 248.795313 -53.629289 
L 248.224907 -53.69013 
L 247.654502 -53.751832 
L 247.084097 -53.814407 
L 246.513692 -53.877867 
L 245.943286 -53.942222 
L 245.372881 -54.007485 
L 244.802476 -54.073668 
L 244.232071 -54.140783 
L 243.661666 -54.208844 
L 243.09126 -54.277861 
L 242.520855 -54.347849 
L 241.95045 -54.41882 
L 241.380045 -54.490786 
L 240.809639 -54.563762 
L 240.239234 -54.63776 
L 239.668829 -54.712795 
L 239.098424 -54.788878 
L 238.528019 -54.866026 
L 237.957613 -54.944251 
L 237.387208 -55.023567 
L 236.816803 -55.103989 
L 236.246398 -55.185532 
L 235.675992 -55.26821 
L 235.105587 -55.352038 
L 234.535182 -55.437031 
L 233.964777 -55.523203 
L 233.394372 -55.610572 
L 232.823966 -55.699151 
L 232.253561 -55.788957 
L 231.683156 -55.880005 
L 231.112751 -55.972312 
L 230.542345 -56.065894 
L 229.97194 -56.160767 
L 229.401535 -56.256949 
L 228.83113 -56.354455 
L 228.260725 -56.453303 
L 227.690319 -56.55351 
L 227.119914 -56.655093 
L 226.549509 -56.75807 
L 225.979104 -56.862459 
L 225.408698 -56.968278 
L 224.838293 -57.075545 
L 224.267888 -57.184278 
L 223.697483 -57.294496 
L 223.127078 -57.406217 
L 222.556672 -57.519461 
L 221.986267 -57.634247 
L 221.415862 -57.750595 
L 220.845457 -57.868523 
L 220.275052 -57.988052 
L 219.704646 -58.109202 
L 219.134241 -58.231992 
L 218.563836 -58.356444 
L 217.993431 -58.482579 
L 217.423025 -58.610416 
L 216.85262 -58.739978 
L 216.282215 -58.871285 
L 215.71181 -59.004359 
L 215.141405 -59.139221 
L 214.570999 -59.275895 
L 214.000594 -59.414402 
L 213.430189 -59.554764 
L 212.859784 -59.697005 
L 212.289378 -59.841147 
L 211.718973 -59.987213 
L 211.148568 -60.135226 
L 210.578163 -60.285211 
L 210.007758 -60.437191 
L 209.437352 -60.59119 
L 208.866947 -60.747233 
L 208.296542 -60.905344 
L 207.726137 -61.065547 
L 207.155731 -61.227868 
L 206.585326 -61.392332 
L 206.014921 -61.558965 
L 205.444516 -61.727792 
L 204.874111 -61.89884 
L 204.303705 -62.072134 
L 203.7333 -62.2477 
L 203.162895 -62.425566 
L 202.59249 -62.605759 
L 202.022084 -62.788306 
L 201.451679 -62.973233 
L 200.881274 -63.160569 
L 200.310869 -63.350342 
L 199.740464 -63.54258 
L 199.170058 -63.73731 
L 198.599653 -63.934563 
L 198.029248 -64.134366 
L 197.458843 -64.336748 
L 196.888437 -64.54174 
L 196.318032 -64.74937 
L 195.747627 -64.959669 
L 195.177222 -65.172666 
L 194.606817 -65.388392 
L 194.036411 -65.606877 
L 193.466006 -65.828152 
L 192.895601 -66.052248 
L 192.325196 -66.279197 
L 191.75479 -66.509029 
L 191.184385 -66.741776 
L 190.61398 -66.977471 
L 190.043575 -67.216145 
L 189.47317 -67.457831 
L 188.902764 -67.702562 
L 188.332359 -67.950369 
L 187.761954 -68.201286 
L 187.191549 -68.455347 
L 186.621143 -68.712585 
L 186.050738 -68.973034 
L 185.480333 -69.236726 
L 184.909928 -69.503697 
L 184.339523 -69.773981 
L 183.769117 -70.047611 
L 183.198712 -70.324624 
L 182.628307 -70.605053 
L 182.057902 -70.888933 
L 181.487496 -71.176301 
L 180.917091 -71.46719 
L 180.346686 -71.761637 
L 179.776281 -72.059678 
L 179.205876 -72.361347 
L 178.63547 -72.666682 
L 178.065065 -72.975718 
L 177.49466 -73.288491 
L 176.924255 -73.605039 
L 176.35385 -73.925397 
L 175.783444 -74.249602 
L 175.213039 -74.577692 
L 174.642634 -74.909702 
L 174.072229 -75.24567 
L 173.501823 -75.585633 
L 172.931418 -75.929628 
L 172.361013 -76.277692 
L 171.790608 -76.629862 
L 171.220203 -76.986177 
L 170.649797 -77.346672 
L 170.079392 -77.711386 
L 169.508987 -78.080356 
L 168.938582 -78.453619 
L 168.368176 -78.831213 
L 167.797771 -79.213175 
L 167.227366 -79.599543 
L 166.656961 -79.990354 
L 166.086556 -80.385644 
L 165.51615 -80.785452 
L 164.945745 -81.189814 
L 164.37534 -81.598767 
L 163.804935 -82.012349 
L 163.234529 -82.430596 
L 162.664124 -82.853544 
L 162.093719 -83.28123 
L 161.523314 -83.71369 
L 160.952909 -84.150961 
L 160.382503 -84.593078 
L 159.812098 -85.040077 
L 159.241693 -85.491992 
L 158.671288 -85.94886 
L 158.100882 -86.410714 
L 157.530477 -86.87759 
L 156.960072 -87.349521 
L 156.389667 -87.82654 
L 155.819262 -88.308682 
L 155.248856 -88.795979 
L 154.678451 -89.288463 
L 154.108046 -89.786166 
L 153.537641 -90.28912 
L 152.967235 -90.797356 
L 152.39683 -91.310904 
L 151.826425 -91.829793 
L 151.25602 -92.354052 
L 150.685615 -92.883711 
L 150.115209 -93.418796 
L 149.544804 -93.959335 
L 148.974399 -94.505354 
L 148.403994 -95.056878 
L 147.833588 -95.613931 
L 147.263183 -96.176539 
L 146.692778 -96.744722 
L 146.122373 -97.318504 
L 145.551968 -97.897904 
L 144.981562 -98.482943 
L 144.411157 -99.073639 
L 143.840752 -99.67001 
L 143.270347 -100.272072 
L 142.699941 -100.87984 
L 142.129536 -101.493327 
L 141.559131 -102.112547 
L 140.988726 -102.73751 
L 140.418321 -103.368226 
L 139.847915 -104.004702 
L 139.27751 -104.646946 
L 138.707105 -105.294962 
L 138.1367 -105.948754 
L 137.566294 -106.608322 
L 136.995889 -107.273667 
L 136.425484 -107.944786 
L 135.855079 -108.621674 
L 135.284674 -109.304326 
L 134.714268 -109.992734 
L 134.143863 -110.686886 
L 133.573458 -111.386769 
L 133.003053 -112.09237 
L 132.432647 -112.803669 
L 131.862242 -113.520648 
L 131.291837 -114.243282 
L 130.721432 -114.971548 
L 130.151027 -115.705417 
L 129.580621 -116.444858 
L 129.010216 -117.189836 
L 128.439811 -117.940316 
L 127.869406 -118.696257 
L 127.299001 -119.457615 
L 126.728595 -120.224344 
L 126.15819 -120.996394 
L 125.587785 -121.773711 
L 125.01738 -122.556236 
L 124.446974 -123.34391 
L 123.876569 -124.136666 
L 123.306164 -124.934436 
L 122.735759 -125.737145 
L 122.165354 -126.544715 
L 121.594948 -127.357065 
L 121.024543 -128.174108 
L 120.454138 -128.99575 
L 119.883733 -129.821897 
L 119.313327 -130.652446 
L 118.742922 -131.487291 
L 118.172517 -132.326318 
L 117.602112 -133.169411 
L 117.031707 -134.016445 
L 116.461301 -134.867292 
L 115.890896 -135.721816 
L 115.320491 -136.579876 
L 114.750086 -137.441322 
L 114.17968 -138.306002 
L 113.609275 -139.173752 
L 113.03887 -140.044405 
L 112.468465 -140.917786 
L 111.89806 -141.793711 
L 111.327654 -142.671989 
L 110.757249 -143.552421 
L 110.186844 -144.434802 
L 109.616439 -145.318917 
L 109.046033 -146.204541 
L 108.475628 -147.091442 
L 107.905223 -147.979379 
L 107.334818 -148.868102 
L 106.764413 -149.75735 
L 106.194007 -150.646852 
L 105.623602 -151.536329 
L 105.053197 -152.42549 
L 104.482792 -153.314033 
L 103.912386 -154.201645 
L 103.341981 -155.088003 
L 102.771576 -155.972772 
L 102.201171 -156.855604 
L 101.630766 -157.736138 
L 101.06036 -158.614003 
L 100.489955 -159.488812 
L 99.91955 -160.360168 
L 99.349145 -161.227656 
L 98.778739 -162.09085 
L 98.208334 -162.949309 
L 97.637929 -163.802576 
L 97.067524 -164.65018 
L 96.497119 -165.491632 
L 95.926713 -166.326429 
L 95.356308 -167.15405 
L 94.785903 -167.973957 
L 94.215498 -168.785596 
L 93.645092 -169.588392 
L 93.074687 -170.381754 
L 92.504282 -171.16507 
L 91.933877 -171.937709 
L 91.363472 -172.699021 
L 90.793066 -173.448333 
L 90.222661 -174.184952 
L 89.652256 -174.908163 
L 89.081851 -175.617228 
L 88.511445 -176.311386 
L 87.94104 -176.989852 
L 87.370635 -177.651818 
L 86.80023 -178.29645 
L 86.229825 -178.922886 
L 85.659419 -179.53024 
L 85.089014 -180.117598 
L 84.518609 -180.684019 
L 83.948204 -181.228531 
L 83.377799 -181.750133 
L 82.807393 -182.247796 
L 82.236988 -182.720455 
L 81.666583 -183.167017 
L 81.096178 -183.586355 
L 80.525772 -183.977305 
L 79.955367 -183.653516 
L 79.384962 -183.238828 
L 78.814557 -182.796724 
L 78.244152 -182.328338 
L 77.673746 -181.834768 
L 77.103341 -181.317083 
L 76.532936 -180.776319 
L 75.962531 -180.213482 
L 75.392125 -179.629547 
L 74.82172 -179.025461 
L 74.251315 -178.402143 
L 73.68091 -177.760484 
L 73.110505 -177.101348 
L 72.540099 -176.425575 
L 71.969694 -175.733977 
L 71.399289 -175.027343 
L 70.828884 -174.306438 
L 70.258478 -173.572003 
L 69.688073 -172.824758 
L 69.117668 -172.065399 
L 68.547263 -171.294602 
L 67.976858 -170.513021 
L 67.406452 -169.721291 
L 66.836047 -168.920025 
L 66.265642 -168.10982 
L 65.695237 -167.291251 
L 65.124831 -166.464878 
L 64.554426 -165.631241 
L 63.984021 -164.790862 
L 63.413616 -163.94425 
L 62.843211 -163.091893 
L 62.272805 -162.234268 
L 61.7024 -161.371832 
L 61.131995 -160.505029 
L 60.56159 -159.634289 
L 59.991184 -158.760027 
L 59.420779 -157.882644 
L 58.850374 -157.002529 
L 58.279969 -156.120055 
L 57.709564 -155.235585 
L 57.139158 -154.349467 
L 56.568753 -153.462041 
L 55.998348 -152.573631 
L 55.427943 -151.684552 
L 54.857537 -150.795108 
L 54.287132 -149.90559 
L 53.716727 -149.016281 
L 53.146322 -148.127452 
L 52.575917 -147.239366 
L 52.005511 -146.352275 
z
" id="m864e0b35a9" style="stroke:#808080;stroke-opacity:0.4;stroke-width:0.5;"/>
    </defs>
    <g clip-path="url(#pe808e29ad1)">
     <use style="fill:#808080;fill-opacity:0.4;stroke:#808080;stroke-opacity:0.4;stroke-width:0.5;" x="0" xlink:href="#m864e0b35a9" y="264.324375"/>
    </g>
   </g>
   <g id="line2d_25">
    <path clip-path="url(#pe808e29ad1)" d="M 52.005511 104.618462 
L 58.279969 96.948835 
L 62.272805 92.394703 
L 65.695237 88.826976 
L 68.547263 86.177988 
L 70.828884 84.326647 
L 73.110505 82.762384 
L 74.82172 81.807938 
L 76.532936 81.067005 
L 78.244152 80.565121 
L 79.955367 80.329946 
L 81.666583 80.387853 
L 83.377799 80.730176 
L 85.089014 81.32819 
L 86.80023 82.155079 
L 89.081851 83.57112 
L 91.363472 85.296843 
L 93.645092 87.284357 
L 96.497119 90.072041 
L 99.91955 93.76607 
L 103.912386 98.421053 
L 109.616439 105.452685 
L 125.01738 124.651152 
L 130.721432 131.332252 
L 135.855079 137.015968 
L 140.988726 142.351256 
L 145.551968 146.786342 
L 150.115209 150.927443 
L 154.678451 154.77627 
L 159.241693 158.339029 
L 163.804935 161.625227 
L 168.368176 164.646708 
L 172.931418 167.416895 
L 177.49466 169.950175 
L 182.628307 172.535471 
L 187.761954 174.861109 
L 192.895601 176.948135 
L 198.599653 179.011963 
L 204.303705 180.832992 
L 210.578163 182.585458 
L 216.85262 184.105069 
L 223.697483 185.530102 
L 231.112751 186.836572 
L 239.098424 188.008377 
L 247.654502 189.03713 
L 257.351391 189.970446 
L 268.18909 190.779857 
L 280.738005 191.479475 
L 294.998135 192.045599 
L 312.680697 192.512198 
L 334.926501 192.862506 
L 365.728383 193.105871 
L 393.678239 193.205666 
L 393.678239 193.205666 
" style="fill:none;stroke:#000000;stroke-width:2.7;"/>
   </g>
   <g id="line2d_26">
    <path clip-path="url(#pe808e29ad1)" d="M 52.005511 131.943552 
L 55.998348 122.89958 
L 59.991184 114.400018 
L 63.984021 106.475672 
L 67.406452 100.161026 
L 70.828884 94.301648 
L 74.251315 88.908357 
L 77.673746 83.989289 
L 80.525772 80.256334 
L 83.377799 76.858278 
L 86.229825 73.79559 
L 89.081851 71.067478 
L 91.933877 68.671917 
L 94.785903 66.605662 
L 97.637929 64.864284 
L 99.91955 63.70138 
L 102.201171 62.739468 
L 104.482792 61.974728 
L 106.764413 61.402904 
L 109.046033 61.019325 
L 111.327654 60.818917 
L 114.17968 60.817637 
L 117.031707 61.082531 
L 119.883733 61.601282 
L 122.735759 62.360783 
L 125.587785 63.347193 
L 128.439811 64.546003 
L 131.862242 66.243624 
L 135.284674 68.198168 
L 139.27751 70.765667 
L 143.270347 73.598649 
L 147.833588 77.101049 
L 153.537641 81.771548 
L 162.664124 89.59025 
L 172.361013 97.811224 
L 178.065065 102.351207 
L 182.628307 105.722595 
L 186.621143 108.433279 
L 190.61398 110.883348 
L 194.036411 112.751228 
L 197.458843 114.385045 
L 200.881274 115.767997 
L 204.303705 116.8852 
L 207.155731 117.603843 
L 210.007758 118.122597 
L 212.859784 118.436124 
L 215.71181 118.540131 
L 218.563836 118.431383 
L 221.415862 118.107717 
L 224.267888 117.56805 
L 227.119914 116.812381 
L 229.97194 115.841795 
L 232.823966 114.658455 
L 235.675992 113.265594 
L 239.098424 111.323713 
L 242.520855 109.095758 
L 245.943286 106.59324 
L 249.365718 103.829715 
L 253.358554 100.296548 
L 257.351391 96.457246 
L 261.914633 91.734776 
L 267.04828 86.057112 
L 272.752332 79.390139 
L 280.1676 70.351088 
L 296.709351 50.058133 
L 302.413403 43.485228 
L 306.976645 38.541187 
L 310.969482 34.504327 
L 314.962318 30.78535 
L 318.384749 27.884254 
L 321.807181 25.276023 
L 324.659207 23.344725 
L 327.511233 21.648725 
L 330.363259 20.20143 
L 333.215285 19.015481 
L 336.067311 18.102694 
L 338.348932 17.576522 
L 340.630553 17.237364 
L 342.912174 17.089992 
L 345.193795 17.138768 
L 347.475416 17.387623 
L 349.757037 17.840046 
L 352.038658 18.49907 
L 354.320278 19.367262 
L 356.601899 20.44671 
L 358.88352 21.739012 
L 361.165141 23.245272 
L 364.017167 25.429832 
L 366.869193 27.94963 
L 369.721219 30.803436 
L 372.573245 33.988737 
L 375.425272 37.50173 
L 378.277298 41.337319 
L 381.699729 46.356763 
L 385.12216 51.817983 
L 388.544592 57.704834 
L 391.967023 63.998561 
L 393.678239 67.29144 
L 393.678239 67.29144 
" style="fill:none;stroke:#800080;stroke-width:2.7;"/>
   </g>
   <g id="line2d_27">
    <path clip-path="url(#pe808e29ad1)" d="M 52.005511 37.850277 
L 54.287132 38.59161 
L 55.998348 39.353289 
L 57.709564 40.307732 
L 59.420779 41.470671 
L 61.131995 42.858694 
L 62.843211 44.489275 
L 64.554426 46.380785 
L 66.265642 48.552506 
L 67.976858 51.024638 
L 69.688073 53.818295 
L 71.399289 56.955501 
L 73.110505 60.459168 
L 74.82172 64.35306 
L 77.103341 70.194508 
L 79.384962 76.833691 
L 80.525772 80.16021 
L 82.807393 73.134732 
L 85.089014 66.935258 
L 87.370635 61.500626 
L 89.652256 56.771813 
L 91.933877 52.692281 
L 93.645092 50.026229 
L 95.356308 47.673383 
L 97.067524 45.612982 
L 98.778739 43.825185 
L 100.489955 42.291066 
L 102.201171 40.992603 
L 103.912386 39.912669 
L 105.623602 39.035012 
L 107.905223 38.152957 
L 110.186844 37.568998 
L 112.468465 37.251423 
L 114.750086 37.170912 
L 117.031707 37.300421 
L 119.883733 37.71992 
L 122.735759 38.384639 
L 126.15819 39.450539 
L 129.580621 40.75232 
L 133.573458 42.499565 
L 138.707105 45.000042 
L 146.122373 48.891081 
L 162.093719 57.331886 
L 169.508987 60.953491 
L 176.35385 64.034648 
L 182.628307 66.616216 
L 188.902764 68.959633 
L 195.177222 71.06829 
L 201.451679 72.951639 
L 208.296542 74.765028 
L 215.141405 76.346673 
L 222.556672 77.824001 
L 230.542345 79.171646 
L 239.098424 80.372777 
L 248.224907 81.419148 
L 258.492201 82.356706 
L 269.900306 83.159651 
L 282.449221 83.817955 
L 297.279756 84.370758 
L 315.532723 84.818014 
L 338.919337 85.153484 
L 371.432435 85.379353 
L 393.678239 85.452178 
L 393.678239 85.452178 
" style="fill:none;stroke:#008000;stroke-width:2.7;"/>
   </g>
   <g id="patch_3">
    <path d="M 34.921875 224.64 
L 34.921875 7.2 
" style="fill:none;stroke:#f0f0f0;stroke-linecap:square;stroke-linejoin:miter;stroke-width:3;"/>
   </g>
   <g id="patch_4">
    <path d="M 410.761875 224.64 
L 410.761875 7.2 
" style="fill:none;stroke:#f0f0f0;stroke-linecap:square;stroke-linejoin:miter;stroke-width:3;"/>
   </g>
   <g id="patch_5">
    <path d="M 34.921875 224.64 
L 410.761875 224.64 
" style="fill:none;stroke:#f0f0f0;stroke-linecap:square;stroke-linejoin:miter;stroke-width:3;"/>
   </g>
   <g id="patch_6">
    <path d="M 34.921875 7.2 
L 410.761875 7.2 
" style="fill:none;stroke:#f0f0f0;stroke-linecap:square;stroke-linejoin:miter;stroke-width:3;"/>
   </g>
   <g id="legend_1">
    <g id="patch_7">
     <path d="M 435.595475 121.829375 
L 607.9486 121.829375 
Q 610.7486 121.829375 610.7486 119.029375 
L 610.7486 17 
Q 610.7486 14.2 607.9486 14.2 
L 435.595475 14.2 
Q 432.795475 14.2 432.795475 17 
L 432.795475 119.029375 
Q 432.795475 121.829375 435.595475 121.829375 
z
" style="fill:#f0f0f0;opacity:0.8;stroke:#cccccc;stroke-linejoin:miter;stroke-width:0.5;"/>
    </g>
    <g id="line2d_28">
     <path d="M 438.395475 25.96 
L 466.395475 25.96 
" style="fill:none;stroke:#000000;stroke-width:2.7;"/>
    </g>
    <g id="line2d_29"/>
    <g id="text_15">
     <!-- Predicted ($\mu$) -->
     <defs>
      <path d="M 27 70 
Q 41.59375 70 49.4375 64.453125 
Q 57.296875 58.90625 57.296875 47.90625 
Q 57.296875 41.90625 55.140625 37.65625 
Q 53 33.40625 48.953125 30.75 
Q 44.90625 28.09375 39.09375 26.890625 
Q 33.296875 25.703125 26 25.703125 
L 18.296875 25.703125 
L 18.296875 0 
L 8.59375 0 
L 8.59375 68.296875 
Q 12.703125 69.296875 17.75 69.640625 
Q 22.796875 70 27 70 
z
M 27.796875 61.5 
Q 21.59375 61.5 18.296875 61.203125 
L 18.296875 34 
L 25.59375 34 
Q 30.59375 34 34.59375 34.640625 
Q 38.59375 35.296875 41.34375 36.84375 
Q 44.09375 38.40625 45.59375 41.09375 
Q 47.09375 43.796875 47.09375 48 
Q 47.09375 52 45.546875 54.59375 
Q 44 57.203125 41.34375 58.75 
Q 38.703125 60.296875 35.203125 60.890625 
Q 31.703125 61.5 27.796875 61.5 
z
" id="Ubuntu-80"/>
      <path d="M 27.203125 53.09375 
Q 28.40625 53.09375 29.953125 52.9375 
Q 31.5 52.796875 33 52.546875 
Q 34.5 52.296875 35.75 52.046875 
Q 37 51.796875 37.59375 51.59375 
L 36 43.5 
Q 34.90625 43.90625 32.34375 44.453125 
Q 29.796875 45 25.796875 45 
Q 23.203125 45 20.640625 44.453125 
Q 18.09375 43.90625 17.296875 43.703125 
L 17.296875 0 
L 8 0 
L 8 49.796875 
Q 11.296875 51 16.1875 52.046875 
Q 21.09375 53.09375 27.203125 53.09375 
z
" id="Ubuntu-114"/>
      <path d="M 17.296875 0 
L 8 0 
L 8 52 
L 17.296875 52 
z
M 12.59375 61.40625 
Q 10.09375 61.40625 8.34375 63.046875 
Q 6.59375 64.703125 6.59375 67.5 
Q 6.59375 70.296875 8.34375 71.9375 
Q 10.09375 73.59375 12.59375 73.59375 
Q 15.09375 73.59375 16.84375 71.9375 
Q 18.59375 70.296875 18.59375 67.5 
Q 18.59375 64.703125 16.84375 63.046875 
Q 15.09375 61.40625 12.59375 61.40625 
z
" id="Ubuntu-105"/>
      <path d="M 17.09375 29.90625 
Q 17.09375 17.09375 20.796875 6.1875 
Q 24.5 -4.703125 31.703125 -14 
L 25.09375 -18.5 
Q 17.296875 -9 12.546875 3.34375 
Q 7.796875 15.703125 7.796875 29.90625 
Q 7.796875 44.09375 12.546875 56.4375 
Q 17.296875 68.796875 25.09375 78.296875 
L 31.703125 73.796875 
Q 24.5 64.5 20.796875 53.59375 
Q 17.09375 42.703125 17.09375 29.90625 
z
" id="Ubuntu-40"/>
      <path d="M -1.3125 -20.796875 
L 13.375 54.6875 
L 22.40625 54.6875 
L 15.765625 20.65625 
Q 15.578125 19.625 15.421875 18.359375 
Q 15.28125 17.09375 15.28125 15.828125 
Q 15.28125 11.28125 18.140625 8.828125 
Q 21 6.390625 26.3125 6.390625 
Q 33.546875 6.390625 37.984375 10.484375 
Q 42.4375 14.59375 44 22.796875 
L 50.203125 54.6875 
L 59.1875 54.6875 
L 51.03125 12.640625 
Q 50.828125 11.71875 50.75 11.03125 
Q 50.6875 10.359375 50.6875 9.8125 
Q 50.6875 8.296875 51.296875 7.59375 
Q 51.90625 6.890625 53.21875 6.890625 
Q 53.71875 6.890625 54.5625 7.125 
Q 55.421875 7.375 56.984375 8.015625 
L 55.609375 0.78125 
Q 53.46875 -0.296875 51.515625 -0.859375 
Q 49.5625 -1.421875 47.703125 -1.421875 
Q 44.484375 -1.421875 42.65625 0.625 
Q 40.828125 2.6875 40.828125 6.296875 
Q 38.09375 2.390625 34.296875 0.484375 
Q 30.515625 -1.421875 25.390625 -1.421875 
Q 20.84375 -1.421875 17.453125 0.671875 
Q 14.0625 2.78125 12.984375 6.203125 
L 7.71875 -20.796875 
z
" id="DejaVuSans-Oblique-956"/>
      <path d="M 15.296875 29.90625 
Q 15.296875 42.703125 11.59375 53.59375 
Q 7.90625 64.5 0.703125 73.796875 
L 7.296875 78.296875 
Q 15.09375 68.796875 19.84375 56.4375 
Q 24.59375 44.09375 24.59375 29.90625 
Q 24.59375 15.703125 19.84375 3.34375 
Q 15.09375 -9 7.296875 -18.5 
L 0.703125 -14 
Q 7.90625 -4.703125 11.59375 6.1875 
Q 15.296875 17.09375 15.296875 29.90625 
z
" id="Ubuntu-41"/>
     </defs>
     <g transform="translate(477.595475 30.86)scale(0.14 -0.14)">
      <use transform="translate(0 0.703125)" xlink:href="#Ubuntu-80"/>
      <use transform="translate(60.799988 0.703125)" xlink:href="#Ubuntu-114"/>
      <use transform="translate(99.399979 0.703125)" xlink:href="#Ubuntu-101"/>
      <use transform="translate(155.299973 0.703125)" xlink:href="#Ubuntu-100"/>
      <use transform="translate(214.199966 0.703125)" xlink:href="#Ubuntu-105"/>
      <use transform="translate(239.499954 0.703125)" xlink:href="#Ubuntu-99"/>
      <use transform="translate(285.999939 0.703125)" xlink:href="#Ubuntu-116"/>
      <use transform="translate(326.199936 0.703125)" xlink:href="#Ubuntu-101"/>
      <use transform="translate(382.09993 0.703125)" xlink:href="#Ubuntu-100"/>
      <use transform="translate(440.999924 0.703125)" xlink:href="#Ubuntu-32"/>
      <use transform="translate(464.099915 0.703125)" xlink:href="#Ubuntu-40"/>
      <use transform="translate(496.499908 0.703125)" xlink:href="#DejaVuSans-Oblique-956"/>
      <use transform="translate(560.122955 0.703125)" xlink:href="#Ubuntu-41"/>
     </g>
    </g>
    <g id="line2d_30">
     <path d="M 438.395475 46.96 
L 466.395475 46.96 
" style="fill:none;stroke:#800080;stroke-width:2.7;"/>
    </g>
    <g id="line2d_31"/>
    <g id="text_16">
     <!-- GT ($f$) -->
     <defs>
      <path d="M 54.90625 69.296875 
L 54.90625 60.90625 
L 33.09375 60.90625 
L 33.09375 0 
L 23.40625 0 
L 23.40625 60.90625 
L 1.59375 60.90625 
L 1.59375 69.296875 
z
" id="Ubuntu-84"/>
      <path d="M 47.796875 75.984375 
L 46.390625 68.5 
L 37.796875 68.5 
Q 32.90625 68.5 30.6875 66.578125 
Q 28.46875 64.65625 27.390625 59.515625 
L 26.421875 54.6875 
L 41.21875 54.6875 
L 39.890625 47.703125 
L 25.09375 47.703125 
L 15.828125 0 
L 6.78125 0 
L 16.109375 47.703125 
L 7.515625 47.703125 
L 8.796875 54.6875 
L 17.390625 54.6875 
L 18.109375 58.5 
Q 19.96875 68.171875 24.625 72.078125 
Q 29.296875 75.984375 39.3125 75.984375 
z
" id="DejaVuSans-Oblique-102"/>
     </defs>
     <g transform="translate(477.595475 51.86)scale(0.14 -0.14)">
      <use transform="translate(0 0.703125)" xlink:href="#Ubuntu-71"/>
      <use transform="translate(67.199997 0.703125)" xlink:href="#Ubuntu-84"/>
      <use transform="translate(123.699982 0.703125)" xlink:href="#Ubuntu-32"/>
      <use transform="translate(146.799973 0.703125)" xlink:href="#Ubuntu-40"/>
      <use transform="translate(179.199966 0.703125)" xlink:href="#DejaVuSans-Oblique-102"/>
      <use transform="translate(214.405045 0.703125)" xlink:href="#Ubuntu-41"/>
     </g>
    </g>
    <g id="line2d_32">
     <path d="M 438.395475 67.483125 
L 466.395475 67.483125 
" style="fill:none;stroke:#008000;stroke-width:2.7;"/>
    </g>
    <g id="line2d_33"/>
    <g id="text_17">
     <!-- Acquisition function -->
     <defs>
      <path d="M 54.90625 0 
Q 53.203125 4.5 51.703125 8.84375 
Q 50.203125 13.203125 48.59375 17.703125 
L 17.203125 17.703125 
L 10.90625 0 
L 0.796875 0 
Q 4.796875 11 8.296875 20.34375 
Q 11.796875 29.703125 15.140625 38.09375 
Q 18.5 46.5 21.796875 54.140625 
Q 25.09375 61.796875 28.703125 69.296875 
L 37.59375 69.296875 
Q 41.203125 61.796875 44.5 54.140625 
Q 47.796875 46.5 51.140625 38.09375 
Q 54.5 29.703125 58 20.34375 
Q 61.5 11 65.5 0 
z
M 45.796875 25.703125 
Q 42.59375 34.40625 39.4375 42.546875 
Q 36.296875 50.703125 32.90625 58.203125 
Q 29.40625 50.703125 26.25 42.546875 
Q 23.09375 34.40625 20 25.703125 
z
" id="Ubuntu-65"/>
      <path d="M 14.796875 25.90625 
Q 14.796875 21.90625 15.59375 18.453125 
Q 16.40625 15 18.203125 12.453125 
Q 20 9.90625 22.84375 8.453125 
Q 25.703125 7 29.703125 7 
Q 33.5 7 36.703125 8.296875 
Q 39.90625 9.59375 41.59375 11 
L 41.59375 43.796875 
Q 40.203125 44.203125 37.84375 44.5 
Q 35.5 44.796875 31.296875 44.796875 
Q 23.796875 44.796875 19.296875 39.890625 
Q 14.796875 35 14.796875 25.90625 
z
M 5.09375 25.90625 
Q 5.09375 32.203125 6.9375 37.25 
Q 8.796875 42.296875 12.1875 45.796875 
Q 15.59375 49.296875 20.390625 51.1875 
Q 25.203125 53.09375 31.203125 53.09375 
Q 37.703125 53.09375 42.640625 52.140625 
Q 47.59375 51.203125 50.90625 50.40625 
L 50.90625 -18.5 
L 41.59375 -18.5 
L 41.59375 2.296875 
Q 39.90625 1.203125 36.453125 0 
Q 33 -1.203125 28.5 -1.203125 
Q 22.90625 -1.203125 18.546875 0.796875 
Q 14.203125 2.796875 11.203125 6.390625 
Q 8.203125 10 6.640625 15 
Q 5.09375 20 5.09375 25.90625 
z
" id="Ubuntu-113"/>
      <path d="M 49.40625 1.5 
Q 46.203125 0.703125 40.953125 -0.1875 
Q 35.703125 -1.09375 28.796875 -1.09375 
Q 22.796875 -1.09375 18.6875 0.65625 
Q 14.59375 2.40625 12.09375 5.59375 
Q 9.59375 8.796875 8.5 13.140625 
Q 7.40625 17.5 7.40625 22.796875 
L 7.40625 52 
L 16.703125 52 
L 16.703125 24.796875 
Q 16.703125 15.296875 19.703125 11.1875 
Q 22.703125 7.09375 29.796875 7.09375 
Q 31.296875 7.09375 32.890625 7.1875 
Q 34.5 7.296875 35.890625 7.4375 
Q 37.296875 7.59375 38.4375 7.75 
Q 39.59375 7.90625 40.09375 8.09375 
L 40.09375 52 
L 49.40625 52 
z
" id="Ubuntu-117"/>
      <path d="M 20.09375 6.703125 
Q 25.796875 6.703125 28.546875 8.203125 
Q 31.296875 9.703125 31.296875 13 
Q 31.296875 16.40625 28.59375 18.40625 
Q 25.90625 20.40625 19.703125 22.90625 
Q 16.703125 24.09375 13.953125 25.34375 
Q 11.203125 26.59375 9.203125 28.296875 
Q 7.203125 30 6 32.390625 
Q 4.796875 34.796875 4.796875 38.296875 
Q 4.796875 45.203125 9.890625 49.25 
Q 15 53.296875 23.796875 53.296875 
Q 26 53.296875 28.203125 53.046875 
Q 30.40625 52.796875 32.296875 52.4375 
Q 34.203125 52.09375 35.640625 51.6875 
Q 37.09375 51.296875 37.90625 51 
L 36.203125 43 
Q 34.703125 43.796875 31.5 44.640625 
Q 28.296875 45.5 23.796875 45.5 
Q 19.90625 45.5 17 43.953125 
Q 14.09375 42.40625 14.09375 39.09375 
Q 14.09375 37.40625 14.75 36.09375 
Q 15.40625 34.796875 16.75 33.75 
Q 18.09375 32.703125 20.09375 31.796875 
Q 22.09375 30.90625 24.90625 29.90625 
Q 28.59375 28.5 31.5 27.140625 
Q 34.40625 25.796875 36.453125 24 
Q 38.5 22.203125 39.59375 19.640625 
Q 40.703125 17.09375 40.703125 13.40625 
Q 40.703125 6.203125 35.34375 2.5 
Q 30 -1.203125 20.09375 -1.203125 
Q 13.203125 -1.203125 9.296875 -0.046875 
Q 5.40625 1.09375 4 1.703125 
L 5.703125 9.703125 
Q 7.296875 9.09375 10.796875 7.890625 
Q 14.296875 6.703125 20.09375 6.703125 
z
" id="Ubuntu-115"/>
      <path d="M 28.296875 77.59375 
Q 32.40625 77.59375 35.34375 77 
Q 38.296875 76.40625 39.5 75.90625 
L 37.796875 67.90625 
Q 36.59375 68.5 34.390625 69.046875 
Q 32.203125 69.59375 29 69.59375 
Q 22.5 69.59375 19.890625 66.046875 
Q 17.296875 62.5 17.296875 56.5 
L 17.296875 52 
L 37.296875 52 
L 37.296875 44.203125 
L 17.296875 44.203125 
L 17.296875 0 
L 8 0 
L 8 56.703125 
Q 8 66.703125 12.890625 72.140625 
Q 17.796875 77.59375 28.296875 77.59375 
z
" id="Ubuntu-102"/>
     </defs>
     <g transform="translate(477.595475 72.383125)scale(0.14 -0.14)">
      <use xlink:href="#Ubuntu-65"/>
      <use x="66.284363" xlink:href="#Ubuntu-99"/>
      <use x="112.784348" xlink:href="#Ubuntu-113"/>
      <use x="171.684341" xlink:href="#Ubuntu-117"/>
      <use x="229.084335" xlink:href="#Ubuntu-105"/>
      <use x="254.384323" xlink:href="#Ubuntu-115"/>
      <use x="298.984314" xlink:href="#Ubuntu-105"/>
      <use x="324.284302" xlink:href="#Ubuntu-116"/>
      <use x="364.484299" xlink:href="#Ubuntu-105"/>
      <use x="389.784286" xlink:href="#Ubuntu-111"/>
      <use x="448.784271" xlink:href="#Ubuntu-110"/>
      <use x="506.184265" xlink:href="#Ubuntu-32"/>
      <use x="529.284256" xlink:href="#Ubuntu-102"/>
      <use x="567.884247" xlink:href="#Ubuntu-117"/>
      <use x="625.284241" xlink:href="#Ubuntu-110"/>
      <use x="682.684235" xlink:href="#Ubuntu-99"/>
      <use x="729.184219" xlink:href="#Ubuntu-116"/>
      <use x="769.384216" xlink:href="#Ubuntu-105"/>
      <use x="794.684204" xlink:href="#Ubuntu-111"/>
      <use x="853.684189" xlink:href="#Ubuntu-110"/>
     </g>
    </g>
    <g id="patch_8">
     <path d="M 438.395475 92.83625 
L 466.395475 92.83625 
L 466.395475 83.03625 
L 438.395475 83.03625 
z
" style="fill:#808080;opacity:0.4;stroke:#808080;stroke-linejoin:miter;stroke-width:0.5;"/>
    </g>
    <g id="text_18">
     <!-- $\mu \pm \sigma$ -->
     <defs>
      <path d="M 46 62.703125 
L 46 43.796875 
L 73.1875 43.796875 
L 73.1875 35.5 
L 46 35.5 
L 46 16.609375 
L 37.796875 16.609375 
L 37.796875 35.5 
L 10.59375 35.5 
L 10.59375 43.796875 
L 37.796875 43.796875 
L 37.796875 62.703125 
z
M 10.59375 8.296875 
L 73.1875 8.296875 
L 73.1875 0 
L 10.59375 0 
z
" id="DejaVuSans-177"/>
      <path d="M 34.671875 47.5625 
Q 27.25 47.5625 22.21875 42.1875 
Q 16.890625 36.578125 15.140625 27.296875 
Q 13.1875 17.484375 16.3125 11.8125 
Q 19.390625 6.203125 26.65625 6.203125 
Q 33.84375 6.203125 39.109375 11.859375 
Q 44.4375 17.53125 46.34375 27.296875 
Q 48.046875 36.234375 45.015625 42.1875 
Q 42.1875 47.5625 34.671875 47.5625 
z
M 36.078125 54.734375 
L 65.921875 54.6875 
L 64.15625 45.703125 
L 54.109375 45.703125 
Q 57.90625 38.09375 55.859375 27.296875 
Q 53.21875 13.875 45.0625 6.25 
Q 36.859375 -1.421875 25.140625 -1.421875 
Q 13.375 -1.421875 8.203125 6.25 
Q 3.03125 13.875 5.671875 27.296875 
Q 8.25 40.765625 16.40625 48.390625 
Q 23.1875 54.734375 36.078125 54.734375 
z
" id="DejaVuSans-Oblique-963"/>
     </defs>
     <g transform="translate(477.595475 92.83625)scale(0.14 -0.14)">
      <use transform="translate(0 0.296875)" xlink:href="#DejaVuSans-Oblique-956"/>
      <use transform="translate(83.105469 0.296875)" xlink:href="#DejaVuSans-177"/>
      <use transform="translate(186.376953 0.296875)" xlink:href="#DejaVuSans-Oblique-963"/>
     </g>
    </g>
    <g id="PathCollection_1">
     <defs>
      <path d="M 0 7.071068 
C 1.875269 7.071068 3.673985 6.326016 5 5 
C 6.326016 3.673985 7.071068 1.875269 7.071068 0 
C 7.071068 -1.875269 6.326016 -3.673985 5 -5 
C 3.673985 -6.326016 1.875269 -7.071068 0 -7.071068 
C -1.875269 -7.071068 -3.673985 -6.326016 -5 -5 
C -6.326016 -3.673985 -7.071068 -1.875269 -7.071068 0 
C -7.071068 1.875269 -6.326016 3.673985 -5 5 
C -3.673985 6.326016 -1.875269 7.071068 0 7.071068 
z
" id="m1d91661661" style="stroke:#ff0000;stroke-width:0.5;"/>
     </defs>
     <g>
      <use style="fill:#ff0000;stroke:#ff0000;stroke-width:0.5;" x="452.395475" xlink:href="#m1d91661661" y="109.964375"/>
     </g>
    </g>
    <g id="text_19">
     <!-- Train points -->
     <defs>
      <path d="M 25.59375 6.703125 
Q 28.90625 6.703125 31.453125 6.84375 
Q 34 7 35.703125 7.40625 
L 35.703125 22.90625 
Q 34.703125 23.40625 32.453125 23.75 
Q 30.203125 24.09375 27 24.09375 
Q 24.90625 24.09375 22.546875 23.796875 
Q 20.203125 23.5 18.25 22.546875 
Q 16.296875 21.59375 15 19.9375 
Q 13.703125 18.296875 13.703125 15.59375 
Q 13.703125 10.59375 16.890625 8.640625 
Q 20.09375 6.703125 25.59375 6.703125 
z
M 24.796875 53.296875 
Q 30.40625 53.296875 34.25 51.84375 
Q 38.09375 50.40625 40.4375 47.75 
Q 42.796875 45.09375 43.796875 41.4375 
Q 44.796875 37.796875 44.796875 33.40625 
L 44.796875 0.90625 
Q 43.59375 0.703125 41.4375 0.34375 
Q 39.296875 0 36.59375 -0.296875 
Q 33.90625 -0.59375 30.75 -0.84375 
Q 27.59375 -1.09375 24.5 -1.09375 
Q 20.09375 -1.09375 16.390625 -0.1875 
Q 12.703125 0.703125 10 2.640625 
Q 7.296875 4.59375 5.796875 7.796875 
Q 4.296875 11 4.296875 15.5 
Q 4.296875 19.796875 6.046875 22.890625 
Q 7.796875 26 10.796875 27.890625 
Q 13.796875 29.796875 17.796875 30.6875 
Q 21.796875 31.59375 26.203125 31.59375 
Q 27.59375 31.59375 29.09375 31.4375 
Q 30.59375 31.296875 31.9375 31.046875 
Q 33.296875 30.796875 34.296875 30.59375 
Q 35.296875 30.40625 35.703125 30.296875 
L 35.703125 32.90625 
Q 35.703125 35.203125 35.203125 37.453125 
Q 34.703125 39.703125 33.390625 41.453125 
Q 32.09375 43.203125 29.84375 44.25 
Q 27.59375 45.296875 24 45.296875 
Q 19.40625 45.296875 15.953125 44.640625 
Q 12.5 44 10.796875 43.296875 
L 9.703125 51 
Q 11.5 51.796875 15.703125 52.546875 
Q 19.90625 53.296875 24.796875 53.296875 
z
" id="Ubuntu-97"/>
      <path d="M 44.09375 25.90625 
Q 44.09375 35 39.59375 39.890625 
Q 35.09375 44.796875 27.59375 44.796875 
Q 23.40625 44.796875 21.046875 44.5 
Q 18.703125 44.203125 17.296875 43.796875 
L 17.296875 11 
Q 19 9.59375 22.203125 8.296875 
Q 25.40625 7 29.203125 7 
Q 33.203125 7 36.046875 8.453125 
Q 38.90625 9.90625 40.703125 12.453125 
Q 42.5 15 43.296875 18.453125 
Q 44.09375 21.90625 44.09375 25.90625 
z
M 53.796875 25.90625 
Q 53.796875 20 52.25 15 
Q 50.703125 10 47.703125 6.390625 
Q 44.703125 2.796875 40.34375 0.796875 
Q 36 -1.203125 30.40625 -1.203125 
Q 25.90625 -1.203125 22.453125 0 
Q 19 1.203125 17.296875 2.296875 
L 17.296875 -18.5 
L 8 -18.5 
L 8 50.40625 
Q 11.296875 51.203125 16.25 52.140625 
Q 21.203125 53.09375 27.703125 53.09375 
Q 33.703125 53.09375 38.5 51.1875 
Q 43.296875 49.296875 46.6875 45.796875 
Q 50.09375 42.296875 51.9375 37.25 
Q 53.796875 32.203125 53.796875 25.90625 
z
" id="Ubuntu-112"/>
     </defs>
     <g transform="translate(477.595475 113.639375)scale(0.14 -0.14)">
      <use xlink:href="#Ubuntu-84"/>
      <use x="56.437485" xlink:href="#Ubuntu-114"/>
      <use x="95.037476" xlink:href="#Ubuntu-97"/>
      <use x="147.237473" xlink:href="#Ubuntu-105"/>
      <use x="172.53746" xlink:href="#Ubuntu-110"/>
      <use x="229.937454" xlink:href="#Ubuntu-32"/>
      <use x="253.037445" xlink:href="#Ubuntu-112"/>
      <use x="311.937439" xlink:href="#Ubuntu-111"/>
      <use x="370.937424" xlink:href="#Ubuntu-105"/>
      <use x="396.237411" xlink:href="#Ubuntu-110"/>
      <use x="453.637405" xlink:href="#Ubuntu-116"/>
      <use x="493.837402" xlink:href="#Ubuntu-115"/>
     </g>
    </g>
   </g>
   <g id="PathCollection_2">
    <g clip-path="url(#pe808e29ad1)">
     <use style="fill:#ff0000;stroke:#ff0000;stroke-width:0.5;" x="80.478239" xlink:href="#m1d91661661" y="80.315809"/>
    </g>
   </g>
  </g>
 </g>
 <defs>
  <clipPath id="pe808e29ad1">
   <rect height="217.44" width="375.84" x="34.921875" y="7.2"/>
  </clipPath>
 </defs>
</svg>
