<?xml version="1.0" encoding="UTF-8" standalone="no"?>
<!-- Created with matplotlib (https://matplotlib.org/) -->

<svg
   xmlns:dc="http://purl.org/dc/elements/1.1/"
   xmlns:cc="http://creativecommons.org/ns#"
   xmlns:rdf="http://www.w3.org/1999/02/22-rdf-syntax-ns#"
   xmlns:svg="http://www.w3.org/2000/svg"
   xmlns="http://www.w3.org/2000/svg"
   xmlns:xlink="http://www.w3.org/1999/xlink"
   xmlns:sodipodi="http://sodipodi.sourceforge.net/DTD/sodipodi-0.dtd"
   xmlns:inkscape="http://www.inkscape.org/namespaces/inkscape"
   height="267.642775pt"
   version="1.1"
   viewBox="0 0 415.601875 267.642775"
   width="415.601875pt"
   id="svg487"
   sodipodi:docname="conv2.svg"
   inkscape:version="0.92.4 (unknown)">
  <metadata
     id="metadata491">
    <rdf:RDF>
      <cc:Work
         rdf:about="">
        <dc:format>image/svg+xml</dc:format>
        <dc:type
           rdf:resource="http://purl.org/dc/dcmitype/StillImage" />
        <dc:title></dc:title>
      </cc:Work>
    </rdf:RDF>
  </metadata>
  <sodipodi:namedview
     pagecolor="#ffffff"
     bordercolor="#666666"
     borderopacity="1"
     objecttolerance="10"
     gridtolerance="10"
     guidetolerance="10"
     inkscape:pageopacity="0"
     inkscape:pageshadow="2"
     inkscape:window-width="1920"
     inkscape:window-height="1015"
     id="namedview489"
     showgrid="false"
     inkscape:zoom="0.58649881"
     inkscape:cx="277.06791"
     inkscape:cy="178.42851"
     inkscape:window-x="0"
     inkscape:window-y="0"
     inkscape:window-maximized="1"
     inkscape:current-layer="svg487" />
  <defs
     id="defs4">
    <style
       type="text/css"
       id="style2">
*{stroke-linecap:butt;stroke-linejoin:round;}
  </style>
  </defs>
  <g
     id="figure_1">
    <g
       id="patch_1">
      <path
         d="M 0 267.642775  L 415.601875 267.642775  L 415.601875 0  L 0 0  z "
         style="fill:#f0f0f0;"
         id="path6" />
    </g>
    <g
       id="axes_1">
      <g
         id="patch_2">
        <path
           d="M 32.561875 239.3934  L 408.401875 239.3934  L 408.401875 21.9534  L 32.561875 21.9534  z "
           style="fill:#f0f0f0;"
           id="path9" />
      </g>
      <g
         id="matplotlib.axis_1">
        <g
           id="xtick_1">
          <g
             id="line2d_1">
            <path
               clip-path="url(#p1485e26989)"
               d="M 83.812784 239.3934  L 83.812784 21.9534  "
               style="fill:none;stroke:#cbcbcb;"
               id="path12" />
          </g>
          <g
             id="line2d_2" />
          <g
             id="text_1">
            <!-- 2 -->
            <defs
               id="defs17">
              <path
                 d="M 19.1875 8.296875  L 53.609375 8.296875  L 53.609375 0  L 7.328125 0  L 7.328125 8.296875  Q 12.9375 14.109375 22.625 23.890625  Q 32.328125 33.6875 34.8125 36.53125  Q 39.546875 41.84375 41.421875 45.53125  Q 43.3125 49.21875 43.3125 52.78125  Q 43.3125 58.59375 39.234375 62.25  Q 35.15625 65.921875 28.609375 65.921875  Q 23.96875 65.921875 18.8125 64.3125  Q 13.671875 62.703125 7.8125 59.421875  L 7.8125 69.390625  Q 13.765625 71.78125 18.9375 73  Q 24.125 74.21875 28.421875 74.21875  Q 39.75 74.21875 46.484375 68.546875  Q 53.21875 62.890625 53.21875 53.421875  Q 53.21875 48.921875 51.53125 44.890625  Q 49.859375 40.875 45.40625 35.40625  Q 44.1875 33.984375 37.640625 27.21875  Q 31.109375 20.453125 19.1875 8.296875  z "
                 id="DejaVuSans-50" />
            </defs>
            <g
               transform="translate(81.904034 247.452462)scale(0.06 -0.06)"
               id="g21">
              <use
                 xlink:href="#DejaVuSans-50"
                 id="use19" />
            </g>
          </g>
        </g>
        <g
           id="xtick_2">
          <g
             id="line2d_3">
            <path
               clip-path="url(#p1485e26989)"
               d="M 152.14733 239.3934  L 152.14733 21.9534  "
               style="fill:none;stroke:#cbcbcb;"
               id="path25" />
          </g>
          <g
             id="line2d_4" />
          <g
             id="text_2">
            <!-- 4 -->
            <defs
               id="defs30">
              <path
                 d="M 37.796875 64.3125  L 12.890625 25.390625  L 37.796875 25.390625  z M 35.203125 72.90625  L 47.609375 72.90625  L 47.609375 25.390625  L 58.015625 25.390625  L 58.015625 17.1875  L 47.609375 17.1875  L 47.609375 0  L 37.796875 0  L 37.796875 17.1875  L 4.890625 17.1875  L 4.890625 26.703125  z "
                 id="DejaVuSans-52" />
            </defs>
            <g
               transform="translate(150.23858 247.452462)scale(0.06 -0.06)"
               id="g34">
              <use
                 xlink:href="#DejaVuSans-52"
                 id="use32" />
            </g>
          </g>
        </g>
        <g
           id="xtick_3">
          <g
             id="line2d_5">
            <path
               clip-path="url(#p1485e26989)"
               d="M 220.481875 239.3934  L 220.481875 21.9534  "
               style="fill:none;stroke:#cbcbcb;"
               id="path38" />
          </g>
          <g
             id="line2d_6" />
          <g
             id="text_3">
            <!-- 6 -->
            <defs
               id="defs43">
              <path
                 d="M 33.015625 40.375  Q 26.375 40.375 22.484375 35.828125  Q 18.609375 31.296875 18.609375 23.390625  Q 18.609375 15.53125 22.484375 10.953125  Q 26.375 6.390625 33.015625 6.390625  Q 39.65625 6.390625 43.53125 10.953125  Q 47.40625 15.53125 47.40625 23.390625  Q 47.40625 31.296875 43.53125 35.828125  Q 39.65625 40.375 33.015625 40.375  z M 52.59375 71.296875  L 52.59375 62.3125  Q 48.875 64.0625 45.09375 64.984375  Q 41.3125 65.921875 37.59375 65.921875  Q 27.828125 65.921875 22.671875 59.328125  Q 17.53125 52.734375 16.796875 39.40625  Q 19.671875 43.65625 24.015625 45.921875  Q 28.375 48.1875 33.59375 48.1875  Q 44.578125 48.1875 50.953125 41.515625  Q 57.328125 34.859375 57.328125 23.390625  Q 57.328125 12.15625 50.6875 5.359375  Q 44.046875 -1.421875 33.015625 -1.421875  Q 20.359375 -1.421875 13.671875 8.265625  Q 6.984375 17.96875 6.984375 36.375  Q 6.984375 53.65625 15.1875 63.9375  Q 23.390625 74.21875 37.203125 74.21875  Q 40.921875 74.21875 44.703125 73.484375  Q 48.484375 72.75 52.59375 71.296875  z "
                 id="DejaVuSans-54" />
            </defs>
            <g
               transform="translate(218.573125 247.452462)scale(0.06 -0.06)"
               id="g47">
              <use
                 xlink:href="#DejaVuSans-54"
                 id="use45" />
            </g>
          </g>
        </g>
        <g
           id="xtick_4">
          <g
             id="line2d_7">
            <path
               clip-path="url(#p1485e26989)"
               d="M 288.81642 239.3934  L 288.81642 21.9534  "
               style="fill:none;stroke:#cbcbcb;"
               id="path51" />
          </g>
          <g
             id="line2d_8" />
          <g
             id="text_4">
            <!-- 8 -->
            <defs
               id="defs56">
              <path
                 d="M 31.78125 34.625  Q 24.75 34.625 20.71875 30.859375  Q 16.703125 27.09375 16.703125 20.515625  Q 16.703125 13.921875 20.71875 10.15625  Q 24.75 6.390625 31.78125 6.390625  Q 38.8125 6.390625 42.859375 10.171875  Q 46.921875 13.96875 46.921875 20.515625  Q 46.921875 27.09375 42.890625 30.859375  Q 38.875 34.625 31.78125 34.625  z M 21.921875 38.8125  Q 15.578125 40.375 12.03125 44.71875  Q 8.5 49.078125 8.5 55.328125  Q 8.5 64.0625 14.71875 69.140625  Q 20.953125 74.21875 31.78125 74.21875  Q 42.671875 74.21875 48.875 69.140625  Q 55.078125 64.0625 55.078125 55.328125  Q 55.078125 49.078125 51.53125 44.71875  Q 48 40.375 41.703125 38.8125  Q 48.828125 37.15625 52.796875 32.3125  Q 56.78125 27.484375 56.78125 20.515625  Q 56.78125 9.90625 50.3125 4.234375  Q 43.84375 -1.421875 31.78125 -1.421875  Q 19.734375 -1.421875 13.25 4.234375  Q 6.78125 9.90625 6.78125 20.515625  Q 6.78125 27.484375 10.78125 32.3125  Q 14.796875 37.15625 21.921875 38.8125  z M 18.3125 54.390625  Q 18.3125 48.734375 21.84375 45.5625  Q 25.390625 42.390625 31.78125 42.390625  Q 38.140625 42.390625 41.71875 45.5625  Q 45.3125 48.734375 45.3125 54.390625  Q 45.3125 60.0625 41.71875 63.234375  Q 38.140625 66.40625 31.78125 66.40625  Q 25.390625 66.40625 21.84375 63.234375  Q 18.3125 60.0625 18.3125 54.390625  z "
                 id="DejaVuSans-56" />
            </defs>
            <g
               transform="translate(286.90767 247.452462)scale(0.06 -0.06)"
               id="g60">
              <use
                 xlink:href="#DejaVuSans-56"
                 id="use58" />
            </g>
          </g>
        </g>
        <g
           id="xtick_5">
          <g
             id="line2d_9">
            <path
               clip-path="url(#p1485e26989)"
               d="M 357.150966 239.3934  L 357.150966 21.9534  "
               style="fill:none;stroke:#cbcbcb;"
               id="path64" />
          </g>
          <g
             id="line2d_10" />
          <g
             id="text_5">
            <!-- 10 -->
            <defs
               id="defs70">
              <path
                 d="M 12.40625 8.296875  L 28.515625 8.296875  L 28.515625 63.921875  L 10.984375 60.40625  L 10.984375 69.390625  L 28.421875 72.90625  L 38.28125 72.90625  L 38.28125 8.296875  L 54.390625 8.296875  L 54.390625 0  L 12.40625 0  z "
                 id="DejaVuSans-49" />
              <path
                 d="M 31.78125 66.40625  Q 24.171875 66.40625 20.328125 58.90625  Q 16.5 51.421875 16.5 36.375  Q 16.5 21.390625 20.328125 13.890625  Q 24.171875 6.390625 31.78125 6.390625  Q 39.453125 6.390625 43.28125 13.890625  Q 47.125 21.390625 47.125 36.375  Q 47.125 51.421875 43.28125 58.90625  Q 39.453125 66.40625 31.78125 66.40625  z M 31.78125 74.21875  Q 44.046875 74.21875 50.515625 64.515625  Q 56.984375 54.828125 56.984375 36.375  Q 56.984375 17.96875 50.515625 8.265625  Q 44.046875 -1.421875 31.78125 -1.421875  Q 19.53125 -1.421875 13.0625 8.265625  Q 6.59375 17.96875 6.59375 36.375  Q 6.59375 54.828125 13.0625 64.515625  Q 19.53125 74.21875 31.78125 74.21875  z "
                 id="DejaVuSans-48" />
            </defs>
            <g
               transform="translate(353.333466 247.452462)scale(0.06 -0.06)"
               id="g76">
              <use
                 xlink:href="#DejaVuSans-49"
                 id="use72" />
              <use
                 x="63.623047"
                 xlink:href="#DejaVuSans-48"
                 id="use74" />
            </g>
          </g>
        </g>
        <g
           id="text_6">
          <!-- Number of calls $t$ to evaluate $f(x)$ -->
          <defs
             id="defs100">
            <path
               d="M 9.8125 72.90625  L 23.09375 72.90625  L 55.421875 11.921875  L 55.421875 72.90625  L 64.984375 72.90625  L 64.984375 0  L 51.703125 0  L 19.390625 60.984375  L 19.390625 0  L 9.8125 0  z "
               id="DejaVuSans-78" />
            <path
               d="M 8.5 21.578125  L 8.5 54.6875  L 17.484375 54.6875  L 17.484375 21.921875  Q 17.484375 14.15625 20.5 10.265625  Q 23.53125 6.390625 29.59375 6.390625  Q 36.859375 6.390625 41.078125 11.03125  Q 45.3125 15.671875 45.3125 23.6875  L 45.3125 54.6875  L 54.296875 54.6875  L 54.296875 0  L 45.3125 0  L 45.3125 8.40625  Q 42.046875 3.421875 37.71875 1  Q 33.40625 -1.421875 27.6875 -1.421875  Q 18.265625 -1.421875 13.375 4.4375  Q 8.5 10.296875 8.5 21.578125  z M 31.109375 56  z "
               id="DejaVuSans-117" />
            <path
               d="M 52 44.1875  Q 55.375 50.25 60.0625 53.125  Q 64.75 56 71.09375 56  Q 79.640625 56 84.28125 50.015625  Q 88.921875 44.046875 88.921875 33.015625  L 88.921875 0  L 79.890625 0  L 79.890625 32.71875  Q 79.890625 40.578125 77.09375 44.375  Q 74.3125 48.1875 68.609375 48.1875  Q 61.625 48.1875 57.5625 43.546875  Q 53.515625 38.921875 53.515625 30.90625  L 53.515625 0  L 44.484375 0  L 44.484375 32.71875  Q 44.484375 40.625 41.703125 44.40625  Q 38.921875 48.1875 33.109375 48.1875  Q 26.21875 48.1875 22.15625 43.53125  Q 18.109375 38.875 18.109375 30.90625  L 18.109375 0  L 9.078125 0  L 9.078125 54.6875  L 18.109375 54.6875  L 18.109375 46.1875  Q 21.1875 51.21875 25.484375 53.609375  Q 29.78125 56 35.6875 56  Q 41.65625 56 45.828125 52.96875  Q 50 49.953125 52 44.1875  z "
               id="DejaVuSans-109" />
            <path
               d="M 48.6875 27.296875  Q 48.6875 37.203125 44.609375 42.84375  Q 40.53125 48.484375 33.40625 48.484375  Q 26.265625 48.484375 22.1875 42.84375  Q 18.109375 37.203125 18.109375 27.296875  Q 18.109375 17.390625 22.1875 11.75  Q 26.265625 6.109375 33.40625 6.109375  Q 40.53125 6.109375 44.609375 11.75  Q 48.6875 17.390625 48.6875 27.296875  z M 18.109375 46.390625  Q 20.953125 51.265625 25.265625 53.625  Q 29.59375 56 35.59375 56  Q 45.5625 56 51.78125 48.09375  Q 58.015625 40.1875 58.015625 27.296875  Q 58.015625 14.40625 51.78125 6.484375  Q 45.5625 -1.421875 35.59375 -1.421875  Q 29.59375 -1.421875 25.265625 0.953125  Q 20.953125 3.328125 18.109375 8.203125  L 18.109375 0  L 9.078125 0  L 9.078125 75.984375  L 18.109375 75.984375  z "
               id="DejaVuSans-98" />
            <path
               d="M 56.203125 29.59375  L 56.203125 25.203125  L 14.890625 25.203125  Q 15.484375 15.921875 20.484375 11.0625  Q 25.484375 6.203125 34.421875 6.203125  Q 39.59375 6.203125 44.453125 7.46875  Q 49.3125 8.734375 54.109375 11.28125  L 54.109375 2.78125  Q 49.265625 0.734375 44.1875 -0.34375  Q 39.109375 -1.421875 33.890625 -1.421875  Q 20.796875 -1.421875 13.15625 6.1875  Q 5.515625 13.8125 5.515625 26.8125  Q 5.515625 40.234375 12.765625 48.109375  Q 20.015625 56 32.328125 56  Q 43.359375 56 49.78125 48.890625  Q 56.203125 41.796875 56.203125 29.59375  z M 47.21875 32.234375  Q 47.125 39.59375 43.09375 43.984375  Q 39.0625 48.390625 32.421875 48.390625  Q 24.90625 48.390625 20.390625 44.140625  Q 15.875 39.890625 15.1875 32.171875  z "
               id="DejaVuSans-101" />
            <path
               d="M 41.109375 46.296875  Q 39.59375 47.171875 37.8125 47.578125  Q 36.03125 48 33.890625 48  Q 26.265625 48 22.1875 43.046875  Q 18.109375 38.09375 18.109375 28.8125  L 18.109375 0  L 9.078125 0  L 9.078125 54.6875  L 18.109375 54.6875  L 18.109375 46.1875  Q 20.953125 51.171875 25.484375 53.578125  Q 30.03125 56 36.53125 56  Q 37.453125 56 38.578125 55.875  Q 39.703125 55.765625 41.0625 55.515625  z "
               id="DejaVuSans-114" />
            <path
               id="DejaVuSans-32" />
            <path
               d="M 30.609375 48.390625  Q 23.390625 48.390625 19.1875 42.75  Q 14.984375 37.109375 14.984375 27.296875  Q 14.984375 17.484375 19.15625 11.84375  Q 23.34375 6.203125 30.609375 6.203125  Q 37.796875 6.203125 41.984375 11.859375  Q 46.1875 17.53125 46.1875 27.296875  Q 46.1875 37.015625 41.984375 42.703125  Q 37.796875 48.390625 30.609375 48.390625  z M 30.609375 56  Q 42.328125 56 49.015625 48.375  Q 55.71875 40.765625 55.71875 27.296875  Q 55.71875 13.875 49.015625 6.21875  Q 42.328125 -1.421875 30.609375 -1.421875  Q 18.84375 -1.421875 12.171875 6.21875  Q 5.515625 13.875 5.515625 27.296875  Q 5.515625 40.765625 12.171875 48.375  Q 18.84375 56 30.609375 56  z "
               id="DejaVuSans-111" />
            <path
               d="M 37.109375 75.984375  L 37.109375 68.5  L 28.515625 68.5  Q 23.6875 68.5 21.796875 66.546875  Q 19.921875 64.59375 19.921875 59.515625  L 19.921875 54.6875  L 34.71875 54.6875  L 34.71875 47.703125  L 19.921875 47.703125  L 19.921875 0  L 10.890625 0  L 10.890625 47.703125  L 2.296875 47.703125  L 2.296875 54.6875  L 10.890625 54.6875  L 10.890625 58.5  Q 10.890625 67.625 15.140625 71.796875  Q 19.390625 75.984375 28.609375 75.984375  z "
               id="DejaVuSans-102" />
            <path
               d="M 48.78125 52.59375  L 48.78125 44.1875  Q 44.96875 46.296875 41.140625 47.34375  Q 37.3125 48.390625 33.40625 48.390625  Q 24.65625 48.390625 19.8125 42.84375  Q 14.984375 37.3125 14.984375 27.296875  Q 14.984375 17.28125 19.8125 11.734375  Q 24.65625 6.203125 33.40625 6.203125  Q 37.3125 6.203125 41.140625 7.25  Q 44.96875 8.296875 48.78125 10.40625  L 48.78125 2.09375  Q 45.015625 0.34375 40.984375 -0.53125  Q 36.96875 -1.421875 32.421875 -1.421875  Q 20.0625 -1.421875 12.78125 6.34375  Q 5.515625 14.109375 5.515625 27.296875  Q 5.515625 40.671875 12.859375 48.328125  Q 20.21875 56 33.015625 56  Q 37.15625 56 41.109375 55.140625  Q 45.0625 54.296875 48.78125 52.59375  z "
               id="DejaVuSans-99" />
            <path
               d="M 34.28125 27.484375  Q 23.390625 27.484375 19.1875 25  Q 14.984375 22.515625 14.984375 16.5  Q 14.984375 11.71875 18.140625 8.90625  Q 21.296875 6.109375 26.703125 6.109375  Q 34.1875 6.109375 38.703125 11.40625  Q 43.21875 16.703125 43.21875 25.484375  L 43.21875 27.484375  z M 52.203125 31.203125  L 52.203125 0  L 43.21875 0  L 43.21875 8.296875  Q 40.140625 3.328125 35.546875 0.953125  Q 30.953125 -1.421875 24.3125 -1.421875  Q 15.921875 -1.421875 10.953125 3.296875  Q 6 8.015625 6 15.921875  Q 6 25.140625 12.171875 29.828125  Q 18.359375 34.515625 30.609375 34.515625  L 43.21875 34.515625  L 43.21875 35.40625  Q 43.21875 41.609375 39.140625 45  Q 35.0625 48.390625 27.6875 48.390625  Q 23 48.390625 18.546875 47.265625  Q 14.109375 46.140625 10.015625 43.890625  L 10.015625 52.203125  Q 14.9375 54.109375 19.578125 55.046875  Q 24.21875 56 28.609375 56  Q 40.484375 56 46.34375 49.84375  Q 52.203125 43.703125 52.203125 31.203125  z "
               id="DejaVuSans-97" />
            <path
               d="M 9.421875 75.984375  L 18.40625 75.984375  L 18.40625 0  L 9.421875 0  z "
               id="DejaVuSans-108" />
            <path
               d="M 44.28125 53.078125  L 44.28125 44.578125  Q 40.484375 46.53125 36.375 47.5  Q 32.28125 48.484375 27.875 48.484375  Q 21.1875 48.484375 17.84375 46.4375  Q 14.5 44.390625 14.5 40.28125  Q 14.5 37.15625 16.890625 35.375  Q 19.28125 33.59375 26.515625 31.984375  L 29.59375 31.296875  Q 39.15625 29.25 43.1875 25.515625  Q 47.21875 21.78125 47.21875 15.09375  Q 47.21875 7.46875 41.1875 3.015625  Q 35.15625 -1.421875 24.609375 -1.421875  Q 20.21875 -1.421875 15.453125 -0.5625  Q 10.6875 0.296875 5.421875 2  L 5.421875 11.28125  Q 10.40625 8.6875 15.234375 7.390625  Q 20.0625 6.109375 24.8125 6.109375  Q 31.15625 6.109375 34.5625 8.28125  Q 37.984375 10.453125 37.984375 14.40625  Q 37.984375 18.0625 35.515625 20.015625  Q 33.0625 21.96875 24.703125 23.78125  L 21.578125 24.515625  Q 13.234375 26.265625 9.515625 29.90625  Q 5.8125 33.546875 5.8125 39.890625  Q 5.8125 47.609375 11.28125 51.796875  Q 16.75 56 26.8125 56  Q 31.78125 56 36.171875 55.265625  Q 40.578125 54.546875 44.28125 53.078125  z "
               id="DejaVuSans-115" />
            <path
               d="M 42.28125 54.6875  L 40.921875 47.703125  L 23 47.703125  L 17.1875 18.015625  Q 16.890625 16.359375 16.75 15.234375  Q 16.609375 14.109375 16.609375 13.484375  Q 16.609375 10.359375 18.484375 8.9375  Q 20.359375 7.515625 24.515625 7.515625  L 33.59375 7.515625  L 32.078125 0  L 23.484375 0  Q 15.484375 0 11.546875 3.125  Q 7.625 6.25 7.625 12.59375  Q 7.625 13.71875 7.765625 15.0625  Q 7.90625 16.40625 8.203125 18.015625  L 14.015625 47.703125  L 6.390625 47.703125  L 7.8125 54.6875  L 15.28125 54.6875  L 18.3125 70.21875  L 27.296875 70.21875  L 24.3125 54.6875  z "
               id="DejaVuSans-Oblique-116" />
            <path
               d="M 18.3125 70.21875  L 18.3125 54.6875  L 36.8125 54.6875  L 36.8125 47.703125  L 18.3125 47.703125  L 18.3125 18.015625  Q 18.3125 11.328125 20.140625 9.421875  Q 21.96875 7.515625 27.59375 7.515625  L 36.8125 7.515625  L 36.8125 0  L 27.59375 0  Q 17.1875 0 13.234375 3.875  Q 9.28125 7.765625 9.28125 18.015625  L 9.28125 47.703125  L 2.6875 47.703125  L 2.6875 54.6875  L 9.28125 54.6875  L 9.28125 70.21875  z "
               id="DejaVuSans-116" />
            <path
               d="M 2.984375 54.6875  L 12.5 54.6875  L 29.59375 8.796875  L 46.6875 54.6875  L 56.203125 54.6875  L 35.6875 0  L 23.484375 0  z "
               id="DejaVuSans-118" />
            <path
               d="M 47.796875 75.984375  L 46.390625 68.5  L 37.796875 68.5  Q 32.90625 68.5 30.6875 66.578125  Q 28.46875 64.65625 27.390625 59.515625  L 26.421875 54.6875  L 41.21875 54.6875  L 39.890625 47.703125  L 25.09375 47.703125  L 15.828125 0  L 6.78125 0  L 16.109375 47.703125  L 7.515625 47.703125  L 8.796875 54.6875  L 17.390625 54.6875  L 18.109375 58.5  Q 19.96875 68.171875 24.625 72.078125  Q 29.296875 75.984375 39.3125 75.984375  z "
               id="DejaVuSans-Oblique-102" />
            <path
               d="M 31 75.875  Q 24.46875 64.65625 21.28125 53.65625  Q 18.109375 42.671875 18.109375 31.390625  Q 18.109375 20.125 21.3125 9.0625  Q 24.515625 -2 31 -13.1875  L 23.1875 -13.1875  Q 15.875 -1.703125 12.234375 9.375  Q 8.59375 20.453125 8.59375 31.390625  Q 8.59375 42.28125 12.203125 53.3125  Q 15.828125 64.359375 23.1875 75.875  z "
               id="DejaVuSans-40" />
            <path
               d="M 60.015625 54.6875  L 34.90625 27.875  L 50.296875 0  L 39.984375 0  L 28.421875 21.6875  L 8.296875 0  L -2.59375 0  L 24.3125 28.8125  L 10.015625 54.6875  L 20.3125 54.6875  L 30.8125 34.90625  L 49.125 54.6875  z "
               id="DejaVuSans-Oblique-120" />
            <path
               d="M 8.015625 75.875  L 15.828125 75.875  Q 23.140625 64.359375 26.78125 53.3125  Q 30.421875 42.28125 30.421875 31.390625  Q 30.421875 20.453125 26.78125 9.375  Q 23.140625 -1.703125 15.828125 -13.1875  L 8.015625 -13.1875  Q 14.5 -2 17.703125 9.0625  Q 20.90625 20.125 20.90625 31.390625  Q 20.90625 42.671875 17.703125 53.65625  Q 14.5 64.65625 8.015625 75.875  z "
               id="DejaVuSans-41" />
          </defs>
          <g
             transform="translate(154.081875 258.779025)scale(0.08 -0.08)"
             id="g170">
            <use
               transform="translate(0 0.015625)"
               xlink:href="#DejaVuSans-78"
               id="use102" />
            <use
               transform="translate(74.804688 0.015625)"
               xlink:href="#DejaVuSans-117"
               id="use104" />
            <use
               transform="translate(138.183594 0.015625)"
               xlink:href="#DejaVuSans-109"
               id="use106" />
            <use
               transform="translate(235.595703 0.015625)"
               xlink:href="#DejaVuSans-98"
               id="use108" />
            <use
               transform="translate(299.072266 0.015625)"
               xlink:href="#DejaVuSans-101"
               id="use110" />
            <use
               transform="translate(360.595703 0.015625)"
               xlink:href="#DejaVuSans-114"
               id="use112" />
            <use
               transform="translate(401.708984 0.015625)"
               xlink:href="#DejaVuSans-32"
               id="use114" />
            <use
               transform="translate(433.496094 0.015625)"
               xlink:href="#DejaVuSans-111"
               id="use116" />
            <use
               transform="translate(494.677734 0.015625)"
               xlink:href="#DejaVuSans-102"
               id="use118" />
            <use
               transform="translate(529.882812 0.015625)"
               xlink:href="#DejaVuSans-32"
               id="use120" />
            <use
               transform="translate(561.669922 0.015625)"
               xlink:href="#DejaVuSans-99"
               id="use122" />
            <use
               transform="translate(616.650391 0.015625)"
               xlink:href="#DejaVuSans-97"
               id="use124" />
            <use
               transform="translate(677.929688 0.015625)"
               xlink:href="#DejaVuSans-108"
               id="use126" />
            <use
               transform="translate(705.712891 0.015625)"
               xlink:href="#DejaVuSans-108"
               id="use128" />
            <use
               transform="translate(733.496094 0.015625)"
               xlink:href="#DejaVuSans-115"
               id="use130" />
            <use
               transform="translate(785.595703 0.015625)"
               xlink:href="#DejaVuSans-32"
               id="use132" />
            <use
               transform="translate(817.382812 0.015625)"
               xlink:href="#DejaVuSans-Oblique-116"
               id="use134" />
            <use
               transform="translate(856.591797 0.015625)"
               xlink:href="#DejaVuSans-32"
               id="use136" />
            <use
               transform="translate(888.378906 0.015625)"
               xlink:href="#DejaVuSans-116"
               id="use138" />
            <use
               transform="translate(927.587891 0.015625)"
               xlink:href="#DejaVuSans-111"
               id="use140" />
            <use
               transform="translate(988.769531 0.015625)"
               xlink:href="#DejaVuSans-32"
               id="use142" />
            <use
               transform="translate(1020.556641 0.015625)"
               xlink:href="#DejaVuSans-101"
               id="use144" />
            <use
               transform="translate(1082.080078 0.015625)"
               xlink:href="#DejaVuSans-118"
               id="use146" />
            <use
               transform="translate(1141.259766 0.015625)"
               xlink:href="#DejaVuSans-97"
               id="use148" />
            <use
               transform="translate(1202.539062 0.015625)"
               xlink:href="#DejaVuSans-108"
               id="use150" />
            <use
               transform="translate(1230.322266 0.015625)"
               xlink:href="#DejaVuSans-117"
               id="use152" />
            <use
               transform="translate(1293.701172 0.015625)"
               xlink:href="#DejaVuSans-97"
               id="use154" />
            <use
               transform="translate(1354.980469 0.015625)"
               xlink:href="#DejaVuSans-116"
               id="use156" />
            <use
               transform="translate(1394.189453 0.015625)"
               xlink:href="#DejaVuSans-101"
               id="use158" />
            <use
               transform="translate(1455.712891 0.015625)"
               xlink:href="#DejaVuSans-32"
               id="use160" />
            <use
               transform="translate(1487.5 0.015625)"
               xlink:href="#DejaVuSans-Oblique-102"
               id="use162" />
            <use
               transform="translate(1522.705078 0.015625)"
               xlink:href="#DejaVuSans-40"
               id="use164" />
            <use
               transform="translate(1561.71875 0.015625)"
               xlink:href="#DejaVuSans-Oblique-120"
               id="use166" />
            <use
               transform="translate(1620.898438 0.015625)"
               xlink:href="#DejaVuSans-41"
               id="use168" />
          </g>
        </g>
      </g>
      <g
         id="matplotlib.axis_2">
        <g
           id="ytick_1">
          <g
             id="line2d_11">
            <path
               clip-path="url(#p1485e26989)"
               d="M 32.561875 207.833558  L 408.401875 207.833558  "
               style="fill:none;stroke:#cbcbcb;"
               id="path174" />
          </g>
          <g
             id="line2d_12" />
          <g
             id="text_7">
            <!-- 0.2 -->
            <defs
               id="defs179">
              <path
                 d="M 10.6875 12.40625  L 21 12.40625  L 21 0  L 10.6875 0  z "
                 id="DejaVuSans-46" />
            </defs>
            <g
               transform="translate(19.52 210.113089)scale(0.06 -0.06)"
               id="g187">
              <use
                 xlink:href="#DejaVuSans-48"
                 id="use181" />
              <use
                 x="63.623047"
                 xlink:href="#DejaVuSans-46"
                 id="use183" />
              <use
                 x="95.410156"
                 xlink:href="#DejaVuSans-50"
                 id="use185" />
            </g>
          </g>
        </g>
        <g
           id="ytick_2">
          <g
             id="line2d_13">
            <path
               clip-path="url(#p1485e26989)"
               d="M 32.561875 163.23231  L 408.401875 163.23231  "
               style="fill:none;stroke:#cbcbcb;"
               id="path191" />
          </g>
          <g
             id="line2d_14" />
          <g
             id="text_8">
            <!-- 0.4 -->
            <g
               transform="translate(19.52 165.511842)scale(0.06 -0.06)"
               id="g201">
              <use
                 xlink:href="#DejaVuSans-48"
                 id="use195" />
              <use
                 x="63.623047"
                 xlink:href="#DejaVuSans-46"
                 id="use197" />
              <use
                 x="95.410156"
                 xlink:href="#DejaVuSans-52"
                 id="use199" />
            </g>
          </g>
        </g>
        <g
           id="ytick_3">
          <g
             id="line2d_15">
            <path
               clip-path="url(#p1485e26989)"
               d="M 32.561875 118.631063  L 408.401875 118.631063  "
               style="fill:none;stroke:#cbcbcb;"
               id="path205" />
          </g>
          <g
             id="line2d_16" />
          <g
             id="text_9">
            <!-- 0.6 -->
            <g
               transform="translate(19.52 120.910595)scale(0.06 -0.06)"
               id="g215">
              <use
                 xlink:href="#DejaVuSans-48"
                 id="use209" />
              <use
                 x="63.623047"
                 xlink:href="#DejaVuSans-46"
                 id="use211" />
              <use
                 x="95.410156"
                 xlink:href="#DejaVuSans-54"
                 id="use213" />
            </g>
          </g>
        </g>
        <g
           id="ytick_4">
          <g
             id="line2d_17">
            <path
               clip-path="url(#p1485e26989)"
               d="M 32.561875 74.029816  L 408.401875 74.029816  "
               style="fill:none;stroke:#cbcbcb;"
               id="path219" />
          </g>
          <g
             id="line2d_18" />
          <g
             id="text_10">
            <!-- 0.8 -->
            <g
               transform="translate(19.52 76.309347)scale(0.06 -0.06)"
               id="g229">
              <use
                 xlink:href="#DejaVuSans-48"
                 id="use223" />
              <use
                 x="63.623047"
                 xlink:href="#DejaVuSans-46"
                 id="use225" />
              <use
                 x="95.410156"
                 xlink:href="#DejaVuSans-56"
                 id="use227" />
            </g>
          </g>
        </g>
        <g
           id="ytick_5">
          <g
             id="line2d_19">
            <path
               clip-path="url(#p1485e26989)"
               d="M 32.561875 29.428569  L 408.401875 29.428569  "
               style="fill:none;stroke:#cbcbcb;"
               id="path233" />
          </g>
          <g
             id="line2d_20" />
          <g
             id="text_11">
            <!-- 1.0 -->
            <g
               transform="translate(19.52 31.7081)scale(0.06 -0.06)"
               id="g243">
              <use
                 xlink:href="#DejaVuSans-49"
                 id="use237" />
              <use
                 x="63.623047"
                 xlink:href="#DejaVuSans-46"
                 id="use239" />
              <use
                 x="95.410156"
                 xlink:href="#DejaVuSans-48"
                 id="use241" />
            </g>
          </g>
        </g>
        <g
           id="text_12">
          <!-- Max Accuracy Achived $f(x^+)$ -->
          <defs
             id="defs255">
            <path
               d="M 9.8125 72.90625  L 24.515625 72.90625  L 43.109375 23.296875  L 61.8125 72.90625  L 76.515625 72.90625  L 76.515625 0  L 66.890625 0  L 66.890625 64.015625  L 48.09375 14.015625  L 38.1875 14.015625  L 19.390625 64.015625  L 19.390625 0  L 9.8125 0  z "
               id="DejaVuSans-77" />
            <path
               d="M 54.890625 54.6875  L 35.109375 28.078125  L 55.90625 0  L 45.3125 0  L 29.390625 21.484375  L 13.484375 0  L 2.875 0  L 24.125 28.609375  L 4.6875 54.6875  L 15.28125 54.6875  L 29.78125 35.203125  L 44.28125 54.6875  z "
               id="DejaVuSans-120" />
            <path
               d="M 34.1875 63.1875  L 20.796875 26.90625  L 47.609375 26.90625  z M 28.609375 72.90625  L 39.796875 72.90625  L 67.578125 0  L 57.328125 0  L 50.6875 18.703125  L 17.828125 18.703125  L 11.1875 0  L 0.78125 0  z "
               id="DejaVuSans-65" />
            <path
               d="M 32.171875 -5.078125  Q 28.375 -14.84375 24.75 -17.8125  Q 21.140625 -20.796875 15.09375 -20.796875  L 7.90625 -20.796875  L 7.90625 -13.28125  L 13.1875 -13.28125  Q 16.890625 -13.28125 18.9375 -11.515625  Q 21 -9.765625 23.484375 -3.21875  L 25.09375 0.875  L 2.984375 54.6875  L 12.5 54.6875  L 29.59375 11.921875  L 46.6875 54.6875  L 56.203125 54.6875  z "
               id="DejaVuSans-121" />
            <path
               d="M 54.890625 33.015625  L 54.890625 0  L 45.90625 0  L 45.90625 32.71875  Q 45.90625 40.484375 42.875 44.328125  Q 39.84375 48.1875 33.796875 48.1875  Q 26.515625 48.1875 22.3125 43.546875  Q 18.109375 38.921875 18.109375 30.90625  L 18.109375 0  L 9.078125 0  L 9.078125 75.984375  L 18.109375 75.984375  L 18.109375 46.1875  Q 21.34375 51.125 25.703125 53.5625  Q 30.078125 56 35.796875 56  Q 45.21875 56 50.046875 50.171875  Q 54.890625 44.34375 54.890625 33.015625  z "
               id="DejaVuSans-104" />
            <path
               d="M 9.421875 54.6875  L 18.40625 54.6875  L 18.40625 0  L 9.421875 0  z M 9.421875 75.984375  L 18.40625 75.984375  L 18.40625 64.59375  L 9.421875 64.59375  z "
               id="DejaVuSans-105" />
            <path
               d="M 45.40625 46.390625  L 45.40625 75.984375  L 54.390625 75.984375  L 54.390625 0  L 45.40625 0  L 45.40625 8.203125  Q 42.578125 3.328125 38.25 0.953125  Q 33.9375 -1.421875 27.875 -1.421875  Q 17.96875 -1.421875 11.734375 6.484375  Q 5.515625 14.40625 5.515625 27.296875  Q 5.515625 40.1875 11.734375 48.09375  Q 17.96875 56 27.875 56  Q 33.9375 56 38.25 53.625  Q 42.578125 51.265625 45.40625 46.390625  z M 14.796875 27.296875  Q 14.796875 17.390625 18.875 11.75  Q 22.953125 6.109375 30.078125 6.109375  Q 37.203125 6.109375 41.296875 11.75  Q 45.40625 17.390625 45.40625 27.296875  Q 45.40625 37.203125 41.296875 42.84375  Q 37.203125 48.484375 30.078125 48.484375  Q 22.953125 48.484375 18.875 42.84375  Q 14.796875 37.203125 14.796875 27.296875  z "
               id="DejaVuSans-100" />
            <path
               d="M 46 62.703125  L 46 35.5  L 73.1875 35.5  L 73.1875 27.203125  L 46 27.203125  L 46 0  L 37.796875 0  L 37.796875 27.203125  L 10.59375 27.203125  L 10.59375 35.5  L 37.796875 35.5  L 37.796875 62.703125  z "
               id="DejaVuSans-43" />
          </defs>
          <g
             transform="translate(13.84 187.6734)rotate(-90)scale(0.08 -0.08)"
             id="g309">
            <use
               transform="translate(0 0.826562)"
               xlink:href="#DejaVuSans-77"
               id="use257" />
            <use
               transform="translate(86.279297 0.826562)"
               xlink:href="#DejaVuSans-97"
               id="use259" />
            <use
               transform="translate(147.558594 0.826562)"
               xlink:href="#DejaVuSans-120"
               id="use261" />
            <use
               transform="translate(206.738281 0.826562)"
               xlink:href="#DejaVuSans-32"
               id="use263" />
            <use
               transform="translate(238.525391 0.826562)"
               xlink:href="#DejaVuSans-65"
               id="use265" />
            <use
               transform="translate(306.933594 0.826562)"
               xlink:href="#DejaVuSans-99"
               id="use267" />
            <use
               transform="translate(361.914062 0.826562)"
               xlink:href="#DejaVuSans-99"
               id="use269" />
            <use
               transform="translate(416.894531 0.826562)"
               xlink:href="#DejaVuSans-117"
               id="use271" />
            <use
               transform="translate(480.273438 0.826562)"
               xlink:href="#DejaVuSans-114"
               id="use273" />
            <use
               transform="translate(521.386719 0.826562)"
               xlink:href="#DejaVuSans-97"
               id="use275" />
            <use
               transform="translate(582.666016 0.826562)"
               xlink:href="#DejaVuSans-99"
               id="use277" />
            <use
               transform="translate(637.646484 0.826562)"
               xlink:href="#DejaVuSans-121"
               id="use279" />
            <use
               transform="translate(696.826172 0.826562)"
               xlink:href="#DejaVuSans-32"
               id="use281" />
            <use
               transform="translate(728.613281 0.826562)"
               xlink:href="#DejaVuSans-65"
               id="use283" />
            <use
               transform="translate(797.021484 0.826562)"
               xlink:href="#DejaVuSans-99"
               id="use285" />
            <use
               transform="translate(852.001953 0.826562)"
               xlink:href="#DejaVuSans-104"
               id="use287" />
            <use
               transform="translate(915.380859 0.826562)"
               xlink:href="#DejaVuSans-105"
               id="use289" />
            <use
               transform="translate(943.164062 0.826562)"
               xlink:href="#DejaVuSans-118"
               id="use291" />
            <use
               transform="translate(1002.34375 0.826562)"
               xlink:href="#DejaVuSans-101"
               id="use293" />
            <use
               transform="translate(1063.867188 0.826562)"
               xlink:href="#DejaVuSans-100"
               id="use295" />
            <use
               transform="translate(1127.34375 0.826562)"
               xlink:href="#DejaVuSans-32"
               id="use297" />
            <use
               transform="translate(1159.130859 0.826562)"
               xlink:href="#DejaVuSans-Oblique-102"
               id="use299" />
            <use
               transform="translate(1194.335938 0.826562)"
               xlink:href="#DejaVuSans-40"
               id="use301" />
            <use
               transform="translate(1233.349609 0.826562)"
               xlink:href="#DejaVuSans-Oblique-120"
               id="use303" />
            <use
               transform="translate(1310.633138 39.107812)scale(0.7)"
               xlink:href="#DejaVuSans-43"
               id="use305" />
            <use
               transform="translate(1385.657552 0.826562)"
               xlink:href="#DejaVuSans-41"
               id="use307" />
          </g>
        </g>
      </g>
      <g
         id="line2d_21">
        <path
           clip-path="url(#p1485e26989)"
           d="M 49.645511 229.509764  L 83.812784 182.633853  L 117.980057 145.904726  L 152.14733 145.904726  L 186.314602 31.837036  L 220.481875 31.837036  L 254.649148 31.837036  L 288.81642 31.837036  L 322.983693 31.837036  L 357.150966 31.837036  L 391.318239 31.837036  "
           style="fill:none;stroke:#00bfbf;stroke-dasharray:17.28,4.32,2.7,4.32;stroke-dashoffset:0;stroke-width:2.7;"
           id="path313" />
        <defs
           id="defs316">
          <path
             d="M 0 -10  L -2.24514 -3.09017  L -9.510565 -3.09017  L -3.632713 1.18034  L -5.877853 8.09017  L -0 3.81966  L 5.877853 8.09017  L 3.632713 1.18034  L 9.510565 -3.09017  L 2.24514 -3.09017  z "
             id="m7082576d59"
             style="stroke:#00bfbf;stroke-linejoin:bevel;" />
        </defs>
        <g
           clip-path="url(#p1485e26989)"
           id="g340">
          <use
             style="fill:#00bfbf;stroke:#00bfbf;stroke-linejoin:bevel;"
             x="49.645511"
             xlink:href="#m7082576d59"
             y="229.509764"
             id="use318" />
          <use
             style="fill:#00bfbf;stroke:#00bfbf;stroke-linejoin:bevel;"
             x="83.812784"
             xlink:href="#m7082576d59"
             y="182.633853"
             id="use320" />
          <use
             style="fill:#00bfbf;stroke:#00bfbf;stroke-linejoin:bevel;"
             x="117.980057"
             xlink:href="#m7082576d59"
             y="145.904726"
             id="use322" />
          <use
             style="fill:#00bfbf;stroke:#00bfbf;stroke-linejoin:bevel;"
             x="152.14733"
             xlink:href="#m7082576d59"
             y="145.904726"
             id="use324" />
          <use
             style="fill:#00bfbf;stroke:#00bfbf;stroke-linejoin:bevel;"
             x="186.314602"
             xlink:href="#m7082576d59"
             y="31.837036"
             id="use326" />
          <use
             style="fill:#00bfbf;stroke:#00bfbf;stroke-linejoin:bevel;"
             x="220.481875"
             xlink:href="#m7082576d59"
             y="31.837036"
             id="use328" />
          <use
             style="fill:#00bfbf;stroke:#00bfbf;stroke-linejoin:bevel;"
             x="254.649148"
             xlink:href="#m7082576d59"
             y="31.837036"
             id="use330" />
          <use
             style="fill:#00bfbf;stroke:#00bfbf;stroke-linejoin:bevel;"
             x="288.81642"
             xlink:href="#m7082576d59"
             y="31.837036"
             id="use332" />
          <use
             style="fill:#00bfbf;stroke:#00bfbf;stroke-linejoin:bevel;"
             x="322.983693"
             xlink:href="#m7082576d59"
             y="31.837036"
             id="use334" />
          <use
             style="fill:#00bfbf;stroke:#00bfbf;stroke-linejoin:bevel;"
             x="357.150966"
             xlink:href="#m7082576d59"
             y="31.837036"
             id="use336" />
          <use
             style="fill:#00bfbf;stroke:#00bfbf;stroke-linejoin:bevel;"
             x="391.318239"
             xlink:href="#m7082576d59"
             y="31.837036"
             id="use338" />
        </g>
      </g>
      <g
         id="patch_3">
        <path
           d="M 32.561875 239.3934  L 32.561875 21.9534  "
           style="fill:none;stroke:#f0f0f0;stroke-linecap:square;stroke-linejoin:miter;stroke-width:3;"
           id="path343" />
      </g>
      <g
         id="patch_4">
        <path
           d="M 408.401875 239.3934  L 408.401875 21.9534  "
           style="fill:none;stroke:#f0f0f0;stroke-linecap:square;stroke-linejoin:miter;stroke-width:3;"
           id="path346" />
      </g>
      <g
         id="patch_5">
        <path
           d="M 32.561875 239.3934  L 408.401875 239.3934  "
           style="fill:none;stroke:#f0f0f0;stroke-linecap:square;stroke-linejoin:miter;stroke-width:3;"
           id="path349" />
      </g>
      <g
         id="patch_6">
        <path
           d="M 32.561875 21.9534  L 408.401875 21.9534  "
           style="fill:none;stroke:#f0f0f0;stroke-linecap:square;stroke-linejoin:miter;stroke-width:3;"
           id="path352" />
      </g>
      <g
         id="text_13">
        <!-- Variation of Max Accuracy achieved for Neural Network task -->
        <defs
           id="defs359">
          <path
             d="M 28.609375 0  L 0.78125 72.90625  L 11.078125 72.90625  L 34.1875 11.53125  L 57.328125 72.90625  L 67.578125 72.90625  L 39.796875 0  z "
             id="DejaVuSans-86" />
          <path
             d="M 54.890625 33.015625  L 54.890625 0  L 45.90625 0  L 45.90625 32.71875  Q 45.90625 40.484375 42.875 44.328125  Q 39.84375 48.1875 33.796875 48.1875  Q 26.515625 48.1875 22.3125 43.546875  Q 18.109375 38.921875 18.109375 30.90625  L 18.109375 0  L 9.078125 0  L 9.078125 54.6875  L 18.109375 54.6875  L 18.109375 46.1875  Q 21.34375 51.125 25.703125 53.5625  Q 30.078125 56 35.796875 56  Q 45.21875 56 50.046875 50.171875  Q 54.890625 44.34375 54.890625 33.015625  z "
             id="DejaVuSans-110" />
          <path
             d="M 4.203125 54.6875  L 13.1875 54.6875  L 24.421875 12.015625  L 35.59375 54.6875  L 46.1875 54.6875  L 57.421875 12.015625  L 68.609375 54.6875  L 77.59375 54.6875  L 63.28125 0  L 52.6875 0  L 40.921875 44.828125  L 29.109375 0  L 18.5 0  z "
             id="DejaVuSans-119" />
          <path
             d="M 9.078125 75.984375  L 18.109375 75.984375  L 18.109375 31.109375  L 44.921875 54.6875  L 56.390625 54.6875  L 27.390625 29.109375  L 57.625 0  L 45.90625 0  L 18.109375 26.703125  L 18.109375 0  L 9.078125 0  z "
             id="DejaVuSans-107" />
        </defs>
        <g
           transform="translate(46.786375 15.9534)scale(0.1152 -0.1152)"
           id="g477">
          <use
             xlink:href="#DejaVuSans-86"
             id="use361" />
          <use
             x="68.298828"
             xlink:href="#DejaVuSans-97"
             id="use363" />
          <use
             x="129.578125"
             xlink:href="#DejaVuSans-114"
             id="use365" />
          <use
             x="170.691406"
             xlink:href="#DejaVuSans-105"
             id="use367" />
          <use
             x="198.474609"
             xlink:href="#DejaVuSans-97"
             id="use369" />
          <use
             x="259.753906"
             xlink:href="#DejaVuSans-116"
             id="use371" />
          <use
             x="298.962891"
             xlink:href="#DejaVuSans-105"
             id="use373" />
          <use
             x="326.746094"
             xlink:href="#DejaVuSans-111"
             id="use375" />
          <use
             x="387.927734"
             xlink:href="#DejaVuSans-110"
             id="use377" />
          <use
             x="451.306641"
             xlink:href="#DejaVuSans-32"
             id="use379" />
          <use
             x="483.09375"
             xlink:href="#DejaVuSans-111"
             id="use381" />
          <use
             x="544.275391"
             xlink:href="#DejaVuSans-102"
             id="use383" />
          <use
             x="579.480469"
             xlink:href="#DejaVuSans-32"
             id="use385" />
          <use
             x="611.267578"
             xlink:href="#DejaVuSans-77"
             id="use387" />
          <use
             x="697.546875"
             xlink:href="#DejaVuSans-97"
             id="use389" />
          <use
             x="758.826172"
             xlink:href="#DejaVuSans-120"
             id="use391" />
          <use
             x="818.005859"
             xlink:href="#DejaVuSans-32"
             id="use393" />
          <use
             x="849.792969"
             xlink:href="#DejaVuSans-65"
             id="use395" />
          <use
             x="918.185547"
             xlink:href="#DejaVuSans-99"
             id="use397" />
          <use
             x="973.166016"
             xlink:href="#DejaVuSans-99"
             id="use399" />
          <use
             x="1028.146484"
             xlink:href="#DejaVuSans-117"
             id="use401" />
          <use
             x="1091.525391"
             xlink:href="#DejaVuSans-114"
             id="use403" />
          <use
             x="1132.638672"
             xlink:href="#DejaVuSans-97"
             id="use405" />
          <use
             x="1193.917969"
             xlink:href="#DejaVuSans-99"
             id="use407" />
          <use
             x="1248.898438"
             xlink:href="#DejaVuSans-121"
             id="use409" />
          <use
             x="1308.078125"
             xlink:href="#DejaVuSans-32"
             id="use411" />
          <use
             x="1339.865234"
             xlink:href="#DejaVuSans-97"
             id="use413" />
          <use
             x="1401.144531"
             xlink:href="#DejaVuSans-99"
             id="use415" />
          <use
             x="1456.125"
             xlink:href="#DejaVuSans-104"
             id="use417" />
          <use
             x="1519.503906"
             xlink:href="#DejaVuSans-105"
             id="use419" />
          <use
             x="1547.287109"
             xlink:href="#DejaVuSans-101"
             id="use421" />
          <use
             x="1608.810547"
             xlink:href="#DejaVuSans-118"
             id="use423" />
          <use
             x="1667.990234"
             xlink:href="#DejaVuSans-101"
             id="use425" />
          <use
             x="1729.513672"
             xlink:href="#DejaVuSans-100"
             id="use427" />
          <use
             x="1792.990234"
             xlink:href="#DejaVuSans-32"
             id="use429" />
          <use
             x="1824.777344"
             xlink:href="#DejaVuSans-102"
             id="use431" />
          <use
             x="1859.982422"
             xlink:href="#DejaVuSans-111"
             id="use433" />
          <use
             x="1921.164062"
             xlink:href="#DejaVuSans-114"
             id="use435" />
          <use
             x="1962.277344"
             xlink:href="#DejaVuSans-32"
             id="use437" />
          <use
             x="1994.064453"
             xlink:href="#DejaVuSans-78"
             id="use439" />
          <use
             x="2068.869141"
             xlink:href="#DejaVuSans-101"
             id="use441" />
          <use
             x="2130.392578"
             xlink:href="#DejaVuSans-117"
             id="use443" />
          <use
             x="2193.771484"
             xlink:href="#DejaVuSans-114"
             id="use445" />
          <use
             x="2234.884766"
             xlink:href="#DejaVuSans-97"
             id="use447" />
          <use
             x="2296.164062"
             xlink:href="#DejaVuSans-108"
             id="use449" />
          <use
             x="2323.947266"
             xlink:href="#DejaVuSans-32"
             id="use451" />
          <use
             x="2355.734375"
             xlink:href="#DejaVuSans-78"
             id="use453" />
          <use
             x="2430.539062"
             xlink:href="#DejaVuSans-101"
             id="use455" />
          <use
             x="2492.0625"
             xlink:href="#DejaVuSans-116"
             id="use457" />
          <use
             x="2531.271484"
             xlink:href="#DejaVuSans-119"
             id="use459" />
          <use
             x="2613.058594"
             xlink:href="#DejaVuSans-111"
             id="use461" />
          <use
             x="2674.240234"
             xlink:href="#DejaVuSans-114"
             id="use463" />
          <use
             x="2715.353516"
             xlink:href="#DejaVuSans-107"
             id="use465" />
          <use
             x="2773.263672"
             xlink:href="#DejaVuSans-32"
             id="use467" />
          <use
             x="2805.050781"
             xlink:href="#DejaVuSans-116"
             id="use469" />
          <use
             x="2844.259766"
             xlink:href="#DejaVuSans-97"
             id="use471" />
          <use
             x="2905.539062"
             xlink:href="#DejaVuSans-115"
             id="use473" />
          <use
             x="2957.638672"
             xlink:href="#DejaVuSans-107"
             id="use475" />
        </g>
      </g>
    </g>
  </g>
  <defs
     id="defs485">
    <clipPath
       id="p1485e26989">
      <rect
         height="217.44"
         width="375.84"
         x="32.561875"
         y="21.9534"
         id="rect482" />
    </clipPath>
  </defs>
  <rect
     style="fill:#ffffff;stroke-width:0.75000006;stroke-linecap:butt;stroke-linejoin:round"
     id="rect497"
     width="51.151001"
     height="352.94193"
     x="-35.805702"
     y="-34.148136" />
</svg>
