<?xml version="1.0" encoding="utf-8" standalone="no"?>
<!DOCTYPE svg PUBLIC "-//W3C//DTD SVG 1.1//EN"
  "http://www.w3.org/Graphics/SVG/1.1/DTD/svg11.dtd">
<!-- Created with matplotlib (https://matplotlib.org/) -->
<svg height="275.685875pt" version="1.1" viewBox="0 0 508.481062 275.685875" width="508.481062pt" xmlns="http://www.w3.org/2000/svg" xmlns:xlink="http://www.w3.org/1999/xlink">
 <defs>
  <style type="text/css">
*{stroke-linecap:butt;stroke-linejoin:round;}
  </style>
 </defs>
 <g id="figure_1">
  <g id="patch_1">
   <path d="M 0 275.685875 
L 508.481062 275.685875 
L 508.481062 0 
L 0 0 
z
" style="fill:#ffffff;"/>
  </g>
  <g id="axes_1">
   <g id="patch_2">
    <path d="M 34.421875 238.089 
L 369.221875 238.089 
L 369.221875 20.649 
L 34.421875 20.649 
z
" style="fill:#ffffff;"/>
   </g>
   <g id="PolyCollection_1">
    <defs>
     <path d="M 49.640057 -123.169739 
L 49.640057 -146.412429 
L 50.148176 -146.109151 
L 50.656296 -145.806085 
L 51.164416 -145.503435 
L 51.672535 -145.201413 
L 52.180655 -144.900235 
L 52.688774 -144.600122 
L 53.196894 -144.301302 
L 53.705014 -144.004007 
L 54.213133 -143.708473 
L 54.721253 -143.414945 
L 55.229372 -143.123668 
L 55.737492 -142.834894 
L 56.245612 -142.548878 
L 56.753731 -142.265881 
L 57.261851 -141.986166 
L 57.76997 -141.709999 
L 58.27809 -141.437651 
L 58.786209 -141.169394 
L 59.294329 -140.905502 
L 59.802449 -140.646254 
L 60.310568 -140.391927 
L 60.818688 -140.142801 
L 61.326807 -139.899156 
L 61.834927 -139.661272 
L 62.343047 -139.429431 
L 62.851166 -139.203909 
L 63.359286 -138.984986 
L 63.867405 -138.772937 
L 64.375525 -138.568034 
L 64.883645 -138.370548 
L 65.391764 -138.180742 
L 65.899884 -137.998878 
L 66.408003 -137.825212 
L 66.916123 -137.659992 
L 67.424243 -137.503459 
L 67.932362 -137.355849 
L 68.440482 -137.217387 
L 68.948601 -137.088289 
L 69.456721 -136.96876 
L 69.964841 -136.858996 
L 70.47296 -136.759179 
L 70.98108 -136.669478 
L 71.489199 -136.590049 
L 71.997319 -136.521033 
L 72.505439 -136.462555 
L 73.013558 -136.414722 
L 73.521678 -136.377624 
L 74.029797 -136.351334 
L 74.537917 -136.335903 
L 75.046036 -136.331362 
L 75.554156 -136.337719 
L 76.062276 -136.354963 
L 76.570395 -136.383058 
L 77.078515 -136.421951 
L 77.586634 -136.471565 
L 78.094754 -136.531807 
L 78.602874 -136.602568 
L 79.110993 -136.683719 
L 79.619113 -136.775117 
L 80.127232 -136.876604 
L 80.635352 -136.988009 
L 81.143472 -137.109146 
L 81.651591 -137.239819 
L 82.159711 -137.379822 
L 82.66783 -137.528935 
L 83.17595 -137.686931 
L 83.68407 -137.853576 
L 84.192189 -138.028627 
L 84.700309 -138.211832 
L 85.208428 -138.402936 
L 85.716548 -138.601677 
L 86.224668 -138.80779 
L 86.732787 -139.021004 
L 87.240907 -139.241045 
L 87.749026 -139.467639 
L 88.257146 -139.700508 
L 88.765265 -139.939371 
L 89.273385 -140.183949 
L 89.781505 -140.433961 
L 90.289624 -140.689128 
L 90.797744 -140.949169 
L 91.305863 -141.213807 
L 91.813983 -141.482766 
L 92.322103 -141.755769 
L 92.830222 -142.032546 
L 93.338342 -142.312827 
L 93.846461 -142.596345 
L 94.354581 -142.882838 
L 94.862701 -143.172047 
L 95.37082 -143.463717 
L 95.87894 -143.757596 
L 96.387059 -144.05344 
L 96.895179 -144.351006 
L 97.403299 -144.650057 
L 97.911418 -144.950364 
L 98.419538 -145.251698 
L 98.927657 -145.553839 
L 99.435777 -145.856572 
L 99.943897 -146.159688 
L 100.452016 -146.462982 
L 100.960136 -146.766256 
L 101.468255 -147.069318 
L 101.976375 -147.371981 
L 102.484495 -147.674065 
L 102.992614 -147.975396 
L 103.500734 -148.275804 
L 104.008853 -148.575128 
L 104.516973 -148.87321 
L 105.025092 -149.169901 
L 105.533212 -149.465054 
L 106.041332 -149.758532 
L 106.549451 -150.050202 
L 107.057571 -150.339935 
L 107.56569 -150.627611 
L 108.07381 -150.913114 
L 108.58193 -151.196334 
L 109.090049 -151.477166 
L 109.598169 -151.75551 
L 110.106288 -152.031272 
L 110.614408 -152.304365 
L 111.122528 -152.574704 
L 111.630647 -152.842211 
L 112.138767 -153.106812 
L 112.646886 -153.368438 
L 113.155006 -153.627027 
L 113.663126 -153.882517 
L 114.171245 -154.134855 
L 114.679365 -154.38399 
L 115.187484 -154.629877 
L 115.695604 -154.872472 
L 116.203724 -155.111738 
L 116.711843 -155.347642 
L 117.219963 -155.580153 
L 117.728082 -155.809245 
L 118.236202 -156.034894 
L 118.744322 -156.257083 
L 119.252441 -156.475794 
L 119.760561 -156.691015 
L 120.26868 -156.902736 
L 120.7768 -157.110952 
L 121.284919 -157.315657 
L 121.793039 -157.516852 
L 122.301159 -157.714539 
L 122.809278 -157.908721 
L 123.317398 -158.099405 
L 123.825517 -158.286602 
L 124.333637 -158.470322 
L 124.841757 -158.650579 
L 125.349876 -158.827389 
L 125.857996 -159.000769 
L 126.366115 -159.17074 
L 126.874235 -159.337322 
L 127.382355 -159.500539 
L 127.890474 -159.660416 
L 128.398594 -159.816978 
L 128.906713 -159.970253 
L 129.414833 -160.12027 
L 129.922953 -160.26706 
L 130.431072 -160.410653 
L 130.939192 -160.551083 
L 131.447311 -160.688382 
L 131.955431 -160.822586 
L 132.463551 -160.95373 
L 132.97167 -161.081849 
L 133.47979 -161.206981 
L 133.987909 -161.329164 
L 134.496029 -161.448436 
L 135.004148 -161.564836 
L 135.512268 -161.678402 
L 136.020388 -161.789176 
L 136.528507 -161.897197 
L 137.036627 -162.002506 
L 137.544746 -162.105144 
L 138.052866 -162.205151 
L 138.560986 -162.302571 
L 139.069105 -162.397442 
L 139.577225 -162.489809 
L 140.085344 -162.579712 
L 140.593464 -162.667193 
L 141.101584 -162.752294 
L 141.609703 -162.835057 
L 142.117823 -162.915523 
L 142.625942 -162.993735 
L 143.134062 -163.069733 
L 143.642182 -163.143559 
L 144.150301 -163.215255 
L 144.658421 -163.284861 
L 145.16654 -163.352417 
L 145.67466 -163.417966 
L 146.18278 -163.481546 
L 146.690899 -163.543198 
L 147.199019 -163.602962 
L 147.707138 -163.660876 
L 148.215258 -163.716979 
L 148.723378 -163.771311 
L 149.231497 -163.823909 
L 149.739617 -163.874812 
L 150.247736 -163.924056 
L 150.755856 -163.971679 
L 151.263975 -164.017716 
L 151.772095 -164.062205 
L 152.280215 -164.105181 
L 152.788334 -164.146679 
L 153.296454 -164.186733 
L 153.804573 -164.225379 
L 154.312693 -164.262649 
L 154.820813 -164.298578 
L 155.328932 -164.333197 
L 155.837052 -164.36654 
L 156.345171 -164.398637 
L 156.853291 -164.429521 
L 157.361411 -164.459222 
L 157.86953 -164.48777 
L 158.37765 -164.515195 
L 158.885769 -164.541527 
L 159.393889 -164.566794 
L 159.902009 -164.591024 
L 160.410128 -164.614245 
L 160.918248 -164.636486 
L 161.426367 -164.657771 
L 161.934487 -164.678128 
L 162.442607 -164.697582 
L 162.950726 -164.716159 
L 163.458846 -164.733883 
L 163.966965 -164.750778 
L 164.475085 -164.766869 
L 164.983204 -164.782179 
L 165.491324 -164.79673 
L 165.999444 -164.810545 
L 166.507563 -164.823646 
L 167.015683 -164.836055 
L 167.523802 -164.847791 
L 168.031922 -164.858876 
L 168.540042 -164.86933 
L 169.048161 -164.879172 
L 169.556281 -164.888422 
L 170.0644 -164.897098 
L 170.57252 -164.905219 
L 171.08064 -164.912802 
L 171.588759 -164.919865 
L 172.096879 -164.926426 
L 172.604998 -164.9325 
L 173.113118 -164.938104 
L 173.621238 -164.943253 
L 174.129357 -164.947965 
L 174.637477 -164.952252 
L 175.145596 -164.956131 
L 175.653716 -164.959615 
L 176.161836 -164.962718 
L 176.669955 -164.965455 
L 177.178075 -164.967838 
L 177.686194 -164.96988 
L 178.194314 -164.971594 
L 178.702434 -164.972993 
L 179.210553 -164.974087 
L 179.718673 -164.97489 
L 180.226792 -164.975411 
L 180.734912 -164.975663 
L 181.243031 -164.975655 
L 181.751151 -164.975398 
L 182.259271 -164.974903 
L 182.76739 -164.974179 
L 183.27551 -164.973235 
L 183.783629 -164.972082 
L 184.291749 -164.970727 
L 184.799869 -164.969181 
L 185.307988 -164.96745 
L 185.816108 -164.965544 
L 186.324227 -164.963471 
L 186.832347 -164.961238 
L 187.340467 -164.958852 
L 187.848586 -164.956322 
L 188.356706 -164.953654 
L 188.864825 -164.950855 
L 189.372945 -164.947932 
L 189.881065 -164.944891 
L 190.389184 -164.941739 
L 190.897304 -164.938481 
L 191.405423 -164.935123 
L 191.913543 -164.931671 
L 192.421663 -164.928131 
L 192.929782 -164.924508 
L 193.437902 -164.920806 
L 193.946021 -164.917032 
L 194.454141 -164.913189 
L 194.96226 -164.909282 
L 195.47038 -164.905316 
L 195.9785 -164.901296 
L 196.486619 -164.897224 
L 196.994739 -164.893106 
L 197.502858 -164.888945 
L 198.010978 -164.884745 
L 198.519098 -164.880509 
L 199.027217 -164.876241 
L 199.535337 -164.871945 
L 200.043456 -164.867623 
L 200.551576 -164.863279 
L 201.059696 -164.858915 
L 201.567815 -164.854535 
L 202.075935 -164.850141 
L 202.584054 -164.845736 
L 203.092174 -164.841323 
L 203.600294 -164.836904 
L 204.108413 -164.83248 
L 204.616533 -164.828056 
L 205.124652 -164.823632 
L 205.632772 -164.81921 
L 206.140892 -164.814794 
L 206.649011 -164.810384 
L 207.157131 -164.805983 
L 207.66525 -164.801591 
L 208.17337 -164.797212 
L 208.68149 -164.792846 
L 209.189609 -164.788495 
L 209.697729 -164.78416 
L 210.205848 -164.779843 
L 210.713968 -164.775546 
L 211.222087 -164.771268 
L 211.730207 -164.767012 
L 212.238327 -164.762778 
L 212.746446 -164.758568 
L 213.254566 -164.754383 
L 213.762685 -164.750224 
L 214.270805 -164.746091 
L 214.778925 -164.741985 
L 215.287044 -164.737907 
L 215.795164 -164.733859 
L 216.303283 -164.72984 
L 216.811403 -164.725851 
L 217.319523 -164.721893 
L 217.827642 -164.717966 
L 218.335762 -164.714072 
L 218.843881 -164.71021 
L 219.352001 -164.706381 
L 219.860121 -164.702585 
L 220.36824 -164.698824 
L 220.87636 -164.695096 
L 221.384479 -164.691403 
L 221.892599 -164.687744 
L 222.400719 -164.684121 
L 222.908838 -164.680533 
L 223.416958 -164.67698 
L 223.925077 -164.673463 
L 224.433197 -164.669981 
L 224.941316 -164.666536 
L 225.449436 -164.663127 
L 225.957556 -164.659754 
L 226.465675 -164.656417 
L 226.973795 -164.653116 
L 227.481914 -164.649852 
L 227.990034 -164.646624 
L 228.498154 -164.643432 
L 229.006273 -164.640277 
L 229.514393 -164.637158 
L 230.022512 -164.634075 
L 230.530632 -164.631028 
L 231.038752 -164.628017 
L 231.546871 -164.625042 
L 232.054991 -164.622102 
L 232.56311 -164.619199 
L 233.07123 -164.616331 
L 233.57935 -164.613498 
L 234.087469 -164.6107 
L 234.595589 -164.607938 
L 235.103708 -164.60521 
L 235.611828 -164.602517 
L 236.119948 -164.599858 
L 236.628067 -164.597234 
L 237.136187 -164.594644 
L 237.644306 -164.592087 
L 238.152426 -164.589564 
L 238.660546 -164.587075 
L 239.168665 -164.584618 
L 239.676785 -164.582195 
L 240.184904 -164.579804 
L 240.693024 -164.577445 
L 241.201143 -164.575118 
L 241.709263 -164.572824 
L 242.217383 -164.57056 
L 242.725502 -164.568328 
L 243.233622 -164.566127 
L 243.741741 -164.563957 
L 244.249861 -164.561817 
L 244.757981 -164.559707 
L 245.2661 -164.557628 
L 245.77422 -164.555577 
L 246.282339 -164.553556 
L 246.790459 -164.551564 
L 247.298579 -164.5496 
L 247.806698 -164.547665 
L 248.314818 -164.545758 
L 248.822937 -164.543879 
L 249.331057 -164.542027 
L 249.839177 -164.540203 
L 250.347296 -164.538405 
L 250.855416 -164.536634 
L 251.363535 -164.534889 
L 251.871655 -164.53317 
L 252.379775 -164.531477 
L 252.887894 -164.529809 
L 253.396014 -164.528166 
L 253.904133 -164.526548 
L 254.412253 -164.524955 
L 254.920372 -164.523386 
L 255.428492 -164.52184 
L 255.936612 -164.520318 
L 256.444731 -164.51882 
L 256.952851 -164.517344 
L 257.46097 -164.515892 
L 257.96909 -164.514461 
L 258.47721 -164.513053 
L 258.985329 -164.511667 
L 259.493449 -164.510302 
L 260.001568 -164.508959 
L 260.509688 -164.507637 
L 261.017808 -164.506335 
L 261.525927 -164.505054 
L 262.034047 -164.503793 
L 262.542166 -164.502552 
L 263.050286 -164.501331 
L 263.558406 -164.500129 
L 264.066525 -164.498946 
L 264.574645 -164.497782 
L 265.082764 -164.496637 
L 265.590884 -164.49551 
L 266.099004 -164.494401 
L 266.607123 -164.49331 
L 267.115243 -164.492236 
L 267.623362 -164.49118 
L 268.131482 -164.490141 
L 268.639602 -164.489119 
L 269.147721 -164.488114 
L 269.655841 -164.487124 
L 270.16396 -164.486151 
L 270.67208 -164.485194 
L 271.180199 -164.484253 
L 271.688319 -164.483327 
L 272.196439 -164.482416 
L 272.704558 -164.48152 
L 273.212678 -164.480639 
L 273.720797 -164.479772 
L 274.228917 -164.47892 
L 274.737037 -164.478082 
L 275.245156 -164.477258 
L 275.753276 -164.476448 
L 276.261395 -164.475651 
L 276.769515 -164.474867 
L 277.277635 -164.474096 
L 277.785754 -164.473339 
L 278.293874 -164.472594 
L 278.801993 -164.471861 
L 279.310113 -164.471141 
L 279.818233 -164.470433 
L 280.326352 -164.469737 
L 280.834472 -164.469052 
L 281.342591 -164.468379 
L 281.850711 -164.467718 
L 282.358831 -164.467068 
L 282.86695 -164.466428 
L 283.37507 -164.4658 
L 283.883189 -164.465182 
L 284.391309 -164.464575 
L 284.899428 -164.463978 
L 285.407548 -164.463391 
L 285.915668 -164.462815 
L 286.423787 -164.462248 
L 286.931907 -164.461691 
L 287.440026 -164.461144 
L 287.948146 -164.460605 
L 288.456266 -164.460077 
L 288.964385 -164.459557 
L 289.472505 -164.459046 
L 289.980624 -164.458544 
L 290.488744 -164.458051 
L 290.996864 -164.457566 
L 291.504983 -164.457089 
L 292.013103 -164.456621 
L 292.521222 -164.456161 
L 293.029342 -164.455709 
L 293.537462 -164.455265 
L 294.045581 -164.454829 
L 294.553701 -164.4544 
L 295.06182 -164.453978 
L 295.56994 -164.453564 
L 296.07806 -164.453157 
L 296.586179 -164.452758 
L 297.094299 -164.452365 
L 297.602418 -164.451979 
L 298.110538 -164.4516 
L 298.618658 -164.451227 
L 299.126777 -164.450862 
L 299.634897 -164.450502 
L 300.143016 -164.450149 
L 300.651136 -164.449802 
L 301.159255 -164.449461 
L 301.667375 -164.449126 
L 302.175495 -164.448797 
L 302.683614 -164.448474 
L 303.191734 -164.448157 
L 303.699853 -164.447845 
L 304.207973 -164.447539 
L 304.716093 -164.447238 
L 305.224212 -164.446943 
L 305.732332 -164.446652 
L 306.240451 -164.446367 
L 306.748571 -164.446087 
L 307.256691 -164.445812 
L 307.76481 -164.445542 
L 308.27293 -164.445277 
L 308.781049 -164.445016 
L 309.289169 -164.44476 
L 309.797289 -164.444509 
L 310.305408 -164.444262 
L 310.813528 -164.444019 
L 311.321647 -164.443781 
L 311.829767 -164.443547 
L 312.337887 -164.443318 
L 312.846006 -164.443092 
L 313.354126 -164.44287 
L 313.862245 -164.442653 
L 314.370365 -164.442439 
L 314.878485 -164.442229 
L 315.386604 -164.442023 
L 315.894724 -164.441821 
L 316.402843 -164.441622 
L 316.910963 -164.441427 
L 317.419082 -164.441236 
L 317.927202 -164.441048 
L 318.435322 -164.440863 
L 318.943441 -164.440681 
L 319.451561 -164.440503 
L 319.95968 -164.440328 
L 320.4678 -164.440157 
L 320.97592 -164.439988 
L 321.484039 -164.439822 
L 321.992159 -164.43966 
L 322.500278 -164.4395 
L 323.008398 -164.439344 
L 323.516518 -164.43919 
L 324.024637 -164.439039 
L 324.532757 -164.43889 
L 325.040876 -164.438745 
L 325.548996 -164.438602 
L 326.057116 -164.438461 
L 326.565235 -164.438323 
L 327.073355 -164.438188 
L 327.581474 -164.438055 
L 328.089594 -164.437925 
L 328.597714 -164.437797 
L 329.105833 -164.437671 
L 329.613953 -164.437548 
L 330.122072 -164.437427 
L 330.630192 -164.437308 
L 331.138311 -164.437191 
L 331.646431 -164.437076 
L 332.154551 -164.436964 
L 332.66267 -164.436853 
L 333.17079 -164.436745 
L 333.678909 -164.436639 
L 334.187029 -164.436534 
L 334.695149 -164.436432 
L 335.203268 -164.436331 
L 335.711388 -164.436232 
L 336.219507 -164.436135 
L 336.727627 -164.43604 
L 337.235747 -164.435946 
L 337.743866 -164.435855 
L 338.251986 -164.435765 
L 338.760105 -164.435676 
L 339.268225 -164.435589 
L 339.776345 -164.435504 
L 340.284464 -164.435421 
L 340.792584 -164.435339 
L 341.300703 -164.435258 
L 341.808823 -164.435179 
L 342.316943 -164.435101 
L 342.825062 -164.435025 
L 343.333182 -164.434951 
L 343.841301 -164.434877 
L 344.349421 -164.434805 
L 344.857541 -164.434735 
L 345.36566 -164.434665 
L 345.87378 -164.434597 
L 346.381899 -164.43453 
L 346.890019 -164.434465 
L 347.398138 -164.4344 
L 347.906258 -164.434337 
L 348.414378 -164.434275 
L 348.922497 -164.434215 
L 349.430617 -164.434155 
L 349.938736 -164.434096 
L 350.446856 -164.434039 
L 350.954976 -164.433982 
L 351.463095 -164.433927 
L 351.971215 -164.433873 
L 352.479334 -164.433819 
L 352.987454 -164.433767 
L 353.495574 -164.433716 
L 354.003693 -164.433665 
L 354.003693 -90.256594 
L 354.003693 -90.256594 
L 353.495574 -90.256645 
L 352.987454 -90.256696 
L 352.479334 -90.256749 
L 351.971215 -90.256802 
L 351.463095 -90.256857 
L 350.954976 -90.256913 
L 350.446856 -90.256969 
L 349.938736 -90.257027 
L 349.430617 -90.257086 
L 348.922497 -90.257146 
L 348.414378 -90.257207 
L 347.906258 -90.25727 
L 347.398138 -90.257333 
L 346.890019 -90.257398 
L 346.381899 -90.257464 
L 345.87378 -90.257531 
L 345.36566 -90.2576 
L 344.857541 -90.257669 
L 344.349421 -90.257741 
L 343.841301 -90.257813 
L 343.333182 -90.257887 
L 342.825062 -90.257962 
L 342.316943 -90.258039 
L 341.808823 -90.258117 
L 341.300703 -90.258197 
L 340.792584 -90.258278 
L 340.284464 -90.258361 
L 339.776345 -90.258445 
L 339.268225 -90.258531 
L 338.760105 -90.258618 
L 338.251986 -90.258707 
L 337.743866 -90.258798 
L 337.235747 -90.258891 
L 336.727627 -90.258985 
L 336.219507 -90.259081 
L 335.711388 -90.259179 
L 335.203268 -90.259279 
L 334.695149 -90.259381 
L 334.187029 -90.259484 
L 333.678909 -90.25959 
L 333.17079 -90.259697 
L 332.66267 -90.259807 
L 332.154551 -90.259918 
L 331.646431 -90.260032 
L 331.138311 -90.260148 
L 330.630192 -90.260266 
L 330.122072 -90.260386 
L 329.613953 -90.260509 
L 329.105833 -90.260634 
L 328.597714 -90.260761 
L 328.089594 -90.260891 
L 327.581474 -90.261023 
L 327.073355 -90.261158 
L 326.565235 -90.261295 
L 326.057116 -90.261434 
L 325.548996 -90.261577 
L 325.040876 -90.261722 
L 324.532757 -90.261869 
L 324.024637 -90.26202 
L 323.516518 -90.262173 
L 323.008398 -90.262329 
L 322.500278 -90.262489 
L 321.992159 -90.262651 
L 321.484039 -90.262816 
L 320.97592 -90.262984 
L 320.4678 -90.263156 
L 319.95968 -90.26333 
L 319.451561 -90.263508 
L 318.943441 -90.26369 
L 318.435322 -90.263874 
L 317.927202 -90.264062 
L 317.419082 -90.264254 
L 316.910963 -90.264449 
L 316.402843 -90.264648 
L 315.894724 -90.264851 
L 315.386604 -90.265057 
L 314.878485 -90.265268 
L 314.370365 -90.265482 
L 313.862245 -90.2657 
L 313.354126 -90.265922 
L 312.846006 -90.266149 
L 312.337887 -90.266379 
L 311.829767 -90.266614 
L 311.321647 -90.266854 
L 310.813528 -90.267098 
L 310.305408 -90.267346 
L 309.797289 -90.267599 
L 309.289169 -90.267857 
L 308.781049 -90.26812 
L 308.27293 -90.268387 
L 307.76481 -90.26866 
L 307.256691 -90.268937 
L 306.748571 -90.26922 
L 306.240451 -90.269508 
L 305.732332 -90.269801 
L 305.224212 -90.2701 
L 304.716093 -90.270404 
L 304.207973 -90.270714 
L 303.699853 -90.27103 
L 303.191734 -90.271352 
L 302.683614 -90.27168 
L 302.175495 -90.272014 
L 301.667375 -90.272354 
L 301.159255 -90.2727 
L 300.651136 -90.273053 
L 300.143016 -90.273412 
L 299.634897 -90.273778 
L 299.126777 -90.274151 
L 298.618658 -90.27453 
L 298.110538 -90.274917 
L 297.602418 -90.275311 
L 297.094299 -90.275712 
L 296.586179 -90.276121 
L 296.07806 -90.276537 
L 295.56994 -90.276961 
L 295.06182 -90.277393 
L 294.553701 -90.277833 
L 294.045581 -90.278281 
L 293.537462 -90.278738 
L 293.029342 -90.279202 
L 292.521222 -90.279676 
L 292.013103 -90.280158 
L 291.504983 -90.280649 
L 290.996864 -90.28115 
L 290.488744 -90.281659 
L 289.980624 -90.282178 
L 289.472505 -90.282707 
L 288.964385 -90.283245 
L 288.456266 -90.283793 
L 287.948146 -90.284352 
L 287.440026 -90.284921 
L 286.931907 -90.2855 
L 286.423787 -90.28609 
L 285.915668 -90.286691 
L 285.407548 -90.287303 
L 284.899428 -90.287927 
L 284.391309 -90.288562 
L 283.883189 -90.289208 
L 283.37507 -90.289867 
L 282.86695 -90.290538 
L 282.358831 -90.291221 
L 281.850711 -90.291917 
L 281.342591 -90.292626 
L 280.834472 -90.293348 
L 280.326352 -90.294083 
L 279.818233 -90.294832 
L 279.310113 -90.295595 
L 278.801993 -90.296372 
L 278.293874 -90.297163 
L 277.785754 -90.297969 
L 277.277635 -90.29879 
L 276.769515 -90.299626 
L 276.261395 -90.300477 
L 275.753276 -90.301344 
L 275.245156 -90.302228 
L 274.737037 -90.303127 
L 274.228917 -90.304044 
L 273.720797 -90.304977 
L 273.212678 -90.305927 
L 272.704558 -90.306895 
L 272.196439 -90.307881 
L 271.688319 -90.308885 
L 271.180199 -90.309908 
L 270.67208 -90.31095 
L 270.16396 -90.312011 
L 269.655841 -90.313091 
L 269.147721 -90.314192 
L 268.639602 -90.315313 
L 268.131482 -90.316455 
L 267.623362 -90.317618 
L 267.115243 -90.318803 
L 266.607123 -90.320009 
L 266.099004 -90.321238 
L 265.590884 -90.32249 
L 265.082764 -90.323765 
L 264.574645 -90.325063 
L 264.066525 -90.326386 
L 263.558406 -90.327733 
L 263.050286 -90.329105 
L 262.542166 -90.330503 
L 262.034047 -90.331926 
L 261.525927 -90.333377 
L 261.017808 -90.334854 
L 260.509688 -90.336358 
L 260.001568 -90.337891 
L 259.493449 -90.339452 
L 258.985329 -90.341042 
L 258.47721 -90.342662 
L 257.96909 -90.344311 
L 257.46097 -90.345992 
L 256.952851 -90.347704 
L 256.444731 -90.349448 
L 255.936612 -90.351224 
L 255.428492 -90.353034 
L 254.920372 -90.354877 
L 254.412253 -90.356755 
L 253.904133 -90.358668 
L 253.396014 -90.360616 
L 252.887894 -90.362601 
L 252.379775 -90.364624 
L 251.871655 -90.366684 
L 251.363535 -90.368782 
L 250.855416 -90.37092 
L 250.347296 -90.373098 
L 249.839177 -90.375317 
L 249.331057 -90.377578 
L 248.822937 -90.379881 
L 248.314818 -90.382227 
L 247.806698 -90.384618 
L 247.298579 -90.387054 
L 246.790459 -90.389535 
L 246.282339 -90.392063 
L 245.77422 -90.394639 
L 245.2661 -90.397263 
L 244.757981 -90.399937 
L 244.249861 -90.402662 
L 243.741741 -90.405438 
L 243.233622 -90.408266 
L 242.725502 -90.411148 
L 242.217383 -90.414085 
L 241.709263 -90.417077 
L 241.201143 -90.420127 
L 240.693024 -90.423234 
L 240.184904 -90.4264 
L 239.676785 -90.429626 
L 239.168665 -90.432914 
L 238.660546 -90.436265 
L 238.152426 -90.439679 
L 237.644306 -90.443159 
L 237.136187 -90.446705 
L 236.628067 -90.450318 
L 236.119948 -90.454001 
L 235.611828 -90.457755 
L 235.103708 -90.461581 
L 234.595589 -90.46548 
L 234.087469 -90.469453 
L 233.57935 -90.473504 
L 233.07123 -90.477632 
L 232.56311 -90.48184 
L 232.054991 -90.486129 
L 231.546871 -90.490501 
L 231.038752 -90.494957 
L 230.530632 -90.499499 
L 230.022512 -90.50413 
L 229.514393 -90.50885 
L 229.006273 -90.513662 
L 228.498154 -90.518567 
L 227.990034 -90.523568 
L 227.481914 -90.528666 
L 226.973795 -90.533864 
L 226.465675 -90.539163 
L 225.957556 -90.544565 
L 225.449436 -90.550073 
L 224.941316 -90.555689 
L 224.433197 -90.561415 
L 223.925077 -90.567254 
L 223.416958 -90.573207 
L 222.908838 -90.579277 
L 222.400719 -90.585467 
L 221.892599 -90.591779 
L 221.384479 -90.598216 
L 220.87636 -90.60478 
L 220.36824 -90.611474 
L 219.860121 -90.6183 
L 219.352001 -90.625262 
L 218.843881 -90.632363 
L 218.335762 -90.639604 
L 217.827642 -90.64699 
L 217.319523 -90.654523 
L 216.811403 -90.662207 
L 216.303283 -90.670044 
L 215.795164 -90.678038 
L 215.287044 -90.686192 
L 214.778925 -90.694511 
L 214.270805 -90.702996 
L 213.762685 -90.711652 
L 213.254566 -90.720482 
L 212.746446 -90.729491 
L 212.238327 -90.738681 
L 211.730207 -90.748058 
L 211.222087 -90.757624 
L 210.713968 -90.767384 
L 210.205848 -90.777343 
L 209.697729 -90.787504 
L 209.189609 -90.797872 
L 208.68149 -90.808452 
L 208.17337 -90.819247 
L 207.66525 -90.830263 
L 207.157131 -90.841505 
L 206.649011 -90.852977 
L 206.140892 -90.864684 
L 205.632772 -90.876632 
L 205.124652 -90.888825 
L 204.616533 -90.90127 
L 204.108413 -90.913972 
L 203.600294 -90.926936 
L 203.092174 -90.940168 
L 202.584054 -90.953673 
L 202.075935 -90.967459 
L 201.567815 -90.981531 
L 201.059696 -90.995895 
L 200.551576 -91.010558 
L 200.043456 -91.025527 
L 199.535337 -91.040808 
L 199.027217 -91.056408 
L 198.519098 -91.072333 
L 198.010978 -91.088593 
L 197.502858 -91.105192 
L 196.994739 -91.12214 
L 196.486619 -91.139444 
L 195.9785 -91.157112 
L 195.47038 -91.175151 
L 194.96226 -91.193571 
L 194.454141 -91.212379 
L 193.946021 -91.231584 
L 193.437902 -91.251195 
L 192.929782 -91.27122 
L 192.421663 -91.29167 
L 191.913543 -91.312553 
L 191.405423 -91.33388 
L 190.897304 -91.355659 
L 190.389184 -91.377901 
L 189.881065 -91.400616 
L 189.372945 -91.423815 
L 188.864825 -91.447508 
L 188.356706 -91.471706 
L 187.848586 -91.496421 
L 187.340467 -91.521664 
L 186.832347 -91.547446 
L 186.324227 -91.57378 
L 185.816108 -91.600677 
L 185.307988 -91.628151 
L 184.799869 -91.656213 
L 184.291749 -91.684877 
L 183.783629 -91.714157 
L 183.27551 -91.744064 
L 182.76739 -91.774615 
L 182.259271 -91.805822 
L 181.751151 -91.837699 
L 181.243031 -91.870263 
L 180.734912 -91.903527 
L 180.226792 -91.937507 
L 179.718673 -91.972219 
L 179.210553 -92.007678 
L 178.702434 -92.043901 
L 178.194314 -92.080905 
L 177.686194 -92.118707 
L 177.178075 -92.157323 
L 176.669955 -92.196771 
L 176.161836 -92.23707 
L 175.653716 -92.278238 
L 175.145596 -92.320293 
L 174.637477 -92.363254 
L 174.129357 -92.407142 
L 173.621238 -92.451975 
L 173.113118 -92.497775 
L 172.604998 -92.544561 
L 172.096879 -92.592354 
L 171.588759 -92.641177 
L 171.08064 -92.69105 
L 170.57252 -92.741996 
L 170.0644 -92.794037 
L 169.556281 -92.847197 
L 169.048161 -92.901499 
L 168.540042 -92.956966 
L 168.031922 -93.013623 
L 167.523802 -93.071494 
L 167.015683 -93.130605 
L 166.507563 -93.190981 
L 165.999444 -93.252649 
L 165.491324 -93.315633 
L 164.983204 -93.379962 
L 164.475085 -93.445662 
L 163.966965 -93.512762 
L 163.458846 -93.581289 
L 162.950726 -93.651272 
L 162.442607 -93.72274 
L 161.934487 -93.795722 
L 161.426367 -93.870249 
L 160.918248 -93.946351 
L 160.410128 -94.024059 
L 159.902009 -94.103403 
L 159.393889 -94.184416 
L 158.885769 -94.26713 
L 158.37765 -94.351578 
L 157.86953 -94.437791 
L 157.361411 -94.525805 
L 156.853291 -94.615653 
L 156.345171 -94.707369 
L 155.837052 -94.800988 
L 155.328932 -94.896545 
L 154.820813 -94.994076 
L 154.312693 -95.093617 
L 153.804573 -95.195204 
L 153.296454 -95.298873 
L 152.788334 -95.404663 
L 152.280215 -95.51261 
L 151.772095 -95.622753 
L 151.263975 -95.73513 
L 150.755856 -95.849778 
L 150.247736 -95.966738 
L 149.739617 -96.086048 
L 149.231497 -96.207747 
L 148.723378 -96.331876 
L 148.215258 -96.458475 
L 147.707138 -96.587583 
L 147.199019 -96.719242 
L 146.690899 -96.853491 
L 146.18278 -96.990371 
L 145.67466 -97.129925 
L 145.16654 -97.272192 
L 144.658421 -97.417214 
L 144.150301 -97.565032 
L 143.642182 -97.715688 
L 143.134062 -97.869223 
L 142.625942 -98.025678 
L 142.117823 -98.185095 
L 141.609703 -98.347514 
L 141.101584 -98.512978 
L 140.593464 -98.681526 
L 140.085344 -98.853199 
L 139.577225 -99.028039 
L 139.069105 -99.206085 
L 138.560986 -99.387377 
L 138.052866 -99.571956 
L 137.544746 -99.759859 
L 137.036627 -99.951125 
L 136.528507 -100.145794 
L 136.020388 -100.343901 
L 135.512268 -100.545485 
L 135.004148 -100.750582 
L 134.496029 -100.959227 
L 133.987909 -101.171454 
L 133.47979 -101.387298 
L 132.97167 -101.606792 
L 132.463551 -101.829968 
L 131.955431 -102.056855 
L 131.447311 -102.287485 
L 130.939192 -102.521885 
L 130.431072 -102.760083 
L 129.922953 -103.002104 
L 129.414833 -103.247974 
L 128.906713 -103.497714 
L 128.398594 -103.751345 
L 127.890474 -104.008888 
L 127.382355 -104.27036 
L 126.874235 -104.535776 
L 126.366115 -104.805151 
L 125.857996 -105.078496 
L 125.349876 -105.355821 
L 124.841757 -105.637132 
L 124.333637 -105.922435 
L 123.825517 -106.211731 
L 123.317398 -106.505021 
L 122.809278 -106.802302 
L 122.301159 -107.103567 
L 121.793039 -107.408809 
L 121.284919 -107.718014 
L 120.7768 -108.031168 
L 120.26868 -108.348253 
L 119.760561 -108.669247 
L 119.252441 -108.994125 
L 118.744322 -109.322858 
L 118.236202 -109.655413 
L 117.728082 -109.991754 
L 117.219963 -110.33184 
L 116.711843 -110.675627 
L 116.203724 -111.023066 
L 115.695604 -111.374104 
L 115.187484 -111.728681 
L 114.679365 -112.086737 
L 114.171245 -112.448204 
L 113.663126 -112.81301 
L 113.155006 -113.181078 
L 112.646886 -113.552325 
L 112.138767 -113.926664 
L 111.630647 -114.304003 
L 111.122528 -114.684243 
L 110.614408 -115.067279 
L 110.106288 -115.453003 
L 109.598169 -115.841299 
L 109.090049 -116.232046 
L 108.58193 -116.625117 
L 108.07381 -117.020377 
L 107.56569 -117.417688 
L 107.057571 -117.816904 
L 106.549451 -118.217872 
L 106.041332 -118.620434 
L 105.533212 -119.024424 
L 105.025092 -119.429672 
L 104.516973 -119.835998 
L 104.008853 -120.243219 
L 103.500734 -120.651141 
L 102.992614 -121.059568 
L 102.484495 -121.468294 
L 101.976375 -121.877107 
L 101.468255 -122.28579 
L 100.960136 -122.694116 
L 100.452016 -123.101856 
L 99.943897 -123.50877 
L 99.435777 -123.914613 
L 98.927657 -124.319135 
L 98.419538 -124.722078 
L 97.911418 -125.123179 
L 97.403299 -125.522166 
L 96.895179 -125.918766 
L 96.387059 -126.312696 
L 95.87894 -126.703668 
L 95.37082 -127.091391 
L 94.862701 -127.475566 
L 94.354581 -127.855892 
L 93.846461 -128.232059 
L 93.338342 -128.603758 
L 92.830222 -128.970671 
L 92.322103 -129.332479 
L 91.813983 -129.688861 
L 91.305863 -130.039488 
L 90.797744 -130.384035 
L 90.289624 -130.722169 
L 89.781505 -131.053558 
L 89.273385 -131.377871 
L 88.765265 -131.694772 
L 88.257146 -132.003929 
L 87.749026 -132.305007 
L 87.240907 -132.597675 
L 86.732787 -132.881602 
L 86.224668 -133.156461 
L 85.716548 -133.421928 
L 85.208428 -133.677681 
L 84.700309 -133.923406 
L 84.192189 -134.158791 
L 83.68407 -134.383533 
L 83.17595 -134.597335 
L 82.66783 -134.799909 
L 82.159711 -134.990975 
L 81.651591 -135.170264 
L 81.143472 -135.337517 
L 80.635352 -135.492488 
L 80.127232 -135.634943 
L 79.619113 -135.764663 
L 79.110993 -135.881443 
L 78.602874 -135.985097 
L 78.094754 -136.075453 
L 77.586634 -136.152359 
L 77.078515 -136.215683 
L 76.570395 -136.265314 
L 76.062276 -136.301163 
L 75.554156 -136.323164 
L 75.046036 -136.331275 
L 74.537917 -136.325481 
L 74.029797 -136.305793 
L 73.521678 -136.272248 
L 73.013558 -136.224909 
L 72.505439 -136.163859 
L 71.997319 -136.089208 
L 71.489199 -136.001084 
L 70.98108 -135.899635 
L 70.47296 -135.78503 
L 69.964841 -135.657453 
L 69.456721 -135.517105 
L 68.948601 -135.364205 
L 68.440482 -135.198982 
L 67.932362 -135.021681 
L 67.424243 -134.83256 
L 66.916123 -134.631885 
L 66.408003 -134.419934 
L 65.899884 -134.196995 
L 65.391764 -133.963363 
L 64.883645 -133.71934 
L 64.375525 -133.465237 
L 63.867405 -133.201367 
L 63.359286 -132.928051 
L 62.851166 -132.645612 
L 62.343047 -132.354378 
L 61.834927 -132.054678 
L 61.326807 -131.746845 
L 60.818688 -131.431211 
L 60.310568 -131.108111 
L 59.802449 -130.777878 
L 59.294329 -130.440844 
L 58.786209 -130.097344 
L 58.27809 -129.747707 
L 57.76997 -129.392262 
L 57.261851 -129.031335 
L 56.753731 -128.665251 
L 56.245612 -128.294328 
L 55.737492 -127.918883 
L 55.229372 -127.53923 
L 54.721253 -127.155675 
L 54.213133 -126.768522 
L 53.705014 -126.378071 
L 53.196894 -125.984614 
L 52.688774 -125.58844 
L 52.180655 -125.189831 
L 51.672535 -124.789064 
L 51.164416 -124.386409 
L 50.656296 -123.982132 
L 50.148176 -123.576491 
L 49.640057 -123.169739 
z
" id="m6bc09fbb10" style="stroke:#808080;stroke-opacity:0.4;stroke-width:0.24;"/>
    </defs>
    <g clip-path="url(#pefc35c5e6b)">
     <use style="fill:#808080;fill-opacity:0.4;stroke:#808080;stroke-opacity:0.4;stroke-width:0.24;" x="0" xlink:href="#m6bc09fbb10" y="275.685875"/>
    </g>
   </g>
   <g id="matplotlib.axis_1">
    <g id="xtick_1">
     <g id="line2d_1">
      <path clip-path="url(#pefc35c5e6b)" d="M 49.640057 238.089 
L 49.640057 20.649 
" style="fill:none;stroke:#b0b0b0;stroke-linecap:square;stroke-width:0.8;"/>
     </g>
     <g id="line2d_2">
      <defs>
       <path d="M 0 0 
L 0 3.5 
" id="mb3506b25d3" style="stroke:#808080;stroke-width:0.8;"/>
      </defs>
      <g>
       <use style="fill:#808080;stroke:#808080;stroke-width:0.8;" x="49.640057" xlink:href="#mb3506b25d3" y="238.089"/>
      </g>
     </g>
     <g id="text_1">
      <!-- 0 -->
      <defs>
       <path d="M 5 34.703125 
Q 5 52.09375 11.140625 61.5 
Q 17.296875 70.90625 28.203125 70.90625 
Q 39.09375 70.90625 45.25 61.5 
Q 51.40625 52.09375 51.40625 34.703125 
Q 51.40625 17.296875 45.25 7.890625 
Q 39.09375 -1.5 28.203125 -1.5 
Q 17.296875 -1.5 11.140625 7.890625 
Q 5 17.296875 5 34.703125 
z
M 41.59375 34.703125 
Q 41.59375 40.40625 40.9375 45.5 
Q 40.296875 50.59375 38.75 54.390625 
Q 37.203125 58.203125 34.59375 60.453125 
Q 32 62.703125 28.203125 62.703125 
Q 24.40625 62.703125 21.796875 60.453125 
Q 19.203125 58.203125 17.640625 54.390625 
Q 16.09375 50.59375 15.4375 45.5 
Q 14.796875 40.40625 14.796875 34.703125 
Q 14.796875 29 15.4375 23.890625 
Q 16.09375 18.796875 17.640625 15 
Q 19.203125 11.203125 21.796875 8.953125 
Q 24.40625 6.703125 28.203125 6.703125 
Q 32 6.703125 34.59375 8.953125 
Q 37.203125 11.203125 38.75 15 
Q 40.296875 18.796875 40.9375 23.890625 
Q 41.59375 29 41.59375 34.703125 
z
" id="Ubuntu-48"/>
      </defs>
      <g transform="translate(47.383807 253.3965)scale(0.08 -0.08)">
       <use xlink:href="#Ubuntu-48"/>
      </g>
     </g>
    </g>
    <g id="xtick_2">
     <g id="line2d_3">
      <path clip-path="url(#pefc35c5e6b)" d="M 100.36733 238.089 
L 100.36733 20.649 
" style="fill:none;stroke:#b0b0b0;stroke-linecap:square;stroke-width:0.8;"/>
     </g>
     <g id="line2d_4">
      <g>
       <use style="fill:#808080;stroke:#808080;stroke-width:0.8;" x="100.36733" xlink:href="#mb3506b25d3" y="238.089"/>
      </g>
     </g>
     <g id="text_2">
      <!-- 1 -->
      <defs>
       <path d="M 9.296875 55 
Q 15 57.203125 20.390625 60.640625 
Q 25.796875 64.09375 30.296875 69.296875 
L 36.90625 69.296875 
L 36.90625 0 
L 27.59375 0 
L 27.59375 56.40625 
Q 26.40625 55.296875 24.65625 54.09375 
Q 22.90625 52.90625 20.84375 51.796875 
Q 18.796875 50.703125 16.546875 49.703125 
Q 14.296875 48.703125 12.203125 48 
z
" id="Ubuntu-49"/>
      </defs>
      <g transform="translate(98.11108 253.3965)scale(0.08 -0.08)">
       <use xlink:href="#Ubuntu-49"/>
      </g>
     </g>
    </g>
    <g id="xtick_3">
     <g id="line2d_5">
      <path clip-path="url(#pefc35c5e6b)" d="M 151.094602 238.089 
L 151.094602 20.649 
" style="fill:none;stroke:#b0b0b0;stroke-linecap:square;stroke-width:0.8;"/>
     </g>
     <g id="line2d_6">
      <g>
       <use style="fill:#808080;stroke:#808080;stroke-width:0.8;" x="151.094602" xlink:href="#mb3506b25d3" y="238.089"/>
      </g>
     </g>
     <g id="text_3">
      <!-- 2 -->
      <defs>
       <path d="M 46.703125 51.59375 
Q 46.703125 48 45.25 44.640625 
Q 43.796875 41.296875 41.390625 38.046875 
Q 39 34.796875 36 31.640625 
Q 33 28.5 30 25.5 
Q 28.296875 23.796875 26.046875 21.5 
Q 23.796875 19.203125 21.796875 16.703125 
Q 19.796875 14.203125 18.4375 11.890625 
Q 17.09375 9.59375 17.09375 7.90625 
L 49 7.90625 
L 49 0 
L 7 0 
Q 6.90625 0.59375 6.90625 1.1875 
Q 6.90625 1.796875 6.90625 2.296875 
Q 6.90625 7 8.453125 11.046875 
Q 10 15.09375 12.5 18.6875 
Q 15 22.296875 18.09375 25.5 
Q 21.203125 28.703125 24.203125 31.703125 
Q 26.703125 34.09375 28.953125 36.4375 
Q 31.203125 38.796875 32.953125 41.140625 
Q 34.703125 43.5 35.75 46 
Q 36.796875 48.5 36.796875 51.296875 
Q 36.796875 54.296875 35.84375 56.390625 
Q 34.90625 58.5 33.296875 59.890625 
Q 31.703125 61.296875 29.546875 61.9375 
Q 27.40625 62.59375 25 62.59375 
Q 22.09375 62.59375 19.6875 61.796875 
Q 17.296875 61 15.390625 59.953125 
Q 13.5 58.90625 12.203125 57.75 
Q 10.90625 56.59375 10.203125 56 
L 5.59375 62.59375 
Q 6.5 63.59375 8.296875 65.046875 
Q 10.09375 66.5 12.59375 67.796875 
Q 15.09375 69.09375 18.1875 70 
Q 21.296875 70.90625 24.90625 70.90625 
Q 35.796875 70.90625 41.25 65.84375 
Q 46.703125 60.796875 46.703125 51.59375 
z
" id="Ubuntu-50"/>
      </defs>
      <g transform="translate(148.838352 253.3965)scale(0.08 -0.08)">
       <use xlink:href="#Ubuntu-50"/>
      </g>
     </g>
    </g>
    <g id="xtick_4">
     <g id="line2d_7">
      <path clip-path="url(#pefc35c5e6b)" d="M 201.821875 238.089 
L 201.821875 20.649 
" style="fill:none;stroke:#b0b0b0;stroke-linecap:square;stroke-width:0.8;"/>
     </g>
     <g id="line2d_8">
      <g>
       <use style="fill:#808080;stroke:#808080;stroke-width:0.8;" x="201.821875" xlink:href="#mb3506b25d3" y="238.089"/>
      </g>
     </g>
     <g id="text_4">
      <!-- 3 -->
      <defs>
       <path d="M 22.59375 6.796875 
Q 31.5 6.796875 35.34375 10.296875 
Q 39.203125 13.796875 39.203125 19.703125 
Q 39.203125 23.5 37.59375 26.09375 
Q 36 28.703125 33.390625 30.25 
Q 30.796875 31.796875 27.34375 32.4375 
Q 23.90625 33.09375 20.296875 33.09375 
L 17.90625 33.09375 
L 17.90625 40.703125 
L 21.203125 40.703125 
Q 23.703125 40.703125 26.34375 41.203125 
Q 29 41.703125 31.203125 43 
Q 33.40625 44.296875 34.796875 46.546875 
Q 36.203125 48.796875 36.203125 52.203125 
Q 36.203125 55 35.203125 57 
Q 34.203125 59 32.546875 60.296875 
Q 30.90625 61.59375 28.75 62.140625 
Q 26.59375 62.703125 24.203125 62.703125 
Q 19.40625 62.703125 16.046875 61.296875 
Q 12.703125 59.90625 10.40625 58.40625 
L 6.796875 65.5 
Q 8 66.296875 9.84375 67.25 
Q 11.703125 68.203125 14 69 
Q 16.296875 69.796875 18.9375 70.34375 
Q 21.59375 70.90625 24.5 70.90625 
Q 30 70.90625 34 69.546875 
Q 38 68.203125 40.59375 65.75 
Q 43.203125 63.296875 44.5 59.9375 
Q 45.796875 56.59375 45.796875 52.703125 
Q 45.796875 47.296875 42.6875 43.4375 
Q 39.59375 39.59375 35.203125 37.59375 
Q 37.90625 36.796875 40.40625 35.296875 
Q 42.90625 33.796875 44.75 31.5 
Q 46.59375 29.203125 47.75 26.203125 
Q 48.90625 23.203125 48.90625 19.5 
Q 48.90625 15 47.34375 11.140625 
Q 45.796875 7.296875 42.546875 4.5 
Q 39.296875 1.703125 34.390625 0.09375 
Q 29.5 -1.5 22.796875 -1.5 
Q 20.203125 -1.5 17.453125 -1.09375 
Q 14.703125 -0.703125 12.296875 -0.09375 
Q 9.90625 0.5 8.09375 1.09375 
Q 6.296875 1.703125 5.5 2.09375 
L 7.296875 10.203125 
Q 9 9.40625 12.953125 8.09375 
Q 16.90625 6.796875 22.59375 6.796875 
z
" id="Ubuntu-51"/>
      </defs>
      <g transform="translate(199.565625 253.3965)scale(0.08 -0.08)">
       <use xlink:href="#Ubuntu-51"/>
      </g>
     </g>
    </g>
    <g id="xtick_5">
     <g id="line2d_9">
      <path clip-path="url(#pefc35c5e6b)" d="M 252.549148 238.089 
L 252.549148 20.649 
" style="fill:none;stroke:#b0b0b0;stroke-linecap:square;stroke-width:0.8;"/>
     </g>
     <g id="line2d_10">
      <g>
       <use style="fill:#808080;stroke:#808080;stroke-width:0.8;" x="252.549148" xlink:href="#mb3506b25d3" y="238.089"/>
      </g>
     </g>
     <g id="text_5">
      <!-- 4 -->
      <defs>
       <path d="M 4 24 
Q 5.90625 28.40625 9.203125 34.25 
Q 12.5 40.09375 16.640625 46.296875 
Q 20.796875 52.5 25.546875 58.5 
Q 30.296875 64.5 35.09375 69.296875 
L 44 69.296875 
L 44 25.296875 
L 52.203125 25.296875 
L 52.203125 17.703125 
L 44 17.703125 
L 44 0 
L 35 0 
L 35 17.703125 
L 4 17.703125 
z
M 35 58.296875 
Q 32 55.09375 28.953125 51.140625 
Q 25.90625 47.203125 23 42.890625 
Q 20.09375 38.59375 17.546875 34.09375 
Q 15 29.59375 13 25.296875 
L 35 25.296875 
z
" id="Ubuntu-52"/>
      </defs>
      <g transform="translate(250.292898 253.3965)scale(0.08 -0.08)">
       <use xlink:href="#Ubuntu-52"/>
      </g>
     </g>
    </g>
    <g id="xtick_6">
     <g id="line2d_11">
      <path clip-path="url(#pefc35c5e6b)" d="M 303.27642 238.089 
L 303.27642 20.649 
" style="fill:none;stroke:#b0b0b0;stroke-linecap:square;stroke-width:0.8;"/>
     </g>
     <g id="line2d_12">
      <g>
       <use style="fill:#808080;stroke:#808080;stroke-width:0.8;" x="303.27642" xlink:href="#mb3506b25d3" y="238.089"/>
      </g>
     </g>
     <g id="text_6">
      <!-- 5 -->
      <defs>
       <path d="M 19.90625 42.59375 
Q 35 42 42.046875 36 
Q 49.09375 30 49.09375 19.703125 
Q 49.09375 15.09375 47.546875 11.1875 
Q 46 7.296875 42.84375 4.5 
Q 39.703125 1.703125 34.890625 0.09375 
Q 30.09375 -1.5 23.5 -1.5 
Q 20.90625 -1.5 18.203125 -1.09375 
Q 15.5 -0.703125 13.203125 -0.09375 
Q 10.90625 0.5 9.09375 1.09375 
Q 7.296875 1.703125 6.5 2.09375 
L 8.296875 10.203125 
Q 10 9.40625 13.84375 8.09375 
Q 17.703125 6.796875 23.296875 6.796875 
Q 27.796875 6.796875 30.84375 7.796875 
Q 33.90625 8.796875 35.796875 10.5 
Q 37.703125 12.203125 38.546875 14.453125 
Q 39.40625 16.703125 39.40625 19.203125 
Q 39.40625 23 38.09375 25.953125 
Q 36.796875 28.90625 33.5 30.90625 
Q 30.203125 32.90625 24.703125 33.953125 
Q 19.203125 35 10.796875 35 
Q 11.40625 39.90625 11.75 44.203125 
Q 12.09375 48.5 12.390625 52.59375 
Q 12.703125 56.703125 12.890625 60.75 
Q 13.09375 64.796875 13.296875 69.296875 
L 46.703125 69.296875 
L 46.703125 61.40625 
L 21.40625 61.40625 
Q 21.296875 59.90625 21.09375 57.34375 
Q 20.90625 54.796875 20.703125 52.046875 
Q 20.5 49.296875 20.296875 46.6875 
Q 20.09375 44.09375 19.90625 42.59375 
z
" id="Ubuntu-53"/>
      </defs>
      <g transform="translate(301.02017 253.3965)scale(0.08 -0.08)">
       <use xlink:href="#Ubuntu-53"/>
      </g>
     </g>
    </g>
    <g id="xtick_7">
     <g id="line2d_13">
      <path clip-path="url(#pefc35c5e6b)" d="M 354.003693 238.089 
L 354.003693 20.649 
" style="fill:none;stroke:#b0b0b0;stroke-linecap:square;stroke-width:0.8;"/>
     </g>
     <g id="line2d_14">
      <g>
       <use style="fill:#808080;stroke:#808080;stroke-width:0.8;" x="354.003693" xlink:href="#mb3506b25d3" y="238.089"/>
      </g>
     </g>
     <g id="text_7">
      <!-- 6 -->
      <defs>
       <path d="M 6.296875 27.796875 
Q 6.296875 37.90625 9.09375 45.65625 
Q 11.90625 53.40625 17.046875 58.703125 
Q 22.203125 64 29.546875 66.75 
Q 36.90625 69.5 46.09375 69.59375 
L 46.796875 61.796875 
Q 40.90625 61.703125 36.046875 60.5 
Q 31.203125 59.296875 27.390625 56.6875 
Q 23.59375 54.09375 21 49.9375 
Q 18.40625 45.796875 17.09375 39.703125 
Q 19.703125 40.90625 22.953125 41.703125 
Q 26.203125 42.5 29.703125 42.5 
Q 35.59375 42.5 39.6875 40.703125 
Q 43.796875 38.90625 46.390625 35.953125 
Q 49 33 50.140625 29.140625 
Q 51.296875 25.296875 51.296875 21.09375 
Q 51.296875 17.296875 50 13.296875 
Q 48.703125 9.296875 46.046875 6 
Q 43.40625 2.703125 39.296875 0.59375 
Q 35.203125 -1.5 29.59375 -1.5 
Q 18.203125 -1.5 12.25 6.296875 
Q 6.296875 14.09375 6.296875 27.796875 
z
M 28.703125 34.90625 
Q 25.203125 34.90625 22.203125 34.25 
Q 19.203125 33.59375 16.203125 32.296875 
Q 16.09375 31.203125 16.046875 30.046875 
Q 16 28.90625 16 27.796875 
Q 16 23.40625 16.59375 19.5 
Q 17.203125 15.59375 18.75 12.640625 
Q 20.296875 9.703125 22.890625 7.953125 
Q 25.5 6.203125 29.5 6.203125 
Q 32.796875 6.203125 35.09375 7.59375 
Q 37.40625 9 38.90625 11.203125 
Q 40.40625 13.40625 41.046875 15.953125 
Q 41.703125 18.5 41.703125 20.90625 
Q 41.703125 27.703125 38.453125 31.296875 
Q 35.203125 34.90625 28.703125 34.90625 
z
" id="Ubuntu-54"/>
      </defs>
      <g transform="translate(351.747443 253.3965)scale(0.08 -0.08)">
       <use xlink:href="#Ubuntu-54"/>
      </g>
     </g>
    </g>
    <g id="text_8">
     <!-- X -->
     <defs>
      <path d="M 50.203125 0 
Q 48.703125 3 46.59375 6.640625 
Q 44.5 10.296875 42 14.25 
Q 39.5 18.203125 36.796875 22.140625 
Q 34.09375 26.09375 31.59375 29.59375 
Q 29.09375 26.09375 26.390625 22.140625 
Q 23.703125 18.203125 21.25 14.25 
Q 18.796875 10.296875 16.640625 6.640625 
Q 14.5 3 13 0 
L 2.296875 0 
Q 6.796875 8.796875 12.75 17.890625 
Q 18.703125 27 25.40625 36.59375 
L 3.203125 69.296875 
L 14.40625 69.296875 
L 31.5 43.5 
L 48.40625 69.296875 
L 59.5 69.296875 
L 37.703125 37 
Q 44.5 27.296875 50.5 18.09375 
Q 56.5 8.90625 61.09375 0 
z
" id="Ubuntu-88"/>
     </defs>
     <g transform="translate(198.667188 266.635875)scale(0.1 -0.1)">
      <use xlink:href="#Ubuntu-88"/>
     </g>
    </g>
   </g>
   <g id="matplotlib.axis_2">
    <g id="ytick_1">
     <g id="line2d_15">
      <path clip-path="url(#pefc35c5e6b)" d="M 34.421875 222.520434 
L 369.221875 222.520434 
" style="fill:none;stroke:#b0b0b0;stroke-linecap:square;stroke-width:0.8;"/>
     </g>
     <g id="line2d_16">
      <defs>
       <path d="M 0 0 
L -3.5 0 
" id="m6605c874e1" style="stroke:#808080;stroke-width:0.8;"/>
      </defs>
      <g>
       <use style="fill:#808080;stroke:#808080;stroke-width:0.8;" x="34.421875" xlink:href="#m6605c874e1" y="222.520434"/>
      </g>
     </g>
     <g id="text_9">
      <!-- 3 -->
      <g transform="translate(20.809375 225.624184)scale(0.08 -0.08)">
       <use xlink:href="#Ubuntu-51"/>
      </g>
     </g>
    </g>
    <g id="ytick_2">
     <g id="line2d_17">
      <path clip-path="url(#pefc35c5e6b)" d="M 34.421875 185.431895 
L 369.221875 185.431895 
" style="fill:none;stroke:#b0b0b0;stroke-linecap:square;stroke-width:0.8;"/>
     </g>
     <g id="line2d_18">
      <g>
       <use style="fill:#808080;stroke:#808080;stroke-width:0.8;" x="34.421875" xlink:href="#m6605c874e1" y="185.431895"/>
      </g>
     </g>
     <g id="text_10">
      <!-- 4 -->
      <g transform="translate(20.809375 188.535645)scale(0.08 -0.08)">
       <use xlink:href="#Ubuntu-52"/>
      </g>
     </g>
    </g>
    <g id="ytick_3">
     <g id="line2d_19">
      <path clip-path="url(#pefc35c5e6b)" d="M 34.421875 148.343357 
L 369.221875 148.343357 
" style="fill:none;stroke:#b0b0b0;stroke-linecap:square;stroke-width:0.8;"/>
     </g>
     <g id="line2d_20">
      <g>
       <use style="fill:#808080;stroke:#808080;stroke-width:0.8;" x="34.421875" xlink:href="#m6605c874e1" y="148.343357"/>
      </g>
     </g>
     <g id="text_11">
      <!-- 5 -->
      <g transform="translate(20.809375 151.447107)scale(0.08 -0.08)">
       <use xlink:href="#Ubuntu-53"/>
      </g>
     </g>
    </g>
    <g id="ytick_4">
     <g id="line2d_21">
      <path clip-path="url(#pefc35c5e6b)" d="M 34.421875 111.254818 
L 369.221875 111.254818 
" style="fill:none;stroke:#b0b0b0;stroke-linecap:square;stroke-width:0.8;"/>
     </g>
     <g id="line2d_22">
      <g>
       <use style="fill:#808080;stroke:#808080;stroke-width:0.8;" x="34.421875" xlink:href="#m6605c874e1" y="111.254818"/>
      </g>
     </g>
     <g id="text_12">
      <!-- 6 -->
      <g transform="translate(20.809375 114.358568)scale(0.08 -0.08)">
       <use xlink:href="#Ubuntu-54"/>
      </g>
     </g>
    </g>
    <g id="ytick_5">
     <g id="line2d_23">
      <path clip-path="url(#pefc35c5e6b)" d="M 34.421875 74.166279 
L 369.221875 74.166279 
" style="fill:none;stroke:#b0b0b0;stroke-linecap:square;stroke-width:0.8;"/>
     </g>
     <g id="line2d_24">
      <g>
       <use style="fill:#808080;stroke:#808080;stroke-width:0.8;" x="34.421875" xlink:href="#m6605c874e1" y="74.166279"/>
      </g>
     </g>
     <g id="text_13">
      <!-- 7 -->
      <defs>
       <path d="M 16.296875 0 
Q 16.90625 8 19.15625 16.84375 
Q 21.40625 25.703125 24.703125 34.046875 
Q 28 42.40625 31.953125 49.546875 
Q 35.90625 56.703125 39.703125 61.203125 
L 6 61.203125 
L 6 69.296875 
L 50.09375 69.296875 
L 50.09375 61.59375 
Q 46.796875 57.796875 42.796875 51.140625 
Q 38.796875 44.5 35.25 36.25 
Q 31.703125 28 29.140625 18.640625 
Q 26.59375 9.296875 26 0 
z
" id="Ubuntu-55"/>
      </defs>
      <g transform="translate(20.809375 77.270029)scale(0.08 -0.08)">
       <use xlink:href="#Ubuntu-55"/>
      </g>
     </g>
    </g>
    <g id="ytick_6">
     <g id="line2d_25">
      <path clip-path="url(#pefc35c5e6b)" d="M 34.421875 37.07774 
L 369.221875 37.07774 
" style="fill:none;stroke:#b0b0b0;stroke-linecap:square;stroke-width:0.8;"/>
     </g>
     <g id="line2d_26">
      <g>
       <use style="fill:#808080;stroke:#808080;stroke-width:0.8;" x="34.421875" xlink:href="#m6605c874e1" y="37.07774"/>
      </g>
     </g>
     <g id="text_14">
      <!-- 8 -->
      <defs>
       <path d="M 50.90625 18 
Q 50.90625 13.796875 49.453125 10.25 
Q 48 6.703125 45.140625 4.046875 
Q 42.296875 1.40625 38 -0.046875 
Q 33.703125 -1.5 28.09375 -1.5 
Q 21.59375 -1.5 17.25 0.34375 
Q 12.90625 2.203125 10.296875 5 
Q 7.703125 7.796875 6.59375 11.140625 
Q 5.5 14.5 5.5 17.5 
Q 5.5 20.40625 6.453125 23.046875 
Q 7.40625 25.703125 8.953125 28 
Q 10.5 30.296875 12.546875 32.140625 
Q 14.59375 34 16.90625 35.40625 
Q 7.09375 41 7.09375 51.90625 
Q 7.09375 55.703125 8.59375 59.140625 
Q 10.09375 62.59375 12.84375 65.1875 
Q 15.59375 67.796875 19.5 69.34375 
Q 23.40625 70.90625 28.203125 70.90625 
Q 33.796875 70.90625 37.796875 69.203125 
Q 41.796875 67.5 44.34375 64.84375 
Q 46.90625 62.203125 48.046875 59 
Q 49.203125 55.796875 49.203125 52.796875 
Q 49.203125 49.90625 48.34375 47.34375 
Q 47.5 44.796875 46.046875 42.59375 
Q 44.59375 40.40625 42.75 38.703125 
Q 40.90625 37 38.90625 35.703125 
Q 50.703125 30.09375 50.90625 18 
z
M 14.90625 17.40625 
Q 14.90625 15.59375 15.546875 13.640625 
Q 16.203125 11.703125 17.796875 10.046875 
Q 19.40625 8.40625 21.90625 7.296875 
Q 24.40625 6.203125 28.203125 6.203125 
Q 31.59375 6.203125 34.140625 7.203125 
Q 36.703125 8.203125 38.296875 9.75 
Q 39.90625 11.296875 40.703125 13.296875 
Q 41.5 15.296875 41.5 17.40625 
Q 41.5 20.59375 40.296875 23 
Q 39.09375 25.40625 36.84375 27.203125 
Q 34.59375 29 31.4375 30.25 
Q 28.296875 31.5 24.296875 32.40625 
Q 19.796875 29.90625 17.34375 26.203125 
Q 14.90625 22.5 14.90625 17.40625 
z
M 39.90625 52.90625 
Q 39.90625 54.40625 39.25 56.203125 
Q 38.59375 58 37.1875 59.546875 
Q 35.796875 61.09375 33.59375 62.140625 
Q 31.40625 63.203125 28.203125 63.203125 
Q 25 63.203125 22.75 62.203125 
Q 20.5 61.203125 19.09375 59.640625 
Q 17.703125 58.09375 17.046875 56.25 
Q 16.40625 54.40625 16.40625 52.59375 
Q 16.40625 50.40625 17.203125 48.203125 
Q 18 46 19.703125 44.09375 
Q 21.40625 42.203125 24.15625 40.703125 
Q 26.90625 39.203125 30.703125 38.296875 
Q 34.90625 40.796875 37.40625 44.140625 
Q 39.90625 47.5 39.90625 52.90625 
z
" id="Ubuntu-56"/>
      </defs>
      <g transform="translate(20.809375 40.18149)scale(0.08 -0.08)">
       <use xlink:href="#Ubuntu-56"/>
      </g>
     </g>
    </g>
    <g id="text_15">
     <!-- Gold content -->
     <defs>
      <path d="M 50.90625 34.09375 
L 60.59375 34.09375 
L 60.59375 1.703125 
Q 59.40625 1.296875 57.15625 0.796875 
Q 54.90625 0.296875 51.953125 -0.203125 
Q 49 -0.703125 45.5 -1.046875 
Q 42 -1.40625 38.40625 -1.40625 
Q 31.09375 -1.40625 25.09375 1 
Q 19.09375 3.40625 14.796875 8 
Q 10.5 12.59375 8.140625 19.296875 
Q 5.796875 26 5.796875 34.703125 
Q 5.796875 43.40625 8.4375 50.15625 
Q 11.09375 56.90625 15.59375 61.5 
Q 20.09375 66.09375 26.140625 68.5 
Q 32.203125 70.90625 39.09375 70.90625 
Q 43.796875 70.90625 47.4375 70.296875 
Q 51.09375 69.703125 53.6875 68.890625 
Q 56.296875 68.09375 57.9375 67.296875 
Q 59.59375 66.5 60.203125 66.09375 
L 57.09375 58 
Q 54.203125 59.90625 49.390625 61.15625 
Q 44.59375 62.40625 39.59375 62.40625 
Q 34.296875 62.40625 29.9375 60.5 
Q 25.59375 58.59375 22.546875 55 
Q 19.5 51.40625 17.796875 46.25 
Q 16.09375 41.09375 16.09375 34.703125 
Q 16.09375 28.5 17.546875 23.390625 
Q 19 18.296875 21.953125 14.640625 
Q 24.90625 11 29.25 9 
Q 33.59375 7 39.5 7 
Q 43.703125 7 46.640625 7.453125 
Q 49.59375 7.90625 50.90625 8.296875 
z
" id="Ubuntu-71"/>
      <path d="M 53.90625 26 
Q 53.90625 19.796875 52.09375 14.796875 
Q 50.296875 9.796875 47.046875 6.1875 
Q 43.796875 2.59375 39.296875 0.640625 
Q 34.796875 -1.296875 29.5 -1.296875 
Q 24.203125 -1.296875 19.703125 0.640625 
Q 15.203125 2.59375 11.953125 6.1875 
Q 8.703125 9.796875 6.890625 14.796875 
Q 5.09375 19.796875 5.09375 26 
Q 5.09375 32.09375 6.890625 37.140625 
Q 8.703125 42.203125 11.953125 45.796875 
Q 15.203125 49.40625 19.703125 51.34375 
Q 24.203125 53.296875 29.5 53.296875 
Q 34.796875 53.296875 39.296875 51.34375 
Q 43.796875 49.40625 47.046875 45.796875 
Q 50.296875 42.203125 52.09375 37.140625 
Q 53.90625 32.09375 53.90625 26 
z
M 44.203125 26 
Q 44.203125 34.796875 40.25 39.9375 
Q 36.296875 45.09375 29.5 45.09375 
Q 22.703125 45.09375 18.75 39.9375 
Q 14.796875 34.796875 14.796875 26 
Q 14.796875 17.203125 18.75 12.046875 
Q 22.703125 6.90625 29.5 6.90625 
Q 36.296875 6.90625 40.25 12.046875 
Q 44.203125 17.203125 44.203125 26 
z
" id="Ubuntu-111"/>
      <path d="M 23.59375 -1 
Q 15 -0.796875 11.390625 2.703125 
Q 7.796875 6.203125 7.796875 13.59375 
L 7.796875 76 
L 17.09375 77.59375 
L 17.09375 15.09375 
Q 17.09375 12.796875 17.5 11.296875 
Q 17.90625 9.796875 18.796875 8.890625 
Q 19.703125 8 21.203125 7.546875 
Q 22.703125 7.09375 24.90625 6.796875 
z
" id="Ubuntu-108"/>
      <path d="M 41.59375 41 
Q 39.90625 42.40625 36.703125 43.703125 
Q 33.5 45 29.703125 45 
Q 25.703125 45 22.84375 43.546875 
Q 20 42.09375 18.203125 39.546875 
Q 16.40625 37 15.59375 33.5 
Q 14.796875 30 14.796875 26 
Q 14.796875 16.90625 19.296875 11.953125 
Q 23.796875 7 31.296875 7 
Q 35.09375 7 37.640625 7.34375 
Q 40.203125 7.703125 41.59375 8.09375 
z
M 41.59375 76 
L 50.90625 77.59375 
L 50.90625 1.5 
Q 47.703125 0.59375 42.703125 -0.296875 
Q 37.703125 -1.203125 31.203125 -1.203125 
Q 25.203125 -1.203125 20.390625 0.6875 
Q 15.59375 2.59375 12.1875 6.09375 
Q 8.796875 9.59375 6.9375 14.640625 
Q 5.09375 19.703125 5.09375 26 
Q 5.09375 32 6.640625 37 
Q 8.203125 42 11.203125 45.59375 
Q 14.203125 49.203125 18.546875 51.203125 
Q 22.90625 53.203125 28.5 53.203125 
Q 33 53.203125 36.453125 52 
Q 39.90625 50.796875 41.59375 49.703125 
z
" id="Ubuntu-100"/>
      <path id="Ubuntu-32"/>
      <path d="M 30.59375 -1.203125 
Q 24.296875 -1.203125 19.546875 0.796875 
Q 14.796875 2.796875 11.546875 6.390625 
Q 8.296875 10 6.6875 14.953125 
Q 5.09375 19.90625 5.09375 25.90625 
Q 5.09375 31.90625 6.84375 36.90625 
Q 8.59375 41.90625 11.796875 45.546875 
Q 15 49.203125 19.640625 51.25 
Q 24.296875 53.296875 30 53.296875 
Q 33.5 53.296875 37 52.6875 
Q 40.5 52.09375 43.703125 50.796875 
L 41.59375 42.90625 
Q 39.5 43.90625 36.75 44.5 
Q 34 45.09375 30.90625 45.09375 
Q 23.09375 45.09375 18.9375 40.1875 
Q 14.796875 35.296875 14.796875 25.90625 
Q 14.796875 21.703125 15.75 18.203125 
Q 16.703125 14.703125 18.75 12.203125 
Q 20.796875 9.703125 24 8.34375 
Q 27.203125 7 31.796875 7 
Q 35.5 7 38.5 7.703125 
Q 41.5 8.40625 43.203125 9.203125 
L 44.5 1.40625 
Q 43.703125 0.90625 42.203125 0.453125 
Q 40.703125 0 38.796875 -0.34375 
Q 36.90625 -0.703125 34.75 -0.953125 
Q 32.59375 -1.203125 30.59375 -1.203125 
z
" id="Ubuntu-99"/>
      <path d="M 8 50.5 
Q 11.203125 51.296875 16.5 52.1875 
Q 21.796875 53.09375 28.703125 53.09375 
Q 34.90625 53.09375 39 51.34375 
Q 43.09375 49.59375 45.546875 46.4375 
Q 48 43.296875 49 38.890625 
Q 50 34.5 50 29.203125 
L 50 0 
L 40.703125 0 
L 40.703125 27.203125 
Q 40.703125 32 40.046875 35.390625 
Q 39.40625 38.796875 37.90625 40.890625 
Q 36.40625 43 33.90625 43.953125 
Q 31.40625 44.90625 27.703125 44.90625 
Q 26.203125 44.90625 24.59375 44.796875 
Q 23 44.703125 21.546875 44.546875 
Q 20.09375 44.40625 18.9375 44.203125 
Q 17.796875 44 17.296875 43.90625 
L 17.296875 0 
L 8 0 
z
" id="Ubuntu-110"/>
      <path d="M 16.703125 52 
L 36.40625 52 
L 36.40625 44.203125 
L 16.703125 44.203125 
L 16.703125 20.203125 
Q 16.703125 16.296875 17.296875 13.75 
Q 17.90625 11.203125 19.09375 9.75 
Q 20.296875 8.296875 22.09375 7.6875 
Q 23.90625 7.09375 26.296875 7.09375 
Q 30.5 7.09375 33.046875 8.046875 
Q 35.59375 9 36.59375 9.40625 
L 38.40625 1.703125 
Q 37 1 33.5 -0.046875 
Q 30 -1.09375 25.5 -1.09375 
Q 20.203125 -1.09375 16.75 0.25 
Q 13.296875 1.59375 11.1875 4.296875 
Q 9.09375 7 8.25 10.953125 
Q 7.40625 14.90625 7.40625 20.09375 
L 7.40625 66.5 
L 16.703125 68.09375 
z
" id="Ubuntu-116"/>
      <path d="M 5.09375 25.90625 
Q 5.09375 32.796875 7.09375 37.9375 
Q 9.09375 43.09375 12.390625 46.5 
Q 15.703125 49.90625 20 51.59375 
Q 24.296875 53.296875 28.796875 53.296875 
Q 39.296875 53.296875 44.890625 46.75 
Q 50.5 40.203125 50.5 26.796875 
Q 50.5 26.203125 50.5 25.25 
Q 50.5 24.296875 50.40625 23.5 
L 14.796875 23.5 
Q 15.40625 15.40625 19.5 11.203125 
Q 23.59375 7 32.296875 7 
Q 37.203125 7 40.546875 7.84375 
Q 43.90625 8.703125 45.59375 9.5 
L 46.90625 1.703125 
Q 45.203125 0.796875 40.953125 -0.203125 
Q 36.703125 -1.203125 31.296875 -1.203125 
Q 24.5 -1.203125 19.546875 0.84375 
Q 14.59375 2.90625 11.390625 6.5 
Q 8.203125 10.09375 6.640625 15.046875 
Q 5.09375 20 5.09375 25.90625 
z
M 40.796875 31 
Q 40.90625 37.296875 37.65625 41.34375 
Q 34.40625 45.40625 28.703125 45.40625 
Q 25.5 45.40625 23.046875 44.15625 
Q 20.59375 42.90625 18.890625 40.90625 
Q 17.203125 38.90625 16.25 36.296875 
Q 15.296875 33.703125 15 31 
z
" id="Ubuntu-101"/>
     </defs>
     <g transform="translate(14.959375 158.973687)rotate(-90)scale(0.1 -0.1)">
      <use xlink:href="#Ubuntu-71"/>
      <use x="67.199997" xlink:href="#Ubuntu-111"/>
      <use x="126.199982" xlink:href="#Ubuntu-108"/>
      <use x="153.499969" xlink:href="#Ubuntu-100"/>
      <use x="212.399963" xlink:href="#Ubuntu-32"/>
      <use x="235.499954" xlink:href="#Ubuntu-99"/>
      <use x="281.984314" xlink:href="#Ubuntu-111"/>
      <use x="340.984299" xlink:href="#Ubuntu-110"/>
      <use x="398.384293" xlink:href="#Ubuntu-116"/>
      <use x="438.568665" xlink:href="#Ubuntu-101"/>
      <use x="494.468658" xlink:href="#Ubuntu-110"/>
      <use x="551.868652" xlink:href="#Ubuntu-116"/>
     </g>
    </g>
   </g>
   <g id="line2d_27">
    <path clip-path="url(#pefc35c5e6b)" d="M 49.640057 140.894791 
L 59.294329 140.012702 
L 66.916123 139.539937 
L 73.521678 139.360939 
L 79.619113 139.415985 
L 86.224668 139.703749 
L 93.846461 140.271673 
L 104.008853 141.276702 
L 136.528507 144.66438 
L 149.231497 145.670047 
L 161.934487 146.44895 
L 175.653716 147.066949 
L 191.405423 147.551374 
L 210.713968 147.91441 
L 236.628067 148.162099 
L 277.277635 148.299432 
L 354.003693 148.340745 
L 354.003693 148.340745 
" style="fill:none;stroke:#000000;stroke-linecap:square;stroke-width:2.7;"/>
   </g>
   <g id="line2d_28">
    <path clip-path="url(#pefc35c5e6b)" d="M 49.640057 228.205364 
L 53.196894 212.640781 
L 56.753731 198.013123 
L 60.310568 184.375406 
L 63.359286 173.507966 
L 66.408003 163.424037 
L 69.456721 154.142239 
L 71.997319 147.030386 
L 74.537917 140.491027 
L 77.078515 134.527602 
L 79.619113 129.141354 
L 82.159711 124.331354 
L 84.192189 120.896262 
L 86.224668 117.825506 
L 88.257146 115.115702 
L 90.289624 112.762637 
L 92.322103 110.761291 
L 94.354581 109.105851 
L 96.387059 107.789741 
L 98.419538 106.805638 
L 99.943897 106.280631 
L 101.468255 105.93422 
L 102.992614 105.762546 
L 104.516973 105.76154 
L 106.549451 106.018282 
L 108.58193 106.560193 
L 110.614408 107.376062 
L 112.646886 108.454137 
L 114.679365 109.78216 
L 116.711843 111.347401 
L 119.252441 113.617441 
L 121.793039 116.210944 
L 124.333637 119.100457 
L 127.382355 122.918857 
L 130.939192 127.794389 
L 134.496029 133.045865 
L 139.069105 140.217838 
L 145.67466 151.078241 
L 156.345171 168.655529 
L 160.918248 175.759057 
L 164.983204 181.672543 
L 168.540042 186.454741 
L 171.588759 190.212515 
L 174.637477 193.616692 
L 177.178075 196.159086 
L 179.718673 198.414745 
L 182.259271 200.367401 
L 184.799869 202.002391 
L 186.832347 203.07287 
L 188.864825 203.925817 
L 190.897304 204.556077 
L 192.929782 204.95922 
L 194.96226 205.131556 
L 196.994739 205.070139 
L 199.027217 204.772781 
L 201.059696 204.238048 
L 203.092174 203.465273 
L 205.124652 202.454552 
L 207.157131 201.206743 
L 209.189609 199.723468 
L 211.222087 198.007107 
L 213.762685 195.53872 
L 216.303283 192.718834 
L 218.843881 189.556988 
L 221.384479 186.064475 
L 224.433197 181.455402 
L 227.481914 176.414592 
L 230.530632 170.970963 
L 234.087469 164.153888 
L 238.152426 155.817243 
L 242.725502 145.85294 
L 247.806698 134.221835 
L 255.428492 116.122038 
L 266.099004 90.788749 
L 271.180199 79.293386 
L 275.245156 70.586345 
L 278.801993 63.42847 
L 282.358831 56.784199 
L 285.407548 51.5566 
L 288.456266 46.810211 
L 290.996864 43.255086 
L 293.537462 40.090472 
L 295.56994 37.855993 
L 297.602418 35.898327 
L 299.634897 34.228543 
L 301.667375 32.857131 
L 303.699853 31.793966 
L 305.732332 31.048283 
L 307.256691 30.702544 
L 308.781049 30.543575 
L 310.305408 30.574502 
L 311.829767 30.798221 
L 313.354126 31.217386 
L 314.878485 31.834409 
L 316.402843 32.65145 
L 317.927202 33.670417 
L 319.95968 35.345954 
L 321.992159 37.386542 
L 324.024637 39.794507 
L 326.057116 42.571312 
L 328.089594 45.717543 
L 330.122072 49.2329 
L 332.66267 54.14427 
L 335.203268 59.626139 
L 337.743866 65.671964 
L 340.284464 72.272973 
L 342.825062 79.418168 
L 345.87378 88.691962 
L 348.922497 98.703209 
L 351.971215 109.420374 
L 354.003693 116.939747 
L 354.003693 116.939747 
" style="fill:none;stroke:#800080;stroke-linecap:square;stroke-width:2.7;"/>
   </g>
   <g id="patch_3">
    <path d="M 34.421875 238.089 
L 34.421875 20.649 
" style="fill:none;stroke:#808080;stroke-linecap:square;stroke-linejoin:miter;stroke-width:0.5;"/>
   </g>
   <g id="patch_4">
    <path d="M 34.421875 238.089 
L 369.221875 238.089 
" style="fill:none;stroke:#808080;stroke-linecap:square;stroke-linejoin:miter;stroke-width:0.5;"/>
   </g>
   <g id="text_16">
    <!-- Posterior -->
    <defs>
     <path d="M 27 70 
Q 41.59375 70 49.4375 64.453125 
Q 57.296875 58.90625 57.296875 47.90625 
Q 57.296875 41.90625 55.140625 37.65625 
Q 53 33.40625 48.953125 30.75 
Q 44.90625 28.09375 39.09375 26.890625 
Q 33.296875 25.703125 26 25.703125 
L 18.296875 25.703125 
L 18.296875 0 
L 8.59375 0 
L 8.59375 68.296875 
Q 12.703125 69.296875 17.75 69.640625 
Q 22.796875 70 27 70 
z
M 27.796875 61.5 
Q 21.59375 61.5 18.296875 61.203125 
L 18.296875 34 
L 25.59375 34 
Q 30.59375 34 34.59375 34.640625 
Q 38.59375 35.296875 41.34375 36.84375 
Q 44.09375 38.40625 45.59375 41.09375 
Q 47.09375 43.796875 47.09375 48 
Q 47.09375 52 45.546875 54.59375 
Q 44 57.203125 41.34375 58.75 
Q 38.703125 60.296875 35.203125 60.890625 
Q 31.703125 61.5 27.796875 61.5 
z
" id="Ubuntu-80"/>
     <path d="M 20.09375 6.703125 
Q 25.796875 6.703125 28.546875 8.203125 
Q 31.296875 9.703125 31.296875 13 
Q 31.296875 16.40625 28.59375 18.40625 
Q 25.90625 20.40625 19.703125 22.90625 
Q 16.703125 24.09375 13.953125 25.34375 
Q 11.203125 26.59375 9.203125 28.296875 
Q 7.203125 30 6 32.390625 
Q 4.796875 34.796875 4.796875 38.296875 
Q 4.796875 45.203125 9.890625 49.25 
Q 15 53.296875 23.796875 53.296875 
Q 26 53.296875 28.203125 53.046875 
Q 30.40625 52.796875 32.296875 52.4375 
Q 34.203125 52.09375 35.640625 51.6875 
Q 37.09375 51.296875 37.90625 51 
L 36.203125 43 
Q 34.703125 43.796875 31.5 44.640625 
Q 28.296875 45.5 23.796875 45.5 
Q 19.90625 45.5 17 43.953125 
Q 14.09375 42.40625 14.09375 39.09375 
Q 14.09375 37.40625 14.75 36.09375 
Q 15.40625 34.796875 16.75 33.75 
Q 18.09375 32.703125 20.09375 31.796875 
Q 22.09375 30.90625 24.90625 29.90625 
Q 28.59375 28.5 31.5 27.140625 
Q 34.40625 25.796875 36.453125 24 
Q 38.5 22.203125 39.59375 19.640625 
Q 40.703125 17.09375 40.703125 13.40625 
Q 40.703125 6.203125 35.34375 2.5 
Q 30 -1.203125 20.09375 -1.203125 
Q 13.203125 -1.203125 9.296875 -0.046875 
Q 5.40625 1.09375 4 1.703125 
L 5.703125 9.703125 
Q 7.296875 9.09375 10.796875 7.890625 
Q 14.296875 6.703125 20.09375 6.703125 
z
" id="Ubuntu-115"/>
     <path d="M 27.203125 53.09375 
Q 28.40625 53.09375 29.953125 52.9375 
Q 31.5 52.796875 33 52.546875 
Q 34.5 52.296875 35.75 52.046875 
Q 37 51.796875 37.59375 51.59375 
L 36 43.5 
Q 34.90625 43.90625 32.34375 44.453125 
Q 29.796875 45 25.796875 45 
Q 23.203125 45 20.640625 44.453125 
Q 18.09375 43.90625 17.296875 43.703125 
L 17.296875 0 
L 8 0 
L 8 49.796875 
Q 11.296875 51 16.1875 52.046875 
Q 21.09375 53.09375 27.203125 53.09375 
z
" id="Ubuntu-114"/>
     <path d="M 17.296875 0 
L 8 0 
L 8 52 
L 17.296875 52 
z
M 12.59375 61.40625 
Q 10.09375 61.40625 8.34375 63.046875 
Q 6.59375 64.703125 6.59375 67.5 
Q 6.59375 70.296875 8.34375 71.9375 
Q 10.09375 73.59375 12.59375 73.59375 
Q 15.09375 73.59375 16.84375 71.9375 
Q 18.59375 70.296875 18.59375 67.5 
Q 18.59375 64.703125 16.84375 63.046875 
Q 15.09375 61.40625 12.59375 61.40625 
z
" id="Ubuntu-105"/>
    </defs>
    <g transform="translate(181.568875 14.649)scale(0.096 -0.096)">
     <use xlink:href="#Ubuntu-80"/>
     <use x="60.768738" xlink:href="#Ubuntu-111"/>
     <use x="119.768723" xlink:href="#Ubuntu-115"/>
     <use x="164.368713" xlink:href="#Ubuntu-116"/>
     <use x="204.553085" xlink:href="#Ubuntu-101"/>
     <use x="260.453079" xlink:href="#Ubuntu-114"/>
     <use x="299.05307" xlink:href="#Ubuntu-105"/>
     <use x="324.353058" xlink:href="#Ubuntu-111"/>
     <use x="383.353043" xlink:href="#Ubuntu-114"/>
    </g>
   </g>
   <g id="legend_1">
    <g id="patch_5">
     <path d="M 389.613875 87.91775 
L 499.281063 87.91775 
Q 501.281063 87.91775 501.281063 85.91775 
L 501.281063 27.649 
Q 501.281063 25.649 499.281063 25.649 
L 389.613875 25.649 
Q 387.613875 25.649 387.613875 27.649 
L 387.613875 85.91775 
Q 387.613875 87.91775 389.613875 87.91775 
z
" style="fill:#ffffff;opacity:0.8;stroke:#cccccc;stroke-linejoin:miter;stroke-width:0.24;"/>
    </g>
    <g id="line2d_29">
     <path d="M 391.613875 34.049 
L 411.613875 34.049 
" style="fill:none;stroke:#000000;stroke-linecap:square;stroke-width:2.7;"/>
    </g>
    <g id="line2d_30"/>
    <g id="text_17">
     <!-- Predicted ($\mu$) -->
     <defs>
      <path d="M 17.09375 29.90625 
Q 17.09375 17.09375 20.796875 6.1875 
Q 24.5 -4.703125 31.703125 -14 
L 25.09375 -18.5 
Q 17.296875 -9 12.546875 3.34375 
Q 7.796875 15.703125 7.796875 29.90625 
Q 7.796875 44.09375 12.546875 56.4375 
Q 17.296875 68.796875 25.09375 78.296875 
L 31.703125 73.796875 
Q 24.5 64.5 20.796875 53.59375 
Q 17.09375 42.703125 17.09375 29.90625 
z
" id="Ubuntu-40"/>
      <path d="M -1.3125 -20.796875 
L 13.375 54.6875 
L 22.40625 54.6875 
L 15.765625 20.65625 
Q 15.578125 19.625 15.421875 18.359375 
Q 15.28125 17.09375 15.28125 15.828125 
Q 15.28125 11.28125 18.140625 8.828125 
Q 21 6.390625 26.3125 6.390625 
Q 33.546875 6.390625 37.984375 10.484375 
Q 42.4375 14.59375 44 22.796875 
L 50.203125 54.6875 
L 59.1875 54.6875 
L 51.03125 12.640625 
Q 50.828125 11.71875 50.75 11.03125 
Q 50.6875 10.359375 50.6875 9.8125 
Q 50.6875 8.296875 51.296875 7.59375 
Q 51.90625 6.890625 53.21875 6.890625 
Q 53.71875 6.890625 54.5625 7.125 
Q 55.421875 7.375 56.984375 8.015625 
L 55.609375 0.78125 
Q 53.46875 -0.296875 51.515625 -0.859375 
Q 49.5625 -1.421875 47.703125 -1.421875 
Q 44.484375 -1.421875 42.65625 0.625 
Q 40.828125 2.6875 40.828125 6.296875 
Q 38.09375 2.390625 34.296875 0.484375 
Q 30.515625 -1.421875 25.390625 -1.421875 
Q 20.84375 -1.421875 17.453125 0.671875 
Q 14.0625 2.78125 12.984375 6.203125 
L 7.71875 -20.796875 
z
" id="DejaVuSans-Oblique-956"/>
      <path d="M 15.296875 29.90625 
Q 15.296875 42.703125 11.59375 53.59375 
Q 7.90625 64.5 0.703125 73.796875 
L 7.296875 78.296875 
Q 15.09375 68.796875 19.84375 56.4375 
Q 24.59375 44.09375 24.59375 29.90625 
Q 24.59375 15.703125 19.84375 3.34375 
Q 15.09375 -9 7.296875 -18.5 
L 0.703125 -14 
Q 7.90625 -4.703125 11.59375 6.1875 
Q 15.296875 17.09375 15.296875 29.90625 
z
" id="Ubuntu-41"/>
     </defs>
     <g transform="translate(419.613875 37.549)scale(0.1 -0.1)">
      <use transform="translate(0 0.703125)" xlink:href="#Ubuntu-80"/>
      <use transform="translate(60.799988 0.703125)" xlink:href="#Ubuntu-114"/>
      <use transform="translate(99.399979 0.703125)" xlink:href="#Ubuntu-101"/>
      <use transform="translate(155.299973 0.703125)" xlink:href="#Ubuntu-100"/>
      <use transform="translate(214.199966 0.703125)" xlink:href="#Ubuntu-105"/>
      <use transform="translate(239.499954 0.703125)" xlink:href="#Ubuntu-99"/>
      <use transform="translate(285.999939 0.703125)" xlink:href="#Ubuntu-116"/>
      <use transform="translate(326.199936 0.703125)" xlink:href="#Ubuntu-101"/>
      <use transform="translate(382.09993 0.703125)" xlink:href="#Ubuntu-100"/>
      <use transform="translate(440.999924 0.703125)" xlink:href="#Ubuntu-32"/>
      <use transform="translate(464.099915 0.703125)" xlink:href="#Ubuntu-40"/>
      <use transform="translate(496.499908 0.703125)" xlink:href="#DejaVuSans-Oblique-956"/>
      <use transform="translate(560.122955 0.703125)" xlink:href="#Ubuntu-41"/>
     </g>
    </g>
    <g id="line2d_31">
     <path d="M 391.613875 49.049 
L 411.613875 49.049 
" style="fill:none;stroke:#800080;stroke-linecap:square;stroke-width:2.7;"/>
    </g>
    <g id="line2d_32"/>
    <g id="text_18">
     <!-- Ground Truth ($f$) -->
     <defs>
      <path d="M 49.40625 1.5 
Q 46.203125 0.703125 40.953125 -0.1875 
Q 35.703125 -1.09375 28.796875 -1.09375 
Q 22.796875 -1.09375 18.6875 0.65625 
Q 14.59375 2.40625 12.09375 5.59375 
Q 9.59375 8.796875 8.5 13.140625 
Q 7.40625 17.5 7.40625 22.796875 
L 7.40625 52 
L 16.703125 52 
L 16.703125 24.796875 
Q 16.703125 15.296875 19.703125 11.1875 
Q 22.703125 7.09375 29.796875 7.09375 
Q 31.296875 7.09375 32.890625 7.1875 
Q 34.5 7.296875 35.890625 7.4375 
Q 37.296875 7.59375 38.4375 7.75 
Q 39.59375 7.90625 40.09375 8.09375 
L 40.09375 52 
L 49.40625 52 
z
" id="Ubuntu-117"/>
      <path d="M 54.90625 69.296875 
L 54.90625 60.90625 
L 33.09375 60.90625 
L 33.09375 0 
L 23.40625 0 
L 23.40625 60.90625 
L 1.59375 60.90625 
L 1.59375 69.296875 
z
" id="Ubuntu-84"/>
      <path d="M 8 0 
L 8 76 
L 17.296875 77.59375 
L 17.296875 51 
Q 19.90625 52 22.84375 52.546875 
Q 25.796875 53.09375 28.703125 53.09375 
Q 34.90625 53.09375 39 51.34375 
Q 43.09375 49.59375 45.546875 46.4375 
Q 48 43.296875 49 38.890625 
Q 50 34.5 50 29.203125 
L 50 0 
L 40.703125 0 
L 40.703125 27.203125 
Q 40.703125 32 40.046875 35.390625 
Q 39.40625 38.796875 37.90625 40.890625 
Q 36.40625 43 33.90625 43.953125 
Q 31.40625 44.90625 27.703125 44.90625 
Q 26.203125 44.90625 24.59375 44.703125 
Q 23 44.5 21.546875 44.25 
Q 20.09375 44 18.9375 43.703125 
Q 17.796875 43.40625 17.296875 43.203125 
L 17.296875 0 
z
" id="Ubuntu-104"/>
      <path d="M 47.796875 75.984375 
L 46.390625 68.5 
L 37.796875 68.5 
Q 32.90625 68.5 30.6875 66.578125 
Q 28.46875 64.65625 27.390625 59.515625 
L 26.421875 54.6875 
L 41.21875 54.6875 
L 39.890625 47.703125 
L 25.09375 47.703125 
L 15.828125 0 
L 6.78125 0 
L 16.109375 47.703125 
L 7.515625 47.703125 
L 8.796875 54.6875 
L 17.390625 54.6875 
L 18.109375 58.5 
Q 19.96875 68.171875 24.625 72.078125 
Q 29.296875 75.984375 39.3125 75.984375 
z
" id="DejaVuSans-Oblique-102"/>
     </defs>
     <g transform="translate(419.613875 52.549)scale(0.1 -0.1)">
      <use transform="translate(0 0.703125)" xlink:href="#Ubuntu-71"/>
      <use transform="translate(67.199997 0.703125)" xlink:href="#Ubuntu-114"/>
      <use transform="translate(105.799988 0.703125)" xlink:href="#Ubuntu-111"/>
      <use transform="translate(164.799973 0.703125)" xlink:href="#Ubuntu-117"/>
      <use transform="translate(222.199966 0.703125)" xlink:href="#Ubuntu-110"/>
      <use transform="translate(279.59996 0.703125)" xlink:href="#Ubuntu-100"/>
      <use transform="translate(338.499954 0.703125)" xlink:href="#Ubuntu-32"/>
      <use transform="translate(361.599945 0.703125)" xlink:href="#Ubuntu-84"/>
      <use transform="translate(418.09993 0.703125)" xlink:href="#Ubuntu-114"/>
      <use transform="translate(456.699921 0.703125)" xlink:href="#Ubuntu-117"/>
      <use transform="translate(514.099915 0.703125)" xlink:href="#Ubuntu-116"/>
      <use transform="translate(554.299911 0.703125)" xlink:href="#Ubuntu-104"/>
      <use transform="translate(611.399902 0.703125)" xlink:href="#Ubuntu-32"/>
      <use transform="translate(634.499893 0.703125)" xlink:href="#Ubuntu-40"/>
      <use transform="translate(666.899887 0.703125)" xlink:href="#DejaVuSans-Oblique-102"/>
      <use transform="translate(702.104965 0.703125)" xlink:href="#Ubuntu-41"/>
     </g>
    </g>
    <g id="patch_6">
     <path d="M 391.613875 67.208375 
L 411.613875 67.208375 
L 411.613875 60.208375 
L 391.613875 60.208375 
z
" style="fill:#808080;opacity:0.4;stroke:#808080;stroke-linejoin:miter;stroke-width:0.24;"/>
    </g>
    <g id="text_19">
     <!-- $\mu \pm \sigma$ -->
     <defs>
      <path d="M 46 62.703125 
L 46 43.796875 
L 73.1875 43.796875 
L 73.1875 35.5 
L 46 35.5 
L 46 16.609375 
L 37.796875 16.609375 
L 37.796875 35.5 
L 10.59375 35.5 
L 10.59375 43.796875 
L 37.796875 43.796875 
L 37.796875 62.703125 
z
M 10.59375 8.296875 
L 73.1875 8.296875 
L 73.1875 0 
L 10.59375 0 
z
" id="DejaVuSans-177"/>
      <path d="M 34.671875 47.5625 
Q 27.25 47.5625 22.21875 42.1875 
Q 16.890625 36.578125 15.140625 27.296875 
Q 13.1875 17.484375 16.3125 11.8125 
Q 19.390625 6.203125 26.65625 6.203125 
Q 33.84375 6.203125 39.109375 11.859375 
Q 44.4375 17.53125 46.34375 27.296875 
Q 48.046875 36.234375 45.015625 42.1875 
Q 42.1875 47.5625 34.671875 47.5625 
z
M 36.078125 54.734375 
L 65.921875 54.6875 
L 64.15625 45.703125 
L 54.109375 45.703125 
Q 57.90625 38.09375 55.859375 27.296875 
Q 53.21875 13.875 45.0625 6.25 
Q 36.859375 -1.421875 25.140625 -1.421875 
Q 13.375 -1.421875 8.203125 6.25 
Q 3.03125 13.875 5.671875 27.296875 
Q 8.25 40.765625 16.40625 48.390625 
Q 23.1875 54.734375 36.078125 54.734375 
z
" id="DejaVuSans-Oblique-963"/>
     </defs>
     <g transform="translate(419.613875 67.208375)scale(0.1 -0.1)">
      <use transform="translate(0 0.296875)" xlink:href="#DejaVuSans-Oblique-956"/>
      <use transform="translate(83.105469 0.296875)" xlink:href="#DejaVuSans-177"/>
      <use transform="translate(186.376953 0.296875)" xlink:href="#DejaVuSans-Oblique-963"/>
     </g>
    </g>
    <g id="PathCollection_1">
     <defs>
      <path d="M 0 8.660254 
C 2.296726 8.660254 4.499694 7.747755 6.123724 6.123724 
C 7.747755 4.499694 8.660254 2.296726 8.660254 0 
C 8.660254 -2.296726 7.747755 -4.499694 6.123724 -6.123724 
C 4.499694 -7.747755 2.296726 -8.660254 0 -8.660254 
C -2.296726 -8.660254 -4.499694 -7.747755 -6.123724 -6.123724 
C -7.747755 -4.499694 -8.660254 -2.296726 -8.660254 0 
C -8.660254 2.296726 -7.747755 4.499694 -6.123724 6.123724 
C -4.499694 7.747755 -2.296726 8.660254 0 8.660254 
z
" id="mffb0d2d7e2" style="stroke:#ff0000;stroke-width:0.24;"/>
     </defs>
     <g>
      <use style="fill:#ff0000;stroke:#ff0000;stroke-width:0.24;" x="401.613875" xlink:href="#mffb0d2d7e2" y="79.44275"/>
     </g>
    </g>
    <g id="text_20">
     <!-- Last Added Point -->
     <defs>
      <path d="M 50.296875 8.40625 
L 50.296875 0 
L 8.59375 0 
L 8.59375 69.296875 
L 18.296875 69.296875 
L 18.296875 8.40625 
z
" id="Ubuntu-76"/>
      <path d="M 25.59375 6.703125 
Q 28.90625 6.703125 31.453125 6.84375 
Q 34 7 35.703125 7.40625 
L 35.703125 22.90625 
Q 34.703125 23.40625 32.453125 23.75 
Q 30.203125 24.09375 27 24.09375 
Q 24.90625 24.09375 22.546875 23.796875 
Q 20.203125 23.5 18.25 22.546875 
Q 16.296875 21.59375 15 19.9375 
Q 13.703125 18.296875 13.703125 15.59375 
Q 13.703125 10.59375 16.890625 8.640625 
Q 20.09375 6.703125 25.59375 6.703125 
z
M 24.796875 53.296875 
Q 30.40625 53.296875 34.25 51.84375 
Q 38.09375 50.40625 40.4375 47.75 
Q 42.796875 45.09375 43.796875 41.4375 
Q 44.796875 37.796875 44.796875 33.40625 
L 44.796875 0.90625 
Q 43.59375 0.703125 41.4375 0.34375 
Q 39.296875 0 36.59375 -0.296875 
Q 33.90625 -0.59375 30.75 -0.84375 
Q 27.59375 -1.09375 24.5 -1.09375 
Q 20.09375 -1.09375 16.390625 -0.1875 
Q 12.703125 0.703125 10 2.640625 
Q 7.296875 4.59375 5.796875 7.796875 
Q 4.296875 11 4.296875 15.5 
Q 4.296875 19.796875 6.046875 22.890625 
Q 7.796875 26 10.796875 27.890625 
Q 13.796875 29.796875 17.796875 30.6875 
Q 21.796875 31.59375 26.203125 31.59375 
Q 27.59375 31.59375 29.09375 31.4375 
Q 30.59375 31.296875 31.9375 31.046875 
Q 33.296875 30.796875 34.296875 30.59375 
Q 35.296875 30.40625 35.703125 30.296875 
L 35.703125 32.90625 
Q 35.703125 35.203125 35.203125 37.453125 
Q 34.703125 39.703125 33.390625 41.453125 
Q 32.09375 43.203125 29.84375 44.25 
Q 27.59375 45.296875 24 45.296875 
Q 19.40625 45.296875 15.953125 44.640625 
Q 12.5 44 10.796875 43.296875 
L 9.703125 51 
Q 11.5 51.796875 15.703125 52.546875 
Q 19.90625 53.296875 24.796875 53.296875 
z
" id="Ubuntu-97"/>
      <path d="M 54.90625 0 
Q 53.203125 4.5 51.703125 8.84375 
Q 50.203125 13.203125 48.59375 17.703125 
L 17.203125 17.703125 
L 10.90625 0 
L 0.796875 0 
Q 4.796875 11 8.296875 20.34375 
Q 11.796875 29.703125 15.140625 38.09375 
Q 18.5 46.5 21.796875 54.140625 
Q 25.09375 61.796875 28.703125 69.296875 
L 37.59375 69.296875 
Q 41.203125 61.796875 44.5 54.140625 
Q 47.796875 46.5 51.140625 38.09375 
Q 54.5 29.703125 58 20.34375 
Q 61.5 11 65.5 0 
z
M 45.796875 25.703125 
Q 42.59375 34.40625 39.4375 42.546875 
Q 36.296875 50.703125 32.90625 58.203125 
Q 29.40625 50.703125 26.25 42.546875 
Q 23.09375 34.40625 20 25.703125 
z
" id="Ubuntu-65"/>
     </defs>
     <g transform="translate(419.613875 82.06775)scale(0.1 -0.1)">
      <use xlink:href="#Ubuntu-76"/>
      <use x="51.899994" xlink:href="#Ubuntu-97"/>
      <use x="104.099991" xlink:href="#Ubuntu-115"/>
      <use x="148.699982" xlink:href="#Ubuntu-116"/>
      <use x="188.899979" xlink:href="#Ubuntu-32"/>
      <use x="211.999969" xlink:href="#Ubuntu-65"/>
      <use x="278.284332" xlink:href="#Ubuntu-100"/>
      <use x="337.184326" xlink:href="#Ubuntu-100"/>
      <use x="396.08432" xlink:href="#Ubuntu-101"/>
      <use x="451.984314" xlink:href="#Ubuntu-100"/>
      <use x="510.884308" xlink:href="#Ubuntu-32"/>
      <use x="533.984299" xlink:href="#Ubuntu-80"/>
      <use x="594.753036" xlink:href="#Ubuntu-111"/>
      <use x="653.753021" xlink:href="#Ubuntu-105"/>
      <use x="679.053009" xlink:href="#Ubuntu-110"/>
      <use x="736.453003" xlink:href="#Ubuntu-116"/>
     </g>
    </g>
   </g>
   <g id="PathCollection_2">
    <g clip-path="url(#pefc35c5e6b)">
     <use style="fill:#ff0000;stroke:#ff0000;stroke-width:0.24;" x="75.003693" xlink:href="#mffb0d2d7e2" y="139.354552"/>
    </g>
   </g>
  </g>
 </g>
 <defs>
  <clipPath id="pefc35c5e6b">
   <rect height="217.44" width="334.8" x="34.421875" y="20.649"/>
  </clipPath>
 </defs>
</svg>
