<?xml version="1.0" encoding="utf-8" standalone="no"?>
<!DOCTYPE svg PUBLIC "-//W3C//DTD SVG 1.1//EN"
  "http://www.w3.org/Graphics/SVG/1.1/DTD/svg11.dtd">
<!-- Created with matplotlib (https://matplotlib.org/) -->
<svg height="258.55875pt" version="1.1" viewBox="0 0 573.740788 258.55875" width="573.740788pt" xmlns="http://www.w3.org/2000/svg" xmlns:xlink="http://www.w3.org/1999/xlink">
 <defs>
  <style type="text/css">
*{stroke-linecap:butt;stroke-linejoin:round;white-space:pre;}
  </style>
 </defs>
 <g id="figure_1">
  <g id="patch_1">
   <path d="M 0 258.55875 
L 573.740788 258.55875 
L 573.740788 0 
L 0 0 
z
" style="fill:#f0f0f0;"/>
  </g>
  <g id="axes_1">
   <g id="patch_2">
    <path d="M 30.346875 224.64 
L 406.186875 224.64 
L 406.186875 7.2 
L 30.346875 7.2 
z
" style="fill:#f0f0f0;"/>
   </g>
   <g id="matplotlib.axis_1">
    <g id="xtick_1">
     <g id="line2d_1">
      <path clip-path="url(#p8843fe5985)" d="M 47.430511 224.64 
L 47.430511 7.2 
" style="fill:none;stroke:#cbcbcb;"/>
     </g>
     <g id="line2d_2"/>
     <g id="text_1">
      <!-- 0 -->
      <defs>
       <path d="M 5 34.703125 
Q 5 52.09375 11.140625 61.5 
Q 17.296875 70.90625 28.203125 70.90625 
Q 39.09375 70.90625 45.25 61.5 
Q 51.40625 52.09375 51.40625 34.703125 
Q 51.40625 17.296875 45.25 7.890625 
Q 39.09375 -1.5 28.203125 -1.5 
Q 17.296875 -1.5 11.140625 7.890625 
Q 5 17.296875 5 34.703125 
z
M 41.59375 34.703125 
Q 41.59375 40.40625 40.9375 45.5 
Q 40.296875 50.59375 38.75 54.390625 
Q 37.203125 58.203125 34.59375 60.453125 
Q 32 62.703125 28.203125 62.703125 
Q 24.40625 62.703125 21.796875 60.453125 
Q 19.203125 58.203125 17.640625 54.390625 
Q 16.09375 50.59375 15.4375 45.5 
Q 14.796875 40.40625 14.796875 34.703125 
Q 14.796875 29 15.4375 23.890625 
Q 16.09375 18.796875 17.640625 15 
Q 19.203125 11.203125 21.796875 8.953125 
Q 24.40625 6.703125 28.203125 6.703125 
Q 32 6.703125 34.59375 8.953125 
Q 37.203125 11.203125 38.75 15 
Q 40.296875 18.796875 40.9375 23.890625 
Q 41.59375 29 41.59375 34.703125 
z
" id="Ubuntu-48"/>
      </defs>
      <g transform="translate(44.89223 235.123437)scale(0.09 -0.09)">
       <use xlink:href="#Ubuntu-48"/>
      </g>
     </g>
    </g>
    <g id="xtick_2">
     <g id="line2d_3">
      <path clip-path="url(#p8843fe5985)" d="M 104.375966 224.64 
L 104.375966 7.2 
" style="fill:none;stroke:#cbcbcb;"/>
     </g>
     <g id="line2d_4"/>
     <g id="text_2">
      <!-- 1 -->
      <defs>
       <path d="M 9.296875 55 
Q 15 57.203125 20.390625 60.640625 
Q 25.796875 64.09375 30.296875 69.296875 
L 36.90625 69.296875 
L 36.90625 0 
L 27.59375 0 
L 27.59375 56.40625 
Q 26.40625 55.296875 24.65625 54.09375 
Q 22.90625 52.90625 20.84375 51.796875 
Q 18.796875 50.703125 16.546875 49.703125 
Q 14.296875 48.703125 12.203125 48 
z
" id="Ubuntu-49"/>
      </defs>
      <g transform="translate(101.837685 235.123437)scale(0.09 -0.09)">
       <use xlink:href="#Ubuntu-49"/>
      </g>
     </g>
    </g>
    <g id="xtick_3">
     <g id="line2d_5">
      <path clip-path="url(#p8843fe5985)" d="M 161.32142 224.64 
L 161.32142 7.2 
" style="fill:none;stroke:#cbcbcb;"/>
     </g>
     <g id="line2d_6"/>
     <g id="text_3">
      <!-- 2 -->
      <defs>
       <path d="M 46.703125 51.59375 
Q 46.703125 48 45.25 44.640625 
Q 43.796875 41.296875 41.390625 38.046875 
Q 39 34.796875 36 31.640625 
Q 33 28.5 30 25.5 
Q 28.296875 23.796875 26.046875 21.5 
Q 23.796875 19.203125 21.796875 16.703125 
Q 19.796875 14.203125 18.4375 11.890625 
Q 17.09375 9.59375 17.09375 7.90625 
L 49 7.90625 
L 49 0 
L 7 0 
Q 6.90625 0.59375 6.90625 1.1875 
Q 6.90625 1.796875 6.90625 2.296875 
Q 6.90625 7 8.453125 11.046875 
Q 10 15.09375 12.5 18.6875 
Q 15 22.296875 18.09375 25.5 
Q 21.203125 28.703125 24.203125 31.703125 
Q 26.703125 34.09375 28.953125 36.4375 
Q 31.203125 38.796875 32.953125 41.140625 
Q 34.703125 43.5 35.75 46 
Q 36.796875 48.5 36.796875 51.296875 
Q 36.796875 54.296875 35.84375 56.390625 
Q 34.90625 58.5 33.296875 59.890625 
Q 31.703125 61.296875 29.546875 61.9375 
Q 27.40625 62.59375 25 62.59375 
Q 22.09375 62.59375 19.6875 61.796875 
Q 17.296875 61 15.390625 59.953125 
Q 13.5 58.90625 12.203125 57.75 
Q 10.90625 56.59375 10.203125 56 
L 5.59375 62.59375 
Q 6.5 63.59375 8.296875 65.046875 
Q 10.09375 66.5 12.59375 67.796875 
Q 15.09375 69.09375 18.1875 70 
Q 21.296875 70.90625 24.90625 70.90625 
Q 35.796875 70.90625 41.25 65.84375 
Q 46.703125 60.796875 46.703125 51.59375 
z
" id="Ubuntu-50"/>
      </defs>
      <g transform="translate(158.783139 235.123437)scale(0.09 -0.09)">
       <use xlink:href="#Ubuntu-50"/>
      </g>
     </g>
    </g>
    <g id="xtick_4">
     <g id="line2d_7">
      <path clip-path="url(#p8843fe5985)" d="M 218.266875 224.64 
L 218.266875 7.2 
" style="fill:none;stroke:#cbcbcb;"/>
     </g>
     <g id="line2d_8"/>
     <g id="text_4">
      <!-- 3 -->
      <defs>
       <path d="M 22.59375 6.796875 
Q 31.5 6.796875 35.34375 10.296875 
Q 39.203125 13.796875 39.203125 19.703125 
Q 39.203125 23.5 37.59375 26.09375 
Q 36 28.703125 33.390625 30.25 
Q 30.796875 31.796875 27.34375 32.4375 
Q 23.90625 33.09375 20.296875 33.09375 
L 17.90625 33.09375 
L 17.90625 40.703125 
L 21.203125 40.703125 
Q 23.703125 40.703125 26.34375 41.203125 
Q 29 41.703125 31.203125 43 
Q 33.40625 44.296875 34.796875 46.546875 
Q 36.203125 48.796875 36.203125 52.203125 
Q 36.203125 55 35.203125 57 
Q 34.203125 59 32.546875 60.296875 
Q 30.90625 61.59375 28.75 62.140625 
Q 26.59375 62.703125 24.203125 62.703125 
Q 19.40625 62.703125 16.046875 61.296875 
Q 12.703125 59.90625 10.40625 58.40625 
L 6.796875 65.5 
Q 8 66.296875 9.84375 67.25 
Q 11.703125 68.203125 14 69 
Q 16.296875 69.796875 18.9375 70.34375 
Q 21.59375 70.90625 24.5 70.90625 
Q 30 70.90625 34 69.546875 
Q 38 68.203125 40.59375 65.75 
Q 43.203125 63.296875 44.5 59.9375 
Q 45.796875 56.59375 45.796875 52.703125 
Q 45.796875 47.296875 42.6875 43.4375 
Q 39.59375 39.59375 35.203125 37.59375 
Q 37.90625 36.796875 40.40625 35.296875 
Q 42.90625 33.796875 44.75 31.5 
Q 46.59375 29.203125 47.75 26.203125 
Q 48.90625 23.203125 48.90625 19.5 
Q 48.90625 15 47.34375 11.140625 
Q 45.796875 7.296875 42.546875 4.5 
Q 39.296875 1.703125 34.390625 0.09375 
Q 29.5 -1.5 22.796875 -1.5 
Q 20.203125 -1.5 17.453125 -1.09375 
Q 14.703125 -0.703125 12.296875 -0.09375 
Q 9.90625 0.5 8.09375 1.09375 
Q 6.296875 1.703125 5.5 2.09375 
L 7.296875 10.203125 
Q 9 9.40625 12.953125 8.09375 
Q 16.90625 6.796875 22.59375 6.796875 
z
" id="Ubuntu-51"/>
      </defs>
      <g transform="translate(215.728594 235.123437)scale(0.09 -0.09)">
       <use xlink:href="#Ubuntu-51"/>
      </g>
     </g>
    </g>
    <g id="xtick_5">
     <g id="line2d_9">
      <path clip-path="url(#p8843fe5985)" d="M 275.21233 224.64 
L 275.21233 7.2 
" style="fill:none;stroke:#cbcbcb;"/>
     </g>
     <g id="line2d_10"/>
     <g id="text_5">
      <!-- 4 -->
      <defs>
       <path d="M 4 24 
Q 5.90625 28.40625 9.203125 34.25 
Q 12.5 40.09375 16.640625 46.296875 
Q 20.796875 52.5 25.546875 58.5 
Q 30.296875 64.5 35.09375 69.296875 
L 44 69.296875 
L 44 25.296875 
L 52.203125 25.296875 
L 52.203125 17.703125 
L 44 17.703125 
L 44 0 
L 35 0 
L 35 17.703125 
L 4 17.703125 
z
M 35 58.296875 
Q 32 55.09375 28.953125 51.140625 
Q 25.90625 47.203125 23 42.890625 
Q 20.09375 38.59375 17.546875 34.09375 
Q 15 29.59375 13 25.296875 
L 35 25.296875 
z
" id="Ubuntu-52"/>
      </defs>
      <g transform="translate(272.674048 235.123437)scale(0.09 -0.09)">
       <use xlink:href="#Ubuntu-52"/>
      </g>
     </g>
    </g>
    <g id="xtick_6">
     <g id="line2d_11">
      <path clip-path="url(#p8843fe5985)" d="M 332.157784 224.64 
L 332.157784 7.2 
" style="fill:none;stroke:#cbcbcb;"/>
     </g>
     <g id="line2d_12"/>
     <g id="text_6">
      <!-- 5 -->
      <defs>
       <path d="M 19.90625 42.59375 
Q 35 42 42.046875 36 
Q 49.09375 30 49.09375 19.703125 
Q 49.09375 15.09375 47.546875 11.1875 
Q 46 7.296875 42.84375 4.5 
Q 39.703125 1.703125 34.890625 0.09375 
Q 30.09375 -1.5 23.5 -1.5 
Q 20.90625 -1.5 18.203125 -1.09375 
Q 15.5 -0.703125 13.203125 -0.09375 
Q 10.90625 0.5 9.09375 1.09375 
Q 7.296875 1.703125 6.5 2.09375 
L 8.296875 10.203125 
Q 10 9.40625 13.84375 8.09375 
Q 17.703125 6.796875 23.296875 6.796875 
Q 27.796875 6.796875 30.84375 7.796875 
Q 33.90625 8.796875 35.796875 10.5 
Q 37.703125 12.203125 38.546875 14.453125 
Q 39.40625 16.703125 39.40625 19.203125 
Q 39.40625 23 38.09375 25.953125 
Q 36.796875 28.90625 33.5 30.90625 
Q 30.203125 32.90625 24.703125 33.953125 
Q 19.203125 35 10.796875 35 
Q 11.40625 39.90625 11.75 44.203125 
Q 12.09375 48.5 12.390625 52.59375 
Q 12.703125 56.703125 12.890625 60.75 
Q 13.09375 64.796875 13.296875 69.296875 
L 46.703125 69.296875 
L 46.703125 61.40625 
L 21.40625 61.40625 
Q 21.296875 59.90625 21.09375 57.34375 
Q 20.90625 54.796875 20.703125 52.046875 
Q 20.5 49.296875 20.296875 46.6875 
Q 20.09375 44.09375 19.90625 42.59375 
z
" id="Ubuntu-53"/>
      </defs>
      <g transform="translate(329.619503 235.123437)scale(0.09 -0.09)">
       <use xlink:href="#Ubuntu-53"/>
      </g>
     </g>
    </g>
    <g id="xtick_7">
     <g id="line2d_13">
      <path clip-path="url(#p8843fe5985)" d="M 389.103239 224.64 
L 389.103239 7.2 
" style="fill:none;stroke:#cbcbcb;"/>
     </g>
     <g id="line2d_14"/>
     <g id="text_7">
      <!-- 6 -->
      <defs>
       <path d="M 6.296875 27.796875 
Q 6.296875 37.90625 9.09375 45.65625 
Q 11.90625 53.40625 17.046875 58.703125 
Q 22.203125 64 29.546875 66.75 
Q 36.90625 69.5 46.09375 69.59375 
L 46.796875 61.796875 
Q 40.90625 61.703125 36.046875 60.5 
Q 31.203125 59.296875 27.390625 56.6875 
Q 23.59375 54.09375 21 49.9375 
Q 18.40625 45.796875 17.09375 39.703125 
Q 19.703125 40.90625 22.953125 41.703125 
Q 26.203125 42.5 29.703125 42.5 
Q 35.59375 42.5 39.6875 40.703125 
Q 43.796875 38.90625 46.390625 35.953125 
Q 49 33 50.140625 29.140625 
Q 51.296875 25.296875 51.296875 21.09375 
Q 51.296875 17.296875 50 13.296875 
Q 48.703125 9.296875 46.046875 6 
Q 43.40625 2.703125 39.296875 0.59375 
Q 35.203125 -1.5 29.59375 -1.5 
Q 18.203125 -1.5 12.25 6.296875 
Q 6.296875 14.09375 6.296875 27.796875 
z
M 28.703125 34.90625 
Q 25.203125 34.90625 22.203125 34.25 
Q 19.203125 33.59375 16.203125 32.296875 
Q 16.09375 31.203125 16.046875 30.046875 
Q 16 28.90625 16 27.796875 
Q 16 23.40625 16.59375 19.5 
Q 17.203125 15.59375 18.75 12.640625 
Q 20.296875 9.703125 22.890625 7.953125 
Q 25.5 6.203125 29.5 6.203125 
Q 32.796875 6.203125 35.09375 7.59375 
Q 37.40625 9 38.90625 11.203125 
Q 40.40625 13.40625 41.046875 15.953125 
Q 41.703125 18.5 41.703125 20.90625 
Q 41.703125 27.703125 38.453125 31.296875 
Q 35.203125 34.90625 28.703125 34.90625 
z
" id="Ubuntu-54"/>
      </defs>
      <g transform="translate(386.564957 235.123437)scale(0.09 -0.09)">
       <use xlink:href="#Ubuntu-54"/>
      </g>
     </g>
    </g>
    <g id="text_8">
     <!-- X -->
     <defs>
      <path d="M 50.203125 0 
Q 48.703125 3 46.59375 6.640625 
Q 44.5 10.296875 42 14.25 
Q 39.5 18.203125 36.796875 22.140625 
Q 34.09375 26.09375 31.59375 29.59375 
Q 29.09375 26.09375 26.390625 22.140625 
Q 23.703125 18.203125 21.25 14.25 
Q 18.796875 10.296875 16.640625 6.640625 
Q 14.5 3 13 0 
L 2.296875 0 
Q 6.796875 8.796875 12.75 17.890625 
Q 18.703125 27 25.40625 36.59375 
L 3.203125 69.296875 
L 14.40625 69.296875 
L 31.5 43.5 
L 48.40625 69.296875 
L 59.5 69.296875 
L 37.703125 37 
Q 44.5 27.296875 50.5 18.09375 
Q 56.5 8.90625 61.09375 0 
z
" id="Ubuntu-88"/>
     </defs>
     <g transform="translate(214.796719 249.32375)scale(0.11 -0.11)">
      <use xlink:href="#Ubuntu-88"/>
     </g>
    </g>
   </g>
   <g id="matplotlib.axis_2">
    <g id="ytick_1">
     <g id="line2d_15">
      <path clip-path="url(#p8843fe5985)" d="M 30.346875 193.292373 
L 406.186875 193.292373 
" style="fill:none;stroke:#cbcbcb;"/>
     </g>
     <g id="line2d_16"/>
     <g id="text_9">
      <!-- 0 -->
      <g transform="translate(21.770313 196.784091)scale(0.09 -0.09)">
       <use xlink:href="#Ubuntu-48"/>
      </g>
     </g>
    </g>
    <g id="ytick_2">
     <g id="line2d_17">
      <path clip-path="url(#p8843fe5985)" d="M 30.346875 150.190965 
L 406.186875 150.190965 
" style="fill:none;stroke:#cbcbcb;"/>
     </g>
     <g id="line2d_18"/>
     <g id="text_10">
      <!-- 2 -->
      <g transform="translate(21.770313 153.682684)scale(0.09 -0.09)">
       <use xlink:href="#Ubuntu-50"/>
      </g>
     </g>
    </g>
    <g id="ytick_3">
     <g id="line2d_19">
      <path clip-path="url(#p8843fe5985)" d="M 30.346875 107.089557 
L 406.186875 107.089557 
" style="fill:none;stroke:#cbcbcb;"/>
     </g>
     <g id="line2d_20"/>
     <g id="text_11">
      <!-- 4 -->
      <g transform="translate(21.770313 110.581276)scale(0.09 -0.09)">
       <use xlink:href="#Ubuntu-52"/>
      </g>
     </g>
    </g>
    <g id="ytick_4">
     <g id="line2d_21">
      <path clip-path="url(#p8843fe5985)" d="M 30.346875 63.988149 
L 406.186875 63.988149 
" style="fill:none;stroke:#cbcbcb;"/>
     </g>
     <g id="line2d_22"/>
     <g id="text_12">
      <!-- 6 -->
      <g transform="translate(21.770313 67.479868)scale(0.09 -0.09)">
       <use xlink:href="#Ubuntu-54"/>
      </g>
     </g>
    </g>
    <g id="ytick_5">
     <g id="line2d_23">
      <path clip-path="url(#p8843fe5985)" d="M 30.346875 20.886741 
L 406.186875 20.886741 
" style="fill:none;stroke:#cbcbcb;"/>
     </g>
     <g id="line2d_24"/>
     <g id="text_13">
      <!-- 8 -->
      <defs>
       <path d="M 50.90625 18 
Q 50.90625 13.796875 49.453125 10.25 
Q 48 6.703125 45.140625 4.046875 
Q 42.296875 1.40625 38 -0.046875 
Q 33.703125 -1.5 28.09375 -1.5 
Q 21.59375 -1.5 17.25 0.34375 
Q 12.90625 2.203125 10.296875 5 
Q 7.703125 7.796875 6.59375 11.140625 
Q 5.5 14.5 5.5 17.5 
Q 5.5 20.40625 6.453125 23.046875 
Q 7.40625 25.703125 8.953125 28 
Q 10.5 30.296875 12.546875 32.140625 
Q 14.59375 34 16.90625 35.40625 
Q 7.09375 41 7.09375 51.90625 
Q 7.09375 55.703125 8.59375 59.140625 
Q 10.09375 62.59375 12.84375 65.1875 
Q 15.59375 67.796875 19.5 69.34375 
Q 23.40625 70.90625 28.203125 70.90625 
Q 33.796875 70.90625 37.796875 69.203125 
Q 41.796875 67.5 44.34375 64.84375 
Q 46.90625 62.203125 48.046875 59 
Q 49.203125 55.796875 49.203125 52.796875 
Q 49.203125 49.90625 48.34375 47.34375 
Q 47.5 44.796875 46.046875 42.59375 
Q 44.59375 40.40625 42.75 38.703125 
Q 40.90625 37 38.90625 35.703125 
Q 50.703125 30.09375 50.90625 18 
z
M 14.90625 17.40625 
Q 14.90625 15.59375 15.546875 13.640625 
Q 16.203125 11.703125 17.796875 10.046875 
Q 19.40625 8.40625 21.90625 7.296875 
Q 24.40625 6.203125 28.203125 6.203125 
Q 31.59375 6.203125 34.140625 7.203125 
Q 36.703125 8.203125 38.296875 9.75 
Q 39.90625 11.296875 40.703125 13.296875 
Q 41.5 15.296875 41.5 17.40625 
Q 41.5 20.59375 40.296875 23 
Q 39.09375 25.40625 36.84375 27.203125 
Q 34.59375 29 31.4375 30.25 
Q 28.296875 31.5 24.296875 32.40625 
Q 19.796875 29.90625 17.34375 26.203125 
Q 14.90625 22.5 14.90625 17.40625 
z
M 39.90625 52.90625 
Q 39.90625 54.40625 39.25 56.203125 
Q 38.59375 58 37.1875 59.546875 
Q 35.796875 61.09375 33.59375 62.140625 
Q 31.40625 63.203125 28.203125 63.203125 
Q 25 63.203125 22.75 62.203125 
Q 20.5 61.203125 19.09375 59.640625 
Q 17.703125 58.09375 17.046875 56.25 
Q 16.40625 54.40625 16.40625 52.59375 
Q 16.40625 50.40625 17.203125 48.203125 
Q 18 46 19.703125 44.09375 
Q 21.40625 42.203125 24.15625 40.703125 
Q 26.90625 39.203125 30.703125 38.296875 
Q 34.90625 40.796875 37.40625 44.140625 
Q 39.90625 47.5 39.90625 52.90625 
z
" id="Ubuntu-56"/>
      </defs>
      <g transform="translate(21.770313 24.37846)scale(0.09 -0.09)">
       <use xlink:href="#Ubuntu-56"/>
      </g>
     </g>
    </g>
    <g id="text_14">
     <!-- Gold content -->
     <defs>
      <path d="M 50.90625 34.09375 
L 60.59375 34.09375 
L 60.59375 1.703125 
Q 59.40625 1.296875 57.15625 0.796875 
Q 54.90625 0.296875 51.953125 -0.203125 
Q 49 -0.703125 45.5 -1.046875 
Q 42 -1.40625 38.40625 -1.40625 
Q 31.09375 -1.40625 25.09375 1 
Q 19.09375 3.40625 14.796875 8 
Q 10.5 12.59375 8.140625 19.296875 
Q 5.796875 26 5.796875 34.703125 
Q 5.796875 43.40625 8.4375 50.15625 
Q 11.09375 56.90625 15.59375 61.5 
Q 20.09375 66.09375 26.140625 68.5 
Q 32.203125 70.90625 39.09375 70.90625 
Q 43.796875 70.90625 47.4375 70.296875 
Q 51.09375 69.703125 53.6875 68.890625 
Q 56.296875 68.09375 57.9375 67.296875 
Q 59.59375 66.5 60.203125 66.09375 
L 57.09375 58 
Q 54.203125 59.90625 49.390625 61.15625 
Q 44.59375 62.40625 39.59375 62.40625 
Q 34.296875 62.40625 29.9375 60.5 
Q 25.59375 58.59375 22.546875 55 
Q 19.5 51.40625 17.796875 46.25 
Q 16.09375 41.09375 16.09375 34.703125 
Q 16.09375 28.5 17.546875 23.390625 
Q 19 18.296875 21.953125 14.640625 
Q 24.90625 11 29.25 9 
Q 33.59375 7 39.5 7 
Q 43.703125 7 46.640625 7.453125 
Q 49.59375 7.90625 50.90625 8.296875 
z
" id="Ubuntu-71"/>
      <path d="M 53.90625 26 
Q 53.90625 19.796875 52.09375 14.796875 
Q 50.296875 9.796875 47.046875 6.1875 
Q 43.796875 2.59375 39.296875 0.640625 
Q 34.796875 -1.296875 29.5 -1.296875 
Q 24.203125 -1.296875 19.703125 0.640625 
Q 15.203125 2.59375 11.953125 6.1875 
Q 8.703125 9.796875 6.890625 14.796875 
Q 5.09375 19.796875 5.09375 26 
Q 5.09375 32.09375 6.890625 37.140625 
Q 8.703125 42.203125 11.953125 45.796875 
Q 15.203125 49.40625 19.703125 51.34375 
Q 24.203125 53.296875 29.5 53.296875 
Q 34.796875 53.296875 39.296875 51.34375 
Q 43.796875 49.40625 47.046875 45.796875 
Q 50.296875 42.203125 52.09375 37.140625 
Q 53.90625 32.09375 53.90625 26 
z
M 44.203125 26 
Q 44.203125 34.796875 40.25 39.9375 
Q 36.296875 45.09375 29.5 45.09375 
Q 22.703125 45.09375 18.75 39.9375 
Q 14.796875 34.796875 14.796875 26 
Q 14.796875 17.203125 18.75 12.046875 
Q 22.703125 6.90625 29.5 6.90625 
Q 36.296875 6.90625 40.25 12.046875 
Q 44.203125 17.203125 44.203125 26 
z
" id="Ubuntu-111"/>
      <path d="M 23.59375 -1 
Q 15 -0.796875 11.390625 2.703125 
Q 7.796875 6.203125 7.796875 13.59375 
L 7.796875 76 
L 17.09375 77.59375 
L 17.09375 15.09375 
Q 17.09375 12.796875 17.5 11.296875 
Q 17.90625 9.796875 18.796875 8.890625 
Q 19.703125 8 21.203125 7.546875 
Q 22.703125 7.09375 24.90625 6.796875 
z
" id="Ubuntu-108"/>
      <path d="M 41.59375 41 
Q 39.90625 42.40625 36.703125 43.703125 
Q 33.5 45 29.703125 45 
Q 25.703125 45 22.84375 43.546875 
Q 20 42.09375 18.203125 39.546875 
Q 16.40625 37 15.59375 33.5 
Q 14.796875 30 14.796875 26 
Q 14.796875 16.90625 19.296875 11.953125 
Q 23.796875 7 31.296875 7 
Q 35.09375 7 37.640625 7.34375 
Q 40.203125 7.703125 41.59375 8.09375 
z
M 41.59375 76 
L 50.90625 77.59375 
L 50.90625 1.5 
Q 47.703125 0.59375 42.703125 -0.296875 
Q 37.703125 -1.203125 31.203125 -1.203125 
Q 25.203125 -1.203125 20.390625 0.6875 
Q 15.59375 2.59375 12.1875 6.09375 
Q 8.796875 9.59375 6.9375 14.640625 
Q 5.09375 19.703125 5.09375 26 
Q 5.09375 32 6.640625 37 
Q 8.203125 42 11.203125 45.59375 
Q 14.203125 49.203125 18.546875 51.203125 
Q 22.90625 53.203125 28.5 53.203125 
Q 33 53.203125 36.453125 52 
Q 39.90625 50.796875 41.59375 49.703125 
z
" id="Ubuntu-100"/>
      <path id="Ubuntu-32"/>
      <path d="M 30.59375 -1.203125 
Q 24.296875 -1.203125 19.546875 0.796875 
Q 14.796875 2.796875 11.546875 6.390625 
Q 8.296875 10 6.6875 14.953125 
Q 5.09375 19.90625 5.09375 25.90625 
Q 5.09375 31.90625 6.84375 36.90625 
Q 8.59375 41.90625 11.796875 45.546875 
Q 15 49.203125 19.640625 51.25 
Q 24.296875 53.296875 30 53.296875 
Q 33.5 53.296875 37 52.6875 
Q 40.5 52.09375 43.703125 50.796875 
L 41.59375 42.90625 
Q 39.5 43.90625 36.75 44.5 
Q 34 45.09375 30.90625 45.09375 
Q 23.09375 45.09375 18.9375 40.1875 
Q 14.796875 35.296875 14.796875 25.90625 
Q 14.796875 21.703125 15.75 18.203125 
Q 16.703125 14.703125 18.75 12.203125 
Q 20.796875 9.703125 24 8.34375 
Q 27.203125 7 31.796875 7 
Q 35.5 7 38.5 7.703125 
Q 41.5 8.40625 43.203125 9.203125 
L 44.5 1.40625 
Q 43.703125 0.90625 42.203125 0.453125 
Q 40.703125 0 38.796875 -0.34375 
Q 36.90625 -0.703125 34.75 -0.953125 
Q 32.59375 -1.203125 30.59375 -1.203125 
z
" id="Ubuntu-99"/>
      <path d="M 8 50.5 
Q 11.203125 51.296875 16.5 52.1875 
Q 21.796875 53.09375 28.703125 53.09375 
Q 34.90625 53.09375 39 51.34375 
Q 43.09375 49.59375 45.546875 46.4375 
Q 48 43.296875 49 38.890625 
Q 50 34.5 50 29.203125 
L 50 0 
L 40.703125 0 
L 40.703125 27.203125 
Q 40.703125 32 40.046875 35.390625 
Q 39.40625 38.796875 37.90625 40.890625 
Q 36.40625 43 33.90625 43.953125 
Q 31.40625 44.90625 27.703125 44.90625 
Q 26.203125 44.90625 24.59375 44.796875 
Q 23 44.703125 21.546875 44.546875 
Q 20.09375 44.40625 18.9375 44.203125 
Q 17.796875 44 17.296875 43.90625 
L 17.296875 0 
L 8 0 
z
" id="Ubuntu-110"/>
      <path d="M 16.703125 52 
L 36.40625 52 
L 36.40625 44.203125 
L 16.703125 44.203125 
L 16.703125 20.203125 
Q 16.703125 16.296875 17.296875 13.75 
Q 17.90625 11.203125 19.09375 9.75 
Q 20.296875 8.296875 22.09375 7.6875 
Q 23.90625 7.09375 26.296875 7.09375 
Q 30.5 7.09375 33.046875 8.046875 
Q 35.59375 9 36.59375 9.40625 
L 38.40625 1.703125 
Q 37 1 33.5 -0.046875 
Q 30 -1.09375 25.5 -1.09375 
Q 20.203125 -1.09375 16.75 0.25 
Q 13.296875 1.59375 11.1875 4.296875 
Q 9.09375 7 8.25 10.953125 
Q 7.40625 14.90625 7.40625 20.09375 
L 7.40625 66.5 
L 16.703125 68.09375 
z
" id="Ubuntu-116"/>
      <path d="M 5.09375 25.90625 
Q 5.09375 32.796875 7.09375 37.9375 
Q 9.09375 43.09375 12.390625 46.5 
Q 15.703125 49.90625 20 51.59375 
Q 24.296875 53.296875 28.796875 53.296875 
Q 39.296875 53.296875 44.890625 46.75 
Q 50.5 40.203125 50.5 26.796875 
Q 50.5 26.203125 50.5 25.25 
Q 50.5 24.296875 50.40625 23.5 
L 14.796875 23.5 
Q 15.40625 15.40625 19.5 11.203125 
Q 23.59375 7 32.296875 7 
Q 37.203125 7 40.546875 7.84375 
Q 43.90625 8.703125 45.59375 9.5 
L 46.90625 1.703125 
Q 45.203125 0.796875 40.953125 -0.203125 
Q 36.703125 -1.203125 31.296875 -1.203125 
Q 24.5 -1.203125 19.546875 0.84375 
Q 14.59375 2.90625 11.390625 6.5 
Q 8.203125 10.09375 6.640625 15.046875 
Q 5.09375 20 5.09375 25.90625 
z
M 40.796875 31 
Q 40.90625 37.296875 37.65625 41.34375 
Q 34.40625 45.40625 28.703125 45.40625 
Q 25.5 45.40625 23.046875 44.15625 
Q 20.59375 42.90625 18.890625 40.90625 
Q 17.203125 38.90625 16.25 36.296875 
Q 15.296875 33.703125 15 31 
z
" id="Ubuntu-101"/>
     </defs>
     <g transform="translate(15.735313 148.485156)rotate(-90)scale(0.11 -0.11)">
      <use xlink:href="#Ubuntu-71"/>
      <use x="67.199997" xlink:href="#Ubuntu-111"/>
      <use x="126.199982" xlink:href="#Ubuntu-108"/>
      <use x="153.499969" xlink:href="#Ubuntu-100"/>
      <use x="212.399963" xlink:href="#Ubuntu-32"/>
      <use x="235.499954" xlink:href="#Ubuntu-99"/>
      <use x="281.984314" xlink:href="#Ubuntu-111"/>
      <use x="340.984299" xlink:href="#Ubuntu-110"/>
      <use x="398.384293" xlink:href="#Ubuntu-116"/>
      <use x="438.568665" xlink:href="#Ubuntu-101"/>
      <use x="494.468658" xlink:href="#Ubuntu-110"/>
      <use x="551.868652" xlink:href="#Ubuntu-116"/>
     </g>
    </g>
   </g>
   <g id="PolyCollection_1">
    <defs>
     <path d="M 47.430511 -140.58665 
L 47.430511 -167.293925 
L 48.000917 -167.832809 
L 48.571322 -168.366292 
L 49.141727 -168.894035 
L 49.712132 -169.41569 
L 50.282537 -169.930898 
L 50.852943 -170.439292 
L 51.423348 -170.940491 
L 51.993753 -171.434108 
L 52.564158 -171.919741 
L 53.134564 -172.396979 
L 53.704969 -172.8654 
L 54.275374 -173.324568 
L 54.845779 -173.774039 
L 55.416184 -174.213354 
L 55.98659 -174.642043 
L 56.556995 -175.059621 
L 57.1274 -175.465594 
L 57.697805 -175.859451 
L 58.268211 -176.240671 
L 58.838616 -176.608716 
L 59.409021 -176.963035 
L 59.979426 -177.303065 
L 60.549831 -177.628226 
L 61.120237 -177.937922 
L 61.690642 -178.231544 
L 62.261047 -178.508468 
L 62.831452 -178.76805 
L 63.401858 -179.009635 
L 63.972263 -179.232547 
L 64.542668 -179.436096 
L 65.113073 -179.619574 
L 65.683478 -179.782254 
L 66.253884 -179.923393 
L 66.824289 -180.042228 
L 67.394694 -180.137979 
L 67.965099 -180.209846 
L 68.535505 -180.25701 
L 69.10591 -180.27863 
L 69.676315 -180.27385 
L 70.24672 -180.241787 
L 70.817125 -180.181543 
L 71.387531 -180.092194 
L 71.957936 -179.972797 
L 72.528341 -179.822386 
L 73.098746 -179.639973 
L 73.669152 -179.424546 
L 74.239557 -179.17507 
L 74.809962 -178.890489 
L 75.380367 -178.569718 
L 75.950772 -178.273967 
L 76.521178 -178.625739 
L 77.091583 -178.940402 
L 77.661988 -179.219059 
L 78.232393 -179.462786 
L 78.802799 -179.67264 
L 79.373204 -179.84965 
L 79.943609 -179.994824 
L 80.514014 -180.109146 
L 81.084419 -180.193579 
L 81.654825 -180.249064 
L 82.22523 -180.276517 
L 82.795635 -180.276837 
L 83.36604 -180.2509 
L 83.936445 -180.199561 
L 84.506851 -180.123657 
L 85.077256 -180.024004 
L 85.647661 -179.901398 
L 86.218066 -179.756616 
L 86.788472 -179.590419 
L 87.358877 -179.403546 
L 87.929282 -179.196721 
L 88.499687 -178.970649 
L 89.070092 -178.726018 
L 89.640498 -178.4635 
L 90.210903 -178.18375 
L 90.781308 -177.887405 
L 91.351713 -177.57509 
L 91.922119 -177.24741 
L 92.492524 -176.904959 
L 93.062929 -176.548313 
L 93.633334 -176.178034 
L 94.203739 -175.794672 
L 94.774145 -175.398759 
L 95.34455 -174.990817 
L 95.914955 -174.571353 
L 96.48536 -174.14086 
L 97.055766 -173.69982 
L 97.626171 -173.248702 
L 98.196576 -172.78796 
L 98.766981 -172.31804 
L 99.337386 -171.839374 
L 99.907792 -171.352382 
L 100.478197 -170.857474 
L 101.048602 -170.355049 
L 101.619007 -169.845493 
L 102.189413 -169.329185 
L 102.759818 -168.806491 
L 103.330223 -168.277767 
L 103.900628 -167.743361 
L 104.471033 -167.203609 
L 105.041439 -166.658839 
L 105.611844 -166.109369 
L 106.182249 -165.555509 
L 106.752654 -164.997559 
L 107.32306 -164.435812 
L 107.893465 -163.87055 
L 108.46387 -163.302049 
L 109.034275 -162.730576 
L 109.60468 -162.15639 
L 110.175086 -161.579744 
L 110.745491 -161.000881 
L 111.315896 -160.420038 
L 111.886301 -159.837444 
L 112.456707 -159.253323 
L 113.027112 -158.66789 
L 113.597517 -158.081354 
L 114.167922 -157.493918 
L 114.738327 -156.905778 
L 115.308733 -156.317125 
L 115.879138 -155.728141 
L 116.449543 -155.139006 
L 117.019948 -154.549891 
L 117.590354 -153.960963 
L 118.160759 -153.372383 
L 118.731164 -152.784308 
L 119.301569 -152.196887 
L 119.871974 -151.610266 
L 120.44238 -151.024585 
L 121.012785 -150.439981 
L 121.58319 -149.856583 
L 122.153595 -149.274519 
L 122.724001 -148.693909 
L 123.294406 -148.114871 
L 123.864811 -147.537518 
L 124.435216 -146.961959 
L 125.005621 -146.388298 
L 125.576027 -145.816637 
L 126.146432 -145.247072 
L 126.716837 -144.679697 
L 127.287242 -144.1146 
L 127.857647 -143.551868 
L 128.428053 -142.991583 
L 128.998458 -142.433825 
L 129.568863 -141.878668 
L 130.139268 -141.326185 
L 130.709674 -140.776445 
L 131.280079 -140.229516 
L 131.850484 -139.685459 
L 132.420889 -139.144335 
L 132.991294 -138.606203 
L 133.5617 -138.071116 
L 134.132105 -137.539127 
L 134.70251 -137.010286 
L 135.272915 -136.484639 
L 135.843321 -135.962231 
L 136.413726 -135.443104 
L 136.984131 -134.927298 
L 137.554536 -134.414851 
L 138.124941 -133.905798 
L 138.695347 -133.400173 
L 139.265752 -132.898005 
L 139.836157 -132.399326 
L 140.406562 -131.904161 
L 140.976968 -131.412537 
L 141.547373 -130.924476 
L 142.117778 -130.44 
L 142.688183 -129.95913 
L 143.258588 -129.481884 
L 143.828994 -129.008278 
L 144.399399 -128.538327 
L 144.969804 -128.072045 
L 145.540209 -127.609443 
L 146.110615 -127.150533 
L 146.68102 -126.695324 
L 147.251425 -126.243822 
L 147.82183 -125.796036 
L 148.392235 -125.351969 
L 148.962641 -124.911626 
L 149.533046 -124.47501 
L 150.103451 -124.042122 
L 150.673856 -123.612963 
L 151.244262 -123.187531 
L 151.814667 -122.765827 
L 152.385072 -122.347846 
L 152.955477 -121.933585 
L 153.525882 -121.52304 
L 154.096288 -121.116205 
L 154.666693 -120.713074 
L 155.237098 -120.313639 
L 155.807503 -119.917893 
L 156.377909 -119.525826 
L 156.948314 -119.137429 
L 157.518719 -118.752691 
L 158.089124 -118.371602 
L 158.659529 -117.99415 
L 159.229935 -117.620323 
L 159.80034 -117.250106 
L 160.370745 -116.883488 
L 160.94115 -116.520453 
L 161.511556 -116.160986 
L 162.081961 -115.805074 
L 162.652366 -115.452698 
L 163.222771 -115.103844 
L 163.793176 -114.758495 
L 164.363582 -114.416633 
L 164.933987 -114.07824 
L 165.504392 -113.743299 
L 166.074797 -113.411791 
L 166.645203 -113.083697 
L 167.215608 -112.758998 
L 167.786013 -112.437675 
L 168.356418 -112.119707 
L 168.926823 -111.805074 
L 169.497229 -111.493756 
L 170.067634 -111.185733 
L 170.638039 -110.880982 
L 171.208444 -110.579484 
L 171.77885 -110.281215 
L 172.349255 -109.986156 
L 172.91966 -109.694283 
L 173.490065 -109.405575 
L 174.06047 -109.120009 
L 174.630876 -108.837563 
L 175.201281 -108.558214 
L 175.771686 -108.28194 
L 176.342091 -108.008717 
L 176.912496 -107.738524 
L 177.482902 -107.471336 
L 178.053307 -107.20713 
L 178.623712 -106.945883 
L 179.194117 -106.687572 
L 179.764523 -106.432174 
L 180.334928 -106.179664 
L 180.905333 -105.930019 
L 181.475738 -105.683216 
L 182.046143 -105.439231 
L 182.616549 -105.19804 
L 183.186954 -104.95962 
L 183.757359 -104.723947 
L 184.327764 -104.490997 
L 184.89817 -104.260746 
L 185.468575 -104.033171 
L 186.03898 -103.808249 
L 186.609385 -103.585955 
L 187.17979 -103.366266 
L 187.750196 -103.149158 
L 188.320601 -102.934607 
L 188.891006 -102.722591 
L 189.461411 -102.513086 
L 190.031817 -102.306068 
L 190.602222 -102.101514 
L 191.172627 -101.899401 
L 191.743032 -101.699705 
L 192.313437 -101.502404 
L 192.883843 -101.307474 
L 193.454248 -101.114892 
L 194.024653 -100.924636 
L 194.595058 -100.736683 
L 195.165464 -100.551009 
L 195.735869 -100.367593 
L 196.306274 -100.186411 
L 196.876679 -100.007442 
L 197.447084 -99.830664 
L 198.01749 -99.656053 
L 198.587895 -99.483588 
L 199.1583 -99.313247 
L 199.728705 -99.145008 
L 200.299111 -98.97885 
L 200.869516 -98.81475 
L 201.439921 -98.652688 
L 202.010326 -98.492641 
L 202.580731 -98.33459 
L 203.151137 -98.178512 
L 203.721542 -98.024386 
L 204.291947 -97.872193 
L 204.862352 -97.721911 
L 205.432758 -97.57352 
L 206.003163 -97.426998 
L 206.573568 -97.282327 
L 207.143973 -97.139486 
L 207.714378 -96.998454 
L 208.284784 -96.859213 
L 208.855189 -96.721742 
L 209.425594 -96.586022 
L 209.995999 -96.452033 
L 210.566405 -96.319756 
L 211.13681 -96.189173 
L 211.707215 -96.060263 
L 212.27762 -95.933009 
L 212.848025 -95.807391 
L 213.418431 -95.683392 
L 213.988836 -95.560992 
L 214.559241 -95.440173 
L 215.129646 -95.320918 
L 215.700052 -95.203209 
L 216.270457 -95.087027 
L 216.840862 -94.972356 
L 217.411267 -94.859177 
L 217.981672 -94.747474 
L 218.552078 -94.637229 
L 219.122483 -94.528425 
L 219.692888 -94.421046 
L 220.263293 -94.315074 
L 220.833698 -94.210493 
L 221.404104 -94.107288 
L 221.974509 -94.00544 
L 222.544914 -93.904935 
L 223.115319 -93.805757 
L 223.685725 -93.707889 
L 224.25613 -93.611317 
L 224.826535 -93.516023 
L 225.39694 -93.421994 
L 225.967345 -93.329214 
L 226.537751 -93.237668 
L 227.108156 -93.147341 
L 227.678561 -93.058218 
L 228.248966 -92.970284 
L 228.819372 -92.883526 
L 229.389777 -92.797929 
L 229.960182 -92.713478 
L 230.530587 -92.630159 
L 231.100992 -92.54796 
L 231.671398 -92.466865 
L 232.241803 -92.386862 
L 232.812208 -92.307936 
L 233.382613 -92.230075 
L 233.953019 -92.153265 
L 234.523424 -92.077493 
L 235.093829 -92.002747 
L 235.664234 -91.929013 
L 236.234639 -91.856279 
L 236.805045 -91.784532 
L 237.37545 -91.71376 
L 237.945855 -91.643951 
L 238.51626 -91.575093 
L 239.086666 -91.507173 
L 239.657071 -91.440179 
L 240.227476 -91.374101 
L 240.797881 -91.308926 
L 241.368286 -91.244643 
L 241.938692 -91.18124 
L 242.509097 -91.118707 
L 243.079502 -91.057032 
L 243.649907 -90.996204 
L 244.220313 -90.936213 
L 244.790718 -90.877047 
L 245.361123 -90.818696 
L 245.931528 -90.76115 
L 246.501933 -90.704398 
L 247.072339 -90.64843 
L 247.642744 -90.593235 
L 248.213149 -90.538805 
L 248.783554 -90.485128 
L 249.35396 -90.432195 
L 249.924365 -90.379997 
L 250.49477 -90.328523 
L 251.065175 -90.277765 
L 251.63558 -90.227713 
L 252.205986 -90.178357 
L 252.776391 -90.129689 
L 253.346796 -90.0817 
L 253.917201 -90.034381 
L 254.487607 -89.987722 
L 255.058012 -89.941716 
L 255.628417 -89.896353 
L 256.198822 -89.851625 
L 256.769227 -89.807524 
L 257.339633 -89.764041 
L 257.910038 -89.721169 
L 258.480443 -89.678898 
L 259.050848 -89.637222 
L 259.621254 -89.596131 
L 260.191659 -89.555619 
L 260.762064 -89.515678 
L 261.332469 -89.4763 
L 261.902874 -89.437477 
L 262.47328 -89.399202 
L 263.043685 -89.361468 
L 263.61409 -89.324267 
L 264.184495 -89.287593 
L 264.7549 -89.251438 
L 265.325306 -89.215795 
L 265.895711 -89.180657 
L 266.466116 -89.146018 
L 267.036521 -89.11187 
L 267.606927 -89.078208 
L 268.177332 -89.045024 
L 268.747737 -89.012312 
L 269.318142 -88.980066 
L 269.888547 -88.948279 
L 270.458953 -88.916945 
L 271.029358 -88.886058 
L 271.599763 -88.855611 
L 272.170168 -88.8256 
L 272.740574 -88.796017 
L 273.310979 -88.766857 
L 273.881384 -88.738115 
L 274.451789 -88.709784 
L 275.022194 -88.681859 
L 275.5926 -88.654334 
L 276.163005 -88.627204 
L 276.73341 -88.600463 
L 277.303815 -88.574107 
L 277.874221 -88.548129 
L 278.444626 -88.522524 
L 279.015031 -88.497288 
L 279.585436 -88.472415 
L 280.155841 -88.4479 
L 280.726247 -88.423739 
L 281.296652 -88.399926 
L 281.867057 -88.376456 
L 282.437462 -88.353325 
L 283.007868 -88.330529 
L 283.578273 -88.308062 
L 284.148678 -88.285919 
L 284.719083 -88.264097 
L 285.289488 -88.242591 
L 285.859894 -88.221397 
L 286.430299 -88.200509 
L 287.000704 -88.179924 
L 287.571109 -88.159638 
L 288.141515 -88.139647 
L 288.71192 -88.119945 
L 289.282325 -88.10053 
L 289.85273 -88.081397 
L 290.423135 -88.062543 
L 290.993541 -88.043963 
L 291.563946 -88.025653 
L 292.134351 -88.00761 
L 292.704756 -87.98983 
L 293.275162 -87.972309 
L 293.845567 -87.955044 
L 294.415972 -87.938031 
L 294.986377 -87.921266 
L 295.556782 -87.904746 
L 296.127188 -87.888468 
L 296.697593 -87.872428 
L 297.267998 -87.856622 
L 297.838403 -87.841048 
L 298.408809 -87.825702 
L 298.979214 -87.81058 
L 299.549619 -87.795681 
L 300.120024 -87.781 
L 300.690429 -87.766534 
L 301.260835 -87.75228 
L 301.83124 -87.738236 
L 302.401645 -87.724399 
L 302.97205 -87.710764 
L 303.542456 -87.69733 
L 304.112861 -87.684094 
L 304.683266 -87.671053 
L 305.253671 -87.658203 
L 305.824076 -87.645543 
L 306.394482 -87.63307 
L 306.964887 -87.62078 
L 307.535292 -87.608672 
L 308.105697 -87.596742 
L 308.676103 -87.584989 
L 309.246508 -87.573409 
L 309.816913 -87.562 
L 310.387318 -87.55076 
L 310.957723 -87.539686 
L 311.528129 -87.528776 
L 312.098534 -87.518027 
L 312.668939 -87.507437 
L 313.239344 -87.497005 
L 313.809749 -87.486726 
L 314.380155 -87.476601 
L 314.95056 -87.466625 
L 315.520965 -87.456797 
L 316.09137 -87.447116 
L 316.661776 -87.437578 
L 317.232181 -87.428181 
L 317.802586 -87.418925 
L 318.372991 -87.409805 
L 318.943396 -87.400822 
L 319.513802 -87.391972 
L 320.084207 -87.383254 
L 320.654612 -87.374665 
L 321.225017 -87.366205 
L 321.795423 -87.35787 
L 322.365828 -87.34966 
L 322.936233 -87.341572 
L 323.506638 -87.333605 
L 324.077043 -87.325757 
L 324.647449 -87.318026 
L 325.217854 -87.31041 
L 325.788259 -87.302908 
L 326.358664 -87.295518 
L 326.92907 -87.288238 
L 327.499475 -87.281068 
L 328.06988 -87.274004 
L 328.640285 -87.267047 
L 329.21069 -87.260193 
L 329.781096 -87.253442 
L 330.351501 -87.246792 
L 330.921906 -87.240242 
L 331.492311 -87.23379 
L 332.062717 -87.227435 
L 332.633122 -87.221175 
L 333.203527 -87.215009 
L 333.773932 -87.208935 
L 334.344337 -87.202953 
L 334.914743 -87.19706 
L 335.485148 -87.191256 
L 336.055553 -87.18554 
L 336.625958 -87.179909 
L 337.196364 -87.174363 
L 337.766769 -87.1689 
L 338.337174 -87.16352 
L 338.907579 -87.15822 
L 339.477984 -87.153 
L 340.04839 -87.147859 
L 340.618795 -87.142796 
L 341.1892 -87.137808 
L 341.759605 -87.132896 
L 342.330011 -87.128058 
L 342.900416 -87.123293 
L 343.470821 -87.1186 
L 344.041226 -87.113978 
L 344.611631 -87.109425 
L 345.182037 -87.104942 
L 345.752442 -87.100526 
L 346.322847 -87.096176 
L 346.893252 -87.091893 
L 347.463658 -87.087674 
L 348.034063 -87.083519 
L 348.604468 -87.079427 
L 349.174873 -87.075397 
L 349.745278 -87.071428 
L 350.315684 -87.067519 
L 350.886089 -87.063669 
L 351.456494 -87.059878 
L 352.026899 -87.056144 
L 352.597305 -87.052466 
L 353.16771 -87.048845 
L 353.738115 -87.045278 
L 354.30852 -87.041765 
L 354.878925 -87.038306 
L 355.449331 -87.034899 
L 356.019736 -87.031544 
L 356.590141 -87.02824 
L 357.160546 -87.024987 
L 357.730951 -87.021782 
L 358.301357 -87.018627 
L 358.871762 -87.015519 
L 359.442167 -87.012459 
L 360.012572 -87.009445 
L 360.582978 -87.006477 
L 361.153383 -87.003554 
L 361.723788 -87.000676 
L 362.294193 -86.997841 
L 362.864598 -86.99505 
L 363.435004 -86.992301 
L 364.005409 -86.989595 
L 364.575814 -86.986929 
L 365.146219 -86.984304 
L 365.716625 -86.981719 
L 366.28703 -86.979174 
L 366.857435 -86.976668 
L 367.42784 -86.974199 
L 367.998245 -86.971769 
L 368.568651 -86.969375 
L 369.139056 -86.967018 
L 369.709461 -86.964698 
L 370.279866 -86.962412 
L 370.850272 -86.960162 
L 371.420677 -86.957946 
L 371.991082 -86.955764 
L 372.561487 -86.953615 
L 373.131892 -86.951499 
L 373.702298 -86.949416 
L 374.272703 -86.947364 
L 374.843108 -86.945344 
L 375.413513 -86.943355 
L 375.983919 -86.941396 
L 376.554324 -86.939467 
L 377.124729 -86.937568 
L 377.695134 -86.935698 
L 378.265539 -86.933857 
L 378.835945 -86.932044 
L 379.40635 -86.930259 
L 379.976755 -86.928501 
L 380.54716 -86.92677 
L 381.117566 -86.925066 
L 381.687971 -86.923388 
L 382.258376 -86.921735 
L 382.828781 -86.920108 
L 383.399186 -86.918506 
L 383.969592 -86.916929 
L 384.539997 -86.915376 
L 385.110402 -86.913847 
L 385.680807 -86.912341 
L 386.251213 -86.910859 
L 386.821618 -86.909399 
L 387.392023 -86.907962 
L 387.962428 -86.906547 
L 388.532833 -86.905153 
L 389.103239 -86.903782 
L 389.103239 -43.802386 
L 389.103239 -43.802386 
L 388.532833 -43.803759 
L 387.962428 -43.805152 
L 387.392023 -43.806568 
L 386.821618 -43.808005 
L 386.251213 -43.809466 
L 385.680807 -43.810949 
L 385.110402 -43.812455 
L 384.539997 -43.813984 
L 383.969592 -43.815538 
L 383.399186 -43.817116 
L 382.828781 -43.818718 
L 382.258376 -43.820346 
L 381.687971 -43.821999 
L 381.117566 -43.823677 
L 380.54716 -43.825382 
L 379.976755 -43.827114 
L 379.40635 -43.828872 
L 378.835945 -43.830658 
L 378.265539 -43.832472 
L 377.695134 -43.834314 
L 377.124729 -43.836185 
L 376.554324 -43.838085 
L 375.983919 -43.840014 
L 375.413513 -43.841974 
L 374.843108 -43.843964 
L 374.272703 -43.845985 
L 373.702298 -43.848037 
L 373.131892 -43.850122 
L 372.561487 -43.852238 
L 371.991082 -43.854388 
L 371.420677 -43.856571 
L 370.850272 -43.858788 
L 370.279866 -43.86104 
L 369.709461 -43.863326 
L 369.139056 -43.865648 
L 368.568651 -43.868007 
L 367.998245 -43.870401 
L 367.42784 -43.872833 
L 366.857435 -43.875303 
L 366.28703 -43.877811 
L 365.716625 -43.880357 
L 365.146219 -43.882944 
L 364.575814 -43.88557 
L 364.005409 -43.888237 
L 363.435004 -43.890945 
L 362.864598 -43.893696 
L 362.294193 -43.896489 
L 361.723788 -43.899325 
L 361.153383 -43.902205 
L 360.582978 -43.905129 
L 360.012572 -43.908099 
L 359.442167 -43.911115 
L 358.871762 -43.914178 
L 358.301357 -43.917287 
L 357.730951 -43.920445 
L 357.160546 -43.923652 
L 356.590141 -43.926908 
L 356.019736 -43.930214 
L 355.449331 -43.933572 
L 354.878925 -43.936981 
L 354.30852 -43.940443 
L 353.738115 -43.943958 
L 353.16771 -43.947527 
L 352.597305 -43.951152 
L 352.026899 -43.954832 
L 351.456494 -43.958569 
L 350.886089 -43.962364 
L 350.315684 -43.966217 
L 349.745278 -43.970129 
L 349.174873 -43.974102 
L 348.604468 -43.978135 
L 348.034063 -43.982231 
L 347.463658 -43.98639 
L 346.893252 -43.990612 
L 346.322847 -43.9949 
L 345.752442 -43.999253 
L 345.182037 -44.003674 
L 344.611631 -44.008162 
L 344.041226 -44.012719 
L 343.470821 -44.017346 
L 342.900416 -44.022044 
L 342.330011 -44.026814 
L 341.759605 -44.031657 
L 341.1892 -44.036574 
L 340.618795 -44.041567 
L 340.04839 -44.046636 
L 339.477984 -44.051783 
L 338.907579 -44.057009 
L 338.337174 -44.062314 
L 337.766769 -44.067701 
L 337.196364 -44.073171 
L 336.625958 -44.078723 
L 336.055553 -44.084361 
L 335.485148 -44.090085 
L 334.914743 -44.095896 
L 334.344337 -44.101796 
L 333.773932 -44.107787 
L 333.203527 -44.113868 
L 332.633122 -44.120043 
L 332.062717 -44.126311 
L 331.492311 -44.132675 
L 330.921906 -44.139137 
L 330.351501 -44.145696 
L 329.781096 -44.152356 
L 329.21069 -44.159117 
L 328.640285 -44.165981 
L 328.06988 -44.172949 
L 327.499475 -44.180023 
L 326.92907 -44.187205 
L 326.358664 -44.194497 
L 325.788259 -44.201899 
L 325.217854 -44.209413 
L 324.647449 -44.217042 
L 324.077043 -44.224786 
L 323.506638 -44.232648 
L 322.936233 -44.240629 
L 322.365828 -44.248732 
L 321.795423 -44.256957 
L 321.225017 -44.265307 
L 320.654612 -44.273783 
L 320.084207 -44.282388 
L 319.513802 -44.291123 
L 318.943396 -44.29999 
L 318.372991 -44.308991 
L 317.802586 -44.318129 
L 317.232181 -44.327405 
L 316.661776 -44.336821 
L 316.09137 -44.346379 
L 315.520965 -44.356081 
L 314.95056 -44.36593 
L 314.380155 -44.375928 
L 313.809749 -44.386077 
L 313.239344 -44.396378 
L 312.668939 -44.406835 
L 312.098534 -44.417449 
L 311.528129 -44.428224 
L 310.957723 -44.439161 
L 310.387318 -44.450262 
L 309.816913 -44.46153 
L 309.246508 -44.472968 
L 308.676103 -44.484578 
L 308.105697 -44.496362 
L 307.535292 -44.508323 
L 306.964887 -44.520464 
L 306.394482 -44.532788 
L 305.824076 -44.545296 
L 305.253671 -44.557992 
L 304.683266 -44.570878 
L 304.112861 -44.583957 
L 303.542456 -44.597233 
L 302.97205 -44.610707 
L 302.401645 -44.624383 
L 301.83124 -44.638263 
L 301.260835 -44.652352 
L 300.690429 -44.66665 
L 300.120024 -44.681163 
L 299.549619 -44.695893 
L 298.979214 -44.710842 
L 298.408809 -44.726014 
L 297.838403 -44.741413 
L 297.267998 -44.757042 
L 296.697593 -44.772904 
L 296.127188 -44.789002 
L 295.556782 -44.80534 
L 294.986377 -44.821921 
L 294.415972 -44.838749 
L 293.845567 -44.855827 
L 293.275162 -44.873159 
L 292.704756 -44.890749 
L 292.134351 -44.9086 
L 291.563946 -44.926716 
L 290.993541 -44.945102 
L 290.423135 -44.96376 
L 289.85273 -44.982694 
L 289.282325 -45.00191 
L 288.71192 -45.02141 
L 288.141515 -45.041199 
L 287.571109 -45.061281 
L 287.000704 -45.08166 
L 286.430299 -45.10234 
L 285.859894 -45.123326 
L 285.289488 -45.144623 
L 284.719083 -45.166234 
L 284.148678 -45.188163 
L 283.578273 -45.210417 
L 283.007868 -45.232998 
L 282.437462 -45.255913 
L 281.867057 -45.279165 
L 281.296652 -45.30276 
L 280.726247 -45.326701 
L 280.155841 -45.350995 
L 279.585436 -45.375647 
L 279.015031 -45.40066 
L 278.444626 -45.426041 
L 277.874221 -45.451795 
L 277.303815 -45.477927 
L 276.73341 -45.504442 
L 276.163005 -45.531346 
L 275.5926 -45.558644 
L 275.022194 -45.586341 
L 274.451789 -45.614444 
L 273.881384 -45.642959 
L 273.310979 -45.67189 
L 272.740574 -45.701244 
L 272.170168 -45.731027 
L 271.599763 -45.761245 
L 271.029358 -45.791903 
L 270.458953 -45.823009 
L 269.888547 -45.854568 
L 269.318142 -45.886587 
L 268.747737 -45.919072 
L 268.177332 -45.952029 
L 267.606927 -45.985466 
L 267.036521 -46.019389 
L 266.466116 -46.053805 
L 265.895711 -46.08872 
L 265.325306 -46.124142 
L 264.7549 -46.160078 
L 264.184495 -46.196535 
L 263.61409 -46.233519 
L 263.043685 -46.271039 
L 262.47328 -46.309102 
L 261.902874 -46.347716 
L 261.332469 -46.386887 
L 260.762064 -46.426624 
L 260.191659 -46.466935 
L 259.621254 -46.507827 
L 259.050848 -46.549309 
L 258.480443 -46.591388 
L 257.910038 -46.634073 
L 257.339633 -46.677373 
L 256.769227 -46.721295 
L 256.198822 -46.765848 
L 255.628417 -46.811041 
L 255.058012 -46.856883 
L 254.487607 -46.903383 
L 253.917201 -46.950549 
L 253.346796 -46.998391 
L 252.776391 -47.046918 
L 252.205986 -47.096139 
L 251.63558 -47.146064 
L 251.065175 -47.196702 
L 250.49477 -47.248063 
L 249.924365 -47.300158 
L 249.35396 -47.352995 
L 248.783554 -47.406585 
L 248.213149 -47.460938 
L 247.642744 -47.516065 
L 247.072339 -47.571975 
L 246.501933 -47.628681 
L 245.931528 -47.686191 
L 245.361123 -47.744518 
L 244.790718 -47.803672 
L 244.220313 -47.863664 
L 243.649907 -47.924505 
L 243.079502 -47.986207 
L 242.509097 -48.048782 
L 241.938692 -48.112242 
L 241.368286 -48.176597 
L 240.797881 -48.24186 
L 240.227476 -48.308043 
L 239.657071 -48.375158 
L 239.086666 -48.443219 
L 238.51626 -48.512236 
L 237.945855 -48.582224 
L 237.37545 -48.653195 
L 236.805045 -48.725161 
L 236.234639 -48.798137 
L 235.664234 -48.872135 
L 235.093829 -48.94717 
L 234.523424 -49.023253 
L 233.953019 -49.100401 
L 233.382613 -49.178626 
L 232.812208 -49.257942 
L 232.241803 -49.338364 
L 231.671398 -49.419907 
L 231.100992 -49.502585 
L 230.530587 -49.586413 
L 229.960182 -49.671406 
L 229.389777 -49.757578 
L 228.819372 -49.844947 
L 228.248966 -49.933526 
L 227.678561 -50.023332 
L 227.108156 -50.11438 
L 226.537751 -50.206687 
L 225.967345 -50.300269 
L 225.39694 -50.395142 
L 224.826535 -50.491324 
L 224.25613 -50.58883 
L 223.685725 -50.687678 
L 223.115319 -50.787885 
L 222.544914 -50.889468 
L 221.974509 -50.992445 
L 221.404104 -51.096834 
L 220.833698 -51.202653 
L 220.263293 -51.30992 
L 219.692888 -51.418653 
L 219.122483 -51.528871 
L 218.552078 -51.640592 
L 217.981672 -51.753836 
L 217.411267 -51.868622 
L 216.840862 -51.98497 
L 216.270457 -52.102898 
L 215.700052 -52.222427 
L 215.129646 -52.343577 
L 214.559241 -52.466367 
L 213.988836 -52.590819 
L 213.418431 -52.716954 
L 212.848025 -52.844791 
L 212.27762 -52.974353 
L 211.707215 -53.10566 
L 211.13681 -53.238734 
L 210.566405 -53.373596 
L 209.995999 -53.51027 
L 209.425594 -53.648777 
L 208.855189 -53.789139 
L 208.284784 -53.93138 
L 207.714378 -54.075522 
L 207.143973 -54.221588 
L 206.573568 -54.369601 
L 206.003163 -54.519586 
L 205.432758 -54.671566 
L 204.862352 -54.825565 
L 204.291947 -54.981608 
L 203.721542 -55.139719 
L 203.151137 -55.299922 
L 202.580731 -55.462243 
L 202.010326 -55.626707 
L 201.439921 -55.79334 
L 200.869516 -55.962167 
L 200.299111 -56.133215 
L 199.728705 -56.306509 
L 199.1583 -56.482075 
L 198.587895 -56.659941 
L 198.01749 -56.840134 
L 197.447084 -57.022681 
L 196.876679 -57.207608 
L 196.306274 -57.394944 
L 195.735869 -57.584717 
L 195.165464 -57.776955 
L 194.595058 -57.971685 
L 194.024653 -58.168938 
L 193.454248 -58.368741 
L 192.883843 -58.571123 
L 192.313437 -58.776115 
L 191.743032 -58.983745 
L 191.172627 -59.194044 
L 190.602222 -59.407041 
L 190.031817 -59.622767 
L 189.461411 -59.841252 
L 188.891006 -60.062527 
L 188.320601 -60.286623 
L 187.750196 -60.513572 
L 187.17979 -60.743404 
L 186.609385 -60.976151 
L 186.03898 -61.211846 
L 185.468575 -61.45052 
L 184.89817 -61.692206 
L 184.327764 -61.936937 
L 183.757359 -62.184744 
L 183.186954 -62.435661 
L 182.616549 -62.689722 
L 182.046143 -62.94696 
L 181.475738 -63.207409 
L 180.905333 -63.471101 
L 180.334928 -63.738072 
L 179.764523 -64.008356 
L 179.194117 -64.281986 
L 178.623712 -64.558999 
L 178.053307 -64.839428 
L 177.482902 -65.123308 
L 176.912496 -65.410676 
L 176.342091 -65.701565 
L 175.771686 -65.996012 
L 175.201281 -66.294053 
L 174.630876 -66.595722 
L 174.06047 -66.901057 
L 173.490065 -67.210093 
L 172.91966 -67.522866 
L 172.349255 -67.839414 
L 171.77885 -68.159772 
L 171.208444 -68.483977 
L 170.638039 -68.812067 
L 170.067634 -69.144077 
L 169.497229 -69.480045 
L 168.926823 -69.820008 
L 168.356418 -70.164003 
L 167.786013 -70.512067 
L 167.215608 -70.864237 
L 166.645203 -71.220552 
L 166.074797 -71.581047 
L 165.504392 -71.945761 
L 164.933987 -72.314731 
L 164.363582 -72.687994 
L 163.793176 -73.065588 
L 163.222771 -73.44755 
L 162.652366 -73.833918 
L 162.081961 -74.224729 
L 161.511556 -74.620019 
L 160.94115 -75.019827 
L 160.370745 -75.424189 
L 159.80034 -75.833142 
L 159.229935 -76.246724 
L 158.659529 -76.664971 
L 158.089124 -77.087919 
L 157.518719 -77.515605 
L 156.948314 -77.948065 
L 156.377909 -78.385336 
L 155.807503 -78.827453 
L 155.237098 -79.274452 
L 154.666693 -79.726367 
L 154.096288 -80.183235 
L 153.525882 -80.645089 
L 152.955477 -81.111965 
L 152.385072 -81.583896 
L 151.814667 -82.060915 
L 151.244262 -82.543057 
L 150.673856 -83.030354 
L 150.103451 -83.522838 
L 149.533046 -84.020541 
L 148.962641 -84.523495 
L 148.392235 -85.031731 
L 147.82183 -85.545279 
L 147.251425 -86.064168 
L 146.68102 -86.588427 
L 146.110615 -87.118086 
L 145.540209 -87.653171 
L 144.969804 -88.19371 
L 144.399399 -88.739729 
L 143.828994 -89.291253 
L 143.258588 -89.848306 
L 142.688183 -90.410914 
L 142.117778 -90.979097 
L 141.547373 -91.552879 
L 140.976968 -92.132279 
L 140.406562 -92.717318 
L 139.836157 -93.308014 
L 139.265752 -93.904385 
L 138.695347 -94.506447 
L 138.124941 -95.114215 
L 137.554536 -95.727702 
L 136.984131 -96.346922 
L 136.413726 -96.971885 
L 135.843321 -97.602601 
L 135.272915 -98.239077 
L 134.70251 -98.881321 
L 134.132105 -99.529337 
L 133.5617 -100.183129 
L 132.991294 -100.842697 
L 132.420889 -101.508042 
L 131.850484 -102.179161 
L 131.280079 -102.856049 
L 130.709674 -103.538701 
L 130.139268 -104.227109 
L 129.568863 -104.921261 
L 128.998458 -105.621144 
L 128.428053 -106.326745 
L 127.857647 -107.038044 
L 127.287242 -107.755023 
L 126.716837 -108.477657 
L 126.146432 -109.205923 
L 125.576027 -109.939792 
L 125.005621 -110.679233 
L 124.435216 -111.424211 
L 123.864811 -112.174691 
L 123.294406 -112.930632 
L 122.724001 -113.69199 
L 122.153595 -114.458719 
L 121.58319 -115.230769 
L 121.012785 -116.008086 
L 120.44238 -116.790611 
L 119.871974 -117.578285 
L 119.301569 -118.371041 
L 118.731164 -119.168811 
L 118.160759 -119.97152 
L 117.590354 -120.77909 
L 117.019948 -121.59144 
L 116.449543 -122.408483 
L 115.879138 -123.230125 
L 115.308733 -124.056272 
L 114.738327 -124.886821 
L 114.167922 -125.721666 
L 113.597517 -126.560693 
L 113.027112 -127.403786 
L 112.456707 -128.25082 
L 111.886301 -129.101667 
L 111.315896 -129.956191 
L 110.745491 -130.814251 
L 110.175086 -131.675697 
L 109.60468 -132.540377 
L 109.034275 -133.408127 
L 108.46387 -134.27878 
L 107.893465 -135.152161 
L 107.32306 -136.028086 
L 106.752654 -136.906364 
L 106.182249 -137.786796 
L 105.611844 -138.669177 
L 105.041439 -139.553292 
L 104.471033 -140.438916 
L 103.900628 -141.325817 
L 103.330223 -142.213754 
L 102.759818 -143.102477 
L 102.189413 -143.991725 
L 101.619007 -144.881227 
L 101.048602 -145.770704 
L 100.478197 -146.659865 
L 99.907792 -147.548408 
L 99.337386 -148.43602 
L 98.766981 -149.322378 
L 98.196576 -150.207147 
L 97.626171 -151.089979 
L 97.055766 -151.970513 
L 96.48536 -152.848378 
L 95.914955 -153.723187 
L 95.34455 -154.594543 
L 94.774145 -155.462031 
L 94.203739 -156.325225 
L 93.633334 -157.183684 
L 93.062929 -158.036951 
L 92.492524 -158.884555 
L 91.922119 -159.726007 
L 91.351713 -160.560804 
L 90.781308 -161.388425 
L 90.210903 -162.208332 
L 89.640498 -163.019971 
L 89.070092 -163.822767 
L 88.499687 -164.616129 
L 87.929282 -165.399445 
L 87.358877 -166.172084 
L 86.788472 -166.933396 
L 86.218066 -167.682708 
L 85.647661 -168.419327 
L 85.077256 -169.142538 
L 84.506851 -169.851603 
L 83.936445 -170.545761 
L 83.36604 -171.224227 
L 82.795635 -171.886193 
L 82.22523 -172.530825 
L 81.654825 -173.157261 
L 81.084419 -173.764615 
L 80.514014 -174.351973 
L 79.943609 -174.918394 
L 79.373204 -175.462906 
L 78.802799 -175.984508 
L 78.232393 -176.482171 
L 77.661988 -176.95483 
L 77.091583 -177.401392 
L 76.521178 -177.82073 
L 75.950772 -178.21168 
L 75.380367 -177.887891 
L 74.809962 -177.473203 
L 74.239557 -177.031099 
L 73.669152 -176.562713 
L 73.098746 -176.069143 
L 72.528341 -175.551458 
L 71.957936 -175.010694 
L 71.387531 -174.447857 
L 70.817125 -173.863922 
L 70.24672 -173.259836 
L 69.676315 -172.636518 
L 69.10591 -171.994859 
L 68.535505 -171.335723 
L 67.965099 -170.65995 
L 67.394694 -169.968352 
L 66.824289 -169.261718 
L 66.253884 -168.540813 
L 65.683478 -167.806378 
L 65.113073 -167.059133 
L 64.542668 -166.299774 
L 63.972263 -165.528977 
L 63.401858 -164.747396 
L 62.831452 -163.955666 
L 62.261047 -163.1544 
L 61.690642 -162.344195 
L 61.120237 -161.525626 
L 60.549831 -160.699253 
L 59.979426 -159.865616 
L 59.409021 -159.025237 
L 58.838616 -158.178625 
L 58.268211 -157.326268 
L 57.697805 -156.468643 
L 57.1274 -155.606207 
L 56.556995 -154.739404 
L 55.98659 -153.868664 
L 55.416184 -152.994402 
L 54.845779 -152.117019 
L 54.275374 -151.236904 
L 53.704969 -150.35443 
L 53.134564 -149.46996 
L 52.564158 -148.583842 
L 51.993753 -147.696416 
L 51.423348 -146.808006 
L 50.852943 -145.918927 
L 50.282537 -145.029483 
L 49.712132 -144.139965 
L 49.141727 -143.250656 
L 48.571322 -142.361827 
L 48.000917 -141.473741 
L 47.430511 -140.58665 
z
" id="m8327f56b44" style="stroke:#808080;stroke-opacity:0.4;stroke-width:0.5;"/>
    </defs>
    <g clip-path="url(#p8843fe5985)">
     <use style="fill:#808080;fill-opacity:0.4;stroke:#808080;stroke-opacity:0.4;stroke-width:0.5;" x="0" xlink:href="#m8327f56b44" y="258.55875"/>
    </g>
   </g>
   <g id="line2d_25">
    <path clip-path="url(#p8843fe5985)" d="M 47.430511 104.618462 
L 53.704969 96.948835 
L 57.697805 92.394703 
L 61.120237 88.826976 
L 63.972263 86.177988 
L 66.253884 84.326647 
L 68.535505 82.762384 
L 70.24672 81.807938 
L 71.957936 81.067005 
L 73.669152 80.565121 
L 75.380367 80.329946 
L 77.091583 80.387853 
L 78.802799 80.730176 
L 80.514014 81.32819 
L 82.22523 82.155079 
L 84.506851 83.57112 
L 86.788472 85.296843 
L 89.070092 87.284357 
L 91.922119 90.072041 
L 95.34455 93.76607 
L 99.337386 98.421053 
L 105.041439 105.452685 
L 120.44238 124.651152 
L 126.146432 131.332252 
L 131.280079 137.015968 
L 136.413726 142.351256 
L 140.976968 146.786342 
L 145.540209 150.927443 
L 150.103451 154.77627 
L 154.666693 158.339029 
L 159.229935 161.625227 
L 163.793176 164.646708 
L 168.356418 167.416895 
L 172.91966 169.950175 
L 178.053307 172.535471 
L 183.186954 174.861109 
L 188.320601 176.948135 
L 194.024653 179.011963 
L 199.728705 180.832992 
L 206.003163 182.585458 
L 212.27762 184.105069 
L 219.122483 185.530102 
L 226.537751 186.836572 
L 234.523424 188.008377 
L 243.079502 189.03713 
L 252.776391 189.970446 
L 263.61409 190.779857 
L 276.163005 191.479475 
L 290.423135 192.045599 
L 308.105697 192.512198 
L 330.351501 192.862506 
L 361.153383 193.105871 
L 389.103239 193.205666 
L 389.103239 193.205666 
" style="fill:none;stroke:#000000;stroke-width:2.7;"/>
   </g>
   <g id="line2d_26">
    <path clip-path="url(#p8843fe5985)" d="M 47.430511 131.943552 
L 51.423348 122.89958 
L 55.416184 114.400018 
L 59.409021 106.475672 
L 62.831452 100.161026 
L 66.253884 94.301648 
L 69.676315 88.908357 
L 73.098746 83.989289 
L 75.950772 80.256334 
L 78.802799 76.858278 
L 81.654825 73.79559 
L 84.506851 71.067478 
L 87.358877 68.671917 
L 90.210903 66.605662 
L 93.062929 64.864284 
L 95.34455 63.70138 
L 97.626171 62.739468 
L 99.907792 61.974728 
L 102.189413 61.402904 
L 104.471033 61.019325 
L 106.752654 60.818917 
L 109.60468 60.817637 
L 112.456707 61.082531 
L 115.308733 61.601282 
L 118.160759 62.360783 
L 121.012785 63.347193 
L 123.864811 64.546003 
L 127.287242 66.243624 
L 130.709674 68.198168 
L 134.70251 70.765667 
L 138.695347 73.598649 
L 143.258588 77.101049 
L 148.962641 81.771548 
L 158.089124 89.59025 
L 167.786013 97.811224 
L 173.490065 102.351207 
L 178.053307 105.722595 
L 182.046143 108.433279 
L 186.03898 110.883348 
L 189.461411 112.751228 
L 192.883843 114.385045 
L 196.306274 115.767997 
L 199.728705 116.8852 
L 202.580731 117.603843 
L 205.432758 118.122597 
L 208.284784 118.436124 
L 211.13681 118.540131 
L 213.988836 118.431383 
L 216.840862 118.107717 
L 219.692888 117.56805 
L 222.544914 116.812381 
L 225.39694 115.841795 
L 228.248966 114.658455 
L 231.100992 113.265594 
L 234.523424 111.323713 
L 237.945855 109.095758 
L 241.368286 106.59324 
L 244.790718 103.829715 
L 248.783554 100.296548 
L 252.776391 96.457246 
L 257.339633 91.734776 
L 262.47328 86.057112 
L 268.177332 79.390139 
L 275.5926 70.351088 
L 292.134351 50.058133 
L 297.838403 43.485228 
L 302.401645 38.541187 
L 306.394482 34.504327 
L 310.387318 30.78535 
L 313.809749 27.884254 
L 317.232181 25.276023 
L 320.084207 23.344725 
L 322.936233 21.648725 
L 325.788259 20.20143 
L 328.640285 19.015481 
L 331.492311 18.102694 
L 333.773932 17.576522 
L 336.055553 17.237364 
L 338.337174 17.089992 
L 340.618795 17.138768 
L 342.900416 17.387623 
L 345.182037 17.840046 
L 347.463658 18.49907 
L 349.745278 19.367262 
L 352.026899 20.44671 
L 354.30852 21.739012 
L 356.590141 23.245272 
L 359.442167 25.429832 
L 362.294193 27.94963 
L 365.146219 30.803436 
L 367.998245 33.988737 
L 370.850272 37.50173 
L 373.702298 41.337319 
L 377.124729 46.356763 
L 380.54716 51.817983 
L 383.969592 57.704834 
L 387.392023 63.998561 
L 389.103239 67.29144 
L 389.103239 67.29144 
" style="fill:none;stroke:#800080;stroke-width:2.7;"/>
   </g>
   <g id="line2d_27">
    <path clip-path="url(#p8843fe5985)" d="M 47.430511 37.850277 
L 49.712132 38.59161 
L 51.423348 39.353289 
L 53.134564 40.307732 
L 54.845779 41.470671 
L 56.556995 42.858694 
L 58.268211 44.489275 
L 59.979426 46.380785 
L 61.690642 48.552506 
L 63.401858 51.024638 
L 65.113073 53.818295 
L 66.824289 56.955501 
L 68.535505 60.459168 
L 70.24672 64.35306 
L 72.528341 70.194508 
L 74.809962 76.833691 
L 75.950772 80.16021 
L 78.232393 73.134732 
L 80.514014 66.935258 
L 82.795635 61.500626 
L 85.077256 56.771813 
L 87.358877 52.692281 
L 89.070092 50.026229 
L 90.781308 47.673383 
L 92.492524 45.612982 
L 94.203739 43.825185 
L 95.914955 42.291066 
L 97.626171 40.992603 
L 99.337386 39.912669 
L 101.048602 39.035012 
L 103.330223 38.152957 
L 105.611844 37.568998 
L 107.893465 37.251423 
L 110.175086 37.170912 
L 112.456707 37.300421 
L 115.308733 37.71992 
L 118.160759 38.384639 
L 121.58319 39.450539 
L 125.005621 40.75232 
L 128.998458 42.499565 
L 134.132105 45.000042 
L 141.547373 48.891081 
L 157.518719 57.331886 
L 164.933987 60.953491 
L 171.77885 64.034648 
L 178.053307 66.616216 
L 184.327764 68.959633 
L 190.602222 71.06829 
L 196.876679 72.951639 
L 203.721542 74.765028 
L 210.566405 76.346673 
L 217.981672 77.824001 
L 225.967345 79.171646 
L 234.523424 80.372777 
L 243.649907 81.419148 
L 253.917201 82.356706 
L 265.325306 83.159651 
L 277.874221 83.817955 
L 292.704756 84.370758 
L 310.957723 84.818014 
L 334.344337 85.153484 
L 366.857435 85.379353 
L 389.103239 85.452178 
L 389.103239 85.452178 
" style="fill:none;stroke:#008000;stroke-width:2.7;"/>
   </g>
   <g id="patch_3">
    <path d="M 30.346875 224.64 
L 30.346875 7.2 
" style="fill:none;stroke:#f0f0f0;stroke-linecap:square;stroke-linejoin:miter;stroke-width:3;"/>
   </g>
   <g id="patch_4">
    <path d="M 406.186875 224.64 
L 406.186875 7.2 
" style="fill:none;stroke:#f0f0f0;stroke-linecap:square;stroke-linejoin:miter;stroke-width:3;"/>
   </g>
   <g id="patch_5">
    <path d="M 30.346875 224.64 
L 406.186875 224.64 
" style="fill:none;stroke:#f0f0f0;stroke-linecap:square;stroke-linejoin:miter;stroke-width:3;"/>
   </g>
   <g id="patch_6">
    <path d="M 30.346875 7.2 
L 406.186875 7.2 
" style="fill:none;stroke:#f0f0f0;stroke-linecap:square;stroke-linejoin:miter;stroke-width:3;"/>
   </g>
   <g id="legend_1">
    <g id="patch_7">
     <path d="M 428.920475 97.265938 
L 564.340788 97.265938 
Q 566.540788 97.265938 566.540788 95.065938 
L 566.540788 14.9 
Q 566.540788 12.7 564.340788 12.7 
L 428.920475 12.7 
Q 426.720475 12.7 426.720475 14.9 
L 426.720475 95.065938 
Q 426.720475 97.265938 428.920475 97.265938 
z
" style="fill:#f0f0f0;opacity:0.8;stroke:#cccccc;stroke-linejoin:miter;stroke-width:0.5;"/>
    </g>
    <g id="line2d_28">
     <path d="M 431.120475 21.94 
L 453.120475 21.94 
" style="fill:none;stroke:#000000;stroke-width:2.7;"/>
    </g>
    <g id="line2d_29"/>
    <g id="text_15">
     <!-- Predicted ($\mu$) -->
     <defs>
      <path d="M 27 70 
Q 41.59375 70 49.4375 64.453125 
Q 57.296875 58.90625 57.296875 47.90625 
Q 57.296875 41.90625 55.140625 37.65625 
Q 53 33.40625 48.953125 30.75 
Q 44.90625 28.09375 39.09375 26.890625 
Q 33.296875 25.703125 26 25.703125 
L 18.296875 25.703125 
L 18.296875 0 
L 8.59375 0 
L 8.59375 68.296875 
Q 12.703125 69.296875 17.75 69.640625 
Q 22.796875 70 27 70 
z
M 27.796875 61.5 
Q 21.59375 61.5 18.296875 61.203125 
L 18.296875 34 
L 25.59375 34 
Q 30.59375 34 34.59375 34.640625 
Q 38.59375 35.296875 41.34375 36.84375 
Q 44.09375 38.40625 45.59375 41.09375 
Q 47.09375 43.796875 47.09375 48 
Q 47.09375 52 45.546875 54.59375 
Q 44 57.203125 41.34375 58.75 
Q 38.703125 60.296875 35.203125 60.890625 
Q 31.703125 61.5 27.796875 61.5 
z
" id="Ubuntu-80"/>
      <path d="M 27.203125 53.09375 
Q 28.40625 53.09375 29.953125 52.9375 
Q 31.5 52.796875 33 52.546875 
Q 34.5 52.296875 35.75 52.046875 
Q 37 51.796875 37.59375 51.59375 
L 36 43.5 
Q 34.90625 43.90625 32.34375 44.453125 
Q 29.796875 45 25.796875 45 
Q 23.203125 45 20.640625 44.453125 
Q 18.09375 43.90625 17.296875 43.703125 
L 17.296875 0 
L 8 0 
L 8 49.796875 
Q 11.296875 51 16.1875 52.046875 
Q 21.09375 53.09375 27.203125 53.09375 
z
" id="Ubuntu-114"/>
      <path d="M 17.296875 0 
L 8 0 
L 8 52 
L 17.296875 52 
z
M 12.59375 61.40625 
Q 10.09375 61.40625 8.34375 63.046875 
Q 6.59375 64.703125 6.59375 67.5 
Q 6.59375 70.296875 8.34375 71.9375 
Q 10.09375 73.59375 12.59375 73.59375 
Q 15.09375 73.59375 16.84375 71.9375 
Q 18.59375 70.296875 18.59375 67.5 
Q 18.59375 64.703125 16.84375 63.046875 
Q 15.09375 61.40625 12.59375 61.40625 
z
" id="Ubuntu-105"/>
      <path d="M 17.09375 29.90625 
Q 17.09375 17.09375 20.796875 6.1875 
Q 24.5 -4.703125 31.703125 -14 
L 25.09375 -18.5 
Q 17.296875 -9 12.546875 3.34375 
Q 7.796875 15.703125 7.796875 29.90625 
Q 7.796875 44.09375 12.546875 56.4375 
Q 17.296875 68.796875 25.09375 78.296875 
L 31.703125 73.796875 
Q 24.5 64.5 20.796875 53.59375 
Q 17.09375 42.703125 17.09375 29.90625 
z
" id="Ubuntu-40"/>
      <path d="M -1.3125 -20.796875 
L 13.375 54.6875 
L 22.40625 54.6875 
L 15.765625 20.65625 
Q 15.578125 19.625 15.421875 18.359375 
Q 15.28125 17.09375 15.28125 15.828125 
Q 15.28125 11.28125 18.140625 8.828125 
Q 21 6.390625 26.3125 6.390625 
Q 33.546875 6.390625 37.984375 10.484375 
Q 42.4375 14.59375 44 22.796875 
L 50.203125 54.6875 
L 59.1875 54.6875 
L 51.03125 12.640625 
Q 50.828125 11.71875 50.75 11.03125 
Q 50.6875 10.359375 50.6875 9.8125 
Q 50.6875 8.296875 51.296875 7.59375 
Q 51.90625 6.890625 53.21875 6.890625 
Q 53.71875 6.890625 54.5625 7.125 
Q 55.421875 7.375 56.984375 8.015625 
L 55.609375 0.78125 
Q 53.46875 -0.296875 51.515625 -0.859375 
Q 49.5625 -1.421875 47.703125 -1.421875 
Q 44.484375 -1.421875 42.65625 0.625 
Q 40.828125 2.6875 40.828125 6.296875 
Q 38.09375 2.390625 34.296875 0.484375 
Q 30.515625 -1.421875 25.390625 -1.421875 
Q 20.84375 -1.421875 17.453125 0.671875 
Q 14.0625 2.78125 12.984375 6.203125 
L 7.71875 -20.796875 
z
" id="DejaVuSans-Oblique-956"/>
      <path d="M 15.296875 29.90625 
Q 15.296875 42.703125 11.59375 53.59375 
Q 7.90625 64.5 0.703125 73.796875 
L 7.296875 78.296875 
Q 15.09375 68.796875 19.84375 56.4375 
Q 24.59375 44.09375 24.59375 29.90625 
Q 24.59375 15.703125 19.84375 3.34375 
Q 15.09375 -9 7.296875 -18.5 
L 0.703125 -14 
Q 7.90625 -4.703125 11.59375 6.1875 
Q 15.296875 17.09375 15.296875 29.90625 
z
" id="Ubuntu-41"/>
     </defs>
     <g transform="translate(461.920475 25.79)scale(0.11 -0.11)">
      <use transform="translate(0 0.703125)" xlink:href="#Ubuntu-80"/>
      <use transform="translate(60.799988 0.703125)" xlink:href="#Ubuntu-114"/>
      <use transform="translate(99.399979 0.703125)" xlink:href="#Ubuntu-101"/>
      <use transform="translate(155.299973 0.703125)" xlink:href="#Ubuntu-100"/>
      <use transform="translate(214.199966 0.703125)" xlink:href="#Ubuntu-105"/>
      <use transform="translate(239.499954 0.703125)" xlink:href="#Ubuntu-99"/>
      <use transform="translate(285.999939 0.703125)" xlink:href="#Ubuntu-116"/>
      <use transform="translate(326.199936 0.703125)" xlink:href="#Ubuntu-101"/>
      <use transform="translate(382.09993 0.703125)" xlink:href="#Ubuntu-100"/>
      <use transform="translate(440.999924 0.703125)" xlink:href="#Ubuntu-32"/>
      <use transform="translate(464.099915 0.703125)" xlink:href="#Ubuntu-40"/>
      <use transform="translate(496.499908 0.703125)" xlink:href="#DejaVuSans-Oblique-956"/>
      <use transform="translate(560.122955 0.703125)" xlink:href="#Ubuntu-41"/>
     </g>
    </g>
    <g id="line2d_30">
     <path d="M 431.120475 38.44 
L 453.120475 38.44 
" style="fill:none;stroke:#800080;stroke-width:2.7;"/>
    </g>
    <g id="line2d_31"/>
    <g id="text_16">
     <!-- GT ($f$) -->
     <defs>
      <path d="M 54.90625 69.296875 
L 54.90625 60.90625 
L 33.09375 60.90625 
L 33.09375 0 
L 23.40625 0 
L 23.40625 60.90625 
L 1.59375 60.90625 
L 1.59375 69.296875 
z
" id="Ubuntu-84"/>
      <path d="M 47.796875 75.984375 
L 46.390625 68.5 
L 37.796875 68.5 
Q 32.90625 68.5 30.6875 66.578125 
Q 28.46875 64.65625 27.390625 59.515625 
L 26.421875 54.6875 
L 41.21875 54.6875 
L 39.890625 47.703125 
L 25.09375 47.703125 
L 15.828125 0 
L 6.78125 0 
L 16.109375 47.703125 
L 7.515625 47.703125 
L 8.796875 54.6875 
L 17.390625 54.6875 
L 18.109375 58.5 
Q 19.96875 68.171875 24.625 72.078125 
Q 29.296875 75.984375 39.3125 75.984375 
z
" id="DejaVuSans-Oblique-102"/>
     </defs>
     <g transform="translate(461.920475 42.29)scale(0.11 -0.11)">
      <use transform="translate(0 0.703125)" xlink:href="#Ubuntu-71"/>
      <use transform="translate(67.199997 0.703125)" xlink:href="#Ubuntu-84"/>
      <use transform="translate(123.699982 0.703125)" xlink:href="#Ubuntu-32"/>
      <use transform="translate(146.799973 0.703125)" xlink:href="#Ubuntu-40"/>
      <use transform="translate(179.199966 0.703125)" xlink:href="#DejaVuSans-Oblique-102"/>
      <use transform="translate(214.405045 0.703125)" xlink:href="#Ubuntu-41"/>
     </g>
    </g>
    <g id="line2d_32">
     <path d="M 431.120475 54.565312 
L 453.120475 54.565312 
" style="fill:none;stroke:#008000;stroke-width:2.7;"/>
    </g>
    <g id="line2d_33"/>
    <g id="text_17">
     <!-- Acquisition function -->
     <defs>
      <path d="M 54.90625 0 
Q 53.203125 4.5 51.703125 8.84375 
Q 50.203125 13.203125 48.59375 17.703125 
L 17.203125 17.703125 
L 10.90625 0 
L 0.796875 0 
Q 4.796875 11 8.296875 20.34375 
Q 11.796875 29.703125 15.140625 38.09375 
Q 18.5 46.5 21.796875 54.140625 
Q 25.09375 61.796875 28.703125 69.296875 
L 37.59375 69.296875 
Q 41.203125 61.796875 44.5 54.140625 
Q 47.796875 46.5 51.140625 38.09375 
Q 54.5 29.703125 58 20.34375 
Q 61.5 11 65.5 0 
z
M 45.796875 25.703125 
Q 42.59375 34.40625 39.4375 42.546875 
Q 36.296875 50.703125 32.90625 58.203125 
Q 29.40625 50.703125 26.25 42.546875 
Q 23.09375 34.40625 20 25.703125 
z
" id="Ubuntu-65"/>
      <path d="M 14.796875 25.90625 
Q 14.796875 21.90625 15.59375 18.453125 
Q 16.40625 15 18.203125 12.453125 
Q 20 9.90625 22.84375 8.453125 
Q 25.703125 7 29.703125 7 
Q 33.5 7 36.703125 8.296875 
Q 39.90625 9.59375 41.59375 11 
L 41.59375 43.796875 
Q 40.203125 44.203125 37.84375 44.5 
Q 35.5 44.796875 31.296875 44.796875 
Q 23.796875 44.796875 19.296875 39.890625 
Q 14.796875 35 14.796875 25.90625 
z
M 5.09375 25.90625 
Q 5.09375 32.203125 6.9375 37.25 
Q 8.796875 42.296875 12.1875 45.796875 
Q 15.59375 49.296875 20.390625 51.1875 
Q 25.203125 53.09375 31.203125 53.09375 
Q 37.703125 53.09375 42.640625 52.140625 
Q 47.59375 51.203125 50.90625 50.40625 
L 50.90625 -18.5 
L 41.59375 -18.5 
L 41.59375 2.296875 
Q 39.90625 1.203125 36.453125 0 
Q 33 -1.203125 28.5 -1.203125 
Q 22.90625 -1.203125 18.546875 0.796875 
Q 14.203125 2.796875 11.203125 6.390625 
Q 8.203125 10 6.640625 15 
Q 5.09375 20 5.09375 25.90625 
z
" id="Ubuntu-113"/>
      <path d="M 49.40625 1.5 
Q 46.203125 0.703125 40.953125 -0.1875 
Q 35.703125 -1.09375 28.796875 -1.09375 
Q 22.796875 -1.09375 18.6875 0.65625 
Q 14.59375 2.40625 12.09375 5.59375 
Q 9.59375 8.796875 8.5 13.140625 
Q 7.40625 17.5 7.40625 22.796875 
L 7.40625 52 
L 16.703125 52 
L 16.703125 24.796875 
Q 16.703125 15.296875 19.703125 11.1875 
Q 22.703125 7.09375 29.796875 7.09375 
Q 31.296875 7.09375 32.890625 7.1875 
Q 34.5 7.296875 35.890625 7.4375 
Q 37.296875 7.59375 38.4375 7.75 
Q 39.59375 7.90625 40.09375 8.09375 
L 40.09375 52 
L 49.40625 52 
z
" id="Ubuntu-117"/>
      <path d="M 20.09375 6.703125 
Q 25.796875 6.703125 28.546875 8.203125 
Q 31.296875 9.703125 31.296875 13 
Q 31.296875 16.40625 28.59375 18.40625 
Q 25.90625 20.40625 19.703125 22.90625 
Q 16.703125 24.09375 13.953125 25.34375 
Q 11.203125 26.59375 9.203125 28.296875 
Q 7.203125 30 6 32.390625 
Q 4.796875 34.796875 4.796875 38.296875 
Q 4.796875 45.203125 9.890625 49.25 
Q 15 53.296875 23.796875 53.296875 
Q 26 53.296875 28.203125 53.046875 
Q 30.40625 52.796875 32.296875 52.4375 
Q 34.203125 52.09375 35.640625 51.6875 
Q 37.09375 51.296875 37.90625 51 
L 36.203125 43 
Q 34.703125 43.796875 31.5 44.640625 
Q 28.296875 45.5 23.796875 45.5 
Q 19.90625 45.5 17 43.953125 
Q 14.09375 42.40625 14.09375 39.09375 
Q 14.09375 37.40625 14.75 36.09375 
Q 15.40625 34.796875 16.75 33.75 
Q 18.09375 32.703125 20.09375 31.796875 
Q 22.09375 30.90625 24.90625 29.90625 
Q 28.59375 28.5 31.5 27.140625 
Q 34.40625 25.796875 36.453125 24 
Q 38.5 22.203125 39.59375 19.640625 
Q 40.703125 17.09375 40.703125 13.40625 
Q 40.703125 6.203125 35.34375 2.5 
Q 30 -1.203125 20.09375 -1.203125 
Q 13.203125 -1.203125 9.296875 -0.046875 
Q 5.40625 1.09375 4 1.703125 
L 5.703125 9.703125 
Q 7.296875 9.09375 10.796875 7.890625 
Q 14.296875 6.703125 20.09375 6.703125 
z
" id="Ubuntu-115"/>
      <path d="M 28.296875 77.59375 
Q 32.40625 77.59375 35.34375 77 
Q 38.296875 76.40625 39.5 75.90625 
L 37.796875 67.90625 
Q 36.59375 68.5 34.390625 69.046875 
Q 32.203125 69.59375 29 69.59375 
Q 22.5 69.59375 19.890625 66.046875 
Q 17.296875 62.5 17.296875 56.5 
L 17.296875 52 
L 37.296875 52 
L 37.296875 44.203125 
L 17.296875 44.203125 
L 17.296875 0 
L 8 0 
L 8 56.703125 
Q 8 66.703125 12.890625 72.140625 
Q 17.796875 77.59375 28.296875 77.59375 
z
" id="Ubuntu-102"/>
     </defs>
     <g transform="translate(461.920475 58.415312)scale(0.11 -0.11)">
      <use xlink:href="#Ubuntu-65"/>
      <use x="66.284363" xlink:href="#Ubuntu-99"/>
      <use x="112.784348" xlink:href="#Ubuntu-113"/>
      <use x="171.684341" xlink:href="#Ubuntu-117"/>
      <use x="229.084335" xlink:href="#Ubuntu-105"/>
      <use x="254.384323" xlink:href="#Ubuntu-115"/>
      <use x="298.984314" xlink:href="#Ubuntu-105"/>
      <use x="324.284302" xlink:href="#Ubuntu-116"/>
      <use x="364.484299" xlink:href="#Ubuntu-105"/>
      <use x="389.784286" xlink:href="#Ubuntu-111"/>
      <use x="448.784271" xlink:href="#Ubuntu-110"/>
      <use x="506.184265" xlink:href="#Ubuntu-32"/>
      <use x="529.284256" xlink:href="#Ubuntu-102"/>
      <use x="567.884247" xlink:href="#Ubuntu-117"/>
      <use x="625.284241" xlink:href="#Ubuntu-110"/>
      <use x="682.684235" xlink:href="#Ubuntu-99"/>
      <use x="729.184219" xlink:href="#Ubuntu-116"/>
      <use x="769.384216" xlink:href="#Ubuntu-105"/>
      <use x="794.684204" xlink:href="#Ubuntu-111"/>
      <use x="853.684189" xlink:href="#Ubuntu-110"/>
     </g>
    </g>
    <g id="patch_8">
     <path d="M 431.120475 74.485625 
L 453.120475 74.485625 
L 453.120475 66.785625 
L 431.120475 66.785625 
z
" style="fill:#808080;opacity:0.4;stroke:#808080;stroke-linejoin:miter;stroke-width:0.5;"/>
    </g>
    <g id="text_18">
     <!-- $\mu \pm \sigma$ -->
     <defs>
      <path d="M 46 62.703125 
L 46 43.796875 
L 73.1875 43.796875 
L 73.1875 35.5 
L 46 35.5 
L 46 16.609375 
L 37.796875 16.609375 
L 37.796875 35.5 
L 10.59375 35.5 
L 10.59375 43.796875 
L 37.796875 43.796875 
L 37.796875 62.703125 
z
M 10.59375 8.296875 
L 73.1875 8.296875 
L 73.1875 0 
L 10.59375 0 
z
" id="DejaVuSans-177"/>
      <path d="M 34.671875 47.5625 
Q 27.25 47.5625 22.21875 42.1875 
Q 16.890625 36.578125 15.140625 27.296875 
Q 13.1875 17.484375 16.3125 11.8125 
Q 19.390625 6.203125 26.65625 6.203125 
Q 33.84375 6.203125 39.109375 11.859375 
Q 44.4375 17.53125 46.34375 27.296875 
Q 48.046875 36.234375 45.015625 42.1875 
Q 42.1875 47.5625 34.671875 47.5625 
z
M 36.078125 54.734375 
L 65.921875 54.6875 
L 64.15625 45.703125 
L 54.109375 45.703125 
Q 57.90625 38.09375 55.859375 27.296875 
Q 53.21875 13.875 45.0625 6.25 
Q 36.859375 -1.421875 25.140625 -1.421875 
Q 13.375 -1.421875 8.203125 6.25 
Q 3.03125 13.875 5.671875 27.296875 
Q 8.25 40.765625 16.40625 48.390625 
Q 23.1875 54.734375 36.078125 54.734375 
z
" id="DejaVuSans-Oblique-963"/>
     </defs>
     <g transform="translate(461.920475 74.485625)scale(0.11 -0.11)">
      <use transform="translate(0 0.296875)" xlink:href="#DejaVuSans-Oblique-956"/>
      <use transform="translate(83.105469 0.296875)" xlink:href="#DejaVuSans-177"/>
      <use transform="translate(186.376953 0.296875)" xlink:href="#DejaVuSans-Oblique-963"/>
     </g>
    </g>
    <g id="PathCollection_1">
     <defs>
      <path d="M 0 7.071068 
C 1.875269 7.071068 3.673985 6.326016 5 5 
C 6.326016 3.673985 7.071068 1.875269 7.071068 0 
C 7.071068 -1.875269 6.326016 -3.673985 5 -5 
C 3.673985 -6.326016 1.875269 -7.071068 0 -7.071068 
C -1.875269 -7.071068 -3.673985 -6.326016 -5 -5 
C -6.326016 -3.673985 -7.071068 -1.875269 -7.071068 0 
C -7.071068 1.875269 -6.326016 3.673985 -5 5 
C -3.673985 6.326016 -1.875269 7.071068 0 7.071068 
z
" id="m8e40b03fd5" style="stroke:#ff0000;stroke-width:0.5;"/>
     </defs>
     <g>
      <use style="fill:#ff0000;stroke:#ff0000;stroke-width:0.5;" x="442.120475" xlink:href="#m8e40b03fd5" y="87.943438"/>
     </g>
    </g>
    <g id="text_19">
     <!-- Train points -->
     <defs>
      <path d="M 25.59375 6.703125 
Q 28.90625 6.703125 31.453125 6.84375 
Q 34 7 35.703125 7.40625 
L 35.703125 22.90625 
Q 34.703125 23.40625 32.453125 23.75 
Q 30.203125 24.09375 27 24.09375 
Q 24.90625 24.09375 22.546875 23.796875 
Q 20.203125 23.5 18.25 22.546875 
Q 16.296875 21.59375 15 19.9375 
Q 13.703125 18.296875 13.703125 15.59375 
Q 13.703125 10.59375 16.890625 8.640625 
Q 20.09375 6.703125 25.59375 6.703125 
z
M 24.796875 53.296875 
Q 30.40625 53.296875 34.25 51.84375 
Q 38.09375 50.40625 40.4375 47.75 
Q 42.796875 45.09375 43.796875 41.4375 
Q 44.796875 37.796875 44.796875 33.40625 
L 44.796875 0.90625 
Q 43.59375 0.703125 41.4375 0.34375 
Q 39.296875 0 36.59375 -0.296875 
Q 33.90625 -0.59375 30.75 -0.84375 
Q 27.59375 -1.09375 24.5 -1.09375 
Q 20.09375 -1.09375 16.390625 -0.1875 
Q 12.703125 0.703125 10 2.640625 
Q 7.296875 4.59375 5.796875 7.796875 
Q 4.296875 11 4.296875 15.5 
Q 4.296875 19.796875 6.046875 22.890625 
Q 7.796875 26 10.796875 27.890625 
Q 13.796875 29.796875 17.796875 30.6875 
Q 21.796875 31.59375 26.203125 31.59375 
Q 27.59375 31.59375 29.09375 31.4375 
Q 30.59375 31.296875 31.9375 31.046875 
Q 33.296875 30.796875 34.296875 30.59375 
Q 35.296875 30.40625 35.703125 30.296875 
L 35.703125 32.90625 
Q 35.703125 35.203125 35.203125 37.453125 
Q 34.703125 39.703125 33.390625 41.453125 
Q 32.09375 43.203125 29.84375 44.25 
Q 27.59375 45.296875 24 45.296875 
Q 19.40625 45.296875 15.953125 44.640625 
Q 12.5 44 10.796875 43.296875 
L 9.703125 51 
Q 11.5 51.796875 15.703125 52.546875 
Q 19.90625 53.296875 24.796875 53.296875 
z
" id="Ubuntu-97"/>
      <path d="M 44.09375 25.90625 
Q 44.09375 35 39.59375 39.890625 
Q 35.09375 44.796875 27.59375 44.796875 
Q 23.40625 44.796875 21.046875 44.5 
Q 18.703125 44.203125 17.296875 43.796875 
L 17.296875 11 
Q 19 9.59375 22.203125 8.296875 
Q 25.40625 7 29.203125 7 
Q 33.203125 7 36.046875 8.453125 
Q 38.90625 9.90625 40.703125 12.453125 
Q 42.5 15 43.296875 18.453125 
Q 44.09375 21.90625 44.09375 25.90625 
z
M 53.796875 25.90625 
Q 53.796875 20 52.25 15 
Q 50.703125 10 47.703125 6.390625 
Q 44.703125 2.796875 40.34375 0.796875 
Q 36 -1.203125 30.40625 -1.203125 
Q 25.90625 -1.203125 22.453125 0 
Q 19 1.203125 17.296875 2.296875 
L 17.296875 -18.5 
L 8 -18.5 
L 8 50.40625 
Q 11.296875 51.203125 16.25 52.140625 
Q 21.203125 53.09375 27.703125 53.09375 
Q 33.703125 53.09375 38.5 51.1875 
Q 43.296875 49.296875 46.6875 45.796875 
Q 50.09375 42.296875 51.9375 37.25 
Q 53.796875 32.203125 53.796875 25.90625 
z
" id="Ubuntu-112"/>
     </defs>
     <g transform="translate(461.920475 90.830938)scale(0.11 -0.11)">
      <use xlink:href="#Ubuntu-84"/>
      <use x="56.437485" xlink:href="#Ubuntu-114"/>
      <use x="95.037476" xlink:href="#Ubuntu-97"/>
      <use x="147.237473" xlink:href="#Ubuntu-105"/>
      <use x="172.53746" xlink:href="#Ubuntu-110"/>
      <use x="229.937454" xlink:href="#Ubuntu-32"/>
      <use x="253.037445" xlink:href="#Ubuntu-112"/>
      <use x="311.937439" xlink:href="#Ubuntu-111"/>
      <use x="370.937424" xlink:href="#Ubuntu-105"/>
      <use x="396.237411" xlink:href="#Ubuntu-110"/>
      <use x="453.637405" xlink:href="#Ubuntu-116"/>
      <use x="493.837402" xlink:href="#Ubuntu-115"/>
     </g>
    </g>
   </g>
   <g id="PathCollection_2">
    <g clip-path="url(#p8843fe5985)">
     <use style="fill:#ff0000;stroke:#ff0000;stroke-width:0.5;" x="75.903239" xlink:href="#m8e40b03fd5" y="80.315809"/>
    </g>
   </g>
  </g>
 </g>
 <defs>
  <clipPath id="p8843fe5985">
   <rect height="217.44" width="375.84" x="30.346875" y="7.2"/>
  </clipPath>
 </defs>
</svg>
