<?xml version="1.0" encoding="utf-8" standalone="no"?>
<!DOCTYPE svg PUBLIC "-//W3C//DTD SVG 1.1//EN"
  "http://www.w3.org/Graphics/SVG/1.1/DTD/svg11.dtd">
<!-- Created with matplotlib (https://matplotlib.org/) -->
<svg height="269.924375pt" version="1.1" viewBox="0 0 587.63575 269.924375" width="587.63575pt" xmlns="http://www.w3.org/2000/svg" xmlns:xlink="http://www.w3.org/1999/xlink">
 <defs>
  <style type="text/css">
*{stroke-linecap:butt;stroke-linejoin:round;}
  </style>
 </defs>
 <g id="figure_1">
  <g id="patch_1">
   <path d="M 0 269.924375 
L 587.63575 269.924375 
L 587.63575 0 
L 0 0 
z
" style="fill:#ffffff;"/>
  </g>
  <g id="axes_1">
   <g id="patch_2">
    <path d="M 47.290625 224.64 
L 382.090625 224.64 
L 382.090625 7.2 
L 47.290625 7.2 
z
" style="fill:#ffffff;"/>
   </g>
   <g id="PolyCollection_1">
    <defs>
     <path d="M 62.508807 -104.71199 
L 62.508807 -135.623741 
L 63.016926 -135.424349 
L 63.525046 -135.221298 
L 64.033166 -135.014566 
L 64.541285 -134.804132 
L 65.049405 -134.589979 
L 65.557524 -134.37209 
L 66.065644 -134.150449 
L 66.573764 -133.925044 
L 67.081883 -133.695862 
L 67.590003 -133.462895 
L 68.098122 -133.226135 
L 68.606242 -132.985577 
L 69.114362 -132.741218 
L 69.622481 -132.493057 
L 70.130601 -132.241095 
L 70.63872 -131.985337 
L 71.14684 -131.72579 
L 71.654959 -131.462463 
L 72.163079 -131.195368 
L 72.671199 -130.924522 
L 73.179318 -130.649942 
L 73.687438 -130.371649 
L 74.195557 -130.089669 
L 74.703677 -129.80403 
L 75.211797 -129.514763 
L 75.719916 -129.221904 
L 76.228036 -128.925492 
L 76.736155 -128.625569 
L 77.244275 -128.322183 
L 77.752395 -128.015385 
L 78.260514 -127.70523 
L 78.768634 -127.391779 
L 79.276753 -127.075095 
L 79.784873 -126.755249 
L 80.292993 -126.432313 
L 80.801112 -126.106367 
L 81.309232 -125.777496 
L 81.817351 -125.445789 
L 82.325471 -125.11134 
L 82.833591 -124.774252 
L 83.34171 -124.434631 
L 83.84983 -124.092588 
L 84.357949 -123.748245 
L 84.866069 -123.401724 
L 85.374189 -123.053159 
L 85.882308 -122.702689 
L 86.390428 -122.350458 
L 86.898547 -121.996622 
L 87.406667 -121.641342 
L 87.914786 -121.344402 
L 88.422906 -121.700648 
L 88.931026 -122.055699 
L 89.439145 -122.409279 
L 89.947265 -122.761227 
L 90.455384 -123.11139 
L 90.963504 -123.459623 
L 91.471624 -123.80579 
L 91.979743 -124.149759 
L 92.487863 -124.491405 
L 92.995982 -124.830612 
L 93.504102 -125.167268 
L 94.012222 -125.501266 
L 94.520341 -125.832507 
L 95.028461 -126.160897 
L 95.53658 -126.486347 
L 96.0447 -126.808773 
L 96.55282 -127.128098 
L 97.060939 -127.444247 
L 97.569059 -127.757153 
L 98.077178 -128.066753 
L 98.585298 -128.372986 
L 99.093418 -128.675798 
L 99.601537 -128.975139 
L 100.109657 -129.270962 
L 100.617776 -129.563225 
L 101.125896 -129.851889 
L 101.634015 -130.136921 
L 102.142135 -130.418288 
L 102.650255 -130.695963 
L 103.158374 -130.969923 
L 103.666494 -131.240145 
L 104.174613 -131.506613 
L 104.682733 -131.76931 
L 105.190853 -132.028227 
L 105.698972 -132.283352 
L 106.207092 -132.534681 
L 106.715211 -132.782209 
L 107.223331 -133.025934 
L 107.731451 -133.265859 
L 108.23957 -133.501986 
L 108.74769 -133.734322 
L 109.255809 -133.962873 
L 109.763929 -134.18765 
L 110.272049 -134.408665 
L 110.780168 -134.62593 
L 111.288288 -134.839462 
L 111.796407 -135.049277 
L 112.304527 -135.255395 
L 112.812647 -135.457835 
L 113.320766 -135.656619 
L 113.828886 -135.85177 
L 114.337005 -136.043313 
L 114.845125 -136.231273 
L 115.353245 -136.415677 
L 115.861364 -136.596554 
L 116.369484 -136.773931 
L 116.877603 -136.94784 
L 117.385723 -137.118311 
L 117.893842 -137.285377 
L 118.401962 -137.449069 
L 118.910082 -137.609422 
L 119.418201 -137.766469 
L 119.926321 -137.920246 
L 120.43444 -138.070787 
L 120.94256 -138.21813 
L 121.45068 -138.362311 
L 121.958799 -138.503367 
L 122.466919 -138.641335 
L 122.975038 -138.776253 
L 123.483158 -138.908161 
L 123.991278 -139.037095 
L 124.499397 -139.163096 
L 125.007517 -139.286203 
L 125.515636 -139.406454 
L 126.023756 -139.523891 
L 126.531876 -139.638551 
L 127.039995 -139.750475 
L 127.548115 -139.859704 
L 128.056234 -139.966277 
L 128.564354 -140.070234 
L 129.072474 -140.171615 
L 129.580593 -140.27046 
L 130.088713 -140.36681 
L 130.596832 -140.460704 
L 131.104952 -140.552181 
L 131.613072 -140.641283 
L 132.121191 -140.728048 
L 132.629311 -140.812515 
L 133.13743 -140.894725 
L 133.64555 -140.974716 
L 134.153669 -141.052527 
L 134.661789 -141.128196 
L 135.169909 -141.201763 
L 135.678028 -141.273265 
L 136.186148 -141.34274 
L 136.694267 -141.410226 
L 137.202387 -141.47576 
L 137.710507 -141.539379 
L 138.218626 -141.601121 
L 138.726746 -141.661021 
L 139.234865 -141.719115 
L 139.742985 -141.77544 
L 140.251105 -141.830031 
L 140.759224 -141.882922 
L 141.267344 -141.934148 
L 141.775463 -141.983745 
L 142.283583 -142.031744 
L 142.791703 -142.078181 
L 143.299822 -142.123089 
L 143.807942 -142.166499 
L 144.316061 -142.208445 
L 144.824181 -142.248958 
L 145.332301 -142.288071 
L 145.84042 -142.325813 
L 146.34854 -142.362216 
L 146.856659 -142.39731 
L 147.364779 -142.431125 
L 147.872898 -142.463691 
L 148.381018 -142.495036 
L 148.889138 -142.52519 
L 149.397257 -142.554179 
L 149.905377 -142.582033 
L 150.413496 -142.608779 
L 150.921616 -142.634443 
L 151.429736 -142.659052 
L 151.937855 -142.682632 
L 152.445975 -142.705209 
L 152.954094 -142.726808 
L 153.462214 -142.747453 
L 153.970334 -142.76717 
L 154.478453 -142.785983 
L 154.986573 -142.803914 
L 155.494692 -142.820987 
L 156.002812 -142.837225 
L 156.510932 -142.852651 
L 157.019051 -142.867285 
L 157.527171 -142.88115 
L 158.03529 -142.894267 
L 158.54341 -142.906657 
L 159.05153 -142.91834 
L 159.559649 -142.929335 
L 160.067769 -142.939664 
L 160.575888 -142.949344 
L 161.084008 -142.958395 
L 161.592128 -142.966835 
L 162.100247 -142.974682 
L 162.608367 -142.981954 
L 163.116486 -142.988668 
L 163.624606 -142.994842 
L 164.132725 -143.000491 
L 164.640845 -143.005633 
L 165.148965 -143.010283 
L 165.657084 -143.014457 
L 166.165204 -143.01817 
L 166.673323 -143.021437 
L 167.181443 -143.024273 
L 167.689563 -143.026691 
L 168.197682 -143.028707 
L 168.705802 -143.030333 
L 169.213921 -143.031582 
L 169.722041 -143.032469 
L 170.230161 -143.033005 
L 170.73828 -143.033203 
L 171.2464 -143.033076 
L 171.754519 -143.032634 
L 172.262639 -143.03189 
L 172.770759 -143.030855 
L 173.278878 -143.029539 
L 173.786998 -143.027954 
L 174.295117 -143.02611 
L 174.803237 -143.024018 
L 175.311357 -143.021686 
L 175.819476 -143.019126 
L 176.327596 -143.016345 
L 176.835715 -143.013355 
L 177.343835 -143.010162 
L 177.851954 -143.006777 
L 178.360074 -143.003207 
L 178.868194 -142.999462 
L 179.376313 -142.995548 
L 179.884433 -142.991474 
L 180.392552 -142.987248 
L 180.900672 -142.982876 
L 181.408792 -142.978366 
L 181.916911 -142.973725 
L 182.425031 -142.96896 
L 182.93315 -142.964077 
L 183.44127 -142.959083 
L 183.94939 -142.953984 
L 184.457509 -142.948786 
L 184.965629 -142.943495 
L 185.473748 -142.938116 
L 185.981868 -142.932656 
L 186.489988 -142.927118 
L 186.998107 -142.921509 
L 187.506227 -142.915834 
L 188.014346 -142.910097 
L 188.522466 -142.904304 
L 189.030586 -142.898458 
L 189.538705 -142.892564 
L 190.046825 -142.886626 
L 190.554944 -142.880649 
L 191.063064 -142.874636 
L 191.571184 -142.868592 
L 192.079303 -142.862519 
L 192.587423 -142.856423 
L 193.095542 -142.850305 
L 193.603662 -142.84417 
L 194.111781 -142.838021 
L 194.619901 -142.83186 
L 195.128021 -142.825691 
L 195.63614 -142.819517 
L 196.14426 -142.81334 
L 196.652379 -142.807164 
L 197.160499 -142.80099 
L 197.668619 -142.794822 
L 198.176738 -142.788661 
L 198.684858 -142.782511 
L 199.192977 -142.776372 
L 199.701097 -142.770247 
L 200.209217 -142.764139 
L 200.717336 -142.758049 
L 201.225456 -142.75198 
L 201.733575 -142.745932 
L 202.241695 -142.739907 
L 202.749815 -142.733908 
L 203.257934 -142.727935 
L 203.766054 -142.721991 
L 204.274173 -142.716077 
L 204.782293 -142.710193 
L 205.290413 -142.704342 
L 205.798532 -142.698524 
L 206.306652 -142.692741 
L 206.814771 -142.686993 
L 207.322891 -142.681282 
L 207.83101 -142.675609 
L 208.33913 -142.669975 
L 208.84725 -142.664381 
L 209.355369 -142.658826 
L 209.863489 -142.653313 
L 210.371608 -142.647842 
L 210.879728 -142.642413 
L 211.387848 -142.637028 
L 211.895967 -142.631686 
L 212.404087 -142.626389 
L 212.912206 -142.621137 
L 213.420326 -142.61593 
L 213.928446 -142.610768 
L 214.436565 -142.605653 
L 214.944685 -142.600584 
L 215.452804 -142.595563 
L 215.960924 -142.590588 
L 216.469044 -142.585661 
L 216.977163 -142.580781 
L 217.485283 -142.575949 
L 217.993402 -142.571165 
L 218.501522 -142.56643 
L 219.009642 -142.561742 
L 219.517761 -142.557103 
L 220.025881 -142.552512 
L 220.534 -142.54797 
L 221.04212 -142.543476 
L 221.55024 -142.539031 
L 222.058359 -142.534634 
L 222.566479 -142.530285 
L 223.074598 -142.525985 
L 223.582718 -142.521733 
L 224.090837 -142.517529 
L 224.598957 -142.513373 
L 225.107077 -142.509266 
L 225.615196 -142.505205 
L 226.123316 -142.501193 
L 226.631435 -142.497228 
L 227.139555 -142.49331 
L 227.647675 -142.489439 
L 228.155794 -142.485615 
L 228.663914 -142.481837 
L 229.172033 -142.478106 
L 229.680153 -142.474421 
L 230.188273 -142.470781 
L 230.696392 -142.467187 
L 231.204512 -142.463639 
L 231.712631 -142.460135 
L 232.220751 -142.456676 
L 232.728871 -142.453261 
L 233.23699 -142.449891 
L 233.74511 -142.446564 
L 234.253229 -142.44328 
L 234.761349 -142.44004 
L 235.269469 -142.436842 
L 235.777588 -142.433687 
L 236.285708 -142.430574 
L 236.793827 -142.427502 
L 237.301947 -142.424472 
L 237.810066 -142.421483 
L 238.318186 -142.418534 
L 238.826306 -142.415626 
L 239.334425 -142.412757 
L 239.842545 -142.409928 
L 240.350664 -142.407139 
L 240.858784 -142.404388 
L 241.366904 -142.401675 
L 241.875023 -142.399 
L 242.383143 -142.396363 
L 242.891262 -142.393763 
L 243.399382 -142.3912 
L 243.907502 -142.388674 
L 244.415621 -142.386183 
L 244.923741 -142.383729 
L 245.43186 -142.381309 
L 245.93998 -142.378925 
L 246.4481 -142.376575 
L 246.956219 -142.374259 
L 247.464339 -142.371977 
L 247.972458 -142.369728 
L 248.480578 -142.367513 
L 248.988698 -142.36533 
L 249.496817 -142.363179 
L 250.004937 -142.36106 
L 250.513056 -142.358973 
L 251.021176 -142.356916 
L 251.529296 -142.354891 
L 252.037415 -142.352896 
L 252.545535 -142.350931 
L 253.053654 -142.348995 
L 253.561774 -142.347089 
L 254.069893 -142.345212 
L 254.578013 -142.343363 
L 255.086133 -142.341542 
L 255.594252 -142.339749 
L 256.102372 -142.337984 
L 256.610491 -142.336246 
L 257.118611 -142.334534 
L 257.626731 -142.332849 
L 258.13485 -142.33119 
L 258.64297 -142.329557 
L 259.151089 -142.327949 
L 259.659209 -142.326366 
L 260.167329 -142.324808 
L 260.675448 -142.323275 
L 261.183568 -142.321765 
L 261.691687 -142.320279 
L 262.199807 -142.318816 
L 262.707927 -142.317377 
L 263.216046 -142.31596 
L 263.724166 -142.314566 
L 264.232285 -142.313194 
L 264.740405 -142.311843 
L 265.248525 -142.310515 
L 265.756644 -142.309207 
L 266.264764 -142.30792 
L 266.772883 -142.306654 
L 267.281003 -142.305408 
L 267.789122 -142.304183 
L 268.297242 -142.302977 
L 268.805362 -142.30179 
L 269.313481 -142.300623 
L 269.821601 -142.299475 
L 270.32972 -142.298345 
L 270.83784 -142.297234 
L 271.34596 -142.29614 
L 271.854079 -142.295065 
L 272.362199 -142.294007 
L 272.870318 -142.292966 
L 273.378438 -142.291943 
L 273.886558 -142.290936 
L 274.394677 -142.289946 
L 274.902797 -142.288972 
L 275.410916 -142.288014 
L 275.919036 -142.287072 
L 276.427156 -142.286145 
L 276.935275 -142.285234 
L 277.443395 -142.284338 
L 277.951514 -142.283457 
L 278.459634 -142.28259 
L 278.967754 -142.281738 
L 279.475873 -142.2809 
L 279.983993 -142.280077 
L 280.492112 -142.279266 
L 281.000232 -142.27847 
L 281.508352 -142.277687 
L 282.016471 -142.276917 
L 282.524591 -142.276159 
L 283.03271 -142.275415 
L 283.54083 -142.274683 
L 284.048949 -142.273963 
L 284.557069 -142.273256 
L 285.065189 -142.272561 
L 285.573308 -142.271877 
L 286.081428 -142.271205 
L 286.589547 -142.270544 
L 287.097667 -142.269895 
L 287.605787 -142.269256 
L 288.113906 -142.268629 
L 288.622026 -142.268012 
L 289.130145 -142.267405 
L 289.638265 -142.266809 
L 290.146385 -142.266223 
L 290.654504 -142.265648 
L 291.162624 -142.265082 
L 291.670743 -142.264525 
L 292.178863 -142.263979 
L 292.686983 -142.263441 
L 293.195102 -142.262913 
L 293.703222 -142.262394 
L 294.211341 -142.261884 
L 294.719461 -142.261383 
L 295.227581 -142.26089 
L 295.7357 -142.260406 
L 296.24382 -142.25993 
L 296.751939 -142.259463 
L 297.260059 -142.259004 
L 297.768178 -142.258552 
L 298.276298 -142.258109 
L 298.784418 -142.257673 
L 299.292537 -142.257244 
L 299.800657 -142.256823 
L 300.308776 -142.25641 
L 300.816896 -142.256004 
L 301.325016 -142.255604 
L 301.833135 -142.255212 
L 302.341255 -142.254827 
L 302.849374 -142.254448 
L 303.357494 -142.254076 
L 303.865614 -142.25371 
L 304.373733 -142.253351 
L 304.881853 -142.252999 
L 305.389972 -142.252652 
L 305.898092 -142.252311 
L 306.406212 -142.251977 
L 306.914331 -142.251648 
L 307.422451 -142.251325 
L 307.93057 -142.251008 
L 308.43869 -142.250697 
L 308.94681 -142.250391 
L 309.454929 -142.25009 
L 309.963049 -142.249795 
L 310.471168 -142.249504 
L 310.979288 -142.249219 
L 311.487408 -142.248939 
L 311.995527 -142.248664 
L 312.503647 -142.248394 
L 313.011766 -142.248129 
L 313.519886 -142.247869 
L 314.028005 -142.247613 
L 314.536125 -142.247361 
L 315.044245 -142.247114 
L 315.552364 -142.246872 
L 316.060484 -142.246633 
L 316.568603 -142.2464 
L 317.076723 -142.24617 
L 317.584843 -142.245944 
L 318.092962 -142.245722 
L 318.601082 -142.245505 
L 319.109201 -142.245291 
L 319.617321 -142.245081 
L 320.125441 -142.244875 
L 320.63356 -142.244672 
L 321.14168 -142.244473 
L 321.649799 -142.244278 
L 322.157919 -142.244086 
L 322.666039 -142.243898 
L 323.174158 -142.243713 
L 323.682278 -142.243531 
L 324.190397 -142.243353 
L 324.698517 -142.243178 
L 325.206637 -142.243006 
L 325.714756 -142.242837 
L 326.222876 -142.242671 
L 326.730995 -142.242508 
L 327.239115 -142.242348 
L 327.747235 -142.242191 
L 328.255354 -142.242037 
L 328.763474 -142.241886 
L 329.271593 -142.241737 
L 329.779713 -142.241591 
L 330.287832 -142.241448 
L 330.795952 -142.241307 
L 331.304072 -142.241169 
L 331.812191 -142.241033 
L 332.320311 -142.2409 
L 332.82843 -142.240769 
L 333.33655 -142.240641 
L 333.84467 -142.240515 
L 334.352789 -142.240391 
L 334.860909 -142.24027 
L 335.369028 -142.24015 
L 335.877148 -142.240033 
L 336.385268 -142.239918 
L 336.893387 -142.239805 
L 337.401507 -142.239695 
L 337.909626 -142.239586 
L 338.417746 -142.239479 
L 338.925866 -142.239374 
L 339.433985 -142.239271 
L 339.942105 -142.23917 
L 340.450224 -142.239071 
L 340.958344 -142.238973 
L 341.466464 -142.238878 
L 341.974583 -142.238784 
L 342.482703 -142.238692 
L 342.990822 -142.238601 
L 343.498942 -142.238513 
L 344.007061 -142.238425 
L 344.515181 -142.23834 
L 345.023301 -142.238256 
L 345.53142 -142.238173 
L 346.03954 -142.238092 
L 346.547659 -142.238013 
L 347.055779 -142.237935 
L 347.563899 -142.237859 
L 348.072018 -142.237783 
L 348.580138 -142.23771 
L 349.088257 -142.237637 
L 349.596377 -142.237566 
L 350.104497 -142.237496 
L 350.612616 -142.237428 
L 351.120736 -142.237361 
L 351.628855 -142.237295 
L 352.136975 -142.23723 
L 352.645095 -142.237167 
L 353.153214 -142.237104 
L 353.661334 -142.237043 
L 354.169453 -142.236983 
L 354.677573 -142.236924 
L 355.185693 -142.236866 
L 355.693812 -142.236809 
L 356.201932 -142.236754 
L 356.710051 -142.236699 
L 357.218171 -142.236645 
L 357.726291 -142.236593 
L 358.23441 -142.236541 
L 358.74253 -142.23649 
L 359.250649 -142.23644 
L 359.758769 -142.236391 
L 360.266888 -142.236343 
L 360.775008 -142.236296 
L 361.283128 -142.23625 
L 361.791247 -142.236205 
L 362.299367 -142.23616 
L 362.807486 -142.236117 
L 363.315606 -142.236074 
L 363.823726 -142.236032 
L 364.331845 -142.23599 
L 364.839965 -142.23595 
L 365.348084 -142.23591 
L 365.856204 -142.235871 
L 366.364324 -142.235833 
L 366.872443 -142.235795 
L 366.872443 -87.013399 
L 366.872443 -87.013399 
L 366.364324 -87.013437 
L 365.856204 -87.013475 
L 365.348084 -87.013514 
L 364.839965 -87.013554 
L 364.331845 -87.013595 
L 363.823726 -87.013636 
L 363.315606 -87.013678 
L 362.807486 -87.013721 
L 362.299367 -87.013765 
L 361.791247 -87.01381 
L 361.283128 -87.013855 
L 360.775008 -87.013901 
L 360.266888 -87.013949 
L 359.758769 -87.013997 
L 359.250649 -87.014046 
L 358.74253 -87.014096 
L 358.23441 -87.014147 
L 357.726291 -87.014199 
L 357.218171 -87.014251 
L 356.710051 -87.014305 
L 356.201932 -87.01436 
L 355.693812 -87.014416 
L 355.185693 -87.014473 
L 354.677573 -87.014531 
L 354.169453 -87.01459 
L 353.661334 -87.014651 
L 353.153214 -87.014712 
L 352.645095 -87.014775 
L 352.136975 -87.014839 
L 351.628855 -87.014904 
L 351.120736 -87.01497 
L 350.612616 -87.015037 
L 350.104497 -87.015106 
L 349.596377 -87.015176 
L 349.088257 -87.015247 
L 348.580138 -87.01532 
L 348.072018 -87.015394 
L 347.563899 -87.01547 
L 347.055779 -87.015547 
L 346.547659 -87.015625 
L 346.03954 -87.015705 
L 345.53142 -87.015786 
L 345.023301 -87.015869 
L 344.515181 -87.015954 
L 344.007061 -87.01604 
L 343.498942 -87.016127 
L 342.990822 -87.016217 
L 342.482703 -87.016308 
L 341.974583 -87.0164 
L 341.466464 -87.016495 
L 340.958344 -87.016591 
L 340.450224 -87.016689 
L 339.942105 -87.016789 
L 339.433985 -87.016891 
L 338.925866 -87.016994 
L 338.417746 -87.0171 
L 337.909626 -87.017207 
L 337.401507 -87.017317 
L 336.893387 -87.017429 
L 336.385268 -87.017542 
L 335.877148 -87.017658 
L 335.369028 -87.017776 
L 334.860909 -87.017897 
L 334.352789 -87.018019 
L 333.84467 -87.018144 
L 333.33655 -87.018271 
L 332.82843 -87.0184 
L 332.320311 -87.018532 
L 331.812191 -87.018667 
L 331.304072 -87.018804 
L 330.795952 -87.018943 
L 330.287832 -87.019085 
L 329.779713 -87.01923 
L 329.271593 -87.019377 
L 328.763474 -87.019527 
L 328.255354 -87.01968 
L 327.747235 -87.019836 
L 327.239115 -87.019995 
L 326.730995 -87.020156 
L 326.222876 -87.020321 
L 325.714756 -87.020488 
L 325.206637 -87.020659 
L 324.698517 -87.020833 
L 324.190397 -87.02101 
L 323.682278 -87.021191 
L 323.174158 -87.021375 
L 322.666039 -87.021562 
L 322.157919 -87.021753 
L 321.649799 -87.021947 
L 321.14168 -87.022145 
L 320.63356 -87.022346 
L 320.125441 -87.022552 
L 319.617321 -87.022761 
L 319.109201 -87.022974 
L 318.601082 -87.02319 
L 318.092962 -87.023411 
L 317.584843 -87.023636 
L 317.076723 -87.023865 
L 316.568603 -87.024099 
L 316.060484 -87.024336 
L 315.552364 -87.024578 
L 315.044245 -87.024825 
L 314.536125 -87.025076 
L 314.028005 -87.025332 
L 313.519886 -87.025592 
L 313.011766 -87.025857 
L 312.503647 -87.026127 
L 311.995527 -87.026402 
L 311.487408 -87.026683 
L 310.979288 -87.026968 
L 310.471168 -87.027258 
L 309.963049 -87.027554 
L 309.454929 -87.027855 
L 308.94681 -87.028162 
L 308.43869 -87.028475 
L 307.93057 -87.028793 
L 307.422451 -87.029117 
L 306.914331 -87.029447 
L 306.406212 -87.029783 
L 305.898092 -87.030125 
L 305.389972 -87.030474 
L 304.881853 -87.030829 
L 304.373733 -87.03119 
L 303.865614 -87.031558 
L 303.357494 -87.031933 
L 302.849374 -87.032314 
L 302.341255 -87.032703 
L 301.833135 -87.033099 
L 301.325016 -87.033501 
L 300.816896 -87.033912 
L 300.308776 -87.034329 
L 299.800657 -87.034755 
L 299.292537 -87.035188 
L 298.784418 -87.035629 
L 298.276298 -87.036078 
L 297.768178 -87.036535 
L 297.260059 -87.037001 
L 296.751939 -87.037475 
L 296.24382 -87.037958 
L 295.7357 -87.03845 
L 295.227581 -87.03895 
L 294.719461 -87.03946 
L 294.211341 -87.039979 
L 293.703222 -87.040507 
L 293.195102 -87.041045 
L 292.686983 -87.041593 
L 292.178863 -87.04215 
L 291.670743 -87.042718 
L 291.162624 -87.043296 
L 290.654504 -87.043885 
L 290.146385 -87.044484 
L 289.638265 -87.045094 
L 289.130145 -87.045716 
L 288.622026 -87.046348 
L 288.113906 -87.046992 
L 287.605787 -87.047648 
L 287.097667 -87.048315 
L 286.589547 -87.048995 
L 286.081428 -87.049687 
L 285.573308 -87.050391 
L 285.065189 -87.051109 
L 284.557069 -87.051839 
L 284.048949 -87.052582 
L 283.54083 -87.053339 
L 283.03271 -87.05411 
L 282.524591 -87.054894 
L 282.016471 -87.055693 
L 281.508352 -87.056506 
L 281.000232 -87.057334 
L 280.492112 -87.058176 
L 279.983993 -87.059034 
L 279.475873 -87.059908 
L 278.967754 -87.060797 
L 278.459634 -87.061702 
L 277.951514 -87.062624 
L 277.443395 -87.063562 
L 276.935275 -87.064517 
L 276.427156 -87.06549 
L 275.919036 -87.066479 
L 275.410916 -87.067487 
L 274.902797 -87.068513 
L 274.394677 -87.069557 
L 273.886558 -87.070621 
L 273.378438 -87.071703 
L 272.870318 -87.072805 
L 272.362199 -87.073926 
L 271.854079 -87.075068 
L 271.34596 -87.07623 
L 270.83784 -87.077414 
L 270.32972 -87.078618 
L 269.821601 -87.079845 
L 269.313481 -87.081093 
L 268.805362 -87.082364 
L 268.297242 -87.083657 
L 267.789122 -87.084974 
L 267.281003 -87.086315 
L 266.772883 -87.087679 
L 266.264764 -87.089068 
L 265.756644 -87.090482 
L 265.248525 -87.091922 
L 264.740405 -87.093387 
L 264.232285 -87.094879 
L 263.724166 -87.096397 
L 263.216046 -87.097943 
L 262.707927 -87.099517 
L 262.199807 -87.101119 
L 261.691687 -87.102749 
L 261.183568 -87.104409 
L 260.675448 -87.106099 
L 260.167329 -87.107819 
L 259.659209 -87.10957 
L 259.151089 -87.111352 
L 258.64297 -87.113166 
L 258.13485 -87.115013 
L 257.626731 -87.116894 
L 257.118611 -87.118807 
L 256.610491 -87.120756 
L 256.102372 -87.122739 
L 255.594252 -87.124758 
L 255.086133 -87.126813 
L 254.578013 -87.128905 
L 254.069893 -87.131035 
L 253.561774 -87.133203 
L 253.053654 -87.135409 
L 252.545535 -87.137656 
L 252.037415 -87.139943 
L 251.529296 -87.142271 
L 251.021176 -87.144641 
L 250.513056 -87.147053 
L 250.004937 -87.149509 
L 249.496817 -87.152009 
L 248.988698 -87.154554 
L 248.480578 -87.157144 
L 247.972458 -87.159782 
L 247.464339 -87.162466 
L 246.956219 -87.165199 
L 246.4481 -87.167981 
L 245.93998 -87.170814 
L 245.43186 -87.173697 
L 244.923741 -87.176632 
L 244.415621 -87.17962 
L 243.907502 -87.182662 
L 243.399382 -87.185759 
L 242.891262 -87.188912 
L 242.383143 -87.192121 
L 241.875023 -87.195389 
L 241.366904 -87.198715 
L 240.858784 -87.202101 
L 240.350664 -87.205549 
L 239.842545 -87.209058 
L 239.334425 -87.212631 
L 238.826306 -87.216269 
L 238.318186 -87.219973 
L 237.810066 -87.223743 
L 237.301947 -87.227582 
L 236.793827 -87.23149 
L 236.285708 -87.235468 
L 235.777588 -87.239519 
L 235.269469 -87.243644 
L 234.761349 -87.247843 
L 234.253229 -87.252118 
L 233.74511 -87.25647 
L 233.23699 -87.260902 
L 232.728871 -87.265414 
L 232.220751 -87.270008 
L 231.712631 -87.274686 
L 231.204512 -87.279448 
L 230.696392 -87.284297 
L 230.188273 -87.289235 
L 229.680153 -87.294262 
L 229.172033 -87.299381 
L 228.663914 -87.304593 
L 228.155794 -87.3099 
L 227.647675 -87.315304 
L 227.139555 -87.320807 
L 226.631435 -87.32641 
L 226.123316 -87.332115 
L 225.615196 -87.337925 
L 225.107077 -87.343841 
L 224.598957 -87.349865 
L 224.090837 -87.356 
L 223.582718 -87.362247 
L 223.074598 -87.368608 
L 222.566479 -87.375086 
L 222.058359 -87.381684 
L 221.55024 -87.388402 
L 221.04212 -87.395244 
L 220.534 -87.402211 
L 220.025881 -87.409307 
L 219.517761 -87.416534 
L 219.009642 -87.423893 
L 218.501522 -87.431388 
L 217.993402 -87.439022 
L 217.485283 -87.446796 
L 216.977163 -87.454714 
L 216.469044 -87.462779 
L 215.960924 -87.470992 
L 215.452804 -87.479358 
L 214.944685 -87.487879 
L 214.436565 -87.496557 
L 213.928446 -87.505396 
L 213.420326 -87.5144 
L 212.912206 -87.523571 
L 212.404087 -87.532912 
L 211.895967 -87.542426 
L 211.387848 -87.552118 
L 210.879728 -87.561991 
L 210.371608 -87.572047 
L 209.863489 -87.582291 
L 209.355369 -87.592726 
L 208.84725 -87.603355 
L 208.33913 -87.614184 
L 207.83101 -87.625215 
L 207.322891 -87.636452 
L 206.814771 -87.6479 
L 206.306652 -87.659562 
L 205.798532 -87.671443 
L 205.290413 -87.683547 
L 204.782293 -87.695878 
L 204.274173 -87.70844 
L 203.766054 -87.721239 
L 203.257934 -87.734279 
L 202.749815 -87.747564 
L 202.241695 -87.761099 
L 201.733575 -87.77489 
L 201.225456 -87.788941 
L 200.717336 -87.803256 
L 200.209217 -87.817842 
L 199.701097 -87.832704 
L 199.192977 -87.847847 
L 198.684858 -87.863276 
L 198.176738 -87.878997 
L 197.668619 -87.895016 
L 197.160499 -87.911339 
L 196.652379 -87.927971 
L 196.14426 -87.944919 
L 195.63614 -87.962189 
L 195.128021 -87.979786 
L 194.619901 -87.997718 
L 194.111781 -88.015991 
L 193.603662 -88.034611 
L 193.095542 -88.053586 
L 192.587423 -88.072922 
L 192.079303 -88.092626 
L 191.571184 -88.112706 
L 191.063064 -88.133169 
L 190.554944 -88.154022 
L 190.046825 -88.175272 
L 189.538705 -88.196929 
L 189.030586 -88.218999 
L 188.522466 -88.24149 
L 188.014346 -88.264411 
L 187.506227 -88.287771 
L 186.998107 -88.311576 
L 186.489988 -88.335837 
L 185.981868 -88.360562 
L 185.473748 -88.38576 
L 184.965629 -88.41144 
L 184.457509 -88.437612 
L 183.94939 -88.464284 
L 183.44127 -88.491467 
L 182.93315 -88.519171 
L 182.425031 -88.547405 
L 181.916911 -88.576179 
L 181.408792 -88.605504 
L 180.900672 -88.635391 
L 180.392552 -88.665851 
L 179.884433 -88.696893 
L 179.376313 -88.72853 
L 178.868194 -88.760772 
L 178.360074 -88.793631 
L 177.851954 -88.827119 
L 177.343835 -88.861248 
L 176.835715 -88.89603 
L 176.327596 -88.931477 
L 175.819476 -88.967602 
L 175.311357 -89.004417 
L 174.803237 -89.041936 
L 174.295117 -89.080171 
L 173.786998 -89.119136 
L 173.278878 -89.158845 
L 172.770759 -89.199311 
L 172.262639 -89.240549 
L 171.754519 -89.282572 
L 171.2464 -89.325396 
L 170.73828 -89.369034 
L 170.230161 -89.413503 
L 169.722041 -89.458816 
L 169.213921 -89.504991 
L 168.705802 -89.552041 
L 168.197682 -89.599984 
L 167.689563 -89.648835 
L 167.181443 -89.698611 
L 166.673323 -89.749328 
L 166.165204 -89.801003 
L 165.657084 -89.853654 
L 165.148965 -89.907297 
L 164.640845 -89.961951 
L 164.132725 -90.017632 
L 163.624606 -90.074361 
L 163.116486 -90.132153 
L 162.608367 -90.19103 
L 162.100247 -90.251008 
L 161.592128 -90.312107 
L 161.084008 -90.374347 
L 160.575888 -90.437748 
L 160.067769 -90.502328 
L 159.559649 -90.568109 
L 159.05153 -90.63511 
L 158.54341 -90.703352 
L 158.03529 -90.772856 
L 157.527171 -90.843643 
L 157.019051 -90.915735 
L 156.510932 -90.989153 
L 156.002812 -91.063919 
L 155.494692 -91.140054 
L 154.986573 -91.217582 
L 154.478453 -91.296525 
L 153.970334 -91.376905 
L 153.462214 -91.458745 
L 152.954094 -91.54207 
L 152.445975 -91.626901 
L 151.937855 -91.713264 
L 151.429736 -91.801181 
L 150.921616 -91.890677 
L 150.413496 -91.981776 
L 149.905377 -92.074503 
L 149.397257 -92.168882 
L 148.889138 -92.264939 
L 148.381018 -92.362697 
L 147.872898 -92.462184 
L 147.364779 -92.563423 
L 146.856659 -92.66644 
L 146.34854 -92.771262 
L 145.84042 -92.877914 
L 145.332301 -92.986423 
L 144.824181 -93.096813 
L 144.316061 -93.209112 
L 143.807942 -93.323346 
L 143.299822 -93.439542 
L 142.791703 -93.557726 
L 142.283583 -93.677924 
L 141.775463 -93.800165 
L 141.267344 -93.924473 
L 140.759224 -94.050876 
L 140.251105 -94.179402 
L 139.742985 -94.310077 
L 139.234865 -94.442927 
L 138.726746 -94.57798 
L 138.218626 -94.715263 
L 137.710507 -94.854803 
L 137.202387 -94.996625 
L 136.694267 -95.140758 
L 136.186148 -95.287227 
L 135.678028 -95.436059 
L 135.169909 -95.587281 
L 134.661789 -95.740919 
L 134.153669 -95.896998 
L 133.64555 -96.055545 
L 133.13743 -96.216586 
L 132.629311 -96.380145 
L 132.121191 -96.546249 
L 131.613072 -96.714921 
L 131.104952 -96.886187 
L 130.596832 -97.060071 
L 130.088713 -97.236597 
L 129.580593 -97.415788 
L 129.072474 -97.597668 
L 128.564354 -97.782259 
L 128.056234 -97.969583 
L 127.548115 -98.159662 
L 127.039995 -98.352518 
L 126.531876 -98.548172 
L 126.023756 -98.746642 
L 125.515636 -98.947949 
L 125.007517 -99.152111 
L 124.499397 -99.359147 
L 123.991278 -99.569074 
L 123.483158 -99.781908 
L 122.975038 -99.997666 
L 122.466919 -100.216362 
L 121.958799 -100.43801 
L 121.45068 -100.662624 
L 120.94256 -100.890216 
L 120.43444 -101.120796 
L 119.926321 -101.354375 
L 119.418201 -101.590962 
L 118.910082 -101.830566 
L 118.401962 -102.073191 
L 117.893842 -102.318845 
L 117.385723 -102.567531 
L 116.877603 -102.819251 
L 116.369484 -103.074009 
L 115.861364 -103.331802 
L 115.353245 -103.592631 
L 114.845125 -103.856492 
L 114.337005 -104.12338 
L 113.828886 -104.393289 
L 113.320766 -104.666211 
L 112.812647 -104.942136 
L 112.304527 -105.221054 
L 111.796407 -105.50295 
L 111.288288 -105.787809 
L 110.780168 -106.075613 
L 110.272049 -106.366344 
L 109.763929 -106.65998 
L 109.255809 -106.956496 
L 108.74769 -107.255868 
L 108.23957 -107.558067 
L 107.731451 -107.863061 
L 107.223331 -108.170819 
L 106.715211 -108.481305 
L 106.207092 -108.79448 
L 105.698972 -109.110304 
L 105.190853 -109.428733 
L 104.682733 -109.749721 
L 104.174613 -110.073219 
L 103.666494 -110.399175 
L 103.158374 -110.727535 
L 102.650255 -111.05824 
L 102.142135 -111.391229 
L 101.634015 -111.726439 
L 101.125896 -112.063801 
L 100.617776 -112.403246 
L 100.109657 -112.744699 
L 99.601537 -113.088083 
L 99.093418 -113.433316 
L 98.585298 -113.780316 
L 98.077178 -114.128992 
L 97.569059 -114.479254 
L 97.060939 -114.831007 
L 96.55282 -115.184151 
L 96.0447 -115.538582 
L 95.53658 -115.894194 
L 95.028461 -116.250877 
L 94.520341 -116.608514 
L 94.012222 -116.966988 
L 93.504102 -117.326174 
L 92.995982 -117.685945 
L 92.487863 -118.046171 
L 91.979743 -118.406714 
L 91.471624 -118.767436 
L 90.963504 -119.12819 
L 90.455384 -119.488829 
L 89.947265 -119.849199 
L 89.439145 -120.209141 
L 88.931026 -120.568493 
L 88.422906 -120.927086 
L 87.914786 -121.284637 
L 87.406667 -120.986765 
L 86.898547 -120.628316 
L 86.390428 -120.269079 
L 85.882308 -119.909223 
L 85.374189 -119.548913 
L 84.866069 -119.188309 
L 84.357949 -118.827563 
L 83.84983 -118.466826 
L 83.34171 -118.106243 
L 82.833591 -117.745955 
L 82.325471 -117.386099 
L 81.817351 -117.026806 
L 81.309232 -116.668205 
L 80.801112 -116.31042 
L 80.292993 -115.95357 
L 79.784873 -115.597772 
L 79.276753 -115.243136 
L 78.768634 -114.88977 
L 78.260514 -114.537779 
L 77.752395 -114.187262 
L 77.244275 -113.838314 
L 76.736155 -113.491029 
L 76.228036 -113.145495 
L 75.719916 -112.801798 
L 75.211797 -112.460017 
L 74.703677 -112.120233 
L 74.195557 -111.782518 
L 73.687438 -111.446945 
L 73.179318 -111.113581 
L 72.671199 -110.782491 
L 72.163079 -110.453736 
L 71.654959 -110.127376 
L 71.14684 -109.803464 
L 70.63872 -109.482054 
L 70.130601 -109.163195 
L 69.622481 -108.846934 
L 69.114362 -108.533315 
L 68.606242 -108.222379 
L 68.098122 -107.914164 
L 67.590003 -107.608706 
L 67.081883 -107.306039 
L 66.573764 -107.006194 
L 66.065644 -106.7092 
L 65.557524 -106.415082 
L 65.049405 -106.123866 
L 64.541285 -105.835572 
L 64.033166 -105.550221 
L 63.525046 -105.26783 
L 63.016926 -104.988415 
L 62.508807 -104.71199 
z
" id="m7af559e6c7" style="stroke:#808080;stroke-opacity:0.3;stroke-width:0.24;"/>
    </defs>
    <g clip-path="url(#p5cd048360c)">
     <use style="fill:#808080;fill-opacity:0.3;stroke:#808080;stroke-opacity:0.3;stroke-width:0.24;" x="0" xlink:href="#m7af559e6c7" y="269.924375"/>
    </g>
   </g>
   <g id="matplotlib.axis_1">
    <g id="xtick_1">
     <g id="line2d_1">
      <path clip-path="url(#p5cd048360c)" d="M 62.508807 224.64 
L 62.508807 7.2 
" style="fill:none;stroke:#b0b0b0;stroke-linecap:square;stroke-opacity:0.25;stroke-width:0.8;"/>
     </g>
     <g id="line2d_2">
      <defs>
       <path d="M 0 0 
L 0 3.5 
" id="m2997c16333" style="stroke:#808080;stroke-width:0.8;"/>
      </defs>
      <g>
       <use style="fill:#808080;stroke:#808080;stroke-width:0.8;" x="62.508807" xlink:href="#m2997c16333" y="224.64"/>
      </g>
     </g>
     <g id="text_1">
      <!-- 0 -->
      <defs>
       <path d="M 5 34.703125 
Q 5 52.09375 11.140625 61.5 
Q 17.296875 70.90625 28.203125 70.90625 
Q 39.09375 70.90625 45.25 61.5 
Q 51.40625 52.09375 51.40625 34.703125 
Q 51.40625 17.296875 45.25 7.890625 
Q 39.09375 -1.5 28.203125 -1.5 
Q 17.296875 -1.5 11.140625 7.890625 
Q 5 17.296875 5 34.703125 
z
M 41.59375 34.703125 
Q 41.59375 40.40625 40.9375 45.5 
Q 40.296875 50.59375 38.75 54.390625 
Q 37.203125 58.203125 34.59375 60.453125 
Q 32 62.703125 28.203125 62.703125 
Q 24.40625 62.703125 21.796875 60.453125 
Q 19.203125 58.203125 17.640625 54.390625 
Q 16.09375 50.59375 15.4375 45.5 
Q 14.796875 40.40625 14.796875 34.703125 
Q 14.796875 29 15.4375 23.890625 
Q 16.09375 18.796875 17.640625 15 
Q 19.203125 11.203125 21.796875 8.953125 
Q 24.40625 6.703125 28.203125 6.703125 
Q 32 6.703125 34.59375 8.953125 
Q 37.203125 11.203125 38.75 15 
Q 40.296875 18.796875 40.9375 23.890625 
Q 41.59375 29 41.59375 34.703125 
z
" id="Ubuntu-48"/>
      </defs>
      <g transform="translate(59.124432 243.05125)scale(0.12 -0.12)">
       <use xlink:href="#Ubuntu-48"/>
      </g>
     </g>
    </g>
    <g id="xtick_2">
     <g id="line2d_3">
      <path clip-path="url(#p5cd048360c)" d="M 113.23608 224.64 
L 113.23608 7.2 
" style="fill:none;stroke:#b0b0b0;stroke-linecap:square;stroke-opacity:0.25;stroke-width:0.8;"/>
     </g>
     <g id="line2d_4">
      <g>
       <use style="fill:#808080;stroke:#808080;stroke-width:0.8;" x="113.23608" xlink:href="#m2997c16333" y="224.64"/>
      </g>
     </g>
     <g id="text_2">
      <!-- 1 -->
      <defs>
       <path d="M 9.296875 55 
Q 15 57.203125 20.390625 60.640625 
Q 25.796875 64.09375 30.296875 69.296875 
L 36.90625 69.296875 
L 36.90625 0 
L 27.59375 0 
L 27.59375 56.40625 
Q 26.40625 55.296875 24.65625 54.09375 
Q 22.90625 52.90625 20.84375 51.796875 
Q 18.796875 50.703125 16.546875 49.703125 
Q 14.296875 48.703125 12.203125 48 
z
" id="Ubuntu-49"/>
      </defs>
      <g transform="translate(109.851705 243.05125)scale(0.12 -0.12)">
       <use xlink:href="#Ubuntu-49"/>
      </g>
     </g>
    </g>
    <g id="xtick_3">
     <g id="line2d_5">
      <path clip-path="url(#p5cd048360c)" d="M 163.963352 224.64 
L 163.963352 7.2 
" style="fill:none;stroke:#b0b0b0;stroke-linecap:square;stroke-opacity:0.25;stroke-width:0.8;"/>
     </g>
     <g id="line2d_6">
      <g>
       <use style="fill:#808080;stroke:#808080;stroke-width:0.8;" x="163.963352" xlink:href="#m2997c16333" y="224.64"/>
      </g>
     </g>
     <g id="text_3">
      <!-- 2 -->
      <defs>
       <path d="M 46.703125 51.59375 
Q 46.703125 48 45.25 44.640625 
Q 43.796875 41.296875 41.390625 38.046875 
Q 39 34.796875 36 31.640625 
Q 33 28.5 30 25.5 
Q 28.296875 23.796875 26.046875 21.5 
Q 23.796875 19.203125 21.796875 16.703125 
Q 19.796875 14.203125 18.4375 11.890625 
Q 17.09375 9.59375 17.09375 7.90625 
L 49 7.90625 
L 49 0 
L 7 0 
Q 6.90625 0.59375 6.90625 1.1875 
Q 6.90625 1.796875 6.90625 2.296875 
Q 6.90625 7 8.453125 11.046875 
Q 10 15.09375 12.5 18.6875 
Q 15 22.296875 18.09375 25.5 
Q 21.203125 28.703125 24.203125 31.703125 
Q 26.703125 34.09375 28.953125 36.4375 
Q 31.203125 38.796875 32.953125 41.140625 
Q 34.703125 43.5 35.75 46 
Q 36.796875 48.5 36.796875 51.296875 
Q 36.796875 54.296875 35.84375 56.390625 
Q 34.90625 58.5 33.296875 59.890625 
Q 31.703125 61.296875 29.546875 61.9375 
Q 27.40625 62.59375 25 62.59375 
Q 22.09375 62.59375 19.6875 61.796875 
Q 17.296875 61 15.390625 59.953125 
Q 13.5 58.90625 12.203125 57.75 
Q 10.90625 56.59375 10.203125 56 
L 5.59375 62.59375 
Q 6.5 63.59375 8.296875 65.046875 
Q 10.09375 66.5 12.59375 67.796875 
Q 15.09375 69.09375 18.1875 70 
Q 21.296875 70.90625 24.90625 70.90625 
Q 35.796875 70.90625 41.25 65.84375 
Q 46.703125 60.796875 46.703125 51.59375 
z
" id="Ubuntu-50"/>
      </defs>
      <g transform="translate(160.578977 243.05125)scale(0.12 -0.12)">
       <use xlink:href="#Ubuntu-50"/>
      </g>
     </g>
    </g>
    <g id="xtick_4">
     <g id="line2d_7">
      <path clip-path="url(#p5cd048360c)" d="M 214.690625 224.64 
L 214.690625 7.2 
" style="fill:none;stroke:#b0b0b0;stroke-linecap:square;stroke-opacity:0.25;stroke-width:0.8;"/>
     </g>
     <g id="line2d_8">
      <g>
       <use style="fill:#808080;stroke:#808080;stroke-width:0.8;" x="214.690625" xlink:href="#m2997c16333" y="224.64"/>
      </g>
     </g>
     <g id="text_4">
      <!-- 3 -->
      <defs>
       <path d="M 22.59375 6.796875 
Q 31.5 6.796875 35.34375 10.296875 
Q 39.203125 13.796875 39.203125 19.703125 
Q 39.203125 23.5 37.59375 26.09375 
Q 36 28.703125 33.390625 30.25 
Q 30.796875 31.796875 27.34375 32.4375 
Q 23.90625 33.09375 20.296875 33.09375 
L 17.90625 33.09375 
L 17.90625 40.703125 
L 21.203125 40.703125 
Q 23.703125 40.703125 26.34375 41.203125 
Q 29 41.703125 31.203125 43 
Q 33.40625 44.296875 34.796875 46.546875 
Q 36.203125 48.796875 36.203125 52.203125 
Q 36.203125 55 35.203125 57 
Q 34.203125 59 32.546875 60.296875 
Q 30.90625 61.59375 28.75 62.140625 
Q 26.59375 62.703125 24.203125 62.703125 
Q 19.40625 62.703125 16.046875 61.296875 
Q 12.703125 59.90625 10.40625 58.40625 
L 6.796875 65.5 
Q 8 66.296875 9.84375 67.25 
Q 11.703125 68.203125 14 69 
Q 16.296875 69.796875 18.9375 70.34375 
Q 21.59375 70.90625 24.5 70.90625 
Q 30 70.90625 34 69.546875 
Q 38 68.203125 40.59375 65.75 
Q 43.203125 63.296875 44.5 59.9375 
Q 45.796875 56.59375 45.796875 52.703125 
Q 45.796875 47.296875 42.6875 43.4375 
Q 39.59375 39.59375 35.203125 37.59375 
Q 37.90625 36.796875 40.40625 35.296875 
Q 42.90625 33.796875 44.75 31.5 
Q 46.59375 29.203125 47.75 26.203125 
Q 48.90625 23.203125 48.90625 19.5 
Q 48.90625 15 47.34375 11.140625 
Q 45.796875 7.296875 42.546875 4.5 
Q 39.296875 1.703125 34.390625 0.09375 
Q 29.5 -1.5 22.796875 -1.5 
Q 20.203125 -1.5 17.453125 -1.09375 
Q 14.703125 -0.703125 12.296875 -0.09375 
Q 9.90625 0.5 8.09375 1.09375 
Q 6.296875 1.703125 5.5 2.09375 
L 7.296875 10.203125 
Q 9 9.40625 12.953125 8.09375 
Q 16.90625 6.796875 22.59375 6.796875 
z
" id="Ubuntu-51"/>
      </defs>
      <g transform="translate(211.30625 243.05125)scale(0.12 -0.12)">
       <use xlink:href="#Ubuntu-51"/>
      </g>
     </g>
    </g>
    <g id="xtick_5">
     <g id="line2d_9">
      <path clip-path="url(#p5cd048360c)" d="M 265.417898 224.64 
L 265.417898 7.2 
" style="fill:none;stroke:#b0b0b0;stroke-linecap:square;stroke-opacity:0.25;stroke-width:0.8;"/>
     </g>
     <g id="line2d_10">
      <g>
       <use style="fill:#808080;stroke:#808080;stroke-width:0.8;" x="265.417898" xlink:href="#m2997c16333" y="224.64"/>
      </g>
     </g>
     <g id="text_5">
      <!-- 4 -->
      <defs>
       <path d="M 4 24 
Q 5.90625 28.40625 9.203125 34.25 
Q 12.5 40.09375 16.640625 46.296875 
Q 20.796875 52.5 25.546875 58.5 
Q 30.296875 64.5 35.09375 69.296875 
L 44 69.296875 
L 44 25.296875 
L 52.203125 25.296875 
L 52.203125 17.703125 
L 44 17.703125 
L 44 0 
L 35 0 
L 35 17.703125 
L 4 17.703125 
z
M 35 58.296875 
Q 32 55.09375 28.953125 51.140625 
Q 25.90625 47.203125 23 42.890625 
Q 20.09375 38.59375 17.546875 34.09375 
Q 15 29.59375 13 25.296875 
L 35 25.296875 
z
" id="Ubuntu-52"/>
      </defs>
      <g transform="translate(262.033523 243.05125)scale(0.12 -0.12)">
       <use xlink:href="#Ubuntu-52"/>
      </g>
     </g>
    </g>
    <g id="xtick_6">
     <g id="line2d_11">
      <path clip-path="url(#p5cd048360c)" d="M 316.14517 224.64 
L 316.14517 7.2 
" style="fill:none;stroke:#b0b0b0;stroke-linecap:square;stroke-opacity:0.25;stroke-width:0.8;"/>
     </g>
     <g id="line2d_12">
      <g>
       <use style="fill:#808080;stroke:#808080;stroke-width:0.8;" x="316.14517" xlink:href="#m2997c16333" y="224.64"/>
      </g>
     </g>
     <g id="text_6">
      <!-- 5 -->
      <defs>
       <path d="M 19.90625 42.59375 
Q 35 42 42.046875 36 
Q 49.09375 30 49.09375 19.703125 
Q 49.09375 15.09375 47.546875 11.1875 
Q 46 7.296875 42.84375 4.5 
Q 39.703125 1.703125 34.890625 0.09375 
Q 30.09375 -1.5 23.5 -1.5 
Q 20.90625 -1.5 18.203125 -1.09375 
Q 15.5 -0.703125 13.203125 -0.09375 
Q 10.90625 0.5 9.09375 1.09375 
Q 7.296875 1.703125 6.5 2.09375 
L 8.296875 10.203125 
Q 10 9.40625 13.84375 8.09375 
Q 17.703125 6.796875 23.296875 6.796875 
Q 27.796875 6.796875 30.84375 7.796875 
Q 33.90625 8.796875 35.796875 10.5 
Q 37.703125 12.203125 38.546875 14.453125 
Q 39.40625 16.703125 39.40625 19.203125 
Q 39.40625 23 38.09375 25.953125 
Q 36.796875 28.90625 33.5 30.90625 
Q 30.203125 32.90625 24.703125 33.953125 
Q 19.203125 35 10.796875 35 
Q 11.40625 39.90625 11.75 44.203125 
Q 12.09375 48.5 12.390625 52.59375 
Q 12.703125 56.703125 12.890625 60.75 
Q 13.09375 64.796875 13.296875 69.296875 
L 46.703125 69.296875 
L 46.703125 61.40625 
L 21.40625 61.40625 
Q 21.296875 59.90625 21.09375 57.34375 
Q 20.90625 54.796875 20.703125 52.046875 
Q 20.5 49.296875 20.296875 46.6875 
Q 20.09375 44.09375 19.90625 42.59375 
z
" id="Ubuntu-53"/>
      </defs>
      <g transform="translate(312.760795 243.05125)scale(0.12 -0.12)">
       <use xlink:href="#Ubuntu-53"/>
      </g>
     </g>
    </g>
    <g id="xtick_7">
     <g id="line2d_13">
      <path clip-path="url(#p5cd048360c)" d="M 366.872443 224.64 
L 366.872443 7.2 
" style="fill:none;stroke:#b0b0b0;stroke-linecap:square;stroke-opacity:0.25;stroke-width:0.8;"/>
     </g>
     <g id="line2d_14">
      <g>
       <use style="fill:#808080;stroke:#808080;stroke-width:0.8;" x="366.872443" xlink:href="#m2997c16333" y="224.64"/>
      </g>
     </g>
     <g id="text_7">
      <!-- 6 -->
      <defs>
       <path d="M 6.296875 27.796875 
Q 6.296875 37.90625 9.09375 45.65625 
Q 11.90625 53.40625 17.046875 58.703125 
Q 22.203125 64 29.546875 66.75 
Q 36.90625 69.5 46.09375 69.59375 
L 46.796875 61.796875 
Q 40.90625 61.703125 36.046875 60.5 
Q 31.203125 59.296875 27.390625 56.6875 
Q 23.59375 54.09375 21 49.9375 
Q 18.40625 45.796875 17.09375 39.703125 
Q 19.703125 40.90625 22.953125 41.703125 
Q 26.203125 42.5 29.703125 42.5 
Q 35.59375 42.5 39.6875 40.703125 
Q 43.796875 38.90625 46.390625 35.953125 
Q 49 33 50.140625 29.140625 
Q 51.296875 25.296875 51.296875 21.09375 
Q 51.296875 17.296875 50 13.296875 
Q 48.703125 9.296875 46.046875 6 
Q 43.40625 2.703125 39.296875 0.59375 
Q 35.203125 -1.5 29.59375 -1.5 
Q 18.203125 -1.5 12.25 6.296875 
Q 6.296875 14.09375 6.296875 27.796875 
z
M 28.703125 34.90625 
Q 25.203125 34.90625 22.203125 34.25 
Q 19.203125 33.59375 16.203125 32.296875 
Q 16.09375 31.203125 16.046875 30.046875 
Q 16 28.90625 16 27.796875 
Q 16 23.40625 16.59375 19.5 
Q 17.203125 15.59375 18.75 12.640625 
Q 20.296875 9.703125 22.890625 7.953125 
Q 25.5 6.203125 29.5 6.203125 
Q 32.796875 6.203125 35.09375 7.59375 
Q 37.40625 9 38.90625 11.203125 
Q 40.40625 13.40625 41.046875 15.953125 
Q 41.703125 18.5 41.703125 20.90625 
Q 41.703125 27.703125 38.453125 31.296875 
Q 35.203125 34.90625 28.703125 34.90625 
z
" id="Ubuntu-54"/>
      </defs>
      <g transform="translate(363.488068 243.05125)scale(0.12 -0.12)">
       <use xlink:href="#Ubuntu-54"/>
      </g>
     </g>
    </g>
    <g id="text_8">
     <!-- X -->
     <defs>
      <path d="M 50.203125 0 
Q 48.703125 3 46.59375 6.640625 
Q 44.5 10.296875 42 14.25 
Q 39.5 18.203125 36.796875 22.140625 
Q 34.09375 26.09375 31.59375 29.59375 
Q 29.09375 26.09375 26.390625 22.140625 
Q 23.703125 18.203125 21.25 14.25 
Q 18.796875 10.296875 16.640625 6.640625 
Q 14.5 3 13 0 
L 2.296875 0 
Q 6.796875 8.796875 12.75 17.890625 
Q 18.703125 27 25.40625 36.59375 
L 3.203125 69.296875 
L 14.40625 69.296875 
L 31.5 43.5 
L 48.40625 69.296875 
L 59.5 69.296875 
L 37.703125 37 
Q 44.5 27.296875 50.5 18.09375 
Q 56.5 8.90625 61.09375 0 
z
" id="Ubuntu-88"/>
     </defs>
     <g transform="translate(210.274063 260.134375)scale(0.14 -0.14)">
      <use xlink:href="#Ubuntu-88"/>
     </g>
    </g>
   </g>
   <g id="matplotlib.axis_2">
    <g id="ytick_1">
     <g id="line2d_15">
      <path clip-path="url(#p5cd048360c)" d="M 47.290625 210.52412 
L 382.090625 210.52412 
" style="fill:none;stroke:#b0b0b0;stroke-linecap:square;stroke-opacity:0.25;stroke-width:0.8;"/>
     </g>
     <g id="line2d_16">
      <defs>
       <path d="M 0 0 
L -3.5 0 
" id="m4a6e8e4725" style="stroke:#808080;stroke-width:0.8;"/>
      </defs>
      <g>
       <use style="fill:#808080;stroke:#808080;stroke-width:0.8;" x="47.290625" xlink:href="#m4a6e8e4725" y="210.52412"/>
      </g>
     </g>
     <g id="text_9">
      <!-- 3 -->
      <g transform="translate(31.421875 215.179745)scale(0.12 -0.12)">
       <use xlink:href="#Ubuntu-51"/>
      </g>
     </g>
    </g>
    <g id="ytick_2">
     <g id="line2d_17">
      <path clip-path="url(#p5cd048360c)" d="M 47.290625 182.912921 
L 382.090625 182.912921 
" style="fill:none;stroke:#b0b0b0;stroke-linecap:square;stroke-opacity:0.25;stroke-width:0.8;"/>
     </g>
     <g id="line2d_18">
      <g>
       <use style="fill:#808080;stroke:#808080;stroke-width:0.8;" x="47.290625" xlink:href="#m4a6e8e4725" y="182.912921"/>
      </g>
     </g>
     <g id="text_10">
      <!-- 4 -->
      <g transform="translate(31.421875 187.568546)scale(0.12 -0.12)">
       <use xlink:href="#Ubuntu-52"/>
      </g>
     </g>
    </g>
    <g id="ytick_3">
     <g id="line2d_19">
      <path clip-path="url(#p5cd048360c)" d="M 47.290625 155.301722 
L 382.090625 155.301722 
" style="fill:none;stroke:#b0b0b0;stroke-linecap:square;stroke-opacity:0.25;stroke-width:0.8;"/>
     </g>
     <g id="line2d_20">
      <g>
       <use style="fill:#808080;stroke:#808080;stroke-width:0.8;" x="47.290625" xlink:href="#m4a6e8e4725" y="155.301722"/>
      </g>
     </g>
     <g id="text_11">
      <!-- 5 -->
      <g transform="translate(31.421875 159.957347)scale(0.12 -0.12)">
       <use xlink:href="#Ubuntu-53"/>
      </g>
     </g>
    </g>
    <g id="ytick_4">
     <g id="line2d_21">
      <path clip-path="url(#p5cd048360c)" d="M 47.290625 127.690522 
L 382.090625 127.690522 
" style="fill:none;stroke:#b0b0b0;stroke-linecap:square;stroke-opacity:0.25;stroke-width:0.8;"/>
     </g>
     <g id="line2d_22">
      <g>
       <use style="fill:#808080;stroke:#808080;stroke-width:0.8;" x="47.290625" xlink:href="#m4a6e8e4725" y="127.690522"/>
      </g>
     </g>
     <g id="text_12">
      <!-- 6 -->
      <g transform="translate(31.421875 132.346147)scale(0.12 -0.12)">
       <use xlink:href="#Ubuntu-54"/>
      </g>
     </g>
    </g>
    <g id="ytick_5">
     <g id="line2d_23">
      <path clip-path="url(#p5cd048360c)" d="M 47.290625 100.079323 
L 382.090625 100.079323 
" style="fill:none;stroke:#b0b0b0;stroke-linecap:square;stroke-opacity:0.25;stroke-width:0.8;"/>
     </g>
     <g id="line2d_24">
      <g>
       <use style="fill:#808080;stroke:#808080;stroke-width:0.8;" x="47.290625" xlink:href="#m4a6e8e4725" y="100.079323"/>
      </g>
     </g>
     <g id="text_13">
      <!-- 7 -->
      <defs>
       <path d="M 16.296875 0 
Q 16.90625 8 19.15625 16.84375 
Q 21.40625 25.703125 24.703125 34.046875 
Q 28 42.40625 31.953125 49.546875 
Q 35.90625 56.703125 39.703125 61.203125 
L 6 61.203125 
L 6 69.296875 
L 50.09375 69.296875 
L 50.09375 61.59375 
Q 46.796875 57.796875 42.796875 51.140625 
Q 38.796875 44.5 35.25 36.25 
Q 31.703125 28 29.140625 18.640625 
Q 26.59375 9.296875 26 0 
z
" id="Ubuntu-55"/>
      </defs>
      <g transform="translate(31.421875 104.734948)scale(0.12 -0.12)">
       <use xlink:href="#Ubuntu-55"/>
      </g>
     </g>
    </g>
    <g id="ytick_6">
     <g id="line2d_25">
      <path clip-path="url(#p5cd048360c)" d="M 47.290625 72.468124 
L 382.090625 72.468124 
" style="fill:none;stroke:#b0b0b0;stroke-linecap:square;stroke-opacity:0.25;stroke-width:0.8;"/>
     </g>
     <g id="line2d_26">
      <g>
       <use style="fill:#808080;stroke:#808080;stroke-width:0.8;" x="47.290625" xlink:href="#m4a6e8e4725" y="72.468124"/>
      </g>
     </g>
     <g id="text_14">
      <!-- 8 -->
      <defs>
       <path d="M 50.90625 18 
Q 50.90625 13.796875 49.453125 10.25 
Q 48 6.703125 45.140625 4.046875 
Q 42.296875 1.40625 38 -0.046875 
Q 33.703125 -1.5 28.09375 -1.5 
Q 21.59375 -1.5 17.25 0.34375 
Q 12.90625 2.203125 10.296875 5 
Q 7.703125 7.796875 6.59375 11.140625 
Q 5.5 14.5 5.5 17.5 
Q 5.5 20.40625 6.453125 23.046875 
Q 7.40625 25.703125 8.953125 28 
Q 10.5 30.296875 12.546875 32.140625 
Q 14.59375 34 16.90625 35.40625 
Q 7.09375 41 7.09375 51.90625 
Q 7.09375 55.703125 8.59375 59.140625 
Q 10.09375 62.59375 12.84375 65.1875 
Q 15.59375 67.796875 19.5 69.34375 
Q 23.40625 70.90625 28.203125 70.90625 
Q 33.796875 70.90625 37.796875 69.203125 
Q 41.796875 67.5 44.34375 64.84375 
Q 46.90625 62.203125 48.046875 59 
Q 49.203125 55.796875 49.203125 52.796875 
Q 49.203125 49.90625 48.34375 47.34375 
Q 47.5 44.796875 46.046875 42.59375 
Q 44.59375 40.40625 42.75 38.703125 
Q 40.90625 37 38.90625 35.703125 
Q 50.703125 30.09375 50.90625 18 
z
M 14.90625 17.40625 
Q 14.90625 15.59375 15.546875 13.640625 
Q 16.203125 11.703125 17.796875 10.046875 
Q 19.40625 8.40625 21.90625 7.296875 
Q 24.40625 6.203125 28.203125 6.203125 
Q 31.59375 6.203125 34.140625 7.203125 
Q 36.703125 8.203125 38.296875 9.75 
Q 39.90625 11.296875 40.703125 13.296875 
Q 41.5 15.296875 41.5 17.40625 
Q 41.5 20.59375 40.296875 23 
Q 39.09375 25.40625 36.84375 27.203125 
Q 34.59375 29 31.4375 30.25 
Q 28.296875 31.5 24.296875 32.40625 
Q 19.796875 29.90625 17.34375 26.203125 
Q 14.90625 22.5 14.90625 17.40625 
z
M 39.90625 52.90625 
Q 39.90625 54.40625 39.25 56.203125 
Q 38.59375 58 37.1875 59.546875 
Q 35.796875 61.09375 33.59375 62.140625 
Q 31.40625 63.203125 28.203125 63.203125 
Q 25 63.203125 22.75 62.203125 
Q 20.5 61.203125 19.09375 59.640625 
Q 17.703125 58.09375 17.046875 56.25 
Q 16.40625 54.40625 16.40625 52.59375 
Q 16.40625 50.40625 17.203125 48.203125 
Q 18 46 19.703125 44.09375 
Q 21.40625 42.203125 24.15625 40.703125 
Q 26.90625 39.203125 30.703125 38.296875 
Q 34.90625 40.796875 37.40625 44.140625 
Q 39.90625 47.5 39.90625 52.90625 
z
" id="Ubuntu-56"/>
      </defs>
      <g transform="translate(31.421875 77.123749)scale(0.12 -0.12)">
       <use xlink:href="#Ubuntu-56"/>
      </g>
     </g>
    </g>
    <g id="ytick_7">
     <g id="line2d_27">
      <path clip-path="url(#p5cd048360c)" d="M 47.290625 44.856925 
L 382.090625 44.856925 
" style="fill:none;stroke:#b0b0b0;stroke-linecap:square;stroke-opacity:0.25;stroke-width:0.8;"/>
     </g>
     <g id="line2d_28">
      <g>
       <use style="fill:#808080;stroke:#808080;stroke-width:0.8;" x="47.290625" xlink:href="#m4a6e8e4725" y="44.856925"/>
      </g>
     </g>
     <g id="text_15">
      <!-- 9 -->
      <defs>
       <path d="M 50.09375 41.59375 
Q 50.09375 21 39.84375 10.453125 
Q 29.59375 -0.09375 9.40625 -0.203125 
L 9.09375 7.59375 
Q 15.40625 7.59375 20.453125 8.796875 
Q 25.5 10 29.296875 12.640625 
Q 33.09375 15.296875 35.640625 19.5 
Q 38.203125 23.703125 39.40625 29.796875 
Q 36.796875 28.59375 33.5 27.84375 
Q 30.203125 27.09375 26.703125 27.09375 
Q 20.796875 27.09375 16.6875 28.84375 
Q 12.59375 30.59375 10 33.546875 
Q 7.40625 36.5 6.25 40.34375 
Q 5.09375 44.203125 5.09375 48.40625 
Q 5.09375 52.09375 6.390625 56.09375 
Q 7.703125 60.09375 10.34375 63.390625 
Q 13 66.703125 17.09375 68.796875 
Q 21.203125 70.90625 26.796875 70.90625 
Q 32.5 70.90625 36.84375 68.90625 
Q 41.203125 66.90625 44.140625 63.09375 
Q 47.09375 59.296875 48.59375 53.84375 
Q 50.09375 48.40625 50.09375 41.59375 
z
M 27.703125 34.703125 
Q 31.203125 34.703125 34.296875 35.34375 
Q 37.40625 36 40.296875 37.296875 
Q 40.40625 38.40625 40.40625 39.453125 
Q 40.40625 40.5 40.40625 41.59375 
Q 40.40625 45.90625 39.796875 49.84375 
Q 39.203125 53.796875 37.640625 56.75 
Q 36.09375 59.703125 33.5 61.453125 
Q 30.90625 63.203125 26.90625 63.203125 
Q 23.59375 63.203125 21.296875 61.796875 
Q 19 60.40625 17.5 58.25 
Q 16 56.09375 15.34375 53.546875 
Q 14.703125 51 14.703125 48.59375 
Q 14.703125 41.796875 17.953125 38.25 
Q 21.203125 34.703125 27.703125 34.703125 
z
" id="Ubuntu-57"/>
      </defs>
      <g transform="translate(31.421875 49.51255)scale(0.12 -0.12)">
       <use xlink:href="#Ubuntu-57"/>
      </g>
     </g>
    </g>
    <g id="ytick_8">
     <g id="line2d_29">
      <path clip-path="url(#p5cd048360c)" d="M 47.290625 17.245725 
L 382.090625 17.245725 
" style="fill:none;stroke:#b0b0b0;stroke-linecap:square;stroke-opacity:0.25;stroke-width:0.8;"/>
     </g>
     <g id="line2d_30">
      <g>
       <use style="fill:#808080;stroke:#808080;stroke-width:0.8;" x="47.290625" xlink:href="#m4a6e8e4725" y="17.245725"/>
      </g>
     </g>
     <g id="text_16">
      <!-- 10 -->
      <g transform="translate(24.653125 21.90135)scale(0.12 -0.12)">
       <use xlink:href="#Ubuntu-49"/>
       <use x="56.399994" xlink:href="#Ubuntu-48"/>
      </g>
     </g>
    </g>
    <g id="text_17">
     <!-- Gold content -->
     <defs>
      <path d="M 50.90625 34.09375 
L 60.59375 34.09375 
L 60.59375 1.703125 
Q 59.40625 1.296875 57.15625 0.796875 
Q 54.90625 0.296875 51.953125 -0.203125 
Q 49 -0.703125 45.5 -1.046875 
Q 42 -1.40625 38.40625 -1.40625 
Q 31.09375 -1.40625 25.09375 1 
Q 19.09375 3.40625 14.796875 8 
Q 10.5 12.59375 8.140625 19.296875 
Q 5.796875 26 5.796875 34.703125 
Q 5.796875 43.40625 8.4375 50.15625 
Q 11.09375 56.90625 15.59375 61.5 
Q 20.09375 66.09375 26.140625 68.5 
Q 32.203125 70.90625 39.09375 70.90625 
Q 43.796875 70.90625 47.4375 70.296875 
Q 51.09375 69.703125 53.6875 68.890625 
Q 56.296875 68.09375 57.9375 67.296875 
Q 59.59375 66.5 60.203125 66.09375 
L 57.09375 58 
Q 54.203125 59.90625 49.390625 61.15625 
Q 44.59375 62.40625 39.59375 62.40625 
Q 34.296875 62.40625 29.9375 60.5 
Q 25.59375 58.59375 22.546875 55 
Q 19.5 51.40625 17.796875 46.25 
Q 16.09375 41.09375 16.09375 34.703125 
Q 16.09375 28.5 17.546875 23.390625 
Q 19 18.296875 21.953125 14.640625 
Q 24.90625 11 29.25 9 
Q 33.59375 7 39.5 7 
Q 43.703125 7 46.640625 7.453125 
Q 49.59375 7.90625 50.90625 8.296875 
z
" id="Ubuntu-71"/>
      <path d="M 53.90625 26 
Q 53.90625 19.796875 52.09375 14.796875 
Q 50.296875 9.796875 47.046875 6.1875 
Q 43.796875 2.59375 39.296875 0.640625 
Q 34.796875 -1.296875 29.5 -1.296875 
Q 24.203125 -1.296875 19.703125 0.640625 
Q 15.203125 2.59375 11.953125 6.1875 
Q 8.703125 9.796875 6.890625 14.796875 
Q 5.09375 19.796875 5.09375 26 
Q 5.09375 32.09375 6.890625 37.140625 
Q 8.703125 42.203125 11.953125 45.796875 
Q 15.203125 49.40625 19.703125 51.34375 
Q 24.203125 53.296875 29.5 53.296875 
Q 34.796875 53.296875 39.296875 51.34375 
Q 43.796875 49.40625 47.046875 45.796875 
Q 50.296875 42.203125 52.09375 37.140625 
Q 53.90625 32.09375 53.90625 26 
z
M 44.203125 26 
Q 44.203125 34.796875 40.25 39.9375 
Q 36.296875 45.09375 29.5 45.09375 
Q 22.703125 45.09375 18.75 39.9375 
Q 14.796875 34.796875 14.796875 26 
Q 14.796875 17.203125 18.75 12.046875 
Q 22.703125 6.90625 29.5 6.90625 
Q 36.296875 6.90625 40.25 12.046875 
Q 44.203125 17.203125 44.203125 26 
z
" id="Ubuntu-111"/>
      <path d="M 23.59375 -1 
Q 15 -0.796875 11.390625 2.703125 
Q 7.796875 6.203125 7.796875 13.59375 
L 7.796875 76 
L 17.09375 77.59375 
L 17.09375 15.09375 
Q 17.09375 12.796875 17.5 11.296875 
Q 17.90625 9.796875 18.796875 8.890625 
Q 19.703125 8 21.203125 7.546875 
Q 22.703125 7.09375 24.90625 6.796875 
z
" id="Ubuntu-108"/>
      <path d="M 41.59375 41 
Q 39.90625 42.40625 36.703125 43.703125 
Q 33.5 45 29.703125 45 
Q 25.703125 45 22.84375 43.546875 
Q 20 42.09375 18.203125 39.546875 
Q 16.40625 37 15.59375 33.5 
Q 14.796875 30 14.796875 26 
Q 14.796875 16.90625 19.296875 11.953125 
Q 23.796875 7 31.296875 7 
Q 35.09375 7 37.640625 7.34375 
Q 40.203125 7.703125 41.59375 8.09375 
z
M 41.59375 76 
L 50.90625 77.59375 
L 50.90625 1.5 
Q 47.703125 0.59375 42.703125 -0.296875 
Q 37.703125 -1.203125 31.203125 -1.203125 
Q 25.203125 -1.203125 20.390625 0.6875 
Q 15.59375 2.59375 12.1875 6.09375 
Q 8.796875 9.59375 6.9375 14.640625 
Q 5.09375 19.703125 5.09375 26 
Q 5.09375 32 6.640625 37 
Q 8.203125 42 11.203125 45.59375 
Q 14.203125 49.203125 18.546875 51.203125 
Q 22.90625 53.203125 28.5 53.203125 
Q 33 53.203125 36.453125 52 
Q 39.90625 50.796875 41.59375 49.703125 
z
" id="Ubuntu-100"/>
      <path id="Ubuntu-32"/>
      <path d="M 30.59375 -1.203125 
Q 24.296875 -1.203125 19.546875 0.796875 
Q 14.796875 2.796875 11.546875 6.390625 
Q 8.296875 10 6.6875 14.953125 
Q 5.09375 19.90625 5.09375 25.90625 
Q 5.09375 31.90625 6.84375 36.90625 
Q 8.59375 41.90625 11.796875 45.546875 
Q 15 49.203125 19.640625 51.25 
Q 24.296875 53.296875 30 53.296875 
Q 33.5 53.296875 37 52.6875 
Q 40.5 52.09375 43.703125 50.796875 
L 41.59375 42.90625 
Q 39.5 43.90625 36.75 44.5 
Q 34 45.09375 30.90625 45.09375 
Q 23.09375 45.09375 18.9375 40.1875 
Q 14.796875 35.296875 14.796875 25.90625 
Q 14.796875 21.703125 15.75 18.203125 
Q 16.703125 14.703125 18.75 12.203125 
Q 20.796875 9.703125 24 8.34375 
Q 27.203125 7 31.796875 7 
Q 35.5 7 38.5 7.703125 
Q 41.5 8.40625 43.203125 9.203125 
L 44.5 1.40625 
Q 43.703125 0.90625 42.203125 0.453125 
Q 40.703125 0 38.796875 -0.34375 
Q 36.90625 -0.703125 34.75 -0.953125 
Q 32.59375 -1.203125 30.59375 -1.203125 
z
" id="Ubuntu-99"/>
      <path d="M 8 50.5 
Q 11.203125 51.296875 16.5 52.1875 
Q 21.796875 53.09375 28.703125 53.09375 
Q 34.90625 53.09375 39 51.34375 
Q 43.09375 49.59375 45.546875 46.4375 
Q 48 43.296875 49 38.890625 
Q 50 34.5 50 29.203125 
L 50 0 
L 40.703125 0 
L 40.703125 27.203125 
Q 40.703125 32 40.046875 35.390625 
Q 39.40625 38.796875 37.90625 40.890625 
Q 36.40625 43 33.90625 43.953125 
Q 31.40625 44.90625 27.703125 44.90625 
Q 26.203125 44.90625 24.59375 44.796875 
Q 23 44.703125 21.546875 44.546875 
Q 20.09375 44.40625 18.9375 44.203125 
Q 17.796875 44 17.296875 43.90625 
L 17.296875 0 
L 8 0 
z
" id="Ubuntu-110"/>
      <path d="M 16.703125 52 
L 36.40625 52 
L 36.40625 44.203125 
L 16.703125 44.203125 
L 16.703125 20.203125 
Q 16.703125 16.296875 17.296875 13.75 
Q 17.90625 11.203125 19.09375 9.75 
Q 20.296875 8.296875 22.09375 7.6875 
Q 23.90625 7.09375 26.296875 7.09375 
Q 30.5 7.09375 33.046875 8.046875 
Q 35.59375 9 36.59375 9.40625 
L 38.40625 1.703125 
Q 37 1 33.5 -0.046875 
Q 30 -1.09375 25.5 -1.09375 
Q 20.203125 -1.09375 16.75 0.25 
Q 13.296875 1.59375 11.1875 4.296875 
Q 9.09375 7 8.25 10.953125 
Q 7.40625 14.90625 7.40625 20.09375 
L 7.40625 66.5 
L 16.703125 68.09375 
z
" id="Ubuntu-116"/>
      <path d="M 5.09375 25.90625 
Q 5.09375 32.796875 7.09375 37.9375 
Q 9.09375 43.09375 12.390625 46.5 
Q 15.703125 49.90625 20 51.59375 
Q 24.296875 53.296875 28.796875 53.296875 
Q 39.296875 53.296875 44.890625 46.75 
Q 50.5 40.203125 50.5 26.796875 
Q 50.5 26.203125 50.5 25.25 
Q 50.5 24.296875 50.40625 23.5 
L 14.796875 23.5 
Q 15.40625 15.40625 19.5 11.203125 
Q 23.59375 7 32.296875 7 
Q 37.203125 7 40.546875 7.84375 
Q 43.90625 8.703125 45.59375 9.5 
L 46.90625 1.703125 
Q 45.203125 0.796875 40.953125 -0.203125 
Q 36.703125 -1.203125 31.296875 -1.203125 
Q 24.5 -1.203125 19.546875 0.84375 
Q 14.59375 2.90625 11.390625 6.5 
Q 8.203125 10.09375 6.640625 15.046875 
Q 5.09375 20 5.09375 25.90625 
z
M 40.796875 31 
Q 40.90625 37.296875 37.65625 41.34375 
Q 34.40625 45.40625 28.703125 45.40625 
Q 25.5 45.40625 23.046875 44.15625 
Q 20.59375 42.90625 18.890625 40.90625 
Q 17.203125 38.90625 16.25 36.296875 
Q 15.296875 33.703125 15 31 
z
" id="Ubuntu-101"/>
     </defs>
     <g transform="translate(18.063125 157.366562)rotate(-90)scale(0.14 -0.14)">
      <use xlink:href="#Ubuntu-71"/>
      <use x="67.199997" xlink:href="#Ubuntu-111"/>
      <use x="126.199982" xlink:href="#Ubuntu-108"/>
      <use x="153.499969" xlink:href="#Ubuntu-100"/>
      <use x="212.399963" xlink:href="#Ubuntu-32"/>
      <use x="235.499954" xlink:href="#Ubuntu-99"/>
      <use x="281.984314" xlink:href="#Ubuntu-111"/>
      <use x="340.984299" xlink:href="#Ubuntu-110"/>
      <use x="398.384293" xlink:href="#Ubuntu-116"/>
      <use x="438.568665" xlink:href="#Ubuntu-101"/>
      <use x="494.468658" xlink:href="#Ubuntu-110"/>
      <use x="551.868652" xlink:href="#Ubuntu-116"/>
     </g>
    </g>
   </g>
   <g id="line2d_31">
    <path clip-path="url(#p5cd048360c)" d="M 62.508807 149.756509 
L 73.687438 149.015078 
L 81.817351 148.688078 
L 88.931026 148.612279 
L 96.0447 148.750697 
L 104.174613 149.134459 
L 114.845125 149.880493 
L 154.986573 152.913627 
L 169.213921 153.656088 
L 184.965629 154.246907 
L 202.749815 154.683639 
L 225.107077 154.997822 
L 256.102372 155.194013 
L 311.487408 155.286564 
L 366.872443 155.299778 
L 366.872443 155.299778 
" style="fill:none;stroke:#000000;stroke-linecap:square;stroke-width:2.7;"/>
   </g>
   <g id="line2d_32">
    <path clip-path="url(#p5cd048360c)" d="M 62.508807 214.756364 
L 66.573764 201.569664 
L 70.130601 190.782862 
L 73.687438 180.738175 
L 76.736155 172.743831 
L 79.784873 165.335334 
L 82.833591 158.525973 
L 85.882308 152.325598 
L 88.422906 147.628551 
L 90.963504 143.360832 
L 93.504102 139.522719 
L 96.0447 136.11288 
L 98.585298 133.128402 
L 100.617776 131.044133 
L 102.650255 129.226286 
L 104.682733 127.671271 
L 106.715211 126.374909 
L 108.74769 125.332442 
L 110.780168 124.538559 
L 112.812647 123.987404 
L 114.845125 123.672603 
L 116.877603 123.587282 
L 118.910082 123.72409 
L 120.94256 124.075216 
L 122.975038 124.632421 
L 125.007517 125.387052 
L 127.548115 126.594177 
L 130.088713 128.077217 
L 132.629311 129.816954 
L 135.678028 132.215374 
L 138.726746 134.919097 
L 142.283583 138.410305 
L 145.84042 142.207357 
L 150.413496 147.440684 
L 156.510932 154.82241 
L 170.73828 172.219305 
L 175.311357 177.400129 
L 179.376313 181.676441 
L 182.93315 185.104423 
L 185.981868 187.773603 
L 189.030586 190.166769 
L 192.079303 192.260049 
L 194.619901 193.759764 
L 197.160499 195.025074 
L 199.701097 196.046047 
L 202.241695 196.814021 
L 204.782293 197.321629 
L 207.322891 197.562835 
L 209.863489 197.532949 
L 212.404087 197.228649 
L 214.944685 196.647992 
L 217.485283 195.790424 
L 220.025881 194.656777 
L 222.566479 193.24927 
L 225.107077 191.571501 
L 227.647675 189.628428 
L 230.188273 187.426359 
L 233.23699 184.45283 
L 236.285708 181.133026 
L 239.334425 177.485174 
L 242.891262 172.842506 
L 246.4481 167.818614 
L 250.513056 161.663149 
L 255.086133 154.29168 
L 260.167329 145.670189 
L 267.281003 133.127806 
L 279.475873 111.580213 
L 284.557069 103.066028 
L 288.622026 96.631745 
L 292.178863 91.353969 
L 295.7357 86.466897 
L 298.784418 82.632434 
L 301.833135 79.161917 
L 304.373733 76.571927 
L 306.914331 74.276276 
L 309.454929 72.292514 
L 311.995527 70.637238 
L 314.028005 69.560027 
L 316.060484 68.710502 
L 318.092962 68.095659 
L 320.125441 67.722 
L 322.157919 67.595509 
L 324.190397 67.721638 
L 326.222876 68.105283 
L 328.255354 68.75077 
L 330.287832 69.661838 
L 332.320311 70.841623 
L 334.352789 72.292645 
L 336.385268 74.016793 
L 338.417746 76.01532 
L 340.450224 78.288824 
L 342.990822 81.517241 
L 345.53142 85.173595 
L 348.072018 89.254666 
L 350.612616 93.755584 
L 353.153214 98.669819 
L 356.201932 105.100833 
L 359.250649 112.097859 
L 362.299367 119.640212 
L 365.856204 129.096616 
L 366.872443 131.922766 
L 366.872443 131.922766 
" style="fill:none;stroke:#800080;stroke-linecap:square;stroke-width:2.7;"/>
   </g>
   <g id="line2d_33">
    <path clip-path="url(#p5cd048360c)" d="M 62.508807 72.477132 
L 65.557524 79.63827 
L 68.606242 87.4124 
L 71.654959 95.791738 
L 75.211797 106.30012 
L 78.768634 117.528579 
L 82.833591 131.093528 
L 87.914786 148.460444 
L 94.520341 125.643882 
L 98.585298 112.366049 
L 102.142135 101.451969 
L 105.698972 91.294926 
L 108.74769 83.233146 
L 111.796407 75.782442 
L 114.845125 68.943539 
L 117.893842 62.705935 
L 120.94256 57.050415 
L 123.483158 52.76371 
L 126.023756 48.845987 
L 128.564354 45.278191 
L 131.104952 42.040205 
L 133.64555 39.111318 
L 136.186148 36.47061 
L 139.234865 33.652883 
L 142.283583 31.184991 
L 145.332301 29.033008 
L 148.381018 27.164661 
L 151.429736 25.549582 
L 154.478453 24.159476 
L 158.03529 22.787286 
L 161.592128 21.648086 
L 165.657084 20.58831 
L 170.230161 19.652365 
L 175.311357 18.868151 
L 180.900672 18.24653 
L 187.506227 17.752413 
L 195.63614 17.390201 
L 205.798532 17.171689 
L 221.04212 17.084434 
L 261.183568 17.167898 
L 342.990822 17.241004 
L 366.872443 17.243787 
L 366.872443 17.243787 
" style="fill:none;stroke:#008000;stroke-linecap:square;stroke-width:2.7;"/>
   </g>
   <g id="patch_3">
    <path d="M 47.290625 224.64 
L 47.290625 7.2 
" style="fill:none;stroke:#808080;stroke-linecap:square;stroke-linejoin:miter;stroke-width:0.5;"/>
   </g>
   <g id="patch_4">
    <path d="M 47.290625 224.64 
L 382.090625 224.64 
" style="fill:none;stroke:#808080;stroke-linecap:square;stroke-linejoin:miter;stroke-width:0.5;"/>
   </g>
   <g id="legend_1">
    <g id="patch_5">
     <path d="M 405.282625 121.870937 
L 577.63575 121.870937 
Q 580.43575 121.870937 580.43575 119.070937 
L 580.43575 17 
Q 580.43575 14.2 577.63575 14.2 
L 405.282625 14.2 
Q 402.482625 14.2 402.482625 17 
L 402.482625 119.070937 
Q 402.482625 121.870937 405.282625 121.870937 
z
" style="fill:#ffffff;opacity:0.8;stroke:#cccccc;stroke-linejoin:miter;stroke-width:0.24;"/>
    </g>
    <g id="line2d_34">
     <path d="M 408.082625 25.96 
L 436.082625 25.96 
" style="fill:none;stroke:#000000;stroke-linecap:square;stroke-width:2.7;"/>
    </g>
    <g id="line2d_35"/>
    <g id="text_18">
     <!-- Predicted ($\mu$) -->
     <defs>
      <path d="M 27 70 
Q 41.59375 70 49.4375 64.453125 
Q 57.296875 58.90625 57.296875 47.90625 
Q 57.296875 41.90625 55.140625 37.65625 
Q 53 33.40625 48.953125 30.75 
Q 44.90625 28.09375 39.09375 26.890625 
Q 33.296875 25.703125 26 25.703125 
L 18.296875 25.703125 
L 18.296875 0 
L 8.59375 0 
L 8.59375 68.296875 
Q 12.703125 69.296875 17.75 69.640625 
Q 22.796875 70 27 70 
z
M 27.796875 61.5 
Q 21.59375 61.5 18.296875 61.203125 
L 18.296875 34 
L 25.59375 34 
Q 30.59375 34 34.59375 34.640625 
Q 38.59375 35.296875 41.34375 36.84375 
Q 44.09375 38.40625 45.59375 41.09375 
Q 47.09375 43.796875 47.09375 48 
Q 47.09375 52 45.546875 54.59375 
Q 44 57.203125 41.34375 58.75 
Q 38.703125 60.296875 35.203125 60.890625 
Q 31.703125 61.5 27.796875 61.5 
z
" id="Ubuntu-80"/>
      <path d="M 27.203125 53.09375 
Q 28.40625 53.09375 29.953125 52.9375 
Q 31.5 52.796875 33 52.546875 
Q 34.5 52.296875 35.75 52.046875 
Q 37 51.796875 37.59375 51.59375 
L 36 43.5 
Q 34.90625 43.90625 32.34375 44.453125 
Q 29.796875 45 25.796875 45 
Q 23.203125 45 20.640625 44.453125 
Q 18.09375 43.90625 17.296875 43.703125 
L 17.296875 0 
L 8 0 
L 8 49.796875 
Q 11.296875 51 16.1875 52.046875 
Q 21.09375 53.09375 27.203125 53.09375 
z
" id="Ubuntu-114"/>
      <path d="M 17.296875 0 
L 8 0 
L 8 52 
L 17.296875 52 
z
M 12.59375 61.40625 
Q 10.09375 61.40625 8.34375 63.046875 
Q 6.59375 64.703125 6.59375 67.5 
Q 6.59375 70.296875 8.34375 71.9375 
Q 10.09375 73.59375 12.59375 73.59375 
Q 15.09375 73.59375 16.84375 71.9375 
Q 18.59375 70.296875 18.59375 67.5 
Q 18.59375 64.703125 16.84375 63.046875 
Q 15.09375 61.40625 12.59375 61.40625 
z
" id="Ubuntu-105"/>
      <path d="M 17.09375 29.90625 
Q 17.09375 17.09375 20.796875 6.1875 
Q 24.5 -4.703125 31.703125 -14 
L 25.09375 -18.5 
Q 17.296875 -9 12.546875 3.34375 
Q 7.796875 15.703125 7.796875 29.90625 
Q 7.796875 44.09375 12.546875 56.4375 
Q 17.296875 68.796875 25.09375 78.296875 
L 31.703125 73.796875 
Q 24.5 64.5 20.796875 53.59375 
Q 17.09375 42.703125 17.09375 29.90625 
z
" id="Ubuntu-40"/>
      <path d="M -1.3125 -20.796875 
L 13.375 54.6875 
L 22.40625 54.6875 
L 15.765625 20.65625 
Q 15.578125 19.625 15.421875 18.359375 
Q 15.28125 17.09375 15.28125 15.828125 
Q 15.28125 11.28125 18.140625 8.828125 
Q 21 6.390625 26.3125 6.390625 
Q 33.546875 6.390625 37.984375 10.484375 
Q 42.4375 14.59375 44 22.796875 
L 50.203125 54.6875 
L 59.1875 54.6875 
L 51.03125 12.640625 
Q 50.828125 11.71875 50.75 11.03125 
Q 50.6875 10.359375 50.6875 9.8125 
Q 50.6875 8.296875 51.296875 7.59375 
Q 51.90625 6.890625 53.21875 6.890625 
Q 53.71875 6.890625 54.5625 7.125 
Q 55.421875 7.375 56.984375 8.015625 
L 55.609375 0.78125 
Q 53.46875 -0.296875 51.515625 -0.859375 
Q 49.5625 -1.421875 47.703125 -1.421875 
Q 44.484375 -1.421875 42.65625 0.625 
Q 40.828125 2.6875 40.828125 6.296875 
Q 38.09375 2.390625 34.296875 0.484375 
Q 30.515625 -1.421875 25.390625 -1.421875 
Q 20.84375 -1.421875 17.453125 0.671875 
Q 14.0625 2.78125 12.984375 6.203125 
L 7.71875 -20.796875 
z
" id="DejaVuSans-Oblique-956"/>
      <path d="M 15.296875 29.90625 
Q 15.296875 42.703125 11.59375 53.59375 
Q 7.90625 64.5 0.703125 73.796875 
L 7.296875 78.296875 
Q 15.09375 68.796875 19.84375 56.4375 
Q 24.59375 44.09375 24.59375 29.90625 
Q 24.59375 15.703125 19.84375 3.34375 
Q 15.09375 -9 7.296875 -18.5 
L 0.703125 -14 
Q 7.90625 -4.703125 11.59375 6.1875 
Q 15.296875 17.09375 15.296875 29.90625 
z
" id="Ubuntu-41"/>
     </defs>
     <g transform="translate(447.282625 30.86)scale(0.14 -0.14)">
      <use transform="translate(0 0.703125)" xlink:href="#Ubuntu-80"/>
      <use transform="translate(60.799988 0.703125)" xlink:href="#Ubuntu-114"/>
      <use transform="translate(99.399979 0.703125)" xlink:href="#Ubuntu-101"/>
      <use transform="translate(155.299973 0.703125)" xlink:href="#Ubuntu-100"/>
      <use transform="translate(214.199966 0.703125)" xlink:href="#Ubuntu-105"/>
      <use transform="translate(239.499954 0.703125)" xlink:href="#Ubuntu-99"/>
      <use transform="translate(285.999939 0.703125)" xlink:href="#Ubuntu-116"/>
      <use transform="translate(326.199936 0.703125)" xlink:href="#Ubuntu-101"/>
      <use transform="translate(382.09993 0.703125)" xlink:href="#Ubuntu-100"/>
      <use transform="translate(440.999924 0.703125)" xlink:href="#Ubuntu-32"/>
      <use transform="translate(464.099915 0.703125)" xlink:href="#Ubuntu-40"/>
      <use transform="translate(496.499908 0.703125)" xlink:href="#DejaVuSans-Oblique-956"/>
      <use transform="translate(560.122955 0.703125)" xlink:href="#Ubuntu-41"/>
     </g>
    </g>
    <g id="line2d_36">
     <path d="M 408.082625 46.96 
L 436.082625 46.96 
" style="fill:none;stroke:#800080;stroke-linecap:square;stroke-width:2.7;"/>
    </g>
    <g id="line2d_37"/>
    <g id="text_19">
     <!-- Ground Truth ($f$) -->
     <defs>
      <path d="M 49.40625 1.5 
Q 46.203125 0.703125 40.953125 -0.1875 
Q 35.703125 -1.09375 28.796875 -1.09375 
Q 22.796875 -1.09375 18.6875 0.65625 
Q 14.59375 2.40625 12.09375 5.59375 
Q 9.59375 8.796875 8.5 13.140625 
Q 7.40625 17.5 7.40625 22.796875 
L 7.40625 52 
L 16.703125 52 
L 16.703125 24.796875 
Q 16.703125 15.296875 19.703125 11.1875 
Q 22.703125 7.09375 29.796875 7.09375 
Q 31.296875 7.09375 32.890625 7.1875 
Q 34.5 7.296875 35.890625 7.4375 
Q 37.296875 7.59375 38.4375 7.75 
Q 39.59375 7.90625 40.09375 8.09375 
L 40.09375 52 
L 49.40625 52 
z
" id="Ubuntu-117"/>
      <path d="M 54.90625 69.296875 
L 54.90625 60.90625 
L 33.09375 60.90625 
L 33.09375 0 
L 23.40625 0 
L 23.40625 60.90625 
L 1.59375 60.90625 
L 1.59375 69.296875 
z
" id="Ubuntu-84"/>
      <path d="M 8 0 
L 8 76 
L 17.296875 77.59375 
L 17.296875 51 
Q 19.90625 52 22.84375 52.546875 
Q 25.796875 53.09375 28.703125 53.09375 
Q 34.90625 53.09375 39 51.34375 
Q 43.09375 49.59375 45.546875 46.4375 
Q 48 43.296875 49 38.890625 
Q 50 34.5 50 29.203125 
L 50 0 
L 40.703125 0 
L 40.703125 27.203125 
Q 40.703125 32 40.046875 35.390625 
Q 39.40625 38.796875 37.90625 40.890625 
Q 36.40625 43 33.90625 43.953125 
Q 31.40625 44.90625 27.703125 44.90625 
Q 26.203125 44.90625 24.59375 44.703125 
Q 23 44.5 21.546875 44.25 
Q 20.09375 44 18.9375 43.703125 
Q 17.796875 43.40625 17.296875 43.203125 
L 17.296875 0 
z
" id="Ubuntu-104"/>
      <path d="M 47.796875 75.984375 
L 46.390625 68.5 
L 37.796875 68.5 
Q 32.90625 68.5 30.6875 66.578125 
Q 28.46875 64.65625 27.390625 59.515625 
L 26.421875 54.6875 
L 41.21875 54.6875 
L 39.890625 47.703125 
L 25.09375 47.703125 
L 15.828125 0 
L 6.78125 0 
L 16.109375 47.703125 
L 7.515625 47.703125 
L 8.796875 54.6875 
L 17.390625 54.6875 
L 18.109375 58.5 
Q 19.96875 68.171875 24.625 72.078125 
Q 29.296875 75.984375 39.3125 75.984375 
z
" id="DejaVuSans-Oblique-102"/>
     </defs>
     <g transform="translate(447.282625 51.86)scale(0.14 -0.14)">
      <use transform="translate(0 0.703125)" xlink:href="#Ubuntu-71"/>
      <use transform="translate(67.199997 0.703125)" xlink:href="#Ubuntu-114"/>
      <use transform="translate(105.799988 0.703125)" xlink:href="#Ubuntu-111"/>
      <use transform="translate(164.799973 0.703125)" xlink:href="#Ubuntu-117"/>
      <use transform="translate(222.199966 0.703125)" xlink:href="#Ubuntu-110"/>
      <use transform="translate(279.59996 0.703125)" xlink:href="#Ubuntu-100"/>
      <use transform="translate(338.499954 0.703125)" xlink:href="#Ubuntu-32"/>
      <use transform="translate(361.599945 0.703125)" xlink:href="#Ubuntu-84"/>
      <use transform="translate(418.09993 0.703125)" xlink:href="#Ubuntu-114"/>
      <use transform="translate(456.699921 0.703125)" xlink:href="#Ubuntu-117"/>
      <use transform="translate(514.099915 0.703125)" xlink:href="#Ubuntu-116"/>
      <use transform="translate(554.299911 0.703125)" xlink:href="#Ubuntu-104"/>
      <use transform="translate(611.399902 0.703125)" xlink:href="#Ubuntu-32"/>
      <use transform="translate(634.499893 0.703125)" xlink:href="#Ubuntu-40"/>
      <use transform="translate(666.899887 0.703125)" xlink:href="#DejaVuSans-Oblique-102"/>
      <use transform="translate(702.104965 0.703125)" xlink:href="#Ubuntu-41"/>
     </g>
    </g>
    <g id="line2d_38">
     <path d="M 408.082625 67.483125 
L 436.082625 67.483125 
" style="fill:none;stroke:#008000;stroke-linecap:square;stroke-width:2.7;"/>
    </g>
    <g id="line2d_39"/>
    <g id="text_20">
     <!-- Acquisition function -->
     <defs>
      <path d="M 54.90625 0 
Q 53.203125 4.5 51.703125 8.84375 
Q 50.203125 13.203125 48.59375 17.703125 
L 17.203125 17.703125 
L 10.90625 0 
L 0.796875 0 
Q 4.796875 11 8.296875 20.34375 
Q 11.796875 29.703125 15.140625 38.09375 
Q 18.5 46.5 21.796875 54.140625 
Q 25.09375 61.796875 28.703125 69.296875 
L 37.59375 69.296875 
Q 41.203125 61.796875 44.5 54.140625 
Q 47.796875 46.5 51.140625 38.09375 
Q 54.5 29.703125 58 20.34375 
Q 61.5 11 65.5 0 
z
M 45.796875 25.703125 
Q 42.59375 34.40625 39.4375 42.546875 
Q 36.296875 50.703125 32.90625 58.203125 
Q 29.40625 50.703125 26.25 42.546875 
Q 23.09375 34.40625 20 25.703125 
z
" id="Ubuntu-65"/>
      <path d="M 14.796875 25.90625 
Q 14.796875 21.90625 15.59375 18.453125 
Q 16.40625 15 18.203125 12.453125 
Q 20 9.90625 22.84375 8.453125 
Q 25.703125 7 29.703125 7 
Q 33.5 7 36.703125 8.296875 
Q 39.90625 9.59375 41.59375 11 
L 41.59375 43.796875 
Q 40.203125 44.203125 37.84375 44.5 
Q 35.5 44.796875 31.296875 44.796875 
Q 23.796875 44.796875 19.296875 39.890625 
Q 14.796875 35 14.796875 25.90625 
z
M 5.09375 25.90625 
Q 5.09375 32.203125 6.9375 37.25 
Q 8.796875 42.296875 12.1875 45.796875 
Q 15.59375 49.296875 20.390625 51.1875 
Q 25.203125 53.09375 31.203125 53.09375 
Q 37.703125 53.09375 42.640625 52.140625 
Q 47.59375 51.203125 50.90625 50.40625 
L 50.90625 -18.5 
L 41.59375 -18.5 
L 41.59375 2.296875 
Q 39.90625 1.203125 36.453125 0 
Q 33 -1.203125 28.5 -1.203125 
Q 22.90625 -1.203125 18.546875 0.796875 
Q 14.203125 2.796875 11.203125 6.390625 
Q 8.203125 10 6.640625 15 
Q 5.09375 20 5.09375 25.90625 
z
" id="Ubuntu-113"/>
      <path d="M 20.09375 6.703125 
Q 25.796875 6.703125 28.546875 8.203125 
Q 31.296875 9.703125 31.296875 13 
Q 31.296875 16.40625 28.59375 18.40625 
Q 25.90625 20.40625 19.703125 22.90625 
Q 16.703125 24.09375 13.953125 25.34375 
Q 11.203125 26.59375 9.203125 28.296875 
Q 7.203125 30 6 32.390625 
Q 4.796875 34.796875 4.796875 38.296875 
Q 4.796875 45.203125 9.890625 49.25 
Q 15 53.296875 23.796875 53.296875 
Q 26 53.296875 28.203125 53.046875 
Q 30.40625 52.796875 32.296875 52.4375 
Q 34.203125 52.09375 35.640625 51.6875 
Q 37.09375 51.296875 37.90625 51 
L 36.203125 43 
Q 34.703125 43.796875 31.5 44.640625 
Q 28.296875 45.5 23.796875 45.5 
Q 19.90625 45.5 17 43.953125 
Q 14.09375 42.40625 14.09375 39.09375 
Q 14.09375 37.40625 14.75 36.09375 
Q 15.40625 34.796875 16.75 33.75 
Q 18.09375 32.703125 20.09375 31.796875 
Q 22.09375 30.90625 24.90625 29.90625 
Q 28.59375 28.5 31.5 27.140625 
Q 34.40625 25.796875 36.453125 24 
Q 38.5 22.203125 39.59375 19.640625 
Q 40.703125 17.09375 40.703125 13.40625 
Q 40.703125 6.203125 35.34375 2.5 
Q 30 -1.203125 20.09375 -1.203125 
Q 13.203125 -1.203125 9.296875 -0.046875 
Q 5.40625 1.09375 4 1.703125 
L 5.703125 9.703125 
Q 7.296875 9.09375 10.796875 7.890625 
Q 14.296875 6.703125 20.09375 6.703125 
z
" id="Ubuntu-115"/>
      <path d="M 28.296875 77.59375 
Q 32.40625 77.59375 35.34375 77 
Q 38.296875 76.40625 39.5 75.90625 
L 37.796875 67.90625 
Q 36.59375 68.5 34.390625 69.046875 
Q 32.203125 69.59375 29 69.59375 
Q 22.5 69.59375 19.890625 66.046875 
Q 17.296875 62.5 17.296875 56.5 
L 17.296875 52 
L 37.296875 52 
L 37.296875 44.203125 
L 17.296875 44.203125 
L 17.296875 0 
L 8 0 
L 8 56.703125 
Q 8 66.703125 12.890625 72.140625 
Q 17.796875 77.59375 28.296875 77.59375 
z
" id="Ubuntu-102"/>
     </defs>
     <g transform="translate(447.282625 72.383125)scale(0.14 -0.14)">
      <use xlink:href="#Ubuntu-65"/>
      <use x="66.284363" xlink:href="#Ubuntu-99"/>
      <use x="112.784348" xlink:href="#Ubuntu-113"/>
      <use x="171.684341" xlink:href="#Ubuntu-117"/>
      <use x="229.084335" xlink:href="#Ubuntu-105"/>
      <use x="254.384323" xlink:href="#Ubuntu-115"/>
      <use x="298.984314" xlink:href="#Ubuntu-105"/>
      <use x="324.284302" xlink:href="#Ubuntu-116"/>
      <use x="364.484299" xlink:href="#Ubuntu-105"/>
      <use x="389.784286" xlink:href="#Ubuntu-111"/>
      <use x="448.784271" xlink:href="#Ubuntu-110"/>
      <use x="506.184265" xlink:href="#Ubuntu-32"/>
      <use x="529.284256" xlink:href="#Ubuntu-102"/>
      <use x="567.884247" xlink:href="#Ubuntu-117"/>
      <use x="625.284241" xlink:href="#Ubuntu-110"/>
      <use x="682.684235" xlink:href="#Ubuntu-99"/>
      <use x="729.184219" xlink:href="#Ubuntu-116"/>
      <use x="769.384216" xlink:href="#Ubuntu-105"/>
      <use x="794.684204" xlink:href="#Ubuntu-111"/>
      <use x="853.684189" xlink:href="#Ubuntu-110"/>
     </g>
    </g>
    <g id="patch_6">
     <path d="M 408.082625 92.83625 
L 436.082625 92.83625 
L 436.082625 83.03625 
L 408.082625 83.03625 
z
" style="fill:#808080;opacity:0.3;stroke:#808080;stroke-linejoin:miter;stroke-width:0.24;"/>
    </g>
    <g id="text_21">
     <!-- $\mu \pm \sigma$ -->
     <defs>
      <path d="M 46 62.703125 
L 46 43.796875 
L 73.1875 43.796875 
L 73.1875 35.5 
L 46 35.5 
L 46 16.609375 
L 37.796875 16.609375 
L 37.796875 35.5 
L 10.59375 35.5 
L 10.59375 43.796875 
L 37.796875 43.796875 
L 37.796875 62.703125 
z
M 10.59375 8.296875 
L 73.1875 8.296875 
L 73.1875 0 
L 10.59375 0 
z
" id="DejaVuSans-177"/>
      <path d="M 34.671875 47.5625 
Q 27.25 47.5625 22.21875 42.1875 
Q 16.890625 36.578125 15.140625 27.296875 
Q 13.1875 17.484375 16.3125 11.8125 
Q 19.390625 6.203125 26.65625 6.203125 
Q 33.84375 6.203125 39.109375 11.859375 
Q 44.4375 17.53125 46.34375 27.296875 
Q 48.046875 36.234375 45.015625 42.1875 
Q 42.1875 47.5625 34.671875 47.5625 
z
M 36.078125 54.734375 
L 65.921875 54.6875 
L 64.15625 45.703125 
L 54.109375 45.703125 
Q 57.90625 38.09375 55.859375 27.296875 
Q 53.21875 13.875 45.0625 6.25 
Q 36.859375 -1.421875 25.140625 -1.421875 
Q 13.375 -1.421875 8.203125 6.25 
Q 3.03125 13.875 5.671875 27.296875 
Q 8.25 40.765625 16.40625 48.390625 
Q 23.1875 54.734375 36.078125 54.734375 
z
" id="DejaVuSans-Oblique-963"/>
     </defs>
     <g transform="translate(447.282625 92.83625)scale(0.14 -0.14)">
      <use transform="translate(0 0.296875)" xlink:href="#DejaVuSans-Oblique-956"/>
      <use transform="translate(83.105469 0.296875)" xlink:href="#DejaVuSans-177"/>
      <use transform="translate(186.376953 0.296875)" xlink:href="#DejaVuSans-Oblique-963"/>
     </g>
    </g>
    <g id="PathCollection_1">
     <defs>
      <path d="M 0 7.071068 
C 1.875269 7.071068 3.673985 6.326016 5 5 
C 6.326016 3.673985 7.071068 1.875269 7.071068 0 
C 7.071068 -1.875269 6.326016 -3.673985 5 -5 
C 3.673985 -6.326016 1.875269 -7.071068 0 -7.071068 
C -1.875269 -7.071068 -3.673985 -6.326016 -5 -5 
C -6.326016 -3.673985 -7.071068 -1.875269 -7.071068 0 
C -7.071068 1.875269 -6.326016 3.673985 -5 5 
C -3.673985 6.326016 -1.875269 7.071068 0 7.071068 
z
" id="m4d030f4df4" style="stroke:#ff0000;stroke-width:0.24;"/>
     </defs>
     <g>
      <use style="fill:#ff0000;stroke:#ff0000;stroke-width:0.24;" x="422.082625" xlink:href="#m4d030f4df4" y="109.964375"/>
     </g>
    </g>
    <g id="text_22">
     <!-- Training points -->
     <defs>
      <path d="M 25.59375 6.703125 
Q 28.90625 6.703125 31.453125 6.84375 
Q 34 7 35.703125 7.40625 
L 35.703125 22.90625 
Q 34.703125 23.40625 32.453125 23.75 
Q 30.203125 24.09375 27 24.09375 
Q 24.90625 24.09375 22.546875 23.796875 
Q 20.203125 23.5 18.25 22.546875 
Q 16.296875 21.59375 15 19.9375 
Q 13.703125 18.296875 13.703125 15.59375 
Q 13.703125 10.59375 16.890625 8.640625 
Q 20.09375 6.703125 25.59375 6.703125 
z
M 24.796875 53.296875 
Q 30.40625 53.296875 34.25 51.84375 
Q 38.09375 50.40625 40.4375 47.75 
Q 42.796875 45.09375 43.796875 41.4375 
Q 44.796875 37.796875 44.796875 33.40625 
L 44.796875 0.90625 
Q 43.59375 0.703125 41.4375 0.34375 
Q 39.296875 0 36.59375 -0.296875 
Q 33.90625 -0.59375 30.75 -0.84375 
Q 27.59375 -1.09375 24.5 -1.09375 
Q 20.09375 -1.09375 16.390625 -0.1875 
Q 12.703125 0.703125 10 2.640625 
Q 7.296875 4.59375 5.796875 7.796875 
Q 4.296875 11 4.296875 15.5 
Q 4.296875 19.796875 6.046875 22.890625 
Q 7.796875 26 10.796875 27.890625 
Q 13.796875 29.796875 17.796875 30.6875 
Q 21.796875 31.59375 26.203125 31.59375 
Q 27.59375 31.59375 29.09375 31.4375 
Q 30.59375 31.296875 31.9375 31.046875 
Q 33.296875 30.796875 34.296875 30.59375 
Q 35.296875 30.40625 35.703125 30.296875 
L 35.703125 32.90625 
Q 35.703125 35.203125 35.203125 37.453125 
Q 34.703125 39.703125 33.390625 41.453125 
Q 32.09375 43.203125 29.84375 44.25 
Q 27.59375 45.296875 24 45.296875 
Q 19.40625 45.296875 15.953125 44.640625 
Q 12.5 44 10.796875 43.296875 
L 9.703125 51 
Q 11.5 51.796875 15.703125 52.546875 
Q 19.90625 53.296875 24.796875 53.296875 
z
" id="Ubuntu-97"/>
      <path d="M 40.59375 5.203125 
Q 39.40625 4.40625 35.953125 3.15625 
Q 32.5 1.90625 27.90625 1.90625 
Q 23.203125 1.90625 19.046875 3.40625 
Q 14.90625 4.90625 11.796875 8.046875 
Q 8.703125 11.203125 6.890625 15.890625 
Q 5.09375 20.59375 5.09375 27.09375 
Q 5.09375 32.796875 6.796875 37.546875 
Q 8.5 42.296875 11.75 45.75 
Q 15 49.203125 19.703125 51.140625 
Q 24.40625 53.09375 30.296875 53.09375 
Q 36.796875 53.09375 41.640625 52.140625 
Q 46.5 51.203125 49.796875 50.40625 
L 49.796875 4 
Q 49.796875 -8 43.59375 -13.390625 
Q 37.40625 -18.796875 24.796875 -18.796875 
Q 19.90625 -18.796875 15.546875 -18 
Q 11.203125 -17.203125 8 -16.09375 
L 9.703125 -8 
Q 12.5 -9.09375 16.546875 -9.9375 
Q 20.59375 -10.796875 25 -10.796875 
Q 33.296875 -10.796875 36.9375 -7.5 
Q 40.59375 -4.203125 40.59375 3 
z
M 40.5 43.796875 
Q 39.09375 44.203125 36.75 44.546875 
Q 34.40625 44.90625 30.40625 44.90625 
Q 22.90625 44.90625 18.84375 40 
Q 14.796875 35.09375 14.796875 27 
Q 14.796875 22.5 15.9375 19.296875 
Q 17.09375 16.09375 19.046875 14 
Q 21 11.90625 23.546875 10.90625 
Q 26.09375 9.90625 28.796875 9.90625 
Q 32.5 9.90625 35.59375 10.953125 
Q 38.703125 12 40.5 13.40625 
z
" id="Ubuntu-103"/>
      <path d="M 44.09375 25.90625 
Q 44.09375 35 39.59375 39.890625 
Q 35.09375 44.796875 27.59375 44.796875 
Q 23.40625 44.796875 21.046875 44.5 
Q 18.703125 44.203125 17.296875 43.796875 
L 17.296875 11 
Q 19 9.59375 22.203125 8.296875 
Q 25.40625 7 29.203125 7 
Q 33.203125 7 36.046875 8.453125 
Q 38.90625 9.90625 40.703125 12.453125 
Q 42.5 15 43.296875 18.453125 
Q 44.09375 21.90625 44.09375 25.90625 
z
M 53.796875 25.90625 
Q 53.796875 20 52.25 15 
Q 50.703125 10 47.703125 6.390625 
Q 44.703125 2.796875 40.34375 0.796875 
Q 36 -1.203125 30.40625 -1.203125 
Q 25.90625 -1.203125 22.453125 0 
Q 19 1.203125 17.296875 2.296875 
L 17.296875 -18.5 
L 8 -18.5 
L 8 50.40625 
Q 11.296875 51.203125 16.25 52.140625 
Q 21.203125 53.09375 27.703125 53.09375 
Q 33.703125 53.09375 38.5 51.1875 
Q 43.296875 49.296875 46.6875 45.796875 
Q 50.09375 42.296875 51.9375 37.25 
Q 53.796875 32.203125 53.796875 25.90625 
z
" id="Ubuntu-112"/>
     </defs>
     <g transform="translate(447.282625 113.639375)scale(0.14 -0.14)">
      <use xlink:href="#Ubuntu-84"/>
      <use x="56.437485" xlink:href="#Ubuntu-114"/>
      <use x="95.037476" xlink:href="#Ubuntu-97"/>
      <use x="147.237473" xlink:href="#Ubuntu-105"/>
      <use x="172.53746" xlink:href="#Ubuntu-110"/>
      <use x="229.937454" xlink:href="#Ubuntu-105"/>
      <use x="255.237442" xlink:href="#Ubuntu-110"/>
      <use x="312.637436" xlink:href="#Ubuntu-103"/>
      <use x="370.437424" xlink:href="#Ubuntu-32"/>
      <use x="393.537415" xlink:href="#Ubuntu-112"/>
      <use x="452.437408" xlink:href="#Ubuntu-111"/>
      <use x="511.437393" xlink:href="#Ubuntu-105"/>
      <use x="536.737381" xlink:href="#Ubuntu-110"/>
      <use x="594.137375" xlink:href="#Ubuntu-116"/>
      <use x="634.337372" xlink:href="#Ubuntu-115"/>
     </g>
    </g>
   </g>
   <g id="PathCollection_2">
    <g clip-path="url(#p5cd048360c)">
     <use style="fill:#ff0000;stroke:#ff0000;stroke-width:0.24;" x="87.872443" xlink:href="#m4d030f4df4" y="148.609852"/>
    </g>
   </g>
  </g>
 </g>
 <defs>
  <clipPath id="p5cd048360c">
   <rect height="217.44" width="334.8" x="47.290625" y="7.2"/>
  </clipPath>
 </defs>
</svg>
