<?xml version="1.0" encoding="utf-8" standalone="no"?>
<!DOCTYPE svg PUBLIC "-//W3C//DTD SVG 1.1//EN"
  "http://www.w3.org/Graphics/SVG/1.1/DTD/svg11.dtd">
<!-- Created with matplotlib (https://matplotlib.org/) -->
<svg height="260.480625pt" version="1.1" viewBox="0 0 588.476725 260.480625" width="588.476725pt" xmlns="http://www.w3.org/2000/svg" xmlns:xlink="http://www.w3.org/1999/xlink">
 <defs>
  <style type="text/css">
*{stroke-linecap:butt;stroke-linejoin:round;white-space:pre;}
  </style>
 </defs>
 <g id="figure_1">
  <g id="patch_1">
   <path d="M 0 260.480625 
L 588.476725 260.480625 
L 588.476725 0 
L 0 0 
z
" style="fill:#f0f0f0;"/>
  </g>
  <g id="axes_1">
   <g id="patch_2">
    <path d="M 31.871875 224.64 
L 407.711875 224.64 
L 407.711875 7.2 
L 31.871875 7.2 
z
" style="fill:#f0f0f0;"/>
   </g>
   <g id="matplotlib.axis_1">
    <g id="xtick_1">
     <g id="line2d_1">
      <path clip-path="url(#pa5a55ab293)" d="M 48.955511 224.64 
L 48.955511 7.2 
" style="fill:none;stroke:#cbcbcb;"/>
     </g>
     <g id="line2d_2"/>
     <g id="text_1">
      <!-- 0 -->
      <defs>
       <path d="M 5 34.703125 
Q 5 52.09375 11.140625 61.5 
Q 17.296875 70.90625 28.203125 70.90625 
Q 39.09375 70.90625 45.25 61.5 
Q 51.40625 52.09375 51.40625 34.703125 
Q 51.40625 17.296875 45.25 7.890625 
Q 39.09375 -1.5 28.203125 -1.5 
Q 17.296875 -1.5 11.140625 7.890625 
Q 5 17.296875 5 34.703125 
z
M 41.59375 34.703125 
Q 41.59375 40.40625 40.9375 45.5 
Q 40.296875 50.59375 38.75 54.390625 
Q 37.203125 58.203125 34.59375 60.453125 
Q 32 62.703125 28.203125 62.703125 
Q 24.40625 62.703125 21.796875 60.453125 
Q 19.203125 58.203125 17.640625 54.390625 
Q 16.09375 50.59375 15.4375 45.5 
Q 14.796875 40.40625 14.796875 34.703125 
Q 14.796875 29 15.4375 23.890625 
Q 16.09375 18.796875 17.640625 15 
Q 19.203125 11.203125 21.796875 8.953125 
Q 24.40625 6.703125 28.203125 6.703125 
Q 32 6.703125 34.59375 8.953125 
Q 37.203125 11.203125 38.75 15 
Q 40.296875 18.796875 40.9375 23.890625 
Q 41.59375 29 41.59375 34.703125 
z
" id="Ubuntu-48"/>
      </defs>
      <g transform="translate(46.135199 235.899375)scale(0.1 -0.1)">
       <use xlink:href="#Ubuntu-48"/>
      </g>
     </g>
    </g>
    <g id="xtick_2">
     <g id="line2d_3">
      <path clip-path="url(#pa5a55ab293)" d="M 105.900966 224.64 
L 105.900966 7.2 
" style="fill:none;stroke:#cbcbcb;"/>
     </g>
     <g id="line2d_4"/>
     <g id="text_2">
      <!-- 1 -->
      <defs>
       <path d="M 9.296875 55 
Q 15 57.203125 20.390625 60.640625 
Q 25.796875 64.09375 30.296875 69.296875 
L 36.90625 69.296875 
L 36.90625 0 
L 27.59375 0 
L 27.59375 56.40625 
Q 26.40625 55.296875 24.65625 54.09375 
Q 22.90625 52.90625 20.84375 51.796875 
Q 18.796875 50.703125 16.546875 49.703125 
Q 14.296875 48.703125 12.203125 48 
z
" id="Ubuntu-49"/>
      </defs>
      <g transform="translate(103.080653 235.899375)scale(0.1 -0.1)">
       <use xlink:href="#Ubuntu-49"/>
      </g>
     </g>
    </g>
    <g id="xtick_3">
     <g id="line2d_5">
      <path clip-path="url(#pa5a55ab293)" d="M 162.84642 224.64 
L 162.84642 7.2 
" style="fill:none;stroke:#cbcbcb;"/>
     </g>
     <g id="line2d_6"/>
     <g id="text_3">
      <!-- 2 -->
      <defs>
       <path d="M 46.703125 51.59375 
Q 46.703125 48 45.25 44.640625 
Q 43.796875 41.296875 41.390625 38.046875 
Q 39 34.796875 36 31.640625 
Q 33 28.5 30 25.5 
Q 28.296875 23.796875 26.046875 21.5 
Q 23.796875 19.203125 21.796875 16.703125 
Q 19.796875 14.203125 18.4375 11.890625 
Q 17.09375 9.59375 17.09375 7.90625 
L 49 7.90625 
L 49 0 
L 7 0 
Q 6.90625 0.59375 6.90625 1.1875 
Q 6.90625 1.796875 6.90625 2.296875 
Q 6.90625 7 8.453125 11.046875 
Q 10 15.09375 12.5 18.6875 
Q 15 22.296875 18.09375 25.5 
Q 21.203125 28.703125 24.203125 31.703125 
Q 26.703125 34.09375 28.953125 36.4375 
Q 31.203125 38.796875 32.953125 41.140625 
Q 34.703125 43.5 35.75 46 
Q 36.796875 48.5 36.796875 51.296875 
Q 36.796875 54.296875 35.84375 56.390625 
Q 34.90625 58.5 33.296875 59.890625 
Q 31.703125 61.296875 29.546875 61.9375 
Q 27.40625 62.59375 25 62.59375 
Q 22.09375 62.59375 19.6875 61.796875 
Q 17.296875 61 15.390625 59.953125 
Q 13.5 58.90625 12.203125 57.75 
Q 10.90625 56.59375 10.203125 56 
L 5.59375 62.59375 
Q 6.5 63.59375 8.296875 65.046875 
Q 10.09375 66.5 12.59375 67.796875 
Q 15.09375 69.09375 18.1875 70 
Q 21.296875 70.90625 24.90625 70.90625 
Q 35.796875 70.90625 41.25 65.84375 
Q 46.703125 60.796875 46.703125 51.59375 
z
" id="Ubuntu-50"/>
      </defs>
      <g transform="translate(160.026108 235.899375)scale(0.1 -0.1)">
       <use xlink:href="#Ubuntu-50"/>
      </g>
     </g>
    </g>
    <g id="xtick_4">
     <g id="line2d_7">
      <path clip-path="url(#pa5a55ab293)" d="M 219.791875 224.64 
L 219.791875 7.2 
" style="fill:none;stroke:#cbcbcb;"/>
     </g>
     <g id="line2d_8"/>
     <g id="text_4">
      <!-- 3 -->
      <defs>
       <path d="M 22.59375 6.796875 
Q 31.5 6.796875 35.34375 10.296875 
Q 39.203125 13.796875 39.203125 19.703125 
Q 39.203125 23.5 37.59375 26.09375 
Q 36 28.703125 33.390625 30.25 
Q 30.796875 31.796875 27.34375 32.4375 
Q 23.90625 33.09375 20.296875 33.09375 
L 17.90625 33.09375 
L 17.90625 40.703125 
L 21.203125 40.703125 
Q 23.703125 40.703125 26.34375 41.203125 
Q 29 41.703125 31.203125 43 
Q 33.40625 44.296875 34.796875 46.546875 
Q 36.203125 48.796875 36.203125 52.203125 
Q 36.203125 55 35.203125 57 
Q 34.203125 59 32.546875 60.296875 
Q 30.90625 61.59375 28.75 62.140625 
Q 26.59375 62.703125 24.203125 62.703125 
Q 19.40625 62.703125 16.046875 61.296875 
Q 12.703125 59.90625 10.40625 58.40625 
L 6.796875 65.5 
Q 8 66.296875 9.84375 67.25 
Q 11.703125 68.203125 14 69 
Q 16.296875 69.796875 18.9375 70.34375 
Q 21.59375 70.90625 24.5 70.90625 
Q 30 70.90625 34 69.546875 
Q 38 68.203125 40.59375 65.75 
Q 43.203125 63.296875 44.5 59.9375 
Q 45.796875 56.59375 45.796875 52.703125 
Q 45.796875 47.296875 42.6875 43.4375 
Q 39.59375 39.59375 35.203125 37.59375 
Q 37.90625 36.796875 40.40625 35.296875 
Q 42.90625 33.796875 44.75 31.5 
Q 46.59375 29.203125 47.75 26.203125 
Q 48.90625 23.203125 48.90625 19.5 
Q 48.90625 15 47.34375 11.140625 
Q 45.796875 7.296875 42.546875 4.5 
Q 39.296875 1.703125 34.390625 0.09375 
Q 29.5 -1.5 22.796875 -1.5 
Q 20.203125 -1.5 17.453125 -1.09375 
Q 14.703125 -0.703125 12.296875 -0.09375 
Q 9.90625 0.5 8.09375 1.09375 
Q 6.296875 1.703125 5.5 2.09375 
L 7.296875 10.203125 
Q 9 9.40625 12.953125 8.09375 
Q 16.90625 6.796875 22.59375 6.796875 
z
" id="Ubuntu-51"/>
      </defs>
      <g transform="translate(216.971563 235.899375)scale(0.1 -0.1)">
       <use xlink:href="#Ubuntu-51"/>
      </g>
     </g>
    </g>
    <g id="xtick_5">
     <g id="line2d_9">
      <path clip-path="url(#pa5a55ab293)" d="M 276.73733 224.64 
L 276.73733 7.2 
" style="fill:none;stroke:#cbcbcb;"/>
     </g>
     <g id="line2d_10"/>
     <g id="text_5">
      <!-- 4 -->
      <defs>
       <path d="M 4 24 
Q 5.90625 28.40625 9.203125 34.25 
Q 12.5 40.09375 16.640625 46.296875 
Q 20.796875 52.5 25.546875 58.5 
Q 30.296875 64.5 35.09375 69.296875 
L 44 69.296875 
L 44 25.296875 
L 52.203125 25.296875 
L 52.203125 17.703125 
L 44 17.703125 
L 44 0 
L 35 0 
L 35 17.703125 
L 4 17.703125 
z
M 35 58.296875 
Q 32 55.09375 28.953125 51.140625 
Q 25.90625 47.203125 23 42.890625 
Q 20.09375 38.59375 17.546875 34.09375 
Q 15 29.59375 13 25.296875 
L 35 25.296875 
z
" id="Ubuntu-52"/>
      </defs>
      <g transform="translate(273.917017 235.899375)scale(0.1 -0.1)">
       <use xlink:href="#Ubuntu-52"/>
      </g>
     </g>
    </g>
    <g id="xtick_6">
     <g id="line2d_11">
      <path clip-path="url(#pa5a55ab293)" d="M 333.682784 224.64 
L 333.682784 7.2 
" style="fill:none;stroke:#cbcbcb;"/>
     </g>
     <g id="line2d_12"/>
     <g id="text_6">
      <!-- 5 -->
      <defs>
       <path d="M 19.90625 42.59375 
Q 35 42 42.046875 36 
Q 49.09375 30 49.09375 19.703125 
Q 49.09375 15.09375 47.546875 11.1875 
Q 46 7.296875 42.84375 4.5 
Q 39.703125 1.703125 34.890625 0.09375 
Q 30.09375 -1.5 23.5 -1.5 
Q 20.90625 -1.5 18.203125 -1.09375 
Q 15.5 -0.703125 13.203125 -0.09375 
Q 10.90625 0.5 9.09375 1.09375 
Q 7.296875 1.703125 6.5 2.09375 
L 8.296875 10.203125 
Q 10 9.40625 13.84375 8.09375 
Q 17.703125 6.796875 23.296875 6.796875 
Q 27.796875 6.796875 30.84375 7.796875 
Q 33.90625 8.796875 35.796875 10.5 
Q 37.703125 12.203125 38.546875 14.453125 
Q 39.40625 16.703125 39.40625 19.203125 
Q 39.40625 23 38.09375 25.953125 
Q 36.796875 28.90625 33.5 30.90625 
Q 30.203125 32.90625 24.703125 33.953125 
Q 19.203125 35 10.796875 35 
Q 11.40625 39.90625 11.75 44.203125 
Q 12.09375 48.5 12.390625 52.59375 
Q 12.703125 56.703125 12.890625 60.75 
Q 13.09375 64.796875 13.296875 69.296875 
L 46.703125 69.296875 
L 46.703125 61.40625 
L 21.40625 61.40625 
Q 21.296875 59.90625 21.09375 57.34375 
Q 20.90625 54.796875 20.703125 52.046875 
Q 20.5 49.296875 20.296875 46.6875 
Q 20.09375 44.09375 19.90625 42.59375 
z
" id="Ubuntu-53"/>
      </defs>
      <g transform="translate(330.862472 235.899375)scale(0.1 -0.1)">
       <use xlink:href="#Ubuntu-53"/>
      </g>
     </g>
    </g>
    <g id="xtick_7">
     <g id="line2d_13">
      <path clip-path="url(#pa5a55ab293)" d="M 390.628239 224.64 
L 390.628239 7.2 
" style="fill:none;stroke:#cbcbcb;"/>
     </g>
     <g id="line2d_14"/>
     <g id="text_7">
      <!-- 6 -->
      <defs>
       <path d="M 6.296875 27.796875 
Q 6.296875 37.90625 9.09375 45.65625 
Q 11.90625 53.40625 17.046875 58.703125 
Q 22.203125 64 29.546875 66.75 
Q 36.90625 69.5 46.09375 69.59375 
L 46.796875 61.796875 
Q 40.90625 61.703125 36.046875 60.5 
Q 31.203125 59.296875 27.390625 56.6875 
Q 23.59375 54.09375 21 49.9375 
Q 18.40625 45.796875 17.09375 39.703125 
Q 19.703125 40.90625 22.953125 41.703125 
Q 26.203125 42.5 29.703125 42.5 
Q 35.59375 42.5 39.6875 40.703125 
Q 43.796875 38.90625 46.390625 35.953125 
Q 49 33 50.140625 29.140625 
Q 51.296875 25.296875 51.296875 21.09375 
Q 51.296875 17.296875 50 13.296875 
Q 48.703125 9.296875 46.046875 6 
Q 43.40625 2.703125 39.296875 0.59375 
Q 35.203125 -1.5 29.59375 -1.5 
Q 18.203125 -1.5 12.25 6.296875 
Q 6.296875 14.09375 6.296875 27.796875 
z
M 28.703125 34.90625 
Q 25.203125 34.90625 22.203125 34.25 
Q 19.203125 33.59375 16.203125 32.296875 
Q 16.09375 31.203125 16.046875 30.046875 
Q 16 28.90625 16 27.796875 
Q 16 23.40625 16.59375 19.5 
Q 17.203125 15.59375 18.75 12.640625 
Q 20.296875 9.703125 22.890625 7.953125 
Q 25.5 6.203125 29.5 6.203125 
Q 32.796875 6.203125 35.09375 7.59375 
Q 37.40625 9 38.90625 11.203125 
Q 40.40625 13.40625 41.046875 15.953125 
Q 41.703125 18.5 41.703125 20.90625 
Q 41.703125 27.703125 38.453125 31.296875 
Q 35.203125 34.90625 28.703125 34.90625 
z
" id="Ubuntu-54"/>
      </defs>
      <g transform="translate(387.807926 235.899375)scale(0.1 -0.1)">
       <use xlink:href="#Ubuntu-54"/>
      </g>
     </g>
    </g>
    <g id="text_8">
     <!-- X -->
     <defs>
      <path d="M 50.203125 0 
Q 48.703125 3 46.59375 6.640625 
Q 44.5 10.296875 42 14.25 
Q 39.5 18.203125 36.796875 22.140625 
Q 34.09375 26.09375 31.59375 29.59375 
Q 29.09375 26.09375 26.390625 22.140625 
Q 23.703125 18.203125 21.25 14.25 
Q 18.796875 10.296875 16.640625 6.640625 
Q 14.5 3 13 0 
L 2.296875 0 
Q 6.796875 8.796875 12.75 17.890625 
Q 18.703125 27 25.40625 36.59375 
L 3.203125 69.296875 
L 14.40625 69.296875 
L 31.5 43.5 
L 48.40625 69.296875 
L 59.5 69.296875 
L 37.703125 37 
Q 44.5 27.296875 50.5 18.09375 
Q 56.5 8.90625 61.09375 0 
z
" id="Ubuntu-88"/>
     </defs>
     <g transform="translate(216.00625 251.060625)scale(0.12 -0.12)">
      <use xlink:href="#Ubuntu-88"/>
     </g>
    </g>
   </g>
   <g id="matplotlib.axis_2">
    <g id="ytick_1">
     <g id="line2d_15">
      <path clip-path="url(#pa5a55ab293)" d="M 31.871875 193.292373 
L 407.711875 193.292373 
" style="fill:none;stroke:#cbcbcb;"/>
     </g>
     <g id="line2d_16"/>
     <g id="text_9">
      <!-- 0 -->
      <g transform="translate(22.73125 197.17206)scale(0.1 -0.1)">
       <use xlink:href="#Ubuntu-48"/>
      </g>
     </g>
    </g>
    <g id="ytick_2">
     <g id="line2d_17">
      <path clip-path="url(#pa5a55ab293)" d="M 31.871875 150.190965 
L 407.711875 150.190965 
" style="fill:none;stroke:#cbcbcb;"/>
     </g>
     <g id="line2d_18"/>
     <g id="text_10">
      <!-- 2 -->
      <g transform="translate(22.73125 154.070652)scale(0.1 -0.1)">
       <use xlink:href="#Ubuntu-50"/>
      </g>
     </g>
    </g>
    <g id="ytick_3">
     <g id="line2d_19">
      <path clip-path="url(#pa5a55ab293)" d="M 31.871875 107.089557 
L 407.711875 107.089557 
" style="fill:none;stroke:#cbcbcb;"/>
     </g>
     <g id="line2d_20"/>
     <g id="text_11">
      <!-- 4 -->
      <g transform="translate(22.73125 110.969244)scale(0.1 -0.1)">
       <use xlink:href="#Ubuntu-52"/>
      </g>
     </g>
    </g>
    <g id="ytick_4">
     <g id="line2d_21">
      <path clip-path="url(#pa5a55ab293)" d="M 31.871875 63.988149 
L 407.711875 63.988149 
" style="fill:none;stroke:#cbcbcb;"/>
     </g>
     <g id="line2d_22"/>
     <g id="text_12">
      <!-- 6 -->
      <g transform="translate(22.73125 67.867836)scale(0.1 -0.1)">
       <use xlink:href="#Ubuntu-54"/>
      </g>
     </g>
    </g>
    <g id="ytick_5">
     <g id="line2d_23">
      <path clip-path="url(#pa5a55ab293)" d="M 31.871875 20.886741 
L 407.711875 20.886741 
" style="fill:none;stroke:#cbcbcb;"/>
     </g>
     <g id="line2d_24"/>
     <g id="text_13">
      <!-- 8 -->
      <defs>
       <path d="M 50.90625 18 
Q 50.90625 13.796875 49.453125 10.25 
Q 48 6.703125 45.140625 4.046875 
Q 42.296875 1.40625 38 -0.046875 
Q 33.703125 -1.5 28.09375 -1.5 
Q 21.59375 -1.5 17.25 0.34375 
Q 12.90625 2.203125 10.296875 5 
Q 7.703125 7.796875 6.59375 11.140625 
Q 5.5 14.5 5.5 17.5 
Q 5.5 20.40625 6.453125 23.046875 
Q 7.40625 25.703125 8.953125 28 
Q 10.5 30.296875 12.546875 32.140625 
Q 14.59375 34 16.90625 35.40625 
Q 7.09375 41 7.09375 51.90625 
Q 7.09375 55.703125 8.59375 59.140625 
Q 10.09375 62.59375 12.84375 65.1875 
Q 15.59375 67.796875 19.5 69.34375 
Q 23.40625 70.90625 28.203125 70.90625 
Q 33.796875 70.90625 37.796875 69.203125 
Q 41.796875 67.5 44.34375 64.84375 
Q 46.90625 62.203125 48.046875 59 
Q 49.203125 55.796875 49.203125 52.796875 
Q 49.203125 49.90625 48.34375 47.34375 
Q 47.5 44.796875 46.046875 42.59375 
Q 44.59375 40.40625 42.75 38.703125 
Q 40.90625 37 38.90625 35.703125 
Q 50.703125 30.09375 50.90625 18 
z
M 14.90625 17.40625 
Q 14.90625 15.59375 15.546875 13.640625 
Q 16.203125 11.703125 17.796875 10.046875 
Q 19.40625 8.40625 21.90625 7.296875 
Q 24.40625 6.203125 28.203125 6.203125 
Q 31.59375 6.203125 34.140625 7.203125 
Q 36.703125 8.203125 38.296875 9.75 
Q 39.90625 11.296875 40.703125 13.296875 
Q 41.5 15.296875 41.5 17.40625 
Q 41.5 20.59375 40.296875 23 
Q 39.09375 25.40625 36.84375 27.203125 
Q 34.59375 29 31.4375 30.25 
Q 28.296875 31.5 24.296875 32.40625 
Q 19.796875 29.90625 17.34375 26.203125 
Q 14.90625 22.5 14.90625 17.40625 
z
M 39.90625 52.90625 
Q 39.90625 54.40625 39.25 56.203125 
Q 38.59375 58 37.1875 59.546875 
Q 35.796875 61.09375 33.59375 62.140625 
Q 31.40625 63.203125 28.203125 63.203125 
Q 25 63.203125 22.75 62.203125 
Q 20.5 61.203125 19.09375 59.640625 
Q 17.703125 58.09375 17.046875 56.25 
Q 16.40625 54.40625 16.40625 52.59375 
Q 16.40625 50.40625 17.203125 48.203125 
Q 18 46 19.703125 44.09375 
Q 21.40625 42.203125 24.15625 40.703125 
Q 26.90625 39.203125 30.703125 38.296875 
Q 34.90625 40.796875 37.40625 44.140625 
Q 39.90625 47.5 39.90625 52.90625 
z
" id="Ubuntu-56"/>
      </defs>
      <g transform="translate(22.73125 24.766428)scale(0.1 -0.1)">
       <use xlink:href="#Ubuntu-56"/>
      </g>
     </g>
    </g>
    <g id="text_14">
     <!-- Gold content -->
     <defs>
      <path d="M 50.90625 34.09375 
L 60.59375 34.09375 
L 60.59375 1.703125 
Q 59.40625 1.296875 57.15625 0.796875 
Q 54.90625 0.296875 51.953125 -0.203125 
Q 49 -0.703125 45.5 -1.046875 
Q 42 -1.40625 38.40625 -1.40625 
Q 31.09375 -1.40625 25.09375 1 
Q 19.09375 3.40625 14.796875 8 
Q 10.5 12.59375 8.140625 19.296875 
Q 5.796875 26 5.796875 34.703125 
Q 5.796875 43.40625 8.4375 50.15625 
Q 11.09375 56.90625 15.59375 61.5 
Q 20.09375 66.09375 26.140625 68.5 
Q 32.203125 70.90625 39.09375 70.90625 
Q 43.796875 70.90625 47.4375 70.296875 
Q 51.09375 69.703125 53.6875 68.890625 
Q 56.296875 68.09375 57.9375 67.296875 
Q 59.59375 66.5 60.203125 66.09375 
L 57.09375 58 
Q 54.203125 59.90625 49.390625 61.15625 
Q 44.59375 62.40625 39.59375 62.40625 
Q 34.296875 62.40625 29.9375 60.5 
Q 25.59375 58.59375 22.546875 55 
Q 19.5 51.40625 17.796875 46.25 
Q 16.09375 41.09375 16.09375 34.703125 
Q 16.09375 28.5 17.546875 23.390625 
Q 19 18.296875 21.953125 14.640625 
Q 24.90625 11 29.25 9 
Q 33.59375 7 39.5 7 
Q 43.703125 7 46.640625 7.453125 
Q 49.59375 7.90625 50.90625 8.296875 
z
" id="Ubuntu-71"/>
      <path d="M 53.90625 26 
Q 53.90625 19.796875 52.09375 14.796875 
Q 50.296875 9.796875 47.046875 6.1875 
Q 43.796875 2.59375 39.296875 0.640625 
Q 34.796875 -1.296875 29.5 -1.296875 
Q 24.203125 -1.296875 19.703125 0.640625 
Q 15.203125 2.59375 11.953125 6.1875 
Q 8.703125 9.796875 6.890625 14.796875 
Q 5.09375 19.796875 5.09375 26 
Q 5.09375 32.09375 6.890625 37.140625 
Q 8.703125 42.203125 11.953125 45.796875 
Q 15.203125 49.40625 19.703125 51.34375 
Q 24.203125 53.296875 29.5 53.296875 
Q 34.796875 53.296875 39.296875 51.34375 
Q 43.796875 49.40625 47.046875 45.796875 
Q 50.296875 42.203125 52.09375 37.140625 
Q 53.90625 32.09375 53.90625 26 
z
M 44.203125 26 
Q 44.203125 34.796875 40.25 39.9375 
Q 36.296875 45.09375 29.5 45.09375 
Q 22.703125 45.09375 18.75 39.9375 
Q 14.796875 34.796875 14.796875 26 
Q 14.796875 17.203125 18.75 12.046875 
Q 22.703125 6.90625 29.5 6.90625 
Q 36.296875 6.90625 40.25 12.046875 
Q 44.203125 17.203125 44.203125 26 
z
" id="Ubuntu-111"/>
      <path d="M 23.59375 -1 
Q 15 -0.796875 11.390625 2.703125 
Q 7.796875 6.203125 7.796875 13.59375 
L 7.796875 76 
L 17.09375 77.59375 
L 17.09375 15.09375 
Q 17.09375 12.796875 17.5 11.296875 
Q 17.90625 9.796875 18.796875 8.890625 
Q 19.703125 8 21.203125 7.546875 
Q 22.703125 7.09375 24.90625 6.796875 
z
" id="Ubuntu-108"/>
      <path d="M 41.59375 41 
Q 39.90625 42.40625 36.703125 43.703125 
Q 33.5 45 29.703125 45 
Q 25.703125 45 22.84375 43.546875 
Q 20 42.09375 18.203125 39.546875 
Q 16.40625 37 15.59375 33.5 
Q 14.796875 30 14.796875 26 
Q 14.796875 16.90625 19.296875 11.953125 
Q 23.796875 7 31.296875 7 
Q 35.09375 7 37.640625 7.34375 
Q 40.203125 7.703125 41.59375 8.09375 
z
M 41.59375 76 
L 50.90625 77.59375 
L 50.90625 1.5 
Q 47.703125 0.59375 42.703125 -0.296875 
Q 37.703125 -1.203125 31.203125 -1.203125 
Q 25.203125 -1.203125 20.390625 0.6875 
Q 15.59375 2.59375 12.1875 6.09375 
Q 8.796875 9.59375 6.9375 14.640625 
Q 5.09375 19.703125 5.09375 26 
Q 5.09375 32 6.640625 37 
Q 8.203125 42 11.203125 45.59375 
Q 14.203125 49.203125 18.546875 51.203125 
Q 22.90625 53.203125 28.5 53.203125 
Q 33 53.203125 36.453125 52 
Q 39.90625 50.796875 41.59375 49.703125 
z
" id="Ubuntu-100"/>
      <path id="Ubuntu-32"/>
      <path d="M 30.59375 -1.203125 
Q 24.296875 -1.203125 19.546875 0.796875 
Q 14.796875 2.796875 11.546875 6.390625 
Q 8.296875 10 6.6875 14.953125 
Q 5.09375 19.90625 5.09375 25.90625 
Q 5.09375 31.90625 6.84375 36.90625 
Q 8.59375 41.90625 11.796875 45.546875 
Q 15 49.203125 19.640625 51.25 
Q 24.296875 53.296875 30 53.296875 
Q 33.5 53.296875 37 52.6875 
Q 40.5 52.09375 43.703125 50.796875 
L 41.59375 42.90625 
Q 39.5 43.90625 36.75 44.5 
Q 34 45.09375 30.90625 45.09375 
Q 23.09375 45.09375 18.9375 40.1875 
Q 14.796875 35.296875 14.796875 25.90625 
Q 14.796875 21.703125 15.75 18.203125 
Q 16.703125 14.703125 18.75 12.203125 
Q 20.796875 9.703125 24 8.34375 
Q 27.203125 7 31.796875 7 
Q 35.5 7 38.5 7.703125 
Q 41.5 8.40625 43.203125 9.203125 
L 44.5 1.40625 
Q 43.703125 0.90625 42.203125 0.453125 
Q 40.703125 0 38.796875 -0.34375 
Q 36.90625 -0.703125 34.75 -0.953125 
Q 32.59375 -1.203125 30.59375 -1.203125 
z
" id="Ubuntu-99"/>
      <path d="M 8 50.5 
Q 11.203125 51.296875 16.5 52.1875 
Q 21.796875 53.09375 28.703125 53.09375 
Q 34.90625 53.09375 39 51.34375 
Q 43.09375 49.59375 45.546875 46.4375 
Q 48 43.296875 49 38.890625 
Q 50 34.5 50 29.203125 
L 50 0 
L 40.703125 0 
L 40.703125 27.203125 
Q 40.703125 32 40.046875 35.390625 
Q 39.40625 38.796875 37.90625 40.890625 
Q 36.40625 43 33.90625 43.953125 
Q 31.40625 44.90625 27.703125 44.90625 
Q 26.203125 44.90625 24.59375 44.796875 
Q 23 44.703125 21.546875 44.546875 
Q 20.09375 44.40625 18.9375 44.203125 
Q 17.796875 44 17.296875 43.90625 
L 17.296875 0 
L 8 0 
z
" id="Ubuntu-110"/>
      <path d="M 16.703125 52 
L 36.40625 52 
L 36.40625 44.203125 
L 16.703125 44.203125 
L 16.703125 20.203125 
Q 16.703125 16.296875 17.296875 13.75 
Q 17.90625 11.203125 19.09375 9.75 
Q 20.296875 8.296875 22.09375 7.6875 
Q 23.90625 7.09375 26.296875 7.09375 
Q 30.5 7.09375 33.046875 8.046875 
Q 35.59375 9 36.59375 9.40625 
L 38.40625 1.703125 
Q 37 1 33.5 -0.046875 
Q 30 -1.09375 25.5 -1.09375 
Q 20.203125 -1.09375 16.75 0.25 
Q 13.296875 1.59375 11.1875 4.296875 
Q 9.09375 7 8.25 10.953125 
Q 7.40625 14.90625 7.40625 20.09375 
L 7.40625 66.5 
L 16.703125 68.09375 
z
" id="Ubuntu-116"/>
      <path d="M 5.09375 25.90625 
Q 5.09375 32.796875 7.09375 37.9375 
Q 9.09375 43.09375 12.390625 46.5 
Q 15.703125 49.90625 20 51.59375 
Q 24.296875 53.296875 28.796875 53.296875 
Q 39.296875 53.296875 44.890625 46.75 
Q 50.5 40.203125 50.5 26.796875 
Q 50.5 26.203125 50.5 25.25 
Q 50.5 24.296875 50.40625 23.5 
L 14.796875 23.5 
Q 15.40625 15.40625 19.5 11.203125 
Q 23.59375 7 32.296875 7 
Q 37.203125 7 40.546875 7.84375 
Q 43.90625 8.703125 45.59375 9.5 
L 46.90625 1.703125 
Q 45.203125 0.796875 40.953125 -0.203125 
Q 36.703125 -1.203125 31.296875 -1.203125 
Q 24.5 -1.203125 19.546875 0.84375 
Q 14.59375 2.90625 11.390625 6.5 
Q 8.203125 10.09375 6.640625 15.046875 
Q 5.09375 20 5.09375 25.90625 
z
M 40.796875 31 
Q 40.90625 37.296875 37.65625 41.34375 
Q 34.40625 45.40625 28.703125 45.40625 
Q 25.5 45.40625 23.046875 44.15625 
Q 20.59375 42.90625 18.890625 40.90625 
Q 17.203125 38.90625 16.25 36.296875 
Q 15.296875 33.703125 15 31 
z
" id="Ubuntu-101"/>
     </defs>
     <g transform="translate(16.51125 151.445625)rotate(-90)scale(0.12 -0.12)">
      <use xlink:href="#Ubuntu-71"/>
      <use x="67.199997" xlink:href="#Ubuntu-111"/>
      <use x="126.199982" xlink:href="#Ubuntu-108"/>
      <use x="153.499969" xlink:href="#Ubuntu-100"/>
      <use x="212.399963" xlink:href="#Ubuntu-32"/>
      <use x="235.499954" xlink:href="#Ubuntu-99"/>
      <use x="281.984314" xlink:href="#Ubuntu-111"/>
      <use x="340.984299" xlink:href="#Ubuntu-110"/>
      <use x="398.384293" xlink:href="#Ubuntu-116"/>
      <use x="438.568665" xlink:href="#Ubuntu-101"/>
      <use x="494.468658" xlink:href="#Ubuntu-110"/>
      <use x="551.868652" xlink:href="#Ubuntu-116"/>
     </g>
    </g>
   </g>
   <g id="PolyCollection_1">
    <defs>
     <path d="M 48.955511 -142.508525 
L 48.955511 -169.2158 
L 49.525917 -169.754684 
L 50.096322 -170.288167 
L 50.666727 -170.81591 
L 51.237132 -171.337565 
L 51.807537 -171.852773 
L 52.377943 -172.361167 
L 52.948348 -172.862366 
L 53.518753 -173.355983 
L 54.089158 -173.841616 
L 54.659564 -174.318854 
L 55.229969 -174.787275 
L 55.800374 -175.246443 
L 56.370779 -175.695914 
L 56.941184 -176.135229 
L 57.51159 -176.563918 
L 58.081995 -176.981496 
L 58.6524 -177.387469 
L 59.222805 -177.781326 
L 59.793211 -178.162546 
L 60.363616 -178.530591 
L 60.934021 -178.88491 
L 61.504426 -179.22494 
L 62.074831 -179.550101 
L 62.645237 -179.859797 
L 63.215642 -180.153419 
L 63.786047 -180.430343 
L 64.356452 -180.689925 
L 64.926858 -180.93151 
L 65.497263 -181.154422 
L 66.067668 -181.357971 
L 66.638073 -181.541449 
L 67.208478 -181.704129 
L 67.778884 -181.845268 
L 68.349289 -181.964103 
L 68.919694 -182.059854 
L 69.490099 -182.131721 
L 70.060505 -182.178885 
L 70.63091 -182.200505 
L 71.201315 -182.195725 
L 71.77172 -182.163662 
L 72.342125 -182.103418 
L 72.912531 -182.014069 
L 73.482936 -181.894672 
L 74.053341 -181.744261 
L 74.623746 -181.561848 
L 75.194152 -181.346421 
L 75.764557 -181.096945 
L 76.334962 -180.812364 
L 76.905367 -180.491593 
L 77.475772 -180.195842 
L 78.046178 -180.547614 
L 78.616583 -180.862277 
L 79.186988 -181.140934 
L 79.757393 -181.384661 
L 80.327799 -181.594515 
L 80.898204 -181.771525 
L 81.468609 -181.916699 
L 82.039014 -182.031021 
L 82.609419 -182.115454 
L 83.179825 -182.170939 
L 83.75023 -182.198392 
L 84.320635 -182.198712 
L 84.89104 -182.172775 
L 85.461445 -182.121436 
L 86.031851 -182.045532 
L 86.602256 -181.945879 
L 87.172661 -181.823273 
L 87.743066 -181.678491 
L 88.313472 -181.512294 
L 88.883877 -181.325421 
L 89.454282 -181.118596 
L 90.024687 -180.892524 
L 90.595092 -180.647893 
L 91.165498 -180.385375 
L 91.735903 -180.105625 
L 92.306308 -179.80928 
L 92.876713 -179.496965 
L 93.447119 -179.169285 
L 94.017524 -178.826834 
L 94.587929 -178.470188 
L 95.158334 -178.099909 
L 95.728739 -177.716547 
L 96.299145 -177.320634 
L 96.86955 -176.912692 
L 97.439955 -176.493228 
L 98.01036 -176.062735 
L 98.580766 -175.621695 
L 99.151171 -175.170577 
L 99.721576 -174.709835 
L 100.291981 -174.239915 
L 100.862386 -173.761249 
L 101.432792 -173.274257 
L 102.003197 -172.779349 
L 102.573602 -172.276924 
L 103.144007 -171.767368 
L 103.714413 -171.25106 
L 104.284818 -170.728366 
L 104.855223 -170.199642 
L 105.425628 -169.665236 
L 105.996033 -169.125484 
L 106.566439 -168.580714 
L 107.136844 -168.031244 
L 107.707249 -167.477384 
L 108.277654 -166.919434 
L 108.84806 -166.357687 
L 109.418465 -165.792425 
L 109.98887 -165.223924 
L 110.559275 -164.652451 
L 111.12968 -164.078265 
L 111.700086 -163.501619 
L 112.270491 -162.922756 
L 112.840896 -162.341913 
L 113.411301 -161.759319 
L 113.981707 -161.175198 
L 114.552112 -160.589765 
L 115.122517 -160.003229 
L 115.692922 -159.415793 
L 116.263327 -158.827653 
L 116.833733 -158.239 
L 117.404138 -157.650016 
L 117.974543 -157.060881 
L 118.544948 -156.471766 
L 119.115354 -155.882838 
L 119.685759 -155.294258 
L 120.256164 -154.706183 
L 120.826569 -154.118762 
L 121.396974 -153.532141 
L 121.96738 -152.94646 
L 122.537785 -152.361856 
L 123.10819 -151.778458 
L 123.678595 -151.196394 
L 124.249001 -150.615784 
L 124.819406 -150.036746 
L 125.389811 -149.459393 
L 125.960216 -148.883834 
L 126.530621 -148.310173 
L 127.101027 -147.738512 
L 127.671432 -147.168947 
L 128.241837 -146.601572 
L 128.812242 -146.036475 
L 129.382647 -145.473743 
L 129.953053 -144.913458 
L 130.523458 -144.3557 
L 131.093863 -143.800543 
L 131.664268 -143.24806 
L 132.234674 -142.69832 
L 132.805079 -142.151391 
L 133.375484 -141.607334 
L 133.945889 -141.06621 
L 134.516294 -140.528078 
L 135.0867 -139.992991 
L 135.657105 -139.461002 
L 136.22751 -138.932161 
L 136.797915 -138.406514 
L 137.368321 -137.884106 
L 137.938726 -137.364979 
L 138.509131 -136.849173 
L 139.079536 -136.336726 
L 139.649941 -135.827673 
L 140.220347 -135.322048 
L 140.790752 -134.81988 
L 141.361157 -134.321201 
L 141.931562 -133.826036 
L 142.501968 -133.334412 
L 143.072373 -132.846351 
L 143.642778 -132.361875 
L 144.213183 -131.881005 
L 144.783588 -131.403759 
L 145.353994 -130.930153 
L 145.924399 -130.460202 
L 146.494804 -129.99392 
L 147.065209 -129.531318 
L 147.635615 -129.072408 
L 148.20602 -128.617199 
L 148.776425 -128.165697 
L 149.34683 -127.717911 
L 149.917235 -127.273844 
L 150.487641 -126.833501 
L 151.058046 -126.396885 
L 151.628451 -125.963997 
L 152.198856 -125.534838 
L 152.769262 -125.109406 
L 153.339667 -124.687702 
L 153.910072 -124.269721 
L 154.480477 -123.85546 
L 155.050882 -123.444915 
L 155.621288 -123.03808 
L 156.191693 -122.634949 
L 156.762098 -122.235514 
L 157.332503 -121.839768 
L 157.902909 -121.447701 
L 158.473314 -121.059304 
L 159.043719 -120.674566 
L 159.614124 -120.293477 
L 160.184529 -119.916025 
L 160.754935 -119.542198 
L 161.32534 -119.171981 
L 161.895745 -118.805363 
L 162.46615 -118.442328 
L 163.036556 -118.082861 
L 163.606961 -117.726949 
L 164.177366 -117.374573 
L 164.747771 -117.025719 
L 165.318176 -116.68037 
L 165.888582 -116.338508 
L 166.458987 -116.000115 
L 167.029392 -115.665174 
L 167.599797 -115.333666 
L 168.170203 -115.005572 
L 168.740608 -114.680873 
L 169.311013 -114.35955 
L 169.881418 -114.041582 
L 170.451823 -113.726949 
L 171.022229 -113.415631 
L 171.592634 -113.107608 
L 172.163039 -112.802857 
L 172.733444 -112.501359 
L 173.30385 -112.20309 
L 173.874255 -111.908031 
L 174.44466 -111.616158 
L 175.015065 -111.32745 
L 175.58547 -111.041884 
L 176.155876 -110.759438 
L 176.726281 -110.480089 
L 177.296686 -110.203815 
L 177.867091 -109.930592 
L 178.437496 -109.660399 
L 179.007902 -109.393211 
L 179.578307 -109.129005 
L 180.148712 -108.867758 
L 180.719117 -108.609447 
L 181.289523 -108.354049 
L 181.859928 -108.101539 
L 182.430333 -107.851894 
L 183.000738 -107.605091 
L 183.571143 -107.361106 
L 184.141549 -107.119915 
L 184.711954 -106.881495 
L 185.282359 -106.645822 
L 185.852764 -106.412872 
L 186.42317 -106.182621 
L 186.993575 -105.955046 
L 187.56398 -105.730124 
L 188.134385 -105.50783 
L 188.70479 -105.288141 
L 189.275196 -105.071033 
L 189.845601 -104.856482 
L 190.416006 -104.644466 
L 190.986411 -104.434961 
L 191.556817 -104.227943 
L 192.127222 -104.023389 
L 192.697627 -103.821276 
L 193.268032 -103.62158 
L 193.838437 -103.424279 
L 194.408843 -103.229349 
L 194.979248 -103.036767 
L 195.549653 -102.846511 
L 196.120058 -102.658558 
L 196.690464 -102.472884 
L 197.260869 -102.289468 
L 197.831274 -102.108286 
L 198.401679 -101.929317 
L 198.972084 -101.752539 
L 199.54249 -101.577928 
L 200.112895 -101.405463 
L 200.6833 -101.235122 
L 201.253705 -101.066883 
L 201.824111 -100.900725 
L 202.394516 -100.736625 
L 202.964921 -100.574563 
L 203.535326 -100.414516 
L 204.105731 -100.256465 
L 204.676137 -100.100387 
L 205.246542 -99.946261 
L 205.816947 -99.794068 
L 206.387352 -99.643786 
L 206.957758 -99.495395 
L 207.528163 -99.348873 
L 208.098568 -99.204202 
L 208.668973 -99.061361 
L 209.239378 -98.920329 
L 209.809784 -98.781088 
L 210.380189 -98.643617 
L 210.950594 -98.507897 
L 211.520999 -98.373908 
L 212.091405 -98.241631 
L 212.66181 -98.111048 
L 213.232215 -97.982138 
L 213.80262 -97.854884 
L 214.373025 -97.729266 
L 214.943431 -97.605267 
L 215.513836 -97.482867 
L 216.084241 -97.362048 
L 216.654646 -97.242793 
L 217.225052 -97.125084 
L 217.795457 -97.008902 
L 218.365862 -96.894231 
L 218.936267 -96.781052 
L 219.506672 -96.669349 
L 220.077078 -96.559104 
L 220.647483 -96.4503 
L 221.217888 -96.342921 
L 221.788293 -96.236949 
L 222.358698 -96.132368 
L 222.929104 -96.029163 
L 223.499509 -95.927315 
L 224.069914 -95.82681 
L 224.640319 -95.727632 
L 225.210725 -95.629764 
L 225.78113 -95.533192 
L 226.351535 -95.437898 
L 226.92194 -95.343869 
L 227.492345 -95.251089 
L 228.062751 -95.159543 
L 228.633156 -95.069216 
L 229.203561 -94.980093 
L 229.773966 -94.892159 
L 230.344372 -94.805401 
L 230.914777 -94.719804 
L 231.485182 -94.635353 
L 232.055587 -94.552034 
L 232.625992 -94.469835 
L 233.196398 -94.38874 
L 233.766803 -94.308737 
L 234.337208 -94.229811 
L 234.907613 -94.15195 
L 235.478019 -94.07514 
L 236.048424 -93.999368 
L 236.618829 -93.924622 
L 237.189234 -93.850888 
L 237.759639 -93.778154 
L 238.330045 -93.706407 
L 238.90045 -93.635635 
L 239.470855 -93.565826 
L 240.04126 -93.496968 
L 240.611666 -93.429048 
L 241.182071 -93.362054 
L 241.752476 -93.295976 
L 242.322881 -93.230801 
L 242.893286 -93.166518 
L 243.463692 -93.103115 
L 244.034097 -93.040582 
L 244.604502 -92.978907 
L 245.174907 -92.918079 
L 245.745313 -92.858088 
L 246.315718 -92.798922 
L 246.886123 -92.740571 
L 247.456528 -92.683025 
L 248.026933 -92.626273 
L 248.597339 -92.570305 
L 249.167744 -92.51511 
L 249.738149 -92.46068 
L 250.308554 -92.407003 
L 250.87896 -92.35407 
L 251.449365 -92.301872 
L 252.01977 -92.250398 
L 252.590175 -92.19964 
L 253.16058 -92.149588 
L 253.730986 -92.100232 
L 254.301391 -92.051564 
L 254.871796 -92.003575 
L 255.442201 -91.956256 
L 256.012607 -91.909597 
L 256.583012 -91.863591 
L 257.153417 -91.818228 
L 257.723822 -91.7735 
L 258.294227 -91.729399 
L 258.864633 -91.685916 
L 259.435038 -91.643044 
L 260.005443 -91.600773 
L 260.575848 -91.559097 
L 261.146254 -91.518006 
L 261.716659 -91.477494 
L 262.287064 -91.437553 
L 262.857469 -91.398175 
L 263.427874 -91.359352 
L 263.99828 -91.321077 
L 264.568685 -91.283343 
L 265.13909 -91.246142 
L 265.709495 -91.209468 
L 266.2799 -91.173313 
L 266.850306 -91.13767 
L 267.420711 -91.102532 
L 267.991116 -91.067893 
L 268.561521 -91.033745 
L 269.131927 -91.000083 
L 269.702332 -90.966899 
L 270.272737 -90.934187 
L 270.843142 -90.901941 
L 271.413547 -90.870154 
L 271.983953 -90.83882 
L 272.554358 -90.807933 
L 273.124763 -90.777486 
L 273.695168 -90.747475 
L 274.265574 -90.717892 
L 274.835979 -90.688732 
L 275.406384 -90.65999 
L 275.976789 -90.631659 
L 276.547194 -90.603734 
L 277.1176 -90.576209 
L 277.688005 -90.549079 
L 278.25841 -90.522338 
L 278.828815 -90.495982 
L 279.399221 -90.470004 
L 279.969626 -90.444399 
L 280.540031 -90.419163 
L 281.110436 -90.39429 
L 281.680841 -90.369775 
L 282.251247 -90.345614 
L 282.821652 -90.321801 
L 283.392057 -90.298331 
L 283.962462 -90.2752 
L 284.532868 -90.252404 
L 285.103273 -90.229937 
L 285.673678 -90.207794 
L 286.244083 -90.185972 
L 286.814488 -90.164466 
L 287.384894 -90.143272 
L 287.955299 -90.122384 
L 288.525704 -90.101799 
L 289.096109 -90.081513 
L 289.666515 -90.061522 
L 290.23692 -90.04182 
L 290.807325 -90.022405 
L 291.37773 -90.003272 
L 291.948135 -89.984418 
L 292.518541 -89.965838 
L 293.088946 -89.947528 
L 293.659351 -89.929485 
L 294.229756 -89.911705 
L 294.800162 -89.894184 
L 295.370567 -89.876919 
L 295.940972 -89.859906 
L 296.511377 -89.843141 
L 297.081782 -89.826621 
L 297.652188 -89.810343 
L 298.222593 -89.794303 
L 298.792998 -89.778497 
L 299.363403 -89.762923 
L 299.933809 -89.747577 
L 300.504214 -89.732455 
L 301.074619 -89.717556 
L 301.645024 -89.702875 
L 302.215429 -89.688409 
L 302.785835 -89.674155 
L 303.35624 -89.660111 
L 303.926645 -89.646274 
L 304.49705 -89.632639 
L 305.067456 -89.619205 
L 305.637861 -89.605969 
L 306.208266 -89.592928 
L 306.778671 -89.580078 
L 307.349076 -89.567418 
L 307.919482 -89.554945 
L 308.489887 -89.542655 
L 309.060292 -89.530547 
L 309.630697 -89.518617 
L 310.201103 -89.506864 
L 310.771508 -89.495284 
L 311.341913 -89.483875 
L 311.912318 -89.472635 
L 312.482723 -89.461561 
L 313.053129 -89.450651 
L 313.623534 -89.439902 
L 314.193939 -89.429312 
L 314.764344 -89.41888 
L 315.334749 -89.408601 
L 315.905155 -89.398476 
L 316.47556 -89.3885 
L 317.045965 -89.378672 
L 317.61637 -89.368991 
L 318.186776 -89.359453 
L 318.757181 -89.350056 
L 319.327586 -89.3408 
L 319.897991 -89.33168 
L 320.468396 -89.322697 
L 321.038802 -89.313847 
L 321.609207 -89.305129 
L 322.179612 -89.29654 
L 322.750017 -89.28808 
L 323.320423 -89.279745 
L 323.890828 -89.271535 
L 324.461233 -89.263447 
L 325.031638 -89.25548 
L 325.602043 -89.247632 
L 326.172449 -89.239901 
L 326.742854 -89.232285 
L 327.313259 -89.224783 
L 327.883664 -89.217393 
L 328.45407 -89.210113 
L 329.024475 -89.202943 
L 329.59488 -89.195879 
L 330.165285 -89.188922 
L 330.73569 -89.182068 
L 331.306096 -89.175317 
L 331.876501 -89.168667 
L 332.446906 -89.162117 
L 333.017311 -89.155665 
L 333.587717 -89.14931 
L 334.158122 -89.14305 
L 334.728527 -89.136884 
L 335.298932 -89.13081 
L 335.869337 -89.124828 
L 336.439743 -89.118935 
L 337.010148 -89.113131 
L 337.580553 -89.107415 
L 338.150958 -89.101784 
L 338.721364 -89.096238 
L 339.291769 -89.090775 
L 339.862174 -89.085395 
L 340.432579 -89.080095 
L 341.002984 -89.074875 
L 341.57339 -89.069734 
L 342.143795 -89.064671 
L 342.7142 -89.059683 
L 343.284605 -89.054771 
L 343.855011 -89.049933 
L 344.425416 -89.045168 
L 344.995821 -89.040475 
L 345.566226 -89.035853 
L 346.136631 -89.0313 
L 346.707037 -89.026817 
L 347.277442 -89.022401 
L 347.847847 -89.018051 
L 348.418252 -89.013768 
L 348.988658 -89.009549 
L 349.559063 -89.005394 
L 350.129468 -89.001302 
L 350.699873 -88.997272 
L 351.270278 -88.993303 
L 351.840684 -88.989394 
L 352.411089 -88.985544 
L 352.981494 -88.981753 
L 353.551899 -88.978019 
L 354.122305 -88.974341 
L 354.69271 -88.97072 
L 355.263115 -88.967153 
L 355.83352 -88.96364 
L 356.403925 -88.960181 
L 356.974331 -88.956774 
L 357.544736 -88.953419 
L 358.115141 -88.950115 
L 358.685546 -88.946862 
L 359.255951 -88.943657 
L 359.826357 -88.940502 
L 360.396762 -88.937394 
L 360.967167 -88.934334 
L 361.537572 -88.93132 
L 362.107978 -88.928352 
L 362.678383 -88.925429 
L 363.248788 -88.922551 
L 363.819193 -88.919716 
L 364.389598 -88.916925 
L 364.960004 -88.914176 
L 365.530409 -88.91147 
L 366.100814 -88.908804 
L 366.671219 -88.906179 
L 367.241625 -88.903594 
L 367.81203 -88.901049 
L 368.382435 -88.898543 
L 368.95284 -88.896074 
L 369.523245 -88.893644 
L 370.093651 -88.89125 
L 370.664056 -88.888893 
L 371.234461 -88.886573 
L 371.804866 -88.884287 
L 372.375272 -88.882037 
L 372.945677 -88.879821 
L 373.516082 -88.877639 
L 374.086487 -88.87549 
L 374.656892 -88.873374 
L 375.227298 -88.871291 
L 375.797703 -88.869239 
L 376.368108 -88.867219 
L 376.938513 -88.86523 
L 377.508919 -88.863271 
L 378.079324 -88.861342 
L 378.649729 -88.859443 
L 379.220134 -88.857573 
L 379.790539 -88.855732 
L 380.360945 -88.853919 
L 380.93135 -88.852134 
L 381.501755 -88.850376 
L 382.07216 -88.848645 
L 382.642566 -88.846941 
L 383.212971 -88.845263 
L 383.783376 -88.84361 
L 384.353781 -88.841983 
L 384.924186 -88.840381 
L 385.494592 -88.838804 
L 386.064997 -88.837251 
L 386.635402 -88.835722 
L 387.205807 -88.834216 
L 387.776213 -88.832734 
L 388.346618 -88.831274 
L 388.917023 -88.829837 
L 389.487428 -88.828422 
L 390.057833 -88.827028 
L 390.628239 -88.825657 
L 390.628239 -45.724261 
L 390.628239 -45.724261 
L 390.057833 -45.725634 
L 389.487428 -45.727027 
L 388.917023 -45.728443 
L 388.346618 -45.72988 
L 387.776213 -45.731341 
L 387.205807 -45.732824 
L 386.635402 -45.73433 
L 386.064997 -45.735859 
L 385.494592 -45.737413 
L 384.924186 -45.738991 
L 384.353781 -45.740593 
L 383.783376 -45.742221 
L 383.212971 -45.743874 
L 382.642566 -45.745552 
L 382.07216 -45.747257 
L 381.501755 -45.748989 
L 380.93135 -45.750747 
L 380.360945 -45.752533 
L 379.790539 -45.754347 
L 379.220134 -45.756189 
L 378.649729 -45.75806 
L 378.079324 -45.75996 
L 377.508919 -45.761889 
L 376.938513 -45.763849 
L 376.368108 -45.765839 
L 375.797703 -45.76786 
L 375.227298 -45.769912 
L 374.656892 -45.771997 
L 374.086487 -45.774113 
L 373.516082 -45.776263 
L 372.945677 -45.778446 
L 372.375272 -45.780663 
L 371.804866 -45.782915 
L 371.234461 -45.785201 
L 370.664056 -45.787523 
L 370.093651 -45.789882 
L 369.523245 -45.792276 
L 368.95284 -45.794708 
L 368.382435 -45.797178 
L 367.81203 -45.799686 
L 367.241625 -45.802232 
L 366.671219 -45.804819 
L 366.100814 -45.807445 
L 365.530409 -45.810112 
L 364.960004 -45.81282 
L 364.389598 -45.815571 
L 363.819193 -45.818364 
L 363.248788 -45.8212 
L 362.678383 -45.82408 
L 362.107978 -45.827004 
L 361.537572 -45.829974 
L 360.967167 -45.83299 
L 360.396762 -45.836053 
L 359.826357 -45.839162 
L 359.255951 -45.84232 
L 358.685546 -45.845527 
L 358.115141 -45.848783 
L 357.544736 -45.852089 
L 356.974331 -45.855447 
L 356.403925 -45.858856 
L 355.83352 -45.862318 
L 355.263115 -45.865833 
L 354.69271 -45.869402 
L 354.122305 -45.873027 
L 353.551899 -45.876707 
L 352.981494 -45.880444 
L 352.411089 -45.884239 
L 351.840684 -45.888092 
L 351.270278 -45.892004 
L 350.699873 -45.895977 
L 350.129468 -45.90001 
L 349.559063 -45.904106 
L 348.988658 -45.908265 
L 348.418252 -45.912487 
L 347.847847 -45.916775 
L 347.277442 -45.921128 
L 346.707037 -45.925549 
L 346.136631 -45.930037 
L 345.566226 -45.934594 
L 344.995821 -45.939221 
L 344.425416 -45.943919 
L 343.855011 -45.948689 
L 343.284605 -45.953532 
L 342.7142 -45.958449 
L 342.143795 -45.963442 
L 341.57339 -45.968511 
L 341.002984 -45.973658 
L 340.432579 -45.978884 
L 339.862174 -45.984189 
L 339.291769 -45.989576 
L 338.721364 -45.995046 
L 338.150958 -46.000598 
L 337.580553 -46.006236 
L 337.010148 -46.01196 
L 336.439743 -46.017771 
L 335.869337 -46.023671 
L 335.298932 -46.029662 
L 334.728527 -46.035743 
L 334.158122 -46.041918 
L 333.587717 -46.048186 
L 333.017311 -46.05455 
L 332.446906 -46.061012 
L 331.876501 -46.067571 
L 331.306096 -46.074231 
L 330.73569 -46.080992 
L 330.165285 -46.087856 
L 329.59488 -46.094824 
L 329.024475 -46.101898 
L 328.45407 -46.10908 
L 327.883664 -46.116372 
L 327.313259 -46.123774 
L 326.742854 -46.131288 
L 326.172449 -46.138917 
L 325.602043 -46.146661 
L 325.031638 -46.154523 
L 324.461233 -46.162504 
L 323.890828 -46.170607 
L 323.320423 -46.178832 
L 322.750017 -46.187182 
L 322.179612 -46.195658 
L 321.609207 -46.204263 
L 321.038802 -46.212998 
L 320.468396 -46.221865 
L 319.897991 -46.230866 
L 319.327586 -46.240004 
L 318.757181 -46.24928 
L 318.186776 -46.258696 
L 317.61637 -46.268254 
L 317.045965 -46.277956 
L 316.47556 -46.287805 
L 315.905155 -46.297803 
L 315.334749 -46.307952 
L 314.764344 -46.318253 
L 314.193939 -46.32871 
L 313.623534 -46.339324 
L 313.053129 -46.350099 
L 312.482723 -46.361036 
L 311.912318 -46.372137 
L 311.341913 -46.383405 
L 310.771508 -46.394843 
L 310.201103 -46.406453 
L 309.630697 -46.418237 
L 309.060292 -46.430198 
L 308.489887 -46.442339 
L 307.919482 -46.454663 
L 307.349076 -46.467171 
L 306.778671 -46.479867 
L 306.208266 -46.492753 
L 305.637861 -46.505832 
L 305.067456 -46.519108 
L 304.49705 -46.532582 
L 303.926645 -46.546258 
L 303.35624 -46.560138 
L 302.785835 -46.574227 
L 302.215429 -46.588525 
L 301.645024 -46.603038 
L 301.074619 -46.617768 
L 300.504214 -46.632717 
L 299.933809 -46.647889 
L 299.363403 -46.663288 
L 298.792998 -46.678917 
L 298.222593 -46.694779 
L 297.652188 -46.710877 
L 297.081782 -46.727215 
L 296.511377 -46.743796 
L 295.940972 -46.760624 
L 295.370567 -46.777702 
L 294.800162 -46.795034 
L 294.229756 -46.812624 
L 293.659351 -46.830475 
L 293.088946 -46.848591 
L 292.518541 -46.866977 
L 291.948135 -46.885635 
L 291.37773 -46.904569 
L 290.807325 -46.923785 
L 290.23692 -46.943285 
L 289.666515 -46.963074 
L 289.096109 -46.983156 
L 288.525704 -47.003535 
L 287.955299 -47.024215 
L 287.384894 -47.045201 
L 286.814488 -47.066498 
L 286.244083 -47.088109 
L 285.673678 -47.110038 
L 285.103273 -47.132292 
L 284.532868 -47.154873 
L 283.962462 -47.177788 
L 283.392057 -47.20104 
L 282.821652 -47.224635 
L 282.251247 -47.248576 
L 281.680841 -47.27287 
L 281.110436 -47.297522 
L 280.540031 -47.322535 
L 279.969626 -47.347916 
L 279.399221 -47.37367 
L 278.828815 -47.399802 
L 278.25841 -47.426317 
L 277.688005 -47.453221 
L 277.1176 -47.480519 
L 276.547194 -47.508216 
L 275.976789 -47.536319 
L 275.406384 -47.564834 
L 274.835979 -47.593765 
L 274.265574 -47.623119 
L 273.695168 -47.652902 
L 273.124763 -47.68312 
L 272.554358 -47.713778 
L 271.983953 -47.744884 
L 271.413547 -47.776443 
L 270.843142 -47.808462 
L 270.272737 -47.840947 
L 269.702332 -47.873904 
L 269.131927 -47.907341 
L 268.561521 -47.941264 
L 267.991116 -47.97568 
L 267.420711 -48.010595 
L 266.850306 -48.046017 
L 266.2799 -48.081953 
L 265.709495 -48.11841 
L 265.13909 -48.155394 
L 264.568685 -48.192914 
L 263.99828 -48.230977 
L 263.427874 -48.269591 
L 262.857469 -48.308762 
L 262.287064 -48.348499 
L 261.716659 -48.38881 
L 261.146254 -48.429702 
L 260.575848 -48.471184 
L 260.005443 -48.513263 
L 259.435038 -48.555948 
L 258.864633 -48.599248 
L 258.294227 -48.64317 
L 257.723822 -48.687723 
L 257.153417 -48.732916 
L 256.583012 -48.778758 
L 256.012607 -48.825258 
L 255.442201 -48.872424 
L 254.871796 -48.920266 
L 254.301391 -48.968793 
L 253.730986 -49.018014 
L 253.16058 -49.067939 
L 252.590175 -49.118577 
L 252.01977 -49.169938 
L 251.449365 -49.222033 
L 250.87896 -49.27487 
L 250.308554 -49.32846 
L 249.738149 -49.382813 
L 249.167744 -49.43794 
L 248.597339 -49.49385 
L 248.026933 -49.550556 
L 247.456528 -49.608066 
L 246.886123 -49.666393 
L 246.315718 -49.725547 
L 245.745313 -49.785539 
L 245.174907 -49.84638 
L 244.604502 -49.908082 
L 244.034097 -49.970657 
L 243.463692 -50.034117 
L 242.893286 -50.098472 
L 242.322881 -50.163735 
L 241.752476 -50.229918 
L 241.182071 -50.297033 
L 240.611666 -50.365094 
L 240.04126 -50.434111 
L 239.470855 -50.504099 
L 238.90045 -50.57507 
L 238.330045 -50.647036 
L 237.759639 -50.720012 
L 237.189234 -50.79401 
L 236.618829 -50.869045 
L 236.048424 -50.945128 
L 235.478019 -51.022276 
L 234.907613 -51.100501 
L 234.337208 -51.179817 
L 233.766803 -51.260239 
L 233.196398 -51.341782 
L 232.625992 -51.42446 
L 232.055587 -51.508288 
L 231.485182 -51.593281 
L 230.914777 -51.679453 
L 230.344372 -51.766822 
L 229.773966 -51.855401 
L 229.203561 -51.945207 
L 228.633156 -52.036255 
L 228.062751 -52.128562 
L 227.492345 -52.222144 
L 226.92194 -52.317017 
L 226.351535 -52.413199 
L 225.78113 -52.510705 
L 225.210725 -52.609553 
L 224.640319 -52.70976 
L 224.069914 -52.811343 
L 223.499509 -52.91432 
L 222.929104 -53.018709 
L 222.358698 -53.124528 
L 221.788293 -53.231795 
L 221.217888 -53.340528 
L 220.647483 -53.450746 
L 220.077078 -53.562467 
L 219.506672 -53.675711 
L 218.936267 -53.790497 
L 218.365862 -53.906845 
L 217.795457 -54.024773 
L 217.225052 -54.144302 
L 216.654646 -54.265452 
L 216.084241 -54.388242 
L 215.513836 -54.512694 
L 214.943431 -54.638829 
L 214.373025 -54.766666 
L 213.80262 -54.896228 
L 213.232215 -55.027535 
L 212.66181 -55.160609 
L 212.091405 -55.295471 
L 211.520999 -55.432145 
L 210.950594 -55.570652 
L 210.380189 -55.711014 
L 209.809784 -55.853255 
L 209.239378 -55.997397 
L 208.668973 -56.143463 
L 208.098568 -56.291476 
L 207.528163 -56.441461 
L 206.957758 -56.593441 
L 206.387352 -56.74744 
L 205.816947 -56.903483 
L 205.246542 -57.061594 
L 204.676137 -57.221797 
L 204.105731 -57.384118 
L 203.535326 -57.548582 
L 202.964921 -57.715215 
L 202.394516 -57.884042 
L 201.824111 -58.05509 
L 201.253705 -58.228384 
L 200.6833 -58.40395 
L 200.112895 -58.581816 
L 199.54249 -58.762009 
L 198.972084 -58.944556 
L 198.401679 -59.129483 
L 197.831274 -59.316819 
L 197.260869 -59.506592 
L 196.690464 -59.69883 
L 196.120058 -59.89356 
L 195.549653 -60.090813 
L 194.979248 -60.290616 
L 194.408843 -60.492998 
L 193.838437 -60.69799 
L 193.268032 -60.90562 
L 192.697627 -61.115919 
L 192.127222 -61.328916 
L 191.556817 -61.544642 
L 190.986411 -61.763127 
L 190.416006 -61.984402 
L 189.845601 -62.208498 
L 189.275196 -62.435447 
L 188.70479 -62.665279 
L 188.134385 -62.898026 
L 187.56398 -63.133721 
L 186.993575 -63.372395 
L 186.42317 -63.614081 
L 185.852764 -63.858812 
L 185.282359 -64.106619 
L 184.711954 -64.357536 
L 184.141549 -64.611597 
L 183.571143 -64.868835 
L 183.000738 -65.129284 
L 182.430333 -65.392976 
L 181.859928 -65.659947 
L 181.289523 -65.930231 
L 180.719117 -66.203861 
L 180.148712 -66.480874 
L 179.578307 -66.761303 
L 179.007902 -67.045183 
L 178.437496 -67.332551 
L 177.867091 -67.62344 
L 177.296686 -67.917887 
L 176.726281 -68.215928 
L 176.155876 -68.517597 
L 175.58547 -68.822932 
L 175.015065 -69.131968 
L 174.44466 -69.444741 
L 173.874255 -69.761289 
L 173.30385 -70.081647 
L 172.733444 -70.405852 
L 172.163039 -70.733942 
L 171.592634 -71.065952 
L 171.022229 -71.40192 
L 170.451823 -71.741883 
L 169.881418 -72.085878 
L 169.311013 -72.433942 
L 168.740608 -72.786112 
L 168.170203 -73.142427 
L 167.599797 -73.502922 
L 167.029392 -73.867636 
L 166.458987 -74.236606 
L 165.888582 -74.609869 
L 165.318176 -74.987463 
L 164.747771 -75.369425 
L 164.177366 -75.755793 
L 163.606961 -76.146604 
L 163.036556 -76.541894 
L 162.46615 -76.941702 
L 161.895745 -77.346064 
L 161.32534 -77.755017 
L 160.754935 -78.168599 
L 160.184529 -78.586846 
L 159.614124 -79.009794 
L 159.043719 -79.43748 
L 158.473314 -79.86994 
L 157.902909 -80.307211 
L 157.332503 -80.749328 
L 156.762098 -81.196327 
L 156.191693 -81.648242 
L 155.621288 -82.10511 
L 155.050882 -82.566964 
L 154.480477 -83.03384 
L 153.910072 -83.505771 
L 153.339667 -83.98279 
L 152.769262 -84.464932 
L 152.198856 -84.952229 
L 151.628451 -85.444713 
L 151.058046 -85.942416 
L 150.487641 -86.44537 
L 149.917235 -86.953606 
L 149.34683 -87.467154 
L 148.776425 -87.986043 
L 148.20602 -88.510302 
L 147.635615 -89.039961 
L 147.065209 -89.575046 
L 146.494804 -90.115585 
L 145.924399 -90.661604 
L 145.353994 -91.213128 
L 144.783588 -91.770181 
L 144.213183 -92.332789 
L 143.642778 -92.900972 
L 143.072373 -93.474754 
L 142.501968 -94.054154 
L 141.931562 -94.639193 
L 141.361157 -95.229889 
L 140.790752 -95.82626 
L 140.220347 -96.428322 
L 139.649941 -97.03609 
L 139.079536 -97.649577 
L 138.509131 -98.268797 
L 137.938726 -98.89376 
L 137.368321 -99.524476 
L 136.797915 -100.160952 
L 136.22751 -100.803196 
L 135.657105 -101.451212 
L 135.0867 -102.105004 
L 134.516294 -102.764572 
L 133.945889 -103.429917 
L 133.375484 -104.101036 
L 132.805079 -104.777924 
L 132.234674 -105.460576 
L 131.664268 -106.148984 
L 131.093863 -106.843136 
L 130.523458 -107.543019 
L 129.953053 -108.24862 
L 129.382647 -108.959919 
L 128.812242 -109.676898 
L 128.241837 -110.399532 
L 127.671432 -111.127798 
L 127.101027 -111.861667 
L 126.530621 -112.601108 
L 125.960216 -113.346086 
L 125.389811 -114.096566 
L 124.819406 -114.852507 
L 124.249001 -115.613865 
L 123.678595 -116.380594 
L 123.10819 -117.152644 
L 122.537785 -117.929961 
L 121.96738 -118.712486 
L 121.396974 -119.50016 
L 120.826569 -120.292916 
L 120.256164 -121.090686 
L 119.685759 -121.893395 
L 119.115354 -122.700965 
L 118.544948 -123.513315 
L 117.974543 -124.330358 
L 117.404138 -125.152 
L 116.833733 -125.978147 
L 116.263327 -126.808696 
L 115.692922 -127.643541 
L 115.122517 -128.482568 
L 114.552112 -129.325661 
L 113.981707 -130.172695 
L 113.411301 -131.023542 
L 112.840896 -131.878066 
L 112.270491 -132.736126 
L 111.700086 -133.597572 
L 111.12968 -134.462252 
L 110.559275 -135.330002 
L 109.98887 -136.200655 
L 109.418465 -137.074036 
L 108.84806 -137.949961 
L 108.277654 -138.828239 
L 107.707249 -139.708671 
L 107.136844 -140.591052 
L 106.566439 -141.475167 
L 105.996033 -142.360791 
L 105.425628 -143.247692 
L 104.855223 -144.135629 
L 104.284818 -145.024352 
L 103.714413 -145.9136 
L 103.144007 -146.803102 
L 102.573602 -147.692579 
L 102.003197 -148.58174 
L 101.432792 -149.470283 
L 100.862386 -150.357895 
L 100.291981 -151.244253 
L 99.721576 -152.129022 
L 99.151171 -153.011854 
L 98.580766 -153.892388 
L 98.01036 -154.770253 
L 97.439955 -155.645062 
L 96.86955 -156.516418 
L 96.299145 -157.383906 
L 95.728739 -158.2471 
L 95.158334 -159.105559 
L 94.587929 -159.958826 
L 94.017524 -160.80643 
L 93.447119 -161.647882 
L 92.876713 -162.482679 
L 92.306308 -163.3103 
L 91.735903 -164.130207 
L 91.165498 -164.941846 
L 90.595092 -165.744642 
L 90.024687 -166.538004 
L 89.454282 -167.32132 
L 88.883877 -168.093959 
L 88.313472 -168.855271 
L 87.743066 -169.604583 
L 87.172661 -170.341202 
L 86.602256 -171.064413 
L 86.031851 -171.773478 
L 85.461445 -172.467636 
L 84.89104 -173.146102 
L 84.320635 -173.808068 
L 83.75023 -174.4527 
L 83.179825 -175.079136 
L 82.609419 -175.68649 
L 82.039014 -176.273848 
L 81.468609 -176.840269 
L 80.898204 -177.384781 
L 80.327799 -177.906383 
L 79.757393 -178.404046 
L 79.186988 -178.876705 
L 78.616583 -179.323267 
L 78.046178 -179.742605 
L 77.475772 -180.133555 
L 76.905367 -179.809766 
L 76.334962 -179.395078 
L 75.764557 -178.952974 
L 75.194152 -178.484588 
L 74.623746 -177.991018 
L 74.053341 -177.473333 
L 73.482936 -176.932569 
L 72.912531 -176.369732 
L 72.342125 -175.785797 
L 71.77172 -175.181711 
L 71.201315 -174.558393 
L 70.63091 -173.916734 
L 70.060505 -173.257598 
L 69.490099 -172.581825 
L 68.919694 -171.890227 
L 68.349289 -171.183593 
L 67.778884 -170.462688 
L 67.208478 -169.728253 
L 66.638073 -168.981008 
L 66.067668 -168.221649 
L 65.497263 -167.450852 
L 64.926858 -166.669271 
L 64.356452 -165.877541 
L 63.786047 -165.076275 
L 63.215642 -164.26607 
L 62.645237 -163.447501 
L 62.074831 -162.621128 
L 61.504426 -161.787491 
L 60.934021 -160.947112 
L 60.363616 -160.1005 
L 59.793211 -159.248143 
L 59.222805 -158.390518 
L 58.6524 -157.528082 
L 58.081995 -156.661279 
L 57.51159 -155.790539 
L 56.941184 -154.916277 
L 56.370779 -154.038894 
L 55.800374 -153.158779 
L 55.229969 -152.276305 
L 54.659564 -151.391835 
L 54.089158 -150.505717 
L 53.518753 -149.618291 
L 52.948348 -148.729881 
L 52.377943 -147.840802 
L 51.807537 -146.951358 
L 51.237132 -146.06184 
L 50.666727 -145.172531 
L 50.096322 -144.283702 
L 49.525917 -143.395616 
L 48.955511 -142.508525 
z
" id="m136681d4a8" style="stroke:#808080;stroke-opacity:0.4;stroke-width:0.5;"/>
    </defs>
    <g clip-path="url(#pa5a55ab293)">
     <use style="fill:#808080;fill-opacity:0.4;stroke:#808080;stroke-opacity:0.4;stroke-width:0.5;" x="0" xlink:href="#m136681d4a8" y="260.480625"/>
    </g>
   </g>
   <g id="line2d_25">
    <path clip-path="url(#pa5a55ab293)" d="M 48.955511 104.618462 
L 55.229969 96.948835 
L 59.222805 92.394703 
L 62.645237 88.826976 
L 65.497263 86.177988 
L 67.778884 84.326647 
L 70.060505 82.762384 
L 71.77172 81.807938 
L 73.482936 81.067005 
L 75.194152 80.565121 
L 76.905367 80.329946 
L 78.616583 80.387853 
L 80.327799 80.730176 
L 82.039014 81.32819 
L 83.75023 82.155079 
L 86.031851 83.57112 
L 88.313472 85.296843 
L 90.595092 87.284357 
L 93.447119 90.072041 
L 96.86955 93.76607 
L 100.862386 98.421053 
L 106.566439 105.452685 
L 121.96738 124.651152 
L 127.671432 131.332252 
L 132.805079 137.015968 
L 137.938726 142.351256 
L 142.501968 146.786342 
L 147.065209 150.927443 
L 151.628451 154.77627 
L 156.191693 158.339029 
L 160.754935 161.625227 
L 165.318176 164.646708 
L 169.881418 167.416895 
L 174.44466 169.950175 
L 179.578307 172.535471 
L 184.711954 174.861109 
L 189.845601 176.948135 
L 195.549653 179.011963 
L 201.253705 180.832992 
L 207.528163 182.585458 
L 213.80262 184.105069 
L 220.647483 185.530102 
L 228.062751 186.836572 
L 236.048424 188.008377 
L 244.604502 189.03713 
L 254.301391 189.970446 
L 265.13909 190.779857 
L 277.688005 191.479475 
L 291.948135 192.045599 
L 309.630697 192.512198 
L 331.876501 192.862506 
L 362.678383 193.105871 
L 390.628239 193.205666 
L 390.628239 193.205666 
" style="fill:none;stroke:#000000;stroke-width:2.7;"/>
   </g>
   <g id="line2d_26">
    <path clip-path="url(#pa5a55ab293)" d="M 48.955511 131.943552 
L 52.948348 122.89958 
L 56.941184 114.400018 
L 60.934021 106.475672 
L 64.356452 100.161026 
L 67.778884 94.301648 
L 71.201315 88.908357 
L 74.623746 83.989289 
L 77.475772 80.256334 
L 80.327799 76.858278 
L 83.179825 73.79559 
L 86.031851 71.067478 
L 88.883877 68.671917 
L 91.735903 66.605662 
L 94.587929 64.864284 
L 96.86955 63.70138 
L 99.151171 62.739468 
L 101.432792 61.974728 
L 103.714413 61.402904 
L 105.996033 61.019325 
L 108.277654 60.818917 
L 111.12968 60.817637 
L 113.981707 61.082531 
L 116.833733 61.601282 
L 119.685759 62.360783 
L 122.537785 63.347193 
L 125.389811 64.546003 
L 128.812242 66.243624 
L 132.234674 68.198168 
L 136.22751 70.765667 
L 140.220347 73.598649 
L 144.783588 77.101049 
L 150.487641 81.771548 
L 159.614124 89.59025 
L 169.311013 97.811224 
L 175.015065 102.351207 
L 179.578307 105.722595 
L 183.571143 108.433279 
L 187.56398 110.883348 
L 190.986411 112.751228 
L 194.408843 114.385045 
L 197.831274 115.767997 
L 201.253705 116.8852 
L 204.105731 117.603843 
L 206.957758 118.122597 
L 209.809784 118.436124 
L 212.66181 118.540131 
L 215.513836 118.431383 
L 218.365862 118.107717 
L 221.217888 117.56805 
L 224.069914 116.812381 
L 226.92194 115.841795 
L 229.773966 114.658455 
L 232.625992 113.265594 
L 236.048424 111.323713 
L 239.470855 109.095758 
L 242.893286 106.59324 
L 246.315718 103.829715 
L 250.308554 100.296548 
L 254.301391 96.457246 
L 258.864633 91.734776 
L 263.99828 86.057112 
L 269.702332 79.390139 
L 277.1176 70.351088 
L 293.659351 50.058133 
L 299.363403 43.485228 
L 303.926645 38.541187 
L 307.919482 34.504327 
L 311.912318 30.78535 
L 315.334749 27.884254 
L 318.757181 25.276023 
L 321.609207 23.344725 
L 324.461233 21.648725 
L 327.313259 20.20143 
L 330.165285 19.015481 
L 333.017311 18.102694 
L 335.298932 17.576522 
L 337.580553 17.237364 
L 339.862174 17.089992 
L 342.143795 17.138768 
L 344.425416 17.387623 
L 346.707037 17.840046 
L 348.988658 18.49907 
L 351.270278 19.367262 
L 353.551899 20.44671 
L 355.83352 21.739012 
L 358.115141 23.245272 
L 360.967167 25.429832 
L 363.819193 27.94963 
L 366.671219 30.803436 
L 369.523245 33.988737 
L 372.375272 37.50173 
L 375.227298 41.337319 
L 378.649729 46.356763 
L 382.07216 51.817983 
L 385.494592 57.704834 
L 388.917023 63.998561 
L 390.628239 67.29144 
L 390.628239 67.29144 
" style="fill:none;stroke:#800080;stroke-width:2.7;"/>
   </g>
   <g id="line2d_27">
    <path clip-path="url(#pa5a55ab293)" d="M 48.955511 37.850277 
L 51.237132 38.59161 
L 52.948348 39.353289 
L 54.659564 40.307732 
L 56.370779 41.470671 
L 58.081995 42.858694 
L 59.793211 44.489275 
L 61.504426 46.380785 
L 63.215642 48.552506 
L 64.926858 51.024638 
L 66.638073 53.818295 
L 68.349289 56.955501 
L 70.060505 60.459168 
L 71.77172 64.35306 
L 74.053341 70.194508 
L 76.334962 76.833691 
L 77.475772 80.16021 
L 79.757393 73.134732 
L 82.039014 66.935258 
L 84.320635 61.500626 
L 86.602256 56.771813 
L 88.883877 52.692281 
L 90.595092 50.026229 
L 92.306308 47.673383 
L 94.017524 45.612982 
L 95.728739 43.825185 
L 97.439955 42.291066 
L 99.151171 40.992603 
L 100.862386 39.912669 
L 102.573602 39.035012 
L 104.855223 38.152957 
L 107.136844 37.568998 
L 109.418465 37.251423 
L 111.700086 37.170912 
L 113.981707 37.300421 
L 116.833733 37.71992 
L 119.685759 38.384639 
L 123.10819 39.450539 
L 126.530621 40.75232 
L 130.523458 42.499565 
L 135.657105 45.000042 
L 143.072373 48.891081 
L 159.043719 57.331886 
L 166.458987 60.953491 
L 173.30385 64.034648 
L 179.578307 66.616216 
L 185.852764 68.959633 
L 192.127222 71.06829 
L 198.401679 72.951639 
L 205.246542 74.765028 
L 212.091405 76.346673 
L 219.506672 77.824001 
L 227.492345 79.171646 
L 236.048424 80.372777 
L 245.174907 81.419148 
L 255.442201 82.356706 
L 266.850306 83.159651 
L 279.399221 83.817955 
L 294.229756 84.370758 
L 312.482723 84.818014 
L 335.869337 85.153484 
L 368.382435 85.379353 
L 390.628239 85.452178 
L 390.628239 85.452178 
" style="fill:none;stroke:#008000;stroke-width:2.7;"/>
   </g>
   <g id="patch_3">
    <path d="M 31.871875 224.64 
L 31.871875 7.2 
" style="fill:none;stroke:#f0f0f0;stroke-linecap:square;stroke-linejoin:miter;stroke-width:3;"/>
   </g>
   <g id="patch_4">
    <path d="M 407.711875 224.64 
L 407.711875 7.2 
" style="fill:none;stroke:#f0f0f0;stroke-linecap:square;stroke-linejoin:miter;stroke-width:3;"/>
   </g>
   <g id="patch_5">
    <path d="M 31.871875 224.64 
L 407.711875 224.64 
" style="fill:none;stroke:#f0f0f0;stroke-linecap:square;stroke-linejoin:miter;stroke-width:3;"/>
   </g>
   <g id="patch_6">
    <path d="M 31.871875 7.2 
L 407.711875 7.2 
" style="fill:none;stroke:#f0f0f0;stroke-linecap:square;stroke-linejoin:miter;stroke-width:3;"/>
   </g>
   <g id="legend_1">
    <g id="patch_7">
     <path d="M 431.145475 104.75625 
L 578.876725 104.75625 
Q 581.276725 104.75625 581.276725 102.35625 
L 581.276725 15.6 
Q 581.276725 13.2 578.876725 13.2 
L 431.145475 13.2 
Q 428.745475 13.2 428.745475 15.6 
L 428.745475 102.35625 
Q 428.745475 104.75625 431.145475 104.75625 
z
" style="fill:#f0f0f0;opacity:0.8;stroke:#cccccc;stroke-linejoin:miter;stroke-width:0.5;"/>
    </g>
    <g id="line2d_28">
     <path d="M 433.545475 23.11125 
L 457.545475 23.11125 
" style="fill:none;stroke:#000000;stroke-width:2.7;"/>
    </g>
    <g id="line2d_29"/>
    <g id="text_15">
     <!-- Predicted -->
     <defs>
      <path d="M 27 70 
Q 41.59375 70 49.4375 64.453125 
Q 57.296875 58.90625 57.296875 47.90625 
Q 57.296875 41.90625 55.140625 37.65625 
Q 53 33.40625 48.953125 30.75 
Q 44.90625 28.09375 39.09375 26.890625 
Q 33.296875 25.703125 26 25.703125 
L 18.296875 25.703125 
L 18.296875 0 
L 8.59375 0 
L 8.59375 68.296875 
Q 12.703125 69.296875 17.75 69.640625 
Q 22.796875 70 27 70 
z
M 27.796875 61.5 
Q 21.59375 61.5 18.296875 61.203125 
L 18.296875 34 
L 25.59375 34 
Q 30.59375 34 34.59375 34.640625 
Q 38.59375 35.296875 41.34375 36.84375 
Q 44.09375 38.40625 45.59375 41.09375 
Q 47.09375 43.796875 47.09375 48 
Q 47.09375 52 45.546875 54.59375 
Q 44 57.203125 41.34375 58.75 
Q 38.703125 60.296875 35.203125 60.890625 
Q 31.703125 61.5 27.796875 61.5 
z
" id="Ubuntu-80"/>
      <path d="M 27.203125 53.09375 
Q 28.40625 53.09375 29.953125 52.9375 
Q 31.5 52.796875 33 52.546875 
Q 34.5 52.296875 35.75 52.046875 
Q 37 51.796875 37.59375 51.59375 
L 36 43.5 
Q 34.90625 43.90625 32.34375 44.453125 
Q 29.796875 45 25.796875 45 
Q 23.203125 45 20.640625 44.453125 
Q 18.09375 43.90625 17.296875 43.703125 
L 17.296875 0 
L 8 0 
L 8 49.796875 
Q 11.296875 51 16.1875 52.046875 
Q 21.09375 53.09375 27.203125 53.09375 
z
" id="Ubuntu-114"/>
      <path d="M 17.296875 0 
L 8 0 
L 8 52 
L 17.296875 52 
z
M 12.59375 61.40625 
Q 10.09375 61.40625 8.34375 63.046875 
Q 6.59375 64.703125 6.59375 67.5 
Q 6.59375 70.296875 8.34375 71.9375 
Q 10.09375 73.59375 12.59375 73.59375 
Q 15.09375 73.59375 16.84375 71.9375 
Q 18.59375 70.296875 18.59375 67.5 
Q 18.59375 64.703125 16.84375 63.046875 
Q 15.09375 61.40625 12.59375 61.40625 
z
" id="Ubuntu-105"/>
     </defs>
     <g transform="translate(467.145475 27.31125)scale(0.12 -0.12)">
      <use xlink:href="#Ubuntu-80"/>
      <use x="60.799988" xlink:href="#Ubuntu-114"/>
      <use x="99.399979" xlink:href="#Ubuntu-101"/>
      <use x="155.299973" xlink:href="#Ubuntu-100"/>
      <use x="214.199966" xlink:href="#Ubuntu-105"/>
      <use x="239.499954" xlink:href="#Ubuntu-99"/>
      <use x="285.999939" xlink:href="#Ubuntu-116"/>
      <use x="326.184311" xlink:href="#Ubuntu-101"/>
      <use x="382.084305" xlink:href="#Ubuntu-100"/>
     </g>
    </g>
    <g id="line2d_30">
     <path d="M 433.545475 40.6425 
L 457.545475 40.6425 
" style="fill:none;stroke:#800080;stroke-width:2.7;"/>
    </g>
    <g id="line2d_31"/>
    <g id="text_16">
     <!-- GT -->
     <defs>
      <path d="M 54.90625 69.296875 
L 54.90625 60.90625 
L 33.09375 60.90625 
L 33.09375 0 
L 23.40625 0 
L 23.40625 60.90625 
L 1.59375 60.90625 
L 1.59375 69.296875 
z
" id="Ubuntu-84"/>
     </defs>
     <g transform="translate(467.145475 44.8425)scale(0.12 -0.12)">
      <use xlink:href="#Ubuntu-71"/>
      <use x="67.199997" xlink:href="#Ubuntu-84"/>
     </g>
    </g>
    <g id="line2d_32">
     <path d="M 433.545475 58.17375 
L 457.545475 58.17375 
" style="fill:none;stroke:#008000;stroke-width:2.7;"/>
    </g>
    <g id="line2d_33"/>
    <g id="text_17">
     <!-- Acquisition function -->
     <defs>
      <path d="M 54.90625 0 
Q 53.203125 4.5 51.703125 8.84375 
Q 50.203125 13.203125 48.59375 17.703125 
L 17.203125 17.703125 
L 10.90625 0 
L 0.796875 0 
Q 4.796875 11 8.296875 20.34375 
Q 11.796875 29.703125 15.140625 38.09375 
Q 18.5 46.5 21.796875 54.140625 
Q 25.09375 61.796875 28.703125 69.296875 
L 37.59375 69.296875 
Q 41.203125 61.796875 44.5 54.140625 
Q 47.796875 46.5 51.140625 38.09375 
Q 54.5 29.703125 58 20.34375 
Q 61.5 11 65.5 0 
z
M 45.796875 25.703125 
Q 42.59375 34.40625 39.4375 42.546875 
Q 36.296875 50.703125 32.90625 58.203125 
Q 29.40625 50.703125 26.25 42.546875 
Q 23.09375 34.40625 20 25.703125 
z
" id="Ubuntu-65"/>
      <path d="M 14.796875 25.90625 
Q 14.796875 21.90625 15.59375 18.453125 
Q 16.40625 15 18.203125 12.453125 
Q 20 9.90625 22.84375 8.453125 
Q 25.703125 7 29.703125 7 
Q 33.5 7 36.703125 8.296875 
Q 39.90625 9.59375 41.59375 11 
L 41.59375 43.796875 
Q 40.203125 44.203125 37.84375 44.5 
Q 35.5 44.796875 31.296875 44.796875 
Q 23.796875 44.796875 19.296875 39.890625 
Q 14.796875 35 14.796875 25.90625 
z
M 5.09375 25.90625 
Q 5.09375 32.203125 6.9375 37.25 
Q 8.796875 42.296875 12.1875 45.796875 
Q 15.59375 49.296875 20.390625 51.1875 
Q 25.203125 53.09375 31.203125 53.09375 
Q 37.703125 53.09375 42.640625 52.140625 
Q 47.59375 51.203125 50.90625 50.40625 
L 50.90625 -18.5 
L 41.59375 -18.5 
L 41.59375 2.296875 
Q 39.90625 1.203125 36.453125 0 
Q 33 -1.203125 28.5 -1.203125 
Q 22.90625 -1.203125 18.546875 0.796875 
Q 14.203125 2.796875 11.203125 6.390625 
Q 8.203125 10 6.640625 15 
Q 5.09375 20 5.09375 25.90625 
z
" id="Ubuntu-113"/>
      <path d="M 49.40625 1.5 
Q 46.203125 0.703125 40.953125 -0.1875 
Q 35.703125 -1.09375 28.796875 -1.09375 
Q 22.796875 -1.09375 18.6875 0.65625 
Q 14.59375 2.40625 12.09375 5.59375 
Q 9.59375 8.796875 8.5 13.140625 
Q 7.40625 17.5 7.40625 22.796875 
L 7.40625 52 
L 16.703125 52 
L 16.703125 24.796875 
Q 16.703125 15.296875 19.703125 11.1875 
Q 22.703125 7.09375 29.796875 7.09375 
Q 31.296875 7.09375 32.890625 7.1875 
Q 34.5 7.296875 35.890625 7.4375 
Q 37.296875 7.59375 38.4375 7.75 
Q 39.59375 7.90625 40.09375 8.09375 
L 40.09375 52 
L 49.40625 52 
z
" id="Ubuntu-117"/>
      <path d="M 20.09375 6.703125 
Q 25.796875 6.703125 28.546875 8.203125 
Q 31.296875 9.703125 31.296875 13 
Q 31.296875 16.40625 28.59375 18.40625 
Q 25.90625 20.40625 19.703125 22.90625 
Q 16.703125 24.09375 13.953125 25.34375 
Q 11.203125 26.59375 9.203125 28.296875 
Q 7.203125 30 6 32.390625 
Q 4.796875 34.796875 4.796875 38.296875 
Q 4.796875 45.203125 9.890625 49.25 
Q 15 53.296875 23.796875 53.296875 
Q 26 53.296875 28.203125 53.046875 
Q 30.40625 52.796875 32.296875 52.4375 
Q 34.203125 52.09375 35.640625 51.6875 
Q 37.09375 51.296875 37.90625 51 
L 36.203125 43 
Q 34.703125 43.796875 31.5 44.640625 
Q 28.296875 45.5 23.796875 45.5 
Q 19.90625 45.5 17 43.953125 
Q 14.09375 42.40625 14.09375 39.09375 
Q 14.09375 37.40625 14.75 36.09375 
Q 15.40625 34.796875 16.75 33.75 
Q 18.09375 32.703125 20.09375 31.796875 
Q 22.09375 30.90625 24.90625 29.90625 
Q 28.59375 28.5 31.5 27.140625 
Q 34.40625 25.796875 36.453125 24 
Q 38.5 22.203125 39.59375 19.640625 
Q 40.703125 17.09375 40.703125 13.40625 
Q 40.703125 6.203125 35.34375 2.5 
Q 30 -1.203125 20.09375 -1.203125 
Q 13.203125 -1.203125 9.296875 -0.046875 
Q 5.40625 1.09375 4 1.703125 
L 5.703125 9.703125 
Q 7.296875 9.09375 10.796875 7.890625 
Q 14.296875 6.703125 20.09375 6.703125 
z
" id="Ubuntu-115"/>
      <path d="M 28.296875 77.59375 
Q 32.40625 77.59375 35.34375 77 
Q 38.296875 76.40625 39.5 75.90625 
L 37.796875 67.90625 
Q 36.59375 68.5 34.390625 69.046875 
Q 32.203125 69.59375 29 69.59375 
Q 22.5 69.59375 19.890625 66.046875 
Q 17.296875 62.5 17.296875 56.5 
L 17.296875 52 
L 37.296875 52 
L 37.296875 44.203125 
L 17.296875 44.203125 
L 17.296875 0 
L 8 0 
L 8 56.703125 
Q 8 66.703125 12.890625 72.140625 
Q 17.796875 77.59375 28.296875 77.59375 
z
" id="Ubuntu-102"/>
     </defs>
     <g transform="translate(467.145475 62.37375)scale(0.12 -0.12)">
      <use xlink:href="#Ubuntu-65"/>
      <use x="66.284363" xlink:href="#Ubuntu-99"/>
      <use x="112.784348" xlink:href="#Ubuntu-113"/>
      <use x="171.684341" xlink:href="#Ubuntu-117"/>
      <use x="229.084335" xlink:href="#Ubuntu-105"/>
      <use x="254.384323" xlink:href="#Ubuntu-115"/>
      <use x="298.984314" xlink:href="#Ubuntu-105"/>
      <use x="324.284302" xlink:href="#Ubuntu-116"/>
      <use x="364.484299" xlink:href="#Ubuntu-105"/>
      <use x="389.784286" xlink:href="#Ubuntu-111"/>
      <use x="448.784271" xlink:href="#Ubuntu-110"/>
      <use x="506.184265" xlink:href="#Ubuntu-32"/>
      <use x="529.284256" xlink:href="#Ubuntu-102"/>
      <use x="567.884247" xlink:href="#Ubuntu-117"/>
      <use x="625.284241" xlink:href="#Ubuntu-110"/>
      <use x="682.684235" xlink:href="#Ubuntu-99"/>
      <use x="729.184219" xlink:href="#Ubuntu-116"/>
      <use x="769.384216" xlink:href="#Ubuntu-105"/>
      <use x="794.684204" xlink:href="#Ubuntu-111"/>
      <use x="853.684189" xlink:href="#Ubuntu-110"/>
     </g>
    </g>
    <g id="patch_8">
     <path d="M 433.545475 79.905 
L 457.545475 79.905 
L 457.545475 71.505 
L 433.545475 71.505 
z
" style="fill:#808080;opacity:0.4;stroke:#808080;stroke-linejoin:miter;stroke-width:0.5;"/>
    </g>
    <g id="text_18">
     <!-- $\mu \pm \sigma$ -->
     <defs>
      <path d="M -1.3125 -20.796875 
L 13.375 54.6875 
L 22.40625 54.6875 
L 15.765625 20.65625 
Q 15.578125 19.625 15.421875 18.359375 
Q 15.28125 17.09375 15.28125 15.828125 
Q 15.28125 11.28125 18.140625 8.828125 
Q 21 6.390625 26.3125 6.390625 
Q 33.546875 6.390625 37.984375 10.484375 
Q 42.4375 14.59375 44 22.796875 
L 50.203125 54.6875 
L 59.1875 54.6875 
L 51.03125 12.640625 
Q 50.828125 11.71875 50.75 11.03125 
Q 50.6875 10.359375 50.6875 9.8125 
Q 50.6875 8.296875 51.296875 7.59375 
Q 51.90625 6.890625 53.21875 6.890625 
Q 53.71875 6.890625 54.5625 7.125 
Q 55.421875 7.375 56.984375 8.015625 
L 55.609375 0.78125 
Q 53.46875 -0.296875 51.515625 -0.859375 
Q 49.5625 -1.421875 47.703125 -1.421875 
Q 44.484375 -1.421875 42.65625 0.625 
Q 40.828125 2.6875 40.828125 6.296875 
Q 38.09375 2.390625 34.296875 0.484375 
Q 30.515625 -1.421875 25.390625 -1.421875 
Q 20.84375 -1.421875 17.453125 0.671875 
Q 14.0625 2.78125 12.984375 6.203125 
L 7.71875 -20.796875 
z
" id="DejaVuSans-Oblique-956"/>
      <path d="M 46 62.703125 
L 46 43.796875 
L 73.1875 43.796875 
L 73.1875 35.5 
L 46 35.5 
L 46 16.609375 
L 37.796875 16.609375 
L 37.796875 35.5 
L 10.59375 35.5 
L 10.59375 43.796875 
L 37.796875 43.796875 
L 37.796875 62.703125 
z
M 10.59375 8.296875 
L 73.1875 8.296875 
L 73.1875 0 
L 10.59375 0 
z
" id="DejaVuSans-177"/>
      <path d="M 34.671875 47.5625 
Q 27.25 47.5625 22.21875 42.1875 
Q 16.890625 36.578125 15.140625 27.296875 
Q 13.1875 17.484375 16.3125 11.8125 
Q 19.390625 6.203125 26.65625 6.203125 
Q 33.84375 6.203125 39.109375 11.859375 
Q 44.4375 17.53125 46.34375 27.296875 
Q 48.046875 36.234375 45.015625 42.1875 
Q 42.1875 47.5625 34.671875 47.5625 
z
M 36.078125 54.734375 
L 65.921875 54.6875 
L 64.15625 45.703125 
L 54.109375 45.703125 
Q 57.90625 38.09375 55.859375 27.296875 
Q 53.21875 13.875 45.0625 6.25 
Q 36.859375 -1.421875 25.140625 -1.421875 
Q 13.375 -1.421875 8.203125 6.25 
Q 3.03125 13.875 5.671875 27.296875 
Q 8.25 40.765625 16.40625 48.390625 
Q 23.1875 54.734375 36.078125 54.734375 
z
" id="DejaVuSans-Oblique-963"/>
     </defs>
     <g transform="translate(467.145475 79.905)scale(0.12 -0.12)">
      <use transform="translate(0 0.296875)" xlink:href="#DejaVuSans-Oblique-956"/>
      <use transform="translate(83.105469 0.296875)" xlink:href="#DejaVuSans-177"/>
      <use transform="translate(186.376953 0.296875)" xlink:href="#DejaVuSans-Oblique-963"/>
     </g>
    </g>
    <g id="PathCollection_1">
     <defs>
      <path d="M 0 7.071068 
C 1.875269 7.071068 3.673985 6.326016 5 5 
C 6.326016 3.673985 7.071068 1.875269 7.071068 0 
C 7.071068 -1.875269 6.326016 -3.673985 5 -5 
C 3.673985 -6.326016 1.875269 -7.071068 0 -7.071068 
C -1.875269 -7.071068 -3.673985 -6.326016 -5 -5 
C -6.326016 -3.673985 -7.071068 -1.875269 -7.071068 0 
C -7.071068 1.875269 -6.326016 3.673985 -5 5 
C -3.673985 6.326016 -1.875269 7.071068 0 7.071068 
z
" id="m45c9631ec6" style="stroke:#ff0000;stroke-width:0.5;"/>
     </defs>
     <g>
      <use style="fill:#ff0000;stroke:#ff0000;stroke-width:0.5;" x="445.545475" xlink:href="#m45c9631ec6" y="94.58625"/>
     </g>
    </g>
    <g id="text_19">
     <!-- Train points -->
     <defs>
      <path d="M 25.59375 6.703125 
Q 28.90625 6.703125 31.453125 6.84375 
Q 34 7 35.703125 7.40625 
L 35.703125 22.90625 
Q 34.703125 23.40625 32.453125 23.75 
Q 30.203125 24.09375 27 24.09375 
Q 24.90625 24.09375 22.546875 23.796875 
Q 20.203125 23.5 18.25 22.546875 
Q 16.296875 21.59375 15 19.9375 
Q 13.703125 18.296875 13.703125 15.59375 
Q 13.703125 10.59375 16.890625 8.640625 
Q 20.09375 6.703125 25.59375 6.703125 
z
M 24.796875 53.296875 
Q 30.40625 53.296875 34.25 51.84375 
Q 38.09375 50.40625 40.4375 47.75 
Q 42.796875 45.09375 43.796875 41.4375 
Q 44.796875 37.796875 44.796875 33.40625 
L 44.796875 0.90625 
Q 43.59375 0.703125 41.4375 0.34375 
Q 39.296875 0 36.59375 -0.296875 
Q 33.90625 -0.59375 30.75 -0.84375 
Q 27.59375 -1.09375 24.5 -1.09375 
Q 20.09375 -1.09375 16.390625 -0.1875 
Q 12.703125 0.703125 10 2.640625 
Q 7.296875 4.59375 5.796875 7.796875 
Q 4.296875 11 4.296875 15.5 
Q 4.296875 19.796875 6.046875 22.890625 
Q 7.796875 26 10.796875 27.890625 
Q 13.796875 29.796875 17.796875 30.6875 
Q 21.796875 31.59375 26.203125 31.59375 
Q 27.59375 31.59375 29.09375 31.4375 
Q 30.59375 31.296875 31.9375 31.046875 
Q 33.296875 30.796875 34.296875 30.59375 
Q 35.296875 30.40625 35.703125 30.296875 
L 35.703125 32.90625 
Q 35.703125 35.203125 35.203125 37.453125 
Q 34.703125 39.703125 33.390625 41.453125 
Q 32.09375 43.203125 29.84375 44.25 
Q 27.59375 45.296875 24 45.296875 
Q 19.40625 45.296875 15.953125 44.640625 
Q 12.5 44 10.796875 43.296875 
L 9.703125 51 
Q 11.5 51.796875 15.703125 52.546875 
Q 19.90625 53.296875 24.796875 53.296875 
z
" id="Ubuntu-97"/>
      <path d="M 44.09375 25.90625 
Q 44.09375 35 39.59375 39.890625 
Q 35.09375 44.796875 27.59375 44.796875 
Q 23.40625 44.796875 21.046875 44.5 
Q 18.703125 44.203125 17.296875 43.796875 
L 17.296875 11 
Q 19 9.59375 22.203125 8.296875 
Q 25.40625 7 29.203125 7 
Q 33.203125 7 36.046875 8.453125 
Q 38.90625 9.90625 40.703125 12.453125 
Q 42.5 15 43.296875 18.453125 
Q 44.09375 21.90625 44.09375 25.90625 
z
M 53.796875 25.90625 
Q 53.796875 20 52.25 15 
Q 50.703125 10 47.703125 6.390625 
Q 44.703125 2.796875 40.34375 0.796875 
Q 36 -1.203125 30.40625 -1.203125 
Q 25.90625 -1.203125 22.453125 0 
Q 19 1.203125 17.296875 2.296875 
L 17.296875 -18.5 
L 8 -18.5 
L 8 50.40625 
Q 11.296875 51.203125 16.25 52.140625 
Q 21.203125 53.09375 27.703125 53.09375 
Q 33.703125 53.09375 38.5 51.1875 
Q 43.296875 49.296875 46.6875 45.796875 
Q 50.09375 42.296875 51.9375 37.25 
Q 53.796875 32.203125 53.796875 25.90625 
z
" id="Ubuntu-112"/>
     </defs>
     <g transform="translate(467.145475 97.73625)scale(0.12 -0.12)">
      <use xlink:href="#Ubuntu-84"/>
      <use x="56.437485" xlink:href="#Ubuntu-114"/>
      <use x="95.037476" xlink:href="#Ubuntu-97"/>
      <use x="147.237473" xlink:href="#Ubuntu-105"/>
      <use x="172.53746" xlink:href="#Ubuntu-110"/>
      <use x="229.937454" xlink:href="#Ubuntu-32"/>
      <use x="253.037445" xlink:href="#Ubuntu-112"/>
      <use x="311.937439" xlink:href="#Ubuntu-111"/>
      <use x="370.937424" xlink:href="#Ubuntu-105"/>
      <use x="396.237411" xlink:href="#Ubuntu-110"/>
      <use x="453.637405" xlink:href="#Ubuntu-116"/>
      <use x="493.837402" xlink:href="#Ubuntu-115"/>
     </g>
    </g>
   </g>
   <g id="PathCollection_2">
    <g clip-path="url(#pa5a55ab293)">
     <use style="fill:#ff0000;stroke:#ff0000;stroke-width:0.5;" x="77.428239" xlink:href="#m45c9631ec6" y="80.315809"/>
    </g>
   </g>
  </g>
 </g>
 <defs>
  <clipPath id="pa5a55ab293">
   <rect height="217.44" width="375.84" x="31.871875" y="7.2"/>
  </clipPath>
 </defs>
</svg>
