<?xml version="1.0" encoding="utf-8" standalone="no"?>
<!DOCTYPE svg PUBLIC "-//W3C//DTD SVG 1.1//EN"
  "http://www.w3.org/Graphics/SVG/1.1/DTD/svg11.dtd">
<!-- Created with matplotlib (https://matplotlib.org/) -->
<svg height="269.924375pt" version="1.1" viewBox="0 0 587.63575 269.924375" width="587.63575pt" xmlns="http://www.w3.org/2000/svg" xmlns:xlink="http://www.w3.org/1999/xlink">
 <defs>
  <style type="text/css">
*{stroke-linecap:butt;stroke-linejoin:round;}
  </style>
 </defs>
 <g id="figure_1">
  <g id="patch_1">
   <path d="M 0 269.924375 
L 587.63575 269.924375 
L 587.63575 0 
L 0 0 
z
" style="fill:#ffffff;"/>
  </g>
  <g id="axes_1">
   <g id="patch_2">
    <path d="M 47.290625 224.64 
L 382.090625 224.64 
L 382.090625 7.2 
L 47.290625 7.2 
z
" style="fill:#ffffff;"/>
   </g>
   <g id="PolyCollection_1">
    <defs>
     <path d="M 62.508807 -111.539255 
L 62.508807 -128.849768 
L 63.016926 -128.623894 
L 63.525046 -128.398179 
L 64.033166 -128.172774 
L 64.541285 -127.947836 
L 65.049405 -127.723527 
L 65.557524 -127.500011 
L 66.065644 -127.277458 
L 66.573764 -127.056041 
L 67.081883 -126.835936 
L 67.590003 -126.617324 
L 68.098122 -126.400389 
L 68.606242 -126.185318 
L 69.114362 -125.972302 
L 69.622481 -125.761533 
L 70.130601 -125.553209 
L 70.63872 -125.347528 
L 71.14684 -125.14469 
L 71.654959 -124.9449 
L 72.163079 -124.748361 
L 72.671199 -124.55528 
L 73.179318 -124.365864 
L 73.687438 -124.180322 
L 74.195557 -123.998862 
L 74.703677 -123.821693 
L 75.211797 -123.649023 
L 75.719916 -123.481061 
L 76.228036 -123.318014 
L 76.736155 -123.160085 
L 77.244275 -123.007479 
L 77.752395 -122.860397 
L 78.260514 -122.719035 
L 78.768634 -122.583588 
L 79.276753 -122.454246 
L 79.784873 -122.331194 
L 80.292993 -122.214613 
L 80.801112 -122.104677 
L 81.309232 -122.001554 
L 81.817351 -121.905406 
L 82.325471 -121.816384 
L 82.833591 -121.734635 
L 83.34171 -121.660294 
L 83.84983 -121.593487 
L 84.357949 -121.534331 
L 84.866069 -121.48293 
L 85.374189 -121.439376 
L 85.882308 -121.403752 
L 86.390428 -121.376122 
L 86.898547 -121.356542 
L 87.406667 -121.34505 
L 87.914786 -121.341667 
L 88.422906 -121.346402 
L 88.931026 -121.359245 
L 89.439145 -121.38017 
L 89.947265 -121.409135 
L 90.455384 -121.446087 
L 90.963504 -121.490954 
L 91.471624 -121.543654 
L 91.979743 -121.604093 
L 92.487863 -121.672164 
L 92.995982 -121.747749 
L 93.504102 -121.83072 
L 94.012222 -121.920939 
L 94.520341 -122.018262 
L 95.028461 -122.122531 
L 95.53658 -122.233586 
L 96.0447 -122.351258 
L 96.55282 -122.475371 
L 97.060939 -122.605743 
L 97.569059 -122.742189 
L 98.077178 -122.884518 
L 98.585298 -123.032535 
L 99.093418 -123.186042 
L 99.601537 -123.344838 
L 100.109657 -123.508719 
L 100.617776 -123.67748 
L 101.125896 -123.850914 
L 101.634015 -124.028813 
L 102.142135 -124.210968 
L 102.650255 -124.39717 
L 103.158374 -124.587211 
L 103.666494 -124.780883 
L 104.174613 -124.977978 
L 104.682733 -125.178291 
L 105.190853 -125.381616 
L 105.698972 -125.587752 
L 106.207092 -125.796497 
L 106.715211 -126.007654 
L 107.223331 -126.221026 
L 107.731451 -126.43642 
L 108.23957 -126.653648 
L 108.74769 -126.872521 
L 109.255809 -127.092858 
L 109.763929 -127.314476 
L 110.272049 -127.537202 
L 110.780168 -127.760862 
L 111.288288 -127.985287 
L 111.796407 -128.210313 
L 112.304527 -128.435781 
L 112.812647 -128.661533 
L 113.320766 -128.887418 
L 113.828886 -129.113288 
L 114.337005 -129.339 
L 114.845125 -129.564415 
L 115.353245 -129.789399 
L 115.861364 -130.013822 
L 116.369484 -130.237558 
L 116.877603 -130.460486 
L 117.385723 -130.682489 
L 117.893842 -130.903456 
L 118.401962 -131.123278 
L 118.910082 -131.341853 
L 119.418201 -131.55908 
L 119.926321 -131.774865 
L 120.43444 -131.989119 
L 120.94256 -132.201753 
L 121.45068 -132.412688 
L 121.958799 -132.621843 
L 122.466919 -132.829146 
L 122.975038 -133.034527 
L 123.483158 -133.237918 
L 123.991278 -133.439259 
L 124.499397 -133.638491 
L 125.007517 -133.835558 
L 125.515636 -134.030411 
L 126.023756 -134.223 
L 126.531876 -134.413283 
L 127.039995 -134.601217 
L 127.548115 -134.786766 
L 128.056234 -134.969895 
L 128.564354 -135.150573 
L 129.072474 -135.328772 
L 129.580593 -135.504467 
L 130.088713 -135.677635 
L 130.596832 -135.848256 
L 131.104952 -136.016313 
L 131.613072 -136.181793 
L 132.121191 -136.344683 
L 132.629311 -136.504974 
L 133.13743 -136.662658 
L 133.64555 -136.817731 
L 134.153669 -136.97019 
L 134.661789 -137.120035 
L 135.169909 -137.267266 
L 135.678028 -137.411888 
L 136.186148 -137.553904 
L 136.694267 -137.693323 
L 137.202387 -137.830152 
L 137.710507 -137.964403 
L 138.218626 -138.096086 
L 138.726746 -138.225215 
L 139.234865 -138.351805 
L 139.742985 -138.47587 
L 140.251105 -138.59743 
L 140.759224 -138.716502 
L 141.267344 -138.833105 
L 141.775463 -138.94726 
L 142.283583 -139.058988 
L 142.791703 -139.168313 
L 143.299822 -139.275258 
L 143.807942 -139.379846 
L 144.316061 -139.482103 
L 144.824181 -139.582054 
L 145.332301 -139.679726 
L 145.84042 -139.775146 
L 146.34854 -139.868341 
L 146.856659 -139.959339 
L 147.364779 -140.04817 
L 147.872898 -140.134861 
L 148.381018 -140.219442 
L 148.889138 -140.301943 
L 149.397257 -140.382395 
L 149.905377 -140.460826 
L 150.413496 -140.537267 
L 150.921616 -140.61175 
L 151.429736 -140.684305 
L 151.937855 -140.754963 
L 152.445975 -140.823755 
L 152.954094 -140.890713 
L 153.462214 -140.955866 
L 153.970334 -141.019247 
L 154.478453 -141.080886 
L 154.986573 -141.140815 
L 155.494692 -141.199065 
L 156.002812 -141.255667 
L 156.510932 -141.31065 
L 157.019051 -141.364047 
L 157.527171 -141.415888 
L 158.03529 -141.466202 
L 158.54341 -141.515021 
L 159.05153 -141.562374 
L 159.559649 -141.608291 
L 160.067769 -141.652801 
L 160.575888 -141.695933 
L 161.084008 -141.737718 
L 161.592128 -141.778183 
L 162.100247 -141.817357 
L 162.608367 -141.855267 
L 163.116486 -141.891943 
L 163.624606 -141.927411 
L 164.132725 -141.961699 
L 164.640845 -141.994833 
L 165.148965 -142.02684 
L 165.657084 -142.057746 
L 166.165204 -142.087578 
L 166.673323 -142.11636 
L 167.181443 -142.144118 
L 167.689563 -142.170876 
L 168.197682 -142.19666 
L 168.705802 -142.221493 
L 169.213921 -142.245398 
L 169.722041 -142.268399 
L 170.230161 -142.290519 
L 170.73828 -142.311781 
L 171.2464 -142.332207 
L 171.754519 -142.351818 
L 172.262639 -142.370636 
L 172.770759 -142.388682 
L 173.278878 -142.405977 
L 173.786998 -142.422541 
L 174.295117 -142.438393 
L 174.803237 -142.453555 
L 175.311357 -142.468044 
L 175.819476 -142.481879 
L 176.327596 -142.495079 
L 176.835715 -142.507663 
L 177.343835 -142.519647 
L 177.851954 -142.531049 
L 178.360074 -142.541886 
L 178.868194 -142.552176 
L 179.376313 -142.561933 
L 179.884433 -142.571174 
L 180.392552 -142.579915 
L 180.900672 -142.588171 
L 181.408792 -142.595957 
L 181.916911 -142.603287 
L 182.425031 -142.610176 
L 182.93315 -142.616638 
L 183.44127 -142.622686 
L 183.94939 -142.628334 
L 184.457509 -142.633594 
L 184.965629 -142.63848 
L 185.473748 -142.643004 
L 185.981868 -142.647178 
L 186.489988 -142.651013 
L 186.998107 -142.654522 
L 187.506227 -142.657715 
L 188.014346 -142.660604 
L 188.522466 -142.663198 
L 189.030586 -142.66551 
L 189.538705 -142.667548 
L 190.046825 -142.669323 
L 190.554944 -142.670844 
L 191.063064 -142.672121 
L 191.571184 -142.673162 
L 192.079303 -142.673977 
L 192.587423 -142.674575 
L 193.095542 -142.674963 
L 193.603662 -142.67515 
L 194.111781 -142.675145 
L 194.619901 -142.674954 
L 195.128021 -142.674585 
L 195.63614 -142.674045 
L 196.14426 -142.673343 
L 196.652379 -142.672484 
L 197.160499 -142.671475 
L 197.668619 -142.670323 
L 198.176738 -142.669034 
L 198.684858 -142.667615 
L 199.192977 -142.66607 
L 199.701097 -142.664407 
L 200.209217 -142.662631 
L 200.717336 -142.660746 
L 201.225456 -142.658759 
L 201.733575 -142.656675 
L 202.241695 -142.654498 
L 202.749815 -142.652233 
L 203.257934 -142.649885 
L 203.766054 -142.647458 
L 204.274173 -142.644958 
L 204.782293 -142.642387 
L 205.290413 -142.63975 
L 205.798532 -142.637052 
L 206.306652 -142.634295 
L 206.814771 -142.631484 
L 207.322891 -142.628622 
L 207.83101 -142.625712 
L 208.33913 -142.622759 
L 208.84725 -142.619764 
L 209.355369 -142.616732 
L 209.863489 -142.613665 
L 210.371608 -142.610565 
L 210.879728 -142.607437 
L 211.387848 -142.604283 
L 211.895967 -142.601104 
L 212.404087 -142.597904 
L 212.912206 -142.594686 
L 213.420326 -142.59145 
L 213.928446 -142.5882 
L 214.436565 -142.584938 
L 214.944685 -142.581666 
L 215.452804 -142.578385 
L 215.960924 -142.575098 
L 216.469044 -142.571807 
L 216.977163 -142.568512 
L 217.485283 -142.565217 
L 217.993402 -142.561922 
L 218.501522 -142.558629 
L 219.009642 -142.55534 
L 219.517761 -142.552056 
L 220.025881 -142.548777 
L 220.534 -142.545507 
L 221.04212 -142.542245 
L 221.55024 -142.538994 
L 222.058359 -142.535753 
L 222.566479 -142.532525 
L 223.074598 -142.52931 
L 223.582718 -142.526109 
L 224.090837 -142.522923 
L 224.598957 -142.519753 
L 225.107077 -142.5166 
L 225.615196 -142.513465 
L 226.123316 -142.510348 
L 226.631435 -142.50725 
L 227.139555 -142.504172 
L 227.647675 -142.501114 
L 228.155794 -142.498077 
L 228.663914 -142.495062 
L 229.172033 -142.492068 
L 229.680153 -142.489097 
L 230.188273 -142.48615 
L 230.696392 -142.483225 
L 231.204512 -142.480325 
L 231.712631 -142.477449 
L 232.220751 -142.474597 
L 232.728871 -142.47177 
L 233.23699 -142.468968 
L 233.74511 -142.466192 
L 234.253229 -142.463441 
L 234.761349 -142.460717 
L 235.269469 -142.458018 
L 235.777588 -142.455346 
L 236.285708 -142.4527 
L 236.793827 -142.45008 
L 237.301947 -142.447488 
L 237.810066 -142.444922 
L 238.318186 -142.442383 
L 238.826306 -142.43987 
L 239.334425 -142.437385 
L 239.842545 -142.434927 
L 240.350664 -142.432496 
L 240.858784 -142.430092 
L 241.366904 -142.427715 
L 241.875023 -142.425364 
L 242.383143 -142.423041 
L 242.891262 -142.420745 
L 243.399382 -142.418476 
L 243.907502 -142.416233 
L 244.415621 -142.414018 
L 244.923741 -142.411829 
L 245.43186 -142.409666 
L 245.93998 -142.40753 
L 246.4481 -142.40542 
L 246.956219 -142.403337 
L 247.464339 -142.401279 
L 247.972458 -142.399248 
L 248.480578 -142.397242 
L 248.988698 -142.395262 
L 249.496817 -142.393307 
L 250.004937 -142.391378 
L 250.513056 -142.389474 
L 251.021176 -142.387595 
L 251.529296 -142.385741 
L 252.037415 -142.383912 
L 252.545535 -142.382106 
L 253.053654 -142.380326 
L 253.561774 -142.378569 
L 254.069893 -142.376836 
L 254.578013 -142.375127 
L 255.086133 -142.373442 
L 255.594252 -142.371779 
L 256.102372 -142.37014 
L 256.610491 -142.368524 
L 257.118611 -142.36693 
L 257.626731 -142.365359 
L 258.13485 -142.363809 
L 258.64297 -142.362282 
L 259.151089 -142.360777 
L 259.659209 -142.359293 
L 260.167329 -142.357831 
L 260.675448 -142.35639 
L 261.183568 -142.35497 
L 261.691687 -142.35357 
L 262.199807 -142.352191 
L 262.707927 -142.350832 
L 263.216046 -142.349493 
L 263.724166 -142.348174 
L 264.232285 -142.346874 
L 264.740405 -142.345594 
L 265.248525 -142.344333 
L 265.756644 -142.343091 
L 266.264764 -142.341868 
L 266.772883 -142.340663 
L 267.281003 -142.339476 
L 267.789122 -142.338307 
L 268.297242 -142.337156 
L 268.805362 -142.336023 
L 269.313481 -142.334907 
L 269.821601 -142.333808 
L 270.32972 -142.332726 
L 270.83784 -142.331661 
L 271.34596 -142.330612 
L 271.854079 -142.329579 
L 272.362199 -142.328563 
L 272.870318 -142.327562 
L 273.378438 -142.326578 
L 273.886558 -142.325608 
L 274.394677 -142.324654 
L 274.902797 -142.323715 
L 275.410916 -142.322791 
L 275.919036 -142.321881 
L 276.427156 -142.320986 
L 276.935275 -142.320105 
L 277.443395 -142.319238 
L 277.951514 -142.318385 
L 278.459634 -142.317546 
L 278.967754 -142.31672 
L 279.475873 -142.315907 
L 279.983993 -142.315108 
L 280.492112 -142.314321 
L 281.000232 -142.313548 
L 281.508352 -142.312786 
L 282.016471 -142.312037 
L 282.524591 -142.311301 
L 283.03271 -142.310576 
L 283.54083 -142.309863 
L 284.048949 -142.309162 
L 284.557069 -142.308472 
L 285.065189 -142.307794 
L 285.573308 -142.307127 
L 286.081428 -142.30647 
L 286.589547 -142.305825 
L 287.097667 -142.30519 
L 287.605787 -142.304566 
L 288.113906 -142.303952 
L 288.622026 -142.303349 
L 289.130145 -142.302755 
L 289.638265 -142.302172 
L 290.146385 -142.301598 
L 290.654504 -142.301033 
L 291.162624 -142.300479 
L 291.670743 -142.299933 
L 292.178863 -142.299397 
L 292.686983 -142.298869 
L 293.195102 -142.298351 
L 293.703222 -142.297841 
L 294.211341 -142.29734 
L 294.719461 -142.296847 
L 295.227581 -142.296363 
L 295.7357 -142.295887 
L 296.24382 -142.295419 
L 296.751939 -142.294959 
L 297.260059 -142.294507 
L 297.768178 -142.294062 
L 298.276298 -142.293625 
L 298.784418 -142.293196 
L 299.292537 -142.292773 
L 299.800657 -142.292359 
L 300.308776 -142.291951 
L 300.816896 -142.29155 
L 301.325016 -142.291156 
L 301.833135 -142.290769 
L 302.341255 -142.290389 
L 302.849374 -142.290015 
L 303.357494 -142.289647 
L 303.865614 -142.289286 
L 304.373733 -142.288931 
L 304.881853 -142.288583 
L 305.389972 -142.28824 
L 305.898092 -142.287904 
L 306.406212 -142.287573 
L 306.914331 -142.287248 
L 307.422451 -142.286928 
L 307.93057 -142.286614 
L 308.43869 -142.286306 
L 308.94681 -142.286003 
L 309.454929 -142.285705 
L 309.963049 -142.285413 
L 310.471168 -142.285125 
L 310.979288 -142.284843 
L 311.487408 -142.284566 
L 311.995527 -142.284293 
L 312.503647 -142.284025 
L 313.011766 -142.283762 
L 313.519886 -142.283504 
L 314.028005 -142.28325 
L 314.536125 -142.283001 
L 315.044245 -142.282756 
L 315.552364 -142.282515 
L 316.060484 -142.282279 
L 316.568603 -142.282047 
L 317.076723 -142.281818 
L 317.584843 -142.281594 
L 318.092962 -142.281374 
L 318.601082 -142.281158 
L 319.109201 -142.280946 
L 319.617321 -142.280737 
L 320.125441 -142.280532 
L 320.63356 -142.280331 
L 321.14168 -142.280134 
L 321.649799 -142.27994 
L 322.157919 -142.279749 
L 322.666039 -142.279562 
L 323.174158 -142.279378 
L 323.682278 -142.279197 
L 324.190397 -142.27902 
L 324.698517 -142.278846 
L 325.206637 -142.278675 
L 325.714756 -142.278507 
L 326.222876 -142.278342 
L 326.730995 -142.278179 
L 327.239115 -142.27802 
L 327.747235 -142.277864 
L 328.255354 -142.277711 
L 328.763474 -142.27756 
L 329.271593 -142.277412 
L 329.779713 -142.277267 
L 330.287832 -142.277124 
L 330.795952 -142.276984 
L 331.304072 -142.276846 
L 331.812191 -142.276711 
L 332.320311 -142.276579 
L 332.82843 -142.276448 
L 333.33655 -142.27632 
L 333.84467 -142.276195 
L 334.352789 -142.276072 
L 334.860909 -142.27595 
L 335.369028 -142.275832 
L 335.877148 -142.275715 
L 336.385268 -142.2756 
L 336.893387 -142.275488 
L 337.401507 -142.275377 
L 337.909626 -142.275269 
L 338.417746 -142.275162 
L 338.925866 -142.275058 
L 339.433985 -142.274955 
L 339.942105 -142.274854 
L 340.450224 -142.274755 
L 340.958344 -142.274658 
L 341.466464 -142.274563 
L 341.974583 -142.274469 
L 342.482703 -142.274377 
L 342.990822 -142.274287 
L 343.498942 -142.274199 
L 344.007061 -142.274112 
L 344.515181 -142.274026 
L 345.023301 -142.273943 
L 345.53142 -142.27386 
L 346.03954 -142.27378 
L 346.547659 -142.2737 
L 347.055779 -142.273622 
L 347.563899 -142.273546 
L 348.072018 -142.273471 
L 348.580138 -142.273397 
L 349.088257 -142.273325 
L 349.596377 -142.273254 
L 350.104497 -142.273185 
L 350.612616 -142.273116 
L 351.120736 -142.273049 
L 351.628855 -142.272983 
L 352.136975 -142.272919 
L 352.645095 -142.272855 
L 353.153214 -142.272793 
L 353.661334 -142.272732 
L 354.169453 -142.272672 
L 354.677573 -142.272613 
L 355.185693 -142.272555 
L 355.693812 -142.272499 
L 356.201932 -142.272443 
L 356.710051 -142.272388 
L 357.218171 -142.272335 
L 357.726291 -142.272282 
L 358.23441 -142.272231 
L 358.74253 -142.27218 
L 359.250649 -142.27213 
L 359.758769 -142.272081 
L 360.266888 -142.272033 
L 360.775008 -142.271986 
L 361.283128 -142.27194 
L 361.791247 -142.271895 
L 362.299367 -142.27185 
L 362.807486 -142.271807 
L 363.315606 -142.271764 
L 363.823726 -142.271722 
L 364.331845 -142.271681 
L 364.839965 -142.27164 
L 365.348084 -142.271601 
L 365.856204 -142.271562 
L 366.364324 -142.271523 
L 366.872443 -142.271486 
L 366.872443 -87.026455 
L 366.872443 -87.026455 
L 366.364324 -87.026492 
L 365.856204 -87.026531 
L 365.348084 -87.02657 
L 364.839965 -87.02661 
L 364.331845 -87.02665 
L 363.823726 -87.026692 
L 363.315606 -87.026734 
L 362.807486 -87.026777 
L 362.299367 -87.026821 
L 361.791247 -87.026866 
L 361.283128 -87.026911 
L 360.775008 -87.026958 
L 360.266888 -87.027005 
L 359.758769 -87.027053 
L 359.250649 -87.027102 
L 358.74253 -87.027153 
L 358.23441 -87.027204 
L 357.726291 -87.027256 
L 357.218171 -87.027309 
L 356.710051 -87.027363 
L 356.201932 -87.027418 
L 355.693812 -87.027474 
L 355.185693 -87.027531 
L 354.677573 -87.027589 
L 354.169453 -87.027648 
L 353.661334 -87.027709 
L 353.153214 -87.02777 
L 352.645095 -87.027833 
L 352.136975 -87.027897 
L 351.628855 -87.027962 
L 351.120736 -87.028029 
L 350.612616 -87.028096 
L 350.104497 -87.028165 
L 349.596377 -87.028235 
L 349.088257 -87.028307 
L 348.580138 -87.02838 
L 348.072018 -87.028454 
L 347.563899 -87.02853 
L 347.055779 -87.028607 
L 346.547659 -87.028686 
L 346.03954 -87.028766 
L 345.53142 -87.028847 
L 345.023301 -87.028931 
L 344.515181 -87.029015 
L 344.007061 -87.029102 
L 343.498942 -87.02919 
L 342.990822 -87.029279 
L 342.482703 -87.02937 
L 341.974583 -87.029464 
L 341.466464 -87.029558 
L 340.958344 -87.029655 
L 340.450224 -87.029753 
L 339.942105 -87.029853 
L 339.433985 -87.029956 
L 338.925866 -87.03006 
L 338.417746 -87.030166 
L 337.909626 -87.030274 
L 337.401507 -87.030384 
L 336.893387 -87.030496 
L 336.385268 -87.03061 
L 335.877148 -87.030726 
L 335.369028 -87.030845 
L 334.860909 -87.030966 
L 334.352789 -87.031089 
L 333.84467 -87.031214 
L 333.33655 -87.031342 
L 332.82843 -87.031472 
L 332.320311 -87.031604 
L 331.812191 -87.031739 
L 331.304072 -87.031877 
L 330.795952 -87.032017 
L 330.287832 -87.03216 
L 329.779713 -87.032305 
L 329.271593 -87.032453 
L 328.763474 -87.032604 
L 328.255354 -87.032758 
L 327.747235 -87.032914 
L 327.239115 -87.033074 
L 326.730995 -87.033237 
L 326.222876 -87.033402 
L 325.714756 -87.033571 
L 325.206637 -87.033743 
L 324.698517 -87.033918 
L 324.190397 -87.034096 
L 323.682278 -87.034278 
L 323.174158 -87.034463 
L 322.666039 -87.034651 
L 322.157919 -87.034843 
L 321.649799 -87.035039 
L 321.14168 -87.035238 
L 320.63356 -87.035441 
L 320.125441 -87.035647 
L 319.617321 -87.035858 
L 319.109201 -87.036073 
L 318.601082 -87.036291 
L 318.092962 -87.036514 
L 317.584843 -87.03674 
L 317.076723 -87.036971 
L 316.568603 -87.037206 
L 316.060484 -87.037446 
L 315.552364 -87.03769 
L 315.044245 -87.037939 
L 314.536125 -87.038192 
L 314.028005 -87.03845 
L 313.519886 -87.038713 
L 313.011766 -87.03898 
L 312.503647 -87.039253 
L 311.995527 -87.03953 
L 311.487408 -87.039813 
L 310.979288 -87.040101 
L 310.471168 -87.040395 
L 309.963049 -87.040693 
L 309.454929 -87.040998 
L 308.94681 -87.041308 
L 308.43869 -87.041624 
L 307.93057 -87.041945 
L 307.422451 -87.042273 
L 306.914331 -87.042607 
L 306.406212 -87.042947 
L 305.898092 -87.043293 
L 305.389972 -87.043645 
L 304.881853 -87.044005 
L 304.373733 -87.04437 
L 303.865614 -87.044743 
L 303.357494 -87.045122 
L 302.849374 -87.045509 
L 302.341255 -87.045903 
L 301.833135 -87.046304 
L 301.325016 -87.046712 
L 300.816896 -87.047128 
L 300.308776 -87.047552 
L 299.800657 -87.047983 
L 299.292537 -87.048423 
L 298.784418 -87.04887 
L 298.276298 -87.049326 
L 297.768178 -87.04979 
L 297.260059 -87.050263 
L 296.751939 -87.050745 
L 296.24382 -87.051236 
L 295.7357 -87.051735 
L 295.227581 -87.052244 
L 294.719461 -87.052763 
L 294.211341 -87.05329 
L 293.703222 -87.053828 
L 293.195102 -87.054376 
L 292.686983 -87.054934 
L 292.178863 -87.055502 
L 291.670743 -87.05608 
L 291.162624 -87.05667 
L 290.654504 -87.05727 
L 290.146385 -87.057881 
L 289.638265 -87.058504 
L 289.130145 -87.059138 
L 288.622026 -87.059784 
L 288.113906 -87.060441 
L 287.605787 -87.061111 
L 287.097667 -87.061794 
L 286.589547 -87.062489 
L 286.081428 -87.063197 
L 285.573308 -87.063918 
L 285.065189 -87.064652 
L 284.557069 -87.0654 
L 284.048949 -87.066161 
L 283.54083 -87.066937 
L 283.03271 -87.067728 
L 282.524591 -87.068532 
L 282.016471 -87.069352 
L 281.508352 -87.070187 
L 281.000232 -87.071037 
L 280.492112 -87.071904 
L 279.983993 -87.072786 
L 279.475873 -87.073684 
L 278.967754 -87.0746 
L 278.459634 -87.075532 
L 277.951514 -87.076481 
L 277.443395 -87.077449 
L 276.935275 -87.078434 
L 276.427156 -87.079437 
L 275.919036 -87.080459 
L 275.410916 -87.0815 
L 274.902797 -87.08256 
L 274.394677 -87.08364 
L 273.886558 -87.08474 
L 273.378438 -87.085861 
L 272.870318 -87.087002 
L 272.362199 -87.088165 
L 271.854079 -87.089349 
L 271.34596 -87.090555 
L 270.83784 -87.091784 
L 270.32972 -87.093036 
L 269.821601 -87.094311 
L 269.313481 -87.09561 
L 268.805362 -87.096933 
L 268.297242 -87.09828 
L 267.789122 -87.099653 
L 267.281003 -87.101052 
L 266.772883 -87.102476 
L 266.264764 -87.103928 
L 265.756644 -87.105406 
L 265.248525 -87.106912 
L 264.740405 -87.108446 
L 264.232285 -87.110009 
L 263.724166 -87.111602 
L 263.216046 -87.113224 
L 262.707927 -87.114877 
L 262.199807 -87.11656 
L 261.691687 -87.118275 
L 261.183568 -87.120023 
L 260.675448 -87.121803 
L 260.167329 -87.123617 
L 259.659209 -87.125465 
L 259.151089 -87.127348 
L 258.64297 -87.129267 
L 258.13485 -87.131221 
L 257.626731 -87.133213 
L 257.118611 -87.135242 
L 256.610491 -87.137309 
L 256.102372 -87.139416 
L 255.594252 -87.141562 
L 255.086133 -87.14375 
L 254.578013 -87.145978 
L 254.069893 -87.148249 
L 253.561774 -87.150563 
L 253.053654 -87.152921 
L 252.545535 -87.155324 
L 252.037415 -87.157773 
L 251.529296 -87.160268 
L 251.021176 -87.162811 
L 250.513056 -87.165403 
L 250.004937 -87.168044 
L 249.496817 -87.170735 
L 248.988698 -87.173478 
L 248.480578 -87.176274 
L 247.972458 -87.179123 
L 247.464339 -87.182027 
L 246.956219 -87.184987 
L 246.4481 -87.188003 
L 245.93998 -87.191078 
L 245.43186 -87.194212 
L 244.923741 -87.197406 
L 244.415621 -87.200662 
L 243.907502 -87.203981 
L 243.399382 -87.207364 
L 242.891262 -87.210813 
L 242.383143 -87.214328 
L 241.875023 -87.217912 
L 241.366904 -87.221565 
L 240.858784 -87.22529 
L 240.350664 -87.229086 
L 239.842545 -87.232957 
L 239.334425 -87.236904 
L 238.826306 -87.240928 
L 238.318186 -87.24503 
L 237.810066 -87.249213 
L 237.301947 -87.253477 
L 236.793827 -87.257826 
L 236.285708 -87.262259 
L 235.777588 -87.26678 
L 235.269469 -87.27139 
L 234.761349 -87.276092 
L 234.253229 -87.280885 
L 233.74511 -87.285774 
L 233.23699 -87.290759 
L 232.728871 -87.295844 
L 232.220751 -87.301029 
L 231.712631 -87.306317 
L 231.204512 -87.31171 
L 230.696392 -87.317211 
L 230.188273 -87.322821 
L 229.680153 -87.328544 
L 229.172033 -87.334381 
L 228.663914 -87.340335 
L 228.155794 -87.346408 
L 227.647675 -87.352603 
L 227.139555 -87.358922 
L 226.631435 -87.365369 
L 226.123316 -87.371946 
L 225.615196 -87.378655 
L 225.107077 -87.3855 
L 224.598957 -87.392483 
L 224.090837 -87.399608 
L 223.582718 -87.406877 
L 223.074598 -87.414294 
L 222.566479 -87.421862 
L 222.058359 -87.429584 
L 221.55024 -87.437463 
L 221.04212 -87.445503 
L 220.534 -87.453708 
L 220.025881 -87.46208 
L 219.517761 -87.470624 
L 219.009642 -87.479343 
L 218.501522 -87.488242 
L 217.993402 -87.497323 
L 217.485283 -87.506592 
L 216.977163 -87.516051 
L 216.469044 -87.525707 
L 215.960924 -87.535561 
L 215.452804 -87.54562 
L 214.944685 -87.555887 
L 214.436565 -87.566368 
L 213.928446 -87.577066 
L 213.420326 -87.587987 
L 212.912206 -87.599135 
L 212.404087 -87.610515 
L 211.895967 -87.622134 
L 211.387848 -87.633995 
L 210.879728 -87.646104 
L 210.371608 -87.658467 
L 209.863489 -87.67109 
L 209.355369 -87.683977 
L 208.84725 -87.697135 
L 208.33913 -87.710571 
L 207.83101 -87.724289 
L 207.322891 -87.738297 
L 206.814771 -87.7526 
L 206.306652 -87.767206 
L 205.798532 -87.78212 
L 205.290413 -87.797351 
L 204.782293 -87.812904 
L 204.274173 -87.828787 
L 203.766054 -87.845008 
L 203.257934 -87.861573 
L 202.749815 -87.87849 
L 202.241695 -87.895768 
L 201.733575 -87.913414 
L 201.225456 -87.931436 
L 200.717336 -87.949843 
L 200.209217 -87.968643 
L 199.701097 -87.987845 
L 199.192977 -88.007458 
L 198.684858 -88.027491 
L 198.176738 -88.047952 
L 197.668619 -88.068852 
L 197.160499 -88.090201 
L 196.652379 -88.112007 
L 196.14426 -88.134281 
L 195.63614 -88.157034 
L 195.128021 -88.180276 
L 194.619901 -88.204018 
L 194.111781 -88.228271 
L 193.603662 -88.253045 
L 193.095542 -88.278352 
L 192.587423 -88.304205 
L 192.079303 -88.330614 
L 191.571184 -88.357592 
L 191.063064 -88.385151 
L 190.554944 -88.413305 
L 190.046825 -88.442065 
L 189.538705 -88.471445 
L 189.030586 -88.501458 
L 188.522466 -88.532119 
L 188.014346 -88.56344 
L 187.506227 -88.595437 
L 186.998107 -88.628123 
L 186.489988 -88.661514 
L 185.981868 -88.695624 
L 185.473748 -88.730469 
L 184.965629 -88.766064 
L 184.457509 -88.802426 
L 183.94939 -88.83957 
L 183.44127 -88.877513 
L 182.93315 -88.916272 
L 182.425031 -88.955864 
L 181.916911 -88.996306 
L 181.408792 -89.037617 
L 180.900672 -89.079813 
L 180.392552 -89.122914 
L 179.884433 -89.166939 
L 179.376313 -89.211905 
L 178.868194 -89.257833 
L 178.360074 -89.304742 
L 177.851954 -89.352653 
L 177.343835 -89.401585 
L 176.835715 -89.451559 
L 176.327596 -89.502596 
L 175.819476 -89.554717 
L 175.311357 -89.607944 
L 174.803237 -89.6623 
L 174.295117 -89.717805 
L 173.786998 -89.774484 
L 173.278878 -89.832358 
L 172.770759 -89.891452 
L 172.262639 -89.951788 
L 171.754519 -90.013391 
L 171.2464 -90.076285 
L 170.73828 -90.140495 
L 170.230161 -90.206045 
L 169.722041 -90.272961 
L 169.213921 -90.341269 
L 168.705802 -90.410994 
L 168.197682 -90.482162 
L 167.689563 -90.5548 
L 167.181443 -90.628936 
L 166.673323 -90.704595 
L 166.165204 -90.781805 
L 165.657084 -90.860594 
L 165.148965 -90.94099 
L 164.640845 -91.023022 
L 164.132725 -91.106716 
L 163.624606 -91.192103 
L 163.116486 -91.279212 
L 162.608367 -91.368071 
L 162.100247 -91.458709 
L 161.592128 -91.551157 
L 161.084008 -91.645444 
L 160.575888 -91.7416 
L 160.067769 -91.839656 
L 159.559649 -91.939641 
L 159.05153 -92.041586 
L 158.54341 -92.145521 
L 158.03529 -92.251478 
L 157.527171 -92.359486 
L 157.019051 -92.469577 
L 156.510932 -92.581782 
L 156.002812 -92.69613 
L 155.494692 -92.812654 
L 154.986573 -92.931383 
L 154.478453 -93.052348 
L 153.970334 -93.175581 
L 153.462214 -93.301111 
L 152.954094 -93.428969 
L 152.445975 -93.559184 
L 151.937855 -93.691788 
L 151.429736 -93.82681 
L 150.921616 -93.964278 
L 150.413496 -94.104223 
L 149.905377 -94.246673 
L 149.397257 -94.391657 
L 148.889138 -94.539202 
L 148.381018 -94.689336 
L 147.872898 -94.842087 
L 147.364779 -94.997479 
L 146.856659 -95.155541 
L 146.34854 -95.316295 
L 145.84042 -95.479768 
L 145.332301 -95.645983 
L 144.824181 -95.814963 
L 144.316061 -95.986729 
L 143.807942 -96.161304 
L 143.299822 -96.338707 
L 142.791703 -96.518958 
L 142.283583 -96.702075 
L 141.775463 -96.888074 
L 141.267344 -97.076972 
L 140.759224 -97.268783 
L 140.251105 -97.46352 
L 139.742985 -97.661195 
L 139.234865 -97.861818 
L 138.726746 -98.065398 
L 138.218626 -98.271941 
L 137.710507 -98.481454 
L 137.202387 -98.69394 
L 136.694267 -98.9094 
L 136.186148 -99.127834 
L 135.678028 -99.34924 
L 135.169909 -99.573614 
L 134.661789 -99.80095 
L 134.153669 -100.031237 
L 133.64555 -100.264466 
L 133.13743 -100.500622 
L 132.629311 -100.739689 
L 132.121191 -100.981649 
L 131.613072 -101.22648 
L 131.104952 -101.474158 
L 130.596832 -101.724656 
L 130.088713 -101.977943 
L 129.580593 -102.233986 
L 129.072474 -102.492749 
L 128.564354 -102.754192 
L 128.056234 -103.018271 
L 127.548115 -103.284942 
L 127.039995 -103.554152 
L 126.531876 -103.82585 
L 126.023756 -104.099976 
L 125.515636 -104.376471 
L 125.007517 -104.655268 
L 124.499397 -104.9363 
L 123.991278 -105.219492 
L 123.483158 -105.504767 
L 122.975038 -105.792043 
L 122.466919 -106.081236 
L 121.958799 -106.372253 
L 121.45068 -106.665001 
L 120.94256 -106.95938 
L 120.43444 -107.255286 
L 119.926321 -107.552611 
L 119.418201 -107.851241 
L 118.910082 -108.151058 
L 118.401962 -108.451939 
L 117.893842 -108.753756 
L 117.385723 -109.056377 
L 116.877603 -109.359663 
L 116.369484 -109.663473 
L 115.861364 -109.967658 
L 115.353245 -110.272065 
L 114.845125 -110.576538 
L 114.337005 -110.880914 
L 113.828886 -111.185024 
L 113.320766 -111.488697 
L 112.812647 -111.791755 
L 112.304527 -112.094016 
L 111.796407 -112.395293 
L 111.288288 -112.695394 
L 110.780168 -112.994123 
L 110.272049 -113.291278 
L 109.763929 -113.586654 
L 109.255809 -113.880042 
L 108.74769 -114.171227 
L 108.23957 -114.459993 
L 107.731451 -114.746116 
L 107.223331 -115.029372 
L 106.715211 -115.309531 
L 106.207092 -115.586362 
L 105.698972 -115.859628 
L 105.190853 -116.129093 
L 104.682733 -116.394516 
L 104.174613 -116.655654 
L 103.666494 -116.912263 
L 103.158374 -117.164095 
L 102.650255 -117.410905 
L 102.142135 -117.652444 
L 101.634015 -117.888464 
L 101.125896 -118.118715 
L 100.617776 -118.342949 
L 100.109657 -118.56092 
L 99.601537 -118.772382 
L 99.093418 -118.977089 
L 98.585298 -119.174802 
L 98.077178 -119.36528 
L 97.569059 -119.548288 
L 97.060939 -119.723597 
L 96.55282 -119.890978 
L 96.0447 -120.050212 
L 95.53658 -120.201084 
L 95.028461 -120.343384 
L 94.520341 -120.476914 
L 94.012222 -120.601479 
L 93.504102 -120.716897 
L 92.995982 -120.822994 
L 92.487863 -120.919606 
L 91.979743 -121.006581 
L 91.471624 -121.083779 
L 90.963504 -121.151073 
L 90.455384 -121.208351 
L 89.947265 -121.255513 
L 89.439145 -121.292477 
L 88.931026 -121.319176 
L 88.422906 -121.335562 
L 87.914786 -121.341603 
L 87.406667 -121.337287 
L 86.898547 -121.322624 
L 86.390428 -121.297641 
L 85.882308 -121.262384 
L 85.374189 -121.216916 
L 84.866069 -121.161318 
L 84.357949 -121.095686 
L 83.84983 -121.02013 
L 83.34171 -120.934775 
L 82.833591 -120.839759 
L 82.325471 -120.735232 
L 81.817351 -120.621356 
L 81.309232 -120.498302 
L 80.801112 -120.366254 
L 80.292993 -120.225401 
L 79.784873 -120.075944 
L 79.276753 -119.918089 
L 78.768634 -119.75205 
L 78.260514 -119.578047 
L 77.752395 -119.396306 
L 77.244275 -119.207057 
L 76.736155 -119.010534 
L 76.228036 -118.806975 
L 75.719916 -118.596623 
L 75.211797 -118.37972 
L 74.703677 -118.156512 
L 74.195557 -117.927246 
L 73.687438 -117.692171 
L 73.179318 -117.451535 
L 72.671199 -117.205586 
L 72.163079 -116.954573 
L 71.654959 -116.698743 
L 71.14684 -116.438343 
L 70.63872 -116.173618 
L 70.130601 -115.90481 
L 69.622481 -115.63216 
L 69.114362 -115.355907 
L 68.606242 -115.076286 
L 68.098122 -114.793531 
L 67.590003 -114.507869 
L 67.081883 -114.219529 
L 66.573764 -113.928732 
L 66.065644 -113.635696 
L 65.557524 -113.340636 
L 65.049405 -113.043763 
L 64.541285 -112.745283 
L 64.033166 -112.445397 
L 63.525046 -112.144303 
L 63.016926 -111.842193 
L 62.508807 -111.539255 
z
" id="m6d35a91f56" style="stroke:#808080;stroke-opacity:0.4;stroke-width:0.24;"/>
    </defs>
    <g clip-path="url(#p8c91d6718b)">
     <use style="fill:#808080;fill-opacity:0.4;stroke:#808080;stroke-opacity:0.4;stroke-width:0.24;" x="0" xlink:href="#m6d35a91f56" y="269.924375"/>
    </g>
   </g>
   <g id="matplotlib.axis_1">
    <g id="xtick_1">
     <g id="line2d_1">
      <path clip-path="url(#p8c91d6718b)" d="M 62.508807 224.64 
L 62.508807 7.2 
" style="fill:none;stroke:#b0b0b0;stroke-linecap:square;stroke-width:0.8;"/>
     </g>
     <g id="line2d_2">
      <defs>
       <path d="M 0 0 
L 0 3.5 
" id="m0514f8daef" style="stroke:#808080;stroke-width:0.8;"/>
      </defs>
      <g>
       <use style="fill:#808080;stroke:#808080;stroke-width:0.8;" x="62.508807" xlink:href="#m0514f8daef" y="224.64"/>
      </g>
     </g>
     <g id="text_1">
      <!-- 0 -->
      <defs>
       <path d="M 5 34.703125 
Q 5 52.09375 11.140625 61.5 
Q 17.296875 70.90625 28.203125 70.90625 
Q 39.09375 70.90625 45.25 61.5 
Q 51.40625 52.09375 51.40625 34.703125 
Q 51.40625 17.296875 45.25 7.890625 
Q 39.09375 -1.5 28.203125 -1.5 
Q 17.296875 -1.5 11.140625 7.890625 
Q 5 17.296875 5 34.703125 
z
M 41.59375 34.703125 
Q 41.59375 40.40625 40.9375 45.5 
Q 40.296875 50.59375 38.75 54.390625 
Q 37.203125 58.203125 34.59375 60.453125 
Q 32 62.703125 28.203125 62.703125 
Q 24.40625 62.703125 21.796875 60.453125 
Q 19.203125 58.203125 17.640625 54.390625 
Q 16.09375 50.59375 15.4375 45.5 
Q 14.796875 40.40625 14.796875 34.703125 
Q 14.796875 29 15.4375 23.890625 
Q 16.09375 18.796875 17.640625 15 
Q 19.203125 11.203125 21.796875 8.953125 
Q 24.40625 6.703125 28.203125 6.703125 
Q 32 6.703125 34.59375 8.953125 
Q 37.203125 11.203125 38.75 15 
Q 40.296875 18.796875 40.9375 23.890625 
Q 41.59375 29 41.59375 34.703125 
z
" id="Ubuntu-48"/>
      </defs>
      <g transform="translate(59.124432 243.05125)scale(0.12 -0.12)">
       <use xlink:href="#Ubuntu-48"/>
      </g>
     </g>
    </g>
    <g id="xtick_2">
     <g id="line2d_3">
      <path clip-path="url(#p8c91d6718b)" d="M 113.23608 224.64 
L 113.23608 7.2 
" style="fill:none;stroke:#b0b0b0;stroke-linecap:square;stroke-width:0.8;"/>
     </g>
     <g id="line2d_4">
      <g>
       <use style="fill:#808080;stroke:#808080;stroke-width:0.8;" x="113.23608" xlink:href="#m0514f8daef" y="224.64"/>
      </g>
     </g>
     <g id="text_2">
      <!-- 1 -->
      <defs>
       <path d="M 9.296875 55 
Q 15 57.203125 20.390625 60.640625 
Q 25.796875 64.09375 30.296875 69.296875 
L 36.90625 69.296875 
L 36.90625 0 
L 27.59375 0 
L 27.59375 56.40625 
Q 26.40625 55.296875 24.65625 54.09375 
Q 22.90625 52.90625 20.84375 51.796875 
Q 18.796875 50.703125 16.546875 49.703125 
Q 14.296875 48.703125 12.203125 48 
z
" id="Ubuntu-49"/>
      </defs>
      <g transform="translate(109.851705 243.05125)scale(0.12 -0.12)">
       <use xlink:href="#Ubuntu-49"/>
      </g>
     </g>
    </g>
    <g id="xtick_3">
     <g id="line2d_5">
      <path clip-path="url(#p8c91d6718b)" d="M 163.963352 224.64 
L 163.963352 7.2 
" style="fill:none;stroke:#b0b0b0;stroke-linecap:square;stroke-width:0.8;"/>
     </g>
     <g id="line2d_6">
      <g>
       <use style="fill:#808080;stroke:#808080;stroke-width:0.8;" x="163.963352" xlink:href="#m0514f8daef" y="224.64"/>
      </g>
     </g>
     <g id="text_3">
      <!-- 2 -->
      <defs>
       <path d="M 46.703125 51.59375 
Q 46.703125 48 45.25 44.640625 
Q 43.796875 41.296875 41.390625 38.046875 
Q 39 34.796875 36 31.640625 
Q 33 28.5 30 25.5 
Q 28.296875 23.796875 26.046875 21.5 
Q 23.796875 19.203125 21.796875 16.703125 
Q 19.796875 14.203125 18.4375 11.890625 
Q 17.09375 9.59375 17.09375 7.90625 
L 49 7.90625 
L 49 0 
L 7 0 
Q 6.90625 0.59375 6.90625 1.1875 
Q 6.90625 1.796875 6.90625 2.296875 
Q 6.90625 7 8.453125 11.046875 
Q 10 15.09375 12.5 18.6875 
Q 15 22.296875 18.09375 25.5 
Q 21.203125 28.703125 24.203125 31.703125 
Q 26.703125 34.09375 28.953125 36.4375 
Q 31.203125 38.796875 32.953125 41.140625 
Q 34.703125 43.5 35.75 46 
Q 36.796875 48.5 36.796875 51.296875 
Q 36.796875 54.296875 35.84375 56.390625 
Q 34.90625 58.5 33.296875 59.890625 
Q 31.703125 61.296875 29.546875 61.9375 
Q 27.40625 62.59375 25 62.59375 
Q 22.09375 62.59375 19.6875 61.796875 
Q 17.296875 61 15.390625 59.953125 
Q 13.5 58.90625 12.203125 57.75 
Q 10.90625 56.59375 10.203125 56 
L 5.59375 62.59375 
Q 6.5 63.59375 8.296875 65.046875 
Q 10.09375 66.5 12.59375 67.796875 
Q 15.09375 69.09375 18.1875 70 
Q 21.296875 70.90625 24.90625 70.90625 
Q 35.796875 70.90625 41.25 65.84375 
Q 46.703125 60.796875 46.703125 51.59375 
z
" id="Ubuntu-50"/>
      </defs>
      <g transform="translate(160.578977 243.05125)scale(0.12 -0.12)">
       <use xlink:href="#Ubuntu-50"/>
      </g>
     </g>
    </g>
    <g id="xtick_4">
     <g id="line2d_7">
      <path clip-path="url(#p8c91d6718b)" d="M 214.690625 224.64 
L 214.690625 7.2 
" style="fill:none;stroke:#b0b0b0;stroke-linecap:square;stroke-width:0.8;"/>
     </g>
     <g id="line2d_8">
      <g>
       <use style="fill:#808080;stroke:#808080;stroke-width:0.8;" x="214.690625" xlink:href="#m0514f8daef" y="224.64"/>
      </g>
     </g>
     <g id="text_4">
      <!-- 3 -->
      <defs>
       <path d="M 22.59375 6.796875 
Q 31.5 6.796875 35.34375 10.296875 
Q 39.203125 13.796875 39.203125 19.703125 
Q 39.203125 23.5 37.59375 26.09375 
Q 36 28.703125 33.390625 30.25 
Q 30.796875 31.796875 27.34375 32.4375 
Q 23.90625 33.09375 20.296875 33.09375 
L 17.90625 33.09375 
L 17.90625 40.703125 
L 21.203125 40.703125 
Q 23.703125 40.703125 26.34375 41.203125 
Q 29 41.703125 31.203125 43 
Q 33.40625 44.296875 34.796875 46.546875 
Q 36.203125 48.796875 36.203125 52.203125 
Q 36.203125 55 35.203125 57 
Q 34.203125 59 32.546875 60.296875 
Q 30.90625 61.59375 28.75 62.140625 
Q 26.59375 62.703125 24.203125 62.703125 
Q 19.40625 62.703125 16.046875 61.296875 
Q 12.703125 59.90625 10.40625 58.40625 
L 6.796875 65.5 
Q 8 66.296875 9.84375 67.25 
Q 11.703125 68.203125 14 69 
Q 16.296875 69.796875 18.9375 70.34375 
Q 21.59375 70.90625 24.5 70.90625 
Q 30 70.90625 34 69.546875 
Q 38 68.203125 40.59375 65.75 
Q 43.203125 63.296875 44.5 59.9375 
Q 45.796875 56.59375 45.796875 52.703125 
Q 45.796875 47.296875 42.6875 43.4375 
Q 39.59375 39.59375 35.203125 37.59375 
Q 37.90625 36.796875 40.40625 35.296875 
Q 42.90625 33.796875 44.75 31.5 
Q 46.59375 29.203125 47.75 26.203125 
Q 48.90625 23.203125 48.90625 19.5 
Q 48.90625 15 47.34375 11.140625 
Q 45.796875 7.296875 42.546875 4.5 
Q 39.296875 1.703125 34.390625 0.09375 
Q 29.5 -1.5 22.796875 -1.5 
Q 20.203125 -1.5 17.453125 -1.09375 
Q 14.703125 -0.703125 12.296875 -0.09375 
Q 9.90625 0.5 8.09375 1.09375 
Q 6.296875 1.703125 5.5 2.09375 
L 7.296875 10.203125 
Q 9 9.40625 12.953125 8.09375 
Q 16.90625 6.796875 22.59375 6.796875 
z
" id="Ubuntu-51"/>
      </defs>
      <g transform="translate(211.30625 243.05125)scale(0.12 -0.12)">
       <use xlink:href="#Ubuntu-51"/>
      </g>
     </g>
    </g>
    <g id="xtick_5">
     <g id="line2d_9">
      <path clip-path="url(#p8c91d6718b)" d="M 265.417898 224.64 
L 265.417898 7.2 
" style="fill:none;stroke:#b0b0b0;stroke-linecap:square;stroke-width:0.8;"/>
     </g>
     <g id="line2d_10">
      <g>
       <use style="fill:#808080;stroke:#808080;stroke-width:0.8;" x="265.417898" xlink:href="#m0514f8daef" y="224.64"/>
      </g>
     </g>
     <g id="text_5">
      <!-- 4 -->
      <defs>
       <path d="M 4 24 
Q 5.90625 28.40625 9.203125 34.25 
Q 12.5 40.09375 16.640625 46.296875 
Q 20.796875 52.5 25.546875 58.5 
Q 30.296875 64.5 35.09375 69.296875 
L 44 69.296875 
L 44 25.296875 
L 52.203125 25.296875 
L 52.203125 17.703125 
L 44 17.703125 
L 44 0 
L 35 0 
L 35 17.703125 
L 4 17.703125 
z
M 35 58.296875 
Q 32 55.09375 28.953125 51.140625 
Q 25.90625 47.203125 23 42.890625 
Q 20.09375 38.59375 17.546875 34.09375 
Q 15 29.59375 13 25.296875 
L 35 25.296875 
z
" id="Ubuntu-52"/>
      </defs>
      <g transform="translate(262.033523 243.05125)scale(0.12 -0.12)">
       <use xlink:href="#Ubuntu-52"/>
      </g>
     </g>
    </g>
    <g id="xtick_6">
     <g id="line2d_11">
      <path clip-path="url(#p8c91d6718b)" d="M 316.14517 224.64 
L 316.14517 7.2 
" style="fill:none;stroke:#b0b0b0;stroke-linecap:square;stroke-width:0.8;"/>
     </g>
     <g id="line2d_12">
      <g>
       <use style="fill:#808080;stroke:#808080;stroke-width:0.8;" x="316.14517" xlink:href="#m0514f8daef" y="224.64"/>
      </g>
     </g>
     <g id="text_6">
      <!-- 5 -->
      <defs>
       <path d="M 19.90625 42.59375 
Q 35 42 42.046875 36 
Q 49.09375 30 49.09375 19.703125 
Q 49.09375 15.09375 47.546875 11.1875 
Q 46 7.296875 42.84375 4.5 
Q 39.703125 1.703125 34.890625 0.09375 
Q 30.09375 -1.5 23.5 -1.5 
Q 20.90625 -1.5 18.203125 -1.09375 
Q 15.5 -0.703125 13.203125 -0.09375 
Q 10.90625 0.5 9.09375 1.09375 
Q 7.296875 1.703125 6.5 2.09375 
L 8.296875 10.203125 
Q 10 9.40625 13.84375 8.09375 
Q 17.703125 6.796875 23.296875 6.796875 
Q 27.796875 6.796875 30.84375 7.796875 
Q 33.90625 8.796875 35.796875 10.5 
Q 37.703125 12.203125 38.546875 14.453125 
Q 39.40625 16.703125 39.40625 19.203125 
Q 39.40625 23 38.09375 25.953125 
Q 36.796875 28.90625 33.5 30.90625 
Q 30.203125 32.90625 24.703125 33.953125 
Q 19.203125 35 10.796875 35 
Q 11.40625 39.90625 11.75 44.203125 
Q 12.09375 48.5 12.390625 52.59375 
Q 12.703125 56.703125 12.890625 60.75 
Q 13.09375 64.796875 13.296875 69.296875 
L 46.703125 69.296875 
L 46.703125 61.40625 
L 21.40625 61.40625 
Q 21.296875 59.90625 21.09375 57.34375 
Q 20.90625 54.796875 20.703125 52.046875 
Q 20.5 49.296875 20.296875 46.6875 
Q 20.09375 44.09375 19.90625 42.59375 
z
" id="Ubuntu-53"/>
      </defs>
      <g transform="translate(312.760795 243.05125)scale(0.12 -0.12)">
       <use xlink:href="#Ubuntu-53"/>
      </g>
     </g>
    </g>
    <g id="xtick_7">
     <g id="line2d_13">
      <path clip-path="url(#p8c91d6718b)" d="M 366.872443 224.64 
L 366.872443 7.2 
" style="fill:none;stroke:#b0b0b0;stroke-linecap:square;stroke-width:0.8;"/>
     </g>
     <g id="line2d_14">
      <g>
       <use style="fill:#808080;stroke:#808080;stroke-width:0.8;" x="366.872443" xlink:href="#m0514f8daef" y="224.64"/>
      </g>
     </g>
     <g id="text_7">
      <!-- 6 -->
      <defs>
       <path d="M 6.296875 27.796875 
Q 6.296875 37.90625 9.09375 45.65625 
Q 11.90625 53.40625 17.046875 58.703125 
Q 22.203125 64 29.546875 66.75 
Q 36.90625 69.5 46.09375 69.59375 
L 46.796875 61.796875 
Q 40.90625 61.703125 36.046875 60.5 
Q 31.203125 59.296875 27.390625 56.6875 
Q 23.59375 54.09375 21 49.9375 
Q 18.40625 45.796875 17.09375 39.703125 
Q 19.703125 40.90625 22.953125 41.703125 
Q 26.203125 42.5 29.703125 42.5 
Q 35.59375 42.5 39.6875 40.703125 
Q 43.796875 38.90625 46.390625 35.953125 
Q 49 33 50.140625 29.140625 
Q 51.296875 25.296875 51.296875 21.09375 
Q 51.296875 17.296875 50 13.296875 
Q 48.703125 9.296875 46.046875 6 
Q 43.40625 2.703125 39.296875 0.59375 
Q 35.203125 -1.5 29.59375 -1.5 
Q 18.203125 -1.5 12.25 6.296875 
Q 6.296875 14.09375 6.296875 27.796875 
z
M 28.703125 34.90625 
Q 25.203125 34.90625 22.203125 34.25 
Q 19.203125 33.59375 16.203125 32.296875 
Q 16.09375 31.203125 16.046875 30.046875 
Q 16 28.90625 16 27.796875 
Q 16 23.40625 16.59375 19.5 
Q 17.203125 15.59375 18.75 12.640625 
Q 20.296875 9.703125 22.890625 7.953125 
Q 25.5 6.203125 29.5 6.203125 
Q 32.796875 6.203125 35.09375 7.59375 
Q 37.40625 9 38.90625 11.203125 
Q 40.40625 13.40625 41.046875 15.953125 
Q 41.703125 18.5 41.703125 20.90625 
Q 41.703125 27.703125 38.453125 31.296875 
Q 35.203125 34.90625 28.703125 34.90625 
z
" id="Ubuntu-54"/>
      </defs>
      <g transform="translate(363.488068 243.05125)scale(0.12 -0.12)">
       <use xlink:href="#Ubuntu-54"/>
      </g>
     </g>
    </g>
    <g id="text_8">
     <!-- X -->
     <defs>
      <path d="M 50.203125 0 
Q 48.703125 3 46.59375 6.640625 
Q 44.5 10.296875 42 14.25 
Q 39.5 18.203125 36.796875 22.140625 
Q 34.09375 26.09375 31.59375 29.59375 
Q 29.09375 26.09375 26.390625 22.140625 
Q 23.703125 18.203125 21.25 14.25 
Q 18.796875 10.296875 16.640625 6.640625 
Q 14.5 3 13 0 
L 2.296875 0 
Q 6.796875 8.796875 12.75 17.890625 
Q 18.703125 27 25.40625 36.59375 
L 3.203125 69.296875 
L 14.40625 69.296875 
L 31.5 43.5 
L 48.40625 69.296875 
L 59.5 69.296875 
L 37.703125 37 
Q 44.5 27.296875 50.5 18.09375 
Q 56.5 8.90625 61.09375 0 
z
" id="Ubuntu-88"/>
     </defs>
     <g transform="translate(210.274063 260.134375)scale(0.14 -0.14)">
      <use xlink:href="#Ubuntu-88"/>
     </g>
    </g>
   </g>
   <g id="matplotlib.axis_2">
    <g id="ytick_1">
     <g id="line2d_15">
      <path clip-path="url(#p8c91d6718b)" d="M 47.290625 210.522385 
L 382.090625 210.522385 
" style="fill:none;stroke:#b0b0b0;stroke-linecap:square;stroke-width:0.8;"/>
     </g>
     <g id="line2d_16">
      <defs>
       <path d="M 0 0 
L -3.5 0 
" id="mac700e8350" style="stroke:#808080;stroke-width:0.8;"/>
      </defs>
      <g>
       <use style="fill:#808080;stroke:#808080;stroke-width:0.8;" x="47.290625" xlink:href="#mac700e8350" y="210.522385"/>
      </g>
     </g>
     <g id="text_9">
      <!-- 3 -->
      <g transform="translate(31.421875 215.17801)scale(0.12 -0.12)">
       <use xlink:href="#Ubuntu-51"/>
      </g>
     </g>
    </g>
    <g id="ytick_2">
     <g id="line2d_17">
      <path clip-path="url(#p8c91d6718b)" d="M 47.290625 182.899867 
L 382.090625 182.899867 
" style="fill:none;stroke:#b0b0b0;stroke-linecap:square;stroke-width:0.8;"/>
     </g>
     <g id="line2d_18">
      <g>
       <use style="fill:#808080;stroke:#808080;stroke-width:0.8;" x="47.290625" xlink:href="#mac700e8350" y="182.899867"/>
      </g>
     </g>
     <g id="text_10">
      <!-- 4 -->
      <g transform="translate(31.421875 187.555492)scale(0.12 -0.12)">
       <use xlink:href="#Ubuntu-52"/>
      </g>
     </g>
    </g>
    <g id="ytick_3">
     <g id="line2d_19">
      <path clip-path="url(#p8c91d6718b)" d="M 47.290625 155.27735 
L 382.090625 155.27735 
" style="fill:none;stroke:#b0b0b0;stroke-linecap:square;stroke-width:0.8;"/>
     </g>
     <g id="line2d_20">
      <g>
       <use style="fill:#808080;stroke:#808080;stroke-width:0.8;" x="47.290625" xlink:href="#mac700e8350" y="155.27735"/>
      </g>
     </g>
     <g id="text_11">
      <!-- 5 -->
      <g transform="translate(31.421875 159.932975)scale(0.12 -0.12)">
       <use xlink:href="#Ubuntu-53"/>
      </g>
     </g>
    </g>
    <g id="ytick_4">
     <g id="line2d_21">
      <path clip-path="url(#p8c91d6718b)" d="M 47.290625 127.654832 
L 382.090625 127.654832 
" style="fill:none;stroke:#b0b0b0;stroke-linecap:square;stroke-width:0.8;"/>
     </g>
     <g id="line2d_22">
      <g>
       <use style="fill:#808080;stroke:#808080;stroke-width:0.8;" x="47.290625" xlink:href="#mac700e8350" y="127.654832"/>
      </g>
     </g>
     <g id="text_12">
      <!-- 6 -->
      <g transform="translate(31.421875 132.310457)scale(0.12 -0.12)">
       <use xlink:href="#Ubuntu-54"/>
      </g>
     </g>
    </g>
    <g id="ytick_5">
     <g id="line2d_23">
      <path clip-path="url(#p8c91d6718b)" d="M 47.290625 100.032314 
L 382.090625 100.032314 
" style="fill:none;stroke:#b0b0b0;stroke-linecap:square;stroke-width:0.8;"/>
     </g>
     <g id="line2d_24">
      <g>
       <use style="fill:#808080;stroke:#808080;stroke-width:0.8;" x="47.290625" xlink:href="#mac700e8350" y="100.032314"/>
      </g>
     </g>
     <g id="text_13">
      <!-- 7 -->
      <defs>
       <path d="M 16.296875 0 
Q 16.90625 8 19.15625 16.84375 
Q 21.40625 25.703125 24.703125 34.046875 
Q 28 42.40625 31.953125 49.546875 
Q 35.90625 56.703125 39.703125 61.203125 
L 6 61.203125 
L 6 69.296875 
L 50.09375 69.296875 
L 50.09375 61.59375 
Q 46.796875 57.796875 42.796875 51.140625 
Q 38.796875 44.5 35.25 36.25 
Q 31.703125 28 29.140625 18.640625 
Q 26.59375 9.296875 26 0 
z
" id="Ubuntu-55"/>
      </defs>
      <g transform="translate(31.421875 104.687939)scale(0.12 -0.12)">
       <use xlink:href="#Ubuntu-55"/>
      </g>
     </g>
    </g>
    <g id="ytick_6">
     <g id="line2d_25">
      <path clip-path="url(#p8c91d6718b)" d="M 47.290625 72.409796 
L 382.090625 72.409796 
" style="fill:none;stroke:#b0b0b0;stroke-linecap:square;stroke-width:0.8;"/>
     </g>
     <g id="line2d_26">
      <g>
       <use style="fill:#808080;stroke:#808080;stroke-width:0.8;" x="47.290625" xlink:href="#mac700e8350" y="72.409796"/>
      </g>
     </g>
     <g id="text_14">
      <!-- 8 -->
      <defs>
       <path d="M 50.90625 18 
Q 50.90625 13.796875 49.453125 10.25 
Q 48 6.703125 45.140625 4.046875 
Q 42.296875 1.40625 38 -0.046875 
Q 33.703125 -1.5 28.09375 -1.5 
Q 21.59375 -1.5 17.25 0.34375 
Q 12.90625 2.203125 10.296875 5 
Q 7.703125 7.796875 6.59375 11.140625 
Q 5.5 14.5 5.5 17.5 
Q 5.5 20.40625 6.453125 23.046875 
Q 7.40625 25.703125 8.953125 28 
Q 10.5 30.296875 12.546875 32.140625 
Q 14.59375 34 16.90625 35.40625 
Q 7.09375 41 7.09375 51.90625 
Q 7.09375 55.703125 8.59375 59.140625 
Q 10.09375 62.59375 12.84375 65.1875 
Q 15.59375 67.796875 19.5 69.34375 
Q 23.40625 70.90625 28.203125 70.90625 
Q 33.796875 70.90625 37.796875 69.203125 
Q 41.796875 67.5 44.34375 64.84375 
Q 46.90625 62.203125 48.046875 59 
Q 49.203125 55.796875 49.203125 52.796875 
Q 49.203125 49.90625 48.34375 47.34375 
Q 47.5 44.796875 46.046875 42.59375 
Q 44.59375 40.40625 42.75 38.703125 
Q 40.90625 37 38.90625 35.703125 
Q 50.703125 30.09375 50.90625 18 
z
M 14.90625 17.40625 
Q 14.90625 15.59375 15.546875 13.640625 
Q 16.203125 11.703125 17.796875 10.046875 
Q 19.40625 8.40625 21.90625 7.296875 
Q 24.40625 6.203125 28.203125 6.203125 
Q 31.59375 6.203125 34.140625 7.203125 
Q 36.703125 8.203125 38.296875 9.75 
Q 39.90625 11.296875 40.703125 13.296875 
Q 41.5 15.296875 41.5 17.40625 
Q 41.5 20.59375 40.296875 23 
Q 39.09375 25.40625 36.84375 27.203125 
Q 34.59375 29 31.4375 30.25 
Q 28.296875 31.5 24.296875 32.40625 
Q 19.796875 29.90625 17.34375 26.203125 
Q 14.90625 22.5 14.90625 17.40625 
z
M 39.90625 52.90625 
Q 39.90625 54.40625 39.25 56.203125 
Q 38.59375 58 37.1875 59.546875 
Q 35.796875 61.09375 33.59375 62.140625 
Q 31.40625 63.203125 28.203125 63.203125 
Q 25 63.203125 22.75 62.203125 
Q 20.5 61.203125 19.09375 59.640625 
Q 17.703125 58.09375 17.046875 56.25 
Q 16.40625 54.40625 16.40625 52.59375 
Q 16.40625 50.40625 17.203125 48.203125 
Q 18 46 19.703125 44.09375 
Q 21.40625 42.203125 24.15625 40.703125 
Q 26.90625 39.203125 30.703125 38.296875 
Q 34.90625 40.796875 37.40625 44.140625 
Q 39.90625 47.5 39.90625 52.90625 
z
" id="Ubuntu-56"/>
      </defs>
      <g transform="translate(31.421875 77.065421)scale(0.12 -0.12)">
       <use xlink:href="#Ubuntu-56"/>
      </g>
     </g>
    </g>
    <g id="ytick_7">
     <g id="line2d_27">
      <path clip-path="url(#p8c91d6718b)" d="M 47.290625 44.787278 
L 382.090625 44.787278 
" style="fill:none;stroke:#b0b0b0;stroke-linecap:square;stroke-width:0.8;"/>
     </g>
     <g id="line2d_28">
      <g>
       <use style="fill:#808080;stroke:#808080;stroke-width:0.8;" x="47.290625" xlink:href="#mac700e8350" y="44.787278"/>
      </g>
     </g>
     <g id="text_15">
      <!-- 9 -->
      <defs>
       <path d="M 50.09375 41.59375 
Q 50.09375 21 39.84375 10.453125 
Q 29.59375 -0.09375 9.40625 -0.203125 
L 9.09375 7.59375 
Q 15.40625 7.59375 20.453125 8.796875 
Q 25.5 10 29.296875 12.640625 
Q 33.09375 15.296875 35.640625 19.5 
Q 38.203125 23.703125 39.40625 29.796875 
Q 36.796875 28.59375 33.5 27.84375 
Q 30.203125 27.09375 26.703125 27.09375 
Q 20.796875 27.09375 16.6875 28.84375 
Q 12.59375 30.59375 10 33.546875 
Q 7.40625 36.5 6.25 40.34375 
Q 5.09375 44.203125 5.09375 48.40625 
Q 5.09375 52.09375 6.390625 56.09375 
Q 7.703125 60.09375 10.34375 63.390625 
Q 13 66.703125 17.09375 68.796875 
Q 21.203125 70.90625 26.796875 70.90625 
Q 32.5 70.90625 36.84375 68.90625 
Q 41.203125 66.90625 44.140625 63.09375 
Q 47.09375 59.296875 48.59375 53.84375 
Q 50.09375 48.40625 50.09375 41.59375 
z
M 27.703125 34.703125 
Q 31.203125 34.703125 34.296875 35.34375 
Q 37.40625 36 40.296875 37.296875 
Q 40.40625 38.40625 40.40625 39.453125 
Q 40.40625 40.5 40.40625 41.59375 
Q 40.40625 45.90625 39.796875 49.84375 
Q 39.203125 53.796875 37.640625 56.75 
Q 36.09375 59.703125 33.5 61.453125 
Q 30.90625 63.203125 26.90625 63.203125 
Q 23.59375 63.203125 21.296875 61.796875 
Q 19 60.40625 17.5 58.25 
Q 16 56.09375 15.34375 53.546875 
Q 14.703125 51 14.703125 48.59375 
Q 14.703125 41.796875 17.953125 38.25 
Q 21.203125 34.703125 27.703125 34.703125 
z
" id="Ubuntu-57"/>
      </defs>
      <g transform="translate(31.421875 49.442903)scale(0.12 -0.12)">
       <use xlink:href="#Ubuntu-57"/>
      </g>
     </g>
    </g>
    <g id="ytick_8">
     <g id="line2d_29">
      <path clip-path="url(#p8c91d6718b)" d="M 47.290625 17.16476 
L 382.090625 17.16476 
" style="fill:none;stroke:#b0b0b0;stroke-linecap:square;stroke-width:0.8;"/>
     </g>
     <g id="line2d_30">
      <g>
       <use style="fill:#808080;stroke:#808080;stroke-width:0.8;" x="47.290625" xlink:href="#mac700e8350" y="17.16476"/>
      </g>
     </g>
     <g id="text_16">
      <!-- 10 -->
      <g transform="translate(24.653125 21.820385)scale(0.12 -0.12)">
       <use xlink:href="#Ubuntu-49"/>
       <use x="56.399994" xlink:href="#Ubuntu-48"/>
      </g>
     </g>
    </g>
    <g id="text_17">
     <!-- Gold content -->
     <defs>
      <path d="M 50.90625 34.09375 
L 60.59375 34.09375 
L 60.59375 1.703125 
Q 59.40625 1.296875 57.15625 0.796875 
Q 54.90625 0.296875 51.953125 -0.203125 
Q 49 -0.703125 45.5 -1.046875 
Q 42 -1.40625 38.40625 -1.40625 
Q 31.09375 -1.40625 25.09375 1 
Q 19.09375 3.40625 14.796875 8 
Q 10.5 12.59375 8.140625 19.296875 
Q 5.796875 26 5.796875 34.703125 
Q 5.796875 43.40625 8.4375 50.15625 
Q 11.09375 56.90625 15.59375 61.5 
Q 20.09375 66.09375 26.140625 68.5 
Q 32.203125 70.90625 39.09375 70.90625 
Q 43.796875 70.90625 47.4375 70.296875 
Q 51.09375 69.703125 53.6875 68.890625 
Q 56.296875 68.09375 57.9375 67.296875 
Q 59.59375 66.5 60.203125 66.09375 
L 57.09375 58 
Q 54.203125 59.90625 49.390625 61.15625 
Q 44.59375 62.40625 39.59375 62.40625 
Q 34.296875 62.40625 29.9375 60.5 
Q 25.59375 58.59375 22.546875 55 
Q 19.5 51.40625 17.796875 46.25 
Q 16.09375 41.09375 16.09375 34.703125 
Q 16.09375 28.5 17.546875 23.390625 
Q 19 18.296875 21.953125 14.640625 
Q 24.90625 11 29.25 9 
Q 33.59375 7 39.5 7 
Q 43.703125 7 46.640625 7.453125 
Q 49.59375 7.90625 50.90625 8.296875 
z
" id="Ubuntu-71"/>
      <path d="M 53.90625 26 
Q 53.90625 19.796875 52.09375 14.796875 
Q 50.296875 9.796875 47.046875 6.1875 
Q 43.796875 2.59375 39.296875 0.640625 
Q 34.796875 -1.296875 29.5 -1.296875 
Q 24.203125 -1.296875 19.703125 0.640625 
Q 15.203125 2.59375 11.953125 6.1875 
Q 8.703125 9.796875 6.890625 14.796875 
Q 5.09375 19.796875 5.09375 26 
Q 5.09375 32.09375 6.890625 37.140625 
Q 8.703125 42.203125 11.953125 45.796875 
Q 15.203125 49.40625 19.703125 51.34375 
Q 24.203125 53.296875 29.5 53.296875 
Q 34.796875 53.296875 39.296875 51.34375 
Q 43.796875 49.40625 47.046875 45.796875 
Q 50.296875 42.203125 52.09375 37.140625 
Q 53.90625 32.09375 53.90625 26 
z
M 44.203125 26 
Q 44.203125 34.796875 40.25 39.9375 
Q 36.296875 45.09375 29.5 45.09375 
Q 22.703125 45.09375 18.75 39.9375 
Q 14.796875 34.796875 14.796875 26 
Q 14.796875 17.203125 18.75 12.046875 
Q 22.703125 6.90625 29.5 6.90625 
Q 36.296875 6.90625 40.25 12.046875 
Q 44.203125 17.203125 44.203125 26 
z
" id="Ubuntu-111"/>
      <path d="M 23.59375 -1 
Q 15 -0.796875 11.390625 2.703125 
Q 7.796875 6.203125 7.796875 13.59375 
L 7.796875 76 
L 17.09375 77.59375 
L 17.09375 15.09375 
Q 17.09375 12.796875 17.5 11.296875 
Q 17.90625 9.796875 18.796875 8.890625 
Q 19.703125 8 21.203125 7.546875 
Q 22.703125 7.09375 24.90625 6.796875 
z
" id="Ubuntu-108"/>
      <path d="M 41.59375 41 
Q 39.90625 42.40625 36.703125 43.703125 
Q 33.5 45 29.703125 45 
Q 25.703125 45 22.84375 43.546875 
Q 20 42.09375 18.203125 39.546875 
Q 16.40625 37 15.59375 33.5 
Q 14.796875 30 14.796875 26 
Q 14.796875 16.90625 19.296875 11.953125 
Q 23.796875 7 31.296875 7 
Q 35.09375 7 37.640625 7.34375 
Q 40.203125 7.703125 41.59375 8.09375 
z
M 41.59375 76 
L 50.90625 77.59375 
L 50.90625 1.5 
Q 47.703125 0.59375 42.703125 -0.296875 
Q 37.703125 -1.203125 31.203125 -1.203125 
Q 25.203125 -1.203125 20.390625 0.6875 
Q 15.59375 2.59375 12.1875 6.09375 
Q 8.796875 9.59375 6.9375 14.640625 
Q 5.09375 19.703125 5.09375 26 
Q 5.09375 32 6.640625 37 
Q 8.203125 42 11.203125 45.59375 
Q 14.203125 49.203125 18.546875 51.203125 
Q 22.90625 53.203125 28.5 53.203125 
Q 33 53.203125 36.453125 52 
Q 39.90625 50.796875 41.59375 49.703125 
z
" id="Ubuntu-100"/>
      <path id="Ubuntu-32"/>
      <path d="M 30.59375 -1.203125 
Q 24.296875 -1.203125 19.546875 0.796875 
Q 14.796875 2.796875 11.546875 6.390625 
Q 8.296875 10 6.6875 14.953125 
Q 5.09375 19.90625 5.09375 25.90625 
Q 5.09375 31.90625 6.84375 36.90625 
Q 8.59375 41.90625 11.796875 45.546875 
Q 15 49.203125 19.640625 51.25 
Q 24.296875 53.296875 30 53.296875 
Q 33.5 53.296875 37 52.6875 
Q 40.5 52.09375 43.703125 50.796875 
L 41.59375 42.90625 
Q 39.5 43.90625 36.75 44.5 
Q 34 45.09375 30.90625 45.09375 
Q 23.09375 45.09375 18.9375 40.1875 
Q 14.796875 35.296875 14.796875 25.90625 
Q 14.796875 21.703125 15.75 18.203125 
Q 16.703125 14.703125 18.75 12.203125 
Q 20.796875 9.703125 24 8.34375 
Q 27.203125 7 31.796875 7 
Q 35.5 7 38.5 7.703125 
Q 41.5 8.40625 43.203125 9.203125 
L 44.5 1.40625 
Q 43.703125 0.90625 42.203125 0.453125 
Q 40.703125 0 38.796875 -0.34375 
Q 36.90625 -0.703125 34.75 -0.953125 
Q 32.59375 -1.203125 30.59375 -1.203125 
z
" id="Ubuntu-99"/>
      <path d="M 8 50.5 
Q 11.203125 51.296875 16.5 52.1875 
Q 21.796875 53.09375 28.703125 53.09375 
Q 34.90625 53.09375 39 51.34375 
Q 43.09375 49.59375 45.546875 46.4375 
Q 48 43.296875 49 38.890625 
Q 50 34.5 50 29.203125 
L 50 0 
L 40.703125 0 
L 40.703125 27.203125 
Q 40.703125 32 40.046875 35.390625 
Q 39.40625 38.796875 37.90625 40.890625 
Q 36.40625 43 33.90625 43.953125 
Q 31.40625 44.90625 27.703125 44.90625 
Q 26.203125 44.90625 24.59375 44.796875 
Q 23 44.703125 21.546875 44.546875 
Q 20.09375 44.40625 18.9375 44.203125 
Q 17.796875 44 17.296875 43.90625 
L 17.296875 0 
L 8 0 
z
" id="Ubuntu-110"/>
      <path d="M 16.703125 52 
L 36.40625 52 
L 36.40625 44.203125 
L 16.703125 44.203125 
L 16.703125 20.203125 
Q 16.703125 16.296875 17.296875 13.75 
Q 17.90625 11.203125 19.09375 9.75 
Q 20.296875 8.296875 22.09375 7.6875 
Q 23.90625 7.09375 26.296875 7.09375 
Q 30.5 7.09375 33.046875 8.046875 
Q 35.59375 9 36.59375 9.40625 
L 38.40625 1.703125 
Q 37 1 33.5 -0.046875 
Q 30 -1.09375 25.5 -1.09375 
Q 20.203125 -1.09375 16.75 0.25 
Q 13.296875 1.59375 11.1875 4.296875 
Q 9.09375 7 8.25 10.953125 
Q 7.40625 14.90625 7.40625 20.09375 
L 7.40625 66.5 
L 16.703125 68.09375 
z
" id="Ubuntu-116"/>
      <path d="M 5.09375 25.90625 
Q 5.09375 32.796875 7.09375 37.9375 
Q 9.09375 43.09375 12.390625 46.5 
Q 15.703125 49.90625 20 51.59375 
Q 24.296875 53.296875 28.796875 53.296875 
Q 39.296875 53.296875 44.890625 46.75 
Q 50.5 40.203125 50.5 26.796875 
Q 50.5 26.203125 50.5 25.25 
Q 50.5 24.296875 50.40625 23.5 
L 14.796875 23.5 
Q 15.40625 15.40625 19.5 11.203125 
Q 23.59375 7 32.296875 7 
Q 37.203125 7 40.546875 7.84375 
Q 43.90625 8.703125 45.59375 9.5 
L 46.90625 1.703125 
Q 45.203125 0.796875 40.953125 -0.203125 
Q 36.703125 -1.203125 31.296875 -1.203125 
Q 24.5 -1.203125 19.546875 0.84375 
Q 14.59375 2.90625 11.390625 6.5 
Q 8.203125 10.09375 6.640625 15.046875 
Q 5.09375 20 5.09375 25.90625 
z
M 40.796875 31 
Q 40.90625 37.296875 37.65625 41.34375 
Q 34.40625 45.40625 28.703125 45.40625 
Q 25.5 45.40625 23.046875 44.15625 
Q 20.59375 42.90625 18.890625 40.90625 
Q 17.203125 38.90625 16.25 36.296875 
Q 15.296875 33.703125 15 31 
z
" id="Ubuntu-101"/>
     </defs>
     <g transform="translate(18.063125 157.366562)rotate(-90)scale(0.14 -0.14)">
      <use xlink:href="#Ubuntu-71"/>
      <use x="67.199997" xlink:href="#Ubuntu-111"/>
      <use x="126.199982" xlink:href="#Ubuntu-108"/>
      <use x="153.499969" xlink:href="#Ubuntu-100"/>
      <use x="212.399963" xlink:href="#Ubuntu-32"/>
      <use x="235.499954" xlink:href="#Ubuntu-99"/>
      <use x="281.984314" xlink:href="#Ubuntu-111"/>
      <use x="340.984299" xlink:href="#Ubuntu-110"/>
      <use x="398.384293" xlink:href="#Ubuntu-116"/>
      <use x="438.568665" xlink:href="#Ubuntu-101"/>
      <use x="494.468658" xlink:href="#Ubuntu-110"/>
      <use x="551.868652" xlink:href="#Ubuntu-116"/>
     </g>
    </g>
   </g>
   <g id="line2d_31">
    <path clip-path="url(#p8c91d6718b)" d="M 62.508807 149.729864 
L 73.687438 148.988129 
L 81.817351 148.660994 
L 88.931026 148.585164 
L 96.0447 148.72364 
L 104.174613 149.107559 
L 114.845125 149.853898 
L 154.986573 152.888276 
L 169.213921 153.631042 
L 184.965629 154.222103 
L 202.749815 154.659013 
L 225.107077 154.973325 
L 256.102372 155.169597 
L 311.487408 155.262186 
L 366.872443 155.275405 
L 366.872443 155.275405 
" style="fill:none;stroke:#000000;stroke-linecap:square;stroke-width:2.7;"/>
   </g>
   <g id="line2d_32">
    <path clip-path="url(#p8c91d6718b)" d="M 62.508807 214.756364 
L 66.573764 201.564259 
L 70.130601 190.773035 
L 73.687438 180.72423 
L 76.736155 172.726609 
L 79.784873 165.315075 
L 82.833591 158.502923 
L 85.882308 152.300006 
L 88.422906 147.601033 
L 90.963504 143.331565 
L 93.504102 139.491879 
L 96.0447 136.080642 
L 98.585298 133.09494 
L 100.617776 131.009817 
L 102.650255 129.191224 
L 104.682733 127.635572 
L 106.715211 126.338678 
L 108.74769 125.295785 
L 110.780168 124.501576 
L 112.812647 123.950195 
L 114.845125 123.635265 
L 116.877603 123.54991 
L 118.910082 123.686773 
L 120.94256 124.038043 
L 122.975038 124.595476 
L 125.007517 125.350417 
L 127.548115 126.558037 
L 130.088713 128.041685 
L 132.629311 129.782135 
L 135.678028 132.181538 
L 138.726746 134.886369 
L 142.283583 138.379008 
L 145.84042 142.177617 
L 150.413496 147.41309 
L 156.002812 154.171391 
L 171.2464 172.7939 
L 175.819476 177.938227 
L 179.884433 182.171959 
L 183.44127 185.555409 
L 186.489988 188.181415 
L 189.538705 190.527157 
L 192.587423 192.569135 
L 195.128021 194.023419 
L 197.668619 195.241114 
L 200.209217 196.212538 
L 202.749815 196.929279 
L 205.290413 197.384234 
L 207.83101 197.57163 
L 210.371608 197.487048 
L 212.912206 197.12744 
L 215.452804 196.491141 
L 217.993402 195.577871 
L 220.534 194.388743 
L 223.074598 192.926253 
L 225.615196 191.194273 
L 228.155794 189.198036 
L 230.696392 186.944117 
L 233.74511 183.910476 
L 236.793827 180.533279 
L 239.842545 176.831184 
L 243.399382 172.129765 
L 246.956219 167.052596 
L 251.021176 160.843694 
L 255.594252 153.422556 
L 261.183568 143.875315 
L 269.313481 129.46386 
L 278.967754 112.41227 
L 284.048949 103.850841 
L 288.622026 96.583322 
L 292.178863 91.303383 
L 295.7357 86.414307 
L 298.784418 82.578272 
L 301.833135 79.106333 
L 304.373733 76.515281 
L 306.914331 74.218689 
L 309.454929 72.234114 
L 311.995527 70.578159 
L 314.028005 69.500507 
L 316.060484 68.650634 
L 318.092962 68.035539 
L 320.125441 67.661726 
L 322.157919 67.535183 
L 324.190397 67.661364 
L 326.222876 68.045166 
L 328.255354 68.690918 
L 330.287832 69.60236 
L 332.320311 70.782628 
L 334.352789 72.234245 
L 336.385268 73.9591 
L 338.417746 75.958446 
L 340.450224 78.232882 
L 342.990822 81.462622 
L 345.53142 85.120475 
L 348.072018 89.20322 
L 350.612616 93.705983 
L 353.153214 98.622232 
L 356.201932 105.055882 
L 359.250649 112.055776 
L 362.299367 119.601221 
L 365.856204 129.061502 
L 366.872443 131.88881 
L 366.872443 131.88881 
" style="fill:none;stroke:#800080;stroke-linecap:square;stroke-width:2.7;"/>
   </g>
   <g id="line2d_33">
    <path clip-path="url(#p8c91d6718b)" d="M 62.508807 106.453581 
L 68.098122 120.310269 
L 71.14684 127.366991 
L 73.687438 132.767752 
L 75.719916 136.674436 
L 77.752395 140.135798 
L 79.784873 143.082681 
L 81.309232 144.916316 
L 82.833591 146.399988 
L 84.357949 147.512754 
L 85.374189 148.040079 
L 86.390428 148.39129 
L 87.406667 148.563801 
L 88.422906 148.556292 
L 89.439145 148.36882 
L 90.455384 148.002817 
L 91.471624 147.46097 
L 92.995982 146.327116 
L 94.520341 144.823418 
L 96.0447 142.971025 
L 97.569059 140.794384 
L 99.601537 137.434624 
L 101.634015 133.614864 
L 104.174613 128.301749 
L 107.223331 121.320041 
L 111.288288 111.359303 
L 122.466919 83.599408 
L 126.023756 75.455327 
L 129.580593 67.878946 
L 132.629311 61.888832 
L 135.678028 56.387193 
L 138.726746 51.379525 
L 141.775463 46.858745 
L 144.316061 43.451526 
L 146.856659 40.357438 
L 149.397257 37.560505 
L 151.937855 35.043061 
L 154.986573 32.364694 
L 158.03529 30.028724 
L 161.084008 28.002109 
L 164.132725 26.252712 
L 167.181443 24.749892 
L 170.73828 23.270021 
L 174.295117 22.044805 
L 178.360074 20.9082 
L 182.425031 20.005575 
L 186.998107 19.217056 
L 192.079303 18.563671 
L 198.176738 18.013177 
L 205.290413 17.599825 
L 214.436565 17.302296 
L 227.139555 17.129705 
L 249.496817 17.085923 
L 366.872443 17.162827 
L 366.872443 17.162827 
" style="fill:none;stroke:#008000;stroke-linecap:square;stroke-width:2.7;"/>
   </g>
   <g id="patch_3">
    <path d="M 47.290625 224.64 
L 47.290625 7.2 
" style="fill:none;stroke:#808080;stroke-linecap:square;stroke-linejoin:miter;stroke-width:0.5;"/>
   </g>
   <g id="patch_4">
    <path d="M 47.290625 224.64 
L 382.090625 224.64 
" style="fill:none;stroke:#808080;stroke-linecap:square;stroke-linejoin:miter;stroke-width:0.5;"/>
   </g>
   <g id="legend_1">
    <g id="patch_5">
     <path d="M 405.282625 121.870937 
L 577.63575 121.870937 
Q 580.43575 121.870937 580.43575 119.070937 
L 580.43575 17 
Q 580.43575 14.2 577.63575 14.2 
L 405.282625 14.2 
Q 402.482625 14.2 402.482625 17 
L 402.482625 119.070937 
Q 402.482625 121.870937 405.282625 121.870937 
z
" style="fill:#ffffff;opacity:0.8;stroke:#cccccc;stroke-linejoin:miter;stroke-width:0.24;"/>
    </g>
    <g id="line2d_34">
     <path d="M 408.082625 25.96 
L 436.082625 25.96 
" style="fill:none;stroke:#000000;stroke-linecap:square;stroke-width:2.7;"/>
    </g>
    <g id="line2d_35"/>
    <g id="text_18">
     <!-- Predicted ($\mu$) -->
     <defs>
      <path d="M 27 70 
Q 41.59375 70 49.4375 64.453125 
Q 57.296875 58.90625 57.296875 47.90625 
Q 57.296875 41.90625 55.140625 37.65625 
Q 53 33.40625 48.953125 30.75 
Q 44.90625 28.09375 39.09375 26.890625 
Q 33.296875 25.703125 26 25.703125 
L 18.296875 25.703125 
L 18.296875 0 
L 8.59375 0 
L 8.59375 68.296875 
Q 12.703125 69.296875 17.75 69.640625 
Q 22.796875 70 27 70 
z
M 27.796875 61.5 
Q 21.59375 61.5 18.296875 61.203125 
L 18.296875 34 
L 25.59375 34 
Q 30.59375 34 34.59375 34.640625 
Q 38.59375 35.296875 41.34375 36.84375 
Q 44.09375 38.40625 45.59375 41.09375 
Q 47.09375 43.796875 47.09375 48 
Q 47.09375 52 45.546875 54.59375 
Q 44 57.203125 41.34375 58.75 
Q 38.703125 60.296875 35.203125 60.890625 
Q 31.703125 61.5 27.796875 61.5 
z
" id="Ubuntu-80"/>
      <path d="M 27.203125 53.09375 
Q 28.40625 53.09375 29.953125 52.9375 
Q 31.5 52.796875 33 52.546875 
Q 34.5 52.296875 35.75 52.046875 
Q 37 51.796875 37.59375 51.59375 
L 36 43.5 
Q 34.90625 43.90625 32.34375 44.453125 
Q 29.796875 45 25.796875 45 
Q 23.203125 45 20.640625 44.453125 
Q 18.09375 43.90625 17.296875 43.703125 
L 17.296875 0 
L 8 0 
L 8 49.796875 
Q 11.296875 51 16.1875 52.046875 
Q 21.09375 53.09375 27.203125 53.09375 
z
" id="Ubuntu-114"/>
      <path d="M 17.296875 0 
L 8 0 
L 8 52 
L 17.296875 52 
z
M 12.59375 61.40625 
Q 10.09375 61.40625 8.34375 63.046875 
Q 6.59375 64.703125 6.59375 67.5 
Q 6.59375 70.296875 8.34375 71.9375 
Q 10.09375 73.59375 12.59375 73.59375 
Q 15.09375 73.59375 16.84375 71.9375 
Q 18.59375 70.296875 18.59375 67.5 
Q 18.59375 64.703125 16.84375 63.046875 
Q 15.09375 61.40625 12.59375 61.40625 
z
" id="Ubuntu-105"/>
      <path d="M 17.09375 29.90625 
Q 17.09375 17.09375 20.796875 6.1875 
Q 24.5 -4.703125 31.703125 -14 
L 25.09375 -18.5 
Q 17.296875 -9 12.546875 3.34375 
Q 7.796875 15.703125 7.796875 29.90625 
Q 7.796875 44.09375 12.546875 56.4375 
Q 17.296875 68.796875 25.09375 78.296875 
L 31.703125 73.796875 
Q 24.5 64.5 20.796875 53.59375 
Q 17.09375 42.703125 17.09375 29.90625 
z
" id="Ubuntu-40"/>
      <path d="M -1.3125 -20.796875 
L 13.375 54.6875 
L 22.40625 54.6875 
L 15.765625 20.65625 
Q 15.578125 19.625 15.421875 18.359375 
Q 15.28125 17.09375 15.28125 15.828125 
Q 15.28125 11.28125 18.140625 8.828125 
Q 21 6.390625 26.3125 6.390625 
Q 33.546875 6.390625 37.984375 10.484375 
Q 42.4375 14.59375 44 22.796875 
L 50.203125 54.6875 
L 59.1875 54.6875 
L 51.03125 12.640625 
Q 50.828125 11.71875 50.75 11.03125 
Q 50.6875 10.359375 50.6875 9.8125 
Q 50.6875 8.296875 51.296875 7.59375 
Q 51.90625 6.890625 53.21875 6.890625 
Q 53.71875 6.890625 54.5625 7.125 
Q 55.421875 7.375 56.984375 8.015625 
L 55.609375 0.78125 
Q 53.46875 -0.296875 51.515625 -0.859375 
Q 49.5625 -1.421875 47.703125 -1.421875 
Q 44.484375 -1.421875 42.65625 0.625 
Q 40.828125 2.6875 40.828125 6.296875 
Q 38.09375 2.390625 34.296875 0.484375 
Q 30.515625 -1.421875 25.390625 -1.421875 
Q 20.84375 -1.421875 17.453125 0.671875 
Q 14.0625 2.78125 12.984375 6.203125 
L 7.71875 -20.796875 
z
" id="DejaVuSans-Oblique-956"/>
      <path d="M 15.296875 29.90625 
Q 15.296875 42.703125 11.59375 53.59375 
Q 7.90625 64.5 0.703125 73.796875 
L 7.296875 78.296875 
Q 15.09375 68.796875 19.84375 56.4375 
Q 24.59375 44.09375 24.59375 29.90625 
Q 24.59375 15.703125 19.84375 3.34375 
Q 15.09375 -9 7.296875 -18.5 
L 0.703125 -14 
Q 7.90625 -4.703125 11.59375 6.1875 
Q 15.296875 17.09375 15.296875 29.90625 
z
" id="Ubuntu-41"/>
     </defs>
     <g transform="translate(447.282625 30.86)scale(0.14 -0.14)">
      <use transform="translate(0 0.703125)" xlink:href="#Ubuntu-80"/>
      <use transform="translate(60.799988 0.703125)" xlink:href="#Ubuntu-114"/>
      <use transform="translate(99.399979 0.703125)" xlink:href="#Ubuntu-101"/>
      <use transform="translate(155.299973 0.703125)" xlink:href="#Ubuntu-100"/>
      <use transform="translate(214.199966 0.703125)" xlink:href="#Ubuntu-105"/>
      <use transform="translate(239.499954 0.703125)" xlink:href="#Ubuntu-99"/>
      <use transform="translate(285.999939 0.703125)" xlink:href="#Ubuntu-116"/>
      <use transform="translate(326.199936 0.703125)" xlink:href="#Ubuntu-101"/>
      <use transform="translate(382.09993 0.703125)" xlink:href="#Ubuntu-100"/>
      <use transform="translate(440.999924 0.703125)" xlink:href="#Ubuntu-32"/>
      <use transform="translate(464.099915 0.703125)" xlink:href="#Ubuntu-40"/>
      <use transform="translate(496.499908 0.703125)" xlink:href="#DejaVuSans-Oblique-956"/>
      <use transform="translate(560.122955 0.703125)" xlink:href="#Ubuntu-41"/>
     </g>
    </g>
    <g id="line2d_36">
     <path d="M 408.082625 46.96 
L 436.082625 46.96 
" style="fill:none;stroke:#800080;stroke-linecap:square;stroke-width:2.7;"/>
    </g>
    <g id="line2d_37"/>
    <g id="text_19">
     <!-- GT ($f$) -->
     <defs>
      <path d="M 54.90625 69.296875 
L 54.90625 60.90625 
L 33.09375 60.90625 
L 33.09375 0 
L 23.40625 0 
L 23.40625 60.90625 
L 1.59375 60.90625 
L 1.59375 69.296875 
z
" id="Ubuntu-84"/>
      <path d="M 47.796875 75.984375 
L 46.390625 68.5 
L 37.796875 68.5 
Q 32.90625 68.5 30.6875 66.578125 
Q 28.46875 64.65625 27.390625 59.515625 
L 26.421875 54.6875 
L 41.21875 54.6875 
L 39.890625 47.703125 
L 25.09375 47.703125 
L 15.828125 0 
L 6.78125 0 
L 16.109375 47.703125 
L 7.515625 47.703125 
L 8.796875 54.6875 
L 17.390625 54.6875 
L 18.109375 58.5 
Q 19.96875 68.171875 24.625 72.078125 
Q 29.296875 75.984375 39.3125 75.984375 
z
" id="DejaVuSans-Oblique-102"/>
     </defs>
     <g transform="translate(447.282625 51.86)scale(0.14 -0.14)">
      <use transform="translate(0 0.703125)" xlink:href="#Ubuntu-71"/>
      <use transform="translate(67.199997 0.703125)" xlink:href="#Ubuntu-84"/>
      <use transform="translate(123.699982 0.703125)" xlink:href="#Ubuntu-32"/>
      <use transform="translate(146.799973 0.703125)" xlink:href="#Ubuntu-40"/>
      <use transform="translate(179.199966 0.703125)" xlink:href="#DejaVuSans-Oblique-102"/>
      <use transform="translate(214.405045 0.703125)" xlink:href="#Ubuntu-41"/>
     </g>
    </g>
    <g id="line2d_38">
     <path d="M 408.082625 67.483125 
L 436.082625 67.483125 
" style="fill:none;stroke:#008000;stroke-linecap:square;stroke-width:2.7;"/>
    </g>
    <g id="line2d_39"/>
    <g id="text_20">
     <!-- Acquisition function -->
     <defs>
      <path d="M 54.90625 0 
Q 53.203125 4.5 51.703125 8.84375 
Q 50.203125 13.203125 48.59375 17.703125 
L 17.203125 17.703125 
L 10.90625 0 
L 0.796875 0 
Q 4.796875 11 8.296875 20.34375 
Q 11.796875 29.703125 15.140625 38.09375 
Q 18.5 46.5 21.796875 54.140625 
Q 25.09375 61.796875 28.703125 69.296875 
L 37.59375 69.296875 
Q 41.203125 61.796875 44.5 54.140625 
Q 47.796875 46.5 51.140625 38.09375 
Q 54.5 29.703125 58 20.34375 
Q 61.5 11 65.5 0 
z
M 45.796875 25.703125 
Q 42.59375 34.40625 39.4375 42.546875 
Q 36.296875 50.703125 32.90625 58.203125 
Q 29.40625 50.703125 26.25 42.546875 
Q 23.09375 34.40625 20 25.703125 
z
" id="Ubuntu-65"/>
      <path d="M 14.796875 25.90625 
Q 14.796875 21.90625 15.59375 18.453125 
Q 16.40625 15 18.203125 12.453125 
Q 20 9.90625 22.84375 8.453125 
Q 25.703125 7 29.703125 7 
Q 33.5 7 36.703125 8.296875 
Q 39.90625 9.59375 41.59375 11 
L 41.59375 43.796875 
Q 40.203125 44.203125 37.84375 44.5 
Q 35.5 44.796875 31.296875 44.796875 
Q 23.796875 44.796875 19.296875 39.890625 
Q 14.796875 35 14.796875 25.90625 
z
M 5.09375 25.90625 
Q 5.09375 32.203125 6.9375 37.25 
Q 8.796875 42.296875 12.1875 45.796875 
Q 15.59375 49.296875 20.390625 51.1875 
Q 25.203125 53.09375 31.203125 53.09375 
Q 37.703125 53.09375 42.640625 52.140625 
Q 47.59375 51.203125 50.90625 50.40625 
L 50.90625 -18.5 
L 41.59375 -18.5 
L 41.59375 2.296875 
Q 39.90625 1.203125 36.453125 0 
Q 33 -1.203125 28.5 -1.203125 
Q 22.90625 -1.203125 18.546875 0.796875 
Q 14.203125 2.796875 11.203125 6.390625 
Q 8.203125 10 6.640625 15 
Q 5.09375 20 5.09375 25.90625 
z
" id="Ubuntu-113"/>
      <path d="M 49.40625 1.5 
Q 46.203125 0.703125 40.953125 -0.1875 
Q 35.703125 -1.09375 28.796875 -1.09375 
Q 22.796875 -1.09375 18.6875 0.65625 
Q 14.59375 2.40625 12.09375 5.59375 
Q 9.59375 8.796875 8.5 13.140625 
Q 7.40625 17.5 7.40625 22.796875 
L 7.40625 52 
L 16.703125 52 
L 16.703125 24.796875 
Q 16.703125 15.296875 19.703125 11.1875 
Q 22.703125 7.09375 29.796875 7.09375 
Q 31.296875 7.09375 32.890625 7.1875 
Q 34.5 7.296875 35.890625 7.4375 
Q 37.296875 7.59375 38.4375 7.75 
Q 39.59375 7.90625 40.09375 8.09375 
L 40.09375 52 
L 49.40625 52 
z
" id="Ubuntu-117"/>
      <path d="M 20.09375 6.703125 
Q 25.796875 6.703125 28.546875 8.203125 
Q 31.296875 9.703125 31.296875 13 
Q 31.296875 16.40625 28.59375 18.40625 
Q 25.90625 20.40625 19.703125 22.90625 
Q 16.703125 24.09375 13.953125 25.34375 
Q 11.203125 26.59375 9.203125 28.296875 
Q 7.203125 30 6 32.390625 
Q 4.796875 34.796875 4.796875 38.296875 
Q 4.796875 45.203125 9.890625 49.25 
Q 15 53.296875 23.796875 53.296875 
Q 26 53.296875 28.203125 53.046875 
Q 30.40625 52.796875 32.296875 52.4375 
Q 34.203125 52.09375 35.640625 51.6875 
Q 37.09375 51.296875 37.90625 51 
L 36.203125 43 
Q 34.703125 43.796875 31.5 44.640625 
Q 28.296875 45.5 23.796875 45.5 
Q 19.90625 45.5 17 43.953125 
Q 14.09375 42.40625 14.09375 39.09375 
Q 14.09375 37.40625 14.75 36.09375 
Q 15.40625 34.796875 16.75 33.75 
Q 18.09375 32.703125 20.09375 31.796875 
Q 22.09375 30.90625 24.90625 29.90625 
Q 28.59375 28.5 31.5 27.140625 
Q 34.40625 25.796875 36.453125 24 
Q 38.5 22.203125 39.59375 19.640625 
Q 40.703125 17.09375 40.703125 13.40625 
Q 40.703125 6.203125 35.34375 2.5 
Q 30 -1.203125 20.09375 -1.203125 
Q 13.203125 -1.203125 9.296875 -0.046875 
Q 5.40625 1.09375 4 1.703125 
L 5.703125 9.703125 
Q 7.296875 9.09375 10.796875 7.890625 
Q 14.296875 6.703125 20.09375 6.703125 
z
" id="Ubuntu-115"/>
      <path d="M 28.296875 77.59375 
Q 32.40625 77.59375 35.34375 77 
Q 38.296875 76.40625 39.5 75.90625 
L 37.796875 67.90625 
Q 36.59375 68.5 34.390625 69.046875 
Q 32.203125 69.59375 29 69.59375 
Q 22.5 69.59375 19.890625 66.046875 
Q 17.296875 62.5 17.296875 56.5 
L 17.296875 52 
L 37.296875 52 
L 37.296875 44.203125 
L 17.296875 44.203125 
L 17.296875 0 
L 8 0 
L 8 56.703125 
Q 8 66.703125 12.890625 72.140625 
Q 17.796875 77.59375 28.296875 77.59375 
z
" id="Ubuntu-102"/>
     </defs>
     <g transform="translate(447.282625 72.383125)scale(0.14 -0.14)">
      <use xlink:href="#Ubuntu-65"/>
      <use x="66.284363" xlink:href="#Ubuntu-99"/>
      <use x="112.784348" xlink:href="#Ubuntu-113"/>
      <use x="171.684341" xlink:href="#Ubuntu-117"/>
      <use x="229.084335" xlink:href="#Ubuntu-105"/>
      <use x="254.384323" xlink:href="#Ubuntu-115"/>
      <use x="298.984314" xlink:href="#Ubuntu-105"/>
      <use x="324.284302" xlink:href="#Ubuntu-116"/>
      <use x="364.484299" xlink:href="#Ubuntu-105"/>
      <use x="389.784286" xlink:href="#Ubuntu-111"/>
      <use x="448.784271" xlink:href="#Ubuntu-110"/>
      <use x="506.184265" xlink:href="#Ubuntu-32"/>
      <use x="529.284256" xlink:href="#Ubuntu-102"/>
      <use x="567.884247" xlink:href="#Ubuntu-117"/>
      <use x="625.284241" xlink:href="#Ubuntu-110"/>
      <use x="682.684235" xlink:href="#Ubuntu-99"/>
      <use x="729.184219" xlink:href="#Ubuntu-116"/>
      <use x="769.384216" xlink:href="#Ubuntu-105"/>
      <use x="794.684204" xlink:href="#Ubuntu-111"/>
      <use x="853.684189" xlink:href="#Ubuntu-110"/>
     </g>
    </g>
    <g id="patch_6">
     <path d="M 408.082625 92.83625 
L 436.082625 92.83625 
L 436.082625 83.03625 
L 408.082625 83.03625 
z
" style="fill:#808080;opacity:0.4;stroke:#808080;stroke-linejoin:miter;stroke-width:0.24;"/>
    </g>
    <g id="text_21">
     <!-- $\mu \pm \sigma$ -->
     <defs>
      <path d="M 46 62.703125 
L 46 43.796875 
L 73.1875 43.796875 
L 73.1875 35.5 
L 46 35.5 
L 46 16.609375 
L 37.796875 16.609375 
L 37.796875 35.5 
L 10.59375 35.5 
L 10.59375 43.796875 
L 37.796875 43.796875 
L 37.796875 62.703125 
z
M 10.59375 8.296875 
L 73.1875 8.296875 
L 73.1875 0 
L 10.59375 0 
z
" id="DejaVuSans-177"/>
      <path d="M 34.671875 47.5625 
Q 27.25 47.5625 22.21875 42.1875 
Q 16.890625 36.578125 15.140625 27.296875 
Q 13.1875 17.484375 16.3125 11.8125 
Q 19.390625 6.203125 26.65625 6.203125 
Q 33.84375 6.203125 39.109375 11.859375 
Q 44.4375 17.53125 46.34375 27.296875 
Q 48.046875 36.234375 45.015625 42.1875 
Q 42.1875 47.5625 34.671875 47.5625 
z
M 36.078125 54.734375 
L 65.921875 54.6875 
L 64.15625 45.703125 
L 54.109375 45.703125 
Q 57.90625 38.09375 55.859375 27.296875 
Q 53.21875 13.875 45.0625 6.25 
Q 36.859375 -1.421875 25.140625 -1.421875 
Q 13.375 -1.421875 8.203125 6.25 
Q 3.03125 13.875 5.671875 27.296875 
Q 8.25 40.765625 16.40625 48.390625 
Q 23.1875 54.734375 36.078125 54.734375 
z
" id="DejaVuSans-Oblique-963"/>
     </defs>
     <g transform="translate(447.282625 92.83625)scale(0.14 -0.14)">
      <use transform="translate(0 0.296875)" xlink:href="#DejaVuSans-Oblique-956"/>
      <use transform="translate(83.105469 0.296875)" xlink:href="#DejaVuSans-177"/>
      <use transform="translate(186.376953 0.296875)" xlink:href="#DejaVuSans-Oblique-963"/>
     </g>
    </g>
    <g id="PathCollection_1">
     <defs>
      <path d="M 0 7.071068 
C 1.875269 7.071068 3.673985 6.326016 5 5 
C 6.326016 3.673985 7.071068 1.875269 7.071068 0 
C 7.071068 -1.875269 6.326016 -3.673985 5 -5 
C 3.673985 -6.326016 1.875269 -7.071068 0 -7.071068 
C -1.875269 -7.071068 -3.673985 -6.326016 -5 -5 
C -6.326016 -3.673985 -7.071068 -1.875269 -7.071068 0 
C -7.071068 1.875269 -6.326016 3.673985 -5 5 
C -3.673985 6.326016 -1.875269 7.071068 0 7.071068 
z
" id="mdb5e42eb0b" style="stroke:#ff0000;stroke-width:0.24;"/>
     </defs>
     <g>
      <use style="fill:#ff0000;stroke:#ff0000;stroke-width:0.24;" x="422.082625" xlink:href="#mdb5e42eb0b" y="109.964375"/>
     </g>
    </g>
    <g id="text_22">
     <!-- Training points -->
     <defs>
      <path d="M 25.59375 6.703125 
Q 28.90625 6.703125 31.453125 6.84375 
Q 34 7 35.703125 7.40625 
L 35.703125 22.90625 
Q 34.703125 23.40625 32.453125 23.75 
Q 30.203125 24.09375 27 24.09375 
Q 24.90625 24.09375 22.546875 23.796875 
Q 20.203125 23.5 18.25 22.546875 
Q 16.296875 21.59375 15 19.9375 
Q 13.703125 18.296875 13.703125 15.59375 
Q 13.703125 10.59375 16.890625 8.640625 
Q 20.09375 6.703125 25.59375 6.703125 
z
M 24.796875 53.296875 
Q 30.40625 53.296875 34.25 51.84375 
Q 38.09375 50.40625 40.4375 47.75 
Q 42.796875 45.09375 43.796875 41.4375 
Q 44.796875 37.796875 44.796875 33.40625 
L 44.796875 0.90625 
Q 43.59375 0.703125 41.4375 0.34375 
Q 39.296875 0 36.59375 -0.296875 
Q 33.90625 -0.59375 30.75 -0.84375 
Q 27.59375 -1.09375 24.5 -1.09375 
Q 20.09375 -1.09375 16.390625 -0.1875 
Q 12.703125 0.703125 10 2.640625 
Q 7.296875 4.59375 5.796875 7.796875 
Q 4.296875 11 4.296875 15.5 
Q 4.296875 19.796875 6.046875 22.890625 
Q 7.796875 26 10.796875 27.890625 
Q 13.796875 29.796875 17.796875 30.6875 
Q 21.796875 31.59375 26.203125 31.59375 
Q 27.59375 31.59375 29.09375 31.4375 
Q 30.59375 31.296875 31.9375 31.046875 
Q 33.296875 30.796875 34.296875 30.59375 
Q 35.296875 30.40625 35.703125 30.296875 
L 35.703125 32.90625 
Q 35.703125 35.203125 35.203125 37.453125 
Q 34.703125 39.703125 33.390625 41.453125 
Q 32.09375 43.203125 29.84375 44.25 
Q 27.59375 45.296875 24 45.296875 
Q 19.40625 45.296875 15.953125 44.640625 
Q 12.5 44 10.796875 43.296875 
L 9.703125 51 
Q 11.5 51.796875 15.703125 52.546875 
Q 19.90625 53.296875 24.796875 53.296875 
z
" id="Ubuntu-97"/>
      <path d="M 40.59375 5.203125 
Q 39.40625 4.40625 35.953125 3.15625 
Q 32.5 1.90625 27.90625 1.90625 
Q 23.203125 1.90625 19.046875 3.40625 
Q 14.90625 4.90625 11.796875 8.046875 
Q 8.703125 11.203125 6.890625 15.890625 
Q 5.09375 20.59375 5.09375 27.09375 
Q 5.09375 32.796875 6.796875 37.546875 
Q 8.5 42.296875 11.75 45.75 
Q 15 49.203125 19.703125 51.140625 
Q 24.40625 53.09375 30.296875 53.09375 
Q 36.796875 53.09375 41.640625 52.140625 
Q 46.5 51.203125 49.796875 50.40625 
L 49.796875 4 
Q 49.796875 -8 43.59375 -13.390625 
Q 37.40625 -18.796875 24.796875 -18.796875 
Q 19.90625 -18.796875 15.546875 -18 
Q 11.203125 -17.203125 8 -16.09375 
L 9.703125 -8 
Q 12.5 -9.09375 16.546875 -9.9375 
Q 20.59375 -10.796875 25 -10.796875 
Q 33.296875 -10.796875 36.9375 -7.5 
Q 40.59375 -4.203125 40.59375 3 
z
M 40.5 43.796875 
Q 39.09375 44.203125 36.75 44.546875 
Q 34.40625 44.90625 30.40625 44.90625 
Q 22.90625 44.90625 18.84375 40 
Q 14.796875 35.09375 14.796875 27 
Q 14.796875 22.5 15.9375 19.296875 
Q 17.09375 16.09375 19.046875 14 
Q 21 11.90625 23.546875 10.90625 
Q 26.09375 9.90625 28.796875 9.90625 
Q 32.5 9.90625 35.59375 10.953125 
Q 38.703125 12 40.5 13.40625 
z
" id="Ubuntu-103"/>
      <path d="M 44.09375 25.90625 
Q 44.09375 35 39.59375 39.890625 
Q 35.09375 44.796875 27.59375 44.796875 
Q 23.40625 44.796875 21.046875 44.5 
Q 18.703125 44.203125 17.296875 43.796875 
L 17.296875 11 
Q 19 9.59375 22.203125 8.296875 
Q 25.40625 7 29.203125 7 
Q 33.203125 7 36.046875 8.453125 
Q 38.90625 9.90625 40.703125 12.453125 
Q 42.5 15 43.296875 18.453125 
Q 44.09375 21.90625 44.09375 25.90625 
z
M 53.796875 25.90625 
Q 53.796875 20 52.25 15 
Q 50.703125 10 47.703125 6.390625 
Q 44.703125 2.796875 40.34375 0.796875 
Q 36 -1.203125 30.40625 -1.203125 
Q 25.90625 -1.203125 22.453125 0 
Q 19 1.203125 17.296875 2.296875 
L 17.296875 -18.5 
L 8 -18.5 
L 8 50.40625 
Q 11.296875 51.203125 16.25 52.140625 
Q 21.203125 53.09375 27.703125 53.09375 
Q 33.703125 53.09375 38.5 51.1875 
Q 43.296875 49.296875 46.6875 45.796875 
Q 50.09375 42.296875 51.9375 37.25 
Q 53.796875 32.203125 53.796875 25.90625 
z
" id="Ubuntu-112"/>
     </defs>
     <g transform="translate(447.282625 113.639375)scale(0.14 -0.14)">
      <use xlink:href="#Ubuntu-84"/>
      <use x="56.437485" xlink:href="#Ubuntu-114"/>
      <use x="95.037476" xlink:href="#Ubuntu-97"/>
      <use x="147.237473" xlink:href="#Ubuntu-105"/>
      <use x="172.53746" xlink:href="#Ubuntu-110"/>
      <use x="229.937454" xlink:href="#Ubuntu-105"/>
      <use x="255.237442" xlink:href="#Ubuntu-110"/>
      <use x="312.637436" xlink:href="#Ubuntu-103"/>
      <use x="370.437424" xlink:href="#Ubuntu-32"/>
      <use x="393.537415" xlink:href="#Ubuntu-112"/>
      <use x="452.437408" xlink:href="#Ubuntu-111"/>
      <use x="511.437393" xlink:href="#Ubuntu-105"/>
      <use x="536.737381" xlink:href="#Ubuntu-110"/>
      <use x="594.137375" xlink:href="#Ubuntu-116"/>
      <use x="634.337372" xlink:href="#Ubuntu-115"/>
     </g>
    </g>
   </g>
   <g id="PathCollection_2">
    <g clip-path="url(#p8c91d6718b)">
     <use style="fill:#ff0000;stroke:#ff0000;stroke-width:0.24;" x="87.872443" xlink:href="#mdb5e42eb0b" y="148.582736"/>
    </g>
   </g>
  </g>
 </g>
 <defs>
  <clipPath id="p8c91d6718b">
   <rect height="217.44" width="334.8" x="47.290625" y="7.2"/>
  </clipPath>
 </defs>
</svg>
