<?xml version="1.0" encoding="utf-8" standalone="no"?>
<!DOCTYPE svg PUBLIC "-//W3C//DTD SVG 1.1//EN"
  "http://www.w3.org/Graphics/SVG/1.1/DTD/svg11.dtd">
<!-- Created with matplotlib (https://matplotlib.org/) -->
<svg height="491.250375pt" version="1.1" viewBox="0 0 923.974375 491.250375" width="923.974375pt" xmlns="http://www.w3.org/2000/svg" xmlns:xlink="http://www.w3.org/1999/xlink">
 <defs>
  <style type="text/css">
*{stroke-linecap:butt;stroke-linejoin:round;white-space:pre;}
  </style>
 </defs>
 <g id="figure_1">
  <g id="patch_1">
   <path d="M 0 491.250375 
L 923.974375 491.250375 
L 923.974375 0 
L 0 0 
z
" style="fill:#f0f0f0;"/>
  </g>
  <g id="axes_1">
   <g id="patch_2">
    <path d="M 39.814375 459.2535 
L 916.774375 459.2535 
L 916.774375 24.3735 
L 39.814375 24.3735 
z
" style="fill:#f0f0f0;"/>
   </g>
   <g id="matplotlib.axis_1">
    <g id="xtick_1">
     <g id="line2d_1">
      <path clip-path="url(#p02516cc58e)" d="M 79.676193 459.2535 
L 79.676193 24.3735 
" style="fill:none;stroke:#cbcbcb;"/>
     </g>
     <g id="line2d_2"/>
     <g id="text_1">
      <!-- 0 -->
      <defs>
       <path d="M 5 34.703125 
Q 5 52.09375 11.140625 61.5 
Q 17.296875 70.90625 28.203125 70.90625 
Q 39.09375 70.90625 45.25 61.5 
Q 51.40625 52.09375 51.40625 34.703125 
Q 51.40625 17.296875 45.25 7.890625 
Q 39.09375 -1.5 28.203125 -1.5 
Q 17.296875 -1.5 11.140625 7.890625 
Q 5 17.296875 5 34.703125 
z
M 41.59375 34.703125 
Q 41.59375 40.40625 40.9375 45.5 
Q 40.296875 50.59375 38.75 54.390625 
Q 37.203125 58.203125 34.59375 60.453125 
Q 32 62.703125 28.203125 62.703125 
Q 24.40625 62.703125 21.796875 60.453125 
Q 19.203125 58.203125 17.640625 54.390625 
Q 16.09375 50.59375 15.4375 45.5 
Q 14.796875 40.40625 14.796875 34.703125 
Q 14.796875 29 15.4375 23.890625 
Q 16.09375 18.796875 17.640625 15 
Q 19.203125 11.203125 21.796875 8.953125 
Q 24.40625 6.703125 28.203125 6.703125 
Q 32 6.703125 34.59375 8.953125 
Q 37.203125 11.203125 38.75 15 
Q 40.296875 18.796875 40.9375 23.890625 
Q 41.59375 29 41.59375 34.703125 
z
" id="Ubuntu-48"/>
      </defs>
      <g transform="translate(77.419943 468.961)scale(0.08 -0.08)">
       <use xlink:href="#Ubuntu-48"/>
      </g>
     </g>
    </g>
    <g id="xtick_2">
     <g id="line2d_3">
      <path clip-path="url(#p02516cc58e)" d="M 256.83983 459.2535 
L 256.83983 24.3735 
" style="fill:none;stroke:#cbcbcb;"/>
     </g>
     <g id="line2d_4"/>
     <g id="text_2">
      <!-- 2 -->
      <defs>
       <path d="M 46.703125 51.59375 
Q 46.703125 48 45.25 44.640625 
Q 43.796875 41.296875 41.390625 38.046875 
Q 39 34.796875 36 31.640625 
Q 33 28.5 30 25.5 
Q 28.296875 23.796875 26.046875 21.5 
Q 23.796875 19.203125 21.796875 16.703125 
Q 19.796875 14.203125 18.4375 11.890625 
Q 17.09375 9.59375 17.09375 7.90625 
L 49 7.90625 
L 49 0 
L 7 0 
Q 6.90625 0.59375 6.90625 1.1875 
Q 6.90625 1.796875 6.90625 2.296875 
Q 6.90625 7 8.453125 11.046875 
Q 10 15.09375 12.5 18.6875 
Q 15 22.296875 18.09375 25.5 
Q 21.203125 28.703125 24.203125 31.703125 
Q 26.703125 34.09375 28.953125 36.4375 
Q 31.203125 38.796875 32.953125 41.140625 
Q 34.703125 43.5 35.75 46 
Q 36.796875 48.5 36.796875 51.296875 
Q 36.796875 54.296875 35.84375 56.390625 
Q 34.90625 58.5 33.296875 59.890625 
Q 31.703125 61.296875 29.546875 61.9375 
Q 27.40625 62.59375 25 62.59375 
Q 22.09375 62.59375 19.6875 61.796875 
Q 17.296875 61 15.390625 59.953125 
Q 13.5 58.90625 12.203125 57.75 
Q 10.90625 56.59375 10.203125 56 
L 5.59375 62.59375 
Q 6.5 63.59375 8.296875 65.046875 
Q 10.09375 66.5 12.59375 67.796875 
Q 15.09375 69.09375 18.1875 70 
Q 21.296875 70.90625 24.90625 70.90625 
Q 35.796875 70.90625 41.25 65.84375 
Q 46.703125 60.796875 46.703125 51.59375 
z
" id="Ubuntu-50"/>
      </defs>
      <g transform="translate(254.58358 468.961)scale(0.08 -0.08)">
       <use xlink:href="#Ubuntu-50"/>
      </g>
     </g>
    </g>
    <g id="xtick_3">
     <g id="line2d_5">
      <path clip-path="url(#p02516cc58e)" d="M 434.003466 459.2535 
L 434.003466 24.3735 
" style="fill:none;stroke:#cbcbcb;"/>
     </g>
     <g id="line2d_6"/>
     <g id="text_3">
      <!-- 4 -->
      <defs>
       <path d="M 4 24 
Q 5.90625 28.40625 9.203125 34.25 
Q 12.5 40.09375 16.640625 46.296875 
Q 20.796875 52.5 25.546875 58.5 
Q 30.296875 64.5 35.09375 69.296875 
L 44 69.296875 
L 44 25.296875 
L 52.203125 25.296875 
L 52.203125 17.703125 
L 44 17.703125 
L 44 0 
L 35 0 
L 35 17.703125 
L 4 17.703125 
z
M 35 58.296875 
Q 32 55.09375 28.953125 51.140625 
Q 25.90625 47.203125 23 42.890625 
Q 20.09375 38.59375 17.546875 34.09375 
Q 15 29.59375 13 25.296875 
L 35 25.296875 
z
" id="Ubuntu-52"/>
      </defs>
      <g transform="translate(431.747216 468.961)scale(0.08 -0.08)">
       <use xlink:href="#Ubuntu-52"/>
      </g>
     </g>
    </g>
    <g id="xtick_4">
     <g id="line2d_7">
      <path clip-path="url(#p02516cc58e)" d="M 611.167102 459.2535 
L 611.167102 24.3735 
" style="fill:none;stroke:#cbcbcb;"/>
     </g>
     <g id="line2d_8"/>
     <g id="text_4">
      <!-- 6 -->
      <defs>
       <path d="M 6.296875 27.796875 
Q 6.296875 37.90625 9.09375 45.65625 
Q 11.90625 53.40625 17.046875 58.703125 
Q 22.203125 64 29.546875 66.75 
Q 36.90625 69.5 46.09375 69.59375 
L 46.796875 61.796875 
Q 40.90625 61.703125 36.046875 60.5 
Q 31.203125 59.296875 27.390625 56.6875 
Q 23.59375 54.09375 21 49.9375 
Q 18.40625 45.796875 17.09375 39.703125 
Q 19.703125 40.90625 22.953125 41.703125 
Q 26.203125 42.5 29.703125 42.5 
Q 35.59375 42.5 39.6875 40.703125 
Q 43.796875 38.90625 46.390625 35.953125 
Q 49 33 50.140625 29.140625 
Q 51.296875 25.296875 51.296875 21.09375 
Q 51.296875 17.296875 50 13.296875 
Q 48.703125 9.296875 46.046875 6 
Q 43.40625 2.703125 39.296875 0.59375 
Q 35.203125 -1.5 29.59375 -1.5 
Q 18.203125 -1.5 12.25 6.296875 
Q 6.296875 14.09375 6.296875 27.796875 
z
M 28.703125 34.90625 
Q 25.203125 34.90625 22.203125 34.25 
Q 19.203125 33.59375 16.203125 32.296875 
Q 16.09375 31.203125 16.046875 30.046875 
Q 16 28.90625 16 27.796875 
Q 16 23.40625 16.59375 19.5 
Q 17.203125 15.59375 18.75 12.640625 
Q 20.296875 9.703125 22.890625 7.953125 
Q 25.5 6.203125 29.5 6.203125 
Q 32.796875 6.203125 35.09375 7.59375 
Q 37.40625 9 38.90625 11.203125 
Q 40.40625 13.40625 41.046875 15.953125 
Q 41.703125 18.5 41.703125 20.90625 
Q 41.703125 27.703125 38.453125 31.296875 
Q 35.203125 34.90625 28.703125 34.90625 
z
" id="Ubuntu-54"/>
      </defs>
      <g transform="translate(608.910852 468.961)scale(0.08 -0.08)">
       <use xlink:href="#Ubuntu-54"/>
      </g>
     </g>
    </g>
    <g id="xtick_5">
     <g id="line2d_9">
      <path clip-path="url(#p02516cc58e)" d="M 788.330739 459.2535 
L 788.330739 24.3735 
" style="fill:none;stroke:#cbcbcb;"/>
     </g>
     <g id="line2d_10"/>
     <g id="text_5">
      <!-- 8 -->
      <defs>
       <path d="M 50.90625 18 
Q 50.90625 13.796875 49.453125 10.25 
Q 48 6.703125 45.140625 4.046875 
Q 42.296875 1.40625 38 -0.046875 
Q 33.703125 -1.5 28.09375 -1.5 
Q 21.59375 -1.5 17.25 0.34375 
Q 12.90625 2.203125 10.296875 5 
Q 7.703125 7.796875 6.59375 11.140625 
Q 5.5 14.5 5.5 17.5 
Q 5.5 20.40625 6.453125 23.046875 
Q 7.40625 25.703125 8.953125 28 
Q 10.5 30.296875 12.546875 32.140625 
Q 14.59375 34 16.90625 35.40625 
Q 7.09375 41 7.09375 51.90625 
Q 7.09375 55.703125 8.59375 59.140625 
Q 10.09375 62.59375 12.84375 65.1875 
Q 15.59375 67.796875 19.5 69.34375 
Q 23.40625 70.90625 28.203125 70.90625 
Q 33.796875 70.90625 37.796875 69.203125 
Q 41.796875 67.5 44.34375 64.84375 
Q 46.90625 62.203125 48.046875 59 
Q 49.203125 55.796875 49.203125 52.796875 
Q 49.203125 49.90625 48.34375 47.34375 
Q 47.5 44.796875 46.046875 42.59375 
Q 44.59375 40.40625 42.75 38.703125 
Q 40.90625 37 38.90625 35.703125 
Q 50.703125 30.09375 50.90625 18 
z
M 14.90625 17.40625 
Q 14.90625 15.59375 15.546875 13.640625 
Q 16.203125 11.703125 17.796875 10.046875 
Q 19.40625 8.40625 21.90625 7.296875 
Q 24.40625 6.203125 28.203125 6.203125 
Q 31.59375 6.203125 34.140625 7.203125 
Q 36.703125 8.203125 38.296875 9.75 
Q 39.90625 11.296875 40.703125 13.296875 
Q 41.5 15.296875 41.5 17.40625 
Q 41.5 20.59375 40.296875 23 
Q 39.09375 25.40625 36.84375 27.203125 
Q 34.59375 29 31.4375 30.25 
Q 28.296875 31.5 24.296875 32.40625 
Q 19.796875 29.90625 17.34375 26.203125 
Q 14.90625 22.5 14.90625 17.40625 
z
M 39.90625 52.90625 
Q 39.90625 54.40625 39.25 56.203125 
Q 38.59375 58 37.1875 59.546875 
Q 35.796875 61.09375 33.59375 62.140625 
Q 31.40625 63.203125 28.203125 63.203125 
Q 25 63.203125 22.75 62.203125 
Q 20.5 61.203125 19.09375 59.640625 
Q 17.703125 58.09375 17.046875 56.25 
Q 16.40625 54.40625 16.40625 52.59375 
Q 16.40625 50.40625 17.203125 48.203125 
Q 18 46 19.703125 44.09375 
Q 21.40625 42.203125 24.15625 40.703125 
Q 26.90625 39.203125 30.703125 38.296875 
Q 34.90625 40.796875 37.40625 44.140625 
Q 39.90625 47.5 39.90625 52.90625 
z
" id="Ubuntu-56"/>
      </defs>
      <g transform="translate(786.074489 468.961)scale(0.08 -0.08)">
       <use xlink:href="#Ubuntu-56"/>
      </g>
     </g>
    </g>
    <g id="text_6">
     <!-- # of Hyper-Parameters Tested -->
     <defs>
      <path d="M 32.5 52.296875 
L 44.09375 52.296875 
L 47.40625 69.296875 
L 60.40625 69.296875 
L 57.09375 52.296875 
L 64.40625 52.296875 
L 64.40625 40.796875 
L 54.90625 40.796875 
L 52.5 28.5 
L 64.40625 28.5 
L 64.40625 17 
L 50.296875 17 
L 47.09375 0 
L 34.09375 0 
L 37.296875 17 
L 25.703125 17 
L 22.5 0 
L 9.5 0 
L 12.703125 17 
L 5.5 17 
L 5.5 28.5 
L 14.90625 28.5 
L 17.296875 40.796875 
L 5.5 40.796875 
L 5.5 52.296875 
L 19.5 52.296875 
L 22.796875 69.296875 
L 35.796875 69.296875 
z
M 27.90625 28.5 
L 39.5 28.5 
L 41.90625 40.796875 
L 30.296875 40.796875 
z
" id="Ubuntu-Bold-35"/>
      <path id="Ubuntu-Bold-32"/>
      <path d="M 56.203125 26.40625 
Q 56.203125 20.203125 54.390625 15.046875 
Q 52.59375 9.90625 49.1875 6.25 
Q 45.796875 2.59375 41.046875 0.59375 
Q 36.296875 -1.40625 30.40625 -1.40625 
Q 24.59375 -1.40625 19.84375 0.59375 
Q 15.09375 2.59375 11.6875 6.25 
Q 8.296875 9.90625 6.390625 15.046875 
Q 4.5 20.203125 4.5 26.40625 
Q 4.5 32.59375 6.453125 37.6875 
Q 8.40625 42.796875 11.84375 46.390625 
Q 15.296875 50 20.046875 52 
Q 24.796875 54 30.40625 54 
Q 36.09375 54 40.84375 52 
Q 45.59375 50 49 46.390625 
Q 52.40625 42.796875 54.296875 37.6875 
Q 56.203125 32.59375 56.203125 26.40625 
z
M 41 26.40625 
Q 41 33.296875 38.25 37.25 
Q 35.5 41.203125 30.40625 41.203125 
Q 25.296875 41.203125 22.5 37.25 
Q 19.703125 33.296875 19.703125 26.40625 
Q 19.703125 19.5 22.5 15.453125 
Q 25.296875 11.40625 30.40625 11.40625 
Q 35.5 11.40625 38.25 15.453125 
Q 41 19.5 41 26.40625 
z
" id="Ubuntu-Bold-111"/>
      <path d="M 29.796875 77.59375 
Q 34 77.59375 37.5 76.75 
Q 41 75.90625 42.90625 75.09375 
L 40 63.203125 
Q 38 64.09375 35.640625 64.546875 
Q 33.296875 65 31.296875 65 
Q 28.59375 65 26.75 64.25 
Q 24.90625 63.5 23.84375 62.203125 
Q 22.796875 60.90625 22.34375 59.09375 
Q 21.90625 57.296875 21.90625 55.203125 
L 21.90625 52.59375 
L 40.296875 52.59375 
L 40.296875 40.203125 
L 21.90625 40.203125 
L 21.90625 0 
L 7 0 
L 7 55.40625 
Q 7 65.59375 12.75 71.59375 
Q 18.5 77.59375 29.796875 77.59375 
z
" id="Ubuntu-Bold-102"/>
      <path d="M 49.796875 69.296875 
L 65.40625 69.296875 
L 65.40625 0 
L 49.796875 0 
L 49.796875 29.40625 
L 23.59375 29.40625 
L 23.59375 0 
L 8 0 
L 8 69.296875 
L 23.59375 69.296875 
L 23.59375 42.796875 
L 49.796875 42.796875 
z
" id="Ubuntu-Bold-72"/>
      <path d="M 53.703125 52.59375 
Q 49.203125 37.40625 44.296875 24.09375 
Q 39.40625 10.796875 33.59375 -1.703125 
Q 31.5 -6.203125 29.390625 -9.34375 
Q 27.296875 -12.5 24.796875 -14.546875 
Q 22.296875 -16.59375 19.140625 -17.546875 
Q 16 -18.5 11.796875 -18.5 
Q 8.296875 -18.5 5.34375 -17.84375 
Q 2.40625 -17.203125 0.5 -16.40625 
L 3.09375 -4.5 
Q 5.40625 -5.296875 7.203125 -5.59375 
Q 9 -5.90625 11 -5.90625 
Q 15 -5.90625 17.140625 -3.75 
Q 19.296875 -1.59375 20.796875 2.203125 
Q 15.703125 12.203125 10.59375 24.640625 
Q 5.5 37.09375 1 52.59375 
L 16.796875 52.59375 
Q 17.796875 48.703125 19.140625 44.140625 
Q 20.5 39.59375 22 34.9375 
Q 23.5 30.296875 25.046875 25.890625 
Q 26.59375 21.5 28 17.90625 
Q 29.296875 21.5 30.6875 25.890625 
Q 32.09375 30.296875 33.4375 34.9375 
Q 34.796875 39.59375 36.046875 44.140625 
Q 37.296875 48.703125 38.296875 52.59375 
z
" id="Ubuntu-Bold-121"/>
      <path d="M 40.703125 25.90625 
Q 40.703125 32.796875 37.59375 36.9375 
Q 34.5 41.09375 28.40625 41.09375 
Q 26.40625 41.09375 24.703125 40.9375 
Q 23 40.796875 21.90625 40.59375 
L 21.90625 13.703125 
Q 23.296875 12.796875 25.546875 12.1875 
Q 27.796875 11.59375 30.09375 11.59375 
Q 40.703125 11.59375 40.703125 25.90625 
z
M 55.90625 26.296875 
Q 55.90625 20.203125 54.40625 15.203125 
Q 52.90625 10.203125 50 6.59375 
Q 47.09375 3 42.796875 1 
Q 38.5 -1 32.90625 -1 
Q 29.796875 -1 27.09375 -0.390625 
Q 24.40625 0.203125 21.90625 1.296875 
L 21.90625 -18.5 
L 7 -18.5 
L 7 50.796875 
Q 9 51.40625 11.59375 51.953125 
Q 14.203125 52.5 17.046875 52.890625 
Q 19.90625 53.296875 22.84375 53.546875 
Q 25.796875 53.796875 28.5 53.796875 
Q 35 53.796875 40.09375 51.84375 
Q 45.203125 49.90625 48.703125 46.34375 
Q 52.203125 42.796875 54.046875 37.6875 
Q 55.90625 32.59375 55.90625 26.296875 
z
" id="Ubuntu-Bold-112"/>
      <path d="M 4.5 25.90625 
Q 4.5 32.90625 6.640625 38.15625 
Q 8.796875 43.40625 12.296875 46.90625 
Q 15.796875 50.40625 20.34375 52.203125 
Q 24.90625 54 29.703125 54 
Q 40.90625 54 47.40625 47.140625 
Q 53.90625 40.296875 53.90625 27 
Q 53.90625 25.703125 53.796875 24.140625 
Q 53.703125 22.59375 53.59375 21.40625 
L 19.796875 21.40625 
Q 20.296875 16.796875 24.09375 14.09375 
Q 27.90625 11.40625 34.296875 11.40625 
Q 38.40625 11.40625 42.34375 12.15625 
Q 46.296875 12.90625 48.796875 14 
L 50.796875 1.90625 
Q 49.59375 1.296875 47.59375 0.6875 
Q 45.59375 0.09375 43.140625 -0.34375 
Q 40.703125 -0.796875 37.890625 -1.09375 
Q 35.09375 -1.40625 32.296875 -1.40625 
Q 25.203125 -1.40625 19.953125 0.6875 
Q 14.703125 2.796875 11.25 6.4375 
Q 7.796875 10.09375 6.140625 15.09375 
Q 4.5 20.09375 4.5 25.90625 
z
M 39.5 31.59375 
Q 39.40625 33.5 38.84375 35.296875 
Q 38.296875 37.09375 37.140625 38.5 
Q 36 39.90625 34.25 40.796875 
Q 32.5 41.703125 29.90625 41.703125 
Q 27.40625 41.703125 25.59375 40.84375 
Q 23.796875 40 22.59375 38.59375 
Q 21.40625 37.203125 20.75 35.34375 
Q 20.09375 33.5 19.796875 31.59375 
z
" id="Ubuntu-Bold-101"/>
      <path d="M 38.703125 39.40625 
Q 36.703125 39.90625 34 40.453125 
Q 31.296875 41 28.203125 41 
Q 26.796875 41 24.84375 40.75 
Q 22.90625 40.5 21.90625 40.203125 
L 21.90625 0 
L 7 0 
L 7 49.796875 
Q 11 51.203125 16.453125 52.453125 
Q 21.90625 53.703125 28.59375 53.703125 
Q 29.796875 53.703125 31.5 53.546875 
Q 33.203125 53.40625 34.890625 53.15625 
Q 36.59375 52.90625 38.296875 52.546875 
Q 40 52.203125 41.203125 51.703125 
z
" id="Ubuntu-Bold-114"/>
      <path d="M 2.5 36.59375 
L 31.5 36.59375 
L 31.5 23.09375 
L 2.5 23.09375 
z
" id="Ubuntu-Bold-45"/>
      <path d="M 28.796875 70.09375 
Q 44.296875 70.09375 52.59375 64.640625 
Q 60.90625 59.203125 60.90625 46.796875 
Q 60.90625 34.296875 52.5 28.75 
Q 44.09375 23.203125 28.5 23.203125 
L 23.59375 23.203125 
L 23.59375 0 
L 8 0 
L 8 68.296875 
Q 13.09375 69.296875 18.796875 69.6875 
Q 24.5 70.09375 28.796875 70.09375 
z
M 29.796875 56.796875 
Q 28.09375 56.796875 26.4375 56.6875 
Q 24.796875 56.59375 23.59375 56.5 
L 23.59375 36.5 
L 28.5 36.5 
Q 36.59375 36.5 40.6875 38.703125 
Q 44.796875 40.90625 44.796875 46.90625 
Q 44.796875 49.796875 43.75 51.6875 
Q 42.703125 53.59375 40.75 54.75 
Q 38.796875 55.90625 36 56.34375 
Q 33.203125 56.796875 29.796875 56.796875 
z
" id="Ubuntu-Bold-80"/>
      <path d="M 27.09375 10.40625 
Q 29.296875 10.40625 31.296875 10.5 
Q 33.296875 10.59375 34.5 10.796875 
L 34.5 22.09375 
Q 33.59375 22.296875 31.796875 22.5 
Q 30 22.703125 28.5 22.703125 
Q 26.40625 22.703125 24.546875 22.453125 
Q 22.703125 22.203125 21.296875 21.5 
Q 19.90625 20.796875 19.09375 19.59375 
Q 18.296875 18.40625 18.296875 16.59375 
Q 18.296875 13.09375 20.640625 11.75 
Q 23 10.40625 27.09375 10.40625 
z
M 25.90625 54 
Q 32.5 54 36.890625 52.5 
Q 41.296875 51 43.9375 48.203125 
Q 46.59375 45.40625 47.6875 41.40625 
Q 48.796875 37.40625 48.796875 32.5 
L 48.796875 1.5 
Q 45.59375 0.796875 39.890625 -0.140625 
Q 34.203125 -1.09375 26.09375 -1.09375 
Q 21 -1.09375 16.84375 -0.1875 
Q 12.703125 0.703125 9.703125 2.75 
Q 6.703125 4.796875 5.09375 8.09375 
Q 3.5 11.40625 3.5 16.203125 
Q 3.5 20.796875 5.34375 24 
Q 7.203125 27.203125 10.296875 29.09375 
Q 13.40625 31 17.40625 31.84375 
Q 21.40625 32.703125 25.703125 32.703125 
Q 28.59375 32.703125 30.84375 32.453125 
Q 33.09375 32.203125 34.5 31.796875 
L 34.5 33.203125 
Q 34.5 37 32.203125 39.296875 
Q 29.90625 41.59375 24.203125 41.59375 
Q 20.40625 41.59375 16.703125 41.046875 
Q 13 40.5 10.296875 39.5 
L 8.40625 51.5 
Q 9.703125 51.90625 11.640625 52.34375 
Q 13.59375 52.796875 15.890625 53.140625 
Q 18.203125 53.5 20.75 53.75 
Q 23.296875 54 25.90625 54 
z
" id="Ubuntu-Bold-97"/>
      <path d="M 35.90625 27.90625 
Q 35.90625 35.09375 34.046875 38.09375 
Q 32.203125 41.09375 27.703125 41.09375 
Q 26.296875 41.09375 24.796875 40.9375 
Q 23.296875 40.796875 21.90625 40.59375 
L 21.90625 0 
L 7 0 
L 7 50.796875 
Q 8.90625 51.296875 11.453125 51.84375 
Q 14 52.40625 16.84375 52.84375 
Q 19.703125 53.296875 22.703125 53.546875 
Q 25.703125 53.796875 28.59375 53.796875 
Q 34.296875 53.796875 37.84375 52.34375 
Q 41.40625 50.90625 43.703125 48.90625 
Q 46.90625 51.203125 51.046875 52.5 
Q 55.203125 53.796875 58.703125 53.796875 
Q 65 53.796875 69.046875 52.046875 
Q 73.09375 50.296875 75.5 47.09375 
Q 77.90625 43.90625 78.796875 39.5 
Q 79.703125 35.09375 79.703125 29.703125 
L 79.703125 0 
L 64.796875 0 
L 64.796875 27.90625 
Q 64.796875 35.09375 62.9375 38.09375 
Q 61.09375 41.09375 56.59375 41.09375 
Q 55.40625 41.09375 53.25 40.5 
Q 51.09375 39.90625 49.703125 39 
Q 50.40625 36.703125 50.59375 34.140625 
Q 50.796875 31.59375 50.796875 28.703125 
L 50.796875 0 
L 35.90625 0 
z
" id="Ubuntu-Bold-109"/>
      <path d="M 6.5 65.703125 
L 21.40625 68.09375 
L 21.40625 52.59375 
L 39.296875 52.59375 
L 39.296875 40.203125 
L 21.40625 40.203125 
L 21.40625 21.703125 
Q 21.40625 17 23.046875 14.203125 
Q 24.703125 11.40625 29.703125 11.40625 
Q 32.09375 11.40625 34.640625 11.84375 
Q 37.203125 12.296875 39.296875 13.09375 
L 41.40625 1.5 
Q 38.703125 0.40625 35.390625 -0.390625 
Q 32.09375 -1.203125 27.296875 -1.203125 
Q 21.203125 -1.203125 17.203125 0.4375 
Q 13.203125 2.09375 10.796875 5.046875 
Q 8.40625 8 7.453125 12.203125 
Q 6.5 16.40625 6.5 21.5 
z
" id="Ubuntu-Bold-116"/>
      <path d="M 22.09375 10.703125 
Q 26.203125 10.703125 27.890625 11.5 
Q 29.59375 12.296875 29.59375 14.59375 
Q 29.59375 16.40625 27.390625 17.75 
Q 25.203125 19.09375 20.703125 20.796875 
Q 17.203125 22.09375 14.34375 23.5 
Q 11.5 24.90625 9.5 26.84375 
Q 7.5 28.796875 6.390625 31.5 
Q 5.296875 34.203125 5.296875 38 
Q 5.296875 45.40625 10.796875 49.703125 
Q 16.296875 54 25.90625 54 
Q 30.703125 54 35.09375 53.140625 
Q 39.5 52.296875 42.09375 51.296875 
L 39.5 39.703125 
Q 36.90625 40.59375 33.84375 41.296875 
Q 30.796875 42 27 42 
Q 20 42 20 38.09375 
Q 20 37.203125 20.296875 36.5 
Q 20.59375 35.796875 21.5 35.140625 
Q 22.40625 34.5 23.953125 33.75 
Q 25.5 33 27.90625 32.09375 
Q 32.796875 30.296875 36 28.546875 
Q 39.203125 26.796875 41.046875 24.75 
Q 42.90625 22.703125 43.65625 20.203125 
Q 44.40625 17.703125 44.40625 14.40625 
Q 44.40625 6.59375 38.546875 2.59375 
Q 32.703125 -1.40625 22 -1.40625 
Q 15 -1.40625 10.34375 -0.203125 
Q 5.703125 1 3.90625 1.796875 
L 6.40625 13.90625 
Q 10.203125 12.40625 14.203125 11.546875 
Q 18.203125 10.703125 22.09375 10.703125 
z
" id="Ubuntu-Bold-115"/>
      <path d="M 59.40625 69.296875 
L 59.40625 56 
L 38.5 56 
L 38.5 0 
L 22.90625 0 
L 22.90625 56 
L 2 56 
L 2 69.296875 
z
" id="Ubuntu-Bold-84"/>
      <path d="M 19.703125 26.703125 
Q 19.703125 19.796875 22.796875 15.59375 
Q 25.90625 11.40625 32 11.40625 
Q 34 11.40625 35.703125 11.546875 
Q 37.40625 11.703125 38.5 11.90625 
L 38.5 39 
Q 37.09375 39.90625 34.84375 40.5 
Q 32.59375 41.09375 30.296875 41.09375 
Q 19.703125 41.09375 19.703125 26.703125 
z
M 53.40625 1.703125 
Q 51.40625 1.09375 48.796875 0.546875 
Q 46.203125 0 43.34375 -0.390625 
Q 40.5 -0.796875 37.546875 -1.046875 
Q 34.59375 -1.296875 31.90625 -1.296875 
Q 25.40625 -1.296875 20.296875 0.59375 
Q 15.203125 2.5 11.703125 6.046875 
Q 8.203125 9.59375 6.34375 14.640625 
Q 4.5 19.703125 4.5 26 
Q 4.5 32.40625 6.09375 37.546875 
Q 7.703125 42.703125 10.703125 46.296875 
Q 13.703125 49.90625 18.046875 51.796875 
Q 22.40625 53.703125 28 53.703125 
Q 31.09375 53.703125 33.546875 53.09375 
Q 36 52.5 38.5 51.40625 
L 38.5 75.203125 
L 53.40625 77.59375 
z
" id="Ubuntu-Bold-100"/>
     </defs>
     <g transform="translate(405.565469 482.200375)scale(0.1 -0.1)">
      <use xlink:href="#Ubuntu-Bold-35"/>
      <use x="69.899994" xlink:href="#Ubuntu-Bold-32"/>
      <use x="93.899979" xlink:href="#Ubuntu-Bold-111"/>
      <use x="154.599976" xlink:href="#Ubuntu-Bold-102"/>
      <use x="196.799973" xlink:href="#Ubuntu-Bold-32"/>
      <use x="220.799957" xlink:href="#Ubuntu-Bold-72"/>
      <use x="294.199951" xlink:href="#Ubuntu-Bold-121"/>
      <use x="348.899948" xlink:href="#Ubuntu-Bold-112"/>
      <use x="409.299942" xlink:href="#Ubuntu-Bold-101"/>
      <use x="467.699936" xlink:href="#Ubuntu-Bold-114"/>
      <use x="509.899933" xlink:href="#Ubuntu-Bold-45"/>
      <use x="543.899918" xlink:href="#Ubuntu-Bold-80"/>
      <use x="608.268661" xlink:href="#Ubuntu-Bold-97"/>
      <use x="663.568649" xlink:href="#Ubuntu-Bold-114"/>
      <use x="705.753021" xlink:href="#Ubuntu-Bold-97"/>
      <use x="761.053009" xlink:href="#Ubuntu-Bold-109"/>
      <use x="847.252991" xlink:href="#Ubuntu-Bold-101"/>
      <use x="905.652985" xlink:href="#Ubuntu-Bold-116"/>
      <use x="950.021729" xlink:href="#Ubuntu-Bold-101"/>
      <use x="1008.421722" xlink:href="#Ubuntu-Bold-114"/>
      <use x="1050.621719" xlink:href="#Ubuntu-Bold-115"/>
      <use x="1099.121704" xlink:href="#Ubuntu-Bold-32"/>
      <use x="1123.121689" xlink:href="#Ubuntu-Bold-84"/>
      <use x="1184.412308" xlink:href="#Ubuntu-Bold-101"/>
      <use x="1242.812302" xlink:href="#Ubuntu-Bold-115"/>
      <use x="1291.312286" xlink:href="#Ubuntu-Bold-116"/>
      <use x="1335.68103" xlink:href="#Ubuntu-Bold-101"/>
      <use x="1394.081024" xlink:href="#Ubuntu-Bold-100"/>
     </g>
    </g>
   </g>
   <g id="matplotlib.axis_2">
    <g id="ytick_1">
     <g id="line2d_11">
      <path clip-path="url(#p02516cc58e)" d="M 39.814375 439.486227 
L 916.774375 439.486227 
" style="fill:none;stroke:#cbcbcb;"/>
     </g>
     <g id="line2d_12"/>
     <g id="text_7">
      <!-- 0.60 -->
      <defs>
       <path d="M 19 5.40625 
Q 19 2.703125 17.203125 0.703125 
Q 15.40625 -1.296875 12.296875 -1.296875 
Q 9.203125 -1.296875 7.390625 0.703125 
Q 5.59375 2.703125 5.59375 5.40625 
Q 5.59375 8.09375 7.390625 10.09375 
Q 9.203125 12.09375 12.296875 12.09375 
Q 15.40625 12.09375 17.203125 10.09375 
Q 19 8.09375 19 5.40625 
z
" id="Ubuntu-46"/>
      </defs>
      <g transform="translate(20.809375 442.589977)scale(0.08 -0.08)">
       <use xlink:href="#Ubuntu-48"/>
       <use x="56.399994" xlink:href="#Ubuntu-46"/>
       <use x="80.999985" xlink:href="#Ubuntu-54"/>
       <use x="137.399979" xlink:href="#Ubuntu-48"/>
      </g>
     </g>
    </g>
    <g id="ytick_2">
     <g id="line2d_13">
      <path clip-path="url(#p02516cc58e)" d="M 39.814375 373.595318 
L 916.774375 373.595318 
" style="fill:none;stroke:#cbcbcb;"/>
     </g>
     <g id="line2d_14"/>
     <g id="text_8">
      <!-- 0.62 -->
      <g transform="translate(20.809375 376.699068)scale(0.08 -0.08)">
       <use xlink:href="#Ubuntu-48"/>
       <use x="56.399994" xlink:href="#Ubuntu-46"/>
       <use x="80.999985" xlink:href="#Ubuntu-54"/>
       <use x="137.399979" xlink:href="#Ubuntu-50"/>
      </g>
     </g>
    </g>
    <g id="ytick_3">
     <g id="line2d_15">
      <path clip-path="url(#p02516cc58e)" d="M 39.814375 307.704409 
L 916.774375 307.704409 
" style="fill:none;stroke:#cbcbcb;"/>
     </g>
     <g id="line2d_16"/>
     <g id="text_9">
      <!-- 0.64 -->
      <g transform="translate(20.809375 310.808159)scale(0.08 -0.08)">
       <use xlink:href="#Ubuntu-48"/>
       <use x="56.399994" xlink:href="#Ubuntu-46"/>
       <use x="80.999985" xlink:href="#Ubuntu-54"/>
       <use x="137.399979" xlink:href="#Ubuntu-52"/>
      </g>
     </g>
    </g>
    <g id="ytick_4">
     <g id="line2d_17">
      <path clip-path="url(#p02516cc58e)" d="M 39.814375 241.8135 
L 916.774375 241.8135 
" style="fill:none;stroke:#cbcbcb;"/>
     </g>
     <g id="line2d_18"/>
     <g id="text_10">
      <!-- 0.66 -->
      <g transform="translate(20.809375 244.91725)scale(0.08 -0.08)">
       <use xlink:href="#Ubuntu-48"/>
       <use x="56.399994" xlink:href="#Ubuntu-46"/>
       <use x="80.999985" xlink:href="#Ubuntu-54"/>
       <use x="137.399979" xlink:href="#Ubuntu-54"/>
      </g>
     </g>
    </g>
    <g id="ytick_5">
     <g id="line2d_19">
      <path clip-path="url(#p02516cc58e)" d="M 39.814375 175.922591 
L 916.774375 175.922591 
" style="fill:none;stroke:#cbcbcb;"/>
     </g>
     <g id="line2d_20"/>
     <g id="text_11">
      <!-- 0.68 -->
      <g transform="translate(20.809375 179.026341)scale(0.08 -0.08)">
       <use xlink:href="#Ubuntu-48"/>
       <use x="56.399994" xlink:href="#Ubuntu-46"/>
       <use x="80.999985" xlink:href="#Ubuntu-54"/>
       <use x="137.399979" xlink:href="#Ubuntu-56"/>
      </g>
     </g>
    </g>
    <g id="ytick_6">
     <g id="line2d_21">
      <path clip-path="url(#p02516cc58e)" d="M 39.814375 110.031682 
L 916.774375 110.031682 
" style="fill:none;stroke:#cbcbcb;"/>
     </g>
     <g id="line2d_22"/>
     <g id="text_12">
      <!-- 0.70 -->
      <defs>
       <path d="M 16.296875 0 
Q 16.90625 8 19.15625 16.84375 
Q 21.40625 25.703125 24.703125 34.046875 
Q 28 42.40625 31.953125 49.546875 
Q 35.90625 56.703125 39.703125 61.203125 
L 6 61.203125 
L 6 69.296875 
L 50.09375 69.296875 
L 50.09375 61.59375 
Q 46.796875 57.796875 42.796875 51.140625 
Q 38.796875 44.5 35.25 36.25 
Q 31.703125 28 29.140625 18.640625 
Q 26.59375 9.296875 26 0 
z
" id="Ubuntu-55"/>
      </defs>
      <g transform="translate(20.809375 113.135432)scale(0.08 -0.08)">
       <use xlink:href="#Ubuntu-48"/>
       <use x="56.399994" xlink:href="#Ubuntu-46"/>
       <use x="80.999985" xlink:href="#Ubuntu-55"/>
       <use x="137.399979" xlink:href="#Ubuntu-48"/>
      </g>
     </g>
    </g>
    <g id="ytick_7">
     <g id="line2d_23">
      <path clip-path="url(#p02516cc58e)" d="M 39.814375 44.140773 
L 916.774375 44.140773 
" style="fill:none;stroke:#cbcbcb;"/>
     </g>
     <g id="line2d_24"/>
     <g id="text_13">
      <!-- 0.72 -->
      <g transform="translate(20.809375 47.244523)scale(0.08 -0.08)">
       <use xlink:href="#Ubuntu-48"/>
       <use x="56.399994" xlink:href="#Ubuntu-46"/>
       <use x="80.999985" xlink:href="#Ubuntu-55"/>
       <use x="137.399979" xlink:href="#Ubuntu-50"/>
      </g>
     </g>
    </g>
    <g id="text_14">
     <!-- Max Accuracy Reached -->
     <defs>
      <path d="M 26.40625 69.296875 
Q 28.203125 66 30.546875 61.140625 
Q 32.90625 56.296875 35.453125 50.640625 
Q 38 45 40.5 39.09375 
Q 43 33.203125 45.203125 28 
Q 47.40625 33.203125 49.90625 39.09375 
Q 52.40625 45 54.953125 50.640625 
Q 57.5 56.296875 59.84375 61.140625 
Q 62.203125 66 64 69.296875 
L 78.203125 69.296875 
Q 79.203125 62.40625 80.046875 53.84375 
Q 80.90625 45.296875 81.546875 36.046875 
Q 82.203125 26.796875 82.75 17.5 
Q 83.296875 8.203125 83.703125 0 
L 68.5 0 
Q 68.203125 10.09375 67.703125 22 
Q 67.203125 33.90625 66.203125 46 
Q 64.40625 41.796875 62.203125 36.6875 
Q 60 31.59375 57.84375 26.5 
Q 55.703125 21.40625 53.703125 16.75 
Q 51.703125 12.09375 50.296875 8.796875 
L 39.40625 8.796875 
Q 38 12.09375 36 16.75 
Q 34 21.40625 31.84375 26.5 
Q 29.703125 31.59375 27.5 36.6875 
Q 25.296875 41.796875 23.5 46 
Q 22.5 33.90625 22 22 
Q 21.5 10.09375 21.203125 0 
L 6 0 
Q 6.40625 8.203125 6.953125 17.5 
Q 7.5 26.796875 8.140625 36.046875 
Q 8.796875 45.296875 9.640625 53.84375 
Q 10.5 62.40625 11.5 69.296875 
z
" id="Ubuntu-Bold-77"/>
      <path d="M 27.90625 36.59375 
L 38.296875 52.59375 
L 53.703125 52.59375 
L 35.703125 27.296875 
Q 41.703125 19.796875 46.59375 12.6875 
Q 51.5 5.59375 54.40625 0 
L 38.40625 0 
Q 37.59375 1.5 36.390625 3.75 
Q 35.203125 6 33.703125 8.453125 
Q 32.203125 10.90625 30.546875 13.34375 
Q 28.90625 15.796875 27.296875 17.796875 
Q 25.796875 15.90625 24.25 13.59375 
Q 22.703125 11.296875 21.296875 8.9375 
Q 19.90625 6.59375 18.546875 4.296875 
Q 17.203125 2 16.203125 0 
L 1 0 
Q 2.203125 2.5 4.296875 5.890625 
Q 6.40625 9.296875 8.84375 12.9375 
Q 11.296875 16.59375 14 20.25 
Q 16.703125 23.90625 19.296875 27.09375 
Q 14.796875 33.40625 10.296875 39.84375 
Q 5.796875 46.296875 1.40625 52.59375 
L 17.5 52.59375 
z
" id="Ubuntu-Bold-120"/>
      <path d="M 54.40625 0 
Q 53.296875 3.59375 51.9375 7.390625 
Q 50.59375 11.203125 49.296875 15 
L 22.296875 15 
Q 21 11.203125 19.640625 7.390625 
Q 18.296875 3.59375 17.203125 0 
L 1 0 
Q 4.90625 11.203125 8.40625 20.703125 
Q 11.90625 30.203125 15.25 38.59375 
Q 18.59375 47 21.84375 54.546875 
Q 25.09375 62.09375 28.59375 69.296875 
L 43.5 69.296875 
Q 46.90625 62.09375 50.203125 54.546875 
Q 53.5 47 56.84375 38.59375 
Q 60.203125 30.203125 63.703125 20.703125 
Q 67.203125 11.203125 71.09375 0 
z
M 35.703125 53.59375 
Q 35.203125 52.09375 34.203125 49.5 
Q 33.203125 46.90625 31.890625 43.5 
Q 30.59375 40.09375 29.046875 36 
Q 27.5 31.90625 25.90625 27.40625 
L 45.59375 27.40625 
Q 44 31.90625 42.5 36 
Q 41 40.09375 39.640625 43.5 
Q 38.296875 46.90625 37.296875 49.5 
Q 36.296875 52.09375 35.703125 53.59375 
z
" id="Ubuntu-Bold-65"/>
      <path d="M 4.5 26.296875 
Q 4.5 32 6.34375 37.046875 
Q 8.203125 42.09375 11.703125 45.84375 
Q 15.203125 49.59375 20.203125 51.796875 
Q 25.203125 54 31.59375 54 
Q 35.796875 54 39.296875 53.25 
Q 42.796875 52.5 46.09375 51.09375 
L 43 39.203125 
Q 40.90625 40 38.40625 40.59375 
Q 35.90625 41.203125 32.796875 41.203125 
Q 26.203125 41.203125 22.953125 37.09375 
Q 19.703125 33 19.703125 26.296875 
Q 19.703125 19.203125 22.75 15.296875 
Q 25.796875 11.40625 33.40625 11.40625 
Q 36.09375 11.40625 39.1875 11.90625 
Q 42.296875 12.40625 44.90625 13.5 
L 47 1.296875 
Q 44.40625 0.203125 40.5 -0.59375 
Q 36.59375 -1.40625 31.90625 -1.40625 
Q 24.703125 -1.40625 19.5 0.75 
Q 14.296875 2.90625 10.9375 6.59375 
Q 7.59375 10.296875 6.046875 15.34375 
Q 4.5 20.40625 4.5 26.296875 
z
" id="Ubuntu-Bold-99"/>
      <path d="M 51.90625 1.796875 
Q 48.09375 0.703125 42.09375 -0.25 
Q 36.09375 -1.203125 29.5 -1.203125 
Q 22.796875 -1.203125 18.34375 0.59375 
Q 13.90625 2.40625 11.296875 5.65625 
Q 8.703125 8.90625 7.59375 13.40625 
Q 6.5 17.90625 6.5 23.296875 
L 6.5 52.59375 
L 21.40625 52.59375 
L 21.40625 25.09375 
Q 21.40625 17.90625 23.296875 14.703125 
Q 25.203125 11.5 30.40625 11.5 
Q 32 11.5 33.796875 11.640625 
Q 35.59375 11.796875 37 12 
L 37 52.59375 
L 51.90625 52.59375 
z
" id="Ubuntu-Bold-117"/>
      <path d="M 28.296875 70.09375 
Q 43.90625 70.09375 52.203125 64.546875 
Q 60.5 59 60.5 47.296875 
Q 60.5 40 57.140625 35.453125 
Q 53.796875 30.90625 47.5 28.296875 
Q 49.59375 25.703125 51.890625 22.34375 
Q 54.203125 19 56.453125 15.34375 
Q 58.703125 11.703125 60.796875 7.75 
Q 62.90625 3.796875 64.703125 0 
L 47.203125 0 
Q 45.296875 3.40625 43.34375 6.90625 
Q 41.40625 10.40625 39.34375 13.703125 
Q 37.296875 17 35.296875 19.953125 
Q 33.296875 22.90625 31.296875 25.296875 
L 23.59375 25.296875 
L 23.59375 0 
L 8 0 
L 8 68.296875 
Q 13.09375 69.296875 18.546875 69.6875 
Q 24 70.09375 28.296875 70.09375 
z
M 29.203125 56.796875 
Q 27.5 56.796875 26.140625 56.6875 
Q 24.796875 56.59375 23.59375 56.5 
L 23.59375 37.703125 
L 28 37.703125 
Q 36.796875 37.703125 40.59375 39.890625 
Q 44.40625 42.09375 44.40625 47.40625 
Q 44.40625 52.5 40.546875 54.640625 
Q 36.703125 56.796875 29.203125 56.796875 
z
" id="Ubuntu-Bold-82"/>
      <path d="M 7 0 
L 7 75.203125 
L 21.90625 77.59375 
L 21.90625 52.40625 
Q 23.40625 52.90625 25.75 53.34375 
Q 28.09375 53.796875 30.296875 53.796875 
Q 36.703125 53.796875 40.953125 52.046875 
Q 45.203125 50.296875 47.75 47.09375 
Q 50.296875 43.90625 51.34375 39.5 
Q 52.40625 35.09375 52.40625 29.703125 
L 52.40625 0 
L 37.5 0 
L 37.5 27.90625 
Q 37.5 35.09375 35.640625 38.09375 
Q 33.796875 41.09375 28.796875 41.09375 
Q 26.796875 41.09375 25.046875 40.75 
Q 23.296875 40.40625 21.90625 40 
L 21.90625 0 
z
" id="Ubuntu-Bold-104"/>
     </defs>
     <g transform="translate(14.959375 296.295531)rotate(-90)scale(0.1 -0.1)">
      <use xlink:href="#Ubuntu-Bold-77"/>
      <use x="89.699982" xlink:href="#Ubuntu-Bold-97"/>
      <use x="144.999969" xlink:href="#Ubuntu-Bold-120"/>
      <use x="200.399963" xlink:href="#Ubuntu-Bold-32"/>
      <use x="224.399948" xlink:href="#Ubuntu-Bold-65"/>
      <use x="296.484314" xlink:href="#Ubuntu-Bold-99"/>
      <use x="346.453049" xlink:href="#Ubuntu-Bold-99"/>
      <use x="396.453033" xlink:href="#Ubuntu-Bold-117"/>
      <use x="455.353027" xlink:href="#Ubuntu-Bold-114"/>
      <use x="497.537399" xlink:href="#Ubuntu-Bold-97"/>
      <use x="552.837387" xlink:href="#Ubuntu-Bold-99"/>
      <use x="602.837372" xlink:href="#Ubuntu-Bold-121"/>
      <use x="657.537369" xlink:href="#Ubuntu-Bold-32"/>
      <use x="681.537354" xlink:href="#Ubuntu-Bold-82"/>
      <use x="748.2061" xlink:href="#Ubuntu-Bold-101"/>
      <use x="806.606094" xlink:href="#Ubuntu-Bold-97"/>
      <use x="861.906082" xlink:href="#Ubuntu-Bold-99"/>
      <use x="911.906067" xlink:href="#Ubuntu-Bold-104"/>
      <use x="970.806061" xlink:href="#Ubuntu-Bold-101"/>
      <use x="1029.206055" xlink:href="#Ubuntu-Bold-100"/>
     </g>
    </g>
   </g>
   <g id="line2d_25">
    <path clip-path="url(#p02516cc58e)" d="M 79.676193 44.140773 
L 168.258011 44.140773 
L 256.83983 44.140773 
L 345.421648 44.140773 
L 434.003466 44.140773 
L 522.585284 44.140773 
L 611.167102 44.140773 
L 699.74892 44.140773 
L 788.330739 44.140773 
L 876.912557 44.140773 
" style="fill:none;stroke:#008fd5;stroke-opacity:0.7;stroke-width:4;"/>
    <defs>
     <path d="M 0 -3 
L -0.673542 -0.927051 
L -2.85317 -0.927051 
L -1.089814 0.354102 
L -1.763356 2.427051 
L -0 1.145898 
L 1.763356 2.427051 
L 1.089814 0.354102 
L 2.85317 -0.927051 
L 0.673542 -0.927051 
z
" id="m10c9215e9f" style="stroke:#008fd5;stroke-linejoin:bevel;stroke-opacity:0.7;"/>
    </defs>
    <g clip-path="url(#p02516cc58e)">
     <use style="fill:#008fd5;fill-opacity:0.7;stroke:#008fd5;stroke-linejoin:bevel;stroke-opacity:0.7;" x="79.676193" xlink:href="#m10c9215e9f" y="44.140773"/>
     <use style="fill:#008fd5;fill-opacity:0.7;stroke:#008fd5;stroke-linejoin:bevel;stroke-opacity:0.7;" x="168.258011" xlink:href="#m10c9215e9f" y="44.140773"/>
     <use style="fill:#008fd5;fill-opacity:0.7;stroke:#008fd5;stroke-linejoin:bevel;stroke-opacity:0.7;" x="256.83983" xlink:href="#m10c9215e9f" y="44.140773"/>
     <use style="fill:#008fd5;fill-opacity:0.7;stroke:#008fd5;stroke-linejoin:bevel;stroke-opacity:0.7;" x="345.421648" xlink:href="#m10c9215e9f" y="44.140773"/>
     <use style="fill:#008fd5;fill-opacity:0.7;stroke:#008fd5;stroke-linejoin:bevel;stroke-opacity:0.7;" x="434.003466" xlink:href="#m10c9215e9f" y="44.140773"/>
     <use style="fill:#008fd5;fill-opacity:0.7;stroke:#008fd5;stroke-linejoin:bevel;stroke-opacity:0.7;" x="522.585284" xlink:href="#m10c9215e9f" y="44.140773"/>
     <use style="fill:#008fd5;fill-opacity:0.7;stroke:#008fd5;stroke-linejoin:bevel;stroke-opacity:0.7;" x="611.167102" xlink:href="#m10c9215e9f" y="44.140773"/>
     <use style="fill:#008fd5;fill-opacity:0.7;stroke:#008fd5;stroke-linejoin:bevel;stroke-opacity:0.7;" x="699.74892" xlink:href="#m10c9215e9f" y="44.140773"/>
     <use style="fill:#008fd5;fill-opacity:0.7;stroke:#008fd5;stroke-linejoin:bevel;stroke-opacity:0.7;" x="788.330739" xlink:href="#m10c9215e9f" y="44.140773"/>
     <use style="fill:#008fd5;fill-opacity:0.7;stroke:#008fd5;stroke-linejoin:bevel;stroke-opacity:0.7;" x="876.912557" xlink:href="#m10c9215e9f" y="44.140773"/>
    </g>
   </g>
   <g id="line2d_26">
    <path clip-path="url(#p02516cc58e)" d="M 79.676193 439.486227 
L 168.258011 439.486227 
L 256.83983 439.486227 
L 345.421648 439.486227 
L 434.003466 241.8135 
L 522.585284 241.8135 
L 611.167102 241.8135 
L 699.74892 241.8135 
L 788.330739 241.8135 
L 876.912557 241.8135 
" style="fill:none;stroke:#fc4f30;stroke-dasharray:4,6.6;stroke-dashoffset:0;stroke-opacity:0.7;stroke-width:4;"/>
    <defs>
     <path d="M 0 3 
C 0.795609 3 1.55874 2.683901 2.12132 2.12132 
C 2.683901 1.55874 3 0.795609 3 0 
C 3 -0.795609 2.683901 -1.55874 2.12132 -2.12132 
C 1.55874 -2.683901 0.795609 -3 0 -3 
C -0.795609 -3 -1.55874 -2.683901 -2.12132 -2.12132 
C -2.683901 -1.55874 -3 -0.795609 -3 0 
C -3 0.795609 -2.683901 1.55874 -2.12132 2.12132 
C -1.55874 2.683901 -0.795609 3 0 3 
z
" id="mc7fb72660b" style="stroke:#fc4f30;stroke-opacity:0.7;"/>
    </defs>
    <g clip-path="url(#p02516cc58e)">
     <use style="fill:#fc4f30;fill-opacity:0.7;stroke:#fc4f30;stroke-opacity:0.7;" x="79.676193" xlink:href="#mc7fb72660b" y="439.486227"/>
     <use style="fill:#fc4f30;fill-opacity:0.7;stroke:#fc4f30;stroke-opacity:0.7;" x="168.258011" xlink:href="#mc7fb72660b" y="439.486227"/>
     <use style="fill:#fc4f30;fill-opacity:0.7;stroke:#fc4f30;stroke-opacity:0.7;" x="256.83983" xlink:href="#mc7fb72660b" y="439.486227"/>
     <use style="fill:#fc4f30;fill-opacity:0.7;stroke:#fc4f30;stroke-opacity:0.7;" x="345.421648" xlink:href="#mc7fb72660b" y="439.486227"/>
     <use style="fill:#fc4f30;fill-opacity:0.7;stroke:#fc4f30;stroke-opacity:0.7;" x="434.003466" xlink:href="#mc7fb72660b" y="241.8135"/>
     <use style="fill:#fc4f30;fill-opacity:0.7;stroke:#fc4f30;stroke-opacity:0.7;" x="522.585284" xlink:href="#mc7fb72660b" y="241.8135"/>
     <use style="fill:#fc4f30;fill-opacity:0.7;stroke:#fc4f30;stroke-opacity:0.7;" x="611.167102" xlink:href="#mc7fb72660b" y="241.8135"/>
     <use style="fill:#fc4f30;fill-opacity:0.7;stroke:#fc4f30;stroke-opacity:0.7;" x="699.74892" xlink:href="#mc7fb72660b" y="241.8135"/>
     <use style="fill:#fc4f30;fill-opacity:0.7;stroke:#fc4f30;stroke-opacity:0.7;" x="788.330739" xlink:href="#mc7fb72660b" y="241.8135"/>
     <use style="fill:#fc4f30;fill-opacity:0.7;stroke:#fc4f30;stroke-opacity:0.7;" x="876.912557" xlink:href="#mc7fb72660b" y="241.8135"/>
    </g>
   </g>
   <g id="line2d_27">
    <path clip-path="url(#p02516cc58e)" d="M 79.676193 439.486227 
L 168.258011 439.486227 
L 256.83983 439.486227 
L 345.421648 175.922591 
L 434.003466 142.977136 
L 522.585284 110.031682 
L 611.167102 110.031682 
L 699.74892 110.031682 
L 788.330739 110.031682 
L 876.912557 110.031682 
" style="fill:none;stroke:#e5ae38;stroke-dasharray:14.8,6.4;stroke-dashoffset:0;stroke-opacity:0.7;stroke-width:4;"/>
    <defs>
     <path d="M -0 3 
L 3 -3 
L -3 -3 
z
" id="mceb0a681d0" style="stroke:#e5ae38;stroke-linejoin:miter;stroke-opacity:0.7;"/>
    </defs>
    <g clip-path="url(#p02516cc58e)">
     <use style="fill:#e5ae38;fill-opacity:0.7;stroke:#e5ae38;stroke-linejoin:miter;stroke-opacity:0.7;" x="79.676193" xlink:href="#mceb0a681d0" y="439.486227"/>
     <use style="fill:#e5ae38;fill-opacity:0.7;stroke:#e5ae38;stroke-linejoin:miter;stroke-opacity:0.7;" x="168.258011" xlink:href="#mceb0a681d0" y="439.486227"/>
     <use style="fill:#e5ae38;fill-opacity:0.7;stroke:#e5ae38;stroke-linejoin:miter;stroke-opacity:0.7;" x="256.83983" xlink:href="#mceb0a681d0" y="439.486227"/>
     <use style="fill:#e5ae38;fill-opacity:0.7;stroke:#e5ae38;stroke-linejoin:miter;stroke-opacity:0.7;" x="345.421648" xlink:href="#mceb0a681d0" y="175.922591"/>
     <use style="fill:#e5ae38;fill-opacity:0.7;stroke:#e5ae38;stroke-linejoin:miter;stroke-opacity:0.7;" x="434.003466" xlink:href="#mceb0a681d0" y="142.977136"/>
     <use style="fill:#e5ae38;fill-opacity:0.7;stroke:#e5ae38;stroke-linejoin:miter;stroke-opacity:0.7;" x="522.585284" xlink:href="#mceb0a681d0" y="110.031682"/>
     <use style="fill:#e5ae38;fill-opacity:0.7;stroke:#e5ae38;stroke-linejoin:miter;stroke-opacity:0.7;" x="611.167102" xlink:href="#mceb0a681d0" y="110.031682"/>
     <use style="fill:#e5ae38;fill-opacity:0.7;stroke:#e5ae38;stroke-linejoin:miter;stroke-opacity:0.7;" x="699.74892" xlink:href="#mceb0a681d0" y="110.031682"/>
     <use style="fill:#e5ae38;fill-opacity:0.7;stroke:#e5ae38;stroke-linejoin:miter;stroke-opacity:0.7;" x="788.330739" xlink:href="#mceb0a681d0" y="110.031682"/>
     <use style="fill:#e5ae38;fill-opacity:0.7;stroke:#e5ae38;stroke-linejoin:miter;stroke-opacity:0.7;" x="876.912557" xlink:href="#mceb0a681d0" y="110.031682"/>
    </g>
   </g>
   <g id="line2d_28">
    <path clip-path="url(#p02516cc58e)" d="M 79.676193 439.486227 
L 168.258011 439.486227 
L 256.83983 439.486227 
L 345.421648 142.977136 
L 434.003466 142.977136 
L 522.585284 142.977136 
L 611.167102 142.977136 
L 699.74892 142.977136 
L 788.330739 142.977136 
L 876.912557 142.977136 
" style="fill:none;stroke:#6d904f;stroke-dasharray:25.6,6.4,4,6.4;stroke-dashoffset:0;stroke-opacity:0.7;stroke-width:4;"/>
    <defs>
     <path d="M 3 0 
L -3 -3 
L -3 3 
z
" id="m0e89d8c859" style="stroke:#6d904f;stroke-linejoin:miter;stroke-opacity:0.7;"/>
    </defs>
    <g clip-path="url(#p02516cc58e)">
     <use style="fill:#6d904f;fill-opacity:0.7;stroke:#6d904f;stroke-linejoin:miter;stroke-opacity:0.7;" x="79.676193" xlink:href="#m0e89d8c859" y="439.486227"/>
     <use style="fill:#6d904f;fill-opacity:0.7;stroke:#6d904f;stroke-linejoin:miter;stroke-opacity:0.7;" x="168.258011" xlink:href="#m0e89d8c859" y="439.486227"/>
     <use style="fill:#6d904f;fill-opacity:0.7;stroke:#6d904f;stroke-linejoin:miter;stroke-opacity:0.7;" x="256.83983" xlink:href="#m0e89d8c859" y="439.486227"/>
     <use style="fill:#6d904f;fill-opacity:0.7;stroke:#6d904f;stroke-linejoin:miter;stroke-opacity:0.7;" x="345.421648" xlink:href="#m0e89d8c859" y="142.977136"/>
     <use style="fill:#6d904f;fill-opacity:0.7;stroke:#6d904f;stroke-linejoin:miter;stroke-opacity:0.7;" x="434.003466" xlink:href="#m0e89d8c859" y="142.977136"/>
     <use style="fill:#6d904f;fill-opacity:0.7;stroke:#6d904f;stroke-linejoin:miter;stroke-opacity:0.7;" x="522.585284" xlink:href="#m0e89d8c859" y="142.977136"/>
     <use style="fill:#6d904f;fill-opacity:0.7;stroke:#6d904f;stroke-linejoin:miter;stroke-opacity:0.7;" x="611.167102" xlink:href="#m0e89d8c859" y="142.977136"/>
     <use style="fill:#6d904f;fill-opacity:0.7;stroke:#6d904f;stroke-linejoin:miter;stroke-opacity:0.7;" x="699.74892" xlink:href="#m0e89d8c859" y="142.977136"/>
     <use style="fill:#6d904f;fill-opacity:0.7;stroke:#6d904f;stroke-linejoin:miter;stroke-opacity:0.7;" x="788.330739" xlink:href="#m0e89d8c859" y="142.977136"/>
     <use style="fill:#6d904f;fill-opacity:0.7;stroke:#6d904f;stroke-linejoin:miter;stroke-opacity:0.7;" x="876.912557" xlink:href="#m0e89d8c859" y="142.977136"/>
    </g>
   </g>
   <g id="line2d_29">
    <path clip-path="url(#p02516cc58e)" d="M 79.676193 439.486227 
L 168.258011 439.486227 
L 256.83983 142.977136 
L 345.421648 142.977136 
L 434.003466 142.977136 
L 522.585284 142.977136 
L 611.167102 142.977136 
L 699.74892 77.086227 
L 788.330739 77.086227 
L 876.912557 77.086227 
" style="fill:none;stroke:#8b8b8b;stroke-dasharray:4,6.6;stroke-dashoffset:0;stroke-opacity:0.7;stroke-width:4;"/>
    <defs>
     <path d="M -3 -0 
L 3 3 
L 3 -3 
z
" id="md3ac99a195" style="stroke:#8b8b8b;stroke-linejoin:miter;stroke-opacity:0.7;"/>
    </defs>
    <g clip-path="url(#p02516cc58e)">
     <use style="fill:#8b8b8b;fill-opacity:0.7;stroke:#8b8b8b;stroke-linejoin:miter;stroke-opacity:0.7;" x="79.676193" xlink:href="#md3ac99a195" y="439.486227"/>
     <use style="fill:#8b8b8b;fill-opacity:0.7;stroke:#8b8b8b;stroke-linejoin:miter;stroke-opacity:0.7;" x="168.258011" xlink:href="#md3ac99a195" y="439.486227"/>
     <use style="fill:#8b8b8b;fill-opacity:0.7;stroke:#8b8b8b;stroke-linejoin:miter;stroke-opacity:0.7;" x="256.83983" xlink:href="#md3ac99a195" y="142.977136"/>
     <use style="fill:#8b8b8b;fill-opacity:0.7;stroke:#8b8b8b;stroke-linejoin:miter;stroke-opacity:0.7;" x="345.421648" xlink:href="#md3ac99a195" y="142.977136"/>
     <use style="fill:#8b8b8b;fill-opacity:0.7;stroke:#8b8b8b;stroke-linejoin:miter;stroke-opacity:0.7;" x="434.003466" xlink:href="#md3ac99a195" y="142.977136"/>
     <use style="fill:#8b8b8b;fill-opacity:0.7;stroke:#8b8b8b;stroke-linejoin:miter;stroke-opacity:0.7;" x="522.585284" xlink:href="#md3ac99a195" y="142.977136"/>
     <use style="fill:#8b8b8b;fill-opacity:0.7;stroke:#8b8b8b;stroke-linejoin:miter;stroke-opacity:0.7;" x="611.167102" xlink:href="#md3ac99a195" y="142.977136"/>
     <use style="fill:#8b8b8b;fill-opacity:0.7;stroke:#8b8b8b;stroke-linejoin:miter;stroke-opacity:0.7;" x="699.74892" xlink:href="#md3ac99a195" y="77.086227"/>
     <use style="fill:#8b8b8b;fill-opacity:0.7;stroke:#8b8b8b;stroke-linejoin:miter;stroke-opacity:0.7;" x="788.330739" xlink:href="#md3ac99a195" y="77.086227"/>
     <use style="fill:#8b8b8b;fill-opacity:0.7;stroke:#8b8b8b;stroke-linejoin:miter;stroke-opacity:0.7;" x="876.912557" xlink:href="#md3ac99a195" y="77.086227"/>
    </g>
   </g>
   <g id="patch_3">
    <path d="M 39.814375 459.2535 
L 39.814375 24.3735 
" style="fill:none;stroke:#f0f0f0;stroke-linecap:square;stroke-linejoin:miter;stroke-width:3;"/>
   </g>
   <g id="patch_4">
    <path d="M 916.774375 459.2535 
L 916.774375 24.3735 
" style="fill:none;stroke:#f0f0f0;stroke-linecap:square;stroke-linejoin:miter;stroke-width:3;"/>
   </g>
   <g id="patch_5">
    <path d="M 39.814375 459.2535 
L 916.774375 459.2535 
" style="fill:none;stroke:#f0f0f0;stroke-linecap:square;stroke-linejoin:miter;stroke-width:3;"/>
   </g>
   <g id="patch_6">
    <path d="M 39.814375 24.3735 
L 916.774375 24.3735 
" style="fill:none;stroke:#f0f0f0;stroke-linecap:square;stroke-linejoin:miter;stroke-width:3;"/>
   </g>
   <g id="text_15">
    <!-- Comparison between methods vs Global Optimum -->
    <defs>
     <path d="M 38.40625 -1.5 
Q 31.09375 -1.5 25.09375 0.890625 
Q 19.09375 3.296875 14.796875 7.890625 
Q 10.5 12.5 8.140625 19.25 
Q 5.796875 26 5.796875 34.703125 
Q 5.796875 43.40625 8.4375 50.15625 
Q 11.09375 56.90625 15.59375 61.5 
Q 20.09375 66.09375 26.09375 68.5 
Q 32.09375 70.90625 38.90625 70.90625 
Q 43.203125 70.90625 46.640625 70.296875 
Q 50.09375 69.703125 52.640625 68.890625 
Q 55.203125 68.09375 56.796875 67.296875 
Q 58.40625 66.5 59 66.09375 
L 56.203125 58.09375 
Q 55.296875 58.703125 53.59375 59.390625 
Q 51.90625 60.09375 49.75 60.796875 
Q 47.59375 61.5 45.046875 61.953125 
Q 42.5 62.40625 39.90625 62.40625 
Q 34.40625 62.40625 30 60.5 
Q 25.59375 58.59375 22.5 55 
Q 19.40625 51.40625 17.75 46.25 
Q 16.09375 41.09375 16.09375 34.703125 
Q 16.09375 28.5 17.546875 23.390625 
Q 19 18.296875 21.890625 14.640625 
Q 24.796875 11 29.140625 9 
Q 33.5 7 39.296875 7 
Q 46 7 50.390625 8.390625 
Q 54.796875 9.796875 57 10.90625 
L 59.5 2.90625 
Q 58.796875 2.40625 57 1.65625 
Q 55.203125 0.90625 52.5 0.203125 
Q 49.796875 -0.5 46.1875 -1 
Q 42.59375 -1.5 38.40625 -1.5 
z
" id="Ubuntu-67"/>
     <path d="M 53.90625 26 
Q 53.90625 19.796875 52.09375 14.796875 
Q 50.296875 9.796875 47.046875 6.1875 
Q 43.796875 2.59375 39.296875 0.640625 
Q 34.796875 -1.296875 29.5 -1.296875 
Q 24.203125 -1.296875 19.703125 0.640625 
Q 15.203125 2.59375 11.953125 6.1875 
Q 8.703125 9.796875 6.890625 14.796875 
Q 5.09375 19.796875 5.09375 26 
Q 5.09375 32.09375 6.890625 37.140625 
Q 8.703125 42.203125 11.953125 45.796875 
Q 15.203125 49.40625 19.703125 51.34375 
Q 24.203125 53.296875 29.5 53.296875 
Q 34.796875 53.296875 39.296875 51.34375 
Q 43.796875 49.40625 47.046875 45.796875 
Q 50.296875 42.203125 52.09375 37.140625 
Q 53.90625 32.09375 53.90625 26 
z
M 44.203125 26 
Q 44.203125 34.796875 40.25 39.9375 
Q 36.296875 45.09375 29.5 45.09375 
Q 22.703125 45.09375 18.75 39.9375 
Q 14.796875 34.796875 14.796875 26 
Q 14.796875 17.203125 18.75 12.046875 
Q 22.703125 6.90625 29.5 6.90625 
Q 36.296875 6.90625 40.25 12.046875 
Q 44.203125 17.203125 44.203125 26 
z
" id="Ubuntu-111"/>
     <path d="M 8 50.5 
Q 11.203125 51.296875 16.453125 52.1875 
Q 21.703125 53.09375 28.59375 53.09375 
Q 33.59375 53.09375 37 51.75 
Q 40.40625 50.40625 42.703125 47.796875 
Q 43.40625 48.296875 44.90625 49.1875 
Q 46.40625 50.09375 48.59375 50.9375 
Q 50.796875 51.796875 53.5 52.4375 
Q 56.203125 53.09375 59.296875 53.09375 
Q 65.296875 53.09375 69.09375 51.34375 
Q 72.90625 49.59375 75.046875 46.390625 
Q 77.203125 43.203125 77.953125 38.796875 
Q 78.703125 34.40625 78.703125 29.203125 
L 78.703125 0 
L 69.40625 0 
L 69.40625 27.203125 
Q 69.40625 31.796875 68.953125 35.09375 
Q 68.5 38.40625 67.25 40.59375 
Q 66 42.796875 63.84375 43.84375 
Q 61.703125 44.90625 58.296875 44.90625 
Q 53.59375 44.90625 50.546875 43.65625 
Q 47.5 42.40625 46.40625 41.40625 
Q 47.203125 38.796875 47.59375 35.6875 
Q 48 32.59375 48 29.203125 
L 48 0 
L 38.703125 0 
L 38.703125 27.203125 
Q 38.703125 31.796875 38.203125 35.09375 
Q 37.703125 38.40625 36.453125 40.59375 
Q 35.203125 42.796875 33.046875 43.84375 
Q 30.90625 44.90625 27.59375 44.90625 
Q 26.203125 44.90625 24.59375 44.796875 
Q 23 44.703125 21.546875 44.546875 
Q 20.09375 44.40625 18.890625 44.203125 
Q 17.703125 44 17.296875 43.90625 
L 17.296875 0 
L 8 0 
z
" id="Ubuntu-109"/>
     <path d="M 44.09375 25.90625 
Q 44.09375 35 39.59375 39.890625 
Q 35.09375 44.796875 27.59375 44.796875 
Q 23.40625 44.796875 21.046875 44.5 
Q 18.703125 44.203125 17.296875 43.796875 
L 17.296875 11 
Q 19 9.59375 22.203125 8.296875 
Q 25.40625 7 29.203125 7 
Q 33.203125 7 36.046875 8.453125 
Q 38.90625 9.90625 40.703125 12.453125 
Q 42.5 15 43.296875 18.453125 
Q 44.09375 21.90625 44.09375 25.90625 
z
M 53.796875 25.90625 
Q 53.796875 20 52.25 15 
Q 50.703125 10 47.703125 6.390625 
Q 44.703125 2.796875 40.34375 0.796875 
Q 36 -1.203125 30.40625 -1.203125 
Q 25.90625 -1.203125 22.453125 0 
Q 19 1.203125 17.296875 2.296875 
L 17.296875 -18.5 
L 8 -18.5 
L 8 50.40625 
Q 11.296875 51.203125 16.25 52.140625 
Q 21.203125 53.09375 27.703125 53.09375 
Q 33.703125 53.09375 38.5 51.1875 
Q 43.296875 49.296875 46.6875 45.796875 
Q 50.09375 42.296875 51.9375 37.25 
Q 53.796875 32.203125 53.796875 25.90625 
z
" id="Ubuntu-112"/>
     <path d="M 25.59375 6.703125 
Q 28.90625 6.703125 31.453125 6.84375 
Q 34 7 35.703125 7.40625 
L 35.703125 22.90625 
Q 34.703125 23.40625 32.453125 23.75 
Q 30.203125 24.09375 27 24.09375 
Q 24.90625 24.09375 22.546875 23.796875 
Q 20.203125 23.5 18.25 22.546875 
Q 16.296875 21.59375 15 19.9375 
Q 13.703125 18.296875 13.703125 15.59375 
Q 13.703125 10.59375 16.890625 8.640625 
Q 20.09375 6.703125 25.59375 6.703125 
z
M 24.796875 53.296875 
Q 30.40625 53.296875 34.25 51.84375 
Q 38.09375 50.40625 40.4375 47.75 
Q 42.796875 45.09375 43.796875 41.4375 
Q 44.796875 37.796875 44.796875 33.40625 
L 44.796875 0.90625 
Q 43.59375 0.703125 41.4375 0.34375 
Q 39.296875 0 36.59375 -0.296875 
Q 33.90625 -0.59375 30.75 -0.84375 
Q 27.59375 -1.09375 24.5 -1.09375 
Q 20.09375 -1.09375 16.390625 -0.1875 
Q 12.703125 0.703125 10 2.640625 
Q 7.296875 4.59375 5.796875 7.796875 
Q 4.296875 11 4.296875 15.5 
Q 4.296875 19.796875 6.046875 22.890625 
Q 7.796875 26 10.796875 27.890625 
Q 13.796875 29.796875 17.796875 30.6875 
Q 21.796875 31.59375 26.203125 31.59375 
Q 27.59375 31.59375 29.09375 31.4375 
Q 30.59375 31.296875 31.9375 31.046875 
Q 33.296875 30.796875 34.296875 30.59375 
Q 35.296875 30.40625 35.703125 30.296875 
L 35.703125 32.90625 
Q 35.703125 35.203125 35.203125 37.453125 
Q 34.703125 39.703125 33.390625 41.453125 
Q 32.09375 43.203125 29.84375 44.25 
Q 27.59375 45.296875 24 45.296875 
Q 19.40625 45.296875 15.953125 44.640625 
Q 12.5 44 10.796875 43.296875 
L 9.703125 51 
Q 11.5 51.796875 15.703125 52.546875 
Q 19.90625 53.296875 24.796875 53.296875 
z
" id="Ubuntu-97"/>
     <path d="M 27.203125 53.09375 
Q 28.40625 53.09375 29.953125 52.9375 
Q 31.5 52.796875 33 52.546875 
Q 34.5 52.296875 35.75 52.046875 
Q 37 51.796875 37.59375 51.59375 
L 36 43.5 
Q 34.90625 43.90625 32.34375 44.453125 
Q 29.796875 45 25.796875 45 
Q 23.203125 45 20.640625 44.453125 
Q 18.09375 43.90625 17.296875 43.703125 
L 17.296875 0 
L 8 0 
L 8 49.796875 
Q 11.296875 51 16.1875 52.046875 
Q 21.09375 53.09375 27.203125 53.09375 
z
" id="Ubuntu-114"/>
     <path d="M 17.296875 0 
L 8 0 
L 8 52 
L 17.296875 52 
z
M 12.59375 61.40625 
Q 10.09375 61.40625 8.34375 63.046875 
Q 6.59375 64.703125 6.59375 67.5 
Q 6.59375 70.296875 8.34375 71.9375 
Q 10.09375 73.59375 12.59375 73.59375 
Q 15.09375 73.59375 16.84375 71.9375 
Q 18.59375 70.296875 18.59375 67.5 
Q 18.59375 64.703125 16.84375 63.046875 
Q 15.09375 61.40625 12.59375 61.40625 
z
" id="Ubuntu-105"/>
     <path d="M 20.09375 6.703125 
Q 25.796875 6.703125 28.546875 8.203125 
Q 31.296875 9.703125 31.296875 13 
Q 31.296875 16.40625 28.59375 18.40625 
Q 25.90625 20.40625 19.703125 22.90625 
Q 16.703125 24.09375 13.953125 25.34375 
Q 11.203125 26.59375 9.203125 28.296875 
Q 7.203125 30 6 32.390625 
Q 4.796875 34.796875 4.796875 38.296875 
Q 4.796875 45.203125 9.890625 49.25 
Q 15 53.296875 23.796875 53.296875 
Q 26 53.296875 28.203125 53.046875 
Q 30.40625 52.796875 32.296875 52.4375 
Q 34.203125 52.09375 35.640625 51.6875 
Q 37.09375 51.296875 37.90625 51 
L 36.203125 43 
Q 34.703125 43.796875 31.5 44.640625 
Q 28.296875 45.5 23.796875 45.5 
Q 19.90625 45.5 17 43.953125 
Q 14.09375 42.40625 14.09375 39.09375 
Q 14.09375 37.40625 14.75 36.09375 
Q 15.40625 34.796875 16.75 33.75 
Q 18.09375 32.703125 20.09375 31.796875 
Q 22.09375 30.90625 24.90625 29.90625 
Q 28.59375 28.5 31.5 27.140625 
Q 34.40625 25.796875 36.453125 24 
Q 38.5 22.203125 39.59375 19.640625 
Q 40.703125 17.09375 40.703125 13.40625 
Q 40.703125 6.203125 35.34375 2.5 
Q 30 -1.203125 20.09375 -1.203125 
Q 13.203125 -1.203125 9.296875 -0.046875 
Q 5.40625 1.09375 4 1.703125 
L 5.703125 9.703125 
Q 7.296875 9.09375 10.796875 7.890625 
Q 14.296875 6.703125 20.09375 6.703125 
z
" id="Ubuntu-115"/>
     <path d="M 8 50.5 
Q 11.203125 51.296875 16.5 52.1875 
Q 21.796875 53.09375 28.703125 53.09375 
Q 34.90625 53.09375 39 51.34375 
Q 43.09375 49.59375 45.546875 46.4375 
Q 48 43.296875 49 38.890625 
Q 50 34.5 50 29.203125 
L 50 0 
L 40.703125 0 
L 40.703125 27.203125 
Q 40.703125 32 40.046875 35.390625 
Q 39.40625 38.796875 37.90625 40.890625 
Q 36.40625 43 33.90625 43.953125 
Q 31.40625 44.90625 27.703125 44.90625 
Q 26.203125 44.90625 24.59375 44.796875 
Q 23 44.703125 21.546875 44.546875 
Q 20.09375 44.40625 18.9375 44.203125 
Q 17.796875 44 17.296875 43.90625 
L 17.296875 0 
L 8 0 
z
" id="Ubuntu-110"/>
     <path id="Ubuntu-32"/>
     <path d="M 17.296875 49.703125 
Q 19 50.796875 22.453125 52 
Q 25.90625 53.203125 30.40625 53.203125 
Q 36 53.203125 40.34375 51.203125 
Q 44.703125 49.203125 47.703125 45.59375 
Q 50.703125 42 52.25 37 
Q 53.796875 32 53.796875 26 
Q 53.796875 19.703125 51.9375 14.640625 
Q 50.09375 9.59375 46.6875 6.09375 
Q 43.296875 2.59375 38.5 0.6875 
Q 33.703125 -1.203125 27.703125 -1.203125 
Q 21.203125 -1.203125 16.203125 -0.296875 
Q 11.203125 0.59375 8 1.5 
L 8 76 
L 17.296875 77.59375 
z
M 17.296875 8.09375 
Q 18.703125 7.703125 21.25 7.34375 
Q 23.796875 7 27.59375 7 
Q 35.09375 7 39.59375 11.953125 
Q 44.09375 16.90625 44.09375 26 
Q 44.09375 30 43.296875 33.5 
Q 42.5 37 40.703125 39.546875 
Q 38.90625 42.09375 36.046875 43.546875 
Q 33.203125 45 29.203125 45 
Q 25.40625 45 22.203125 43.703125 
Q 19 42.40625 17.296875 41 
z
" id="Ubuntu-98"/>
     <path d="M 5.09375 25.90625 
Q 5.09375 32.796875 7.09375 37.9375 
Q 9.09375 43.09375 12.390625 46.5 
Q 15.703125 49.90625 20 51.59375 
Q 24.296875 53.296875 28.796875 53.296875 
Q 39.296875 53.296875 44.890625 46.75 
Q 50.5 40.203125 50.5 26.796875 
Q 50.5 26.203125 50.5 25.25 
Q 50.5 24.296875 50.40625 23.5 
L 14.796875 23.5 
Q 15.40625 15.40625 19.5 11.203125 
Q 23.59375 7 32.296875 7 
Q 37.203125 7 40.546875 7.84375 
Q 43.90625 8.703125 45.59375 9.5 
L 46.90625 1.703125 
Q 45.203125 0.796875 40.953125 -0.203125 
Q 36.703125 -1.203125 31.296875 -1.203125 
Q 24.5 -1.203125 19.546875 0.84375 
Q 14.59375 2.90625 11.390625 6.5 
Q 8.203125 10.09375 6.640625 15.046875 
Q 5.09375 20 5.09375 25.90625 
z
M 40.796875 31 
Q 40.90625 37.296875 37.65625 41.34375 
Q 34.40625 45.40625 28.703125 45.40625 
Q 25.5 45.40625 23.046875 44.15625 
Q 20.59375 42.90625 18.890625 40.90625 
Q 17.203125 38.90625 16.25 36.296875 
Q 15.296875 33.703125 15 31 
z
" id="Ubuntu-101"/>
     <path d="M 16.703125 52 
L 36.40625 52 
L 36.40625 44.203125 
L 16.703125 44.203125 
L 16.703125 20.203125 
Q 16.703125 16.296875 17.296875 13.75 
Q 17.90625 11.203125 19.09375 9.75 
Q 20.296875 8.296875 22.09375 7.6875 
Q 23.90625 7.09375 26.296875 7.09375 
Q 30.5 7.09375 33.046875 8.046875 
Q 35.59375 9 36.59375 9.40625 
L 38.40625 1.703125 
Q 37 1 33.5 -0.046875 
Q 30 -1.09375 25.5 -1.09375 
Q 20.203125 -1.09375 16.75 0.25 
Q 13.296875 1.59375 11.1875 4.296875 
Q 9.09375 7 8.25 10.953125 
Q 7.40625 14.90625 7.40625 20.09375 
L 7.40625 66.5 
L 16.703125 68.09375 
z
" id="Ubuntu-116"/>
     <path d="M 50.5 0 
Q 47.703125 7.203125 44.546875 16.453125 
Q 41.40625 25.703125 38.796875 35.703125 
Q 36.203125 25.703125 33.09375 16.453125 
Q 30 7.203125 27.203125 0 
L 19.09375 0 
Q 14.5 10.296875 10.09375 23.5 
Q 5.703125 36.703125 1.796875 52 
L 11.796875 52 
Q 12.796875 47.296875 14.1875 41.796875 
Q 15.59375 36.296875 17.140625 30.796875 
Q 18.703125 25.296875 20.390625 20.1875 
Q 22.09375 15.09375 23.59375 11.296875 
Q 25.296875 16 26.9375 21.25 
Q 28.59375 26.5 30.09375 31.84375 
Q 31.59375 37.203125 32.9375 42.34375 
Q 34.296875 47.5 35.296875 52 
L 43 52 
Q 43.90625 47.5 45.203125 42.34375 
Q 46.5 37.203125 48 31.84375 
Q 49.5 26.5 51.140625 21.25 
Q 52.796875 16 54.5 11.296875 
Q 56 15.09375 57.640625 20.1875 
Q 59.296875 25.296875 60.890625 30.796875 
Q 62.5 36.296875 63.890625 41.796875 
Q 65.296875 47.296875 66.296875 52 
L 75.90625 52 
Q 72 36.703125 67.59375 23.5 
Q 63.203125 10.296875 58.59375 0 
z
" id="Ubuntu-119"/>
     <path d="M 8 0 
L 8 76 
L 17.296875 77.59375 
L 17.296875 51 
Q 19.90625 52 22.84375 52.546875 
Q 25.796875 53.09375 28.703125 53.09375 
Q 34.90625 53.09375 39 51.34375 
Q 43.09375 49.59375 45.546875 46.4375 
Q 48 43.296875 49 38.890625 
Q 50 34.5 50 29.203125 
L 50 0 
L 40.703125 0 
L 40.703125 27.203125 
Q 40.703125 32 40.046875 35.390625 
Q 39.40625 38.796875 37.90625 40.890625 
Q 36.40625 43 33.90625 43.953125 
Q 31.40625 44.90625 27.703125 44.90625 
Q 26.203125 44.90625 24.59375 44.703125 
Q 23 44.5 21.546875 44.25 
Q 20.09375 44 18.9375 43.703125 
Q 17.796875 43.40625 17.296875 43.203125 
L 17.296875 0 
z
" id="Ubuntu-104"/>
     <path d="M 41.59375 41 
Q 39.90625 42.40625 36.703125 43.703125 
Q 33.5 45 29.703125 45 
Q 25.703125 45 22.84375 43.546875 
Q 20 42.09375 18.203125 39.546875 
Q 16.40625 37 15.59375 33.5 
Q 14.796875 30 14.796875 26 
Q 14.796875 16.90625 19.296875 11.953125 
Q 23.796875 7 31.296875 7 
Q 35.09375 7 37.640625 7.34375 
Q 40.203125 7.703125 41.59375 8.09375 
z
M 41.59375 76 
L 50.90625 77.59375 
L 50.90625 1.5 
Q 47.703125 0.59375 42.703125 -0.296875 
Q 37.703125 -1.203125 31.203125 -1.203125 
Q 25.203125 -1.203125 20.390625 0.6875 
Q 15.59375 2.59375 12.1875 6.09375 
Q 8.796875 9.59375 6.9375 14.640625 
Q 5.09375 19.703125 5.09375 26 
Q 5.09375 32 6.640625 37 
Q 8.203125 42 11.203125 45.59375 
Q 14.203125 49.203125 18.546875 51.203125 
Q 22.90625 53.203125 28.5 53.203125 
Q 33 53.203125 36.453125 52 
Q 39.90625 50.796875 41.59375 49.703125 
z
" id="Ubuntu-100"/>
     <path d="M 48.59375 52 
Q 44.703125 37.40625 39.453125 24 
Q 34.203125 10.59375 29.296875 0 
L 20.90625 0 
Q 16 10.59375 10.75 24 
Q 5.5 37.40625 1.59375 52 
L 11.59375 52 
Q 12.796875 47.09375 14.4375 41.546875 
Q 16.09375 36 17.9375 30.546875 
Q 19.796875 25.09375 21.6875 20 
Q 23.59375 14.90625 25.296875 10.90625 
Q 27 14.90625 28.890625 20 
Q 30.796875 25.09375 32.640625 30.546875 
Q 34.5 36 36.140625 41.546875 
Q 37.796875 47.09375 39 52 
z
" id="Ubuntu-118"/>
     <path d="M 50.90625 34.09375 
L 60.59375 34.09375 
L 60.59375 1.703125 
Q 59.40625 1.296875 57.15625 0.796875 
Q 54.90625 0.296875 51.953125 -0.203125 
Q 49 -0.703125 45.5 -1.046875 
Q 42 -1.40625 38.40625 -1.40625 
Q 31.09375 -1.40625 25.09375 1 
Q 19.09375 3.40625 14.796875 8 
Q 10.5 12.59375 8.140625 19.296875 
Q 5.796875 26 5.796875 34.703125 
Q 5.796875 43.40625 8.4375 50.15625 
Q 11.09375 56.90625 15.59375 61.5 
Q 20.09375 66.09375 26.140625 68.5 
Q 32.203125 70.90625 39.09375 70.90625 
Q 43.796875 70.90625 47.4375 70.296875 
Q 51.09375 69.703125 53.6875 68.890625 
Q 56.296875 68.09375 57.9375 67.296875 
Q 59.59375 66.5 60.203125 66.09375 
L 57.09375 58 
Q 54.203125 59.90625 49.390625 61.15625 
Q 44.59375 62.40625 39.59375 62.40625 
Q 34.296875 62.40625 29.9375 60.5 
Q 25.59375 58.59375 22.546875 55 
Q 19.5 51.40625 17.796875 46.25 
Q 16.09375 41.09375 16.09375 34.703125 
Q 16.09375 28.5 17.546875 23.390625 
Q 19 18.296875 21.953125 14.640625 
Q 24.90625 11 29.25 9 
Q 33.59375 7 39.5 7 
Q 43.703125 7 46.640625 7.453125 
Q 49.59375 7.90625 50.90625 8.296875 
z
" id="Ubuntu-71"/>
     <path d="M 23.59375 -1 
Q 15 -0.796875 11.390625 2.703125 
Q 7.796875 6.203125 7.796875 13.59375 
L 7.796875 76 
L 17.09375 77.59375 
L 17.09375 15.09375 
Q 17.09375 12.796875 17.5 11.296875 
Q 17.90625 9.796875 18.796875 8.890625 
Q 19.703125 8 21.203125 7.546875 
Q 22.703125 7.09375 24.90625 6.796875 
z
" id="Ubuntu-108"/>
     <path d="M 5.796875 34.703125 
Q 5.796875 43.59375 8.4375 50.390625 
Q 11.09375 57.203125 15.640625 61.75 
Q 20.203125 66.296875 26.25 68.59375 
Q 32.296875 70.90625 39.09375 70.90625 
Q 45.796875 70.90625 51.75 68.59375 
Q 57.703125 66.296875 62.203125 61.75 
Q 66.703125 57.203125 69.34375 50.390625 
Q 72 43.59375 72 34.703125 
Q 72 25.796875 69.34375 19 
Q 66.703125 12.203125 62.203125 7.640625 
Q 57.703125 3.09375 51.75 0.796875 
Q 45.796875 -1.5 39.09375 -1.5 
Q 32.296875 -1.5 26.25 0.796875 
Q 20.203125 3.09375 15.640625 7.640625 
Q 11.09375 12.203125 8.4375 19 
Q 5.796875 25.796875 5.796875 34.703125 
z
M 16 34.703125 
Q 16 28.40625 17.59375 23.25 
Q 19.203125 18.09375 22.140625 14.5 
Q 25.09375 10.90625 29.34375 8.953125 
Q 33.59375 7 38.90625 7 
Q 44.203125 7 48.390625 8.953125 
Q 52.59375 10.90625 55.546875 14.5 
Q 58.5 18.09375 60.09375 23.25 
Q 61.703125 28.40625 61.703125 34.703125 
Q 61.703125 41 60.09375 46.140625 
Q 58.5 51.296875 55.546875 54.890625 
Q 52.59375 58.5 48.390625 60.453125 
Q 44.203125 62.40625 38.90625 62.40625 
Q 33.59375 62.40625 29.34375 60.453125 
Q 25.09375 58.5 22.140625 54.890625 
Q 19.203125 51.296875 17.59375 46.140625 
Q 16 41 16 34.703125 
z
" id="Ubuntu-79"/>
     <path d="M 49.40625 1.5 
Q 46.203125 0.703125 40.953125 -0.1875 
Q 35.703125 -1.09375 28.796875 -1.09375 
Q 22.796875 -1.09375 18.6875 0.65625 
Q 14.59375 2.40625 12.09375 5.59375 
Q 9.59375 8.796875 8.5 13.140625 
Q 7.40625 17.5 7.40625 22.796875 
L 7.40625 52 
L 16.703125 52 
L 16.703125 24.796875 
Q 16.703125 15.296875 19.703125 11.1875 
Q 22.703125 7.09375 29.796875 7.09375 
Q 31.296875 7.09375 32.890625 7.1875 
Q 34.5 7.296875 35.890625 7.4375 
Q 37.296875 7.59375 38.4375 7.75 
Q 39.59375 7.90625 40.09375 8.09375 
L 40.09375 52 
L 49.40625 52 
z
" id="Ubuntu-117"/>
    </defs>
    <g transform="translate(314.078125 18.3735)scale(0.144 -0.144)">
     <use xlink:href="#Ubuntu-67"/>
     <use x="61.98436" xlink:href="#Ubuntu-111"/>
     <use x="120.984344" xlink:href="#Ubuntu-109"/>
     <use x="207.084335" xlink:href="#Ubuntu-112"/>
     <use x="265.984329" xlink:href="#Ubuntu-97"/>
     <use x="318.184326" xlink:href="#Ubuntu-114"/>
     <use x="356.784317" xlink:href="#Ubuntu-105"/>
     <use x="382.084305" xlink:href="#Ubuntu-115"/>
     <use x="426.684296" xlink:href="#Ubuntu-111"/>
     <use x="485.68428" xlink:href="#Ubuntu-110"/>
     <use x="543.084274" xlink:href="#Ubuntu-32"/>
     <use x="566.184265" xlink:href="#Ubuntu-98"/>
     <use x="625.084259" xlink:href="#Ubuntu-101"/>
     <use x="680.984253" xlink:href="#Ubuntu-116"/>
     <use x="721.18425" xlink:href="#Ubuntu-119"/>
     <use x="798.884232" xlink:href="#Ubuntu-101"/>
     <use x="854.784225" xlink:href="#Ubuntu-101"/>
     <use x="910.684219" xlink:href="#Ubuntu-110"/>
     <use x="968.084213" xlink:href="#Ubuntu-32"/>
     <use x="991.184204" xlink:href="#Ubuntu-109"/>
     <use x="1077.284195" xlink:href="#Ubuntu-101"/>
     <use x="1133.184189" xlink:href="#Ubuntu-116"/>
     <use x="1173.384186" xlink:href="#Ubuntu-104"/>
     <use x="1230.484177" xlink:href="#Ubuntu-111"/>
     <use x="1289.484161" xlink:href="#Ubuntu-100"/>
     <use x="1348.384155" xlink:href="#Ubuntu-115"/>
     <use x="1392.984146" xlink:href="#Ubuntu-32"/>
     <use x="1416.084137" xlink:href="#Ubuntu-118"/>
     <use x="1466.284134" xlink:href="#Ubuntu-115"/>
     <use x="1510.884125" xlink:href="#Ubuntu-32"/>
     <use x="1533.984116" xlink:href="#Ubuntu-71"/>
     <use x="1601.184113" xlink:href="#Ubuntu-108"/>
     <use x="1628.4841" xlink:href="#Ubuntu-111"/>
     <use x="1687.484085" xlink:href="#Ubuntu-98"/>
     <use x="1746.384079" xlink:href="#Ubuntu-97"/>
     <use x="1798.584076" xlink:href="#Ubuntu-108"/>
     <use x="1825.884064" xlink:href="#Ubuntu-32"/>
     <use x="1848.984055" xlink:href="#Ubuntu-79"/>
     <use x="1926.784042" xlink:href="#Ubuntu-112"/>
     <use x="1985.684036" xlink:href="#Ubuntu-116"/>
     <use x="2025.884033" xlink:href="#Ubuntu-105"/>
     <use x="2051.184021" xlink:href="#Ubuntu-109"/>
     <use x="2137.284012" xlink:href="#Ubuntu-117"/>
     <use x="2194.684006" xlink:href="#Ubuntu-109"/>
    </g>
   </g>
   <g id="legend_1">
    <g id="patch_7">
     <path d="M 752.257187 454.2535 
L 909.774375 454.2535 
Q 911.774375 454.2535 911.774375 452.2535 
L 911.774375 380.176937 
Q 911.774375 378.176937 909.774375 378.176937 
L 752.257187 378.176937 
Q 750.257187 378.176937 750.257187 380.176937 
L 750.257187 452.2535 
Q 750.257187 454.2535 752.257187 454.2535 
z
" style="fill:#f0f0f0;opacity:0.8;stroke:#cccccc;stroke-linejoin:miter;stroke-width:0.5;"/>
    </g>
    <g id="line2d_30">
     <path d="M 754.257187 386.436312 
L 774.257187 386.436312 
" style="fill:none;stroke:#008fd5;stroke-opacity:0.7;stroke-width:4;"/>
    </g>
    <g id="line2d_31">
     <g>
      <use style="fill:#008fd5;fill-opacity:0.7;stroke:#008fd5;stroke-linejoin:bevel;stroke-opacity:0.7;" x="764.257187" xlink:href="#m10c9215e9f" y="386.436312"/>
     </g>
    </g>
    <g id="text_16">
     <!-- GlobalOpt -->
     <g transform="translate(782.257187 389.936312)scale(0.1 -0.1)">
      <use xlink:href="#Ubuntu-71"/>
      <use x="67.199997" xlink:href="#Ubuntu-108"/>
      <use x="94.499985" xlink:href="#Ubuntu-111"/>
      <use x="153.499969" xlink:href="#Ubuntu-98"/>
      <use x="212.399963" xlink:href="#Ubuntu-97"/>
      <use x="264.59996" xlink:href="#Ubuntu-108"/>
      <use x="291.899948" xlink:href="#Ubuntu-79"/>
      <use x="369.699936" xlink:href="#Ubuntu-112"/>
      <use x="428.59993" xlink:href="#Ubuntu-116"/>
     </g>
    </g>
    <g id="line2d_32">
     <path d="M 754.257187 401.045687 
L 774.257187 401.045687 
" style="fill:none;stroke:#fc4f30;stroke-dasharray:4,6.6;stroke-dashoffset:0;stroke-opacity:0.7;stroke-width:4;"/>
    </g>
    <g id="line2d_33">
     <g>
      <use style="fill:#fc4f30;fill-opacity:0.7;stroke:#fc4f30;stroke-opacity:0.7;" x="764.257187" xlink:href="#mc7fb72660b" y="401.045687"/>
     </g>
    </g>
    <g id="text_17">
     <!-- Random -->
     <defs>
      <path d="M 42.5 29 
Q 44.09375 27 46.546875 23.75 
Q 49 20.5 51.59375 16.546875 
Q 54.203125 12.59375 56.75 8.296875 
Q 59.296875 4 61.09375 0 
L 50.5 0 
Q 48.5 3.796875 46.140625 7.6875 
Q 43.796875 11.59375 41.390625 15.140625 
Q 39 18.703125 36.640625 21.796875 
Q 34.296875 24.90625 32.40625 27.203125 
Q 31.09375 27.09375 29.75 27.09375 
Q 28.40625 27.09375 27 27.09375 
L 18.296875 27.09375 
L 18.296875 0 
L 8.59375 0 
L 8.59375 68.296875 
Q 12.703125 69.296875 17.75 69.640625 
Q 22.796875 70 27 70 
Q 41.59375 70 49.25 64.5 
Q 56.90625 59 56.90625 48.09375 
Q 56.90625 41.203125 53.25 36.296875 
Q 49.59375 31.40625 42.5 29 
z
M 27.796875 61.5 
Q 21.59375 61.5 18.296875 61.203125 
L 18.296875 35.09375 
L 25.203125 35.09375 
Q 30.203125 35.09375 34.203125 35.59375 
Q 38.203125 36.09375 40.953125 37.5 
Q 43.703125 38.90625 45.203125 41.453125 
Q 46.703125 44 46.703125 48.203125 
Q 46.703125 52.09375 45.203125 54.6875 
Q 43.703125 57.296875 41.140625 58.796875 
Q 38.59375 60.296875 35.140625 60.890625 
Q 31.703125 61.5 27.796875 61.5 
z
" id="Ubuntu-82"/>
     </defs>
     <g transform="translate(782.257187 404.545687)scale(0.1 -0.1)">
      <use xlink:href="#Ubuntu-82"/>
      <use x="62.899994" xlink:href="#Ubuntu-97"/>
      <use x="115.099991" xlink:href="#Ubuntu-110"/>
      <use x="172.499985" xlink:href="#Ubuntu-100"/>
      <use x="231.399979" xlink:href="#Ubuntu-111"/>
      <use x="290.399963" xlink:href="#Ubuntu-109"/>
     </g>
    </g>
    <g id="line2d_34">
     <path d="M 754.257187 415.655062 
L 774.257187 415.655062 
" style="fill:none;stroke:#e5ae38;stroke-dasharray:14.8,6.4;stroke-dashoffset:0;stroke-opacity:0.7;stroke-width:4;"/>
    </g>
    <g id="line2d_35">
     <g>
      <use style="fill:#e5ae38;fill-opacity:0.7;stroke:#e5ae38;stroke-linejoin:miter;stroke-opacity:0.7;" x="764.257187" xlink:href="#mceb0a681d0" y="415.655062"/>
     </g>
    </g>
    <g id="text_18">
     <!-- Probability of Improvement -->
     <defs>
      <path d="M 27 70 
Q 41.59375 70 49.4375 64.453125 
Q 57.296875 58.90625 57.296875 47.90625 
Q 57.296875 41.90625 55.140625 37.65625 
Q 53 33.40625 48.953125 30.75 
Q 44.90625 28.09375 39.09375 26.890625 
Q 33.296875 25.703125 26 25.703125 
L 18.296875 25.703125 
L 18.296875 0 
L 8.59375 0 
L 8.59375 68.296875 
Q 12.703125 69.296875 17.75 69.640625 
Q 22.796875 70 27 70 
z
M 27.796875 61.5 
Q 21.59375 61.5 18.296875 61.203125 
L 18.296875 34 
L 25.59375 34 
Q 30.59375 34 34.59375 34.640625 
Q 38.59375 35.296875 41.34375 36.84375 
Q 44.09375 38.40625 45.59375 41.09375 
Q 47.09375 43.796875 47.09375 48 
Q 47.09375 52 45.546875 54.59375 
Q 44 57.203125 41.34375 58.75 
Q 38.703125 60.296875 35.203125 60.890625 
Q 31.703125 61.5 27.796875 61.5 
z
" id="Ubuntu-80"/>
      <path d="M 1.90625 -9.703125 
Q 3 -10.203125 4.75 -10.640625 
Q 6.5 -11.09375 8.203125 -11.09375 
Q 13.703125 -11.09375 16.796875 -8.640625 
Q 19.90625 -6.203125 22.40625 -0.703125 
Q 16.09375 11.296875 10.640625 24.75 
Q 5.203125 38.203125 1.59375 52 
L 11.59375 52 
Q 12.703125 47.5 14.25 42.296875 
Q 15.796875 37.09375 17.6875 31.59375 
Q 19.59375 26.09375 21.796875 20.59375 
Q 24 15.09375 26.40625 10 
Q 30.203125 20.5 33 30.796875 
Q 35.796875 41.09375 38.296875 52 
L 47.90625 52 
Q 44.296875 37.296875 39.890625 23.75 
Q 35.5 10.203125 30.40625 -1.59375 
Q 28.40625 -6.09375 26.25 -9.34375 
Q 24.09375 -12.59375 21.5 -14.6875 
Q 18.90625 -16.796875 15.65625 -17.796875 
Q 12.40625 -18.796875 8.296875 -18.796875 
Q 7.203125 -18.796875 6 -18.640625 
Q 4.796875 -18.5 3.640625 -18.25 
Q 2.5 -18 1.546875 -17.703125 
Q 0.59375 -17.40625 0.203125 -17.203125 
z
" id="Ubuntu-121"/>
      <path d="M 28.296875 77.59375 
Q 32.40625 77.59375 35.34375 77 
Q 38.296875 76.40625 39.5 75.90625 
L 37.796875 67.90625 
Q 36.59375 68.5 34.390625 69.046875 
Q 32.203125 69.59375 29 69.59375 
Q 22.5 69.59375 19.890625 66.046875 
Q 17.296875 62.5 17.296875 56.5 
L 17.296875 52 
L 37.296875 52 
L 37.296875 44.203125 
L 17.296875 44.203125 
L 17.296875 0 
L 8 0 
L 8 56.703125 
Q 8 66.703125 12.890625 72.140625 
Q 17.796875 77.59375 28.296875 77.59375 
z
" id="Ubuntu-102"/>
      <path d="M 8.59375 69.296875 
L 18.296875 69.296875 
L 18.296875 0 
L 8.59375 0 
z
" id="Ubuntu-73"/>
     </defs>
     <g transform="translate(782.257187 419.155062)scale(0.1 -0.1)">
      <use xlink:href="#Ubuntu-80"/>
      <use x="60.799988" xlink:href="#Ubuntu-114"/>
      <use x="99.399979" xlink:href="#Ubuntu-111"/>
      <use x="158.399963" xlink:href="#Ubuntu-98"/>
      <use x="217.299957" xlink:href="#Ubuntu-97"/>
      <use x="269.499954" xlink:href="#Ubuntu-98"/>
      <use x="328.399948" xlink:href="#Ubuntu-105"/>
      <use x="353.699936" xlink:href="#Ubuntu-108"/>
      <use x="380.999924" xlink:href="#Ubuntu-105"/>
      <use x="406.299911" xlink:href="#Ubuntu-116"/>
      <use x="446.499908" xlink:href="#Ubuntu-121"/>
      <use x="496.199905" xlink:href="#Ubuntu-32"/>
      <use x="519.299896" xlink:href="#Ubuntu-111"/>
      <use x="578.299881" xlink:href="#Ubuntu-102"/>
      <use x="616.899872" xlink:href="#Ubuntu-32"/>
      <use x="639.999863" xlink:href="#Ubuntu-73"/>
      <use x="666.899857" xlink:href="#Ubuntu-109"/>
      <use x="752.999847" xlink:href="#Ubuntu-112"/>
      <use x="811.899841" xlink:href="#Ubuntu-114"/>
      <use x="850.499832" xlink:href="#Ubuntu-111"/>
      <use x="909.484192" xlink:href="#Ubuntu-118"/>
      <use x="959.668564" xlink:href="#Ubuntu-101"/>
      <use x="1015.568558" xlink:href="#Ubuntu-109"/>
      <use x="1101.668549" xlink:href="#Ubuntu-101"/>
      <use x="1157.568542" xlink:href="#Ubuntu-110"/>
      <use x="1214.968536" xlink:href="#Ubuntu-116"/>
     </g>
    </g>
    <g id="line2d_36">
     <path d="M 754.257187 430.294125 
L 774.257187 430.294125 
" style="fill:none;stroke:#6d904f;stroke-dasharray:25.6,6.4,4,6.4;stroke-dashoffset:0;stroke-opacity:0.7;stroke-width:4;"/>
    </g>
    <g id="line2d_37">
     <g>
      <use style="fill:#6d904f;fill-opacity:0.7;stroke:#6d904f;stroke-linejoin:miter;stroke-opacity:0.7;" x="764.257187" xlink:href="#m0e89d8c859" y="430.294125"/>
     </g>
    </g>
    <g id="text_19">
     <!-- Expected Improvement -->
     <defs>
      <path d="M 8.59375 0 
L 8.59375 69.296875 
L 50.90625 69.296875 
L 50.90625 61 
L 18.296875 61 
L 18.296875 40.40625 
L 47.296875 40.40625 
L 47.296875 32.296875 
L 18.296875 32.296875 
L 18.296875 8.296875 
L 53.40625 8.296875 
L 53.40625 0 
z
" id="Ubuntu-69"/>
      <path d="M 39.09375 0 
Q 38 2.203125 36.390625 4.890625 
Q 34.796875 7.59375 32.890625 10.4375 
Q 31 13.296875 29 16.09375 
Q 27 18.90625 25.09375 21.40625 
Q 23.203125 18.90625 21.203125 16.046875 
Q 19.203125 13.203125 17.34375 10.34375 
Q 15.5 7.5 13.890625 4.796875 
Q 12.296875 2.09375 11.203125 0 
L 1.59375 0 
Q 5.09375 6.796875 9.9375 13.84375 
Q 14.796875 20.90625 19.59375 27.296875 
L 2.40625 52 
L 12.90625 52 
L 25.296875 33.796875 
L 37.796875 52 
L 47.703125 52 
L 30.90625 27.90625 
Q 35.703125 21.40625 40.75 14.15625 
Q 45.796875 6.90625 49.296875 0 
z
" id="Ubuntu-120"/>
      <path d="M 30.59375 -1.203125 
Q 24.296875 -1.203125 19.546875 0.796875 
Q 14.796875 2.796875 11.546875 6.390625 
Q 8.296875 10 6.6875 14.953125 
Q 5.09375 19.90625 5.09375 25.90625 
Q 5.09375 31.90625 6.84375 36.90625 
Q 8.59375 41.90625 11.796875 45.546875 
Q 15 49.203125 19.640625 51.25 
Q 24.296875 53.296875 30 53.296875 
Q 33.5 53.296875 37 52.6875 
Q 40.5 52.09375 43.703125 50.796875 
L 41.59375 42.90625 
Q 39.5 43.90625 36.75 44.5 
Q 34 45.09375 30.90625 45.09375 
Q 23.09375 45.09375 18.9375 40.1875 
Q 14.796875 35.296875 14.796875 25.90625 
Q 14.796875 21.703125 15.75 18.203125 
Q 16.703125 14.703125 18.75 12.203125 
Q 20.796875 9.703125 24 8.34375 
Q 27.203125 7 31.796875 7 
Q 35.5 7 38.5 7.703125 
Q 41.5 8.40625 43.203125 9.203125 
L 44.5 1.40625 
Q 43.703125 0.90625 42.203125 0.453125 
Q 40.703125 0 38.796875 -0.34375 
Q 36.90625 -0.703125 34.75 -0.953125 
Q 32.59375 -1.203125 30.59375 -1.203125 
z
" id="Ubuntu-99"/>
     </defs>
     <g transform="translate(782.257187 433.794125)scale(0.1 -0.1)">
      <use xlink:href="#Ubuntu-69"/>
      <use x="57.099991" xlink:href="#Ubuntu-120"/>
      <use x="108.199982" xlink:href="#Ubuntu-112"/>
      <use x="167.099976" xlink:href="#Ubuntu-101"/>
      <use x="222.999969" xlink:href="#Ubuntu-99"/>
      <use x="269.499954" xlink:href="#Ubuntu-116"/>
      <use x="309.684326" xlink:href="#Ubuntu-101"/>
      <use x="365.58432" xlink:href="#Ubuntu-100"/>
      <use x="424.484314" xlink:href="#Ubuntu-32"/>
      <use x="447.584305" xlink:href="#Ubuntu-73"/>
      <use x="474.484299" xlink:href="#Ubuntu-109"/>
      <use x="560.58429" xlink:href="#Ubuntu-112"/>
      <use x="619.484283" xlink:href="#Ubuntu-114"/>
      <use x="658.084274" xlink:href="#Ubuntu-111"/>
      <use x="717.068634" xlink:href="#Ubuntu-118"/>
      <use x="767.253006" xlink:href="#Ubuntu-101"/>
      <use x="823.153" xlink:href="#Ubuntu-109"/>
      <use x="909.252991" xlink:href="#Ubuntu-101"/>
      <use x="965.152985" xlink:href="#Ubuntu-110"/>
      <use x="1022.552979" xlink:href="#Ubuntu-116"/>
     </g>
    </g>
    <g id="line2d_38">
     <path d="M 754.257187 444.9035 
L 774.257187 444.9035 
" style="fill:none;stroke:#8b8b8b;stroke-dasharray:4,6.6;stroke-dashoffset:0;stroke-opacity:0.7;stroke-width:4;"/>
    </g>
    <g id="line2d_39">
     <g>
      <use style="fill:#8b8b8b;fill-opacity:0.7;stroke:#8b8b8b;stroke-linejoin:miter;stroke-opacity:0.7;" x="764.257187" xlink:href="#md3ac99a195" y="444.9035"/>
     </g>
    </g>
    <g id="text_20">
     <!-- GP_UCB -->
     <defs>
      <path d="M -0.40625 -10.59375 
L 49.59375 -10.59375 
L 49.59375 -18.5 
L -0.40625 -18.5 
z
" id="Ubuntu-95"/>
      <path d="M 34.40625 -1.5 
Q 27.59375 -1.5 22.59375 0.59375 
Q 17.59375 2.703125 14.390625 6.34375 
Q 11.203125 10 9.640625 15 
Q 8.09375 20 8.09375 25.796875 
L 8.09375 69.296875 
L 17.796875 69.296875 
L 17.796875 26.90625 
Q 17.796875 16.5 22.390625 11.796875 
Q 27 7.09375 34.40625 7.09375 
Q 38.09375 7.09375 41.140625 8.25 
Q 44.203125 9.40625 46.390625 11.796875 
Q 48.59375 14.203125 49.796875 17.953125 
Q 51 21.703125 51 26.90625 
L 51 69.296875 
L 60.703125 69.296875 
L 60.703125 25.796875 
Q 60.703125 20 59.140625 15 
Q 57.59375 10 54.34375 6.34375 
Q 51.09375 2.703125 46.140625 0.59375 
Q 41.203125 -1.5 34.40625 -1.5 
z
" id="Ubuntu-85"/>
      <path d="M 27.296875 -0.59375 
Q 25.203125 -0.59375 22.75 -0.5 
Q 20.296875 -0.40625 17.84375 -0.203125 
Q 15.40625 0 13 0.296875 
Q 10.59375 0.59375 8.59375 1.09375 
L 8.59375 68.296875 
Q 10.59375 68.796875 13 69.09375 
Q 15.40625 69.40625 17.84375 69.59375 
Q 20.296875 69.796875 22.6875 69.890625 
Q 25.09375 70 27.203125 70 
Q 33.203125 70 38.453125 69.09375 
Q 43.703125 68.203125 47.546875 66.046875 
Q 51.40625 63.90625 53.59375 60.40625 
Q 55.796875 56.90625 55.796875 51.796875 
Q 55.796875 46.09375 53.09375 42.4375 
Q 50.40625 38.796875 45.90625 37 
Q 52 35.203125 55.59375 31.296875 
Q 59.203125 27.40625 59.203125 20.296875 
Q 59.203125 9.90625 51.546875 4.65625 
Q 43.90625 -0.59375 27.296875 -0.59375 
z
M 18.203125 32.296875 
L 18.203125 7.90625 
Q 19.296875 7.796875 20.796875 7.703125 
Q 22.09375 7.59375 23.84375 7.546875 
Q 25.59375 7.5 27.90625 7.5 
Q 32.203125 7.5 36.046875 8.046875 
Q 39.90625 8.59375 42.796875 10 
Q 45.703125 11.40625 47.453125 13.90625 
Q 49.203125 16.40625 49.203125 20.203125 
Q 49.203125 23.59375 47.890625 25.9375 
Q 46.59375 28.296875 44.140625 29.6875 
Q 41.703125 31.09375 38.296875 31.6875 
Q 34.90625 32.296875 30.703125 32.296875 
z
M 18.203125 40.09375 
L 28.40625 40.09375 
Q 32 40.09375 35.203125 40.59375 
Q 38.40625 41.09375 40.75 42.390625 
Q 43.09375 43.703125 44.4375 45.796875 
Q 45.796875 47.90625 45.796875 51.09375 
Q 45.796875 54.09375 44.390625 56.140625 
Q 43 58.203125 40.546875 59.453125 
Q 38.09375 60.703125 34.796875 61.296875 
Q 31.5 61.90625 27.796875 61.90625 
Q 24.09375 61.90625 22 61.796875 
Q 19.90625 61.703125 18.203125 61.5 
z
" id="Ubuntu-66"/>
     </defs>
     <g transform="translate(782.257187 448.4035)scale(0.1 -0.1)">
      <use xlink:href="#Ubuntu-71"/>
      <use x="67.199997" xlink:href="#Ubuntu-80"/>
      <use x="127.999985" xlink:href="#Ubuntu-95"/>
      <use x="177.199982" xlink:href="#Ubuntu-85"/>
      <use x="245.999969" xlink:href="#Ubuntu-67"/>
      <use x="307.999954" xlink:href="#Ubuntu-66"/>
     </g>
    </g>
   </g>
  </g>
 </g>
 <defs>
  <clipPath id="p02516cc58e">
   <rect height="434.88" width="876.96" x="39.814375" y="24.3735"/>
  </clipPath>
 </defs>
</svg>
