<?xml version="1.0" encoding="utf-8" standalone="no"?>
<!DOCTYPE svg PUBLIC "-//W3C//DTD SVG 1.1//EN"
  "http://www.w3.org/Graphics/SVG/1.1/DTD/svg11.dtd">
<!-- Created with matplotlib (https://matplotlib.org/) -->
<svg height="511.175pt" version="1.1" viewBox="0 0 843.311875 511.175" width="843.311875pt" xmlns="http://www.w3.org/2000/svg" xmlns:xlink="http://www.w3.org/1999/xlink">
 <defs>
  <style type="text/css">
*{stroke-linecap:butt;stroke-linejoin:round;}
  </style>
 </defs>
 <g id="figure_1">
  <g id="patch_1">
   <path d="M 0 511.175 
L 843.311875 511.175 
L 843.311875 0 
L 0 0 
z
" style="fill:#ffffff;"/>
  </g>
  <g id="axes_1">
   <g id="patch_2">
    <path d="M 54.911875 462.046875 
L 836.111875 462.046875 
L 836.111875 27.166875 
L 54.911875 27.166875 
z
" style="fill:#ffffff;"/>
   </g>
   <g id="matplotlib.axis_1">
    <g id="xtick_1">
     <g id="line2d_1">
      <path clip-path="url(#pd7ad849d3d)" d="M 90.420966 462.046875 
L 90.420966 27.166875 
" style="fill:none;stroke:#b0b0b0;stroke-linecap:square;stroke-opacity:0.25;stroke-width:0.8;"/>
     </g>
     <g id="line2d_2">
      <defs>
       <path d="M 0 0 
L 0 3.5 
" id="m666c12729d" style="stroke:#808080;stroke-width:0.8;"/>
      </defs>
      <g>
       <use style="fill:#808080;stroke:#808080;stroke-width:0.8;" x="90.420966" xlink:href="#m666c12729d" y="462.046875"/>
      </g>
     </g>
     <g id="text_1">
      <!-- 0 -->
      <defs>
       <path d="M 5 34.703125 
Q 5 52.09375 11.140625 61.5 
Q 17.296875 70.90625 28.203125 70.90625 
Q 39.09375 70.90625 45.25 61.5 
Q 51.40625 52.09375 51.40625 34.703125 
Q 51.40625 17.296875 45.25 7.890625 
Q 39.09375 -1.5 28.203125 -1.5 
Q 17.296875 -1.5 11.140625 7.890625 
Q 5 17.296875 5 34.703125 
z
M 41.59375 34.703125 
Q 41.59375 40.40625 40.9375 45.5 
Q 40.296875 50.59375 38.75 54.390625 
Q 37.203125 58.203125 34.59375 60.453125 
Q 32 62.703125 28.203125 62.703125 
Q 24.40625 62.703125 21.796875 60.453125 
Q 19.203125 58.203125 17.640625 54.390625 
Q 16.09375 50.59375 15.4375 45.5 
Q 14.796875 40.40625 14.796875 34.703125 
Q 14.796875 29 15.4375 23.890625 
Q 16.09375 18.796875 17.640625 15 
Q 19.203125 11.203125 21.796875 8.953125 
Q 24.40625 6.703125 28.203125 6.703125 
Q 32 6.703125 34.59375 8.953125 
Q 37.203125 11.203125 38.75 15 
Q 40.296875 18.796875 40.9375 23.890625 
Q 41.59375 29 41.59375 34.703125 
z
" id="Ubuntu-48"/>
      </defs>
      <g transform="translate(86.472528 482.01)scale(0.14 -0.14)">
       <use xlink:href="#Ubuntu-48"/>
      </g>
     </g>
    </g>
    <g id="xtick_2">
     <g id="line2d_3">
      <path clip-path="url(#pd7ad849d3d)" d="M 248.239148 462.046875 
L 248.239148 27.166875 
" style="fill:none;stroke:#b0b0b0;stroke-linecap:square;stroke-opacity:0.25;stroke-width:0.8;"/>
     </g>
     <g id="line2d_4">
      <g>
       <use style="fill:#808080;stroke:#808080;stroke-width:0.8;" x="248.239148" xlink:href="#m666c12729d" y="462.046875"/>
      </g>
     </g>
     <g id="text_2">
      <!-- 2 -->
      <defs>
       <path d="M 46.703125 51.59375 
Q 46.703125 48 45.25 44.640625 
Q 43.796875 41.296875 41.390625 38.046875 
Q 39 34.796875 36 31.640625 
Q 33 28.5 30 25.5 
Q 28.296875 23.796875 26.046875 21.5 
Q 23.796875 19.203125 21.796875 16.703125 
Q 19.796875 14.203125 18.4375 11.890625 
Q 17.09375 9.59375 17.09375 7.90625 
L 49 7.90625 
L 49 0 
L 7 0 
Q 6.90625 0.59375 6.90625 1.1875 
Q 6.90625 1.796875 6.90625 2.296875 
Q 6.90625 7 8.453125 11.046875 
Q 10 15.09375 12.5 18.6875 
Q 15 22.296875 18.09375 25.5 
Q 21.203125 28.703125 24.203125 31.703125 
Q 26.703125 34.09375 28.953125 36.4375 
Q 31.203125 38.796875 32.953125 41.140625 
Q 34.703125 43.5 35.75 46 
Q 36.796875 48.5 36.796875 51.296875 
Q 36.796875 54.296875 35.84375 56.390625 
Q 34.90625 58.5 33.296875 59.890625 
Q 31.703125 61.296875 29.546875 61.9375 
Q 27.40625 62.59375 25 62.59375 
Q 22.09375 62.59375 19.6875 61.796875 
Q 17.296875 61 15.390625 59.953125 
Q 13.5 58.90625 12.203125 57.75 
Q 10.90625 56.59375 10.203125 56 
L 5.59375 62.59375 
Q 6.5 63.59375 8.296875 65.046875 
Q 10.09375 66.5 12.59375 67.796875 
Q 15.09375 69.09375 18.1875 70 
Q 21.296875 70.90625 24.90625 70.90625 
Q 35.796875 70.90625 41.25 65.84375 
Q 46.703125 60.796875 46.703125 51.59375 
z
" id="Ubuntu-50"/>
      </defs>
      <g transform="translate(244.29071 482.01)scale(0.14 -0.14)">
       <use xlink:href="#Ubuntu-50"/>
      </g>
     </g>
    </g>
    <g id="xtick_3">
     <g id="line2d_5">
      <path clip-path="url(#pd7ad849d3d)" d="M 406.05733 462.046875 
L 406.05733 27.166875 
" style="fill:none;stroke:#b0b0b0;stroke-linecap:square;stroke-opacity:0.25;stroke-width:0.8;"/>
     </g>
     <g id="line2d_6">
      <g>
       <use style="fill:#808080;stroke:#808080;stroke-width:0.8;" x="406.05733" xlink:href="#m666c12729d" y="462.046875"/>
      </g>
     </g>
     <g id="text_3">
      <!-- 4 -->
      <defs>
       <path d="M 4 24 
Q 5.90625 28.40625 9.203125 34.25 
Q 12.5 40.09375 16.640625 46.296875 
Q 20.796875 52.5 25.546875 58.5 
Q 30.296875 64.5 35.09375 69.296875 
L 44 69.296875 
L 44 25.296875 
L 52.203125 25.296875 
L 52.203125 17.703125 
L 44 17.703125 
L 44 0 
L 35 0 
L 35 17.703125 
L 4 17.703125 
z
M 35 58.296875 
Q 32 55.09375 28.953125 51.140625 
Q 25.90625 47.203125 23 42.890625 
Q 20.09375 38.59375 17.546875 34.09375 
Q 15 29.59375 13 25.296875 
L 35 25.296875 
z
" id="Ubuntu-52"/>
      </defs>
      <g transform="translate(402.108892 482.01)scale(0.14 -0.14)">
       <use xlink:href="#Ubuntu-52"/>
      </g>
     </g>
    </g>
    <g id="xtick_4">
     <g id="line2d_7">
      <path clip-path="url(#pd7ad849d3d)" d="M 563.875511 462.046875 
L 563.875511 27.166875 
" style="fill:none;stroke:#b0b0b0;stroke-linecap:square;stroke-opacity:0.25;stroke-width:0.8;"/>
     </g>
     <g id="line2d_8">
      <g>
       <use style="fill:#808080;stroke:#808080;stroke-width:0.8;" x="563.875511" xlink:href="#m666c12729d" y="462.046875"/>
      </g>
     </g>
     <g id="text_4">
      <!-- 6 -->
      <defs>
       <path d="M 6.296875 27.796875 
Q 6.296875 37.90625 9.09375 45.65625 
Q 11.90625 53.40625 17.046875 58.703125 
Q 22.203125 64 29.546875 66.75 
Q 36.90625 69.5 46.09375 69.59375 
L 46.796875 61.796875 
Q 40.90625 61.703125 36.046875 60.5 
Q 31.203125 59.296875 27.390625 56.6875 
Q 23.59375 54.09375 21 49.9375 
Q 18.40625 45.796875 17.09375 39.703125 
Q 19.703125 40.90625 22.953125 41.703125 
Q 26.203125 42.5 29.703125 42.5 
Q 35.59375 42.5 39.6875 40.703125 
Q 43.796875 38.90625 46.390625 35.953125 
Q 49 33 50.140625 29.140625 
Q 51.296875 25.296875 51.296875 21.09375 
Q 51.296875 17.296875 50 13.296875 
Q 48.703125 9.296875 46.046875 6 
Q 43.40625 2.703125 39.296875 0.59375 
Q 35.203125 -1.5 29.59375 -1.5 
Q 18.203125 -1.5 12.25 6.296875 
Q 6.296875 14.09375 6.296875 27.796875 
z
M 28.703125 34.90625 
Q 25.203125 34.90625 22.203125 34.25 
Q 19.203125 33.59375 16.203125 32.296875 
Q 16.09375 31.203125 16.046875 30.046875 
Q 16 28.90625 16 27.796875 
Q 16 23.40625 16.59375 19.5 
Q 17.203125 15.59375 18.75 12.640625 
Q 20.296875 9.703125 22.890625 7.953125 
Q 25.5 6.203125 29.5 6.203125 
Q 32.796875 6.203125 35.09375 7.59375 
Q 37.40625 9 38.90625 11.203125 
Q 40.40625 13.40625 41.046875 15.953125 
Q 41.703125 18.5 41.703125 20.90625 
Q 41.703125 27.703125 38.453125 31.296875 
Q 35.203125 34.90625 28.703125 34.90625 
z
" id="Ubuntu-54"/>
      </defs>
      <g transform="translate(559.927074 482.01)scale(0.14 -0.14)">
       <use xlink:href="#Ubuntu-54"/>
      </g>
     </g>
    </g>
    <g id="xtick_5">
     <g id="line2d_9">
      <path clip-path="url(#pd7ad849d3d)" d="M 721.693693 462.046875 
L 721.693693 27.166875 
" style="fill:none;stroke:#b0b0b0;stroke-linecap:square;stroke-opacity:0.25;stroke-width:0.8;"/>
     </g>
     <g id="line2d_10">
      <g>
       <use style="fill:#808080;stroke:#808080;stroke-width:0.8;" x="721.693693" xlink:href="#m666c12729d" y="462.046875"/>
      </g>
     </g>
     <g id="text_5">
      <!-- 8 -->
      <defs>
       <path d="M 50.90625 18 
Q 50.90625 13.796875 49.453125 10.25 
Q 48 6.703125 45.140625 4.046875 
Q 42.296875 1.40625 38 -0.046875 
Q 33.703125 -1.5 28.09375 -1.5 
Q 21.59375 -1.5 17.25 0.34375 
Q 12.90625 2.203125 10.296875 5 
Q 7.703125 7.796875 6.59375 11.140625 
Q 5.5 14.5 5.5 17.5 
Q 5.5 20.40625 6.453125 23.046875 
Q 7.40625 25.703125 8.953125 28 
Q 10.5 30.296875 12.546875 32.140625 
Q 14.59375 34 16.90625 35.40625 
Q 7.09375 41 7.09375 51.90625 
Q 7.09375 55.703125 8.59375 59.140625 
Q 10.09375 62.59375 12.84375 65.1875 
Q 15.59375 67.796875 19.5 69.34375 
Q 23.40625 70.90625 28.203125 70.90625 
Q 33.796875 70.90625 37.796875 69.203125 
Q 41.796875 67.5 44.34375 64.84375 
Q 46.90625 62.203125 48.046875 59 
Q 49.203125 55.796875 49.203125 52.796875 
Q 49.203125 49.90625 48.34375 47.34375 
Q 47.5 44.796875 46.046875 42.59375 
Q 44.59375 40.40625 42.75 38.703125 
Q 40.90625 37 38.90625 35.703125 
Q 50.703125 30.09375 50.90625 18 
z
M 14.90625 17.40625 
Q 14.90625 15.59375 15.546875 13.640625 
Q 16.203125 11.703125 17.796875 10.046875 
Q 19.40625 8.40625 21.90625 7.296875 
Q 24.40625 6.203125 28.203125 6.203125 
Q 31.59375 6.203125 34.140625 7.203125 
Q 36.703125 8.203125 38.296875 9.75 
Q 39.90625 11.296875 40.703125 13.296875 
Q 41.5 15.296875 41.5 17.40625 
Q 41.5 20.59375 40.296875 23 
Q 39.09375 25.40625 36.84375 27.203125 
Q 34.59375 29 31.4375 30.25 
Q 28.296875 31.5 24.296875 32.40625 
Q 19.796875 29.90625 17.34375 26.203125 
Q 14.90625 22.5 14.90625 17.40625 
z
M 39.90625 52.90625 
Q 39.90625 54.40625 39.25 56.203125 
Q 38.59375 58 37.1875 59.546875 
Q 35.796875 61.09375 33.59375 62.140625 
Q 31.40625 63.203125 28.203125 63.203125 
Q 25 63.203125 22.75 62.203125 
Q 20.5 61.203125 19.09375 59.640625 
Q 17.703125 58.09375 17.046875 56.25 
Q 16.40625 54.40625 16.40625 52.59375 
Q 16.40625 50.40625 17.203125 48.203125 
Q 18 46 19.703125 44.09375 
Q 21.40625 42.203125 24.15625 40.703125 
Q 26.90625 39.203125 30.703125 38.296875 
Q 34.90625 40.796875 37.40625 44.140625 
Q 39.90625 47.5 39.90625 52.90625 
z
" id="Ubuntu-56"/>
      </defs>
      <g transform="translate(717.745256 482.01)scale(0.14 -0.14)">
       <use xlink:href="#Ubuntu-56"/>
      </g>
     </g>
    </g>
    <g id="text_6">
     <!-- # of Drilled Sites -->
     <defs>
      <path d="M 28.40625 51 
L 44.59375 51 
L 48.09375 69.296875 
L 56.5 69.296875 
L 53 51 
L 61.796875 51 
L 61.796875 43.59375 
L 51.5 43.59375 
L 48.09375 25.703125 
L 61.796875 25.703125 
L 61.796875 18.296875 
L 46.703125 18.296875 
L 43.203125 0 
L 34.796875 0 
L 38.296875 18.296875 
L 22.09375 18.296875 
L 18.59375 0 
L 10.203125 0 
L 13.703125 18.296875 
L 4.90625 18.296875 
L 4.90625 25.703125 
L 15.09375 25.703125 
L 18.5 43.59375 
L 4.90625 43.59375 
L 4.90625 51 
L 20 51 
L 23.5 69.296875 
L 31.90625 69.296875 
z
M 23.5 25.703125 
L 39.703125 25.703125 
L 43.203125 43.59375 
L 27 43.59375 
z
" id="Ubuntu-35"/>
      <path id="Ubuntu-32"/>
      <path d="M 53.90625 26 
Q 53.90625 19.796875 52.09375 14.796875 
Q 50.296875 9.796875 47.046875 6.1875 
Q 43.796875 2.59375 39.296875 0.640625 
Q 34.796875 -1.296875 29.5 -1.296875 
Q 24.203125 -1.296875 19.703125 0.640625 
Q 15.203125 2.59375 11.953125 6.1875 
Q 8.703125 9.796875 6.890625 14.796875 
Q 5.09375 19.796875 5.09375 26 
Q 5.09375 32.09375 6.890625 37.140625 
Q 8.703125 42.203125 11.953125 45.796875 
Q 15.203125 49.40625 19.703125 51.34375 
Q 24.203125 53.296875 29.5 53.296875 
Q 34.796875 53.296875 39.296875 51.34375 
Q 43.796875 49.40625 47.046875 45.796875 
Q 50.296875 42.203125 52.09375 37.140625 
Q 53.90625 32.09375 53.90625 26 
z
M 44.203125 26 
Q 44.203125 34.796875 40.25 39.9375 
Q 36.296875 45.09375 29.5 45.09375 
Q 22.703125 45.09375 18.75 39.9375 
Q 14.796875 34.796875 14.796875 26 
Q 14.796875 17.203125 18.75 12.046875 
Q 22.703125 6.90625 29.5 6.90625 
Q 36.296875 6.90625 40.25 12.046875 
Q 44.203125 17.203125 44.203125 26 
z
" id="Ubuntu-111"/>
      <path d="M 28.296875 77.59375 
Q 32.40625 77.59375 35.34375 77 
Q 38.296875 76.40625 39.5 75.90625 
L 37.796875 67.90625 
Q 36.59375 68.5 34.390625 69.046875 
Q 32.203125 69.59375 29 69.59375 
Q 22.5 69.59375 19.890625 66.046875 
Q 17.296875 62.5 17.296875 56.5 
L 17.296875 52 
L 37.296875 52 
L 37.296875 44.203125 
L 17.296875 44.203125 
L 17.296875 0 
L 8 0 
L 8 56.703125 
Q 8 66.703125 12.890625 72.140625 
Q 17.796875 77.59375 28.296875 77.59375 
z
" id="Ubuntu-102"/>
      <path d="M 65.5 34.703125 
Q 65.5 25.703125 62.703125 19.046875 
Q 59.90625 12.40625 54.796875 8.046875 
Q 49.703125 3.703125 42.59375 1.546875 
Q 35.5 -0.59375 27 -0.59375 
Q 22.796875 -0.59375 17.75 -0.25 
Q 12.703125 0.09375 8.59375 1.09375 
L 8.59375 68.296875 
Q 12.703125 69.296875 17.75 69.640625 
Q 22.796875 70 27 70 
Q 35.5 70 42.59375 67.84375 
Q 49.703125 65.703125 54.796875 61.34375 
Q 59.90625 57 62.703125 50.34375 
Q 65.5 43.703125 65.5 34.703125 
z
M 27.796875 7.90625 
Q 41.59375 7.90625 48.390625 14.953125 
Q 55.203125 22 55.203125 34.703125 
Q 55.203125 47.40625 48.390625 54.453125 
Q 41.59375 61.5 27.796875 61.5 
Q 23.703125 61.5 21.453125 61.390625 
Q 19.203125 61.296875 18.296875 61.203125 
L 18.296875 8.203125 
Q 19.203125 8.09375 21.453125 8 
Q 23.703125 7.90625 27.796875 7.90625 
z
" id="Ubuntu-68"/>
      <path d="M 27.203125 53.09375 
Q 28.40625 53.09375 29.953125 52.9375 
Q 31.5 52.796875 33 52.546875 
Q 34.5 52.296875 35.75 52.046875 
Q 37 51.796875 37.59375 51.59375 
L 36 43.5 
Q 34.90625 43.90625 32.34375 44.453125 
Q 29.796875 45 25.796875 45 
Q 23.203125 45 20.640625 44.453125 
Q 18.09375 43.90625 17.296875 43.703125 
L 17.296875 0 
L 8 0 
L 8 49.796875 
Q 11.296875 51 16.1875 52.046875 
Q 21.09375 53.09375 27.203125 53.09375 
z
" id="Ubuntu-114"/>
      <path d="M 17.296875 0 
L 8 0 
L 8 52 
L 17.296875 52 
z
M 12.59375 61.40625 
Q 10.09375 61.40625 8.34375 63.046875 
Q 6.59375 64.703125 6.59375 67.5 
Q 6.59375 70.296875 8.34375 71.9375 
Q 10.09375 73.59375 12.59375 73.59375 
Q 15.09375 73.59375 16.84375 71.9375 
Q 18.59375 70.296875 18.59375 67.5 
Q 18.59375 64.703125 16.84375 63.046875 
Q 15.09375 61.40625 12.59375 61.40625 
z
" id="Ubuntu-105"/>
      <path d="M 23.59375 -1 
Q 15 -0.796875 11.390625 2.703125 
Q 7.796875 6.203125 7.796875 13.59375 
L 7.796875 76 
L 17.09375 77.59375 
L 17.09375 15.09375 
Q 17.09375 12.796875 17.5 11.296875 
Q 17.90625 9.796875 18.796875 8.890625 
Q 19.703125 8 21.203125 7.546875 
Q 22.703125 7.09375 24.90625 6.796875 
z
" id="Ubuntu-108"/>
      <path d="M 5.09375 25.90625 
Q 5.09375 32.796875 7.09375 37.9375 
Q 9.09375 43.09375 12.390625 46.5 
Q 15.703125 49.90625 20 51.59375 
Q 24.296875 53.296875 28.796875 53.296875 
Q 39.296875 53.296875 44.890625 46.75 
Q 50.5 40.203125 50.5 26.796875 
Q 50.5 26.203125 50.5 25.25 
Q 50.5 24.296875 50.40625 23.5 
L 14.796875 23.5 
Q 15.40625 15.40625 19.5 11.203125 
Q 23.59375 7 32.296875 7 
Q 37.203125 7 40.546875 7.84375 
Q 43.90625 8.703125 45.59375 9.5 
L 46.90625 1.703125 
Q 45.203125 0.796875 40.953125 -0.203125 
Q 36.703125 -1.203125 31.296875 -1.203125 
Q 24.5 -1.203125 19.546875 0.84375 
Q 14.59375 2.90625 11.390625 6.5 
Q 8.203125 10.09375 6.640625 15.046875 
Q 5.09375 20 5.09375 25.90625 
z
M 40.796875 31 
Q 40.90625 37.296875 37.65625 41.34375 
Q 34.40625 45.40625 28.703125 45.40625 
Q 25.5 45.40625 23.046875 44.15625 
Q 20.59375 42.90625 18.890625 40.90625 
Q 17.203125 38.90625 16.25 36.296875 
Q 15.296875 33.703125 15 31 
z
" id="Ubuntu-101"/>
      <path d="M 41.59375 41 
Q 39.90625 42.40625 36.703125 43.703125 
Q 33.5 45 29.703125 45 
Q 25.703125 45 22.84375 43.546875 
Q 20 42.09375 18.203125 39.546875 
Q 16.40625 37 15.59375 33.5 
Q 14.796875 30 14.796875 26 
Q 14.796875 16.90625 19.296875 11.953125 
Q 23.796875 7 31.296875 7 
Q 35.09375 7 37.640625 7.34375 
Q 40.203125 7.703125 41.59375 8.09375 
z
M 41.59375 76 
L 50.90625 77.59375 
L 50.90625 1.5 
Q 47.703125 0.59375 42.703125 -0.296875 
Q 37.703125 -1.203125 31.203125 -1.203125 
Q 25.203125 -1.203125 20.390625 0.6875 
Q 15.59375 2.59375 12.1875 6.09375 
Q 8.796875 9.59375 6.9375 14.640625 
Q 5.09375 19.703125 5.09375 26 
Q 5.09375 32 6.640625 37 
Q 8.203125 42 11.203125 45.59375 
Q 14.203125 49.203125 18.546875 51.203125 
Q 22.90625 53.203125 28.5 53.203125 
Q 33 53.203125 36.453125 52 
Q 39.90625 50.796875 41.59375 49.703125 
z
" id="Ubuntu-100"/>
      <path d="M 24.703125 6.90625 
Q 39.90625 6.90625 39.90625 17.296875 
Q 39.90625 20.5 38.546875 22.75 
Q 37.203125 25 34.890625 26.640625 
Q 32.59375 28.296875 29.640625 29.5 
Q 26.703125 30.703125 23.40625 31.90625 
Q 19.59375 33.203125 16.1875 34.84375 
Q 12.796875 36.5 10.296875 38.75 
Q 7.796875 41 6.34375 44.09375 
Q 4.90625 47.203125 4.90625 51.59375 
Q 4.90625 60.703125 11.09375 65.796875 
Q 17.296875 70.90625 28.203125 70.90625 
Q 34.5 70.90625 39.640625 69.546875 
Q 44.796875 68.203125 47.203125 66.59375 
L 44.09375 58.703125 
Q 42 60 37.84375 61.25 
Q 33.703125 62.5 28.203125 62.5 
Q 25.40625 62.5 23 61.890625 
Q 20.59375 61.296875 18.796875 60.09375 
Q 17 58.90625 15.953125 57.046875 
Q 14.90625 55.203125 14.90625 52.703125 
Q 14.90625 49.90625 16 48 
Q 17.09375 46.09375 19.09375 44.640625 
Q 21.09375 43.203125 23.75 42 
Q 26.40625 40.796875 29.59375 39.59375 
Q 34.09375 37.796875 37.84375 36 
Q 41.59375 34.203125 44.34375 31.703125 
Q 47.09375 29.203125 48.59375 25.75 
Q 50.09375 22.296875 50.09375 17.40625 
Q 50.09375 8.296875 43.4375 3.390625 
Q 36.796875 -1.5 24.703125 -1.5 
Q 20.59375 -1.5 17.140625 -0.953125 
Q 13.703125 -0.40625 11 0.34375 
Q 8.296875 1.09375 6.34375 1.9375 
Q 4.40625 2.796875 3.296875 3.40625 
L 6.203125 11.40625 
Q 8.5 10.09375 13.203125 8.5 
Q 17.90625 6.90625 24.703125 6.90625 
z
" id="Ubuntu-83"/>
      <path d="M 16.703125 52 
L 36.40625 52 
L 36.40625 44.203125 
L 16.703125 44.203125 
L 16.703125 20.203125 
Q 16.703125 16.296875 17.296875 13.75 
Q 17.90625 11.203125 19.09375 9.75 
Q 20.296875 8.296875 22.09375 7.6875 
Q 23.90625 7.09375 26.296875 7.09375 
Q 30.5 7.09375 33.046875 8.046875 
Q 35.59375 9 36.59375 9.40625 
L 38.40625 1.703125 
Q 37 1 33.5 -0.046875 
Q 30 -1.09375 25.5 -1.09375 
Q 20.203125 -1.09375 16.75 0.25 
Q 13.296875 1.59375 11.1875 4.296875 
Q 9.09375 7 8.25 10.953125 
Q 7.40625 14.90625 7.40625 20.09375 
L 7.40625 66.5 
L 16.703125 68.09375 
z
" id="Ubuntu-116"/>
      <path d="M 20.09375 6.703125 
Q 25.796875 6.703125 28.546875 8.203125 
Q 31.296875 9.703125 31.296875 13 
Q 31.296875 16.40625 28.59375 18.40625 
Q 25.90625 20.40625 19.703125 22.90625 
Q 16.703125 24.09375 13.953125 25.34375 
Q 11.203125 26.59375 9.203125 28.296875 
Q 7.203125 30 6 32.390625 
Q 4.796875 34.796875 4.796875 38.296875 
Q 4.796875 45.203125 9.890625 49.25 
Q 15 53.296875 23.796875 53.296875 
Q 26 53.296875 28.203125 53.046875 
Q 30.40625 52.796875 32.296875 52.4375 
Q 34.203125 52.09375 35.640625 51.6875 
Q 37.09375 51.296875 37.90625 51 
L 36.203125 43 
Q 34.703125 43.796875 31.5 44.640625 
Q 28.296875 45.5 23.796875 45.5 
Q 19.90625 45.5 17 43.953125 
Q 14.09375 42.40625 14.09375 39.09375 
Q 14.09375 37.40625 14.75 36.09375 
Q 15.40625 34.796875 16.75 33.75 
Q 18.09375 32.703125 20.09375 31.796875 
Q 22.09375 30.90625 24.90625 29.90625 
Q 28.59375 28.5 31.5 27.140625 
Q 34.40625 25.796875 36.453125 24 
Q 38.5 22.203125 39.59375 19.640625 
Q 40.703125 17.09375 40.703125 13.40625 
Q 40.703125 6.203125 35.34375 2.5 
Q 30 -1.203125 20.09375 -1.203125 
Q 13.203125 -1.203125 9.296875 -0.046875 
Q 5.40625 1.09375 4 1.703125 
L 5.703125 9.703125 
Q 7.296875 9.09375 10.796875 7.890625 
Q 14.296875 6.703125 20.09375 6.703125 
z
" id="Ubuntu-115"/>
     </defs>
     <g transform="translate(384.923125 501.015)scale(0.16 -0.16)">
      <use xlink:href="#Ubuntu-35"/>
      <use x="66.699997" xlink:href="#Ubuntu-32"/>
      <use x="89.799988" xlink:href="#Ubuntu-111"/>
      <use x="148.799973" xlink:href="#Ubuntu-102"/>
      <use x="187.399963" xlink:href="#Ubuntu-32"/>
      <use x="210.499954" xlink:href="#Ubuntu-68"/>
      <use x="281.799942" xlink:href="#Ubuntu-114"/>
      <use x="320.399933" xlink:href="#Ubuntu-105"/>
      <use x="345.699921" xlink:href="#Ubuntu-108"/>
      <use x="372.999908" xlink:href="#Ubuntu-108"/>
      <use x="400.299896" xlink:href="#Ubuntu-101"/>
      <use x="456.19989" xlink:href="#Ubuntu-100"/>
      <use x="515.099884" xlink:href="#Ubuntu-32"/>
      <use x="538.199875" xlink:href="#Ubuntu-83"/>
      <use x="591.399872" xlink:href="#Ubuntu-105"/>
      <use x="616.69986" xlink:href="#Ubuntu-116"/>
      <use x="656.884232" xlink:href="#Ubuntu-101"/>
      <use x="712.784225" xlink:href="#Ubuntu-115"/>
     </g>
    </g>
   </g>
   <g id="matplotlib.axis_2">
    <g id="ytick_1">
     <g id="line2d_11">
      <path clip-path="url(#pd7ad849d3d)" d="M 54.911875 407.565001 
L 836.111875 407.565001 
" style="fill:none;stroke:#b0b0b0;stroke-linecap:square;stroke-opacity:0.25;stroke-width:0.8;"/>
     </g>
     <g id="line2d_12">
      <defs>
       <path d="M 0 0 
L -3.5 0 
" id="mcddff37fda" style="stroke:#808080;stroke-width:0.8;"/>
      </defs>
      <g>
       <use style="fill:#808080;stroke:#808080;stroke-width:0.8;" x="54.911875" xlink:href="#mcddff37fda" y="407.565001"/>
      </g>
     </g>
     <g id="text_7">
      <!-- 5.5 -->
      <defs>
       <path d="M 19.90625 42.59375 
Q 35 42 42.046875 36 
Q 49.09375 30 49.09375 19.703125 
Q 49.09375 15.09375 47.546875 11.1875 
Q 46 7.296875 42.84375 4.5 
Q 39.703125 1.703125 34.890625 0.09375 
Q 30.09375 -1.5 23.5 -1.5 
Q 20.90625 -1.5 18.203125 -1.09375 
Q 15.5 -0.703125 13.203125 -0.09375 
Q 10.90625 0.5 9.09375 1.09375 
Q 7.296875 1.703125 6.5 2.09375 
L 8.296875 10.203125 
Q 10 9.40625 13.84375 8.09375 
Q 17.703125 6.796875 23.296875 6.796875 
Q 27.796875 6.796875 30.84375 7.796875 
Q 33.90625 8.796875 35.796875 10.5 
Q 37.703125 12.203125 38.546875 14.453125 
Q 39.40625 16.703125 39.40625 19.203125 
Q 39.40625 23 38.09375 25.953125 
Q 36.796875 28.90625 33.5 30.90625 
Q 30.203125 32.90625 24.703125 33.953125 
Q 19.203125 35 10.796875 35 
Q 11.40625 39.90625 11.75 44.203125 
Q 12.09375 48.5 12.390625 52.59375 
Q 12.703125 56.703125 12.890625 60.75 
Q 13.09375 64.796875 13.296875 69.296875 
L 46.703125 69.296875 
L 46.703125 61.40625 
L 21.40625 61.40625 
Q 21.296875 59.90625 21.09375 57.34375 
Q 20.90625 54.796875 20.703125 52.046875 
Q 20.5 49.296875 20.296875 46.6875 
Q 20.09375 44.09375 19.90625 42.59375 
z
" id="Ubuntu-53"/>
       <path d="M 19 5.40625 
Q 19 2.703125 17.203125 0.703125 
Q 15.40625 -1.296875 12.296875 -1.296875 
Q 9.203125 -1.296875 7.390625 0.703125 
Q 5.59375 2.703125 5.59375 5.40625 
Q 5.59375 8.09375 7.390625 10.09375 
Q 9.203125 12.09375 12.296875 12.09375 
Q 15.40625 12.09375 17.203125 10.09375 
Q 19 8.09375 19 5.40625 
z
" id="Ubuntu-46"/>
      </defs>
      <g transform="translate(26.575 412.996563)scale(0.14 -0.14)">
       <use xlink:href="#Ubuntu-53"/>
       <use x="56.399994" xlink:href="#Ubuntu-46"/>
       <use x="80.999985" xlink:href="#Ubuntu-53"/>
      </g>
     </g>
    </g>
    <g id="ytick_2">
     <g id="line2d_13">
      <path clip-path="url(#pd7ad849d3d)" d="M 54.911875 340.194448 
L 836.111875 340.194448 
" style="fill:none;stroke:#b0b0b0;stroke-linecap:square;stroke-opacity:0.25;stroke-width:0.8;"/>
     </g>
     <g id="line2d_14">
      <g>
       <use style="fill:#808080;stroke:#808080;stroke-width:0.8;" x="54.911875" xlink:href="#mcddff37fda" y="340.194448"/>
      </g>
     </g>
     <g id="text_8">
      <!-- 6.0 -->
      <g transform="translate(26.575 345.62601)scale(0.14 -0.14)">
       <use xlink:href="#Ubuntu-54"/>
       <use x="56.399994" xlink:href="#Ubuntu-46"/>
       <use x="80.999985" xlink:href="#Ubuntu-48"/>
      </g>
     </g>
    </g>
    <g id="ytick_3">
     <g id="line2d_15">
      <path clip-path="url(#pd7ad849d3d)" d="M 54.911875 272.823895 
L 836.111875 272.823895 
" style="fill:none;stroke:#b0b0b0;stroke-linecap:square;stroke-opacity:0.25;stroke-width:0.8;"/>
     </g>
     <g id="line2d_16">
      <g>
       <use style="fill:#808080;stroke:#808080;stroke-width:0.8;" x="54.911875" xlink:href="#mcddff37fda" y="272.823895"/>
      </g>
     </g>
     <g id="text_9">
      <!-- 6.5 -->
      <g transform="translate(26.575 278.255457)scale(0.14 -0.14)">
       <use xlink:href="#Ubuntu-54"/>
       <use x="56.399994" xlink:href="#Ubuntu-46"/>
       <use x="80.999985" xlink:href="#Ubuntu-53"/>
      </g>
     </g>
    </g>
    <g id="ytick_4">
     <g id="line2d_17">
      <path clip-path="url(#pd7ad849d3d)" d="M 54.911875 205.453341 
L 836.111875 205.453341 
" style="fill:none;stroke:#b0b0b0;stroke-linecap:square;stroke-opacity:0.25;stroke-width:0.8;"/>
     </g>
     <g id="line2d_18">
      <g>
       <use style="fill:#808080;stroke:#808080;stroke-width:0.8;" x="54.911875" xlink:href="#mcddff37fda" y="205.453341"/>
      </g>
     </g>
     <g id="text_10">
      <!-- 7.0 -->
      <defs>
       <path d="M 16.296875 0 
Q 16.90625 8 19.15625 16.84375 
Q 21.40625 25.703125 24.703125 34.046875 
Q 28 42.40625 31.953125 49.546875 
Q 35.90625 56.703125 39.703125 61.203125 
L 6 61.203125 
L 6 69.296875 
L 50.09375 69.296875 
L 50.09375 61.59375 
Q 46.796875 57.796875 42.796875 51.140625 
Q 38.796875 44.5 35.25 36.25 
Q 31.703125 28 29.140625 18.640625 
Q 26.59375 9.296875 26 0 
z
" id="Ubuntu-55"/>
      </defs>
      <g transform="translate(26.575 210.884904)scale(0.14 -0.14)">
       <use xlink:href="#Ubuntu-55"/>
       <use x="56.399994" xlink:href="#Ubuntu-46"/>
       <use x="80.999985" xlink:href="#Ubuntu-48"/>
      </g>
     </g>
    </g>
    <g id="ytick_5">
     <g id="line2d_19">
      <path clip-path="url(#pd7ad849d3d)" d="M 54.911875 138.082788 
L 836.111875 138.082788 
" style="fill:none;stroke:#b0b0b0;stroke-linecap:square;stroke-opacity:0.25;stroke-width:0.8;"/>
     </g>
     <g id="line2d_20">
      <g>
       <use style="fill:#808080;stroke:#808080;stroke-width:0.8;" x="54.911875" xlink:href="#mcddff37fda" y="138.082788"/>
      </g>
     </g>
     <g id="text_11">
      <!-- 7.5 -->
      <g transform="translate(26.575 143.514351)scale(0.14 -0.14)">
       <use xlink:href="#Ubuntu-55"/>
       <use x="56.399994" xlink:href="#Ubuntu-46"/>
       <use x="80.999985" xlink:href="#Ubuntu-53"/>
      </g>
     </g>
    </g>
    <g id="ytick_6">
     <g id="line2d_21">
      <path clip-path="url(#pd7ad849d3d)" d="M 54.911875 70.712235 
L 836.111875 70.712235 
" style="fill:none;stroke:#b0b0b0;stroke-linecap:square;stroke-opacity:0.25;stroke-width:0.8;"/>
     </g>
     <g id="line2d_22">
      <g>
       <use style="fill:#808080;stroke:#808080;stroke-width:0.8;" x="54.911875" xlink:href="#mcddff37fda" y="70.712235"/>
      </g>
     </g>
     <g id="text_12">
      <!-- 8.0 -->
      <g transform="translate(26.575 76.143798)scale(0.14 -0.14)">
       <use xlink:href="#Ubuntu-56"/>
       <use x="56.399994" xlink:href="#Ubuntu-46"/>
       <use x="80.999985" xlink:href="#Ubuntu-48"/>
      </g>
     </g>
    </g>
    <g id="text_13">
     <!-- Max Gold Sensed -->
     <defs>
      <path d="M 39.703125 9.59375 
Q 38.703125 12 37.046875 15.703125 
Q 35.40625 19.40625 33.5 23.703125 
Q 31.59375 28 29.4375 32.546875 
Q 27.296875 37.09375 25.390625 41.140625 
Q 23.5 45.203125 21.84375 48.390625 
Q 20.203125 51.59375 19.203125 53.296875 
Q 18.09375 41.5 17.390625 27.75 
Q 16.703125 14 16.203125 0 
L 6.703125 0 
Q 7.09375 9 7.59375 18.140625 
Q 8.09375 27.296875 8.75 36.140625 
Q 9.40625 45 10.15625 53.390625 
Q 10.90625 61.796875 11.796875 69.296875 
L 20.296875 69.296875 
Q 23 64.90625 26.09375 58.90625 
Q 29.203125 52.90625 32.296875 46.34375 
Q 35.40625 39.796875 38.296875 33.25 
Q 41.203125 26.703125 43.59375 21.296875 
Q 46 26.703125 48.890625 33.25 
Q 51.796875 39.796875 54.890625 46.34375 
Q 58 52.90625 61.09375 58.90625 
Q 64.203125 64.90625 66.90625 69.296875 
L 75.40625 69.296875 
Q 78.796875 35.796875 80.5 0 
L 71 0 
Q 70.5 14 69.796875 27.75 
Q 69.09375 41.5 68 53.296875 
Q 67 51.59375 65.34375 48.390625 
Q 63.703125 45.203125 61.796875 41.140625 
Q 59.90625 37.09375 57.75 32.546875 
Q 55.59375 28 53.6875 23.703125 
Q 51.796875 19.40625 50.140625 15.703125 
Q 48.5 12 47.5 9.59375 
z
" id="Ubuntu-77"/>
      <path d="M 25.59375 6.703125 
Q 28.90625 6.703125 31.453125 6.84375 
Q 34 7 35.703125 7.40625 
L 35.703125 22.90625 
Q 34.703125 23.40625 32.453125 23.75 
Q 30.203125 24.09375 27 24.09375 
Q 24.90625 24.09375 22.546875 23.796875 
Q 20.203125 23.5 18.25 22.546875 
Q 16.296875 21.59375 15 19.9375 
Q 13.703125 18.296875 13.703125 15.59375 
Q 13.703125 10.59375 16.890625 8.640625 
Q 20.09375 6.703125 25.59375 6.703125 
z
M 24.796875 53.296875 
Q 30.40625 53.296875 34.25 51.84375 
Q 38.09375 50.40625 40.4375 47.75 
Q 42.796875 45.09375 43.796875 41.4375 
Q 44.796875 37.796875 44.796875 33.40625 
L 44.796875 0.90625 
Q 43.59375 0.703125 41.4375 0.34375 
Q 39.296875 0 36.59375 -0.296875 
Q 33.90625 -0.59375 30.75 -0.84375 
Q 27.59375 -1.09375 24.5 -1.09375 
Q 20.09375 -1.09375 16.390625 -0.1875 
Q 12.703125 0.703125 10 2.640625 
Q 7.296875 4.59375 5.796875 7.796875 
Q 4.296875 11 4.296875 15.5 
Q 4.296875 19.796875 6.046875 22.890625 
Q 7.796875 26 10.796875 27.890625 
Q 13.796875 29.796875 17.796875 30.6875 
Q 21.796875 31.59375 26.203125 31.59375 
Q 27.59375 31.59375 29.09375 31.4375 
Q 30.59375 31.296875 31.9375 31.046875 
Q 33.296875 30.796875 34.296875 30.59375 
Q 35.296875 30.40625 35.703125 30.296875 
L 35.703125 32.90625 
Q 35.703125 35.203125 35.203125 37.453125 
Q 34.703125 39.703125 33.390625 41.453125 
Q 32.09375 43.203125 29.84375 44.25 
Q 27.59375 45.296875 24 45.296875 
Q 19.40625 45.296875 15.953125 44.640625 
Q 12.5 44 10.796875 43.296875 
L 9.703125 51 
Q 11.5 51.796875 15.703125 52.546875 
Q 19.90625 53.296875 24.796875 53.296875 
z
" id="Ubuntu-97"/>
      <path d="M 39.09375 0 
Q 38 2.203125 36.390625 4.890625 
Q 34.796875 7.59375 32.890625 10.4375 
Q 31 13.296875 29 16.09375 
Q 27 18.90625 25.09375 21.40625 
Q 23.203125 18.90625 21.203125 16.046875 
Q 19.203125 13.203125 17.34375 10.34375 
Q 15.5 7.5 13.890625 4.796875 
Q 12.296875 2.09375 11.203125 0 
L 1.59375 0 
Q 5.09375 6.796875 9.9375 13.84375 
Q 14.796875 20.90625 19.59375 27.296875 
L 2.40625 52 
L 12.90625 52 
L 25.296875 33.796875 
L 37.796875 52 
L 47.703125 52 
L 30.90625 27.90625 
Q 35.703125 21.40625 40.75 14.15625 
Q 45.796875 6.90625 49.296875 0 
z
" id="Ubuntu-120"/>
      <path d="M 50.90625 34.09375 
L 60.59375 34.09375 
L 60.59375 1.703125 
Q 59.40625 1.296875 57.15625 0.796875 
Q 54.90625 0.296875 51.953125 -0.203125 
Q 49 -0.703125 45.5 -1.046875 
Q 42 -1.40625 38.40625 -1.40625 
Q 31.09375 -1.40625 25.09375 1 
Q 19.09375 3.40625 14.796875 8 
Q 10.5 12.59375 8.140625 19.296875 
Q 5.796875 26 5.796875 34.703125 
Q 5.796875 43.40625 8.4375 50.15625 
Q 11.09375 56.90625 15.59375 61.5 
Q 20.09375 66.09375 26.140625 68.5 
Q 32.203125 70.90625 39.09375 70.90625 
Q 43.796875 70.90625 47.4375 70.296875 
Q 51.09375 69.703125 53.6875 68.890625 
Q 56.296875 68.09375 57.9375 67.296875 
Q 59.59375 66.5 60.203125 66.09375 
L 57.09375 58 
Q 54.203125 59.90625 49.390625 61.15625 
Q 44.59375 62.40625 39.59375 62.40625 
Q 34.296875 62.40625 29.9375 60.5 
Q 25.59375 58.59375 22.546875 55 
Q 19.5 51.40625 17.796875 46.25 
Q 16.09375 41.09375 16.09375 34.703125 
Q 16.09375 28.5 17.546875 23.390625 
Q 19 18.296875 21.953125 14.640625 
Q 24.90625 11 29.25 9 
Q 33.59375 7 39.5 7 
Q 43.703125 7 46.640625 7.453125 
Q 49.59375 7.90625 50.90625 8.296875 
z
" id="Ubuntu-71"/>
      <path d="M 8 50.5 
Q 11.203125 51.296875 16.5 52.1875 
Q 21.796875 53.09375 28.703125 53.09375 
Q 34.90625 53.09375 39 51.34375 
Q 43.09375 49.59375 45.546875 46.4375 
Q 48 43.296875 49 38.890625 
Q 50 34.5 50 29.203125 
L 50 0 
L 40.703125 0 
L 40.703125 27.203125 
Q 40.703125 32 40.046875 35.390625 
Q 39.40625 38.796875 37.90625 40.890625 
Q 36.40625 43 33.90625 43.953125 
Q 31.40625 44.90625 27.703125 44.90625 
Q 26.203125 44.90625 24.59375 44.796875 
Q 23 44.703125 21.546875 44.546875 
Q 20.09375 44.40625 18.9375 44.203125 
Q 17.796875 44 17.296875 43.90625 
L 17.296875 0 
L 8 0 
z
" id="Ubuntu-110"/>
     </defs>
     <g transform="translate(19.615 306.599375)rotate(-90)scale(0.16 -0.16)">
      <use xlink:href="#Ubuntu-77"/>
      <use x="87.099991" xlink:href="#Ubuntu-97"/>
      <use x="139.299988" xlink:href="#Ubuntu-120"/>
      <use x="190.399979" xlink:href="#Ubuntu-32"/>
      <use x="213.499969" xlink:href="#Ubuntu-71"/>
      <use x="280.699966" xlink:href="#Ubuntu-111"/>
      <use x="339.699951" xlink:href="#Ubuntu-108"/>
      <use x="366.999939" xlink:href="#Ubuntu-100"/>
      <use x="425.899933" xlink:href="#Ubuntu-32"/>
      <use x="448.999924" xlink:href="#Ubuntu-83"/>
      <use x="502.199921" xlink:href="#Ubuntu-101"/>
      <use x="558.099915" xlink:href="#Ubuntu-110"/>
      <use x="615.499908" xlink:href="#Ubuntu-115"/>
      <use x="660.099899" xlink:href="#Ubuntu-101"/>
      <use x="715.999893" xlink:href="#Ubuntu-100"/>
     </g>
    </g>
   </g>
   <g id="line2d_23">
    <path clip-path="url(#pd7ad849d3d)" d="M 90.420966 442.279602 
L 169.330057 315.9349 
L 248.239148 217.094007 
L 327.148239 174.66746 
L 406.05733 163.869141 
L 484.96642 146.492471 
L 563.875511 146.492471 
L 642.784602 132.319682 
L 721.693693 127.15892 
L 800.602784 117.387521 
" style="fill:none;stroke:#1f77b4;stroke-linecap:square;stroke-opacity:0.7;stroke-width:2.7;"/>
    <defs>
     <path d="M 0 2.8 
C 0.742569 2.8 1.454824 2.504974 1.979899 1.979899 
C 2.504974 1.454824 2.8 0.742569 2.8 0 
C 2.8 -0.742569 2.504974 -1.454824 1.979899 -1.979899 
C 1.454824 -2.504974 0.742569 -2.8 0 -2.8 
C -0.742569 -2.8 -1.454824 -2.504974 -1.979899 -1.979899 
C -2.504974 -1.454824 -2.8 -0.742569 -2.8 0 
C -2.8 0.742569 -2.504974 1.454824 -1.979899 1.979899 
C -1.454824 2.504974 -0.742569 2.8 0 2.8 
z
" id="m23ea9807c7"/>
    </defs>
    <g clip-path="url(#pd7ad849d3d)">
     <use style="fill:#1f77b4;fill-opacity:0.7;" x="90.420966" xlink:href="#m23ea9807c7" y="442.279602"/>
     <use style="fill:#1f77b4;fill-opacity:0.7;" x="169.330057" xlink:href="#m23ea9807c7" y="315.9349"/>
     <use style="fill:#1f77b4;fill-opacity:0.7;" x="248.239148" xlink:href="#m23ea9807c7" y="217.094007"/>
     <use style="fill:#1f77b4;fill-opacity:0.7;" x="327.148239" xlink:href="#m23ea9807c7" y="174.66746"/>
     <use style="fill:#1f77b4;fill-opacity:0.7;" x="406.05733" xlink:href="#m23ea9807c7" y="163.869141"/>
     <use style="fill:#1f77b4;fill-opacity:0.7;" x="484.96642" xlink:href="#m23ea9807c7" y="146.492471"/>
     <use style="fill:#1f77b4;fill-opacity:0.7;" x="563.875511" xlink:href="#m23ea9807c7" y="146.492471"/>
     <use style="fill:#1f77b4;fill-opacity:0.7;" x="642.784602" xlink:href="#m23ea9807c7" y="132.319682"/>
     <use style="fill:#1f77b4;fill-opacity:0.7;" x="721.693693" xlink:href="#m23ea9807c7" y="127.15892"/>
     <use style="fill:#1f77b4;fill-opacity:0.7;" x="800.602784" xlink:href="#m23ea9807c7" y="117.387521"/>
    </g>
   </g>
   <g id="line2d_24">
    <path clip-path="url(#pd7ad849d3d)" d="M 90.420966 442.279602 
L 169.330057 442.279602 
L 248.239148 360.847558 
L 327.148239 64.811336 
L 406.05733 64.811336 
L 484.96642 50.835856 
L 563.875511 47.282936 
L 642.784602 47.086244 
L 721.693693 46.934148 
L 800.602784 46.934148 
" style="fill:none;stroke:#ff7f0e;stroke-dasharray:9.99,4.32;stroke-dashoffset:0;stroke-opacity:0.7;stroke-width:2.7;"/>
    <defs>
     <path d="M -0 2.8 
L 2.8 -2.8 
L -2.8 -2.8 
z
" id="mc4d892a59d"/>
    </defs>
    <g clip-path="url(#pd7ad849d3d)">
     <use style="fill:#ff7f0e;fill-opacity:0.7;" x="90.420966" xlink:href="#mc4d892a59d" y="442.279602"/>
     <use style="fill:#ff7f0e;fill-opacity:0.7;" x="169.330057" xlink:href="#mc4d892a59d" y="442.279602"/>
     <use style="fill:#ff7f0e;fill-opacity:0.7;" x="248.239148" xlink:href="#mc4d892a59d" y="360.847558"/>
     <use style="fill:#ff7f0e;fill-opacity:0.7;" x="327.148239" xlink:href="#mc4d892a59d" y="64.811336"/>
     <use style="fill:#ff7f0e;fill-opacity:0.7;" x="406.05733" xlink:href="#mc4d892a59d" y="64.811336"/>
     <use style="fill:#ff7f0e;fill-opacity:0.7;" x="484.96642" xlink:href="#mc4d892a59d" y="50.835856"/>
     <use style="fill:#ff7f0e;fill-opacity:0.7;" x="563.875511" xlink:href="#mc4d892a59d" y="47.282936"/>
     <use style="fill:#ff7f0e;fill-opacity:0.7;" x="642.784602" xlink:href="#mc4d892a59d" y="47.086244"/>
     <use style="fill:#ff7f0e;fill-opacity:0.7;" x="721.693693" xlink:href="#mc4d892a59d" y="46.934148"/>
     <use style="fill:#ff7f0e;fill-opacity:0.7;" x="800.602784" xlink:href="#mc4d892a59d" y="46.934148"/>
    </g>
   </g>
   <g id="line2d_25">
    <path clip-path="url(#pd7ad849d3d)" d="M 90.420966 442.279602 
L 169.330057 320.838479 
L 248.239148 320.838479 
L 327.148239 320.838479 
L 406.05733 57.017719 
L 484.96642 47.278847 
L 563.875511 47.278847 
L 642.784602 47.278847 
L 721.693693 47.278847 
L 800.602784 47.278847 
" style="fill:none;stroke:#2ca02c;stroke-linecap:square;stroke-opacity:0.7;stroke-width:2.7;"/>
    <defs>
     <path d="M 0 -2.8 
L -2.8 2.8 
L 2.8 2.8 
z
" id="m81f0012bfe"/>
    </defs>
    <g clip-path="url(#pd7ad849d3d)">
     <use style="fill:#2ca02c;fill-opacity:0.7;" x="90.420966" xlink:href="#m81f0012bfe" y="442.279602"/>
     <use style="fill:#2ca02c;fill-opacity:0.7;" x="169.330057" xlink:href="#m81f0012bfe" y="320.838479"/>
     <use style="fill:#2ca02c;fill-opacity:0.7;" x="248.239148" xlink:href="#m81f0012bfe" y="320.838479"/>
     <use style="fill:#2ca02c;fill-opacity:0.7;" x="327.148239" xlink:href="#m81f0012bfe" y="320.838479"/>
     <use style="fill:#2ca02c;fill-opacity:0.7;" x="406.05733" xlink:href="#m81f0012bfe" y="57.017719"/>
     <use style="fill:#2ca02c;fill-opacity:0.7;" x="484.96642" xlink:href="#m81f0012bfe" y="47.278847"/>
     <use style="fill:#2ca02c;fill-opacity:0.7;" x="563.875511" xlink:href="#m81f0012bfe" y="47.278847"/>
     <use style="fill:#2ca02c;fill-opacity:0.7;" x="642.784602" xlink:href="#m81f0012bfe" y="47.278847"/>
     <use style="fill:#2ca02c;fill-opacity:0.7;" x="721.693693" xlink:href="#m81f0012bfe" y="47.278847"/>
     <use style="fill:#2ca02c;fill-opacity:0.7;" x="800.602784" xlink:href="#m81f0012bfe" y="47.278847"/>
    </g>
   </g>
   <g id="line2d_26">
    <path clip-path="url(#pd7ad849d3d)" d="M 90.420966 442.279602 
L 169.330057 442.279602 
L 248.239148 360.847558 
L 327.148239 48.327262 
L 406.05733 48.327262 
L 484.96642 47.282936 
L 563.875511 47.282936 
L 642.784602 46.97147 
L 721.693693 46.97147 
L 800.602784 46.97147 
" style="fill:none;stroke:#d62728;stroke-dasharray:2.7,4.455;stroke-dashoffset:0;stroke-opacity:0.7;stroke-width:2.7;"/>
    <defs>
     <path d="M -2.8 -0 
L 2.8 2.8 
L 2.8 -2.8 
z
" id="m9d86bddce9"/>
    </defs>
    <g clip-path="url(#pd7ad849d3d)">
     <use style="fill:#d62728;fill-opacity:0.7;" x="90.420966" xlink:href="#m9d86bddce9" y="442.279602"/>
     <use style="fill:#d62728;fill-opacity:0.7;" x="169.330057" xlink:href="#m9d86bddce9" y="442.279602"/>
     <use style="fill:#d62728;fill-opacity:0.7;" x="248.239148" xlink:href="#m9d86bddce9" y="360.847558"/>
     <use style="fill:#d62728;fill-opacity:0.7;" x="327.148239" xlink:href="#m9d86bddce9" y="48.327262"/>
     <use style="fill:#d62728;fill-opacity:0.7;" x="406.05733" xlink:href="#m9d86bddce9" y="48.327262"/>
     <use style="fill:#d62728;fill-opacity:0.7;" x="484.96642" xlink:href="#m9d86bddce9" y="47.282936"/>
     <use style="fill:#d62728;fill-opacity:0.7;" x="563.875511" xlink:href="#m9d86bddce9" y="47.282936"/>
     <use style="fill:#d62728;fill-opacity:0.7;" x="642.784602" xlink:href="#m9d86bddce9" y="46.97147"/>
     <use style="fill:#d62728;fill-opacity:0.7;" x="721.693693" xlink:href="#m9d86bddce9" y="46.97147"/>
     <use style="fill:#d62728;fill-opacity:0.7;" x="800.602784" xlink:href="#m9d86bddce9" y="46.97147"/>
    </g>
   </g>
   <g id="line2d_27">
    <path clip-path="url(#pd7ad849d3d)" d="M 90.420966 442.279602 
L 169.330057 395.068941 
L 248.239148 235.459588 
L 327.148239 235.459588 
L 406.05733 80.582135 
L 484.96642 47.086244 
L 563.875511 47.086244 
L 642.784602 46.934148 
L 721.693693 46.934148 
L 800.602784 46.934148 
" style="fill:none;stroke:#9467bd;stroke-dasharray:17.28,4.32,2.7,4.32;stroke-dashoffset:0;stroke-opacity:0.7;stroke-width:2.7;"/>
    <defs>
     <path d="M 2.8 0 
L -2.8 -2.8 
L -2.8 2.8 
z
" id="m35edc18e13"/>
    </defs>
    <g clip-path="url(#pd7ad849d3d)">
     <use style="fill:#9467bd;fill-opacity:0.7;" x="90.420966" xlink:href="#m35edc18e13" y="442.279602"/>
     <use style="fill:#9467bd;fill-opacity:0.7;" x="169.330057" xlink:href="#m35edc18e13" y="395.068941"/>
     <use style="fill:#9467bd;fill-opacity:0.7;" x="248.239148" xlink:href="#m35edc18e13" y="235.459588"/>
     <use style="fill:#9467bd;fill-opacity:0.7;" x="327.148239" xlink:href="#m35edc18e13" y="235.459588"/>
     <use style="fill:#9467bd;fill-opacity:0.7;" x="406.05733" xlink:href="#m35edc18e13" y="80.582135"/>
     <use style="fill:#9467bd;fill-opacity:0.7;" x="484.96642" xlink:href="#m35edc18e13" y="47.086244"/>
     <use style="fill:#9467bd;fill-opacity:0.7;" x="563.875511" xlink:href="#m35edc18e13" y="47.086244"/>
     <use style="fill:#9467bd;fill-opacity:0.7;" x="642.784602" xlink:href="#m35edc18e13" y="46.934148"/>
     <use style="fill:#9467bd;fill-opacity:0.7;" x="721.693693" xlink:href="#m35edc18e13" y="46.934148"/>
     <use style="fill:#9467bd;fill-opacity:0.7;" x="800.602784" xlink:href="#m35edc18e13" y="46.934148"/>
    </g>
   </g>
   <g id="line2d_28">
    <path clip-path="url(#pd7ad849d3d)" d="M 90.420966 442.279602 
L 169.330057 442.279602 
L 248.239148 360.847558 
L 327.148239 88.380322 
L 406.05733 88.380322 
L 484.96642 48.834758 
L 563.875511 48.834758 
L 642.784602 46.934148 
L 721.693693 46.934148 
L 800.602784 46.934148 
" style="fill:none;stroke:#8c564b;stroke-dasharray:2.7,4.455;stroke-dashoffset:0;stroke-opacity:0.7;stroke-width:2.7;"/>
    <defs>
     <path d="M -1.071514 -2.586863 
L -2.586863 -1.071514 
L -2.586863 1.071514 
L -1.071514 2.586863 
L 1.071514 2.586863 
L 2.586863 1.071514 
L 2.586863 -1.071514 
L 1.071514 -2.586863 
z
" id="md8df5ab690"/>
    </defs>
    <g clip-path="url(#pd7ad849d3d)">
     <use style="fill:#8c564b;fill-opacity:0.7;" x="90.420966" xlink:href="#md8df5ab690" y="442.279602"/>
     <use style="fill:#8c564b;fill-opacity:0.7;" x="169.330057" xlink:href="#md8df5ab690" y="442.279602"/>
     <use style="fill:#8c564b;fill-opacity:0.7;" x="248.239148" xlink:href="#md8df5ab690" y="360.847558"/>
     <use style="fill:#8c564b;fill-opacity:0.7;" x="327.148239" xlink:href="#md8df5ab690" y="88.380322"/>
     <use style="fill:#8c564b;fill-opacity:0.7;" x="406.05733" xlink:href="#md8df5ab690" y="88.380322"/>
     <use style="fill:#8c564b;fill-opacity:0.7;" x="484.96642" xlink:href="#md8df5ab690" y="48.834758"/>
     <use style="fill:#8c564b;fill-opacity:0.7;" x="563.875511" xlink:href="#md8df5ab690" y="48.834758"/>
     <use style="fill:#8c564b;fill-opacity:0.7;" x="642.784602" xlink:href="#md8df5ab690" y="46.934148"/>
     <use style="fill:#8c564b;fill-opacity:0.7;" x="721.693693" xlink:href="#md8df5ab690" y="46.934148"/>
     <use style="fill:#8c564b;fill-opacity:0.7;" x="800.602784" xlink:href="#md8df5ab690" y="46.934148"/>
    </g>
   </g>
   <g id="patch_3">
    <path d="M 54.911875 462.046875 
L 54.911875 27.166875 
" style="fill:none;stroke:#808080;stroke-linecap:square;stroke-linejoin:miter;stroke-width:0.5;"/>
   </g>
   <g id="patch_4">
    <path d="M 54.911875 462.046875 
L 836.111875 462.046875 
" style="fill:none;stroke:#808080;stroke-linecap:square;stroke-linejoin:miter;stroke-width:0.5;"/>
   </g>
   <g id="text_14">
    <!-- Comparison of different Acquisition Functions on Gold Mining task -->
    <defs>
     <path d="M 38.40625 -1.5 
Q 31.09375 -1.5 25.09375 0.890625 
Q 19.09375 3.296875 14.796875 7.890625 
Q 10.5 12.5 8.140625 19.25 
Q 5.796875 26 5.796875 34.703125 
Q 5.796875 43.40625 8.4375 50.15625 
Q 11.09375 56.90625 15.59375 61.5 
Q 20.09375 66.09375 26.09375 68.5 
Q 32.09375 70.90625 38.90625 70.90625 
Q 43.203125 70.90625 46.640625 70.296875 
Q 50.09375 69.703125 52.640625 68.890625 
Q 55.203125 68.09375 56.796875 67.296875 
Q 58.40625 66.5 59 66.09375 
L 56.203125 58.09375 
Q 55.296875 58.703125 53.59375 59.390625 
Q 51.90625 60.09375 49.75 60.796875 
Q 47.59375 61.5 45.046875 61.953125 
Q 42.5 62.40625 39.90625 62.40625 
Q 34.40625 62.40625 30 60.5 
Q 25.59375 58.59375 22.5 55 
Q 19.40625 51.40625 17.75 46.25 
Q 16.09375 41.09375 16.09375 34.703125 
Q 16.09375 28.5 17.546875 23.390625 
Q 19 18.296875 21.890625 14.640625 
Q 24.796875 11 29.140625 9 
Q 33.5 7 39.296875 7 
Q 46 7 50.390625 8.390625 
Q 54.796875 9.796875 57 10.90625 
L 59.5 2.90625 
Q 58.796875 2.40625 57 1.65625 
Q 55.203125 0.90625 52.5 0.203125 
Q 49.796875 -0.5 46.1875 -1 
Q 42.59375 -1.5 38.40625 -1.5 
z
" id="Ubuntu-67"/>
     <path d="M 8 50.5 
Q 11.203125 51.296875 16.453125 52.1875 
Q 21.703125 53.09375 28.59375 53.09375 
Q 33.59375 53.09375 37 51.75 
Q 40.40625 50.40625 42.703125 47.796875 
Q 43.40625 48.296875 44.90625 49.1875 
Q 46.40625 50.09375 48.59375 50.9375 
Q 50.796875 51.796875 53.5 52.4375 
Q 56.203125 53.09375 59.296875 53.09375 
Q 65.296875 53.09375 69.09375 51.34375 
Q 72.90625 49.59375 75.046875 46.390625 
Q 77.203125 43.203125 77.953125 38.796875 
Q 78.703125 34.40625 78.703125 29.203125 
L 78.703125 0 
L 69.40625 0 
L 69.40625 27.203125 
Q 69.40625 31.796875 68.953125 35.09375 
Q 68.5 38.40625 67.25 40.59375 
Q 66 42.796875 63.84375 43.84375 
Q 61.703125 44.90625 58.296875 44.90625 
Q 53.59375 44.90625 50.546875 43.65625 
Q 47.5 42.40625 46.40625 41.40625 
Q 47.203125 38.796875 47.59375 35.6875 
Q 48 32.59375 48 29.203125 
L 48 0 
L 38.703125 0 
L 38.703125 27.203125 
Q 38.703125 31.796875 38.203125 35.09375 
Q 37.703125 38.40625 36.453125 40.59375 
Q 35.203125 42.796875 33.046875 43.84375 
Q 30.90625 44.90625 27.59375 44.90625 
Q 26.203125 44.90625 24.59375 44.796875 
Q 23 44.703125 21.546875 44.546875 
Q 20.09375 44.40625 18.890625 44.203125 
Q 17.703125 44 17.296875 43.90625 
L 17.296875 0 
L 8 0 
z
" id="Ubuntu-109"/>
     <path d="M 44.09375 25.90625 
Q 44.09375 35 39.59375 39.890625 
Q 35.09375 44.796875 27.59375 44.796875 
Q 23.40625 44.796875 21.046875 44.5 
Q 18.703125 44.203125 17.296875 43.796875 
L 17.296875 11 
Q 19 9.59375 22.203125 8.296875 
Q 25.40625 7 29.203125 7 
Q 33.203125 7 36.046875 8.453125 
Q 38.90625 9.90625 40.703125 12.453125 
Q 42.5 15 43.296875 18.453125 
Q 44.09375 21.90625 44.09375 25.90625 
z
M 53.796875 25.90625 
Q 53.796875 20 52.25 15 
Q 50.703125 10 47.703125 6.390625 
Q 44.703125 2.796875 40.34375 0.796875 
Q 36 -1.203125 30.40625 -1.203125 
Q 25.90625 -1.203125 22.453125 0 
Q 19 1.203125 17.296875 2.296875 
L 17.296875 -18.5 
L 8 -18.5 
L 8 50.40625 
Q 11.296875 51.203125 16.25 52.140625 
Q 21.203125 53.09375 27.703125 53.09375 
Q 33.703125 53.09375 38.5 51.1875 
Q 43.296875 49.296875 46.6875 45.796875 
Q 50.09375 42.296875 51.9375 37.25 
Q 53.796875 32.203125 53.796875 25.90625 
z
" id="Ubuntu-112"/>
     <path d="M 54.90625 0 
Q 53.203125 4.5 51.703125 8.84375 
Q 50.203125 13.203125 48.59375 17.703125 
L 17.203125 17.703125 
L 10.90625 0 
L 0.796875 0 
Q 4.796875 11 8.296875 20.34375 
Q 11.796875 29.703125 15.140625 38.09375 
Q 18.5 46.5 21.796875 54.140625 
Q 25.09375 61.796875 28.703125 69.296875 
L 37.59375 69.296875 
Q 41.203125 61.796875 44.5 54.140625 
Q 47.796875 46.5 51.140625 38.09375 
Q 54.5 29.703125 58 20.34375 
Q 61.5 11 65.5 0 
z
M 45.796875 25.703125 
Q 42.59375 34.40625 39.4375 42.546875 
Q 36.296875 50.703125 32.90625 58.203125 
Q 29.40625 50.703125 26.25 42.546875 
Q 23.09375 34.40625 20 25.703125 
z
" id="Ubuntu-65"/>
     <path d="M 30.59375 -1.203125 
Q 24.296875 -1.203125 19.546875 0.796875 
Q 14.796875 2.796875 11.546875 6.390625 
Q 8.296875 10 6.6875 14.953125 
Q 5.09375 19.90625 5.09375 25.90625 
Q 5.09375 31.90625 6.84375 36.90625 
Q 8.59375 41.90625 11.796875 45.546875 
Q 15 49.203125 19.640625 51.25 
Q 24.296875 53.296875 30 53.296875 
Q 33.5 53.296875 37 52.6875 
Q 40.5 52.09375 43.703125 50.796875 
L 41.59375 42.90625 
Q 39.5 43.90625 36.75 44.5 
Q 34 45.09375 30.90625 45.09375 
Q 23.09375 45.09375 18.9375 40.1875 
Q 14.796875 35.296875 14.796875 25.90625 
Q 14.796875 21.703125 15.75 18.203125 
Q 16.703125 14.703125 18.75 12.203125 
Q 20.796875 9.703125 24 8.34375 
Q 27.203125 7 31.796875 7 
Q 35.5 7 38.5 7.703125 
Q 41.5 8.40625 43.203125 9.203125 
L 44.5 1.40625 
Q 43.703125 0.90625 42.203125 0.453125 
Q 40.703125 0 38.796875 -0.34375 
Q 36.90625 -0.703125 34.75 -0.953125 
Q 32.59375 -1.203125 30.59375 -1.203125 
z
" id="Ubuntu-99"/>
     <path d="M 14.796875 25.90625 
Q 14.796875 21.90625 15.59375 18.453125 
Q 16.40625 15 18.203125 12.453125 
Q 20 9.90625 22.84375 8.453125 
Q 25.703125 7 29.703125 7 
Q 33.5 7 36.703125 8.296875 
Q 39.90625 9.59375 41.59375 11 
L 41.59375 43.796875 
Q 40.203125 44.203125 37.84375 44.5 
Q 35.5 44.796875 31.296875 44.796875 
Q 23.796875 44.796875 19.296875 39.890625 
Q 14.796875 35 14.796875 25.90625 
z
M 5.09375 25.90625 
Q 5.09375 32.203125 6.9375 37.25 
Q 8.796875 42.296875 12.1875 45.796875 
Q 15.59375 49.296875 20.390625 51.1875 
Q 25.203125 53.09375 31.203125 53.09375 
Q 37.703125 53.09375 42.640625 52.140625 
Q 47.59375 51.203125 50.90625 50.40625 
L 50.90625 -18.5 
L 41.59375 -18.5 
L 41.59375 2.296875 
Q 39.90625 1.203125 36.453125 0 
Q 33 -1.203125 28.5 -1.203125 
Q 22.90625 -1.203125 18.546875 0.796875 
Q 14.203125 2.796875 11.203125 6.390625 
Q 8.203125 10 6.640625 15 
Q 5.09375 20 5.09375 25.90625 
z
" id="Ubuntu-113"/>
     <path d="M 49.40625 1.5 
Q 46.203125 0.703125 40.953125 -0.1875 
Q 35.703125 -1.09375 28.796875 -1.09375 
Q 22.796875 -1.09375 18.6875 0.65625 
Q 14.59375 2.40625 12.09375 5.59375 
Q 9.59375 8.796875 8.5 13.140625 
Q 7.40625 17.5 7.40625 22.796875 
L 7.40625 52 
L 16.703125 52 
L 16.703125 24.796875 
Q 16.703125 15.296875 19.703125 11.1875 
Q 22.703125 7.09375 29.796875 7.09375 
Q 31.296875 7.09375 32.890625 7.1875 
Q 34.5 7.296875 35.890625 7.4375 
Q 37.296875 7.59375 38.4375 7.75 
Q 39.59375 7.90625 40.09375 8.09375 
L 40.09375 52 
L 49.40625 52 
z
" id="Ubuntu-117"/>
     <path d="M 8.59375 0 
L 8.59375 69.296875 
L 50.40625 69.296875 
L 50.40625 61 
L 18.296875 61 
L 18.296875 40.09375 
L 46.796875 40.09375 
L 46.796875 31.90625 
L 18.296875 31.90625 
L 18.296875 0 
z
" id="Ubuntu-70"/>
     <path d="M 40.59375 5.203125 
Q 39.40625 4.40625 35.953125 3.15625 
Q 32.5 1.90625 27.90625 1.90625 
Q 23.203125 1.90625 19.046875 3.40625 
Q 14.90625 4.90625 11.796875 8.046875 
Q 8.703125 11.203125 6.890625 15.890625 
Q 5.09375 20.59375 5.09375 27.09375 
Q 5.09375 32.796875 6.796875 37.546875 
Q 8.5 42.296875 11.75 45.75 
Q 15 49.203125 19.703125 51.140625 
Q 24.40625 53.09375 30.296875 53.09375 
Q 36.796875 53.09375 41.640625 52.140625 
Q 46.5 51.203125 49.796875 50.40625 
L 49.796875 4 
Q 49.796875 -8 43.59375 -13.390625 
Q 37.40625 -18.796875 24.796875 -18.796875 
Q 19.90625 -18.796875 15.546875 -18 
Q 11.203125 -17.203125 8 -16.09375 
L 9.703125 -8 
Q 12.5 -9.09375 16.546875 -9.9375 
Q 20.59375 -10.796875 25 -10.796875 
Q 33.296875 -10.796875 36.9375 -7.5 
Q 40.59375 -4.203125 40.59375 3 
z
M 40.5 43.796875 
Q 39.09375 44.203125 36.75 44.546875 
Q 34.40625 44.90625 30.40625 44.90625 
Q 22.90625 44.90625 18.84375 40 
Q 14.796875 35.09375 14.796875 27 
Q 14.796875 22.5 15.9375 19.296875 
Q 17.09375 16.09375 19.046875 14 
Q 21 11.90625 23.546875 10.90625 
Q 26.09375 9.90625 28.796875 9.90625 
Q 32.5 9.90625 35.59375 10.953125 
Q 38.703125 12 40.5 13.40625 
z
" id="Ubuntu-103"/>
     <path d="M 26.796875 28.59375 
Q 29.796875 26.296875 33.140625 22.890625 
Q 36.5 19.5 39.75 15.546875 
Q 43 11.59375 45.890625 7.546875 
Q 48.796875 3.5 50.796875 0 
L 39.90625 0 
Q 37.796875 3.5 35.046875 7.140625 
Q 32.296875 10.796875 29.296875 14.140625 
Q 26.296875 17.5 23.1875 20.296875 
Q 20.09375 23.09375 17.296875 25 
L 17.296875 0 
L 8 0 
L 8 76 
L 17.296875 77.59375 
L 17.296875 30.203125 
Q 19.703125 32.59375 22.59375 35.5 
Q 25.5 38.40625 28.296875 41.40625 
Q 31.09375 44.40625 33.59375 47.15625 
Q 36.09375 49.90625 37.90625 52 
L 48.796875 52 
Q 46.5 49.5 43.796875 46.5 
Q 41.09375 43.5 38.1875 40.453125 
Q 35.296875 37.40625 32.34375 34.34375 
Q 29.40625 31.296875 26.796875 28.59375 
z
" id="Ubuntu-107"/>
    </defs>
    <g transform="translate(174.53875 21.166875)scale(0.18 -0.18)">
     <use xlink:href="#Ubuntu-67"/>
     <use x="61.98436" xlink:href="#Ubuntu-111"/>
     <use x="120.984344" xlink:href="#Ubuntu-109"/>
     <use x="207.084335" xlink:href="#Ubuntu-112"/>
     <use x="265.984329" xlink:href="#Ubuntu-97"/>
     <use x="318.184326" xlink:href="#Ubuntu-114"/>
     <use x="356.784317" xlink:href="#Ubuntu-105"/>
     <use x="382.084305" xlink:href="#Ubuntu-115"/>
     <use x="426.684296" xlink:href="#Ubuntu-111"/>
     <use x="485.68428" xlink:href="#Ubuntu-110"/>
     <use x="543.084274" xlink:href="#Ubuntu-32"/>
     <use x="566.184265" xlink:href="#Ubuntu-111"/>
     <use x="625.18425" xlink:href="#Ubuntu-102"/>
     <use x="663.784241" xlink:href="#Ubuntu-32"/>
     <use x="686.884232" xlink:href="#Ubuntu-100"/>
     <use x="745.784225" xlink:href="#Ubuntu-105"/>
     <use x="771.084213" xlink:href="#Ubuntu-102"/>
     <use x="809.684204" xlink:href="#Ubuntu-102"/>
     <use x="848.284195" xlink:href="#Ubuntu-101"/>
     <use x="904.184189" xlink:href="#Ubuntu-114"/>
     <use x="942.78418" xlink:href="#Ubuntu-101"/>
     <use x="998.684174" xlink:href="#Ubuntu-110"/>
     <use x="1056.084167" xlink:href="#Ubuntu-116"/>
     <use x="1096.284164" xlink:href="#Ubuntu-32"/>
     <use x="1119.384155" xlink:href="#Ubuntu-65"/>
     <use x="1185.668518" xlink:href="#Ubuntu-99"/>
     <use x="1232.168503" xlink:href="#Ubuntu-113"/>
     <use x="1291.068497" xlink:href="#Ubuntu-117"/>
     <use x="1348.468491" xlink:href="#Ubuntu-105"/>
     <use x="1373.768478" xlink:href="#Ubuntu-115"/>
     <use x="1418.368469" xlink:href="#Ubuntu-105"/>
     <use x="1443.668457" xlink:href="#Ubuntu-116"/>
     <use x="1483.868454" xlink:href="#Ubuntu-105"/>
     <use x="1509.168442" xlink:href="#Ubuntu-111"/>
     <use x="1568.168427" xlink:href="#Ubuntu-110"/>
     <use x="1625.56842" xlink:href="#Ubuntu-32"/>
     <use x="1648.668411" xlink:href="#Ubuntu-70"/>
     <use x="1702.337158" xlink:href="#Ubuntu-117"/>
     <use x="1759.737152" xlink:href="#Ubuntu-110"/>
     <use x="1817.137146" xlink:href="#Ubuntu-99"/>
     <use x="1863.637131" xlink:href="#Ubuntu-116"/>
     <use x="1903.837128" xlink:href="#Ubuntu-105"/>
     <use x="1929.137115" xlink:href="#Ubuntu-111"/>
     <use x="1988.1371" xlink:href="#Ubuntu-110"/>
     <use x="2045.537094" xlink:href="#Ubuntu-115"/>
     <use x="2090.137085" xlink:href="#Ubuntu-32"/>
     <use x="2113.237076" xlink:href="#Ubuntu-111"/>
     <use x="2172.237061" xlink:href="#Ubuntu-110"/>
     <use x="2229.637054" xlink:href="#Ubuntu-32"/>
     <use x="2252.737045" xlink:href="#Ubuntu-71"/>
     <use x="2319.937042" xlink:href="#Ubuntu-111"/>
     <use x="2378.937027" xlink:href="#Ubuntu-108"/>
     <use x="2406.237015" xlink:href="#Ubuntu-100"/>
     <use x="2465.137009" xlink:href="#Ubuntu-32"/>
     <use x="2488.237" xlink:href="#Ubuntu-77"/>
     <use x="2575.33699" xlink:href="#Ubuntu-105"/>
     <use x="2600.636978" xlink:href="#Ubuntu-110"/>
     <use x="2658.036972" xlink:href="#Ubuntu-105"/>
     <use x="2683.33696" xlink:href="#Ubuntu-110"/>
     <use x="2740.736954" xlink:href="#Ubuntu-103"/>
     <use x="2798.536942" xlink:href="#Ubuntu-32"/>
     <use x="2821.636932" xlink:href="#Ubuntu-116"/>
     <use x="2861.836929" xlink:href="#Ubuntu-97"/>
     <use x="2914.036926" xlink:href="#Ubuntu-115"/>
     <use x="2958.636917" xlink:href="#Ubuntu-107"/>
    </g>
   </g>
   <g id="legend_1">
    <g id="patch_5">
     <path d="M 66.111875 180.216875 
L 193.886875 180.216875 
Q 197.086875 180.216875 197.086875 177.016875 
L 197.086875 38.366875 
Q 197.086875 35.166875 193.886875 35.166875 
L 66.111875 35.166875 
Q 62.911875 35.166875 62.911875 38.366875 
L 62.911875 177.016875 
Q 62.911875 180.216875 66.111875 180.216875 
z
" style="fill:#ffffff;opacity:0.8;stroke:#cccccc;stroke-linejoin:miter;stroke-width:0.24;"/>
    </g>
    <g id="line2d_29">
     <path d="M 69.311875 48.381875 
L 101.311875 48.381875 
" style="fill:none;stroke:#1f77b4;stroke-linecap:square;stroke-opacity:0.7;stroke-width:2.7;"/>
    </g>
    <g id="line2d_30">
     <g>
      <use style="fill:#1f77b4;fill-opacity:0.7;" x="85.311875" xlink:href="#m23ea9807c7" y="48.381875"/>
     </g>
    </g>
    <g id="text_15">
     <!-- Random -->
     <defs>
      <path d="M 42.5 29 
Q 44.09375 27 46.546875 23.75 
Q 49 20.5 51.59375 16.546875 
Q 54.203125 12.59375 56.75 8.296875 
Q 59.296875 4 61.09375 0 
L 50.5 0 
Q 48.5 3.796875 46.140625 7.6875 
Q 43.796875 11.59375 41.390625 15.140625 
Q 39 18.703125 36.640625 21.796875 
Q 34.296875 24.90625 32.40625 27.203125 
Q 31.09375 27.09375 29.75 27.09375 
Q 28.40625 27.09375 27 27.09375 
L 18.296875 27.09375 
L 18.296875 0 
L 8.59375 0 
L 8.59375 68.296875 
Q 12.703125 69.296875 17.75 69.640625 
Q 22.796875 70 27 70 
Q 41.59375 70 49.25 64.5 
Q 56.90625 59 56.90625 48.09375 
Q 56.90625 41.203125 53.25 36.296875 
Q 49.59375 31.40625 42.5 29 
z
M 27.796875 61.5 
Q 21.59375 61.5 18.296875 61.203125 
L 18.296875 35.09375 
L 25.203125 35.09375 
Q 30.203125 35.09375 34.203125 35.59375 
Q 38.203125 36.09375 40.953125 37.5 
Q 43.703125 38.90625 45.203125 41.453125 
Q 46.703125 44 46.703125 48.203125 
Q 46.703125 52.09375 45.203125 54.6875 
Q 43.703125 57.296875 41.140625 58.796875 
Q 38.59375 60.296875 35.140625 60.890625 
Q 31.703125 61.5 27.796875 61.5 
z
" id="Ubuntu-82"/>
     </defs>
     <g transform="translate(114.111875 53.981875)scale(0.16 -0.16)">
      <use xlink:href="#Ubuntu-82"/>
      <use x="62.899994" xlink:href="#Ubuntu-97"/>
      <use x="115.099991" xlink:href="#Ubuntu-110"/>
      <use x="172.499985" xlink:href="#Ubuntu-100"/>
      <use x="231.399979" xlink:href="#Ubuntu-111"/>
      <use x="290.399963" xlink:href="#Ubuntu-109"/>
     </g>
    </g>
    <g id="line2d_31">
     <path d="M 69.311875 71.756875 
L 101.311875 71.756875 
" style="fill:none;stroke:#ff7f0e;stroke-dasharray:9.99,4.32;stroke-dashoffset:0;stroke-opacity:0.7;stroke-width:2.7;"/>
    </g>
    <g id="line2d_32">
     <g>
      <use style="fill:#ff7f0e;fill-opacity:0.7;" x="85.311875" xlink:href="#mc4d892a59d" y="71.756875"/>
     </g>
    </g>
    <g id="text_16">
     <!-- UCB -->
     <defs>
      <path d="M 34.40625 -1.5 
Q 27.59375 -1.5 22.59375 0.59375 
Q 17.59375 2.703125 14.390625 6.34375 
Q 11.203125 10 9.640625 15 
Q 8.09375 20 8.09375 25.796875 
L 8.09375 69.296875 
L 17.796875 69.296875 
L 17.796875 26.90625 
Q 17.796875 16.5 22.390625 11.796875 
Q 27 7.09375 34.40625 7.09375 
Q 38.09375 7.09375 41.140625 8.25 
Q 44.203125 9.40625 46.390625 11.796875 
Q 48.59375 14.203125 49.796875 17.953125 
Q 51 21.703125 51 26.90625 
L 51 69.296875 
L 60.703125 69.296875 
L 60.703125 25.796875 
Q 60.703125 20 59.140625 15 
Q 57.59375 10 54.34375 6.34375 
Q 51.09375 2.703125 46.140625 0.59375 
Q 41.203125 -1.5 34.40625 -1.5 
z
" id="Ubuntu-85"/>
      <path d="M 27.296875 -0.59375 
Q 25.203125 -0.59375 22.75 -0.5 
Q 20.296875 -0.40625 17.84375 -0.203125 
Q 15.40625 0 13 0.296875 
Q 10.59375 0.59375 8.59375 1.09375 
L 8.59375 68.296875 
Q 10.59375 68.796875 13 69.09375 
Q 15.40625 69.40625 17.84375 69.59375 
Q 20.296875 69.796875 22.6875 69.890625 
Q 25.09375 70 27.203125 70 
Q 33.203125 70 38.453125 69.09375 
Q 43.703125 68.203125 47.546875 66.046875 
Q 51.40625 63.90625 53.59375 60.40625 
Q 55.796875 56.90625 55.796875 51.796875 
Q 55.796875 46.09375 53.09375 42.4375 
Q 50.40625 38.796875 45.90625 37 
Q 52 35.203125 55.59375 31.296875 
Q 59.203125 27.40625 59.203125 20.296875 
Q 59.203125 9.90625 51.546875 4.65625 
Q 43.90625 -0.59375 27.296875 -0.59375 
z
M 18.203125 32.296875 
L 18.203125 7.90625 
Q 19.296875 7.796875 20.796875 7.703125 
Q 22.09375 7.59375 23.84375 7.546875 
Q 25.59375 7.5 27.90625 7.5 
Q 32.203125 7.5 36.046875 8.046875 
Q 39.90625 8.59375 42.796875 10 
Q 45.703125 11.40625 47.453125 13.90625 
Q 49.203125 16.40625 49.203125 20.203125 
Q 49.203125 23.59375 47.890625 25.9375 
Q 46.59375 28.296875 44.140625 29.6875 
Q 41.703125 31.09375 38.296875 31.6875 
Q 34.90625 32.296875 30.703125 32.296875 
z
M 18.203125 40.09375 
L 28.40625 40.09375 
Q 32 40.09375 35.203125 40.59375 
Q 38.40625 41.09375 40.75 42.390625 
Q 43.09375 43.703125 44.4375 45.796875 
Q 45.796875 47.90625 45.796875 51.09375 
Q 45.796875 54.09375 44.390625 56.140625 
Q 43 58.203125 40.546875 59.453125 
Q 38.09375 60.703125 34.796875 61.296875 
Q 31.5 61.90625 27.796875 61.90625 
Q 24.09375 61.90625 22 61.796875 
Q 19.90625 61.703125 18.203125 61.5 
z
" id="Ubuntu-66"/>
     </defs>
     <g transform="translate(114.111875 77.356875)scale(0.16 -0.16)">
      <use xlink:href="#Ubuntu-85"/>
      <use x="68.799988" xlink:href="#Ubuntu-67"/>
      <use x="130.799973" xlink:href="#Ubuntu-66"/>
     </g>
    </g>
    <g id="line2d_33">
     <path d="M 69.311875 95.131875 
L 101.311875 95.131875 
" style="fill:none;stroke:#2ca02c;stroke-linecap:square;stroke-opacity:0.7;stroke-width:2.7;"/>
    </g>
    <g id="line2d_34">
     <g>
      <use style="fill:#2ca02c;fill-opacity:0.7;" x="85.311875" xlink:href="#m81f0012bfe" y="95.131875"/>
     </g>
    </g>
    <g id="text_17">
     <!-- PI -->
     <defs>
      <path d="M 27 70 
Q 41.59375 70 49.4375 64.453125 
Q 57.296875 58.90625 57.296875 47.90625 
Q 57.296875 41.90625 55.140625 37.65625 
Q 53 33.40625 48.953125 30.75 
Q 44.90625 28.09375 39.09375 26.890625 
Q 33.296875 25.703125 26 25.703125 
L 18.296875 25.703125 
L 18.296875 0 
L 8.59375 0 
L 8.59375 68.296875 
Q 12.703125 69.296875 17.75 69.640625 
Q 22.796875 70 27 70 
z
M 27.796875 61.5 
Q 21.59375 61.5 18.296875 61.203125 
L 18.296875 34 
L 25.59375 34 
Q 30.59375 34 34.59375 34.640625 
Q 38.59375 35.296875 41.34375 36.84375 
Q 44.09375 38.40625 45.59375 41.09375 
Q 47.09375 43.796875 47.09375 48 
Q 47.09375 52 45.546875 54.59375 
Q 44 57.203125 41.34375 58.75 
Q 38.703125 60.296875 35.203125 60.890625 
Q 31.703125 61.5 27.796875 61.5 
z
" id="Ubuntu-80"/>
      <path d="M 8.59375 69.296875 
L 18.296875 69.296875 
L 18.296875 0 
L 8.59375 0 
z
" id="Ubuntu-73"/>
     </defs>
     <g transform="translate(114.111875 100.731875)scale(0.16 -0.16)">
      <use xlink:href="#Ubuntu-80"/>
      <use x="60.799988" xlink:href="#Ubuntu-73"/>
     </g>
    </g>
    <g id="line2d_35">
     <path d="M 69.311875 118.506875 
L 101.311875 118.506875 
" style="fill:none;stroke:#d62728;stroke-dasharray:2.7,4.455;stroke-dashoffset:0;stroke-opacity:0.7;stroke-width:2.7;"/>
    </g>
    <g id="line2d_36">
     <g>
      <use style="fill:#d62728;fill-opacity:0.7;" x="85.311875" xlink:href="#m9d86bddce9" y="118.506875"/>
     </g>
    </g>
    <g id="text_18">
     <!-- EI -->
     <defs>
      <path d="M 8.59375 0 
L 8.59375 69.296875 
L 50.90625 69.296875 
L 50.90625 61 
L 18.296875 61 
L 18.296875 40.40625 
L 47.296875 40.40625 
L 47.296875 32.296875 
L 18.296875 32.296875 
L 18.296875 8.296875 
L 53.40625 8.296875 
L 53.40625 0 
z
" id="Ubuntu-69"/>
     </defs>
     <g transform="translate(114.111875 124.106875)scale(0.16 -0.16)">
      <use xlink:href="#Ubuntu-69"/>
      <use x="57.099991" xlink:href="#Ubuntu-73"/>
     </g>
    </g>
    <g id="line2d_37">
     <path d="M 69.311875 141.881875 
L 101.311875 141.881875 
" style="fill:none;stroke:#9467bd;stroke-dasharray:17.28,4.32,2.7,4.32;stroke-dashoffset:0;stroke-opacity:0.7;stroke-width:2.7;"/>
    </g>
    <g id="line2d_38">
     <g>
      <use style="fill:#9467bd;fill-opacity:0.7;" x="85.311875" xlink:href="#m35edc18e13" y="141.881875"/>
     </g>
    </g>
    <g id="text_19">
     <!-- Thompson -->
     <defs>
      <path d="M 54.90625 69.296875 
L 54.90625 60.90625 
L 33.09375 60.90625 
L 33.09375 0 
L 23.40625 0 
L 23.40625 60.90625 
L 1.59375 60.90625 
L 1.59375 69.296875 
z
" id="Ubuntu-84"/>
      <path d="M 8 0 
L 8 76 
L 17.296875 77.59375 
L 17.296875 51 
Q 19.90625 52 22.84375 52.546875 
Q 25.796875 53.09375 28.703125 53.09375 
Q 34.90625 53.09375 39 51.34375 
Q 43.09375 49.59375 45.546875 46.4375 
Q 48 43.296875 49 38.890625 
Q 50 34.5 50 29.203125 
L 50 0 
L 40.703125 0 
L 40.703125 27.203125 
Q 40.703125 32 40.046875 35.390625 
Q 39.40625 38.796875 37.90625 40.890625 
Q 36.40625 43 33.90625 43.953125 
Q 31.40625 44.90625 27.703125 44.90625 
Q 26.203125 44.90625 24.59375 44.703125 
Q 23 44.5 21.546875 44.25 
Q 20.09375 44 18.9375 43.703125 
Q 17.796875 43.40625 17.296875 43.203125 
L 17.296875 0 
z
" id="Ubuntu-104"/>
     </defs>
     <g transform="translate(114.111875 147.481875)scale(0.16 -0.16)">
      <use xlink:href="#Ubuntu-84"/>
      <use x="56.499985" xlink:href="#Ubuntu-104"/>
      <use x="113.599976" xlink:href="#Ubuntu-111"/>
      <use x="172.59996" xlink:href="#Ubuntu-109"/>
      <use x="258.699951" xlink:href="#Ubuntu-112"/>
      <use x="317.599945" xlink:href="#Ubuntu-115"/>
      <use x="362.199936" xlink:href="#Ubuntu-111"/>
      <use x="421.199921" xlink:href="#Ubuntu-110"/>
     </g>
    </g>
    <g id="line2d_39">
     <path d="M 69.311875 165.256875 
L 101.311875 165.256875 
" style="fill:none;stroke:#8c564b;stroke-dasharray:2.7,4.455;stroke-dashoffset:0;stroke-opacity:0.7;stroke-width:2.7;"/>
    </g>
    <g id="line2d_40">
     <g>
      <use style="fill:#8c564b;fill-opacity:0.7;" x="85.311875" xlink:href="#md8df5ab690" y="165.256875"/>
     </g>
    </g>
    <g id="text_20">
     <!-- GP-UCB -->
     <defs>
      <path d="M 2.59375 34.296875 
L 27.296875 34.296875 
L 27.296875 25.59375 
L 2.59375 25.59375 
z
" id="Ubuntu-45"/>
     </defs>
     <g transform="translate(114.111875 170.856875)scale(0.16 -0.16)">
      <use xlink:href="#Ubuntu-71"/>
      <use x="67.199997" xlink:href="#Ubuntu-80"/>
      <use x="127.999985" xlink:href="#Ubuntu-45"/>
      <use x="157.899979" xlink:href="#Ubuntu-85"/>
      <use x="226.699966" xlink:href="#Ubuntu-67"/>
      <use x="288.699951" xlink:href="#Ubuntu-66"/>
     </g>
    </g>
   </g>
  </g>
 </g>
 <defs>
  <clipPath id="pd7ad849d3d">
   <rect height="434.88" width="781.2" x="54.911875" y="27.166875"/>
  </clipPath>
 </defs>
</svg>
