<?xml version="1.0" encoding="utf-8" standalone="no"?>
<!DOCTYPE svg PUBLIC "-//W3C//DTD SVG 1.1//EN"
  "http://www.w3.org/Graphics/SVG/1.1/DTD/svg11.dtd">
<!-- Created with matplotlib (https://matplotlib.org/) -->
<svg height="388.608825pt" version="1.1" viewBox="0 0 673.6075 388.608825" width="673.6075pt" xmlns="http://www.w3.org/2000/svg" xmlns:xlink="http://www.w3.org/1999/xlink">
 <defs>
  <style type="text/css">
*{stroke-linecap:butt;stroke-linejoin:round;white-space:pre;}
  </style>
 </defs>
 <g id="figure_1">
  <g id="patch_1">
   <path d="M 0 388.608825 
L 673.6075 388.608825 
L 673.6075 0 
L 0 0 
z
" style="fill:#f0f0f0;"/>
  </g>
  <g id="axes_1">
   <g id="patch_2">
    <path d="M 40.0075 352.7682 
L 666.4075 352.7682 
L 666.4075 26.6082 
L 40.0075 26.6082 
z
" style="fill:#f0f0f0;"/>
   </g>
   <g id="matplotlib.axis_1">
    <g id="xtick_1">
     <g id="line2d_1">
      <path clip-path="url(#p212ca2a676)" d="M 68.480227 352.7682 
L 68.480227 26.6082 
" style="fill:none;stroke:#cbcbcb;"/>
     </g>
     <g id="line2d_2"/>
     <g id="text_1">
      <!-- 0 -->
      <defs>
       <path d="M 5 34.703125 
Q 5 52.09375 11.140625 61.5 
Q 17.296875 70.90625 28.203125 70.90625 
Q 39.09375 70.90625 45.25 61.5 
Q 51.40625 52.09375 51.40625 34.703125 
Q 51.40625 17.296875 45.25 7.890625 
Q 39.09375 -1.5 28.203125 -1.5 
Q 17.296875 -1.5 11.140625 7.890625 
Q 5 17.296875 5 34.703125 
z
M 41.59375 34.703125 
Q 41.59375 40.40625 40.9375 45.5 
Q 40.296875 50.59375 38.75 54.390625 
Q 37.203125 58.203125 34.59375 60.453125 
Q 32 62.703125 28.203125 62.703125 
Q 24.40625 62.703125 21.796875 60.453125 
Q 19.203125 58.203125 17.640625 54.390625 
Q 16.09375 50.59375 15.4375 45.5 
Q 14.796875 40.40625 14.796875 34.703125 
Q 14.796875 29 15.4375 23.890625 
Q 16.09375 18.796875 17.640625 15 
Q 19.203125 11.203125 21.796875 8.953125 
Q 24.40625 6.703125 28.203125 6.703125 
Q 32 6.703125 34.59375 8.953125 
Q 37.203125 11.203125 38.75 15 
Q 40.296875 18.796875 40.9375 23.890625 
Q 41.59375 29 41.59375 34.703125 
z
" id="Ubuntu-48"/>
      </defs>
      <g transform="translate(65.659915 364.027575)scale(0.1 -0.1)">
       <use xlink:href="#Ubuntu-48"/>
      </g>
     </g>
    </g>
    <g id="xtick_2">
     <g id="line2d_3">
      <path clip-path="url(#p212ca2a676)" d="M 195.025682 352.7682 
L 195.025682 26.6082 
" style="fill:none;stroke:#cbcbcb;"/>
     </g>
     <g id="line2d_4"/>
     <g id="text_2">
      <!-- 2 -->
      <defs>
       <path d="M 46.703125 51.59375 
Q 46.703125 48 45.25 44.640625 
Q 43.796875 41.296875 41.390625 38.046875 
Q 39 34.796875 36 31.640625 
Q 33 28.5 30 25.5 
Q 28.296875 23.796875 26.046875 21.5 
Q 23.796875 19.203125 21.796875 16.703125 
Q 19.796875 14.203125 18.4375 11.890625 
Q 17.09375 9.59375 17.09375 7.90625 
L 49 7.90625 
L 49 0 
L 7 0 
Q 6.90625 0.59375 6.90625 1.1875 
Q 6.90625 1.796875 6.90625 2.296875 
Q 6.90625 7 8.453125 11.046875 
Q 10 15.09375 12.5 18.6875 
Q 15 22.296875 18.09375 25.5 
Q 21.203125 28.703125 24.203125 31.703125 
Q 26.703125 34.09375 28.953125 36.4375 
Q 31.203125 38.796875 32.953125 41.140625 
Q 34.703125 43.5 35.75 46 
Q 36.796875 48.5 36.796875 51.296875 
Q 36.796875 54.296875 35.84375 56.390625 
Q 34.90625 58.5 33.296875 59.890625 
Q 31.703125 61.296875 29.546875 61.9375 
Q 27.40625 62.59375 25 62.59375 
Q 22.09375 62.59375 19.6875 61.796875 
Q 17.296875 61 15.390625 59.953125 
Q 13.5 58.90625 12.203125 57.75 
Q 10.90625 56.59375 10.203125 56 
L 5.59375 62.59375 
Q 6.5 63.59375 8.296875 65.046875 
Q 10.09375 66.5 12.59375 67.796875 
Q 15.09375 69.09375 18.1875 70 
Q 21.296875 70.90625 24.90625 70.90625 
Q 35.796875 70.90625 41.25 65.84375 
Q 46.703125 60.796875 46.703125 51.59375 
z
" id="Ubuntu-50"/>
      </defs>
      <g transform="translate(192.205369 364.027575)scale(0.1 -0.1)">
       <use xlink:href="#Ubuntu-50"/>
      </g>
     </g>
    </g>
    <g id="xtick_3">
     <g id="line2d_5">
      <path clip-path="url(#p212ca2a676)" d="M 321.571136 352.7682 
L 321.571136 26.6082 
" style="fill:none;stroke:#cbcbcb;"/>
     </g>
     <g id="line2d_6"/>
     <g id="text_3">
      <!-- 4 -->
      <defs>
       <path d="M 4 24 
Q 5.90625 28.40625 9.203125 34.25 
Q 12.5 40.09375 16.640625 46.296875 
Q 20.796875 52.5 25.546875 58.5 
Q 30.296875 64.5 35.09375 69.296875 
L 44 69.296875 
L 44 25.296875 
L 52.203125 25.296875 
L 52.203125 17.703125 
L 44 17.703125 
L 44 0 
L 35 0 
L 35 17.703125 
L 4 17.703125 
z
M 35 58.296875 
Q 32 55.09375 28.953125 51.140625 
Q 25.90625 47.203125 23 42.890625 
Q 20.09375 38.59375 17.546875 34.09375 
Q 15 29.59375 13 25.296875 
L 35 25.296875 
z
" id="Ubuntu-52"/>
      </defs>
      <g transform="translate(318.750824 364.027575)scale(0.1 -0.1)">
       <use xlink:href="#Ubuntu-52"/>
      </g>
     </g>
    </g>
    <g id="xtick_4">
     <g id="line2d_7">
      <path clip-path="url(#p212ca2a676)" d="M 448.116591 352.7682 
L 448.116591 26.6082 
" style="fill:none;stroke:#cbcbcb;"/>
     </g>
     <g id="line2d_8"/>
     <g id="text_4">
      <!-- 6 -->
      <defs>
       <path d="M 6.296875 27.796875 
Q 6.296875 37.90625 9.09375 45.65625 
Q 11.90625 53.40625 17.046875 58.703125 
Q 22.203125 64 29.546875 66.75 
Q 36.90625 69.5 46.09375 69.59375 
L 46.796875 61.796875 
Q 40.90625 61.703125 36.046875 60.5 
Q 31.203125 59.296875 27.390625 56.6875 
Q 23.59375 54.09375 21 49.9375 
Q 18.40625 45.796875 17.09375 39.703125 
Q 19.703125 40.90625 22.953125 41.703125 
Q 26.203125 42.5 29.703125 42.5 
Q 35.59375 42.5 39.6875 40.703125 
Q 43.796875 38.90625 46.390625 35.953125 
Q 49 33 50.140625 29.140625 
Q 51.296875 25.296875 51.296875 21.09375 
Q 51.296875 17.296875 50 13.296875 
Q 48.703125 9.296875 46.046875 6 
Q 43.40625 2.703125 39.296875 0.59375 
Q 35.203125 -1.5 29.59375 -1.5 
Q 18.203125 -1.5 12.25 6.296875 
Q 6.296875 14.09375 6.296875 27.796875 
z
M 28.703125 34.90625 
Q 25.203125 34.90625 22.203125 34.25 
Q 19.203125 33.59375 16.203125 32.296875 
Q 16.09375 31.203125 16.046875 30.046875 
Q 16 28.90625 16 27.796875 
Q 16 23.40625 16.59375 19.5 
Q 17.203125 15.59375 18.75 12.640625 
Q 20.296875 9.703125 22.890625 7.953125 
Q 25.5 6.203125 29.5 6.203125 
Q 32.796875 6.203125 35.09375 7.59375 
Q 37.40625 9 38.90625 11.203125 
Q 40.40625 13.40625 41.046875 15.953125 
Q 41.703125 18.5 41.703125 20.90625 
Q 41.703125 27.703125 38.453125 31.296875 
Q 35.203125 34.90625 28.703125 34.90625 
z
" id="Ubuntu-54"/>
      </defs>
      <g transform="translate(445.296278 364.027575)scale(0.1 -0.1)">
       <use xlink:href="#Ubuntu-54"/>
      </g>
     </g>
    </g>
    <g id="xtick_5">
     <g id="line2d_9">
      <path clip-path="url(#p212ca2a676)" d="M 574.662045 352.7682 
L 574.662045 26.6082 
" style="fill:none;stroke:#cbcbcb;"/>
     </g>
     <g id="line2d_10"/>
     <g id="text_5">
      <!-- 8 -->
      <defs>
       <path d="M 50.90625 18 
Q 50.90625 13.796875 49.453125 10.25 
Q 48 6.703125 45.140625 4.046875 
Q 42.296875 1.40625 38 -0.046875 
Q 33.703125 -1.5 28.09375 -1.5 
Q 21.59375 -1.5 17.25 0.34375 
Q 12.90625 2.203125 10.296875 5 
Q 7.703125 7.796875 6.59375 11.140625 
Q 5.5 14.5 5.5 17.5 
Q 5.5 20.40625 6.453125 23.046875 
Q 7.40625 25.703125 8.953125 28 
Q 10.5 30.296875 12.546875 32.140625 
Q 14.59375 34 16.90625 35.40625 
Q 7.09375 41 7.09375 51.90625 
Q 7.09375 55.703125 8.59375 59.140625 
Q 10.09375 62.59375 12.84375 65.1875 
Q 15.59375 67.796875 19.5 69.34375 
Q 23.40625 70.90625 28.203125 70.90625 
Q 33.796875 70.90625 37.796875 69.203125 
Q 41.796875 67.5 44.34375 64.84375 
Q 46.90625 62.203125 48.046875 59 
Q 49.203125 55.796875 49.203125 52.796875 
Q 49.203125 49.90625 48.34375 47.34375 
Q 47.5 44.796875 46.046875 42.59375 
Q 44.59375 40.40625 42.75 38.703125 
Q 40.90625 37 38.90625 35.703125 
Q 50.703125 30.09375 50.90625 18 
z
M 14.90625 17.40625 
Q 14.90625 15.59375 15.546875 13.640625 
Q 16.203125 11.703125 17.796875 10.046875 
Q 19.40625 8.40625 21.90625 7.296875 
Q 24.40625 6.203125 28.203125 6.203125 
Q 31.59375 6.203125 34.140625 7.203125 
Q 36.703125 8.203125 38.296875 9.75 
Q 39.90625 11.296875 40.703125 13.296875 
Q 41.5 15.296875 41.5 17.40625 
Q 41.5 20.59375 40.296875 23 
Q 39.09375 25.40625 36.84375 27.203125 
Q 34.59375 29 31.4375 30.25 
Q 28.296875 31.5 24.296875 32.40625 
Q 19.796875 29.90625 17.34375 26.203125 
Q 14.90625 22.5 14.90625 17.40625 
z
M 39.90625 52.90625 
Q 39.90625 54.40625 39.25 56.203125 
Q 38.59375 58 37.1875 59.546875 
Q 35.796875 61.09375 33.59375 62.140625 
Q 31.40625 63.203125 28.203125 63.203125 
Q 25 63.203125 22.75 62.203125 
Q 20.5 61.203125 19.09375 59.640625 
Q 17.703125 58.09375 17.046875 56.25 
Q 16.40625 54.40625 16.40625 52.59375 
Q 16.40625 50.40625 17.203125 48.203125 
Q 18 46 19.703125 44.09375 
Q 21.40625 42.203125 24.15625 40.703125 
Q 26.90625 39.203125 30.703125 38.296875 
Q 34.90625 40.796875 37.40625 44.140625 
Q 39.90625 47.5 39.90625 52.90625 
z
" id="Ubuntu-56"/>
      </defs>
      <g transform="translate(571.841733 364.027575)scale(0.1 -0.1)">
       <use xlink:href="#Ubuntu-56"/>
      </g>
     </g>
    </g>
    <g id="text_6">
     <!-- # of sensors placed -->
     <defs>
      <path d="M 28.40625 51 
L 44.59375 51 
L 48.09375 69.296875 
L 56.5 69.296875 
L 53 51 
L 61.796875 51 
L 61.796875 43.59375 
L 51.5 43.59375 
L 48.09375 25.703125 
L 61.796875 25.703125 
L 61.796875 18.296875 
L 46.703125 18.296875 
L 43.203125 0 
L 34.796875 0 
L 38.296875 18.296875 
L 22.09375 18.296875 
L 18.59375 0 
L 10.203125 0 
L 13.703125 18.296875 
L 4.90625 18.296875 
L 4.90625 25.703125 
L 15.09375 25.703125 
L 18.5 43.59375 
L 4.90625 43.59375 
L 4.90625 51 
L 20 51 
L 23.5 69.296875 
L 31.90625 69.296875 
z
M 23.5 25.703125 
L 39.703125 25.703125 
L 43.203125 43.59375 
L 27 43.59375 
z
" id="Ubuntu-35"/>
      <path id="Ubuntu-32"/>
      <path d="M 53.90625 26 
Q 53.90625 19.796875 52.09375 14.796875 
Q 50.296875 9.796875 47.046875 6.1875 
Q 43.796875 2.59375 39.296875 0.640625 
Q 34.796875 -1.296875 29.5 -1.296875 
Q 24.203125 -1.296875 19.703125 0.640625 
Q 15.203125 2.59375 11.953125 6.1875 
Q 8.703125 9.796875 6.890625 14.796875 
Q 5.09375 19.796875 5.09375 26 
Q 5.09375 32.09375 6.890625 37.140625 
Q 8.703125 42.203125 11.953125 45.796875 
Q 15.203125 49.40625 19.703125 51.34375 
Q 24.203125 53.296875 29.5 53.296875 
Q 34.796875 53.296875 39.296875 51.34375 
Q 43.796875 49.40625 47.046875 45.796875 
Q 50.296875 42.203125 52.09375 37.140625 
Q 53.90625 32.09375 53.90625 26 
z
M 44.203125 26 
Q 44.203125 34.796875 40.25 39.9375 
Q 36.296875 45.09375 29.5 45.09375 
Q 22.703125 45.09375 18.75 39.9375 
Q 14.796875 34.796875 14.796875 26 
Q 14.796875 17.203125 18.75 12.046875 
Q 22.703125 6.90625 29.5 6.90625 
Q 36.296875 6.90625 40.25 12.046875 
Q 44.203125 17.203125 44.203125 26 
z
" id="Ubuntu-111"/>
      <path d="M 28.296875 77.59375 
Q 32.40625 77.59375 35.34375 77 
Q 38.296875 76.40625 39.5 75.90625 
L 37.796875 67.90625 
Q 36.59375 68.5 34.390625 69.046875 
Q 32.203125 69.59375 29 69.59375 
Q 22.5 69.59375 19.890625 66.046875 
Q 17.296875 62.5 17.296875 56.5 
L 17.296875 52 
L 37.296875 52 
L 37.296875 44.203125 
L 17.296875 44.203125 
L 17.296875 0 
L 8 0 
L 8 56.703125 
Q 8 66.703125 12.890625 72.140625 
Q 17.796875 77.59375 28.296875 77.59375 
z
" id="Ubuntu-102"/>
      <path d="M 20.09375 6.703125 
Q 25.796875 6.703125 28.546875 8.203125 
Q 31.296875 9.703125 31.296875 13 
Q 31.296875 16.40625 28.59375 18.40625 
Q 25.90625 20.40625 19.703125 22.90625 
Q 16.703125 24.09375 13.953125 25.34375 
Q 11.203125 26.59375 9.203125 28.296875 
Q 7.203125 30 6 32.390625 
Q 4.796875 34.796875 4.796875 38.296875 
Q 4.796875 45.203125 9.890625 49.25 
Q 15 53.296875 23.796875 53.296875 
Q 26 53.296875 28.203125 53.046875 
Q 30.40625 52.796875 32.296875 52.4375 
Q 34.203125 52.09375 35.640625 51.6875 
Q 37.09375 51.296875 37.90625 51 
L 36.203125 43 
Q 34.703125 43.796875 31.5 44.640625 
Q 28.296875 45.5 23.796875 45.5 
Q 19.90625 45.5 17 43.953125 
Q 14.09375 42.40625 14.09375 39.09375 
Q 14.09375 37.40625 14.75 36.09375 
Q 15.40625 34.796875 16.75 33.75 
Q 18.09375 32.703125 20.09375 31.796875 
Q 22.09375 30.90625 24.90625 29.90625 
Q 28.59375 28.5 31.5 27.140625 
Q 34.40625 25.796875 36.453125 24 
Q 38.5 22.203125 39.59375 19.640625 
Q 40.703125 17.09375 40.703125 13.40625 
Q 40.703125 6.203125 35.34375 2.5 
Q 30 -1.203125 20.09375 -1.203125 
Q 13.203125 -1.203125 9.296875 -0.046875 
Q 5.40625 1.09375 4 1.703125 
L 5.703125 9.703125 
Q 7.296875 9.09375 10.796875 7.890625 
Q 14.296875 6.703125 20.09375 6.703125 
z
" id="Ubuntu-115"/>
      <path d="M 5.09375 25.90625 
Q 5.09375 32.796875 7.09375 37.9375 
Q 9.09375 43.09375 12.390625 46.5 
Q 15.703125 49.90625 20 51.59375 
Q 24.296875 53.296875 28.796875 53.296875 
Q 39.296875 53.296875 44.890625 46.75 
Q 50.5 40.203125 50.5 26.796875 
Q 50.5 26.203125 50.5 25.25 
Q 50.5 24.296875 50.40625 23.5 
L 14.796875 23.5 
Q 15.40625 15.40625 19.5 11.203125 
Q 23.59375 7 32.296875 7 
Q 37.203125 7 40.546875 7.84375 
Q 43.90625 8.703125 45.59375 9.5 
L 46.90625 1.703125 
Q 45.203125 0.796875 40.953125 -0.203125 
Q 36.703125 -1.203125 31.296875 -1.203125 
Q 24.5 -1.203125 19.546875 0.84375 
Q 14.59375 2.90625 11.390625 6.5 
Q 8.203125 10.09375 6.640625 15.046875 
Q 5.09375 20 5.09375 25.90625 
z
M 40.796875 31 
Q 40.90625 37.296875 37.65625 41.34375 
Q 34.40625 45.40625 28.703125 45.40625 
Q 25.5 45.40625 23.046875 44.15625 
Q 20.59375 42.90625 18.890625 40.90625 
Q 17.203125 38.90625 16.25 36.296875 
Q 15.296875 33.703125 15 31 
z
" id="Ubuntu-101"/>
      <path d="M 8 50.5 
Q 11.203125 51.296875 16.5 52.1875 
Q 21.796875 53.09375 28.703125 53.09375 
Q 34.90625 53.09375 39 51.34375 
Q 43.09375 49.59375 45.546875 46.4375 
Q 48 43.296875 49 38.890625 
Q 50 34.5 50 29.203125 
L 50 0 
L 40.703125 0 
L 40.703125 27.203125 
Q 40.703125 32 40.046875 35.390625 
Q 39.40625 38.796875 37.90625 40.890625 
Q 36.40625 43 33.90625 43.953125 
Q 31.40625 44.90625 27.703125 44.90625 
Q 26.203125 44.90625 24.59375 44.796875 
Q 23 44.703125 21.546875 44.546875 
Q 20.09375 44.40625 18.9375 44.203125 
Q 17.796875 44 17.296875 43.90625 
L 17.296875 0 
L 8 0 
z
" id="Ubuntu-110"/>
      <path d="M 27.203125 53.09375 
Q 28.40625 53.09375 29.953125 52.9375 
Q 31.5 52.796875 33 52.546875 
Q 34.5 52.296875 35.75 52.046875 
Q 37 51.796875 37.59375 51.59375 
L 36 43.5 
Q 34.90625 43.90625 32.34375 44.453125 
Q 29.796875 45 25.796875 45 
Q 23.203125 45 20.640625 44.453125 
Q 18.09375 43.90625 17.296875 43.703125 
L 17.296875 0 
L 8 0 
L 8 49.796875 
Q 11.296875 51 16.1875 52.046875 
Q 21.09375 53.09375 27.203125 53.09375 
z
" id="Ubuntu-114"/>
      <path d="M 44.09375 25.90625 
Q 44.09375 35 39.59375 39.890625 
Q 35.09375 44.796875 27.59375 44.796875 
Q 23.40625 44.796875 21.046875 44.5 
Q 18.703125 44.203125 17.296875 43.796875 
L 17.296875 11 
Q 19 9.59375 22.203125 8.296875 
Q 25.40625 7 29.203125 7 
Q 33.203125 7 36.046875 8.453125 
Q 38.90625 9.90625 40.703125 12.453125 
Q 42.5 15 43.296875 18.453125 
Q 44.09375 21.90625 44.09375 25.90625 
z
M 53.796875 25.90625 
Q 53.796875 20 52.25 15 
Q 50.703125 10 47.703125 6.390625 
Q 44.703125 2.796875 40.34375 0.796875 
Q 36 -1.203125 30.40625 -1.203125 
Q 25.90625 -1.203125 22.453125 0 
Q 19 1.203125 17.296875 2.296875 
L 17.296875 -18.5 
L 8 -18.5 
L 8 50.40625 
Q 11.296875 51.203125 16.25 52.140625 
Q 21.203125 53.09375 27.703125 53.09375 
Q 33.703125 53.09375 38.5 51.1875 
Q 43.296875 49.296875 46.6875 45.796875 
Q 50.09375 42.296875 51.9375 37.25 
Q 53.796875 32.203125 53.796875 25.90625 
z
" id="Ubuntu-112"/>
      <path d="M 23.59375 -1 
Q 15 -0.796875 11.390625 2.703125 
Q 7.796875 6.203125 7.796875 13.59375 
L 7.796875 76 
L 17.09375 77.59375 
L 17.09375 15.09375 
Q 17.09375 12.796875 17.5 11.296875 
Q 17.90625 9.796875 18.796875 8.890625 
Q 19.703125 8 21.203125 7.546875 
Q 22.703125 7.09375 24.90625 6.796875 
z
" id="Ubuntu-108"/>
      <path d="M 25.59375 6.703125 
Q 28.90625 6.703125 31.453125 6.84375 
Q 34 7 35.703125 7.40625 
L 35.703125 22.90625 
Q 34.703125 23.40625 32.453125 23.75 
Q 30.203125 24.09375 27 24.09375 
Q 24.90625 24.09375 22.546875 23.796875 
Q 20.203125 23.5 18.25 22.546875 
Q 16.296875 21.59375 15 19.9375 
Q 13.703125 18.296875 13.703125 15.59375 
Q 13.703125 10.59375 16.890625 8.640625 
Q 20.09375 6.703125 25.59375 6.703125 
z
M 24.796875 53.296875 
Q 30.40625 53.296875 34.25 51.84375 
Q 38.09375 50.40625 40.4375 47.75 
Q 42.796875 45.09375 43.796875 41.4375 
Q 44.796875 37.796875 44.796875 33.40625 
L 44.796875 0.90625 
Q 43.59375 0.703125 41.4375 0.34375 
Q 39.296875 0 36.59375 -0.296875 
Q 33.90625 -0.59375 30.75 -0.84375 
Q 27.59375 -1.09375 24.5 -1.09375 
Q 20.09375 -1.09375 16.390625 -0.1875 
Q 12.703125 0.703125 10 2.640625 
Q 7.296875 4.59375 5.796875 7.796875 
Q 4.296875 11 4.296875 15.5 
Q 4.296875 19.796875 6.046875 22.890625 
Q 7.796875 26 10.796875 27.890625 
Q 13.796875 29.796875 17.796875 30.6875 
Q 21.796875 31.59375 26.203125 31.59375 
Q 27.59375 31.59375 29.09375 31.4375 
Q 30.59375 31.296875 31.9375 31.046875 
Q 33.296875 30.796875 34.296875 30.59375 
Q 35.296875 30.40625 35.703125 30.296875 
L 35.703125 32.90625 
Q 35.703125 35.203125 35.203125 37.453125 
Q 34.703125 39.703125 33.390625 41.453125 
Q 32.09375 43.203125 29.84375 44.25 
Q 27.59375 45.296875 24 45.296875 
Q 19.40625 45.296875 15.953125 44.640625 
Q 12.5 44 10.796875 43.296875 
L 9.703125 51 
Q 11.5 51.796875 15.703125 52.546875 
Q 19.90625 53.296875 24.796875 53.296875 
z
" id="Ubuntu-97"/>
      <path d="M 30.59375 -1.203125 
Q 24.296875 -1.203125 19.546875 0.796875 
Q 14.796875 2.796875 11.546875 6.390625 
Q 8.296875 10 6.6875 14.953125 
Q 5.09375 19.90625 5.09375 25.90625 
Q 5.09375 31.90625 6.84375 36.90625 
Q 8.59375 41.90625 11.796875 45.546875 
Q 15 49.203125 19.640625 51.25 
Q 24.296875 53.296875 30 53.296875 
Q 33.5 53.296875 37 52.6875 
Q 40.5 52.09375 43.703125 50.796875 
L 41.59375 42.90625 
Q 39.5 43.90625 36.75 44.5 
Q 34 45.09375 30.90625 45.09375 
Q 23.09375 45.09375 18.9375 40.1875 
Q 14.796875 35.296875 14.796875 25.90625 
Q 14.796875 21.703125 15.75 18.203125 
Q 16.703125 14.703125 18.75 12.203125 
Q 20.796875 9.703125 24 8.34375 
Q 27.203125 7 31.796875 7 
Q 35.5 7 38.5 7.703125 
Q 41.5 8.40625 43.203125 9.203125 
L 44.5 1.40625 
Q 43.703125 0.90625 42.203125 0.453125 
Q 40.703125 0 38.796875 -0.34375 
Q 36.90625 -0.703125 34.75 -0.953125 
Q 32.59375 -1.203125 30.59375 -1.203125 
z
" id="Ubuntu-99"/>
      <path d="M 41.59375 41 
Q 39.90625 42.40625 36.703125 43.703125 
Q 33.5 45 29.703125 45 
Q 25.703125 45 22.84375 43.546875 
Q 20 42.09375 18.203125 39.546875 
Q 16.40625 37 15.59375 33.5 
Q 14.796875 30 14.796875 26 
Q 14.796875 16.90625 19.296875 11.953125 
Q 23.796875 7 31.296875 7 
Q 35.09375 7 37.640625 7.34375 
Q 40.203125 7.703125 41.59375 8.09375 
z
M 41.59375 76 
L 50.90625 77.59375 
L 50.90625 1.5 
Q 47.703125 0.59375 42.703125 -0.296875 
Q 37.703125 -1.203125 31.203125 -1.203125 
Q 25.203125 -1.203125 20.390625 0.6875 
Q 15.59375 2.59375 12.1875 6.09375 
Q 8.796875 9.59375 6.9375 14.640625 
Q 5.09375 19.703125 5.09375 26 
Q 5.09375 32 6.640625 37 
Q 8.203125 42 11.203125 45.59375 
Q 14.203125 49.203125 18.546875 51.203125 
Q 22.90625 53.203125 28.5 53.203125 
Q 33 53.203125 36.453125 52 
Q 39.90625 50.796875 41.59375 49.703125 
z
" id="Ubuntu-100"/>
     </defs>
     <g transform="translate(300.528437 379.188825)scale(0.12 -0.12)">
      <use xlink:href="#Ubuntu-35"/>
      <use x="66.699997" xlink:href="#Ubuntu-32"/>
      <use x="89.799988" xlink:href="#Ubuntu-111"/>
      <use x="148.799973" xlink:href="#Ubuntu-102"/>
      <use x="187.399963" xlink:href="#Ubuntu-32"/>
      <use x="210.499954" xlink:href="#Ubuntu-115"/>
      <use x="255.099945" xlink:href="#Ubuntu-101"/>
      <use x="310.999939" xlink:href="#Ubuntu-110"/>
      <use x="368.399933" xlink:href="#Ubuntu-115"/>
      <use x="412.999924" xlink:href="#Ubuntu-111"/>
      <use x="471.999908" xlink:href="#Ubuntu-114"/>
      <use x="510.599899" xlink:href="#Ubuntu-115"/>
      <use x="555.19989" xlink:href="#Ubuntu-32"/>
      <use x="578.299881" xlink:href="#Ubuntu-112"/>
      <use x="637.199875" xlink:href="#Ubuntu-108"/>
      <use x="664.499863" xlink:href="#Ubuntu-97"/>
      <use x="716.69986" xlink:href="#Ubuntu-99"/>
      <use x="763.199844" xlink:href="#Ubuntu-101"/>
      <use x="819.099838" xlink:href="#Ubuntu-100"/>
     </g>
    </g>
   </g>
   <g id="matplotlib.axis_2">
    <g id="ytick_1">
     <g id="line2d_11">
      <path clip-path="url(#p212ca2a676)" d="M 40.0075 311.904177 
L 666.4075 311.904177 
" style="fill:none;stroke:#cbcbcb;"/>
     </g>
     <g id="line2d_12"/>
     <g id="text_7">
      <!-- 5.5 -->
      <defs>
       <path d="M 19.90625 42.59375 
Q 35 42 42.046875 36 
Q 49.09375 30 49.09375 19.703125 
Q 49.09375 15.09375 47.546875 11.1875 
Q 46 7.296875 42.84375 4.5 
Q 39.703125 1.703125 34.890625 0.09375 
Q 30.09375 -1.5 23.5 -1.5 
Q 20.90625 -1.5 18.203125 -1.09375 
Q 15.5 -0.703125 13.203125 -0.09375 
Q 10.90625 0.5 9.09375 1.09375 
Q 7.296875 1.703125 6.5 2.09375 
L 8.296875 10.203125 
Q 10 9.40625 13.84375 8.09375 
Q 17.703125 6.796875 23.296875 6.796875 
Q 27.796875 6.796875 30.84375 7.796875 
Q 33.90625 8.796875 35.796875 10.5 
Q 37.703125 12.203125 38.546875 14.453125 
Q 39.40625 16.703125 39.40625 19.203125 
Q 39.40625 23 38.09375 25.953125 
Q 36.796875 28.90625 33.5 30.90625 
Q 30.203125 32.90625 24.703125 33.953125 
Q 19.203125 35 10.796875 35 
Q 11.40625 39.90625 11.75 44.203125 
Q 12.09375 48.5 12.390625 52.59375 
Q 12.703125 56.703125 12.890625 60.75 
Q 13.09375 64.796875 13.296875 69.296875 
L 46.703125 69.296875 
L 46.703125 61.40625 
L 21.40625 61.40625 
Q 21.296875 59.90625 21.09375 57.34375 
Q 20.90625 54.796875 20.703125 52.046875 
Q 20.5 49.296875 20.296875 46.6875 
Q 20.09375 44.09375 19.90625 42.59375 
z
" id="Ubuntu-53"/>
       <path d="M 19 5.40625 
Q 19 2.703125 17.203125 0.703125 
Q 15.40625 -1.296875 12.296875 -1.296875 
Q 9.203125 -1.296875 7.390625 0.703125 
Q 5.59375 2.703125 5.59375 5.40625 
Q 5.59375 8.09375 7.390625 10.09375 
Q 9.203125 12.09375 12.296875 12.09375 
Q 15.40625 12.09375 17.203125 10.09375 
Q 19 8.09375 19 5.40625 
z
" id="Ubuntu-46"/>
      </defs>
      <g transform="translate(22.766875 315.783865)scale(0.1 -0.1)">
       <use xlink:href="#Ubuntu-53"/>
       <use x="56.399994" xlink:href="#Ubuntu-46"/>
       <use x="80.999985" xlink:href="#Ubuntu-53"/>
      </g>
     </g>
    </g>
    <g id="ytick_2">
     <g id="line2d_13">
      <path clip-path="url(#p212ca2a676)" d="M 40.0075 261.371183 
L 666.4075 261.371183 
" style="fill:none;stroke:#cbcbcb;"/>
     </g>
     <g id="line2d_14"/>
     <g id="text_8">
      <!-- 6.0 -->
      <g transform="translate(22.766875 265.25087)scale(0.1 -0.1)">
       <use xlink:href="#Ubuntu-54"/>
       <use x="56.399994" xlink:href="#Ubuntu-46"/>
       <use x="80.999985" xlink:href="#Ubuntu-48"/>
      </g>
     </g>
    </g>
    <g id="ytick_3">
     <g id="line2d_15">
      <path clip-path="url(#p212ca2a676)" d="M 40.0075 210.838189 
L 666.4075 210.838189 
" style="fill:none;stroke:#cbcbcb;"/>
     </g>
     <g id="line2d_16"/>
     <g id="text_9">
      <!-- 6.5 -->
      <g transform="translate(22.766875 214.717876)scale(0.1 -0.1)">
       <use xlink:href="#Ubuntu-54"/>
       <use x="56.399994" xlink:href="#Ubuntu-46"/>
       <use x="80.999985" xlink:href="#Ubuntu-53"/>
      </g>
     </g>
    </g>
    <g id="ytick_4">
     <g id="line2d_17">
      <path clip-path="url(#p212ca2a676)" d="M 40.0075 160.305194 
L 666.4075 160.305194 
" style="fill:none;stroke:#cbcbcb;"/>
     </g>
     <g id="line2d_18"/>
     <g id="text_10">
      <!-- 7.0 -->
      <defs>
       <path d="M 16.296875 0 
Q 16.90625 8 19.15625 16.84375 
Q 21.40625 25.703125 24.703125 34.046875 
Q 28 42.40625 31.953125 49.546875 
Q 35.90625 56.703125 39.703125 61.203125 
L 6 61.203125 
L 6 69.296875 
L 50.09375 69.296875 
L 50.09375 61.59375 
Q 46.796875 57.796875 42.796875 51.140625 
Q 38.796875 44.5 35.25 36.25 
Q 31.703125 28 29.140625 18.640625 
Q 26.59375 9.296875 26 0 
z
" id="Ubuntu-55"/>
      </defs>
      <g transform="translate(22.766875 164.184882)scale(0.1 -0.1)">
       <use xlink:href="#Ubuntu-55"/>
       <use x="56.399994" xlink:href="#Ubuntu-46"/>
       <use x="80.999985" xlink:href="#Ubuntu-48"/>
      </g>
     </g>
    </g>
    <g id="ytick_5">
     <g id="line2d_19">
      <path clip-path="url(#p212ca2a676)" d="M 40.0075 109.7722 
L 666.4075 109.7722 
" style="fill:none;stroke:#cbcbcb;"/>
     </g>
     <g id="line2d_20"/>
     <g id="text_11">
      <!-- 7.5 -->
      <g transform="translate(22.766875 113.651888)scale(0.1 -0.1)">
       <use xlink:href="#Ubuntu-55"/>
       <use x="56.399994" xlink:href="#Ubuntu-46"/>
       <use x="80.999985" xlink:href="#Ubuntu-53"/>
      </g>
     </g>
    </g>
    <g id="ytick_6">
     <g id="line2d_21">
      <path clip-path="url(#p212ca2a676)" d="M 40.0075 59.239206 
L 666.4075 59.239206 
" style="fill:none;stroke:#cbcbcb;"/>
     </g>
     <g id="line2d_22"/>
     <g id="text_12">
      <!-- 8.0 -->
      <g transform="translate(22.766875 63.118894)scale(0.1 -0.1)">
       <use xlink:href="#Ubuntu-56"/>
       <use x="56.399994" xlink:href="#Ubuntu-46"/>
       <use x="80.999985" xlink:href="#Ubuntu-48"/>
      </g>
     </g>
    </g>
    <g id="text_13">
     <!-- Max gold sensed -->
     <defs>
      <path d="M 39.703125 9.59375 
Q 38.703125 12 37.046875 15.703125 
Q 35.40625 19.40625 33.5 23.703125 
Q 31.59375 28 29.4375 32.546875 
Q 27.296875 37.09375 25.390625 41.140625 
Q 23.5 45.203125 21.84375 48.390625 
Q 20.203125 51.59375 19.203125 53.296875 
Q 18.09375 41.5 17.390625 27.75 
Q 16.703125 14 16.203125 0 
L 6.703125 0 
Q 7.09375 9 7.59375 18.140625 
Q 8.09375 27.296875 8.75 36.140625 
Q 9.40625 45 10.15625 53.390625 
Q 10.90625 61.796875 11.796875 69.296875 
L 20.296875 69.296875 
Q 23 64.90625 26.09375 58.90625 
Q 29.203125 52.90625 32.296875 46.34375 
Q 35.40625 39.796875 38.296875 33.25 
Q 41.203125 26.703125 43.59375 21.296875 
Q 46 26.703125 48.890625 33.25 
Q 51.796875 39.796875 54.890625 46.34375 
Q 58 52.90625 61.09375 58.90625 
Q 64.203125 64.90625 66.90625 69.296875 
L 75.40625 69.296875 
Q 78.796875 35.796875 80.5 0 
L 71 0 
Q 70.5 14 69.796875 27.75 
Q 69.09375 41.5 68 53.296875 
Q 67 51.59375 65.34375 48.390625 
Q 63.703125 45.203125 61.796875 41.140625 
Q 59.90625 37.09375 57.75 32.546875 
Q 55.59375 28 53.6875 23.703125 
Q 51.796875 19.40625 50.140625 15.703125 
Q 48.5 12 47.5 9.59375 
z
" id="Ubuntu-77"/>
      <path d="M 39.09375 0 
Q 38 2.203125 36.390625 4.890625 
Q 34.796875 7.59375 32.890625 10.4375 
Q 31 13.296875 29 16.09375 
Q 27 18.90625 25.09375 21.40625 
Q 23.203125 18.90625 21.203125 16.046875 
Q 19.203125 13.203125 17.34375 10.34375 
Q 15.5 7.5 13.890625 4.796875 
Q 12.296875 2.09375 11.203125 0 
L 1.59375 0 
Q 5.09375 6.796875 9.9375 13.84375 
Q 14.796875 20.90625 19.59375 27.296875 
L 2.40625 52 
L 12.90625 52 
L 25.296875 33.796875 
L 37.796875 52 
L 47.703125 52 
L 30.90625 27.90625 
Q 35.703125 21.40625 40.75 14.15625 
Q 45.796875 6.90625 49.296875 0 
z
" id="Ubuntu-120"/>
      <path d="M 40.59375 5.203125 
Q 39.40625 4.40625 35.953125 3.15625 
Q 32.5 1.90625 27.90625 1.90625 
Q 23.203125 1.90625 19.046875 3.40625 
Q 14.90625 4.90625 11.796875 8.046875 
Q 8.703125 11.203125 6.890625 15.890625 
Q 5.09375 20.59375 5.09375 27.09375 
Q 5.09375 32.796875 6.796875 37.546875 
Q 8.5 42.296875 11.75 45.75 
Q 15 49.203125 19.703125 51.140625 
Q 24.40625 53.09375 30.296875 53.09375 
Q 36.796875 53.09375 41.640625 52.140625 
Q 46.5 51.203125 49.796875 50.40625 
L 49.796875 4 
Q 49.796875 -8 43.59375 -13.390625 
Q 37.40625 -18.796875 24.796875 -18.796875 
Q 19.90625 -18.796875 15.546875 -18 
Q 11.203125 -17.203125 8 -16.09375 
L 9.703125 -8 
Q 12.5 -9.09375 16.546875 -9.9375 
Q 20.59375 -10.796875 25 -10.796875 
Q 33.296875 -10.796875 36.9375 -7.5 
Q 40.59375 -4.203125 40.59375 3 
z
M 40.5 43.796875 
Q 39.09375 44.203125 36.75 44.546875 
Q 34.40625 44.90625 30.40625 44.90625 
Q 22.90625 44.90625 18.84375 40 
Q 14.796875 35.09375 14.796875 27 
Q 14.796875 22.5 15.9375 19.296875 
Q 17.09375 16.09375 19.046875 14 
Q 21 11.90625 23.546875 10.90625 
Q 26.09375 9.90625 28.796875 9.90625 
Q 32.5 9.90625 35.59375 10.953125 
Q 38.703125 12 40.5 13.40625 
z
" id="Ubuntu-103"/>
     </defs>
     <g transform="translate(16.51125 235.101637)rotate(-90)scale(0.12 -0.12)">
      <use xlink:href="#Ubuntu-77"/>
      <use x="87.099991" xlink:href="#Ubuntu-97"/>
      <use x="139.299988" xlink:href="#Ubuntu-120"/>
      <use x="190.399979" xlink:href="#Ubuntu-32"/>
      <use x="213.499969" xlink:href="#Ubuntu-103"/>
      <use x="271.299957" xlink:href="#Ubuntu-111"/>
      <use x="330.299942" xlink:href="#Ubuntu-108"/>
      <use x="357.59993" xlink:href="#Ubuntu-100"/>
      <use x="416.499924" xlink:href="#Ubuntu-32"/>
      <use x="439.599915" xlink:href="#Ubuntu-115"/>
      <use x="484.199905" xlink:href="#Ubuntu-101"/>
      <use x="540.099899" xlink:href="#Ubuntu-110"/>
      <use x="597.499893" xlink:href="#Ubuntu-115"/>
      <use x="642.099884" xlink:href="#Ubuntu-101"/>
      <use x="697.999878" xlink:href="#Ubuntu-100"/>
     </g>
    </g>
   </g>
   <g id="line2d_23">
    <path clip-path="url(#p212ca2a676)" d="M 68.480227 337.942745 
L 131.752955 293.1556 
L 195.025682 276.862573 
L 258.298409 276.862573 
L 321.571136 276.862573 
L 384.843864 44.250917 
L 448.116591 44.250917 
L 511.389318 44.250917 
L 574.662045 44.250917 
L 637.934773 43.269785 
" style="fill:none;stroke:#008fd5;stroke-opacity:0.7;stroke-width:2.7;"/>
    <defs>
     <path d="M 0 3 
C 0.795609 3 1.55874 2.683901 2.12132 2.12132 
C 2.683901 1.55874 3 0.795609 3 0 
C 3 -0.795609 2.683901 -1.55874 2.12132 -2.12132 
C 1.55874 -2.683901 0.795609 -3 0 -3 
C -0.795609 -3 -1.55874 -2.683901 -2.12132 -2.12132 
C -2.683901 -1.55874 -3 -0.795609 -3 0 
C -3 0.795609 -2.683901 1.55874 -2.12132 2.12132 
C -1.55874 2.683901 -0.795609 3 0 3 
z
" id="m44da04c25a" style="stroke:#008fd5;stroke-opacity:0.7;"/>
    </defs>
    <g clip-path="url(#p212ca2a676)">
     <use style="fill:#008fd5;fill-opacity:0.7;stroke:#008fd5;stroke-opacity:0.7;" x="68.480227" xlink:href="#m44da04c25a" y="337.942745"/>
     <use style="fill:#008fd5;fill-opacity:0.7;stroke:#008fd5;stroke-opacity:0.7;" x="131.752955" xlink:href="#m44da04c25a" y="293.1556"/>
     <use style="fill:#008fd5;fill-opacity:0.7;stroke:#008fd5;stroke-opacity:0.7;" x="195.025682" xlink:href="#m44da04c25a" y="276.862573"/>
     <use style="fill:#008fd5;fill-opacity:0.7;stroke:#008fd5;stroke-opacity:0.7;" x="258.298409" xlink:href="#m44da04c25a" y="276.862573"/>
     <use style="fill:#008fd5;fill-opacity:0.7;stroke:#008fd5;stroke-opacity:0.7;" x="321.571136" xlink:href="#m44da04c25a" y="276.862573"/>
     <use style="fill:#008fd5;fill-opacity:0.7;stroke:#008fd5;stroke-opacity:0.7;" x="384.843864" xlink:href="#m44da04c25a" y="44.250917"/>
     <use style="fill:#008fd5;fill-opacity:0.7;stroke:#008fd5;stroke-opacity:0.7;" x="448.116591" xlink:href="#m44da04c25a" y="44.250917"/>
     <use style="fill:#008fd5;fill-opacity:0.7;stroke:#008fd5;stroke-opacity:0.7;" x="511.389318" xlink:href="#m44da04c25a" y="44.250917"/>
     <use style="fill:#008fd5;fill-opacity:0.7;stroke:#008fd5;stroke-opacity:0.7;" x="574.662045" xlink:href="#m44da04c25a" y="44.250917"/>
     <use style="fill:#008fd5;fill-opacity:0.7;stroke:#008fd5;stroke-opacity:0.7;" x="637.934773" xlink:href="#m44da04c25a" y="43.269785"/>
    </g>
   </g>
   <g id="line2d_24">
    <path clip-path="url(#p212ca2a676)" d="M 68.480227 337.942745 
L 131.752955 69.085293 
L 195.025682 41.433655 
L 258.298409 41.433655 
L 321.571136 41.433655 
L 384.843864 41.433655 
L 448.116591 41.433655 
L 511.389318 41.433655 
L 574.662045 41.433655 
L 637.934773 41.433655 
" style="fill:none;stroke:#fc4f30;stroke-dasharray:9.99,4.32;stroke-dashoffset:0;stroke-opacity:0.7;stroke-width:2.7;"/>
    <defs>
     <path d="M -0 3 
L 3 -3 
L -3 -3 
z
" id="me0a1d941bd" style="stroke:#fc4f30;stroke-linejoin:miter;stroke-opacity:0.7;"/>
    </defs>
    <g clip-path="url(#p212ca2a676)">
     <use style="fill:#fc4f30;fill-opacity:0.7;stroke:#fc4f30;stroke-linejoin:miter;stroke-opacity:0.7;" x="68.480227" xlink:href="#me0a1d941bd" y="337.942745"/>
     <use style="fill:#fc4f30;fill-opacity:0.7;stroke:#fc4f30;stroke-linejoin:miter;stroke-opacity:0.7;" x="131.752955" xlink:href="#me0a1d941bd" y="69.085293"/>
     <use style="fill:#fc4f30;fill-opacity:0.7;stroke:#fc4f30;stroke-linejoin:miter;stroke-opacity:0.7;" x="195.025682" xlink:href="#me0a1d941bd" y="41.433655"/>
     <use style="fill:#fc4f30;fill-opacity:0.7;stroke:#fc4f30;stroke-linejoin:miter;stroke-opacity:0.7;" x="258.298409" xlink:href="#me0a1d941bd" y="41.433655"/>
     <use style="fill:#fc4f30;fill-opacity:0.7;stroke:#fc4f30;stroke-linejoin:miter;stroke-opacity:0.7;" x="321.571136" xlink:href="#me0a1d941bd" y="41.433655"/>
     <use style="fill:#fc4f30;fill-opacity:0.7;stroke:#fc4f30;stroke-linejoin:miter;stroke-opacity:0.7;" x="384.843864" xlink:href="#me0a1d941bd" y="41.433655"/>
     <use style="fill:#fc4f30;fill-opacity:0.7;stroke:#fc4f30;stroke-linejoin:miter;stroke-opacity:0.7;" x="448.116591" xlink:href="#me0a1d941bd" y="41.433655"/>
     <use style="fill:#fc4f30;fill-opacity:0.7;stroke:#fc4f30;stroke-linejoin:miter;stroke-opacity:0.7;" x="511.389318" xlink:href="#me0a1d941bd" y="41.433655"/>
     <use style="fill:#fc4f30;fill-opacity:0.7;stroke:#fc4f30;stroke-linejoin:miter;stroke-opacity:0.7;" x="574.662045" xlink:href="#me0a1d941bd" y="41.433655"/>
     <use style="fill:#fc4f30;fill-opacity:0.7;stroke:#fc4f30;stroke-linejoin:miter;stroke-opacity:0.7;" x="637.934773" xlink:href="#me0a1d941bd" y="41.433655"/>
    </g>
   </g>
   <g id="line2d_25">
    <path clip-path="url(#p212ca2a676)" d="M 68.480227 337.942745 
L 131.752955 252.739842 
L 195.025682 252.739842 
L 258.298409 252.739842 
L 321.571136 61.359939 
L 384.843864 61.359939 
L 448.116591 61.359939 
L 511.389318 61.359939 
L 574.662045 41.517931 
L 637.934773 41.517931 
" style="fill:none;stroke:#e5ae38;stroke-opacity:0.7;stroke-width:2.7;"/>
    <defs>
     <path d="M 0 -3 
L -3 3 
L 3 3 
z
" id="m9e1bc8c152" style="stroke:#e5ae38;stroke-linejoin:miter;stroke-opacity:0.7;"/>
    </defs>
    <g clip-path="url(#p212ca2a676)">
     <use style="fill:#e5ae38;fill-opacity:0.7;stroke:#e5ae38;stroke-linejoin:miter;stroke-opacity:0.7;" x="68.480227" xlink:href="#m9e1bc8c152" y="337.942745"/>
     <use style="fill:#e5ae38;fill-opacity:0.7;stroke:#e5ae38;stroke-linejoin:miter;stroke-opacity:0.7;" x="131.752955" xlink:href="#m9e1bc8c152" y="252.739842"/>
     <use style="fill:#e5ae38;fill-opacity:0.7;stroke:#e5ae38;stroke-linejoin:miter;stroke-opacity:0.7;" x="195.025682" xlink:href="#m9e1bc8c152" y="252.739842"/>
     <use style="fill:#e5ae38;fill-opacity:0.7;stroke:#e5ae38;stroke-linejoin:miter;stroke-opacity:0.7;" x="258.298409" xlink:href="#m9e1bc8c152" y="252.739842"/>
     <use style="fill:#e5ae38;fill-opacity:0.7;stroke:#e5ae38;stroke-linejoin:miter;stroke-opacity:0.7;" x="321.571136" xlink:href="#m9e1bc8c152" y="61.359939"/>
     <use style="fill:#e5ae38;fill-opacity:0.7;stroke:#e5ae38;stroke-linejoin:miter;stroke-opacity:0.7;" x="384.843864" xlink:href="#m9e1bc8c152" y="61.359939"/>
     <use style="fill:#e5ae38;fill-opacity:0.7;stroke:#e5ae38;stroke-linejoin:miter;stroke-opacity:0.7;" x="448.116591" xlink:href="#m9e1bc8c152" y="61.359939"/>
     <use style="fill:#e5ae38;fill-opacity:0.7;stroke:#e5ae38;stroke-linejoin:miter;stroke-opacity:0.7;" x="511.389318" xlink:href="#m9e1bc8c152" y="61.359939"/>
     <use style="fill:#e5ae38;fill-opacity:0.7;stroke:#e5ae38;stroke-linejoin:miter;stroke-opacity:0.7;" x="574.662045" xlink:href="#m9e1bc8c152" y="41.517931"/>
     <use style="fill:#e5ae38;fill-opacity:0.7;stroke:#e5ae38;stroke-linejoin:miter;stroke-opacity:0.7;" x="637.934773" xlink:href="#m9e1bc8c152" y="41.517931"/>
    </g>
   </g>
   <g id="line2d_26">
    <path clip-path="url(#p212ca2a676)" d="M 68.480227 337.942745 
L 131.752955 246.664288 
L 195.025682 246.664288 
L 258.298409 246.664288 
L 321.571136 44.951168 
L 384.843864 44.951168 
L 448.116591 44.951168 
L 511.389318 44.951168 
L 574.662045 44.951168 
L 637.934773 44.951168 
" style="fill:none;stroke:#6d904f;stroke-dasharray:2.7,4.455;stroke-dashoffset:0;stroke-opacity:0.7;stroke-width:2.7;"/>
    <defs>
     <path d="M -3 -0 
L 3 3 
L 3 -3 
z
" id="m17ec2b74d3" style="stroke:#6d904f;stroke-linejoin:miter;stroke-opacity:0.7;"/>
    </defs>
    <g clip-path="url(#p212ca2a676)">
     <use style="fill:#6d904f;fill-opacity:0.7;stroke:#6d904f;stroke-linejoin:miter;stroke-opacity:0.7;" x="68.480227" xlink:href="#m17ec2b74d3" y="337.942745"/>
     <use style="fill:#6d904f;fill-opacity:0.7;stroke:#6d904f;stroke-linejoin:miter;stroke-opacity:0.7;" x="131.752955" xlink:href="#m17ec2b74d3" y="246.664288"/>
     <use style="fill:#6d904f;fill-opacity:0.7;stroke:#6d904f;stroke-linejoin:miter;stroke-opacity:0.7;" x="195.025682" xlink:href="#m17ec2b74d3" y="246.664288"/>
     <use style="fill:#6d904f;fill-opacity:0.7;stroke:#6d904f;stroke-linejoin:miter;stroke-opacity:0.7;" x="258.298409" xlink:href="#m17ec2b74d3" y="246.664288"/>
     <use style="fill:#6d904f;fill-opacity:0.7;stroke:#6d904f;stroke-linejoin:miter;stroke-opacity:0.7;" x="321.571136" xlink:href="#m17ec2b74d3" y="44.951168"/>
     <use style="fill:#6d904f;fill-opacity:0.7;stroke:#6d904f;stroke-linejoin:miter;stroke-opacity:0.7;" x="384.843864" xlink:href="#m17ec2b74d3" y="44.951168"/>
     <use style="fill:#6d904f;fill-opacity:0.7;stroke:#6d904f;stroke-linejoin:miter;stroke-opacity:0.7;" x="448.116591" xlink:href="#m17ec2b74d3" y="44.951168"/>
     <use style="fill:#6d904f;fill-opacity:0.7;stroke:#6d904f;stroke-linejoin:miter;stroke-opacity:0.7;" x="511.389318" xlink:href="#m17ec2b74d3" y="44.951168"/>
     <use style="fill:#6d904f;fill-opacity:0.7;stroke:#6d904f;stroke-linejoin:miter;stroke-opacity:0.7;" x="574.662045" xlink:href="#m17ec2b74d3" y="44.951168"/>
     <use style="fill:#6d904f;fill-opacity:0.7;stroke:#6d904f;stroke-linejoin:miter;stroke-opacity:0.7;" x="637.934773" xlink:href="#m17ec2b74d3" y="44.951168"/>
    </g>
   </g>
   <g id="line2d_27">
    <path clip-path="url(#p212ca2a676)" d="M 68.480227 337.942745 
L 131.752955 337.942745 
L 195.025682 304.680879 
L 258.298409 271.892063 
L 321.571136 249.247202 
L 384.843864 249.247202 
L 448.116591 249.247202 
L 511.389318 249.247202 
L 574.662045 246.502483 
L 637.934773 53.650355 
" style="fill:none;stroke:#8b8b8b;stroke-dasharray:17.28,4.32,2.7,4.32;stroke-dashoffset:0;stroke-opacity:0.7;stroke-width:2.7;"/>
    <defs>
     <path d="M 3 0 
L -3 -3 
L -3 3 
z
" id="mf764943c8c" style="stroke:#8b8b8b;stroke-linejoin:miter;stroke-opacity:0.7;"/>
    </defs>
    <g clip-path="url(#p212ca2a676)">
     <use style="fill:#8b8b8b;fill-opacity:0.7;stroke:#8b8b8b;stroke-linejoin:miter;stroke-opacity:0.7;" x="68.480227" xlink:href="#mf764943c8c" y="337.942745"/>
     <use style="fill:#8b8b8b;fill-opacity:0.7;stroke:#8b8b8b;stroke-linejoin:miter;stroke-opacity:0.7;" x="131.752955" xlink:href="#mf764943c8c" y="337.942745"/>
     <use style="fill:#8b8b8b;fill-opacity:0.7;stroke:#8b8b8b;stroke-linejoin:miter;stroke-opacity:0.7;" x="195.025682" xlink:href="#mf764943c8c" y="304.680879"/>
     <use style="fill:#8b8b8b;fill-opacity:0.7;stroke:#8b8b8b;stroke-linejoin:miter;stroke-opacity:0.7;" x="258.298409" xlink:href="#mf764943c8c" y="271.892063"/>
     <use style="fill:#8b8b8b;fill-opacity:0.7;stroke:#8b8b8b;stroke-linejoin:miter;stroke-opacity:0.7;" x="321.571136" xlink:href="#mf764943c8c" y="249.247202"/>
     <use style="fill:#8b8b8b;fill-opacity:0.7;stroke:#8b8b8b;stroke-linejoin:miter;stroke-opacity:0.7;" x="384.843864" xlink:href="#mf764943c8c" y="249.247202"/>
     <use style="fill:#8b8b8b;fill-opacity:0.7;stroke:#8b8b8b;stroke-linejoin:miter;stroke-opacity:0.7;" x="448.116591" xlink:href="#mf764943c8c" y="249.247202"/>
     <use style="fill:#8b8b8b;fill-opacity:0.7;stroke:#8b8b8b;stroke-linejoin:miter;stroke-opacity:0.7;" x="511.389318" xlink:href="#mf764943c8c" y="249.247202"/>
     <use style="fill:#8b8b8b;fill-opacity:0.7;stroke:#8b8b8b;stroke-linejoin:miter;stroke-opacity:0.7;" x="574.662045" xlink:href="#mf764943c8c" y="246.502483"/>
     <use style="fill:#8b8b8b;fill-opacity:0.7;stroke:#8b8b8b;stroke-linejoin:miter;stroke-opacity:0.7;" x="637.934773" xlink:href="#mf764943c8c" y="53.650355"/>
    </g>
   </g>
   <g id="line2d_28">
    <path clip-path="url(#p212ca2a676)" d="M 68.480227 337.942745 
L 131.752955 262.634289 
L 195.025682 260.498496 
L 258.298409 260.498496 
L 321.571136 246.351987 
L 384.843864 246.351987 
L 448.116591 196.04381 
L 511.389318 48.041783 
L 574.662045 48.041783 
L 637.934773 48.041783 
" style="fill:none;stroke:#810f7c;stroke-dasharray:2.7,4.455;stroke-dashoffset:0;stroke-opacity:0.7;stroke-width:2.7;"/>
    <defs>
     <path d="M -1.14805 -2.771639 
L -2.771639 -1.14805 
L -2.771639 1.14805 
L -1.14805 2.771639 
L 1.14805 2.771639 
L 2.771639 1.14805 
L 2.771639 -1.14805 
L 1.14805 -2.771639 
z
" id="me0ba3d6b7b" style="stroke:#810f7c;stroke-linejoin:miter;stroke-opacity:0.7;"/>
    </defs>
    <g clip-path="url(#p212ca2a676)">
     <use style="fill:#810f7c;fill-opacity:0.7;stroke:#810f7c;stroke-linejoin:miter;stroke-opacity:0.7;" x="68.480227" xlink:href="#me0ba3d6b7b" y="337.942745"/>
     <use style="fill:#810f7c;fill-opacity:0.7;stroke:#810f7c;stroke-linejoin:miter;stroke-opacity:0.7;" x="131.752955" xlink:href="#me0ba3d6b7b" y="262.634289"/>
     <use style="fill:#810f7c;fill-opacity:0.7;stroke:#810f7c;stroke-linejoin:miter;stroke-opacity:0.7;" x="195.025682" xlink:href="#me0ba3d6b7b" y="260.498496"/>
     <use style="fill:#810f7c;fill-opacity:0.7;stroke:#810f7c;stroke-linejoin:miter;stroke-opacity:0.7;" x="258.298409" xlink:href="#me0ba3d6b7b" y="260.498496"/>
     <use style="fill:#810f7c;fill-opacity:0.7;stroke:#810f7c;stroke-linejoin:miter;stroke-opacity:0.7;" x="321.571136" xlink:href="#me0ba3d6b7b" y="246.351987"/>
     <use style="fill:#810f7c;fill-opacity:0.7;stroke:#810f7c;stroke-linejoin:miter;stroke-opacity:0.7;" x="384.843864" xlink:href="#me0ba3d6b7b" y="246.351987"/>
     <use style="fill:#810f7c;fill-opacity:0.7;stroke:#810f7c;stroke-linejoin:miter;stroke-opacity:0.7;" x="448.116591" xlink:href="#me0ba3d6b7b" y="196.04381"/>
     <use style="fill:#810f7c;fill-opacity:0.7;stroke:#810f7c;stroke-linejoin:miter;stroke-opacity:0.7;" x="511.389318" xlink:href="#me0ba3d6b7b" y="48.041783"/>
     <use style="fill:#810f7c;fill-opacity:0.7;stroke:#810f7c;stroke-linejoin:miter;stroke-opacity:0.7;" x="574.662045" xlink:href="#me0ba3d6b7b" y="48.041783"/>
     <use style="fill:#810f7c;fill-opacity:0.7;stroke:#810f7c;stroke-linejoin:miter;stroke-opacity:0.7;" x="637.934773" xlink:href="#me0ba3d6b7b" y="48.041783"/>
    </g>
   </g>
   <g id="patch_3">
    <path d="M 40.0075 352.7682 
L 40.0075 26.6082 
" style="fill:none;stroke:#f0f0f0;stroke-linecap:square;stroke-linejoin:miter;stroke-width:3;"/>
   </g>
   <g id="patch_4">
    <path d="M 666.4075 352.7682 
L 666.4075 26.6082 
" style="fill:none;stroke:#f0f0f0;stroke-linecap:square;stroke-linejoin:miter;stroke-width:3;"/>
   </g>
   <g id="patch_5">
    <path d="M 40.0075 352.7682 
L 666.4075 352.7682 
" style="fill:none;stroke:#f0f0f0;stroke-linecap:square;stroke-linejoin:miter;stroke-width:3;"/>
   </g>
   <g id="patch_6">
    <path d="M 40.0075 26.6082 
L 666.4075 26.6082 
" style="fill:none;stroke:#f0f0f0;stroke-linecap:square;stroke-linejoin:miter;stroke-width:3;"/>
   </g>
   <g id="text_14">
    <!-- Comparison between methods -->
    <defs>
     <path d="M 38.40625 -1.5 
Q 31.09375 -1.5 25.09375 0.890625 
Q 19.09375 3.296875 14.796875 7.890625 
Q 10.5 12.5 8.140625 19.25 
Q 5.796875 26 5.796875 34.703125 
Q 5.796875 43.40625 8.4375 50.15625 
Q 11.09375 56.90625 15.59375 61.5 
Q 20.09375 66.09375 26.09375 68.5 
Q 32.09375 70.90625 38.90625 70.90625 
Q 43.203125 70.90625 46.640625 70.296875 
Q 50.09375 69.703125 52.640625 68.890625 
Q 55.203125 68.09375 56.796875 67.296875 
Q 58.40625 66.5 59 66.09375 
L 56.203125 58.09375 
Q 55.296875 58.703125 53.59375 59.390625 
Q 51.90625 60.09375 49.75 60.796875 
Q 47.59375 61.5 45.046875 61.953125 
Q 42.5 62.40625 39.90625 62.40625 
Q 34.40625 62.40625 30 60.5 
Q 25.59375 58.59375 22.5 55 
Q 19.40625 51.40625 17.75 46.25 
Q 16.09375 41.09375 16.09375 34.703125 
Q 16.09375 28.5 17.546875 23.390625 
Q 19 18.296875 21.890625 14.640625 
Q 24.796875 11 29.140625 9 
Q 33.5 7 39.296875 7 
Q 46 7 50.390625 8.390625 
Q 54.796875 9.796875 57 10.90625 
L 59.5 2.90625 
Q 58.796875 2.40625 57 1.65625 
Q 55.203125 0.90625 52.5 0.203125 
Q 49.796875 -0.5 46.1875 -1 
Q 42.59375 -1.5 38.40625 -1.5 
z
" id="Ubuntu-67"/>
     <path d="M 8 50.5 
Q 11.203125 51.296875 16.453125 52.1875 
Q 21.703125 53.09375 28.59375 53.09375 
Q 33.59375 53.09375 37 51.75 
Q 40.40625 50.40625 42.703125 47.796875 
Q 43.40625 48.296875 44.90625 49.1875 
Q 46.40625 50.09375 48.59375 50.9375 
Q 50.796875 51.796875 53.5 52.4375 
Q 56.203125 53.09375 59.296875 53.09375 
Q 65.296875 53.09375 69.09375 51.34375 
Q 72.90625 49.59375 75.046875 46.390625 
Q 77.203125 43.203125 77.953125 38.796875 
Q 78.703125 34.40625 78.703125 29.203125 
L 78.703125 0 
L 69.40625 0 
L 69.40625 27.203125 
Q 69.40625 31.796875 68.953125 35.09375 
Q 68.5 38.40625 67.25 40.59375 
Q 66 42.796875 63.84375 43.84375 
Q 61.703125 44.90625 58.296875 44.90625 
Q 53.59375 44.90625 50.546875 43.65625 
Q 47.5 42.40625 46.40625 41.40625 
Q 47.203125 38.796875 47.59375 35.6875 
Q 48 32.59375 48 29.203125 
L 48 0 
L 38.703125 0 
L 38.703125 27.203125 
Q 38.703125 31.796875 38.203125 35.09375 
Q 37.703125 38.40625 36.453125 40.59375 
Q 35.203125 42.796875 33.046875 43.84375 
Q 30.90625 44.90625 27.59375 44.90625 
Q 26.203125 44.90625 24.59375 44.796875 
Q 23 44.703125 21.546875 44.546875 
Q 20.09375 44.40625 18.890625 44.203125 
Q 17.703125 44 17.296875 43.90625 
L 17.296875 0 
L 8 0 
z
" id="Ubuntu-109"/>
     <path d="M 17.296875 0 
L 8 0 
L 8 52 
L 17.296875 52 
z
M 12.59375 61.40625 
Q 10.09375 61.40625 8.34375 63.046875 
Q 6.59375 64.703125 6.59375 67.5 
Q 6.59375 70.296875 8.34375 71.9375 
Q 10.09375 73.59375 12.59375 73.59375 
Q 15.09375 73.59375 16.84375 71.9375 
Q 18.59375 70.296875 18.59375 67.5 
Q 18.59375 64.703125 16.84375 63.046875 
Q 15.09375 61.40625 12.59375 61.40625 
z
" id="Ubuntu-105"/>
     <path d="M 17.296875 49.703125 
Q 19 50.796875 22.453125 52 
Q 25.90625 53.203125 30.40625 53.203125 
Q 36 53.203125 40.34375 51.203125 
Q 44.703125 49.203125 47.703125 45.59375 
Q 50.703125 42 52.25 37 
Q 53.796875 32 53.796875 26 
Q 53.796875 19.703125 51.9375 14.640625 
Q 50.09375 9.59375 46.6875 6.09375 
Q 43.296875 2.59375 38.5 0.6875 
Q 33.703125 -1.203125 27.703125 -1.203125 
Q 21.203125 -1.203125 16.203125 -0.296875 
Q 11.203125 0.59375 8 1.5 
L 8 76 
L 17.296875 77.59375 
z
M 17.296875 8.09375 
Q 18.703125 7.703125 21.25 7.34375 
Q 23.796875 7 27.59375 7 
Q 35.09375 7 39.59375 11.953125 
Q 44.09375 16.90625 44.09375 26 
Q 44.09375 30 43.296875 33.5 
Q 42.5 37 40.703125 39.546875 
Q 38.90625 42.09375 36.046875 43.546875 
Q 33.203125 45 29.203125 45 
Q 25.40625 45 22.203125 43.703125 
Q 19 42.40625 17.296875 41 
z
" id="Ubuntu-98"/>
     <path d="M 16.703125 52 
L 36.40625 52 
L 36.40625 44.203125 
L 16.703125 44.203125 
L 16.703125 20.203125 
Q 16.703125 16.296875 17.296875 13.75 
Q 17.90625 11.203125 19.09375 9.75 
Q 20.296875 8.296875 22.09375 7.6875 
Q 23.90625 7.09375 26.296875 7.09375 
Q 30.5 7.09375 33.046875 8.046875 
Q 35.59375 9 36.59375 9.40625 
L 38.40625 1.703125 
Q 37 1 33.5 -0.046875 
Q 30 -1.09375 25.5 -1.09375 
Q 20.203125 -1.09375 16.75 0.25 
Q 13.296875 1.59375 11.1875 4.296875 
Q 9.09375 7 8.25 10.953125 
Q 7.40625 14.90625 7.40625 20.09375 
L 7.40625 66.5 
L 16.703125 68.09375 
z
" id="Ubuntu-116"/>
     <path d="M 50.5 0 
Q 47.703125 7.203125 44.546875 16.453125 
Q 41.40625 25.703125 38.796875 35.703125 
Q 36.203125 25.703125 33.09375 16.453125 
Q 30 7.203125 27.203125 0 
L 19.09375 0 
Q 14.5 10.296875 10.09375 23.5 
Q 5.703125 36.703125 1.796875 52 
L 11.796875 52 
Q 12.796875 47.296875 14.1875 41.796875 
Q 15.59375 36.296875 17.140625 30.796875 
Q 18.703125 25.296875 20.390625 20.1875 
Q 22.09375 15.09375 23.59375 11.296875 
Q 25.296875 16 26.9375 21.25 
Q 28.59375 26.5 30.09375 31.84375 
Q 31.59375 37.203125 32.9375 42.34375 
Q 34.296875 47.5 35.296875 52 
L 43 52 
Q 43.90625 47.5 45.203125 42.34375 
Q 46.5 37.203125 48 31.84375 
Q 49.5 26.5 51.140625 21.25 
Q 52.796875 16 54.5 11.296875 
Q 56 15.09375 57.640625 20.1875 
Q 59.296875 25.296875 60.890625 30.796875 
Q 62.5 36.296875 63.890625 41.796875 
Q 65.296875 47.296875 66.296875 52 
L 75.90625 52 
Q 72 36.703125 67.59375 23.5 
Q 63.203125 10.296875 58.59375 0 
z
" id="Ubuntu-119"/>
     <path d="M 8 0 
L 8 76 
L 17.296875 77.59375 
L 17.296875 51 
Q 19.90625 52 22.84375 52.546875 
Q 25.796875 53.09375 28.703125 53.09375 
Q 34.90625 53.09375 39 51.34375 
Q 43.09375 49.59375 45.546875 46.4375 
Q 48 43.296875 49 38.890625 
Q 50 34.5 50 29.203125 
L 50 0 
L 40.703125 0 
L 40.703125 27.203125 
Q 40.703125 32 40.046875 35.390625 
Q 39.40625 38.796875 37.90625 40.890625 
Q 36.40625 43 33.90625 43.953125 
Q 31.40625 44.90625 27.703125 44.90625 
Q 26.203125 44.90625 24.59375 44.703125 
Q 23 44.5 21.546875 44.25 
Q 20.09375 44 18.9375 43.703125 
Q 17.796875 43.40625 17.296875 43.203125 
L 17.296875 0 
z
" id="Ubuntu-104"/>
    </defs>
    <g transform="translate(232.8523 20.6082)scale(0.1728 -0.1728)">
     <use xlink:href="#Ubuntu-67"/>
     <use x="61.98436" xlink:href="#Ubuntu-111"/>
     <use x="120.984344" xlink:href="#Ubuntu-109"/>
     <use x="207.084335" xlink:href="#Ubuntu-112"/>
     <use x="265.984329" xlink:href="#Ubuntu-97"/>
     <use x="318.184326" xlink:href="#Ubuntu-114"/>
     <use x="356.784317" xlink:href="#Ubuntu-105"/>
     <use x="382.084305" xlink:href="#Ubuntu-115"/>
     <use x="426.684296" xlink:href="#Ubuntu-111"/>
     <use x="485.68428" xlink:href="#Ubuntu-110"/>
     <use x="543.084274" xlink:href="#Ubuntu-32"/>
     <use x="566.184265" xlink:href="#Ubuntu-98"/>
     <use x="625.084259" xlink:href="#Ubuntu-101"/>
     <use x="680.984253" xlink:href="#Ubuntu-116"/>
     <use x="721.18425" xlink:href="#Ubuntu-119"/>
     <use x="798.884232" xlink:href="#Ubuntu-101"/>
     <use x="854.784225" xlink:href="#Ubuntu-101"/>
     <use x="910.684219" xlink:href="#Ubuntu-110"/>
     <use x="968.084213" xlink:href="#Ubuntu-32"/>
     <use x="991.184204" xlink:href="#Ubuntu-109"/>
     <use x="1077.284195" xlink:href="#Ubuntu-101"/>
     <use x="1133.184189" xlink:href="#Ubuntu-116"/>
     <use x="1173.384186" xlink:href="#Ubuntu-104"/>
     <use x="1230.484177" xlink:href="#Ubuntu-111"/>
     <use x="1289.484161" xlink:href="#Ubuntu-100"/>
     <use x="1348.384155" xlink:href="#Ubuntu-115"/>
    </g>
   </g>
   <g id="legend_1">
    <g id="patch_7">
     <path d="M 574.931875 244.08195 
L 658.0075 244.08195 
Q 660.4075 244.08195 660.4075 241.68195 
L 660.4075 137.69445 
Q 660.4075 135.29445 658.0075 135.29445 
L 574.931875 135.29445 
Q 572.531875 135.29445 572.531875 137.69445 
L 572.531875 241.68195 
Q 572.531875 244.08195 574.931875 244.08195 
z
" style="fill:#f0f0f0;opacity:0.8;stroke:#cccccc;stroke-linejoin:miter;stroke-width:0.5;"/>
    </g>
    <g id="line2d_29">
     <path d="M 577.331875 145.2057 
L 601.331875 145.2057 
" style="fill:none;stroke:#008fd5;stroke-opacity:0.7;stroke-width:2.7;"/>
    </g>
    <g id="line2d_30">
     <g>
      <use style="fill:#008fd5;fill-opacity:0.7;stroke:#008fd5;stroke-opacity:0.7;" x="589.331875" xlink:href="#m44da04c25a" y="145.2057"/>
     </g>
    </g>
    <g id="text_15">
     <!-- ACQ -->
     <defs>
      <path d="M 54.90625 0 
Q 53.203125 4.5 51.703125 8.84375 
Q 50.203125 13.203125 48.59375 17.703125 
L 17.203125 17.703125 
L 10.90625 0 
L 0.796875 0 
Q 4.796875 11 8.296875 20.34375 
Q 11.796875 29.703125 15.140625 38.09375 
Q 18.5 46.5 21.796875 54.140625 
Q 25.09375 61.796875 28.703125 69.296875 
L 37.59375 69.296875 
Q 41.203125 61.796875 44.5 54.140625 
Q 47.796875 46.5 51.140625 38.09375 
Q 54.5 29.703125 58 20.34375 
Q 61.5 11 65.5 0 
z
M 45.796875 25.703125 
Q 42.59375 34.40625 39.4375 42.546875 
Q 36.296875 50.703125 32.90625 58.203125 
Q 29.40625 50.703125 26.25 42.546875 
Q 23.09375 34.40625 20 25.703125 
z
" id="Ubuntu-65"/>
      <path d="M 5.796875 34.703125 
Q 5.796875 43.59375 8.4375 50.390625 
Q 11.09375 57.203125 15.640625 61.75 
Q 20.203125 66.296875 26.25 68.59375 
Q 32.296875 70.90625 39.09375 70.90625 
Q 45.796875 70.90625 51.75 68.59375 
Q 57.703125 66.296875 62.203125 61.75 
Q 66.703125 57.203125 69.34375 50.390625 
Q 72 43.59375 72 34.703125 
Q 72 26.90625 70 20.796875 
Q 68 14.703125 64.453125 10.25 
Q 60.90625 5.796875 56.15625 3.046875 
Q 51.40625 0.296875 46 -0.703125 
Q 46.09375 -3 48.046875 -4.75 
Q 50 -6.5 53 -7.703125 
Q 56 -8.90625 59.703125 -9.703125 
Q 63.40625 -10.5 67.09375 -10.90625 
L 64.796875 -18.5 
Q 59.59375 -17.796875 54.84375 -16.640625 
Q 50.09375 -15.5 46.25 -13.59375 
Q 42.40625 -11.703125 39.796875 -8.75 
Q 37.203125 -5.796875 36.296875 -1.40625 
Q 30 -1 24.390625 1.546875 
Q 18.796875 4.09375 14.6875 8.640625 
Q 10.59375 13.203125 8.1875 19.703125 
Q 5.796875 26.203125 5.796875 34.703125 
z
M 16 34.703125 
Q 16 28.40625 17.59375 23.25 
Q 19.203125 18.09375 22.140625 14.5 
Q 25.09375 10.90625 29.34375 8.953125 
Q 33.59375 7 38.90625 7 
Q 44.203125 7 48.390625 8.953125 
Q 52.59375 10.90625 55.546875 14.5 
Q 58.5 18.09375 60.09375 23.25 
Q 61.703125 28.40625 61.703125 34.703125 
Q 61.703125 41 60.09375 46.140625 
Q 58.5 51.296875 55.546875 54.890625 
Q 52.59375 58.5 48.390625 60.453125 
Q 44.203125 62.40625 38.90625 62.40625 
Q 33.59375 62.40625 29.34375 60.453125 
Q 25.09375 58.5 22.140625 54.890625 
Q 19.203125 51.296875 17.59375 46.140625 
Q 16 41 16 34.703125 
z
" id="Ubuntu-81"/>
     </defs>
     <g transform="translate(610.931875 149.4057)scale(0.12 -0.12)">
      <use xlink:href="#Ubuntu-65"/>
      <use x="66.284363" xlink:href="#Ubuntu-67"/>
      <use x="128.253098" xlink:href="#Ubuntu-81"/>
     </g>
    </g>
    <g id="line2d_31">
     <path d="M 577.331875 162.73695 
L 601.331875 162.73695 
" style="fill:none;stroke:#fc4f30;stroke-dasharray:9.99,4.32;stroke-dashoffset:0;stroke-opacity:0.7;stroke-width:2.7;"/>
    </g>
    <g id="line2d_32">
     <g>
      <use style="fill:#fc4f30;fill-opacity:0.7;stroke:#fc4f30;stroke-linejoin:miter;stroke-opacity:0.7;" x="589.331875" xlink:href="#me0a1d941bd" y="162.73695"/>
     </g>
    </g>
    <g id="text_16">
     <!-- Rand -->
     <defs>
      <path d="M 42.5 29 
Q 44.09375 27 46.546875 23.75 
Q 49 20.5 51.59375 16.546875 
Q 54.203125 12.59375 56.75 8.296875 
Q 59.296875 4 61.09375 0 
L 50.5 0 
Q 48.5 3.796875 46.140625 7.6875 
Q 43.796875 11.59375 41.390625 15.140625 
Q 39 18.703125 36.640625 21.796875 
Q 34.296875 24.90625 32.40625 27.203125 
Q 31.09375 27.09375 29.75 27.09375 
Q 28.40625 27.09375 27 27.09375 
L 18.296875 27.09375 
L 18.296875 0 
L 8.59375 0 
L 8.59375 68.296875 
Q 12.703125 69.296875 17.75 69.640625 
Q 22.796875 70 27 70 
Q 41.59375 70 49.25 64.5 
Q 56.90625 59 56.90625 48.09375 
Q 56.90625 41.203125 53.25 36.296875 
Q 49.59375 31.40625 42.5 29 
z
M 27.796875 61.5 
Q 21.59375 61.5 18.296875 61.203125 
L 18.296875 35.09375 
L 25.203125 35.09375 
Q 30.203125 35.09375 34.203125 35.59375 
Q 38.203125 36.09375 40.953125 37.5 
Q 43.703125 38.90625 45.203125 41.453125 
Q 46.703125 44 46.703125 48.203125 
Q 46.703125 52.09375 45.203125 54.6875 
Q 43.703125 57.296875 41.140625 58.796875 
Q 38.59375 60.296875 35.140625 60.890625 
Q 31.703125 61.5 27.796875 61.5 
z
" id="Ubuntu-82"/>
     </defs>
     <g transform="translate(610.931875 166.93695)scale(0.12 -0.12)">
      <use xlink:href="#Ubuntu-82"/>
      <use x="62.899994" xlink:href="#Ubuntu-97"/>
      <use x="115.099991" xlink:href="#Ubuntu-110"/>
      <use x="172.499985" xlink:href="#Ubuntu-100"/>
     </g>
    </g>
    <g id="line2d_33">
     <path d="M 577.331875 180.2682 
L 601.331875 180.2682 
" style="fill:none;stroke:#e5ae38;stroke-opacity:0.7;stroke-width:2.7;"/>
    </g>
    <g id="line2d_34">
     <g>
      <use style="fill:#e5ae38;fill-opacity:0.7;stroke:#e5ae38;stroke-linejoin:miter;stroke-opacity:0.7;" x="589.331875" xlink:href="#m9e1bc8c152" y="180.2682"/>
     </g>
    </g>
    <g id="text_17">
     <!-- PI -->
     <defs>
      <path d="M 27 70 
Q 41.59375 70 49.4375 64.453125 
Q 57.296875 58.90625 57.296875 47.90625 
Q 57.296875 41.90625 55.140625 37.65625 
Q 53 33.40625 48.953125 30.75 
Q 44.90625 28.09375 39.09375 26.890625 
Q 33.296875 25.703125 26 25.703125 
L 18.296875 25.703125 
L 18.296875 0 
L 8.59375 0 
L 8.59375 68.296875 
Q 12.703125 69.296875 17.75 69.640625 
Q 22.796875 70 27 70 
z
M 27.796875 61.5 
Q 21.59375 61.5 18.296875 61.203125 
L 18.296875 34 
L 25.59375 34 
Q 30.59375 34 34.59375 34.640625 
Q 38.59375 35.296875 41.34375 36.84375 
Q 44.09375 38.40625 45.59375 41.09375 
Q 47.09375 43.796875 47.09375 48 
Q 47.09375 52 45.546875 54.59375 
Q 44 57.203125 41.34375 58.75 
Q 38.703125 60.296875 35.203125 60.890625 
Q 31.703125 61.5 27.796875 61.5 
z
" id="Ubuntu-80"/>
      <path d="M 8.59375 69.296875 
L 18.296875 69.296875 
L 18.296875 0 
L 8.59375 0 
z
" id="Ubuntu-73"/>
     </defs>
     <g transform="translate(610.931875 184.4682)scale(0.12 -0.12)">
      <use xlink:href="#Ubuntu-80"/>
      <use x="60.799988" xlink:href="#Ubuntu-73"/>
     </g>
    </g>
    <g id="line2d_35">
     <path d="M 577.331875 197.79945 
L 601.331875 197.79945 
" style="fill:none;stroke:#6d904f;stroke-dasharray:2.7,4.455;stroke-dashoffset:0;stroke-opacity:0.7;stroke-width:2.7;"/>
    </g>
    <g id="line2d_36">
     <g>
      <use style="fill:#6d904f;fill-opacity:0.7;stroke:#6d904f;stroke-linejoin:miter;stroke-opacity:0.7;" x="589.331875" xlink:href="#m17ec2b74d3" y="197.79945"/>
     </g>
    </g>
    <g id="text_18">
     <!-- EI -->
     <defs>
      <path d="M 8.59375 0 
L 8.59375 69.296875 
L 50.90625 69.296875 
L 50.90625 61 
L 18.296875 61 
L 18.296875 40.40625 
L 47.296875 40.40625 
L 47.296875 32.296875 
L 18.296875 32.296875 
L 18.296875 8.296875 
L 53.40625 8.296875 
L 53.40625 0 
z
" id="Ubuntu-69"/>
     </defs>
     <g transform="translate(610.931875 201.99945)scale(0.12 -0.12)">
      <use xlink:href="#Ubuntu-69"/>
      <use x="57.099991" xlink:href="#Ubuntu-73"/>
     </g>
    </g>
    <g id="line2d_37">
     <path d="M 577.331875 215.3307 
L 601.331875 215.3307 
" style="fill:none;stroke:#8b8b8b;stroke-dasharray:17.28,4.32,2.7,4.32;stroke-dashoffset:0;stroke-opacity:0.7;stroke-width:2.7;"/>
    </g>
    <g id="line2d_38">
     <g>
      <use style="fill:#8b8b8b;fill-opacity:0.7;stroke:#8b8b8b;stroke-linejoin:miter;stroke-opacity:0.7;" x="589.331875" xlink:href="#mf764943c8c" y="215.3307"/>
     </g>
    </g>
    <g id="text_19">
     <!-- EI_PI -->
     <defs>
      <path d="M -0.40625 -10.59375 
L 49.59375 -10.59375 
L 49.59375 -18.5 
L -0.40625 -18.5 
z
" id="Ubuntu-95"/>
     </defs>
     <g transform="translate(610.931875 219.5307)scale(0.12 -0.12)">
      <use xlink:href="#Ubuntu-69"/>
      <use x="57.099991" xlink:href="#Ubuntu-73"/>
      <use x="83.999985" xlink:href="#Ubuntu-95"/>
      <use x="133.199982" xlink:href="#Ubuntu-80"/>
      <use x="193.999969" xlink:href="#Ubuntu-73"/>
     </g>
    </g>
    <g id="line2d_39">
     <path d="M 577.331875 232.86195 
L 601.331875 232.86195 
" style="fill:none;stroke:#810f7c;stroke-dasharray:2.7,4.455;stroke-dashoffset:0;stroke-opacity:0.7;stroke-width:2.7;"/>
    </g>
    <g id="line2d_40">
     <g>
      <use style="fill:#810f7c;fill-opacity:0.7;stroke:#810f7c;stroke-linejoin:miter;stroke-opacity:0.7;" x="589.331875" xlink:href="#me0ba3d6b7b" y="232.86195"/>
     </g>
    </g>
    <g id="text_20">
     <!-- GP_UCB -->
     <defs>
      <path d="M 50.90625 34.09375 
L 60.59375 34.09375 
L 60.59375 1.703125 
Q 59.40625 1.296875 57.15625 0.796875 
Q 54.90625 0.296875 51.953125 -0.203125 
Q 49 -0.703125 45.5 -1.046875 
Q 42 -1.40625 38.40625 -1.40625 
Q 31.09375 -1.40625 25.09375 1 
Q 19.09375 3.40625 14.796875 8 
Q 10.5 12.59375 8.140625 19.296875 
Q 5.796875 26 5.796875 34.703125 
Q 5.796875 43.40625 8.4375 50.15625 
Q 11.09375 56.90625 15.59375 61.5 
Q 20.09375 66.09375 26.140625 68.5 
Q 32.203125 70.90625 39.09375 70.90625 
Q 43.796875 70.90625 47.4375 70.296875 
Q 51.09375 69.703125 53.6875 68.890625 
Q 56.296875 68.09375 57.9375 67.296875 
Q 59.59375 66.5 60.203125 66.09375 
L 57.09375 58 
Q 54.203125 59.90625 49.390625 61.15625 
Q 44.59375 62.40625 39.59375 62.40625 
Q 34.296875 62.40625 29.9375 60.5 
Q 25.59375 58.59375 22.546875 55 
Q 19.5 51.40625 17.796875 46.25 
Q 16.09375 41.09375 16.09375 34.703125 
Q 16.09375 28.5 17.546875 23.390625 
Q 19 18.296875 21.953125 14.640625 
Q 24.90625 11 29.25 9 
Q 33.59375 7 39.5 7 
Q 43.703125 7 46.640625 7.453125 
Q 49.59375 7.90625 50.90625 8.296875 
z
" id="Ubuntu-71"/>
      <path d="M 34.40625 -1.5 
Q 27.59375 -1.5 22.59375 0.59375 
Q 17.59375 2.703125 14.390625 6.34375 
Q 11.203125 10 9.640625 15 
Q 8.09375 20 8.09375 25.796875 
L 8.09375 69.296875 
L 17.796875 69.296875 
L 17.796875 26.90625 
Q 17.796875 16.5 22.390625 11.796875 
Q 27 7.09375 34.40625 7.09375 
Q 38.09375 7.09375 41.140625 8.25 
Q 44.203125 9.40625 46.390625 11.796875 
Q 48.59375 14.203125 49.796875 17.953125 
Q 51 21.703125 51 26.90625 
L 51 69.296875 
L 60.703125 69.296875 
L 60.703125 25.796875 
Q 60.703125 20 59.140625 15 
Q 57.59375 10 54.34375 6.34375 
Q 51.09375 2.703125 46.140625 0.59375 
Q 41.203125 -1.5 34.40625 -1.5 
z
" id="Ubuntu-85"/>
      <path d="M 27.296875 -0.59375 
Q 25.203125 -0.59375 22.75 -0.5 
Q 20.296875 -0.40625 17.84375 -0.203125 
Q 15.40625 0 13 0.296875 
Q 10.59375 0.59375 8.59375 1.09375 
L 8.59375 68.296875 
Q 10.59375 68.796875 13 69.09375 
Q 15.40625 69.40625 17.84375 69.59375 
Q 20.296875 69.796875 22.6875 69.890625 
Q 25.09375 70 27.203125 70 
Q 33.203125 70 38.453125 69.09375 
Q 43.703125 68.203125 47.546875 66.046875 
Q 51.40625 63.90625 53.59375 60.40625 
Q 55.796875 56.90625 55.796875 51.796875 
Q 55.796875 46.09375 53.09375 42.4375 
Q 50.40625 38.796875 45.90625 37 
Q 52 35.203125 55.59375 31.296875 
Q 59.203125 27.40625 59.203125 20.296875 
Q 59.203125 9.90625 51.546875 4.65625 
Q 43.90625 -0.59375 27.296875 -0.59375 
z
M 18.203125 32.296875 
L 18.203125 7.90625 
Q 19.296875 7.796875 20.796875 7.703125 
Q 22.09375 7.59375 23.84375 7.546875 
Q 25.59375 7.5 27.90625 7.5 
Q 32.203125 7.5 36.046875 8.046875 
Q 39.90625 8.59375 42.796875 10 
Q 45.703125 11.40625 47.453125 13.90625 
Q 49.203125 16.40625 49.203125 20.203125 
Q 49.203125 23.59375 47.890625 25.9375 
Q 46.59375 28.296875 44.140625 29.6875 
Q 41.703125 31.09375 38.296875 31.6875 
Q 34.90625 32.296875 30.703125 32.296875 
z
M 18.203125 40.09375 
L 28.40625 40.09375 
Q 32 40.09375 35.203125 40.59375 
Q 38.40625 41.09375 40.75 42.390625 
Q 43.09375 43.703125 44.4375 45.796875 
Q 45.796875 47.90625 45.796875 51.09375 
Q 45.796875 54.09375 44.390625 56.140625 
Q 43 58.203125 40.546875 59.453125 
Q 38.09375 60.703125 34.796875 61.296875 
Q 31.5 61.90625 27.796875 61.90625 
Q 24.09375 61.90625 22 61.796875 
Q 19.90625 61.703125 18.203125 61.5 
z
" id="Ubuntu-66"/>
     </defs>
     <g transform="translate(610.931875 237.06195)scale(0.12 -0.12)">
      <use xlink:href="#Ubuntu-71"/>
      <use x="67.199997" xlink:href="#Ubuntu-80"/>
      <use x="127.999985" xlink:href="#Ubuntu-95"/>
      <use x="177.199982" xlink:href="#Ubuntu-85"/>
      <use x="245.999969" xlink:href="#Ubuntu-67"/>
      <use x="307.999954" xlink:href="#Ubuntu-66"/>
     </g>
    </g>
   </g>
  </g>
 </g>
 <defs>
  <clipPath id="p212ca2a676">
   <rect height="326.16" width="626.4" x="40.0075" y="26.6082"/>
  </clipPath>
 </defs>
</svg>
