<?xml version="1.0" encoding="utf-8" standalone="no"?>
<!DOCTYPE svg PUBLIC "-//W3C//DTD SVG 1.1//EN"
  "http://www.w3.org/Graphics/SVG/1.1/DTD/svg11.dtd">
<!-- Created with matplotlib (https://matplotlib.org/) -->
<svg height="432pt" version="1.1" viewBox="0 0 1152 432" width="1152pt" xmlns="http://www.w3.org/2000/svg" xmlns:xlink="http://www.w3.org/1999/xlink">
 <defs>
  <style type="text/css">
*{stroke-linecap:butt;stroke-linejoin:round;white-space:pre;}
  </style>
 </defs>
 <g id="figure_1">
  <g id="patch_1">
   <path d="M 0 432 
L 1152 432 
L 1152 0 
L 0 0 
z
" style="fill:#f0f0f0;"/>
  </g>
  <g id="axes_1">
   <g id="patch_2">
    <path d="M 92.16 378 
L 1094.4 378 
L 1094.4 51.84 
L 92.16 51.84 
z
" style="fill:#f0f0f0;"/>
   </g>
   <g id="matplotlib.axis_1">
    <g id="xtick_1">
     <g id="line2d_1"/>
     <g id="text_1">
      <!-- 2 -->
      <defs>
       <path d="M 46.703125 51.59375 
Q 46.703125 48 45.25 44.640625 
Q 43.796875 41.296875 41.390625 38.046875 
Q 39 34.796875 36 31.640625 
Q 33 28.5 30 25.5 
Q 28.296875 23.796875 26.046875 21.5 
Q 23.796875 19.203125 21.796875 16.703125 
Q 19.796875 14.203125 18.4375 11.890625 
Q 17.09375 9.59375 17.09375 7.90625 
L 49 7.90625 
L 49 0 
L 7 0 
Q 6.90625 0.59375 6.90625 1.1875 
Q 6.90625 1.796875 6.90625 2.296875 
Q 6.90625 7 8.453125 11.046875 
Q 10 15.09375 12.5 18.6875 
Q 15 22.296875 18.09375 25.5 
Q 21.203125 28.703125 24.203125 31.703125 
Q 26.703125 34.09375 28.953125 36.4375 
Q 31.203125 38.796875 32.953125 41.140625 
Q 34.703125 43.5 35.75 46 
Q 36.796875 48.5 36.796875 51.296875 
Q 36.796875 54.296875 35.84375 56.390625 
Q 34.90625 58.5 33.296875 59.890625 
Q 31.703125 61.296875 29.546875 61.9375 
Q 27.40625 62.59375 25 62.59375 
Q 22.09375 62.59375 19.6875 61.796875 
Q 17.296875 61 15.390625 59.953125 
Q 13.5 58.90625 12.203125 57.75 
Q 10.90625 56.59375 10.203125 56 
L 5.59375 62.59375 
Q 6.5 63.59375 8.296875 65.046875 
Q 10.09375 66.5 12.59375 67.796875 
Q 15.09375 69.09375 18.1875 70 
Q 21.296875 70.90625 24.90625 70.90625 
Q 35.796875 70.90625 41.25 65.84375 
Q 46.703125 60.796875 46.703125 51.59375 
z
" id="Ubuntu-50"/>
      </defs>
      <g transform="translate(226.572841 387.7075)scale(0.08 -0.08)">
       <use xlink:href="#Ubuntu-50"/>
      </g>
     </g>
    </g>
    <g id="xtick_2">
     <g id="line2d_2"/>
     <g id="text_2">
      <!-- 4 -->
      <defs>
       <path d="M 4 24 
Q 5.90625 28.40625 9.203125 34.25 
Q 12.5 40.09375 16.640625 46.296875 
Q 20.796875 52.5 25.546875 58.5 
Q 30.296875 64.5 35.09375 69.296875 
L 44 69.296875 
L 44 25.296875 
L 52.203125 25.296875 
L 52.203125 17.703125 
L 44 17.703125 
L 44 0 
L 35 0 
L 35 17.703125 
L 4 17.703125 
z
M 35 58.296875 
Q 32 55.09375 28.953125 51.140625 
Q 25.90625 47.203125 23 42.890625 
Q 20.09375 38.59375 17.546875 34.09375 
Q 15 29.59375 13 25.296875 
L 35 25.296875 
z
" id="Ubuntu-52"/>
      </defs>
      <g transform="translate(408.798295 387.7075)scale(0.08 -0.08)">
       <use xlink:href="#Ubuntu-52"/>
      </g>
     </g>
    </g>
    <g id="xtick_3">
     <g id="line2d_3"/>
     <g id="text_3">
      <!-- 6 -->
      <defs>
       <path d="M 6.296875 27.796875 
Q 6.296875 37.90625 9.09375 45.65625 
Q 11.90625 53.40625 17.046875 58.703125 
Q 22.203125 64 29.546875 66.75 
Q 36.90625 69.5 46.09375 69.59375 
L 46.796875 61.796875 
Q 40.90625 61.703125 36.046875 60.5 
Q 31.203125 59.296875 27.390625 56.6875 
Q 23.59375 54.09375 21 49.9375 
Q 18.40625 45.796875 17.09375 39.703125 
Q 19.703125 40.90625 22.953125 41.703125 
Q 26.203125 42.5 29.703125 42.5 
Q 35.59375 42.5 39.6875 40.703125 
Q 43.796875 38.90625 46.390625 35.953125 
Q 49 33 50.140625 29.140625 
Q 51.296875 25.296875 51.296875 21.09375 
Q 51.296875 17.296875 50 13.296875 
Q 48.703125 9.296875 46.046875 6 
Q 43.40625 2.703125 39.296875 0.59375 
Q 35.203125 -1.5 29.59375 -1.5 
Q 18.203125 -1.5 12.25 6.296875 
Q 6.296875 14.09375 6.296875 27.796875 
z
M 28.703125 34.90625 
Q 25.203125 34.90625 22.203125 34.25 
Q 19.203125 33.59375 16.203125 32.296875 
Q 16.09375 31.203125 16.046875 30.046875 
Q 16 28.90625 16 27.796875 
Q 16 23.40625 16.59375 19.5 
Q 17.203125 15.59375 18.75 12.640625 
Q 20.296875 9.703125 22.890625 7.953125 
Q 25.5 6.203125 29.5 6.203125 
Q 32.796875 6.203125 35.09375 7.59375 
Q 37.40625 9 38.90625 11.203125 
Q 40.40625 13.40625 41.046875 15.953125 
Q 41.703125 18.5 41.703125 20.90625 
Q 41.703125 27.703125 38.453125 31.296875 
Q 35.203125 34.90625 28.703125 34.90625 
z
" id="Ubuntu-54"/>
      </defs>
      <g transform="translate(591.02375 387.7075)scale(0.08 -0.08)">
       <use xlink:href="#Ubuntu-54"/>
      </g>
     </g>
    </g>
    <g id="xtick_4">
     <g id="line2d_4"/>
     <g id="text_4">
      <!-- 8 -->
      <defs>
       <path d="M 50.90625 18 
Q 50.90625 13.796875 49.453125 10.25 
Q 48 6.703125 45.140625 4.046875 
Q 42.296875 1.40625 38 -0.046875 
Q 33.703125 -1.5 28.09375 -1.5 
Q 21.59375 -1.5 17.25 0.34375 
Q 12.90625 2.203125 10.296875 5 
Q 7.703125 7.796875 6.59375 11.140625 
Q 5.5 14.5 5.5 17.5 
Q 5.5 20.40625 6.453125 23.046875 
Q 7.40625 25.703125 8.953125 28 
Q 10.5 30.296875 12.546875 32.140625 
Q 14.59375 34 16.90625 35.40625 
Q 7.09375 41 7.09375 51.90625 
Q 7.09375 55.703125 8.59375 59.140625 
Q 10.09375 62.59375 12.84375 65.1875 
Q 15.59375 67.796875 19.5 69.34375 
Q 23.40625 70.90625 28.203125 70.90625 
Q 33.796875 70.90625 37.796875 69.203125 
Q 41.796875 67.5 44.34375 64.84375 
Q 46.90625 62.203125 48.046875 59 
Q 49.203125 55.796875 49.203125 52.796875 
Q 49.203125 49.90625 48.34375 47.34375 
Q 47.5 44.796875 46.046875 42.59375 
Q 44.59375 40.40625 42.75 38.703125 
Q 40.90625 37 38.90625 35.703125 
Q 50.703125 30.09375 50.90625 18 
z
M 14.90625 17.40625 
Q 14.90625 15.59375 15.546875 13.640625 
Q 16.203125 11.703125 17.796875 10.046875 
Q 19.40625 8.40625 21.90625 7.296875 
Q 24.40625 6.203125 28.203125 6.203125 
Q 31.59375 6.203125 34.140625 7.203125 
Q 36.703125 8.203125 38.296875 9.75 
Q 39.90625 11.296875 40.703125 13.296875 
Q 41.5 15.296875 41.5 17.40625 
Q 41.5 20.59375 40.296875 23 
Q 39.09375 25.40625 36.84375 27.203125 
Q 34.59375 29 31.4375 30.25 
Q 28.296875 31.5 24.296875 32.40625 
Q 19.796875 29.90625 17.34375 26.203125 
Q 14.90625 22.5 14.90625 17.40625 
z
M 39.90625 52.90625 
Q 39.90625 54.40625 39.25 56.203125 
Q 38.59375 58 37.1875 59.546875 
Q 35.796875 61.09375 33.59375 62.140625 
Q 31.40625 63.203125 28.203125 63.203125 
Q 25 63.203125 22.75 62.203125 
Q 20.5 61.203125 19.09375 59.640625 
Q 17.703125 58.09375 17.046875 56.25 
Q 16.40625 54.40625 16.40625 52.59375 
Q 16.40625 50.40625 17.203125 48.203125 
Q 18 46 19.703125 44.09375 
Q 21.40625 42.203125 24.15625 40.703125 
Q 26.90625 39.203125 30.703125 38.296875 
Q 34.90625 40.796875 37.40625 44.140625 
Q 39.90625 47.5 39.90625 52.90625 
z
" id="Ubuntu-56"/>
      </defs>
      <g transform="translate(773.249205 387.7075)scale(0.08 -0.08)">
       <use xlink:href="#Ubuntu-56"/>
      </g>
     </g>
    </g>
    <g id="xtick_5">
     <g id="line2d_5"/>
     <g id="text_5">
      <!-- 10 -->
      <defs>
       <path d="M 9.296875 55 
Q 15 57.203125 20.390625 60.640625 
Q 25.796875 64.09375 30.296875 69.296875 
L 36.90625 69.296875 
L 36.90625 0 
L 27.59375 0 
L 27.59375 56.40625 
Q 26.40625 55.296875 24.65625 54.09375 
Q 22.90625 52.90625 20.84375 51.796875 
Q 18.796875 50.703125 16.546875 49.703125 
Q 14.296875 48.703125 12.203125 48 
z
" id="Ubuntu-49"/>
       <path d="M 5 34.703125 
Q 5 52.09375 11.140625 61.5 
Q 17.296875 70.90625 28.203125 70.90625 
Q 39.09375 70.90625 45.25 61.5 
Q 51.40625 52.09375 51.40625 34.703125 
Q 51.40625 17.296875 45.25 7.890625 
Q 39.09375 -1.5 28.203125 -1.5 
Q 17.296875 -1.5 11.140625 7.890625 
Q 5 17.296875 5 34.703125 
z
M 41.59375 34.703125 
Q 41.59375 40.40625 40.9375 45.5 
Q 40.296875 50.59375 38.75 54.390625 
Q 37.203125 58.203125 34.59375 60.453125 
Q 32 62.703125 28.203125 62.703125 
Q 24.40625 62.703125 21.796875 60.453125 
Q 19.203125 58.203125 17.640625 54.390625 
Q 16.09375 50.59375 15.4375 45.5 
Q 14.796875 40.40625 14.796875 34.703125 
Q 14.796875 29 15.4375 23.890625 
Q 16.09375 18.796875 17.640625 15 
Q 19.203125 11.203125 21.796875 8.953125 
Q 24.40625 6.703125 28.203125 6.703125 
Q 32 6.703125 34.59375 8.953125 
Q 37.203125 11.203125 38.75 15 
Q 40.296875 18.796875 40.9375 23.890625 
Q 41.59375 29 41.59375 34.703125 
z
" id="Ubuntu-48"/>
      </defs>
      <g transform="translate(953.218409 387.7075)scale(0.08 -0.08)">
       <use xlink:href="#Ubuntu-49"/>
       <use x="56.399994" xlink:href="#Ubuntu-48"/>
      </g>
     </g>
    </g>
    <g id="text_6">
     <!-- Number of calls $n$ -->
     <defs>
      <path d="M 54.5 0 
Q 47.796875 11.90625 40 23.5 
Q 32.203125 35.09375 23.40625 45.40625 
L 23.40625 0 
L 8 0 
L 8 69.296875 
L 20.703125 69.296875 
Q 24 66 28 61.203125 
Q 32 56.40625 36.140625 50.953125 
Q 40.296875 45.5 44.390625 39.640625 
Q 48.5 33.796875 52.09375 28.40625 
L 52.09375 69.296875 
L 67.59375 69.296875 
L 67.59375 0 
z
" id="Ubuntu-Bold-78"/>
      <path d="M 51.90625 1.796875 
Q 48.09375 0.703125 42.09375 -0.25 
Q 36.09375 -1.203125 29.5 -1.203125 
Q 22.796875 -1.203125 18.34375 0.59375 
Q 13.90625 2.40625 11.296875 5.65625 
Q 8.703125 8.90625 7.59375 13.40625 
Q 6.5 17.90625 6.5 23.296875 
L 6.5 52.59375 
L 21.40625 52.59375 
L 21.40625 25.09375 
Q 21.40625 17.90625 23.296875 14.703125 
Q 25.203125 11.5 30.40625 11.5 
Q 32 11.5 33.796875 11.640625 
Q 35.59375 11.796875 37 12 
L 37 52.59375 
L 51.90625 52.59375 
z
" id="Ubuntu-Bold-117"/>
      <path d="M 35.90625 27.90625 
Q 35.90625 35.09375 34.046875 38.09375 
Q 32.203125 41.09375 27.703125 41.09375 
Q 26.296875 41.09375 24.796875 40.9375 
Q 23.296875 40.796875 21.90625 40.59375 
L 21.90625 0 
L 7 0 
L 7 50.796875 
Q 8.90625 51.296875 11.453125 51.84375 
Q 14 52.40625 16.84375 52.84375 
Q 19.703125 53.296875 22.703125 53.546875 
Q 25.703125 53.796875 28.59375 53.796875 
Q 34.296875 53.796875 37.84375 52.34375 
Q 41.40625 50.90625 43.703125 48.90625 
Q 46.90625 51.203125 51.046875 52.5 
Q 55.203125 53.796875 58.703125 53.796875 
Q 65 53.796875 69.046875 52.046875 
Q 73.09375 50.296875 75.5 47.09375 
Q 77.90625 43.90625 78.796875 39.5 
Q 79.703125 35.09375 79.703125 29.703125 
L 79.703125 0 
L 64.796875 0 
L 64.796875 27.90625 
Q 64.796875 35.09375 62.9375 38.09375 
Q 61.09375 41.09375 56.59375 41.09375 
Q 55.40625 41.09375 53.25 40.5 
Q 51.09375 39.90625 49.703125 39 
Q 50.40625 36.703125 50.59375 34.140625 
Q 50.796875 31.59375 50.796875 28.703125 
L 50.796875 0 
L 35.90625 0 
z
" id="Ubuntu-Bold-109"/>
      <path d="M 40.703125 26.703125 
Q 40.703125 41.09375 30.09375 41.09375 
Q 27.796875 41.09375 25.546875 40.5 
Q 23.296875 39.90625 21.90625 39 
L 21.90625 11.90625 
Q 23 11.703125 24.703125 11.546875 
Q 26.40625 11.40625 28.40625 11.40625 
Q 34.5 11.40625 37.59375 15.59375 
Q 40.703125 19.796875 40.703125 26.703125 
z
M 55.90625 26.296875 
Q 55.90625 20 54.046875 14.890625 
Q 52.203125 9.796875 48.703125 6.1875 
Q 45.203125 2.59375 40.09375 0.640625 
Q 35 -1.296875 28.5 -1.296875 
Q 25.796875 -1.296875 22.84375 -1.046875 
Q 19.90625 -0.796875 17.046875 -0.390625 
Q 14.203125 0 11.59375 0.546875 
Q 9 1.09375 7 1.703125 
L 7 75.203125 
L 21.90625 77.59375 
L 21.90625 51.40625 
Q 24.40625 52.5 27.09375 53.09375 
Q 29.796875 53.703125 32.90625 53.703125 
Q 38.5 53.703125 42.796875 51.75 
Q 47.09375 49.796875 50 46.1875 
Q 52.90625 42.59375 54.40625 37.546875 
Q 55.90625 32.5 55.90625 26.296875 
z
" id="Ubuntu-Bold-98"/>
      <path d="M 4.5 25.90625 
Q 4.5 32.90625 6.640625 38.15625 
Q 8.796875 43.40625 12.296875 46.90625 
Q 15.796875 50.40625 20.34375 52.203125 
Q 24.90625 54 29.703125 54 
Q 40.90625 54 47.40625 47.140625 
Q 53.90625 40.296875 53.90625 27 
Q 53.90625 25.703125 53.796875 24.140625 
Q 53.703125 22.59375 53.59375 21.40625 
L 19.796875 21.40625 
Q 20.296875 16.796875 24.09375 14.09375 
Q 27.90625 11.40625 34.296875 11.40625 
Q 38.40625 11.40625 42.34375 12.15625 
Q 46.296875 12.90625 48.796875 14 
L 50.796875 1.90625 
Q 49.59375 1.296875 47.59375 0.6875 
Q 45.59375 0.09375 43.140625 -0.34375 
Q 40.703125 -0.796875 37.890625 -1.09375 
Q 35.09375 -1.40625 32.296875 -1.40625 
Q 25.203125 -1.40625 19.953125 0.6875 
Q 14.703125 2.796875 11.25 6.4375 
Q 7.796875 10.09375 6.140625 15.09375 
Q 4.5 20.09375 4.5 25.90625 
z
M 39.5 31.59375 
Q 39.40625 33.5 38.84375 35.296875 
Q 38.296875 37.09375 37.140625 38.5 
Q 36 39.90625 34.25 40.796875 
Q 32.5 41.703125 29.90625 41.703125 
Q 27.40625 41.703125 25.59375 40.84375 
Q 23.796875 40 22.59375 38.59375 
Q 21.40625 37.203125 20.75 35.34375 
Q 20.09375 33.5 19.796875 31.59375 
z
" id="Ubuntu-Bold-101"/>
      <path d="M 38.703125 39.40625 
Q 36.703125 39.90625 34 40.453125 
Q 31.296875 41 28.203125 41 
Q 26.796875 41 24.84375 40.75 
Q 22.90625 40.5 21.90625 40.203125 
L 21.90625 0 
L 7 0 
L 7 49.796875 
Q 11 51.203125 16.453125 52.453125 
Q 21.90625 53.703125 28.59375 53.703125 
Q 29.796875 53.703125 31.5 53.546875 
Q 33.203125 53.40625 34.890625 53.15625 
Q 36.59375 52.90625 38.296875 52.546875 
Q 40 52.203125 41.203125 51.703125 
z
" id="Ubuntu-Bold-114"/>
      <path id="Ubuntu-Bold-32"/>
      <path d="M 56.203125 26.40625 
Q 56.203125 20.203125 54.390625 15.046875 
Q 52.59375 9.90625 49.1875 6.25 
Q 45.796875 2.59375 41.046875 0.59375 
Q 36.296875 -1.40625 30.40625 -1.40625 
Q 24.59375 -1.40625 19.84375 0.59375 
Q 15.09375 2.59375 11.6875 6.25 
Q 8.296875 9.90625 6.390625 15.046875 
Q 4.5 20.203125 4.5 26.40625 
Q 4.5 32.59375 6.453125 37.6875 
Q 8.40625 42.796875 11.84375 46.390625 
Q 15.296875 50 20.046875 52 
Q 24.796875 54 30.40625 54 
Q 36.09375 54 40.84375 52 
Q 45.59375 50 49 46.390625 
Q 52.40625 42.796875 54.296875 37.6875 
Q 56.203125 32.59375 56.203125 26.40625 
z
M 41 26.40625 
Q 41 33.296875 38.25 37.25 
Q 35.5 41.203125 30.40625 41.203125 
Q 25.296875 41.203125 22.5 37.25 
Q 19.703125 33.296875 19.703125 26.40625 
Q 19.703125 19.5 22.5 15.453125 
Q 25.296875 11.40625 30.40625 11.40625 
Q 35.5 11.40625 38.25 15.453125 
Q 41 19.5 41 26.40625 
z
" id="Ubuntu-Bold-111"/>
      <path d="M 29.796875 77.59375 
Q 34 77.59375 37.5 76.75 
Q 41 75.90625 42.90625 75.09375 
L 40 63.203125 
Q 38 64.09375 35.640625 64.546875 
Q 33.296875 65 31.296875 65 
Q 28.59375 65 26.75 64.25 
Q 24.90625 63.5 23.84375 62.203125 
Q 22.796875 60.90625 22.34375 59.09375 
Q 21.90625 57.296875 21.90625 55.203125 
L 21.90625 52.59375 
L 40.296875 52.59375 
L 40.296875 40.203125 
L 21.90625 40.203125 
L 21.90625 0 
L 7 0 
L 7 55.40625 
Q 7 65.59375 12.75 71.59375 
Q 18.5 77.59375 29.796875 77.59375 
z
" id="Ubuntu-Bold-102"/>
      <path d="M 4.5 26.296875 
Q 4.5 32 6.34375 37.046875 
Q 8.203125 42.09375 11.703125 45.84375 
Q 15.203125 49.59375 20.203125 51.796875 
Q 25.203125 54 31.59375 54 
Q 35.796875 54 39.296875 53.25 
Q 42.796875 52.5 46.09375 51.09375 
L 43 39.203125 
Q 40.90625 40 38.40625 40.59375 
Q 35.90625 41.203125 32.796875 41.203125 
Q 26.203125 41.203125 22.953125 37.09375 
Q 19.703125 33 19.703125 26.296875 
Q 19.703125 19.203125 22.75 15.296875 
Q 25.796875 11.40625 33.40625 11.40625 
Q 36.09375 11.40625 39.1875 11.90625 
Q 42.296875 12.40625 44.90625 13.5 
L 47 1.296875 
Q 44.40625 0.203125 40.5 -0.59375 
Q 36.59375 -1.40625 31.90625 -1.40625 
Q 24.703125 -1.40625 19.5 0.75 
Q 14.296875 2.90625 10.9375 6.59375 
Q 7.59375 10.296875 6.046875 15.34375 
Q 4.5 20.40625 4.5 26.296875 
z
" id="Ubuntu-Bold-99"/>
      <path d="M 27.09375 10.40625 
Q 29.296875 10.40625 31.296875 10.5 
Q 33.296875 10.59375 34.5 10.796875 
L 34.5 22.09375 
Q 33.59375 22.296875 31.796875 22.5 
Q 30 22.703125 28.5 22.703125 
Q 26.40625 22.703125 24.546875 22.453125 
Q 22.703125 22.203125 21.296875 21.5 
Q 19.90625 20.796875 19.09375 19.59375 
Q 18.296875 18.40625 18.296875 16.59375 
Q 18.296875 13.09375 20.640625 11.75 
Q 23 10.40625 27.09375 10.40625 
z
M 25.90625 54 
Q 32.5 54 36.890625 52.5 
Q 41.296875 51 43.9375 48.203125 
Q 46.59375 45.40625 47.6875 41.40625 
Q 48.796875 37.40625 48.796875 32.5 
L 48.796875 1.5 
Q 45.59375 0.796875 39.890625 -0.140625 
Q 34.203125 -1.09375 26.09375 -1.09375 
Q 21 -1.09375 16.84375 -0.1875 
Q 12.703125 0.703125 9.703125 2.75 
Q 6.703125 4.796875 5.09375 8.09375 
Q 3.5 11.40625 3.5 16.203125 
Q 3.5 20.796875 5.34375 24 
Q 7.203125 27.203125 10.296875 29.09375 
Q 13.40625 31 17.40625 31.84375 
Q 21.40625 32.703125 25.703125 32.703125 
Q 28.59375 32.703125 30.84375 32.453125 
Q 33.09375 32.203125 34.5 31.796875 
L 34.5 33.203125 
Q 34.5 37 32.203125 39.296875 
Q 29.90625 41.59375 24.203125 41.59375 
Q 20.40625 41.59375 16.703125 41.046875 
Q 13 40.5 10.296875 39.5 
L 8.40625 51.5 
Q 9.703125 51.90625 11.640625 52.34375 
Q 13.59375 52.796875 15.890625 53.140625 
Q 18.203125 53.5 20.75 53.75 
Q 23.296875 54 25.90625 54 
z
" id="Ubuntu-Bold-97"/>
      <path d="M 28 -1 
Q 21.5 -0.90625 17.453125 0.390625 
Q 13.40625 1.703125 11.046875 4.046875 
Q 8.703125 6.40625 7.84375 9.75 
Q 7 13.09375 7 17.296875 
L 7 75.203125 
L 21.90625 77.59375 
L 21.90625 20.296875 
Q 21.90625 18.296875 22.203125 16.6875 
Q 22.5 15.09375 23.34375 14 
Q 24.203125 12.90625 25.796875 12.203125 
Q 27.40625 11.5 30.09375 11.296875 
z
" id="Ubuntu-Bold-108"/>
      <path d="M 22.09375 10.703125 
Q 26.203125 10.703125 27.890625 11.5 
Q 29.59375 12.296875 29.59375 14.59375 
Q 29.59375 16.40625 27.390625 17.75 
Q 25.203125 19.09375 20.703125 20.796875 
Q 17.203125 22.09375 14.34375 23.5 
Q 11.5 24.90625 9.5 26.84375 
Q 7.5 28.796875 6.390625 31.5 
Q 5.296875 34.203125 5.296875 38 
Q 5.296875 45.40625 10.796875 49.703125 
Q 16.296875 54 25.90625 54 
Q 30.703125 54 35.09375 53.140625 
Q 39.5 52.296875 42.09375 51.296875 
L 39.5 39.703125 
Q 36.90625 40.59375 33.84375 41.296875 
Q 30.796875 42 27 42 
Q 20 42 20 38.09375 
Q 20 37.203125 20.296875 36.5 
Q 20.59375 35.796875 21.5 35.140625 
Q 22.40625 34.5 23.953125 33.75 
Q 25.5 33 27.90625 32.09375 
Q 32.796875 30.296875 36 28.546875 
Q 39.203125 26.796875 41.046875 24.75 
Q 42.90625 22.703125 43.65625 20.203125 
Q 44.40625 17.703125 44.40625 14.40625 
Q 44.40625 6.59375 38.546875 2.59375 
Q 32.703125 -1.40625 22 -1.40625 
Q 15 -1.40625 10.34375 -0.203125 
Q 5.703125 1 3.90625 1.796875 
L 6.40625 13.90625 
Q 10.203125 12.40625 14.203125 11.546875 
Q 18.203125 10.703125 22.09375 10.703125 
z
" id="Ubuntu-Bold-115"/>
      <path d="M 55.71875 33.015625 
L 49.3125 0 
L 40.28125 0 
L 46.6875 32.671875 
Q 47.125 34.96875 47.359375 36.71875 
Q 47.609375 38.484375 47.609375 39.5 
Q 47.609375 43.609375 45.015625 45.890625 
Q 42.4375 48.1875 37.796875 48.1875 
Q 30.5625 48.1875 25.34375 43.375 
Q 20.125 38.578125 18.5 30.328125 
L 12.5 0 
L 3.515625 0 
L 14.109375 54.6875 
L 23.09375 54.6875 
L 21.296875 46.09375 
Q 25.046875 50.828125 30.3125 53.40625 
Q 35.59375 56 41.40625 56 
Q 48.640625 56 52.609375 52.09375 
Q 56.59375 48.1875 56.59375 41.109375 
Q 56.59375 39.359375 56.375 37.359375 
Q 56.15625 35.359375 55.71875 33.015625 
z
" id="DejaVuSans-Oblique-110"/>
     </defs>
     <g transform="translate(551.43 400.946875)scale(0.1 -0.1)">
      <use transform="translate(0 0.40625)" xlink:href="#Ubuntu-Bold-78"/>
      <use transform="translate(75.599991 0.40625)" xlink:href="#Ubuntu-Bold-117"/>
      <use transform="translate(134.499985 0.40625)" xlink:href="#Ubuntu-Bold-109"/>
      <use transform="translate(220.699966 0.40625)" xlink:href="#Ubuntu-Bold-98"/>
      <use transform="translate(281.09996 0.40625)" xlink:href="#Ubuntu-Bold-101"/>
      <use transform="translate(339.499954 0.40625)" xlink:href="#Ubuntu-Bold-114"/>
      <use transform="translate(381.699951 0.40625)" xlink:href="#Ubuntu-Bold-32"/>
      <use transform="translate(405.699936 0.40625)" xlink:href="#Ubuntu-Bold-111"/>
      <use transform="translate(466.399933 0.40625)" xlink:href="#Ubuntu-Bold-102"/>
      <use transform="translate(508.59993 0.40625)" xlink:href="#Ubuntu-Bold-32"/>
      <use transform="translate(532.599915 0.40625)" xlink:href="#Ubuntu-Bold-99"/>
      <use transform="translate(582.599899 0.40625)" xlink:href="#Ubuntu-Bold-97"/>
      <use transform="translate(637.899887 0.40625)" xlink:href="#Ubuntu-Bold-108"/>
      <use transform="translate(669.499878 0.40625)" xlink:href="#Ubuntu-Bold-108"/>
      <use transform="translate(701.099869 0.40625)" xlink:href="#Ubuntu-Bold-115"/>
      <use transform="translate(749.599854 0.40625)" xlink:href="#Ubuntu-Bold-32"/>
      <use transform="translate(773.599838 0.40625)" xlink:href="#DejaVuSans-Oblique-110"/>
     </g>
    </g>
   </g>
   <g id="matplotlib.axis_2">
    <g id="ytick_1">
     <g id="line2d_6"/>
     <g id="text_7">
      <!-- −1.0 -->
      <defs>
       <path d="M 5.296875 33.40625 
L 51.09375 33.40625 
L 51.09375 25.5 
L 5.296875 25.5 
z
" id="Ubuntu-8722"/>
       <path d="M 19 5.40625 
Q 19 2.703125 17.203125 0.703125 
Q 15.40625 -1.296875 12.296875 -1.296875 
Q 9.203125 -1.296875 7.390625 0.703125 
Q 5.59375 2.703125 5.59375 5.40625 
Q 5.59375 8.09375 7.390625 10.09375 
Q 9.203125 12.09375 12.296875 12.09375 
Q 15.40625 12.09375 17.203125 10.09375 
Q 19 8.09375 19 5.40625 
z
" id="Ubuntu-46"/>
      </defs>
      <g transform="translate(73.155 369.147954)scale(0.08 -0.08)">
       <use xlink:href="#Ubuntu-8722"/>
       <use x="56.399994" xlink:href="#Ubuntu-49"/>
       <use x="112.799988" xlink:href="#Ubuntu-46"/>
       <use x="137.399979" xlink:href="#Ubuntu-48"/>
      </g>
     </g>
    </g>
    <g id="ytick_2">
     <g id="line2d_7"/>
     <g id="text_8">
      <!-- −0.8 -->
      <g transform="translate(73.155 302.411719)scale(0.08 -0.08)">
       <use xlink:href="#Ubuntu-8722"/>
       <use x="56.399994" xlink:href="#Ubuntu-48"/>
       <use x="112.799988" xlink:href="#Ubuntu-46"/>
       <use x="137.399979" xlink:href="#Ubuntu-56"/>
      </g>
     </g>
    </g>
    <g id="ytick_3">
     <g id="line2d_8"/>
     <g id="text_9">
      <!-- −0.6 -->
      <g transform="translate(73.155 235.675484)scale(0.08 -0.08)">
       <use xlink:href="#Ubuntu-8722"/>
       <use x="56.399994" xlink:href="#Ubuntu-48"/>
       <use x="112.799988" xlink:href="#Ubuntu-46"/>
       <use x="137.399979" xlink:href="#Ubuntu-54"/>
      </g>
     </g>
    </g>
    <g id="ytick_4">
     <g id="line2d_9"/>
     <g id="text_10">
      <!-- −0.4 -->
      <g transform="translate(73.155 168.939249)scale(0.08 -0.08)">
       <use xlink:href="#Ubuntu-8722"/>
       <use x="56.399994" xlink:href="#Ubuntu-48"/>
       <use x="112.799988" xlink:href="#Ubuntu-46"/>
       <use x="137.399979" xlink:href="#Ubuntu-52"/>
      </g>
     </g>
    </g>
    <g id="ytick_5">
     <g id="line2d_10"/>
     <g id="text_11">
      <!-- −0.2 -->
      <g transform="translate(73.155 102.203015)scale(0.08 -0.08)">
       <use xlink:href="#Ubuntu-8722"/>
       <use x="56.399994" xlink:href="#Ubuntu-48"/>
       <use x="112.799988" xlink:href="#Ubuntu-46"/>
       <use x="137.399979" xlink:href="#Ubuntu-50"/>
      </g>
     </g>
    </g>
    <g id="text_12">
     <!-- $\min f(x)$ after $n$ calls -->
     <defs>
      <path d="M 52 44.1875 
Q 55.375 50.25 60.0625 53.125 
Q 64.75 56 71.09375 56 
Q 79.640625 56 84.28125 50.015625 
Q 88.921875 44.046875 88.921875 33.015625 
L 88.921875 0 
L 79.890625 0 
L 79.890625 32.71875 
Q 79.890625 40.578125 77.09375 44.375 
Q 74.3125 48.1875 68.609375 48.1875 
Q 61.625 48.1875 57.5625 43.546875 
Q 53.515625 38.921875 53.515625 30.90625 
L 53.515625 0 
L 44.484375 0 
L 44.484375 32.71875 
Q 44.484375 40.625 41.703125 44.40625 
Q 38.921875 48.1875 33.109375 48.1875 
Q 26.21875 48.1875 22.15625 43.53125 
Q 18.109375 38.875 18.109375 30.90625 
L 18.109375 0 
L 9.078125 0 
L 9.078125 54.6875 
L 18.109375 54.6875 
L 18.109375 46.1875 
Q 21.1875 51.21875 25.484375 53.609375 
Q 29.78125 56 35.6875 56 
Q 41.65625 56 45.828125 52.96875 
Q 50 49.953125 52 44.1875 
z
" id="DejaVuSans-109"/>
      <path d="M 9.421875 54.6875 
L 18.40625 54.6875 
L 18.40625 0 
L 9.421875 0 
z
M 9.421875 75.984375 
L 18.40625 75.984375 
L 18.40625 64.59375 
L 9.421875 64.59375 
z
" id="DejaVuSans-105"/>
      <path d="M 54.890625 33.015625 
L 54.890625 0 
L 45.90625 0 
L 45.90625 32.71875 
Q 45.90625 40.484375 42.875 44.328125 
Q 39.84375 48.1875 33.796875 48.1875 
Q 26.515625 48.1875 22.3125 43.546875 
Q 18.109375 38.921875 18.109375 30.90625 
L 18.109375 0 
L 9.078125 0 
L 9.078125 54.6875 
L 18.109375 54.6875 
L 18.109375 46.1875 
Q 21.34375 51.125 25.703125 53.5625 
Q 30.078125 56 35.796875 56 
Q 45.21875 56 50.046875 50.171875 
Q 54.890625 44.34375 54.890625 33.015625 
z
" id="DejaVuSans-110"/>
      <path d="M 47.796875 75.984375 
L 46.390625 68.5 
L 37.796875 68.5 
Q 32.90625 68.5 30.6875 66.578125 
Q 28.46875 64.65625 27.390625 59.515625 
L 26.421875 54.6875 
L 41.21875 54.6875 
L 39.890625 47.703125 
L 25.09375 47.703125 
L 15.828125 0 
L 6.78125 0 
L 16.109375 47.703125 
L 7.515625 47.703125 
L 8.796875 54.6875 
L 17.390625 54.6875 
L 18.109375 58.5 
Q 19.96875 68.171875 24.625 72.078125 
Q 29.296875 75.984375 39.3125 75.984375 
z
" id="DejaVuSans-Oblique-102"/>
      <path d="M 31 75.875 
Q 24.46875 64.65625 21.28125 53.65625 
Q 18.109375 42.671875 18.109375 31.390625 
Q 18.109375 20.125 21.3125 9.0625 
Q 24.515625 -2 31 -13.1875 
L 23.1875 -13.1875 
Q 15.875 -1.703125 12.234375 9.375 
Q 8.59375 20.453125 8.59375 31.390625 
Q 8.59375 42.28125 12.203125 53.3125 
Q 15.828125 64.359375 23.1875 75.875 
z
" id="DejaVuSans-40"/>
      <path d="M 60.015625 54.6875 
L 34.90625 27.875 
L 50.296875 0 
L 39.984375 0 
L 28.421875 21.6875 
L 8.296875 0 
L -2.59375 0 
L 24.3125 28.8125 
L 10.015625 54.6875 
L 20.3125 54.6875 
L 30.8125 34.90625 
L 49.125 54.6875 
z
" id="DejaVuSans-Oblique-120"/>
      <path d="M 8.015625 75.875 
L 15.828125 75.875 
Q 23.140625 64.359375 26.78125 53.3125 
Q 30.421875 42.28125 30.421875 31.390625 
Q 30.421875 20.453125 26.78125 9.375 
Q 23.140625 -1.703125 15.828125 -13.1875 
L 8.015625 -13.1875 
Q 14.5 -2 17.703125 9.0625 
Q 20.90625 20.125 20.90625 31.390625 
Q 20.90625 42.671875 17.703125 53.65625 
Q 14.5 64.65625 8.015625 75.875 
z
" id="DejaVuSans-41"/>
      <path d="M 6.5 65.703125 
L 21.40625 68.09375 
L 21.40625 52.59375 
L 39.296875 52.59375 
L 39.296875 40.203125 
L 21.40625 40.203125 
L 21.40625 21.703125 
Q 21.40625 17 23.046875 14.203125 
Q 24.703125 11.40625 29.703125 11.40625 
Q 32.09375 11.40625 34.640625 11.84375 
Q 37.203125 12.296875 39.296875 13.09375 
L 41.40625 1.5 
Q 38.703125 0.40625 35.390625 -0.390625 
Q 32.09375 -1.203125 27.296875 -1.203125 
Q 21.203125 -1.203125 17.203125 0.4375 
Q 13.203125 2.09375 10.796875 5.046875 
Q 8.40625 8 7.453125 12.203125 
Q 6.5 16.40625 6.5 21.5 
z
" id="Ubuntu-Bold-116"/>
     </defs>
     <g transform="translate(67.305 262.72)rotate(-90)scale(0.1 -0.1)">
      <use transform="translate(0 0.40625)" xlink:href="#DejaVuSans-109"/>
      <use transform="translate(97.412109 0.40625)" xlink:href="#DejaVuSans-105"/>
      <use transform="translate(125.195312 0.40625)" xlink:href="#DejaVuSans-110"/>
      <use transform="translate(188.574219 0.40625)" xlink:href="#DejaVuSans-Oblique-102"/>
      <use transform="translate(223.779297 0.40625)" xlink:href="#DejaVuSans-40"/>
      <use transform="translate(262.792969 0.40625)" xlink:href="#DejaVuSans-Oblique-120"/>
      <use transform="translate(321.972656 0.40625)" xlink:href="#DejaVuSans-41"/>
      <use transform="translate(360.986328 0.40625)" xlink:href="#Ubuntu-Bold-32"/>
      <use transform="translate(384.986313 0.40625)" xlink:href="#Ubuntu-Bold-97"/>
      <use transform="translate(440.286301 0.40625)" xlink:href="#Ubuntu-Bold-102"/>
      <use transform="translate(482.486298 0.40625)" xlink:href="#Ubuntu-Bold-116"/>
      <use transform="translate(526.886292 0.40625)" xlink:href="#Ubuntu-Bold-101"/>
      <use transform="translate(585.286285 0.40625)" xlink:href="#Ubuntu-Bold-114"/>
      <use transform="translate(627.486282 0.40625)" xlink:href="#Ubuntu-Bold-32"/>
      <use transform="translate(651.486267 0.40625)" xlink:href="#DejaVuSans-Oblique-110"/>
      <use transform="translate(714.865173 0.40625)" xlink:href="#Ubuntu-Bold-32"/>
      <use transform="translate(738.865158 0.40625)" xlink:href="#Ubuntu-Bold-99"/>
      <use transform="translate(788.865143 0.40625)" xlink:href="#Ubuntu-Bold-97"/>
      <use transform="translate(844.165131 0.40625)" xlink:href="#Ubuntu-Bold-108"/>
      <use transform="translate(875.765121 0.40625)" xlink:href="#Ubuntu-Bold-108"/>
      <use transform="translate(907.365112 0.40625)" xlink:href="#Ubuntu-Bold-115"/>
     </g>
    </g>
   </g>
   <g id="line2d_11">
    <path clip-path="url(#p8c97ad7083)" d="M 137.716364 66.665455 
L 228.829091 66.665455 
L 319.941818 362.573919 
L 411.054545 362.573919 
L 502.167273 362.573919 
L 593.28 362.573919 
L 684.392727 362.573919 
L 775.505455 362.573919 
L 866.618182 362.573919 
L 957.730909 362.573919 
L 1048.843636 363.174545 
" style="fill:none;stroke:#3b528b;stroke-width:2;"/>
    <defs>
     <path d="M 0 3 
C 0.795609 3 1.55874 2.683901 2.12132 2.12132 
C 2.683901 1.55874 3 0.795609 3 0 
C 3 -0.795609 2.683901 -1.55874 2.12132 -2.12132 
C 1.55874 -2.683901 0.795609 -3 0 -3 
C -0.795609 -3 -1.55874 -2.683901 -2.12132 -2.12132 
C -2.683901 -1.55874 -3 -0.795609 -3 0 
C -3 0.795609 -2.683901 1.55874 -2.12132 2.12132 
C -1.55874 2.683901 -0.795609 3 0 3 
z
" id="m47e4165c0c" style="stroke:#3b528b;"/>
    </defs>
    <g clip-path="url(#p8c97ad7083)">
     <use style="fill:#3b528b;stroke:#3b528b;" x="137.716364" xlink:href="#m47e4165c0c" y="66.665455"/>
     <use style="fill:#3b528b;stroke:#3b528b;" x="228.829091" xlink:href="#m47e4165c0c" y="66.665455"/>
     <use style="fill:#3b528b;stroke:#3b528b;" x="319.941818" xlink:href="#m47e4165c0c" y="362.573919"/>
     <use style="fill:#3b528b;stroke:#3b528b;" x="411.054545" xlink:href="#m47e4165c0c" y="362.573919"/>
     <use style="fill:#3b528b;stroke:#3b528b;" x="502.167273" xlink:href="#m47e4165c0c" y="362.573919"/>
     <use style="fill:#3b528b;stroke:#3b528b;" x="593.28" xlink:href="#m47e4165c0c" y="362.573919"/>
     <use style="fill:#3b528b;stroke:#3b528b;" x="684.392727" xlink:href="#m47e4165c0c" y="362.573919"/>
     <use style="fill:#3b528b;stroke:#3b528b;" x="775.505455" xlink:href="#m47e4165c0c" y="362.573919"/>
     <use style="fill:#3b528b;stroke:#3b528b;" x="866.618182" xlink:href="#m47e4165c0c" y="362.573919"/>
     <use style="fill:#3b528b;stroke:#3b528b;" x="957.730909" xlink:href="#m47e4165c0c" y="362.573919"/>
     <use style="fill:#3b528b;stroke:#3b528b;" x="1048.843636" xlink:href="#m47e4165c0c" y="363.174545"/>
    </g>
   </g>
   <g id="patch_3">
    <path d="M 92.16 378 
L 92.16 51.84 
" style="fill:none;stroke:#f0f0f0;stroke-linecap:square;stroke-linejoin:miter;stroke-width:3;"/>
   </g>
   <g id="patch_4">
    <path d="M 1094.4 378 
L 1094.4 51.84 
" style="fill:none;stroke:#f0f0f0;stroke-linecap:square;stroke-linejoin:miter;stroke-width:3;"/>
   </g>
   <g id="patch_5">
    <path d="M 92.16 378 
L 1094.4 378 
" style="fill:none;stroke:#f0f0f0;stroke-linecap:square;stroke-linejoin:miter;stroke-width:3;"/>
   </g>
   <g id="patch_6">
    <path d="M 92.16 51.84 
L 1094.4 51.84 
" style="fill:none;stroke:#f0f0f0;stroke-linecap:square;stroke-linejoin:miter;stroke-width:3;"/>
   </g>
   <g id="text_13">
    <!-- Convergence plot -->
    <defs>
     <path d="M 38.40625 -1.5 
Q 31.09375 -1.5 25.09375 0.890625 
Q 19.09375 3.296875 14.796875 7.890625 
Q 10.5 12.5 8.140625 19.25 
Q 5.796875 26 5.796875 34.703125 
Q 5.796875 43.40625 8.4375 50.15625 
Q 11.09375 56.90625 15.59375 61.5 
Q 20.09375 66.09375 26.09375 68.5 
Q 32.09375 70.90625 38.90625 70.90625 
Q 43.203125 70.90625 46.640625 70.296875 
Q 50.09375 69.703125 52.640625 68.890625 
Q 55.203125 68.09375 56.796875 67.296875 
Q 58.40625 66.5 59 66.09375 
L 56.203125 58.09375 
Q 55.296875 58.703125 53.59375 59.390625 
Q 51.90625 60.09375 49.75 60.796875 
Q 47.59375 61.5 45.046875 61.953125 
Q 42.5 62.40625 39.90625 62.40625 
Q 34.40625 62.40625 30 60.5 
Q 25.59375 58.59375 22.5 55 
Q 19.40625 51.40625 17.75 46.25 
Q 16.09375 41.09375 16.09375 34.703125 
Q 16.09375 28.5 17.546875 23.390625 
Q 19 18.296875 21.890625 14.640625 
Q 24.796875 11 29.140625 9 
Q 33.5 7 39.296875 7 
Q 46 7 50.390625 8.390625 
Q 54.796875 9.796875 57 10.90625 
L 59.5 2.90625 
Q 58.796875 2.40625 57 1.65625 
Q 55.203125 0.90625 52.5 0.203125 
Q 49.796875 -0.5 46.1875 -1 
Q 42.59375 -1.5 38.40625 -1.5 
z
" id="Ubuntu-67"/>
     <path d="M 53.90625 26 
Q 53.90625 19.796875 52.09375 14.796875 
Q 50.296875 9.796875 47.046875 6.1875 
Q 43.796875 2.59375 39.296875 0.640625 
Q 34.796875 -1.296875 29.5 -1.296875 
Q 24.203125 -1.296875 19.703125 0.640625 
Q 15.203125 2.59375 11.953125 6.1875 
Q 8.703125 9.796875 6.890625 14.796875 
Q 5.09375 19.796875 5.09375 26 
Q 5.09375 32.09375 6.890625 37.140625 
Q 8.703125 42.203125 11.953125 45.796875 
Q 15.203125 49.40625 19.703125 51.34375 
Q 24.203125 53.296875 29.5 53.296875 
Q 34.796875 53.296875 39.296875 51.34375 
Q 43.796875 49.40625 47.046875 45.796875 
Q 50.296875 42.203125 52.09375 37.140625 
Q 53.90625 32.09375 53.90625 26 
z
M 44.203125 26 
Q 44.203125 34.796875 40.25 39.9375 
Q 36.296875 45.09375 29.5 45.09375 
Q 22.703125 45.09375 18.75 39.9375 
Q 14.796875 34.796875 14.796875 26 
Q 14.796875 17.203125 18.75 12.046875 
Q 22.703125 6.90625 29.5 6.90625 
Q 36.296875 6.90625 40.25 12.046875 
Q 44.203125 17.203125 44.203125 26 
z
" id="Ubuntu-111"/>
     <path d="M 8 50.5 
Q 11.203125 51.296875 16.5 52.1875 
Q 21.796875 53.09375 28.703125 53.09375 
Q 34.90625 53.09375 39 51.34375 
Q 43.09375 49.59375 45.546875 46.4375 
Q 48 43.296875 49 38.890625 
Q 50 34.5 50 29.203125 
L 50 0 
L 40.703125 0 
L 40.703125 27.203125 
Q 40.703125 32 40.046875 35.390625 
Q 39.40625 38.796875 37.90625 40.890625 
Q 36.40625 43 33.90625 43.953125 
Q 31.40625 44.90625 27.703125 44.90625 
Q 26.203125 44.90625 24.59375 44.796875 
Q 23 44.703125 21.546875 44.546875 
Q 20.09375 44.40625 18.9375 44.203125 
Q 17.796875 44 17.296875 43.90625 
L 17.296875 0 
L 8 0 
z
" id="Ubuntu-110"/>
     <path d="M 48.59375 52 
Q 44.703125 37.40625 39.453125 24 
Q 34.203125 10.59375 29.296875 0 
L 20.90625 0 
Q 16 10.59375 10.75 24 
Q 5.5 37.40625 1.59375 52 
L 11.59375 52 
Q 12.796875 47.09375 14.4375 41.546875 
Q 16.09375 36 17.9375 30.546875 
Q 19.796875 25.09375 21.6875 20 
Q 23.59375 14.90625 25.296875 10.90625 
Q 27 14.90625 28.890625 20 
Q 30.796875 25.09375 32.640625 30.546875 
Q 34.5 36 36.140625 41.546875 
Q 37.796875 47.09375 39 52 
z
" id="Ubuntu-118"/>
     <path d="M 5.09375 25.90625 
Q 5.09375 32.796875 7.09375 37.9375 
Q 9.09375 43.09375 12.390625 46.5 
Q 15.703125 49.90625 20 51.59375 
Q 24.296875 53.296875 28.796875 53.296875 
Q 39.296875 53.296875 44.890625 46.75 
Q 50.5 40.203125 50.5 26.796875 
Q 50.5 26.203125 50.5 25.25 
Q 50.5 24.296875 50.40625 23.5 
L 14.796875 23.5 
Q 15.40625 15.40625 19.5 11.203125 
Q 23.59375 7 32.296875 7 
Q 37.203125 7 40.546875 7.84375 
Q 43.90625 8.703125 45.59375 9.5 
L 46.90625 1.703125 
Q 45.203125 0.796875 40.953125 -0.203125 
Q 36.703125 -1.203125 31.296875 -1.203125 
Q 24.5 -1.203125 19.546875 0.84375 
Q 14.59375 2.90625 11.390625 6.5 
Q 8.203125 10.09375 6.640625 15.046875 
Q 5.09375 20 5.09375 25.90625 
z
M 40.796875 31 
Q 40.90625 37.296875 37.65625 41.34375 
Q 34.40625 45.40625 28.703125 45.40625 
Q 25.5 45.40625 23.046875 44.15625 
Q 20.59375 42.90625 18.890625 40.90625 
Q 17.203125 38.90625 16.25 36.296875 
Q 15.296875 33.703125 15 31 
z
" id="Ubuntu-101"/>
     <path d="M 27.203125 53.09375 
Q 28.40625 53.09375 29.953125 52.9375 
Q 31.5 52.796875 33 52.546875 
Q 34.5 52.296875 35.75 52.046875 
Q 37 51.796875 37.59375 51.59375 
L 36 43.5 
Q 34.90625 43.90625 32.34375 44.453125 
Q 29.796875 45 25.796875 45 
Q 23.203125 45 20.640625 44.453125 
Q 18.09375 43.90625 17.296875 43.703125 
L 17.296875 0 
L 8 0 
L 8 49.796875 
Q 11.296875 51 16.1875 52.046875 
Q 21.09375 53.09375 27.203125 53.09375 
z
" id="Ubuntu-114"/>
     <path d="M 40.59375 5.203125 
Q 39.40625 4.40625 35.953125 3.15625 
Q 32.5 1.90625 27.90625 1.90625 
Q 23.203125 1.90625 19.046875 3.40625 
Q 14.90625 4.90625 11.796875 8.046875 
Q 8.703125 11.203125 6.890625 15.890625 
Q 5.09375 20.59375 5.09375 27.09375 
Q 5.09375 32.796875 6.796875 37.546875 
Q 8.5 42.296875 11.75 45.75 
Q 15 49.203125 19.703125 51.140625 
Q 24.40625 53.09375 30.296875 53.09375 
Q 36.796875 53.09375 41.640625 52.140625 
Q 46.5 51.203125 49.796875 50.40625 
L 49.796875 4 
Q 49.796875 -8 43.59375 -13.390625 
Q 37.40625 -18.796875 24.796875 -18.796875 
Q 19.90625 -18.796875 15.546875 -18 
Q 11.203125 -17.203125 8 -16.09375 
L 9.703125 -8 
Q 12.5 -9.09375 16.546875 -9.9375 
Q 20.59375 -10.796875 25 -10.796875 
Q 33.296875 -10.796875 36.9375 -7.5 
Q 40.59375 -4.203125 40.59375 3 
z
M 40.5 43.796875 
Q 39.09375 44.203125 36.75 44.546875 
Q 34.40625 44.90625 30.40625 44.90625 
Q 22.90625 44.90625 18.84375 40 
Q 14.796875 35.09375 14.796875 27 
Q 14.796875 22.5 15.9375 19.296875 
Q 17.09375 16.09375 19.046875 14 
Q 21 11.90625 23.546875 10.90625 
Q 26.09375 9.90625 28.796875 9.90625 
Q 32.5 9.90625 35.59375 10.953125 
Q 38.703125 12 40.5 13.40625 
z
" id="Ubuntu-103"/>
     <path d="M 30.59375 -1.203125 
Q 24.296875 -1.203125 19.546875 0.796875 
Q 14.796875 2.796875 11.546875 6.390625 
Q 8.296875 10 6.6875 14.953125 
Q 5.09375 19.90625 5.09375 25.90625 
Q 5.09375 31.90625 6.84375 36.90625 
Q 8.59375 41.90625 11.796875 45.546875 
Q 15 49.203125 19.640625 51.25 
Q 24.296875 53.296875 30 53.296875 
Q 33.5 53.296875 37 52.6875 
Q 40.5 52.09375 43.703125 50.796875 
L 41.59375 42.90625 
Q 39.5 43.90625 36.75 44.5 
Q 34 45.09375 30.90625 45.09375 
Q 23.09375 45.09375 18.9375 40.1875 
Q 14.796875 35.296875 14.796875 25.90625 
Q 14.796875 21.703125 15.75 18.203125 
Q 16.703125 14.703125 18.75 12.203125 
Q 20.796875 9.703125 24 8.34375 
Q 27.203125 7 31.796875 7 
Q 35.5 7 38.5 7.703125 
Q 41.5 8.40625 43.203125 9.203125 
L 44.5 1.40625 
Q 43.703125 0.90625 42.203125 0.453125 
Q 40.703125 0 38.796875 -0.34375 
Q 36.90625 -0.703125 34.75 -0.953125 
Q 32.59375 -1.203125 30.59375 -1.203125 
z
" id="Ubuntu-99"/>
     <path id="Ubuntu-32"/>
     <path d="M 44.09375 25.90625 
Q 44.09375 35 39.59375 39.890625 
Q 35.09375 44.796875 27.59375 44.796875 
Q 23.40625 44.796875 21.046875 44.5 
Q 18.703125 44.203125 17.296875 43.796875 
L 17.296875 11 
Q 19 9.59375 22.203125 8.296875 
Q 25.40625 7 29.203125 7 
Q 33.203125 7 36.046875 8.453125 
Q 38.90625 9.90625 40.703125 12.453125 
Q 42.5 15 43.296875 18.453125 
Q 44.09375 21.90625 44.09375 25.90625 
z
M 53.796875 25.90625 
Q 53.796875 20 52.25 15 
Q 50.703125 10 47.703125 6.390625 
Q 44.703125 2.796875 40.34375 0.796875 
Q 36 -1.203125 30.40625 -1.203125 
Q 25.90625 -1.203125 22.453125 0 
Q 19 1.203125 17.296875 2.296875 
L 17.296875 -18.5 
L 8 -18.5 
L 8 50.40625 
Q 11.296875 51.203125 16.25 52.140625 
Q 21.203125 53.09375 27.703125 53.09375 
Q 33.703125 53.09375 38.5 51.1875 
Q 43.296875 49.296875 46.6875 45.796875 
Q 50.09375 42.296875 51.9375 37.25 
Q 53.796875 32.203125 53.796875 25.90625 
z
" id="Ubuntu-112"/>
     <path d="M 23.59375 -1 
Q 15 -0.796875 11.390625 2.703125 
Q 7.796875 6.203125 7.796875 13.59375 
L 7.796875 76 
L 17.09375 77.59375 
L 17.09375 15.09375 
Q 17.09375 12.796875 17.5 11.296875 
Q 17.90625 9.796875 18.796875 8.890625 
Q 19.703125 8 21.203125 7.546875 
Q 22.703125 7.09375 24.90625 6.796875 
z
" id="Ubuntu-108"/>
     <path d="M 16.703125 52 
L 36.40625 52 
L 36.40625 44.203125 
L 16.703125 44.203125 
L 16.703125 20.203125 
Q 16.703125 16.296875 17.296875 13.75 
Q 17.90625 11.203125 19.09375 9.75 
Q 20.296875 8.296875 22.09375 7.6875 
Q 23.90625 7.09375 26.296875 7.09375 
Q 30.5 7.09375 33.046875 8.046875 
Q 35.59375 9 36.59375 9.40625 
L 38.40625 1.703125 
Q 37 1 33.5 -0.046875 
Q 30 -1.09375 25.5 -1.09375 
Q 20.203125 -1.09375 16.75 0.25 
Q 13.296875 1.59375 11.1875 4.296875 
Q 9.09375 7 8.25 10.953125 
Q 7.40625 14.90625 7.40625 20.09375 
L 7.40625 66.5 
L 16.703125 68.09375 
z
" id="Ubuntu-116"/>
    </defs>
    <g transform="translate(535.314375 45.84)scale(0.144 -0.144)">
     <use xlink:href="#Ubuntu-67"/>
     <use x="61.98436" xlink:href="#Ubuntu-111"/>
     <use x="120.984344" xlink:href="#Ubuntu-110"/>
     <use x="178.368713" xlink:href="#Ubuntu-118"/>
     <use x="228.553085" xlink:href="#Ubuntu-101"/>
     <use x="284.453079" xlink:href="#Ubuntu-114"/>
     <use x="323.05307" xlink:href="#Ubuntu-103"/>
     <use x="380.853058" xlink:href="#Ubuntu-101"/>
     <use x="436.753052" xlink:href="#Ubuntu-110"/>
     <use x="494.153046" xlink:href="#Ubuntu-99"/>
     <use x="540.65303" xlink:href="#Ubuntu-101"/>
     <use x="596.553024" xlink:href="#Ubuntu-32"/>
     <use x="619.653015" xlink:href="#Ubuntu-112"/>
     <use x="678.553009" xlink:href="#Ubuntu-108"/>
     <use x="705.852997" xlink:href="#Ubuntu-111"/>
     <use x="764.852982" xlink:href="#Ubuntu-116"/>
    </g>
   </g>
  </g>
 </g>
 <defs>
  <clipPath id="p8c97ad7083">
   <rect height="326.16" width="1002.24" x="92.16" y="51.84"/>
  </clipPath>
 </defs>
</svg>
