<?xml version="1.0" encoding="utf-8" standalone="no"?>
<!DOCTYPE svg PUBLIC "-//W3C//DTD SVG 1.1//EN"
  "http://www.w3.org/Graphics/SVG/1.1/DTD/svg11.dtd">
<!-- Created with matplotlib (https://matplotlib.org/) -->
<svg height="277.548125pt" version="1.1" viewBox="0 0 508.481062 277.548125" width="508.481062pt" xmlns="http://www.w3.org/2000/svg" xmlns:xlink="http://www.w3.org/1999/xlink">
 <defs>
  <style type="text/css">
*{stroke-linecap:butt;stroke-linejoin:round;}
  </style>
 </defs>
 <g id="figure_1">
  <g id="patch_1">
   <path d="M 0 277.548125 
L 508.481062 277.548125 
L 508.481062 0 
L 0 0 
z
" style="fill:#ffffff;"/>
  </g>
  <g id="axes_1">
   <g id="patch_2">
    <path d="M 34.421875 239.95125 
L 369.221875 239.95125 
L 369.221875 22.51125 
L 34.421875 22.51125 
z
" style="fill:#ffffff;"/>
   </g>
   <g id="PolyCollection_1">
    <defs>
     <path d="M 49.640057 -114.030094 
L 49.640057 -155.552074 
L 50.148176 -155.284243 
L 50.656296 -155.011495 
L 51.164416 -154.733803 
L 51.672535 -154.45114 
L 52.180655 -154.163481 
L 52.688774 -153.870803 
L 53.196894 -153.573085 
L 53.705014 -153.270311 
L 54.213133 -152.962465 
L 54.721253 -152.649534 
L 55.229372 -152.331508 
L 55.737492 -152.00838 
L 56.245612 -151.680146 
L 56.753731 -151.346805 
L 57.261851 -151.008359 
L 57.76997 -150.664814 
L 58.27809 -150.31618 
L 58.786209 -149.962468 
L 59.294329 -149.603695 
L 59.802449 -149.239883 
L 60.310568 -148.871055 
L 60.818688 -148.49724 
L 61.326807 -148.118473 
L 61.834927 -147.73479 
L 62.343047 -147.346235 
L 62.851166 -146.952854 
L 63.359286 -146.5547 
L 63.867405 -146.151831 
L 64.375525 -145.74431 
L 64.883645 -145.332206 
L 65.391764 -144.915593 
L 65.899884 -144.494552 
L 66.408003 -144.069169 
L 66.916123 -143.639537 
L 67.424243 -143.205756 
L 67.932362 -142.767932 
L 68.440482 -142.326178 
L 68.948601 -141.880615 
L 69.456721 -141.43137 
L 69.964841 -140.978578 
L 70.47296 -140.522384 
L 70.98108 -140.062939 
L 71.489199 -139.600401 
L 71.997319 -139.13494 
L 72.505439 -138.666733 
L 73.013558 -138.195966 
L 73.521678 -137.722835 
L 74.029797 -137.247547 
L 74.537917 -136.77032 
L 75.046036 -136.371457 
L 75.554156 -136.849982 
L 76.062276 -137.326902 
L 76.570395 -137.801846 
L 77.078515 -138.274597 
L 77.586634 -138.744951 
L 78.094754 -139.212713 
L 78.602874 -139.677699 
L 79.110993 -140.139732 
L 79.619113 -140.598647 
L 80.127232 -141.054284 
L 80.635352 -141.506494 
L 81.143472 -141.955134 
L 81.651591 -142.400072 
L 82.159711 -142.841179 
L 82.66783 -143.278337 
L 83.17595 -143.711433 
L 83.68407 -144.140364 
L 84.192189 -144.565029 
L 84.700309 -144.985338 
L 85.208428 -145.401205 
L 85.716548 -145.812551 
L 86.224668 -146.219301 
L 86.732787 -146.621388 
L 87.240907 -147.01875 
L 87.749026 -147.41133 
L 88.257146 -147.799077 
L 88.765265 -148.181943 
L 89.273385 -148.559888 
L 89.781505 -148.932873 
L 90.289624 -149.300867 
L 90.797744 -149.663841 
L 91.305863 -150.021772 
L 91.813983 -150.374638 
L 92.322103 -150.722426 
L 92.830222 -151.065121 
L 93.338342 -151.402717 
L 93.846461 -151.735206 
L 94.354581 -152.062589 
L 94.862701 -152.384867 
L 95.37082 -152.702043 
L 95.87894 -153.014126 
L 96.387059 -153.321126 
L 96.895179 -153.623056 
L 97.403299 -153.919932 
L 97.911418 -154.211772 
L 98.419538 -154.498597 
L 98.927657 -154.78043 
L 99.435777 -155.057296 
L 99.943897 -155.329222 
L 100.452016 -155.596237 
L 100.960136 -155.858372 
L 101.468255 -156.115661 
L 101.976375 -156.368137 
L 102.484495 -156.615836 
L 102.992614 -156.858797 
L 103.500734 -157.097058 
L 104.008853 -157.33066 
L 104.516973 -157.559644 
L 105.025092 -157.784054 
L 105.533212 -158.003932 
L 106.041332 -158.219325 
L 106.549451 -158.430277 
L 107.057571 -158.636837 
L 107.56569 -158.839051 
L 108.07381 -159.036968 
L 108.58193 -159.230638 
L 109.090049 -159.42011 
L 109.598169 -159.605434 
L 110.106288 -159.786663 
L 110.614408 -159.963846 
L 111.122528 -160.137037 
L 111.630647 -160.306287 
L 112.138767 -160.471649 
L 112.646886 -160.633176 
L 113.155006 -160.790921 
L 113.663126 -160.944938 
L 114.171245 -161.095279 
L 114.679365 -161.242 
L 115.187484 -161.385153 
L 115.695604 -161.524792 
L 116.203724 -161.660972 
L 116.711843 -161.793745 
L 117.219963 -161.923166 
L 117.728082 -162.049288 
L 118.236202 -162.172165 
L 118.744322 -162.29185 
L 119.252441 -162.408396 
L 119.760561 -162.521857 
L 120.26868 -162.632284 
L 120.7768 -162.739731 
L 121.284919 -162.84425 
L 121.793039 -162.945892 
L 122.301159 -163.04471 
L 122.809278 -163.140755 
L 123.317398 -163.234077 
L 123.825517 -163.324727 
L 124.333637 -163.412755 
L 124.841757 -163.498211 
L 125.349876 -163.581145 
L 125.857996 -163.661605 
L 126.366115 -163.73964 
L 126.874235 -163.815298 
L 127.382355 -163.888626 
L 127.890474 -163.959672 
L 128.398594 -164.028482 
L 128.906713 -164.095102 
L 129.414833 -164.159577 
L 129.922953 -164.221953 
L 130.431072 -164.282275 
L 130.939192 -164.340585 
L 131.447311 -164.396929 
L 131.955431 -164.451348 
L 132.463551 -164.503885 
L 132.97167 -164.554582 
L 133.47979 -164.60348 
L 133.987909 -164.65062 
L 134.496029 -164.696042 
L 135.004148 -164.739786 
L 135.512268 -164.78189 
L 136.020388 -164.822394 
L 136.528507 -164.861334 
L 137.036627 -164.898748 
L 137.544746 -164.934674 
L 138.052866 -164.969147 
L 138.560986 -165.002203 
L 139.069105 -165.033877 
L 139.577225 -165.064203 
L 140.085344 -165.093215 
L 140.593464 -165.120948 
L 141.101584 -165.147432 
L 141.609703 -165.172702 
L 142.117823 -165.196788 
L 142.625942 -165.219721 
L 143.134062 -165.241533 
L 143.642182 -165.262253 
L 144.150301 -165.281911 
L 144.658421 -165.300535 
L 145.16654 -165.318154 
L 145.67466 -165.334797 
L 146.18278 -165.350489 
L 146.690899 -165.365259 
L 147.199019 -165.379133 
L 147.707138 -165.392136 
L 148.215258 -165.404293 
L 148.723378 -165.41563 
L 149.231497 -165.42617 
L 149.739617 -165.435939 
L 150.247736 -165.444958 
L 150.755856 -165.45325 
L 151.263975 -165.460839 
L 151.772095 -165.467746 
L 152.280215 -165.473992 
L 152.788334 -165.479599 
L 153.296454 -165.484586 
L 153.804573 -165.488975 
L 154.312693 -165.492783 
L 154.820813 -165.496032 
L 155.328932 -165.498739 
L 155.837052 -165.500923 
L 156.345171 -165.502602 
L 156.853291 -165.503793 
L 157.361411 -165.504513 
L 157.86953 -165.504779 
L 158.37765 -165.504608 
L 158.885769 -165.504015 
L 159.393889 -165.503015 
L 159.902009 -165.501624 
L 160.410128 -165.499857 
L 160.918248 -165.497729 
L 161.426367 -165.495252 
L 161.934487 -165.492441 
L 162.442607 -165.489309 
L 162.950726 -165.48587 
L 163.458846 -165.482135 
L 163.966965 -165.478117 
L 164.475085 -165.473829 
L 164.983204 -165.469282 
L 165.491324 -165.464487 
L 165.999444 -165.459456 
L 166.507563 -165.454199 
L 167.015683 -165.448727 
L 167.523802 -165.44305 
L 168.031922 -165.437177 
L 168.540042 -165.43112 
L 169.048161 -165.424886 
L 169.556281 -165.418485 
L 170.0644 -165.411926 
L 170.57252 -165.405218 
L 171.08064 -165.398369 
L 171.588759 -165.391387 
L 172.096879 -165.384279 
L 172.604998 -165.377054 
L 173.113118 -165.369719 
L 173.621238 -165.362281 
L 174.129357 -165.354747 
L 174.637477 -165.347124 
L 175.145596 -165.339418 
L 175.653716 -165.331636 
L 176.161836 -165.323783 
L 176.669955 -165.315866 
L 177.178075 -165.30789 
L 177.686194 -165.299862 
L 178.194314 -165.291785 
L 178.702434 -165.283666 
L 179.210553 -165.275509 
L 179.718673 -165.26732 
L 180.226792 -165.259103 
L 180.734912 -165.250862 
L 181.243031 -165.242601 
L 181.751151 -165.234326 
L 182.259271 -165.22604 
L 182.76739 -165.217747 
L 183.27551 -165.20945 
L 183.783629 -165.201154 
L 184.291749 -165.192861 
L 184.799869 -165.184575 
L 185.307988 -165.1763 
L 185.816108 -165.168038 
L 186.324227 -165.159792 
L 186.832347 -165.151566 
L 187.340467 -165.143361 
L 187.848586 -165.135181 
L 188.356706 -165.127027 
L 188.864825 -165.118904 
L 189.372945 -165.110811 
L 189.881065 -165.102753 
L 190.389184 -165.09473 
L 190.897304 -165.086746 
L 191.405423 -165.078801 
L 191.913543 -165.070898 
L 192.421663 -165.063038 
L 192.929782 -165.055223 
L 193.437902 -165.047455 
L 193.946021 -165.039735 
L 194.454141 -165.032064 
L 194.96226 -165.024444 
L 195.47038 -165.016876 
L 195.9785 -165.009361 
L 196.486619 -165.0019 
L 196.994739 -164.994495 
L 197.502858 -164.987145 
L 198.010978 -164.979853 
L 198.519098 -164.97262 
L 199.027217 -164.965444 
L 199.535337 -164.958329 
L 200.043456 -164.951274 
L 200.551576 -164.944279 
L 201.059696 -164.937346 
L 201.567815 -164.930475 
L 202.075935 -164.923667 
L 202.584054 -164.916922 
L 203.092174 -164.910239 
L 203.600294 -164.903621 
L 204.108413 -164.897066 
L 204.616533 -164.890576 
L 205.124652 -164.88415 
L 205.632772 -164.877789 
L 206.140892 -164.871492 
L 206.649011 -164.865261 
L 207.157131 -164.859094 
L 207.66525 -164.852993 
L 208.17337 -164.846957 
L 208.68149 -164.840986 
L 209.189609 -164.835079 
L 209.697729 -164.829238 
L 210.205848 -164.823462 
L 210.713968 -164.817751 
L 211.222087 -164.812104 
L 211.730207 -164.806522 
L 212.238327 -164.801004 
L 212.746446 -164.79555 
L 213.254566 -164.79016 
L 213.762685 -164.784834 
L 214.270805 -164.779571 
L 214.778925 -164.774372 
L 215.287044 -164.769235 
L 215.795164 -164.764161 
L 216.303283 -164.759149 
L 216.811403 -164.754198 
L 217.319523 -164.74931 
L 217.827642 -164.744482 
L 218.335762 -164.739716 
L 218.843881 -164.735009 
L 219.352001 -164.730363 
L 219.860121 -164.725776 
L 220.36824 -164.721249 
L 220.87636 -164.71678 
L 221.384479 -164.712369 
L 221.892599 -164.708017 
L 222.400719 -164.703722 
L 222.908838 -164.699483 
L 223.416958 -164.695301 
L 223.925077 -164.691176 
L 224.433197 -164.687105 
L 224.941316 -164.68309 
L 225.449436 -164.679129 
L 225.957556 -164.675223 
L 226.465675 -164.67137 
L 226.973795 -164.66757 
L 227.481914 -164.663822 
L 227.990034 -164.660127 
L 228.498154 -164.656483 
L 229.006273 -164.65289 
L 229.514393 -164.649348 
L 230.022512 -164.645856 
L 230.530632 -164.642413 
L 231.038752 -164.63902 
L 231.546871 -164.635674 
L 232.054991 -164.632377 
L 232.56311 -164.629127 
L 233.07123 -164.625924 
L 233.57935 -164.622768 
L 234.087469 -164.619657 
L 234.595589 -164.616592 
L 235.103708 -164.613571 
L 235.611828 -164.610595 
L 236.119948 -164.607663 
L 236.628067 -164.604774 
L 237.136187 -164.601928 
L 237.644306 -164.599124 
L 238.152426 -164.596362 
L 238.660546 -164.593641 
L 239.168665 -164.590961 
L 239.676785 -164.588322 
L 240.184904 -164.585722 
L 240.693024 -164.583161 
L 241.201143 -164.580639 
L 241.709263 -164.578156 
L 242.217383 -164.575711 
L 242.725502 -164.573302 
L 243.233622 -164.570931 
L 243.741741 -164.568596 
L 244.249861 -164.566297 
L 244.757981 -164.564034 
L 245.2661 -164.561806 
L 245.77422 -164.559612 
L 246.282339 -164.557452 
L 246.790459 -164.555326 
L 247.298579 -164.553233 
L 247.806698 -164.551173 
L 248.314818 -164.549145 
L 248.822937 -164.547149 
L 249.331057 -164.545184 
L 249.839177 -164.543251 
L 250.347296 -164.541348 
L 250.855416 -164.539475 
L 251.363535 -164.537632 
L 251.871655 -164.535818 
L 252.379775 -164.534033 
L 252.887894 -164.532276 
L 253.396014 -164.530548 
L 253.904133 -164.528848 
L 254.412253 -164.527174 
L 254.920372 -164.525528 
L 255.428492 -164.523908 
L 255.936612 -164.522314 
L 256.444731 -164.520746 
L 256.952851 -164.519204 
L 257.46097 -164.517686 
L 257.96909 -164.516193 
L 258.47721 -164.514725 
L 258.985329 -164.51328 
L 259.493449 -164.511859 
L 260.001568 -164.510461 
L 260.509688 -164.509086 
L 261.017808 -164.507734 
L 261.525927 -164.506404 
L 262.034047 -164.505096 
L 262.542166 -164.503809 
L 263.050286 -164.502544 
L 263.558406 -164.501299 
L 264.066525 -164.500075 
L 264.574645 -164.498872 
L 265.082764 -164.497688 
L 265.590884 -164.496524 
L 266.099004 -164.49538 
L 266.607123 -164.494254 
L 267.115243 -164.493147 
L 267.623362 -164.492059 
L 268.131482 -164.490989 
L 268.639602 -164.489937 
L 269.147721 -164.488903 
L 269.655841 -164.487885 
L 270.16396 -164.486886 
L 270.67208 -164.485902 
L 271.180199 -164.484936 
L 271.688319 -164.483986 
L 272.196439 -164.483052 
L 272.704558 -164.482133 
L 273.212678 -164.48123 
L 273.720797 -164.480343 
L 274.228917 -164.47947 
L 274.737037 -164.478613 
L 275.245156 -164.47777 
L 275.753276 -164.476941 
L 276.261395 -164.476127 
L 276.769515 -164.475326 
L 277.277635 -164.474539 
L 277.785754 -164.473766 
L 278.293874 -164.473005 
L 278.801993 -164.472258 
L 279.310113 -164.471524 
L 279.818233 -164.470802 
L 280.326352 -164.470093 
L 280.834472 -164.469396 
L 281.342591 -164.46871 
L 281.850711 -164.468037 
L 282.358831 -164.467375 
L 282.86695 -164.466725 
L 283.37507 -164.466086 
L 283.883189 -164.465458 
L 284.391309 -164.464841 
L 284.899428 -164.464235 
L 285.407548 -164.463639 
L 285.915668 -164.463053 
L 286.423787 -164.462478 
L 286.931907 -164.461913 
L 287.440026 -164.461357 
L 287.948146 -164.460811 
L 288.456266 -164.460275 
L 288.964385 -164.459748 
L 289.472505 -164.459231 
L 289.980624 -164.458722 
L 290.488744 -164.458222 
L 290.996864 -164.457731 
L 291.504983 -164.457249 
L 292.013103 -164.456775 
L 292.521222 -164.456309 
L 293.029342 -164.455852 
L 293.537462 -164.455403 
L 294.045581 -164.454961 
L 294.553701 -164.454527 
L 295.06182 -164.454101 
L 295.56994 -164.453683 
L 296.07806 -164.453272 
L 296.586179 -164.452868 
L 297.094299 -164.452471 
L 297.602418 -164.452081 
L 298.110538 -164.451699 
L 298.618658 -164.451323 
L 299.126777 -164.450953 
L 299.634897 -164.45059 
L 300.143016 -164.450234 
L 300.651136 -164.449884 
L 301.159255 -164.44954 
L 301.667375 -164.449203 
L 302.175495 -164.448871 
L 302.683614 -164.448545 
L 303.191734 -164.448225 
L 303.699853 -164.447911 
L 304.207973 -164.447602 
L 304.716093 -164.447299 
L 305.224212 -164.447001 
L 305.732332 -164.446709 
L 306.240451 -164.446422 
L 306.748571 -164.44614 
L 307.256691 -164.445863 
L 307.76481 -164.445591 
L 308.27293 -164.445324 
L 308.781049 -164.445061 
L 309.289169 -164.444804 
L 309.797289 -164.444551 
L 310.305408 -164.444302 
L 310.813528 -164.444058 
L 311.321647 -164.443819 
L 311.829767 -164.443583 
L 312.337887 -164.443352 
L 312.846006 -164.443126 
L 313.354126 -164.442903 
L 313.862245 -164.442684 
L 314.370365 -164.442469 
L 314.878485 -164.442258 
L 315.386604 -164.442051 
L 315.894724 -164.441848 
L 316.402843 -164.441648 
L 316.910963 -164.441452 
L 317.419082 -164.44126 
L 317.927202 -164.441071 
L 318.435322 -164.440885 
L 318.943441 -164.440703 
L 319.451561 -164.440524 
L 319.95968 -164.440348 
L 320.4678 -164.440176 
L 320.97592 -164.440006 
L 321.484039 -164.43984 
L 321.992159 -164.439677 
L 322.500278 -164.439517 
L 323.008398 -164.439359 
L 323.516518 -164.439205 
L 324.024637 -164.439053 
L 324.532757 -164.438904 
L 325.040876 -164.438758 
L 325.548996 -164.438615 
L 326.057116 -164.438474 
L 326.565235 -164.438336 
L 327.073355 -164.4382 
L 327.581474 -164.438067 
L 328.089594 -164.437936 
L 328.597714 -164.437807 
L 329.105833 -164.437681 
L 329.613953 -164.437558 
L 330.122072 -164.437436 
L 330.630192 -164.437317 
L 331.138311 -164.4372 
L 331.646431 -164.437085 
L 332.154551 -164.436972 
L 332.66267 -164.436861 
L 333.17079 -164.436752 
L 333.678909 -164.436646 
L 334.187029 -164.436541 
L 334.695149 -164.436438 
L 335.203268 -164.436337 
L 335.711388 -164.436238 
L 336.219507 -164.436141 
L 336.727627 -164.436046 
L 337.235747 -164.435952 
L 337.743866 -164.43586 
L 338.251986 -164.43577 
L 338.760105 -164.435681 
L 339.268225 -164.435594 
L 339.776345 -164.435509 
L 340.284464 -164.435425 
L 340.792584 -164.435343 
L 341.300703 -164.435262 
L 341.808823 -164.435183 
L 342.316943 -164.435105 
L 342.825062 -164.435029 
L 343.333182 -164.434954 
L 343.841301 -164.434881 
L 344.349421 -164.434808 
L 344.857541 -164.434738 
L 345.36566 -164.434668 
L 345.87378 -164.4346 
L 346.381899 -164.434533 
L 346.890019 -164.434467 
L 347.398138 -164.434403 
L 347.906258 -164.43434 
L 348.414378 -164.434278 
L 348.922497 -164.434217 
L 349.430617 -164.434157 
L 349.938736 -164.434098 
L 350.446856 -164.434041 
L 350.954976 -164.433984 
L 351.463095 -164.433929 
L 351.971215 -164.433874 
L 352.479334 -164.433821 
L 352.987454 -164.433769 
L 353.495574 -164.433717 
L 354.003693 -164.433667 
L 354.003693 -90.256592 
L 354.003693 -90.256592 
L 353.495574 -90.256643 
L 352.987454 -90.256694 
L 352.479334 -90.256747 
L 351.971215 -90.2568 
L 351.463095 -90.256855 
L 350.954976 -90.256911 
L 350.446856 -90.256967 
L 349.938736 -90.257025 
L 349.430617 -90.257084 
L 348.922497 -90.257144 
L 348.414378 -90.257205 
L 347.906258 -90.257267 
L 347.398138 -90.257331 
L 346.890019 -90.257395 
L 346.381899 -90.257461 
L 345.87378 -90.257528 
L 345.36566 -90.257597 
L 344.857541 -90.257666 
L 344.349421 -90.257737 
L 343.841301 -90.25781 
L 343.333182 -90.257883 
L 342.825062 -90.257959 
L 342.316943 -90.258035 
L 341.808823 -90.258113 
L 341.300703 -90.258193 
L 340.792584 -90.258274 
L 340.284464 -90.258356 
L 339.776345 -90.25844 
L 339.268225 -90.258526 
L 338.760105 -90.258613 
L 338.251986 -90.258702 
L 337.743866 -90.258793 
L 337.235747 -90.258885 
L 336.727627 -90.258979 
L 336.219507 -90.259075 
L 335.711388 -90.259173 
L 335.203268 -90.259272 
L 334.695149 -90.259374 
L 334.187029 -90.259477 
L 333.678909 -90.259583 
L 333.17079 -90.25969 
L 332.66267 -90.259799 
L 332.154551 -90.25991 
L 331.646431 -90.260024 
L 331.138311 -90.260139 
L 330.630192 -90.260257 
L 330.122072 -90.260377 
L 329.613953 -90.260499 
L 329.105833 -90.260624 
L 328.597714 -90.260751 
L 328.089594 -90.26088 
L 327.581474 -90.261012 
L 327.073355 -90.261146 
L 326.565235 -90.261282 
L 326.057116 -90.261422 
L 325.548996 -90.261564 
L 325.040876 -90.261708 
L 324.532757 -90.261855 
L 324.024637 -90.262005 
L 323.516518 -90.262158 
L 323.008398 -90.262314 
L 322.500278 -90.262472 
L 321.992159 -90.262634 
L 321.484039 -90.262798 
L 320.97592 -90.262966 
L 320.4678 -90.263137 
L 319.95968 -90.26331 
L 319.451561 -90.263488 
L 318.943441 -90.263668 
L 318.435322 -90.263852 
L 317.927202 -90.264039 
L 317.419082 -90.26423 
L 316.910963 -90.264424 
L 316.402843 -90.264622 
L 315.894724 -90.264824 
L 315.386604 -90.265029 
L 314.878485 -90.265239 
L 314.370365 -90.265452 
L 313.862245 -90.265669 
L 313.354126 -90.26589 
L 312.846006 -90.266115 
L 312.337887 -90.266345 
L 311.829767 -90.266578 
L 311.321647 -90.266816 
L 310.813528 -90.267059 
L 310.305408 -90.267306 
L 309.797289 -90.267557 
L 309.289169 -90.267813 
L 308.781049 -90.268074 
L 308.27293 -90.26834 
L 307.76481 -90.268611 
L 307.256691 -90.268886 
L 306.748571 -90.269167 
L 306.240451 -90.269453 
L 305.732332 -90.269745 
L 305.224212 -90.270041 
L 304.716093 -90.270343 
L 304.207973 -90.270651 
L 303.699853 -90.270965 
L 303.191734 -90.271284 
L 302.683614 -90.271609 
L 302.175495 -90.27194 
L 301.667375 -90.272277 
L 301.159255 -90.272621 
L 300.651136 -90.272971 
L 300.143016 -90.273327 
L 299.634897 -90.27369 
L 299.126777 -90.274059 
L 298.618658 -90.274435 
L 298.110538 -90.274818 
L 297.602418 -90.275209 
L 297.094299 -90.275606 
L 296.586179 -90.276011 
L 296.07806 -90.276423 
L 295.56994 -90.276843 
L 295.06182 -90.27727 
L 294.553701 -90.277705 
L 294.045581 -90.278149 
L 293.537462 -90.2786 
L 293.029342 -90.27906 
L 292.521222 -90.279528 
L 292.013103 -90.280005 
L 291.504983 -90.28049 
L 290.996864 -90.280984 
L 290.488744 -90.281488 
L 289.980624 -90.282 
L 289.472505 -90.282522 
L 288.964385 -90.283054 
L 288.456266 -90.283595 
L 287.948146 -90.284146 
L 287.440026 -90.284707 
L 286.931907 -90.285278 
L 286.423787 -90.28586 
L 285.915668 -90.286453 
L 285.407548 -90.287056 
L 284.899428 -90.28767 
L 284.391309 -90.288296 
L 283.883189 -90.288933 
L 283.37507 -90.289581 
L 282.86695 -90.290241 
L 282.358831 -90.290914 
L 281.850711 -90.291598 
L 281.342591 -90.292295 
L 280.834472 -90.293005 
L 280.326352 -90.293727 
L 279.818233 -90.294463 
L 279.310113 -90.295212 
L 278.801993 -90.295975 
L 278.293874 -90.296751 
L 277.785754 -90.297542 
L 277.277635 -90.298347 
L 276.769515 -90.299167 
L 276.261395 -90.300001 
L 275.753276 -90.300851 
L 275.245156 -90.301716 
L 274.737037 -90.302597 
L 274.228917 -90.303493 
L 273.720797 -90.304406 
L 273.212678 -90.305336 
L 272.704558 -90.306282 
L 272.196439 -90.307245 
L 271.688319 -90.308226 
L 271.180199 -90.309225 
L 270.67208 -90.310241 
L 270.16396 -90.311277 
L 269.655841 -90.31233 
L 269.147721 -90.313403 
L 268.639602 -90.314495 
L 268.131482 -90.315607 
L 267.623362 -90.316739 
L 267.115243 -90.317892 
L 266.607123 -90.319065 
L 266.099004 -90.320259 
L 265.590884 -90.321475 
L 265.082764 -90.322713 
L 264.574645 -90.323973 
L 264.066525 -90.325256 
L 263.558406 -90.326562 
L 263.050286 -90.327892 
L 262.542166 -90.329246 
L 262.034047 -90.330624 
L 261.525927 -90.332027 
L 261.017808 -90.333455 
L 260.509688 -90.334908 
L 260.001568 -90.336388 
L 259.493449 -90.337895 
L 258.985329 -90.339429 
L 258.47721 -90.34099 
L 257.96909 -90.34258 
L 257.46097 -90.344198 
L 256.952851 -90.345845 
L 256.444731 -90.347521 
L 255.936612 -90.349228 
L 255.428492 -90.350966 
L 254.920372 -90.352735 
L 254.412253 -90.354535 
L 253.904133 -90.356368 
L 253.396014 -90.358234 
L 252.887894 -90.360134 
L 252.379775 -90.362068 
L 251.871655 -90.364036 
L 251.363535 -90.36604 
L 250.855416 -90.368079 
L 250.347296 -90.370156 
L 249.839177 -90.372269 
L 249.331057 -90.374421 
L 248.822937 -90.376611 
L 248.314818 -90.378841 
L 247.806698 -90.381111 
L 247.298579 -90.383421 
L 246.790459 -90.385773 
L 246.282339 -90.388167 
L 245.77422 -90.390604 
L 245.2661 -90.393085 
L 244.757981 -90.395611 
L 244.249861 -90.398181 
L 243.741741 -90.400798 
L 243.233622 -90.403462 
L 242.725502 -90.406174 
L 242.217383 -90.408935 
L 241.709263 -90.411745 
L 241.201143 -90.414606 
L 240.693024 -90.417518 
L 240.184904 -90.420482 
L 239.676785 -90.423499 
L 239.168665 -90.426571 
L 238.660546 -90.429698 
L 238.152426 -90.432882 
L 237.644306 -90.436122 
L 237.136187 -90.439421 
L 236.628067 -90.442779 
L 236.119948 -90.446197 
L 235.611828 -90.449677 
L 235.103708 -90.45322 
L 234.595589 -90.456826 
L 234.087469 -90.460497 
L 233.57935 -90.464234 
L 233.07123 -90.468039 
L 232.56311 -90.471912 
L 232.054991 -90.475854 
L 231.546871 -90.479868 
L 231.038752 -90.483954 
L 230.530632 -90.488114 
L 230.022512 -90.492349 
L 229.514393 -90.49666 
L 229.006273 -90.501048 
L 228.498154 -90.505516 
L 227.990034 -90.510065 
L 227.481914 -90.514696 
L 226.973795 -90.51941 
L 226.465675 -90.52421 
L 225.957556 -90.529096 
L 225.449436 -90.534071 
L 224.941316 -90.539135 
L 224.433197 -90.544291 
L 223.925077 -90.549541 
L 223.416958 -90.554885 
L 222.908838 -90.560327 
L 222.400719 -90.565867 
L 221.892599 -90.571507 
L 221.384479 -90.577249 
L 220.87636 -90.583096 
L 220.36824 -90.589049 
L 219.860121 -90.59511 
L 219.352001 -90.60128 
L 218.843881 -90.607563 
L 218.335762 -90.613961 
L 217.827642 -90.620474 
L 217.319523 -90.627106 
L 216.811403 -90.633859 
L 216.303283 -90.640735 
L 215.795164 -90.647736 
L 215.287044 -90.654865 
L 214.778925 -90.662124 
L 214.270805 -90.669515 
L 213.762685 -90.677041 
L 213.254566 -90.684705 
L 212.746446 -90.692509 
L 212.238327 -90.700456 
L 211.730207 -90.708548 
L 211.222087 -90.716788 
L 210.713968 -90.725179 
L 210.205848 -90.733724 
L 209.697729 -90.742426 
L 209.189609 -90.751288 
L 208.68149 -90.760312 
L 208.17337 -90.769502 
L 207.66525 -90.778861 
L 207.157131 -90.788393 
L 206.649011 -90.7981 
L 206.140892 -90.807985 
L 205.632772 -90.818053 
L 205.124652 -90.828307 
L 204.616533 -90.83875 
L 204.108413 -90.849386 
L 203.600294 -90.860218 
L 203.092174 -90.871251 
L 202.584054 -90.882488 
L 202.075935 -90.893933 
L 201.567815 -90.905591 
L 201.059696 -90.917464 
L 200.551576 -90.929558 
L 200.043456 -90.941876 
L 199.535337 -90.954424 
L 199.027217 -90.967204 
L 198.519098 -90.980223 
L 198.010978 -90.993484 
L 197.502858 -91.006992 
L 196.994739 -91.020752 
L 196.486619 -91.034768 
L 195.9785 -91.049047 
L 195.47038 -91.063592 
L 194.96226 -91.078409 
L 194.454141 -91.093504 
L 193.946021 -91.108881 
L 193.437902 -91.124546 
L 192.929782 -91.140505 
L 192.421663 -91.156763 
L 191.913543 -91.173327 
L 191.405423 -91.190201 
L 190.897304 -91.207393 
L 190.389184 -91.224909 
L 189.881065 -91.242754 
L 189.372945 -91.260935 
L 188.864825 -91.279459 
L 188.356706 -91.298333 
L 187.848586 -91.317562 
L 187.340467 -91.337155 
L 186.832347 -91.357118 
L 186.324227 -91.377458 
L 185.816108 -91.398183 
L 185.307988 -91.419301 
L 184.799869 -91.440818 
L 184.291749 -91.462744 
L 183.783629 -91.485085 
L 183.27551 -91.50785 
L 182.76739 -91.531047 
L 182.259271 -91.554684 
L 181.751151 -91.578771 
L 181.243031 -91.603316 
L 180.734912 -91.628328 
L 180.226792 -91.653816 
L 179.718673 -91.679789 
L 179.210553 -91.706256 
L 178.702434 -91.733228 
L 178.194314 -91.760715 
L 177.686194 -91.788725 
L 177.178075 -91.81727 
L 176.669955 -91.84636 
L 176.161836 -91.876005 
L 175.653716 -91.906217 
L 175.145596 -91.937005 
L 174.637477 -91.968382 
L 174.129357 -92.000359 
L 173.621238 -92.032948 
L 173.113118 -92.066159 
L 172.604998 -92.100006 
L 172.096879 -92.134501 
L 171.588759 -92.169656 
L 171.08064 -92.205483 
L 170.57252 -92.241997 
L 170.0644 -92.279209 
L 169.556281 -92.317134 
L 169.048161 -92.355785 
L 168.540042 -92.395176 
L 168.031922 -92.435322 
L 167.523802 -92.476236 
L 167.015683 -92.517933 
L 166.507563 -92.560429 
L 165.999444 -92.603738 
L 165.491324 -92.647876 
L 164.983204 -92.692859 
L 164.475085 -92.738702 
L 163.966965 -92.785423 
L 163.458846 -92.833037 
L 162.950726 -92.881561 
L 162.442607 -92.931013 
L 161.934487 -92.981409 
L 161.426367 -93.032769 
L 160.918248 -93.085108 
L 160.410128 -93.138447 
L 159.902009 -93.192803 
L 159.393889 -93.248195 
L 158.885769 -93.304642 
L 158.37765 -93.362165 
L 157.86953 -93.420782 
L 157.361411 -93.480514 
L 156.853291 -93.541381 
L 156.345171 -93.603404 
L 155.837052 -93.666605 
L 155.328932 -93.731003 
L 154.820813 -93.796622 
L 154.312693 -93.863483 
L 153.804573 -93.931608 
L 153.296454 -94.001021 
L 152.788334 -94.071743 
L 152.280215 -94.143799 
L 151.772095 -94.217212 
L 151.263975 -94.292007 
L 150.755856 -94.368206 
L 150.247736 -94.445836 
L 149.739617 -94.524921 
L 149.231497 -94.605486 
L 148.723378 -94.687558 
L 148.215258 -94.771161 
L 147.707138 -94.856323 
L 147.199019 -94.94307 
L 146.690899 -95.03143 
L 146.18278 -95.121428 
L 145.67466 -95.213094 
L 145.16654 -95.306455 
L 144.658421 -95.40154 
L 144.150301 -95.498377 
L 143.642182 -95.596994 
L 143.134062 -95.697423 
L 142.625942 -95.799691 
L 142.117823 -95.90383 
L 141.609703 -96.009869 
L 141.101584 -96.117839 
L 140.593464 -96.227771 
L 140.085344 -96.339696 
L 139.577225 -96.453645 
L 139.069105 -96.569651 
L 138.560986 -96.687745 
L 138.052866 -96.80796 
L 137.544746 -96.930328 
L 137.036627 -97.054883 
L 136.528507 -97.181657 
L 136.020388 -97.310684 
L 135.512268 -97.441998 
L 135.004148 -97.575632 
L 134.496029 -97.71162 
L 133.987909 -97.849998 
L 133.47979 -97.990799 
L 132.97167 -98.134059 
L 132.463551 -98.279812 
L 131.955431 -98.428093 
L 131.447311 -98.578938 
L 130.939192 -98.732382 
L 130.431072 -98.888461 
L 129.922953 -99.047211 
L 129.414833 -99.208667 
L 128.906713 -99.372865 
L 128.398594 -99.539841 
L 127.890474 -99.709632 
L 127.382355 -99.882273 
L 126.874235 -100.0578 
L 126.366115 -100.236251 
L 125.857996 -100.41766 
L 125.349876 -100.602064 
L 124.841757 -100.789499 
L 124.333637 -100.980002 
L 123.825517 -101.173607 
L 123.317398 -101.37035 
L 122.809278 -101.570268 
L 122.301159 -101.773396 
L 121.793039 -101.979769 
L 121.284919 -102.189421 
L 120.7768 -102.402388 
L 120.26868 -102.618705 
L 119.760561 -102.838405 
L 119.252441 -103.061522 
L 118.744322 -103.28809 
L 118.236202 -103.518142 
L 117.728082 -103.75171 
L 117.219963 -103.988827 
L 116.711843 -104.229524 
L 116.203724 -104.473833 
L 115.695604 -104.721783 
L 115.187484 -104.973405 
L 114.679365 -105.228728 
L 114.171245 -105.48778 
L 113.663126 -105.75059 
L 113.155006 -106.017184 
L 112.646886 -106.287588 
L 112.138767 -106.561827 
L 111.630647 -106.839927 
L 111.122528 -107.12191 
L 110.614408 -107.407798 
L 110.106288 -107.697613 
L 109.598169 -107.991375 
L 109.090049 -108.289102 
L 108.58193 -108.590813 
L 108.07381 -108.896523 
L 107.56569 -109.206249 
L 107.057571 -109.520002 
L 106.549451 -109.837796 
L 106.041332 -110.159641 
L 105.533212 -110.485546 
L 105.025092 -110.815519 
L 104.516973 -111.149564 
L 104.008853 -111.487686 
L 103.500734 -111.829887 
L 102.992614 -112.176167 
L 102.484495 -112.526523 
L 101.976375 -112.880952 
L 101.468255 -113.239447 
L 100.960136 -113.602 
L 100.452016 -113.968601 
L 99.943897 -114.339236 
L 99.435777 -114.71389 
L 98.927657 -115.092544 
L 98.419538 -115.475179 
L 97.911418 -115.86177 
L 97.403299 -116.252292 
L 96.895179 -116.646716 
L 96.387059 -117.04501 
L 95.87894 -117.447139 
L 95.37082 -117.853065 
L 94.862701 -118.262747 
L 94.354581 -118.67614 
L 93.846461 -119.093198 
L 93.338342 -119.513868 
L 92.830222 -119.938096 
L 92.322103 -120.365823 
L 91.813983 -120.796988 
L 91.305863 -121.231524 
L 90.797744 -121.669363 
L 90.289624 -122.110429 
L 89.781505 -122.554646 
L 89.273385 -123.001932 
L 88.765265 -123.4522 
L 88.257146 -123.905359 
L 87.749026 -124.361316 
L 87.240907 -124.81997 
L 86.732787 -125.281218 
L 86.224668 -125.74495 
L 85.716548 -126.211054 
L 85.208428 -126.679412 
L 84.700309 -127.149899 
L 84.192189 -127.622388 
L 83.68407 -128.096746 
L 83.17595 -128.572833 
L 82.66783 -129.050507 
L 82.159711 -129.529618 
L 81.651591 -130.010012 
L 81.143472 -130.491528 
L 80.635352 -130.974002 
L 80.127232 -131.457263 
L 79.619113 -131.941133 
L 79.110993 -132.42543 
L 78.602874 -132.909967 
L 78.094754 -133.394547 
L 77.586634 -133.878973 
L 77.078515 -134.363037 
L 76.570395 -134.846527 
L 76.062276 -135.329224 
L 75.554156 -135.810901 
L 75.046036 -136.291179 
L 74.537917 -135.891064 
L 74.029797 -135.409581 
L 73.521678 -134.927037 
L 73.013558 -134.443664 
L 72.505439 -133.959681 
L 71.997319 -133.475301 
L 71.489199 -132.990732 
L 70.98108 -132.506175 
L 70.47296 -132.021825 
L 69.964841 -131.53787 
L 69.456721 -131.054496 
L 68.948601 -130.571879 
L 68.440482 -130.090191 
L 67.932362 -129.609599 
L 67.424243 -129.130263 
L 66.916123 -128.652339 
L 66.408003 -128.175977 
L 65.899884 -127.701322 
L 65.391764 -127.228512 
L 64.883645 -126.757682 
L 64.375525 -126.288961 
L 63.867405 -125.822473 
L 63.359286 -125.358337 
L 62.851166 -124.896667 
L 62.343047 -124.437574 
L 61.834927 -123.98116 
L 61.326807 -123.527528 
L 60.818688 -123.076772 
L 60.310568 -122.628983 
L 59.802449 -122.184249 
L 59.294329 -121.742652 
L 58.786209 -121.30427 
L 58.27809 -120.869178 
L 57.76997 -120.437447 
L 57.261851 -120.009142 
L 56.753731 -119.584327 
L 56.245612 -119.16306 
L 55.737492 -118.745397 
L 55.229372 -118.331389 
L 54.721253 -117.921086 
L 54.213133 -117.514531 
L 53.705014 -117.111766 
L 53.196894 -116.712831 
L 52.688774 -116.317759 
L 52.180655 -115.926585 
L 51.672535 -115.539337 
L 51.164416 -115.156041 
L 50.656296 -114.776722 
L 50.148176 -114.4014 
L 49.640057 -114.030094 
z
" id="m978a3be274" style="stroke:#808080;stroke-opacity:0.3;stroke-width:0.24;"/>
    </defs>
    <g clip-path="url(#p1ebe8fc146)">
     <use style="fill:#808080;fill-opacity:0.3;stroke:#808080;stroke-opacity:0.3;stroke-width:0.24;" x="0" xlink:href="#m978a3be274" y="277.548125"/>
    </g>
   </g>
   <g id="matplotlib.axis_1">
    <g id="xtick_1">
     <g id="line2d_1">
      <path clip-path="url(#p1ebe8fc146)" d="M 49.640057 239.95125 
L 49.640057 22.51125 
" style="fill:none;stroke:#b0b0b0;stroke-linecap:square;stroke-opacity:0.25;stroke-width:0.8;"/>
     </g>
     <g id="line2d_2">
      <defs>
       <path d="M 0 0 
L 0 3.5 
" id="mc4529571d7" style="stroke:#808080;stroke-width:0.8;"/>
      </defs>
      <g>
       <use style="fill:#808080;stroke:#808080;stroke-width:0.8;" x="49.640057" xlink:href="#mc4529571d7" y="239.95125"/>
      </g>
     </g>
     <g id="text_1">
      <!-- 0 -->
      <defs>
       <path d="M 5 34.703125 
Q 5 52.09375 11.140625 61.5 
Q 17.296875 70.90625 28.203125 70.90625 
Q 39.09375 70.90625 45.25 61.5 
Q 51.40625 52.09375 51.40625 34.703125 
Q 51.40625 17.296875 45.25 7.890625 
Q 39.09375 -1.5 28.203125 -1.5 
Q 17.296875 -1.5 11.140625 7.890625 
Q 5 17.296875 5 34.703125 
z
M 41.59375 34.703125 
Q 41.59375 40.40625 40.9375 45.5 
Q 40.296875 50.59375 38.75 54.390625 
Q 37.203125 58.203125 34.59375 60.453125 
Q 32 62.703125 28.203125 62.703125 
Q 24.40625 62.703125 21.796875 60.453125 
Q 19.203125 58.203125 17.640625 54.390625 
Q 16.09375 50.59375 15.4375 45.5 
Q 14.796875 40.40625 14.796875 34.703125 
Q 14.796875 29 15.4375 23.890625 
Q 16.09375 18.796875 17.640625 15 
Q 19.203125 11.203125 21.796875 8.953125 
Q 24.40625 6.703125 28.203125 6.703125 
Q 32 6.703125 34.59375 8.953125 
Q 37.203125 11.203125 38.75 15 
Q 40.296875 18.796875 40.9375 23.890625 
Q 41.59375 29 41.59375 34.703125 
z
" id="Ubuntu-48"/>
      </defs>
      <g transform="translate(47.383807 255.25875)scale(0.08 -0.08)">
       <use xlink:href="#Ubuntu-48"/>
      </g>
     </g>
    </g>
    <g id="xtick_2">
     <g id="line2d_3">
      <path clip-path="url(#p1ebe8fc146)" d="M 100.36733 239.95125 
L 100.36733 22.51125 
" style="fill:none;stroke:#b0b0b0;stroke-linecap:square;stroke-opacity:0.25;stroke-width:0.8;"/>
     </g>
     <g id="line2d_4">
      <g>
       <use style="fill:#808080;stroke:#808080;stroke-width:0.8;" x="100.36733" xlink:href="#mc4529571d7" y="239.95125"/>
      </g>
     </g>
     <g id="text_2">
      <!-- 1 -->
      <defs>
       <path d="M 9.296875 55 
Q 15 57.203125 20.390625 60.640625 
Q 25.796875 64.09375 30.296875 69.296875 
L 36.90625 69.296875 
L 36.90625 0 
L 27.59375 0 
L 27.59375 56.40625 
Q 26.40625 55.296875 24.65625 54.09375 
Q 22.90625 52.90625 20.84375 51.796875 
Q 18.796875 50.703125 16.546875 49.703125 
Q 14.296875 48.703125 12.203125 48 
z
" id="Ubuntu-49"/>
      </defs>
      <g transform="translate(98.11108 255.25875)scale(0.08 -0.08)">
       <use xlink:href="#Ubuntu-49"/>
      </g>
     </g>
    </g>
    <g id="xtick_3">
     <g id="line2d_5">
      <path clip-path="url(#p1ebe8fc146)" d="M 151.094602 239.95125 
L 151.094602 22.51125 
" style="fill:none;stroke:#b0b0b0;stroke-linecap:square;stroke-opacity:0.25;stroke-width:0.8;"/>
     </g>
     <g id="line2d_6">
      <g>
       <use style="fill:#808080;stroke:#808080;stroke-width:0.8;" x="151.094602" xlink:href="#mc4529571d7" y="239.95125"/>
      </g>
     </g>
     <g id="text_3">
      <!-- 2 -->
      <defs>
       <path d="M 46.703125 51.59375 
Q 46.703125 48 45.25 44.640625 
Q 43.796875 41.296875 41.390625 38.046875 
Q 39 34.796875 36 31.640625 
Q 33 28.5 30 25.5 
Q 28.296875 23.796875 26.046875 21.5 
Q 23.796875 19.203125 21.796875 16.703125 
Q 19.796875 14.203125 18.4375 11.890625 
Q 17.09375 9.59375 17.09375 7.90625 
L 49 7.90625 
L 49 0 
L 7 0 
Q 6.90625 0.59375 6.90625 1.1875 
Q 6.90625 1.796875 6.90625 2.296875 
Q 6.90625 7 8.453125 11.046875 
Q 10 15.09375 12.5 18.6875 
Q 15 22.296875 18.09375 25.5 
Q 21.203125 28.703125 24.203125 31.703125 
Q 26.703125 34.09375 28.953125 36.4375 
Q 31.203125 38.796875 32.953125 41.140625 
Q 34.703125 43.5 35.75 46 
Q 36.796875 48.5 36.796875 51.296875 
Q 36.796875 54.296875 35.84375 56.390625 
Q 34.90625 58.5 33.296875 59.890625 
Q 31.703125 61.296875 29.546875 61.9375 
Q 27.40625 62.59375 25 62.59375 
Q 22.09375 62.59375 19.6875 61.796875 
Q 17.296875 61 15.390625 59.953125 
Q 13.5 58.90625 12.203125 57.75 
Q 10.90625 56.59375 10.203125 56 
L 5.59375 62.59375 
Q 6.5 63.59375 8.296875 65.046875 
Q 10.09375 66.5 12.59375 67.796875 
Q 15.09375 69.09375 18.1875 70 
Q 21.296875 70.90625 24.90625 70.90625 
Q 35.796875 70.90625 41.25 65.84375 
Q 46.703125 60.796875 46.703125 51.59375 
z
" id="Ubuntu-50"/>
      </defs>
      <g transform="translate(148.838352 255.25875)scale(0.08 -0.08)">
       <use xlink:href="#Ubuntu-50"/>
      </g>
     </g>
    </g>
    <g id="xtick_4">
     <g id="line2d_7">
      <path clip-path="url(#p1ebe8fc146)" d="M 201.821875 239.95125 
L 201.821875 22.51125 
" style="fill:none;stroke:#b0b0b0;stroke-linecap:square;stroke-opacity:0.25;stroke-width:0.8;"/>
     </g>
     <g id="line2d_8">
      <g>
       <use style="fill:#808080;stroke:#808080;stroke-width:0.8;" x="201.821875" xlink:href="#mc4529571d7" y="239.95125"/>
      </g>
     </g>
     <g id="text_4">
      <!-- 3 -->
      <defs>
       <path d="M 22.59375 6.796875 
Q 31.5 6.796875 35.34375 10.296875 
Q 39.203125 13.796875 39.203125 19.703125 
Q 39.203125 23.5 37.59375 26.09375 
Q 36 28.703125 33.390625 30.25 
Q 30.796875 31.796875 27.34375 32.4375 
Q 23.90625 33.09375 20.296875 33.09375 
L 17.90625 33.09375 
L 17.90625 40.703125 
L 21.203125 40.703125 
Q 23.703125 40.703125 26.34375 41.203125 
Q 29 41.703125 31.203125 43 
Q 33.40625 44.296875 34.796875 46.546875 
Q 36.203125 48.796875 36.203125 52.203125 
Q 36.203125 55 35.203125 57 
Q 34.203125 59 32.546875 60.296875 
Q 30.90625 61.59375 28.75 62.140625 
Q 26.59375 62.703125 24.203125 62.703125 
Q 19.40625 62.703125 16.046875 61.296875 
Q 12.703125 59.90625 10.40625 58.40625 
L 6.796875 65.5 
Q 8 66.296875 9.84375 67.25 
Q 11.703125 68.203125 14 69 
Q 16.296875 69.796875 18.9375 70.34375 
Q 21.59375 70.90625 24.5 70.90625 
Q 30 70.90625 34 69.546875 
Q 38 68.203125 40.59375 65.75 
Q 43.203125 63.296875 44.5 59.9375 
Q 45.796875 56.59375 45.796875 52.703125 
Q 45.796875 47.296875 42.6875 43.4375 
Q 39.59375 39.59375 35.203125 37.59375 
Q 37.90625 36.796875 40.40625 35.296875 
Q 42.90625 33.796875 44.75 31.5 
Q 46.59375 29.203125 47.75 26.203125 
Q 48.90625 23.203125 48.90625 19.5 
Q 48.90625 15 47.34375 11.140625 
Q 45.796875 7.296875 42.546875 4.5 
Q 39.296875 1.703125 34.390625 0.09375 
Q 29.5 -1.5 22.796875 -1.5 
Q 20.203125 -1.5 17.453125 -1.09375 
Q 14.703125 -0.703125 12.296875 -0.09375 
Q 9.90625 0.5 8.09375 1.09375 
Q 6.296875 1.703125 5.5 2.09375 
L 7.296875 10.203125 
Q 9 9.40625 12.953125 8.09375 
Q 16.90625 6.796875 22.59375 6.796875 
z
" id="Ubuntu-51"/>
      </defs>
      <g transform="translate(199.565625 255.25875)scale(0.08 -0.08)">
       <use xlink:href="#Ubuntu-51"/>
      </g>
     </g>
    </g>
    <g id="xtick_5">
     <g id="line2d_9">
      <path clip-path="url(#p1ebe8fc146)" d="M 252.549148 239.95125 
L 252.549148 22.51125 
" style="fill:none;stroke:#b0b0b0;stroke-linecap:square;stroke-opacity:0.25;stroke-width:0.8;"/>
     </g>
     <g id="line2d_10">
      <g>
       <use style="fill:#808080;stroke:#808080;stroke-width:0.8;" x="252.549148" xlink:href="#mc4529571d7" y="239.95125"/>
      </g>
     </g>
     <g id="text_5">
      <!-- 4 -->
      <defs>
       <path d="M 4 24 
Q 5.90625 28.40625 9.203125 34.25 
Q 12.5 40.09375 16.640625 46.296875 
Q 20.796875 52.5 25.546875 58.5 
Q 30.296875 64.5 35.09375 69.296875 
L 44 69.296875 
L 44 25.296875 
L 52.203125 25.296875 
L 52.203125 17.703125 
L 44 17.703125 
L 44 0 
L 35 0 
L 35 17.703125 
L 4 17.703125 
z
M 35 58.296875 
Q 32 55.09375 28.953125 51.140625 
Q 25.90625 47.203125 23 42.890625 
Q 20.09375 38.59375 17.546875 34.09375 
Q 15 29.59375 13 25.296875 
L 35 25.296875 
z
" id="Ubuntu-52"/>
      </defs>
      <g transform="translate(250.292898 255.25875)scale(0.08 -0.08)">
       <use xlink:href="#Ubuntu-52"/>
      </g>
     </g>
    </g>
    <g id="xtick_6">
     <g id="line2d_11">
      <path clip-path="url(#p1ebe8fc146)" d="M 303.27642 239.95125 
L 303.27642 22.51125 
" style="fill:none;stroke:#b0b0b0;stroke-linecap:square;stroke-opacity:0.25;stroke-width:0.8;"/>
     </g>
     <g id="line2d_12">
      <g>
       <use style="fill:#808080;stroke:#808080;stroke-width:0.8;" x="303.27642" xlink:href="#mc4529571d7" y="239.95125"/>
      </g>
     </g>
     <g id="text_6">
      <!-- 5 -->
      <defs>
       <path d="M 19.90625 42.59375 
Q 35 42 42.046875 36 
Q 49.09375 30 49.09375 19.703125 
Q 49.09375 15.09375 47.546875 11.1875 
Q 46 7.296875 42.84375 4.5 
Q 39.703125 1.703125 34.890625 0.09375 
Q 30.09375 -1.5 23.5 -1.5 
Q 20.90625 -1.5 18.203125 -1.09375 
Q 15.5 -0.703125 13.203125 -0.09375 
Q 10.90625 0.5 9.09375 1.09375 
Q 7.296875 1.703125 6.5 2.09375 
L 8.296875 10.203125 
Q 10 9.40625 13.84375 8.09375 
Q 17.703125 6.796875 23.296875 6.796875 
Q 27.796875 6.796875 30.84375 7.796875 
Q 33.90625 8.796875 35.796875 10.5 
Q 37.703125 12.203125 38.546875 14.453125 
Q 39.40625 16.703125 39.40625 19.203125 
Q 39.40625 23 38.09375 25.953125 
Q 36.796875 28.90625 33.5 30.90625 
Q 30.203125 32.90625 24.703125 33.953125 
Q 19.203125 35 10.796875 35 
Q 11.40625 39.90625 11.75 44.203125 
Q 12.09375 48.5 12.390625 52.59375 
Q 12.703125 56.703125 12.890625 60.75 
Q 13.09375 64.796875 13.296875 69.296875 
L 46.703125 69.296875 
L 46.703125 61.40625 
L 21.40625 61.40625 
Q 21.296875 59.90625 21.09375 57.34375 
Q 20.90625 54.796875 20.703125 52.046875 
Q 20.5 49.296875 20.296875 46.6875 
Q 20.09375 44.09375 19.90625 42.59375 
z
" id="Ubuntu-53"/>
      </defs>
      <g transform="translate(301.02017 255.25875)scale(0.08 -0.08)">
       <use xlink:href="#Ubuntu-53"/>
      </g>
     </g>
    </g>
    <g id="xtick_7">
     <g id="line2d_13">
      <path clip-path="url(#p1ebe8fc146)" d="M 354.003693 239.95125 
L 354.003693 22.51125 
" style="fill:none;stroke:#b0b0b0;stroke-linecap:square;stroke-opacity:0.25;stroke-width:0.8;"/>
     </g>
     <g id="line2d_14">
      <g>
       <use style="fill:#808080;stroke:#808080;stroke-width:0.8;" x="354.003693" xlink:href="#mc4529571d7" y="239.95125"/>
      </g>
     </g>
     <g id="text_7">
      <!-- 6 -->
      <defs>
       <path d="M 6.296875 27.796875 
Q 6.296875 37.90625 9.09375 45.65625 
Q 11.90625 53.40625 17.046875 58.703125 
Q 22.203125 64 29.546875 66.75 
Q 36.90625 69.5 46.09375 69.59375 
L 46.796875 61.796875 
Q 40.90625 61.703125 36.046875 60.5 
Q 31.203125 59.296875 27.390625 56.6875 
Q 23.59375 54.09375 21 49.9375 
Q 18.40625 45.796875 17.09375 39.703125 
Q 19.703125 40.90625 22.953125 41.703125 
Q 26.203125 42.5 29.703125 42.5 
Q 35.59375 42.5 39.6875 40.703125 
Q 43.796875 38.90625 46.390625 35.953125 
Q 49 33 50.140625 29.140625 
Q 51.296875 25.296875 51.296875 21.09375 
Q 51.296875 17.296875 50 13.296875 
Q 48.703125 9.296875 46.046875 6 
Q 43.40625 2.703125 39.296875 0.59375 
Q 35.203125 -1.5 29.59375 -1.5 
Q 18.203125 -1.5 12.25 6.296875 
Q 6.296875 14.09375 6.296875 27.796875 
z
M 28.703125 34.90625 
Q 25.203125 34.90625 22.203125 34.25 
Q 19.203125 33.59375 16.203125 32.296875 
Q 16.09375 31.203125 16.046875 30.046875 
Q 16 28.90625 16 27.796875 
Q 16 23.40625 16.59375 19.5 
Q 17.203125 15.59375 18.75 12.640625 
Q 20.296875 9.703125 22.890625 7.953125 
Q 25.5 6.203125 29.5 6.203125 
Q 32.796875 6.203125 35.09375 7.59375 
Q 37.40625 9 38.90625 11.203125 
Q 40.40625 13.40625 41.046875 15.953125 
Q 41.703125 18.5 41.703125 20.90625 
Q 41.703125 27.703125 38.453125 31.296875 
Q 35.203125 34.90625 28.703125 34.90625 
z
" id="Ubuntu-54"/>
      </defs>
      <g transform="translate(351.747443 255.25875)scale(0.08 -0.08)">
       <use xlink:href="#Ubuntu-54"/>
      </g>
     </g>
    </g>
    <g id="text_8">
     <!-- X -->
     <defs>
      <path d="M 50.203125 0 
Q 48.703125 3 46.59375 6.640625 
Q 44.5 10.296875 42 14.25 
Q 39.5 18.203125 36.796875 22.140625 
Q 34.09375 26.09375 31.59375 29.59375 
Q 29.09375 26.09375 26.390625 22.140625 
Q 23.703125 18.203125 21.25 14.25 
Q 18.796875 10.296875 16.640625 6.640625 
Q 14.5 3 13 0 
L 2.296875 0 
Q 6.796875 8.796875 12.75 17.890625 
Q 18.703125 27 25.40625 36.59375 
L 3.203125 69.296875 
L 14.40625 69.296875 
L 31.5 43.5 
L 48.40625 69.296875 
L 59.5 69.296875 
L 37.703125 37 
Q 44.5 27.296875 50.5 18.09375 
Q 56.5 8.90625 61.09375 0 
z
" id="Ubuntu-88"/>
     </defs>
     <g transform="translate(198.667188 268.498125)scale(0.1 -0.1)">
      <use xlink:href="#Ubuntu-88"/>
     </g>
    </g>
   </g>
   <g id="matplotlib.axis_2">
    <g id="ytick_1">
     <g id="line2d_15">
      <path clip-path="url(#p1ebe8fc146)" d="M 34.421875 224.382684 
L 369.221875 224.382684 
" style="fill:none;stroke:#b0b0b0;stroke-linecap:square;stroke-opacity:0.25;stroke-width:0.8;"/>
     </g>
     <g id="line2d_16">
      <defs>
       <path d="M 0 0 
L -3.5 0 
" id="m57252801c8" style="stroke:#808080;stroke-width:0.8;"/>
      </defs>
      <g>
       <use style="fill:#808080;stroke:#808080;stroke-width:0.8;" x="34.421875" xlink:href="#m57252801c8" y="224.382684"/>
      </g>
     </g>
     <g id="text_9">
      <!-- 3 -->
      <g transform="translate(20.809375 227.486434)scale(0.08 -0.08)">
       <use xlink:href="#Ubuntu-51"/>
      </g>
     </g>
    </g>
    <g id="ytick_2">
     <g id="line2d_17">
      <path clip-path="url(#p1ebe8fc146)" d="M 34.421875 187.294145 
L 369.221875 187.294145 
" style="fill:none;stroke:#b0b0b0;stroke-linecap:square;stroke-opacity:0.25;stroke-width:0.8;"/>
     </g>
     <g id="line2d_18">
      <g>
       <use style="fill:#808080;stroke:#808080;stroke-width:0.8;" x="34.421875" xlink:href="#m57252801c8" y="187.294145"/>
      </g>
     </g>
     <g id="text_10">
      <!-- 4 -->
      <g transform="translate(20.809375 190.397895)scale(0.08 -0.08)">
       <use xlink:href="#Ubuntu-52"/>
      </g>
     </g>
    </g>
    <g id="ytick_3">
     <g id="line2d_19">
      <path clip-path="url(#p1ebe8fc146)" d="M 34.421875 150.205607 
L 369.221875 150.205607 
" style="fill:none;stroke:#b0b0b0;stroke-linecap:square;stroke-opacity:0.25;stroke-width:0.8;"/>
     </g>
     <g id="line2d_20">
      <g>
       <use style="fill:#808080;stroke:#808080;stroke-width:0.8;" x="34.421875" xlink:href="#m57252801c8" y="150.205607"/>
      </g>
     </g>
     <g id="text_11">
      <!-- 5 -->
      <g transform="translate(20.809375 153.309357)scale(0.08 -0.08)">
       <use xlink:href="#Ubuntu-53"/>
      </g>
     </g>
    </g>
    <g id="ytick_4">
     <g id="line2d_21">
      <path clip-path="url(#p1ebe8fc146)" d="M 34.421875 113.117068 
L 369.221875 113.117068 
" style="fill:none;stroke:#b0b0b0;stroke-linecap:square;stroke-opacity:0.25;stroke-width:0.8;"/>
     </g>
     <g id="line2d_22">
      <g>
       <use style="fill:#808080;stroke:#808080;stroke-width:0.8;" x="34.421875" xlink:href="#m57252801c8" y="113.117068"/>
      </g>
     </g>
     <g id="text_12">
      <!-- 6 -->
      <g transform="translate(20.809375 116.220818)scale(0.08 -0.08)">
       <use xlink:href="#Ubuntu-54"/>
      </g>
     </g>
    </g>
    <g id="ytick_5">
     <g id="line2d_23">
      <path clip-path="url(#p1ebe8fc146)" d="M 34.421875 76.028529 
L 369.221875 76.028529 
" style="fill:none;stroke:#b0b0b0;stroke-linecap:square;stroke-opacity:0.25;stroke-width:0.8;"/>
     </g>
     <g id="line2d_24">
      <g>
       <use style="fill:#808080;stroke:#808080;stroke-width:0.8;" x="34.421875" xlink:href="#m57252801c8" y="76.028529"/>
      </g>
     </g>
     <g id="text_13">
      <!-- 7 -->
      <defs>
       <path d="M 16.296875 0 
Q 16.90625 8 19.15625 16.84375 
Q 21.40625 25.703125 24.703125 34.046875 
Q 28 42.40625 31.953125 49.546875 
Q 35.90625 56.703125 39.703125 61.203125 
L 6 61.203125 
L 6 69.296875 
L 50.09375 69.296875 
L 50.09375 61.59375 
Q 46.796875 57.796875 42.796875 51.140625 
Q 38.796875 44.5 35.25 36.25 
Q 31.703125 28 29.140625 18.640625 
Q 26.59375 9.296875 26 0 
z
" id="Ubuntu-55"/>
      </defs>
      <g transform="translate(20.809375 79.132279)scale(0.08 -0.08)">
       <use xlink:href="#Ubuntu-55"/>
      </g>
     </g>
    </g>
    <g id="ytick_6">
     <g id="line2d_25">
      <path clip-path="url(#p1ebe8fc146)" d="M 34.421875 38.93999 
L 369.221875 38.93999 
" style="fill:none;stroke:#b0b0b0;stroke-linecap:square;stroke-opacity:0.25;stroke-width:0.8;"/>
     </g>
     <g id="line2d_26">
      <g>
       <use style="fill:#808080;stroke:#808080;stroke-width:0.8;" x="34.421875" xlink:href="#m57252801c8" y="38.93999"/>
      </g>
     </g>
     <g id="text_14">
      <!-- 8 -->
      <defs>
       <path d="M 50.90625 18 
Q 50.90625 13.796875 49.453125 10.25 
Q 48 6.703125 45.140625 4.046875 
Q 42.296875 1.40625 38 -0.046875 
Q 33.703125 -1.5 28.09375 -1.5 
Q 21.59375 -1.5 17.25 0.34375 
Q 12.90625 2.203125 10.296875 5 
Q 7.703125 7.796875 6.59375 11.140625 
Q 5.5 14.5 5.5 17.5 
Q 5.5 20.40625 6.453125 23.046875 
Q 7.40625 25.703125 8.953125 28 
Q 10.5 30.296875 12.546875 32.140625 
Q 14.59375 34 16.90625 35.40625 
Q 7.09375 41 7.09375 51.90625 
Q 7.09375 55.703125 8.59375 59.140625 
Q 10.09375 62.59375 12.84375 65.1875 
Q 15.59375 67.796875 19.5 69.34375 
Q 23.40625 70.90625 28.203125 70.90625 
Q 33.796875 70.90625 37.796875 69.203125 
Q 41.796875 67.5 44.34375 64.84375 
Q 46.90625 62.203125 48.046875 59 
Q 49.203125 55.796875 49.203125 52.796875 
Q 49.203125 49.90625 48.34375 47.34375 
Q 47.5 44.796875 46.046875 42.59375 
Q 44.59375 40.40625 42.75 38.703125 
Q 40.90625 37 38.90625 35.703125 
Q 50.703125 30.09375 50.90625 18 
z
M 14.90625 17.40625 
Q 14.90625 15.59375 15.546875 13.640625 
Q 16.203125 11.703125 17.796875 10.046875 
Q 19.40625 8.40625 21.90625 7.296875 
Q 24.40625 6.203125 28.203125 6.203125 
Q 31.59375 6.203125 34.140625 7.203125 
Q 36.703125 8.203125 38.296875 9.75 
Q 39.90625 11.296875 40.703125 13.296875 
Q 41.5 15.296875 41.5 17.40625 
Q 41.5 20.59375 40.296875 23 
Q 39.09375 25.40625 36.84375 27.203125 
Q 34.59375 29 31.4375 30.25 
Q 28.296875 31.5 24.296875 32.40625 
Q 19.796875 29.90625 17.34375 26.203125 
Q 14.90625 22.5 14.90625 17.40625 
z
M 39.90625 52.90625 
Q 39.90625 54.40625 39.25 56.203125 
Q 38.59375 58 37.1875 59.546875 
Q 35.796875 61.09375 33.59375 62.140625 
Q 31.40625 63.203125 28.203125 63.203125 
Q 25 63.203125 22.75 62.203125 
Q 20.5 61.203125 19.09375 59.640625 
Q 17.703125 58.09375 17.046875 56.25 
Q 16.40625 54.40625 16.40625 52.59375 
Q 16.40625 50.40625 17.203125 48.203125 
Q 18 46 19.703125 44.09375 
Q 21.40625 42.203125 24.15625 40.703125 
Q 26.90625 39.203125 30.703125 38.296875 
Q 34.90625 40.796875 37.40625 44.140625 
Q 39.90625 47.5 39.90625 52.90625 
z
" id="Ubuntu-56"/>
      </defs>
      <g transform="translate(20.809375 42.04374)scale(0.08 -0.08)">
       <use xlink:href="#Ubuntu-56"/>
      </g>
     </g>
    </g>
    <g id="text_15">
     <!-- Gold content -->
     <defs>
      <path d="M 50.90625 34.09375 
L 60.59375 34.09375 
L 60.59375 1.703125 
Q 59.40625 1.296875 57.15625 0.796875 
Q 54.90625 0.296875 51.953125 -0.203125 
Q 49 -0.703125 45.5 -1.046875 
Q 42 -1.40625 38.40625 -1.40625 
Q 31.09375 -1.40625 25.09375 1 
Q 19.09375 3.40625 14.796875 8 
Q 10.5 12.59375 8.140625 19.296875 
Q 5.796875 26 5.796875 34.703125 
Q 5.796875 43.40625 8.4375 50.15625 
Q 11.09375 56.90625 15.59375 61.5 
Q 20.09375 66.09375 26.140625 68.5 
Q 32.203125 70.90625 39.09375 70.90625 
Q 43.796875 70.90625 47.4375 70.296875 
Q 51.09375 69.703125 53.6875 68.890625 
Q 56.296875 68.09375 57.9375 67.296875 
Q 59.59375 66.5 60.203125 66.09375 
L 57.09375 58 
Q 54.203125 59.90625 49.390625 61.15625 
Q 44.59375 62.40625 39.59375 62.40625 
Q 34.296875 62.40625 29.9375 60.5 
Q 25.59375 58.59375 22.546875 55 
Q 19.5 51.40625 17.796875 46.25 
Q 16.09375 41.09375 16.09375 34.703125 
Q 16.09375 28.5 17.546875 23.390625 
Q 19 18.296875 21.953125 14.640625 
Q 24.90625 11 29.25 9 
Q 33.59375 7 39.5 7 
Q 43.703125 7 46.640625 7.453125 
Q 49.59375 7.90625 50.90625 8.296875 
z
" id="Ubuntu-71"/>
      <path d="M 53.90625 26 
Q 53.90625 19.796875 52.09375 14.796875 
Q 50.296875 9.796875 47.046875 6.1875 
Q 43.796875 2.59375 39.296875 0.640625 
Q 34.796875 -1.296875 29.5 -1.296875 
Q 24.203125 -1.296875 19.703125 0.640625 
Q 15.203125 2.59375 11.953125 6.1875 
Q 8.703125 9.796875 6.890625 14.796875 
Q 5.09375 19.796875 5.09375 26 
Q 5.09375 32.09375 6.890625 37.140625 
Q 8.703125 42.203125 11.953125 45.796875 
Q 15.203125 49.40625 19.703125 51.34375 
Q 24.203125 53.296875 29.5 53.296875 
Q 34.796875 53.296875 39.296875 51.34375 
Q 43.796875 49.40625 47.046875 45.796875 
Q 50.296875 42.203125 52.09375 37.140625 
Q 53.90625 32.09375 53.90625 26 
z
M 44.203125 26 
Q 44.203125 34.796875 40.25 39.9375 
Q 36.296875 45.09375 29.5 45.09375 
Q 22.703125 45.09375 18.75 39.9375 
Q 14.796875 34.796875 14.796875 26 
Q 14.796875 17.203125 18.75 12.046875 
Q 22.703125 6.90625 29.5 6.90625 
Q 36.296875 6.90625 40.25 12.046875 
Q 44.203125 17.203125 44.203125 26 
z
" id="Ubuntu-111"/>
      <path d="M 23.59375 -1 
Q 15 -0.796875 11.390625 2.703125 
Q 7.796875 6.203125 7.796875 13.59375 
L 7.796875 76 
L 17.09375 77.59375 
L 17.09375 15.09375 
Q 17.09375 12.796875 17.5 11.296875 
Q 17.90625 9.796875 18.796875 8.890625 
Q 19.703125 8 21.203125 7.546875 
Q 22.703125 7.09375 24.90625 6.796875 
z
" id="Ubuntu-108"/>
      <path d="M 41.59375 41 
Q 39.90625 42.40625 36.703125 43.703125 
Q 33.5 45 29.703125 45 
Q 25.703125 45 22.84375 43.546875 
Q 20 42.09375 18.203125 39.546875 
Q 16.40625 37 15.59375 33.5 
Q 14.796875 30 14.796875 26 
Q 14.796875 16.90625 19.296875 11.953125 
Q 23.796875 7 31.296875 7 
Q 35.09375 7 37.640625 7.34375 
Q 40.203125 7.703125 41.59375 8.09375 
z
M 41.59375 76 
L 50.90625 77.59375 
L 50.90625 1.5 
Q 47.703125 0.59375 42.703125 -0.296875 
Q 37.703125 -1.203125 31.203125 -1.203125 
Q 25.203125 -1.203125 20.390625 0.6875 
Q 15.59375 2.59375 12.1875 6.09375 
Q 8.796875 9.59375 6.9375 14.640625 
Q 5.09375 19.703125 5.09375 26 
Q 5.09375 32 6.640625 37 
Q 8.203125 42 11.203125 45.59375 
Q 14.203125 49.203125 18.546875 51.203125 
Q 22.90625 53.203125 28.5 53.203125 
Q 33 53.203125 36.453125 52 
Q 39.90625 50.796875 41.59375 49.703125 
z
" id="Ubuntu-100"/>
      <path id="Ubuntu-32"/>
      <path d="M 30.59375 -1.203125 
Q 24.296875 -1.203125 19.546875 0.796875 
Q 14.796875 2.796875 11.546875 6.390625 
Q 8.296875 10 6.6875 14.953125 
Q 5.09375 19.90625 5.09375 25.90625 
Q 5.09375 31.90625 6.84375 36.90625 
Q 8.59375 41.90625 11.796875 45.546875 
Q 15 49.203125 19.640625 51.25 
Q 24.296875 53.296875 30 53.296875 
Q 33.5 53.296875 37 52.6875 
Q 40.5 52.09375 43.703125 50.796875 
L 41.59375 42.90625 
Q 39.5 43.90625 36.75 44.5 
Q 34 45.09375 30.90625 45.09375 
Q 23.09375 45.09375 18.9375 40.1875 
Q 14.796875 35.296875 14.796875 25.90625 
Q 14.796875 21.703125 15.75 18.203125 
Q 16.703125 14.703125 18.75 12.203125 
Q 20.796875 9.703125 24 8.34375 
Q 27.203125 7 31.796875 7 
Q 35.5 7 38.5 7.703125 
Q 41.5 8.40625 43.203125 9.203125 
L 44.5 1.40625 
Q 43.703125 0.90625 42.203125 0.453125 
Q 40.703125 0 38.796875 -0.34375 
Q 36.90625 -0.703125 34.75 -0.953125 
Q 32.59375 -1.203125 30.59375 -1.203125 
z
" id="Ubuntu-99"/>
      <path d="M 8 50.5 
Q 11.203125 51.296875 16.5 52.1875 
Q 21.796875 53.09375 28.703125 53.09375 
Q 34.90625 53.09375 39 51.34375 
Q 43.09375 49.59375 45.546875 46.4375 
Q 48 43.296875 49 38.890625 
Q 50 34.5 50 29.203125 
L 50 0 
L 40.703125 0 
L 40.703125 27.203125 
Q 40.703125 32 40.046875 35.390625 
Q 39.40625 38.796875 37.90625 40.890625 
Q 36.40625 43 33.90625 43.953125 
Q 31.40625 44.90625 27.703125 44.90625 
Q 26.203125 44.90625 24.59375 44.796875 
Q 23 44.703125 21.546875 44.546875 
Q 20.09375 44.40625 18.9375 44.203125 
Q 17.796875 44 17.296875 43.90625 
L 17.296875 0 
L 8 0 
z
" id="Ubuntu-110"/>
      <path d="M 16.703125 52 
L 36.40625 52 
L 36.40625 44.203125 
L 16.703125 44.203125 
L 16.703125 20.203125 
Q 16.703125 16.296875 17.296875 13.75 
Q 17.90625 11.203125 19.09375 9.75 
Q 20.296875 8.296875 22.09375 7.6875 
Q 23.90625 7.09375 26.296875 7.09375 
Q 30.5 7.09375 33.046875 8.046875 
Q 35.59375 9 36.59375 9.40625 
L 38.40625 1.703125 
Q 37 1 33.5 -0.046875 
Q 30 -1.09375 25.5 -1.09375 
Q 20.203125 -1.09375 16.75 0.25 
Q 13.296875 1.59375 11.1875 4.296875 
Q 9.09375 7 8.25 10.953125 
Q 7.40625 14.90625 7.40625 20.09375 
L 7.40625 66.5 
L 16.703125 68.09375 
z
" id="Ubuntu-116"/>
      <path d="M 5.09375 25.90625 
Q 5.09375 32.796875 7.09375 37.9375 
Q 9.09375 43.09375 12.390625 46.5 
Q 15.703125 49.90625 20 51.59375 
Q 24.296875 53.296875 28.796875 53.296875 
Q 39.296875 53.296875 44.890625 46.75 
Q 50.5 40.203125 50.5 26.796875 
Q 50.5 26.203125 50.5 25.25 
Q 50.5 24.296875 50.40625 23.5 
L 14.796875 23.5 
Q 15.40625 15.40625 19.5 11.203125 
Q 23.59375 7 32.296875 7 
Q 37.203125 7 40.546875 7.84375 
Q 43.90625 8.703125 45.59375 9.5 
L 46.90625 1.703125 
Q 45.203125 0.796875 40.953125 -0.203125 
Q 36.703125 -1.203125 31.296875 -1.203125 
Q 24.5 -1.203125 19.546875 0.84375 
Q 14.59375 2.90625 11.390625 6.5 
Q 8.203125 10.09375 6.640625 15.046875 
Q 5.09375 20 5.09375 25.90625 
z
M 40.796875 31 
Q 40.90625 37.296875 37.65625 41.34375 
Q 34.40625 45.40625 28.703125 45.40625 
Q 25.5 45.40625 23.046875 44.15625 
Q 20.59375 42.90625 18.890625 40.90625 
Q 17.203125 38.90625 16.25 36.296875 
Q 15.296875 33.703125 15 31 
z
" id="Ubuntu-101"/>
     </defs>
     <g transform="translate(14.959375 160.835938)rotate(-90)scale(0.1 -0.1)">
      <use xlink:href="#Ubuntu-71"/>
      <use x="67.199997" xlink:href="#Ubuntu-111"/>
      <use x="126.199982" xlink:href="#Ubuntu-108"/>
      <use x="153.499969" xlink:href="#Ubuntu-100"/>
      <use x="212.399963" xlink:href="#Ubuntu-32"/>
      <use x="235.499954" xlink:href="#Ubuntu-99"/>
      <use x="281.984314" xlink:href="#Ubuntu-111"/>
      <use x="340.984299" xlink:href="#Ubuntu-110"/>
      <use x="398.384293" xlink:href="#Ubuntu-116"/>
      <use x="438.568665" xlink:href="#Ubuntu-101"/>
      <use x="494.468658" xlink:href="#Ubuntu-110"/>
      <use x="551.868652" xlink:href="#Ubuntu-116"/>
     </g>
    </g>
   </g>
   <g id="line2d_27">
    <path clip-path="url(#p1ebe8fc146)" d="M 49.640057 142.757041 
L 59.294329 141.874952 
L 66.916123 141.402187 
L 73.521678 141.223189 
L 79.619113 141.278235 
L 86.224668 141.565999 
L 93.846461 142.133923 
L 104.008853 143.138952 
L 136.528507 146.52663 
L 149.231497 147.532297 
L 161.934487 148.3112 
L 175.653716 148.929199 
L 191.405423 149.413624 
L 210.713968 149.77666 
L 236.628067 150.024349 
L 277.277635 150.161682 
L 354.003693 150.202995 
L 354.003693 150.202995 
" style="fill:none;stroke:#000000;stroke-linecap:square;stroke-width:2.7;"/>
   </g>
   <g id="line2d_28">
    <path clip-path="url(#p1ebe8fc146)" d="M 49.640057 230.067614 
L 53.196894 214.503031 
L 56.753731 199.875373 
L 60.310568 186.237656 
L 63.359286 175.370216 
L 66.408003 165.286287 
L 69.456721 156.004489 
L 71.997319 148.892636 
L 74.537917 142.353277 
L 77.078515 136.389852 
L 79.619113 131.003604 
L 82.159711 126.193604 
L 84.192189 122.758512 
L 86.224668 119.687756 
L 88.257146 116.977952 
L 90.289624 114.624887 
L 92.322103 112.623541 
L 94.354581 110.968101 
L 96.387059 109.651991 
L 98.419538 108.667888 
L 99.943897 108.142881 
L 101.468255 107.79647 
L 102.992614 107.624796 
L 104.516973 107.62379 
L 106.549451 107.880532 
L 108.58193 108.422443 
L 110.614408 109.238312 
L 112.646886 110.316387 
L 114.679365 111.64441 
L 116.711843 113.209651 
L 119.252441 115.479691 
L 121.793039 118.073194 
L 124.333637 120.962707 
L 127.382355 124.781107 
L 130.939192 129.656639 
L 134.496029 134.908115 
L 139.069105 142.080088 
L 145.67466 152.940491 
L 156.345171 170.517779 
L 160.918248 177.621307 
L 164.983204 183.534793 
L 168.540042 188.316991 
L 171.588759 192.074765 
L 174.637477 195.478942 
L 177.178075 198.021336 
L 179.718673 200.276995 
L 182.259271 202.229651 
L 184.799869 203.864641 
L 186.832347 204.93512 
L 188.864825 205.788067 
L 190.897304 206.418327 
L 192.929782 206.82147 
L 194.96226 206.993806 
L 196.994739 206.932389 
L 199.027217 206.635031 
L 201.059696 206.100298 
L 203.092174 205.327523 
L 205.124652 204.316802 
L 207.157131 203.068993 
L 209.189609 201.585718 
L 211.222087 199.869357 
L 213.762685 197.40097 
L 216.303283 194.581084 
L 218.843881 191.419238 
L 221.384479 187.926725 
L 224.433197 183.317652 
L 227.481914 178.276842 
L 230.530632 172.833213 
L 234.087469 166.016138 
L 238.152426 157.679493 
L 242.725502 147.71519 
L 247.806698 136.084085 
L 255.428492 117.984288 
L 266.099004 92.650999 
L 271.180199 81.155636 
L 275.245156 72.448595 
L 278.801993 65.29072 
L 282.358831 58.646449 
L 285.407548 53.41885 
L 288.456266 48.672461 
L 290.996864 45.117336 
L 293.537462 41.952722 
L 295.56994 39.718243 
L 297.602418 37.760577 
L 299.634897 36.090793 
L 301.667375 34.719381 
L 303.699853 33.656216 
L 305.732332 32.910533 
L 307.256691 32.564794 
L 308.781049 32.405825 
L 310.305408 32.436752 
L 311.829767 32.660471 
L 313.354126 33.079636 
L 314.878485 33.696659 
L 316.402843 34.5137 
L 317.927202 35.532667 
L 319.95968 37.208204 
L 321.992159 39.248792 
L 324.024637 41.656757 
L 326.057116 44.433562 
L 328.089594 47.579793 
L 330.122072 51.09515 
L 332.66267 56.00652 
L 335.203268 61.488389 
L 337.743866 67.534214 
L 340.284464 74.135223 
L 342.825062 81.280418 
L 345.87378 90.554212 
L 348.922497 100.565459 
L 351.971215 111.282624 
L 354.003693 118.801997 
L 354.003693 118.801997 
" style="fill:none;stroke:#800080;stroke-linecap:square;stroke-width:2.7;"/>
   </g>
   <g id="patch_3">
    <path d="M 34.421875 239.95125 
L 34.421875 22.51125 
" style="fill:none;stroke:#808080;stroke-linecap:square;stroke-linejoin:miter;stroke-width:0.5;"/>
   </g>
   <g id="patch_4">
    <path d="M 34.421875 239.95125 
L 369.221875 239.95125 
" style="fill:none;stroke:#808080;stroke-linecap:square;stroke-linejoin:miter;stroke-width:0.5;"/>
   </g>
   <g id="text_16">
    <!-- Posterior -->
    <defs>
     <path d="M 27 70 
Q 41.59375 70 49.4375 64.453125 
Q 57.296875 58.90625 57.296875 47.90625 
Q 57.296875 41.90625 55.140625 37.65625 
Q 53 33.40625 48.953125 30.75 
Q 44.90625 28.09375 39.09375 26.890625 
Q 33.296875 25.703125 26 25.703125 
L 18.296875 25.703125 
L 18.296875 0 
L 8.59375 0 
L 8.59375 68.296875 
Q 12.703125 69.296875 17.75 69.640625 
Q 22.796875 70 27 70 
z
M 27.796875 61.5 
Q 21.59375 61.5 18.296875 61.203125 
L 18.296875 34 
L 25.59375 34 
Q 30.59375 34 34.59375 34.640625 
Q 38.59375 35.296875 41.34375 36.84375 
Q 44.09375 38.40625 45.59375 41.09375 
Q 47.09375 43.796875 47.09375 48 
Q 47.09375 52 45.546875 54.59375 
Q 44 57.203125 41.34375 58.75 
Q 38.703125 60.296875 35.203125 60.890625 
Q 31.703125 61.5 27.796875 61.5 
z
" id="Ubuntu-80"/>
     <path d="M 20.09375 6.703125 
Q 25.796875 6.703125 28.546875 8.203125 
Q 31.296875 9.703125 31.296875 13 
Q 31.296875 16.40625 28.59375 18.40625 
Q 25.90625 20.40625 19.703125 22.90625 
Q 16.703125 24.09375 13.953125 25.34375 
Q 11.203125 26.59375 9.203125 28.296875 
Q 7.203125 30 6 32.390625 
Q 4.796875 34.796875 4.796875 38.296875 
Q 4.796875 45.203125 9.890625 49.25 
Q 15 53.296875 23.796875 53.296875 
Q 26 53.296875 28.203125 53.046875 
Q 30.40625 52.796875 32.296875 52.4375 
Q 34.203125 52.09375 35.640625 51.6875 
Q 37.09375 51.296875 37.90625 51 
L 36.203125 43 
Q 34.703125 43.796875 31.5 44.640625 
Q 28.296875 45.5 23.796875 45.5 
Q 19.90625 45.5 17 43.953125 
Q 14.09375 42.40625 14.09375 39.09375 
Q 14.09375 37.40625 14.75 36.09375 
Q 15.40625 34.796875 16.75 33.75 
Q 18.09375 32.703125 20.09375 31.796875 
Q 22.09375 30.90625 24.90625 29.90625 
Q 28.59375 28.5 31.5 27.140625 
Q 34.40625 25.796875 36.453125 24 
Q 38.5 22.203125 39.59375 19.640625 
Q 40.703125 17.09375 40.703125 13.40625 
Q 40.703125 6.203125 35.34375 2.5 
Q 30 -1.203125 20.09375 -1.203125 
Q 13.203125 -1.203125 9.296875 -0.046875 
Q 5.40625 1.09375 4 1.703125 
L 5.703125 9.703125 
Q 7.296875 9.09375 10.796875 7.890625 
Q 14.296875 6.703125 20.09375 6.703125 
z
" id="Ubuntu-115"/>
     <path d="M 27.203125 53.09375 
Q 28.40625 53.09375 29.953125 52.9375 
Q 31.5 52.796875 33 52.546875 
Q 34.5 52.296875 35.75 52.046875 
Q 37 51.796875 37.59375 51.59375 
L 36 43.5 
Q 34.90625 43.90625 32.34375 44.453125 
Q 29.796875 45 25.796875 45 
Q 23.203125 45 20.640625 44.453125 
Q 18.09375 43.90625 17.296875 43.703125 
L 17.296875 0 
L 8 0 
L 8 49.796875 
Q 11.296875 51 16.1875 52.046875 
Q 21.09375 53.09375 27.203125 53.09375 
z
" id="Ubuntu-114"/>
     <path d="M 17.296875 0 
L 8 0 
L 8 52 
L 17.296875 52 
z
M 12.59375 61.40625 
Q 10.09375 61.40625 8.34375 63.046875 
Q 6.59375 64.703125 6.59375 67.5 
Q 6.59375 70.296875 8.34375 71.9375 
Q 10.09375 73.59375 12.59375 73.59375 
Q 15.09375 73.59375 16.84375 71.9375 
Q 18.59375 70.296875 18.59375 67.5 
Q 18.59375 64.703125 16.84375 63.046875 
Q 15.09375 61.40625 12.59375 61.40625 
z
" id="Ubuntu-105"/>
    </defs>
    <g transform="translate(176.505625 16.51125)scale(0.12 -0.12)">
     <use xlink:href="#Ubuntu-80"/>
     <use x="60.768738" xlink:href="#Ubuntu-111"/>
     <use x="119.768723" xlink:href="#Ubuntu-115"/>
     <use x="164.368713" xlink:href="#Ubuntu-116"/>
     <use x="204.553085" xlink:href="#Ubuntu-101"/>
     <use x="260.453079" xlink:href="#Ubuntu-114"/>
     <use x="299.05307" xlink:href="#Ubuntu-105"/>
     <use x="324.353058" xlink:href="#Ubuntu-111"/>
     <use x="383.353043" xlink:href="#Ubuntu-114"/>
    </g>
   </g>
   <g id="legend_1">
    <g id="patch_5">
     <path d="M 389.613875 89.78 
L 499.281063 89.78 
Q 501.281063 89.78 501.281063 87.78 
L 501.281063 29.51125 
Q 501.281063 27.51125 499.281063 27.51125 
L 389.613875 27.51125 
Q 387.613875 27.51125 387.613875 29.51125 
L 387.613875 87.78 
Q 387.613875 89.78 389.613875 89.78 
z
" style="fill:#ffffff;opacity:0.8;stroke:#cccccc;stroke-linejoin:miter;stroke-width:0.24;"/>
    </g>
    <g id="line2d_29">
     <path d="M 391.613875 35.91125 
L 411.613875 35.91125 
" style="fill:none;stroke:#000000;stroke-linecap:square;stroke-width:2.7;"/>
    </g>
    <g id="line2d_30"/>
    <g id="text_17">
     <!-- Predicted ($\mu$) -->
     <defs>
      <path d="M 17.09375 29.90625 
Q 17.09375 17.09375 20.796875 6.1875 
Q 24.5 -4.703125 31.703125 -14 
L 25.09375 -18.5 
Q 17.296875 -9 12.546875 3.34375 
Q 7.796875 15.703125 7.796875 29.90625 
Q 7.796875 44.09375 12.546875 56.4375 
Q 17.296875 68.796875 25.09375 78.296875 
L 31.703125 73.796875 
Q 24.5 64.5 20.796875 53.59375 
Q 17.09375 42.703125 17.09375 29.90625 
z
" id="Ubuntu-40"/>
      <path d="M -1.3125 -20.796875 
L 13.375 54.6875 
L 22.40625 54.6875 
L 15.765625 20.65625 
Q 15.578125 19.625 15.421875 18.359375 
Q 15.28125 17.09375 15.28125 15.828125 
Q 15.28125 11.28125 18.140625 8.828125 
Q 21 6.390625 26.3125 6.390625 
Q 33.546875 6.390625 37.984375 10.484375 
Q 42.4375 14.59375 44 22.796875 
L 50.203125 54.6875 
L 59.1875 54.6875 
L 51.03125 12.640625 
Q 50.828125 11.71875 50.75 11.03125 
Q 50.6875 10.359375 50.6875 9.8125 
Q 50.6875 8.296875 51.296875 7.59375 
Q 51.90625 6.890625 53.21875 6.890625 
Q 53.71875 6.890625 54.5625 7.125 
Q 55.421875 7.375 56.984375 8.015625 
L 55.609375 0.78125 
Q 53.46875 -0.296875 51.515625 -0.859375 
Q 49.5625 -1.421875 47.703125 -1.421875 
Q 44.484375 -1.421875 42.65625 0.625 
Q 40.828125 2.6875 40.828125 6.296875 
Q 38.09375 2.390625 34.296875 0.484375 
Q 30.515625 -1.421875 25.390625 -1.421875 
Q 20.84375 -1.421875 17.453125 0.671875 
Q 14.0625 2.78125 12.984375 6.203125 
L 7.71875 -20.796875 
z
" id="DejaVuSans-Oblique-956"/>
      <path d="M 15.296875 29.90625 
Q 15.296875 42.703125 11.59375 53.59375 
Q 7.90625 64.5 0.703125 73.796875 
L 7.296875 78.296875 
Q 15.09375 68.796875 19.84375 56.4375 
Q 24.59375 44.09375 24.59375 29.90625 
Q 24.59375 15.703125 19.84375 3.34375 
Q 15.09375 -9 7.296875 -18.5 
L 0.703125 -14 
Q 7.90625 -4.703125 11.59375 6.1875 
Q 15.296875 17.09375 15.296875 29.90625 
z
" id="Ubuntu-41"/>
     </defs>
     <g transform="translate(419.613875 39.41125)scale(0.1 -0.1)">
      <use transform="translate(0 0.703125)" xlink:href="#Ubuntu-80"/>
      <use transform="translate(60.799988 0.703125)" xlink:href="#Ubuntu-114"/>
      <use transform="translate(99.399979 0.703125)" xlink:href="#Ubuntu-101"/>
      <use transform="translate(155.299973 0.703125)" xlink:href="#Ubuntu-100"/>
      <use transform="translate(214.199966 0.703125)" xlink:href="#Ubuntu-105"/>
      <use transform="translate(239.499954 0.703125)" xlink:href="#Ubuntu-99"/>
      <use transform="translate(285.999939 0.703125)" xlink:href="#Ubuntu-116"/>
      <use transform="translate(326.199936 0.703125)" xlink:href="#Ubuntu-101"/>
      <use transform="translate(382.09993 0.703125)" xlink:href="#Ubuntu-100"/>
      <use transform="translate(440.999924 0.703125)" xlink:href="#Ubuntu-32"/>
      <use transform="translate(464.099915 0.703125)" xlink:href="#Ubuntu-40"/>
      <use transform="translate(496.499908 0.703125)" xlink:href="#DejaVuSans-Oblique-956"/>
      <use transform="translate(560.122955 0.703125)" xlink:href="#Ubuntu-41"/>
     </g>
    </g>
    <g id="line2d_31">
     <path d="M 391.613875 50.91125 
L 411.613875 50.91125 
" style="fill:none;stroke:#800080;stroke-linecap:square;stroke-width:2.7;"/>
    </g>
    <g id="line2d_32"/>
    <g id="text_18">
     <!-- Ground Truth ($f$) -->
     <defs>
      <path d="M 49.40625 1.5 
Q 46.203125 0.703125 40.953125 -0.1875 
Q 35.703125 -1.09375 28.796875 -1.09375 
Q 22.796875 -1.09375 18.6875 0.65625 
Q 14.59375 2.40625 12.09375 5.59375 
Q 9.59375 8.796875 8.5 13.140625 
Q 7.40625 17.5 7.40625 22.796875 
L 7.40625 52 
L 16.703125 52 
L 16.703125 24.796875 
Q 16.703125 15.296875 19.703125 11.1875 
Q 22.703125 7.09375 29.796875 7.09375 
Q 31.296875 7.09375 32.890625 7.1875 
Q 34.5 7.296875 35.890625 7.4375 
Q 37.296875 7.59375 38.4375 7.75 
Q 39.59375 7.90625 40.09375 8.09375 
L 40.09375 52 
L 49.40625 52 
z
" id="Ubuntu-117"/>
      <path d="M 54.90625 69.296875 
L 54.90625 60.90625 
L 33.09375 60.90625 
L 33.09375 0 
L 23.40625 0 
L 23.40625 60.90625 
L 1.59375 60.90625 
L 1.59375 69.296875 
z
" id="Ubuntu-84"/>
      <path d="M 8 0 
L 8 76 
L 17.296875 77.59375 
L 17.296875 51 
Q 19.90625 52 22.84375 52.546875 
Q 25.796875 53.09375 28.703125 53.09375 
Q 34.90625 53.09375 39 51.34375 
Q 43.09375 49.59375 45.546875 46.4375 
Q 48 43.296875 49 38.890625 
Q 50 34.5 50 29.203125 
L 50 0 
L 40.703125 0 
L 40.703125 27.203125 
Q 40.703125 32 40.046875 35.390625 
Q 39.40625 38.796875 37.90625 40.890625 
Q 36.40625 43 33.90625 43.953125 
Q 31.40625 44.90625 27.703125 44.90625 
Q 26.203125 44.90625 24.59375 44.703125 
Q 23 44.5 21.546875 44.25 
Q 20.09375 44 18.9375 43.703125 
Q 17.796875 43.40625 17.296875 43.203125 
L 17.296875 0 
z
" id="Ubuntu-104"/>
      <path d="M 47.796875 75.984375 
L 46.390625 68.5 
L 37.796875 68.5 
Q 32.90625 68.5 30.6875 66.578125 
Q 28.46875 64.65625 27.390625 59.515625 
L 26.421875 54.6875 
L 41.21875 54.6875 
L 39.890625 47.703125 
L 25.09375 47.703125 
L 15.828125 0 
L 6.78125 0 
L 16.109375 47.703125 
L 7.515625 47.703125 
L 8.796875 54.6875 
L 17.390625 54.6875 
L 18.109375 58.5 
Q 19.96875 68.171875 24.625 72.078125 
Q 29.296875 75.984375 39.3125 75.984375 
z
" id="DejaVuSans-Oblique-102"/>
     </defs>
     <g transform="translate(419.613875 54.41125)scale(0.1 -0.1)">
      <use transform="translate(0 0.703125)" xlink:href="#Ubuntu-71"/>
      <use transform="translate(67.199997 0.703125)" xlink:href="#Ubuntu-114"/>
      <use transform="translate(105.799988 0.703125)" xlink:href="#Ubuntu-111"/>
      <use transform="translate(164.799973 0.703125)" xlink:href="#Ubuntu-117"/>
      <use transform="translate(222.199966 0.703125)" xlink:href="#Ubuntu-110"/>
      <use transform="translate(279.59996 0.703125)" xlink:href="#Ubuntu-100"/>
      <use transform="translate(338.499954 0.703125)" xlink:href="#Ubuntu-32"/>
      <use transform="translate(361.599945 0.703125)" xlink:href="#Ubuntu-84"/>
      <use transform="translate(418.09993 0.703125)" xlink:href="#Ubuntu-114"/>
      <use transform="translate(456.699921 0.703125)" xlink:href="#Ubuntu-117"/>
      <use transform="translate(514.099915 0.703125)" xlink:href="#Ubuntu-116"/>
      <use transform="translate(554.299911 0.703125)" xlink:href="#Ubuntu-104"/>
      <use transform="translate(611.399902 0.703125)" xlink:href="#Ubuntu-32"/>
      <use transform="translate(634.499893 0.703125)" xlink:href="#Ubuntu-40"/>
      <use transform="translate(666.899887 0.703125)" xlink:href="#DejaVuSans-Oblique-102"/>
      <use transform="translate(702.104965 0.703125)" xlink:href="#Ubuntu-41"/>
     </g>
    </g>
    <g id="patch_6">
     <path d="M 391.613875 69.070625 
L 411.613875 69.070625 
L 411.613875 62.070625 
L 391.613875 62.070625 
z
" style="fill:#808080;opacity:0.3;stroke:#808080;stroke-linejoin:miter;stroke-width:0.24;"/>
    </g>
    <g id="text_19">
     <!-- $\mu \pm \sigma$ -->
     <defs>
      <path d="M 46 62.703125 
L 46 43.796875 
L 73.1875 43.796875 
L 73.1875 35.5 
L 46 35.5 
L 46 16.609375 
L 37.796875 16.609375 
L 37.796875 35.5 
L 10.59375 35.5 
L 10.59375 43.796875 
L 37.796875 43.796875 
L 37.796875 62.703125 
z
M 10.59375 8.296875 
L 73.1875 8.296875 
L 73.1875 0 
L 10.59375 0 
z
" id="DejaVuSans-177"/>
      <path d="M 34.671875 47.5625 
Q 27.25 47.5625 22.21875 42.1875 
Q 16.890625 36.578125 15.140625 27.296875 
Q 13.1875 17.484375 16.3125 11.8125 
Q 19.390625 6.203125 26.65625 6.203125 
Q 33.84375 6.203125 39.109375 11.859375 
Q 44.4375 17.53125 46.34375 27.296875 
Q 48.046875 36.234375 45.015625 42.1875 
Q 42.1875 47.5625 34.671875 47.5625 
z
M 36.078125 54.734375 
L 65.921875 54.6875 
L 64.15625 45.703125 
L 54.109375 45.703125 
Q 57.90625 38.09375 55.859375 27.296875 
Q 53.21875 13.875 45.0625 6.25 
Q 36.859375 -1.421875 25.140625 -1.421875 
Q 13.375 -1.421875 8.203125 6.25 
Q 3.03125 13.875 5.671875 27.296875 
Q 8.25 40.765625 16.40625 48.390625 
Q 23.1875 54.734375 36.078125 54.734375 
z
" id="DejaVuSans-Oblique-963"/>
     </defs>
     <g transform="translate(419.613875 69.070625)scale(0.1 -0.1)">
      <use transform="translate(0 0.296875)" xlink:href="#DejaVuSans-Oblique-956"/>
      <use transform="translate(83.105469 0.296875)" xlink:href="#DejaVuSans-177"/>
      <use transform="translate(186.376953 0.296875)" xlink:href="#DejaVuSans-Oblique-963"/>
     </g>
    </g>
    <g id="PathCollection_1">
     <defs>
      <path d="M 0 8.660254 
C 2.296726 8.660254 4.499694 7.747755 6.123724 6.123724 
C 7.747755 4.499694 8.660254 2.296726 8.660254 0 
C 8.660254 -2.296726 7.747755 -4.499694 6.123724 -6.123724 
C 4.499694 -7.747755 2.296726 -8.660254 0 -8.660254 
C -2.296726 -8.660254 -4.499694 -7.747755 -6.123724 -6.123724 
C -7.747755 -4.499694 -8.660254 -2.296726 -8.660254 0 
C -8.660254 2.296726 -7.747755 4.499694 -6.123724 6.123724 
C -4.499694 7.747755 -2.296726 8.660254 0 8.660254 
z
" id="m19f6cb7f3e" style="stroke:#ff0000;stroke-width:0.24;"/>
     </defs>
     <g>
      <use style="fill:#ff0000;stroke:#ff0000;stroke-width:0.24;" x="401.613875" xlink:href="#m19f6cb7f3e" y="81.305"/>
     </g>
    </g>
    <g id="text_20">
     <!-- Last Added Point -->
     <defs>
      <path d="M 50.296875 8.40625 
L 50.296875 0 
L 8.59375 0 
L 8.59375 69.296875 
L 18.296875 69.296875 
L 18.296875 8.40625 
z
" id="Ubuntu-76"/>
      <path d="M 25.59375 6.703125 
Q 28.90625 6.703125 31.453125 6.84375 
Q 34 7 35.703125 7.40625 
L 35.703125 22.90625 
Q 34.703125 23.40625 32.453125 23.75 
Q 30.203125 24.09375 27 24.09375 
Q 24.90625 24.09375 22.546875 23.796875 
Q 20.203125 23.5 18.25 22.546875 
Q 16.296875 21.59375 15 19.9375 
Q 13.703125 18.296875 13.703125 15.59375 
Q 13.703125 10.59375 16.890625 8.640625 
Q 20.09375 6.703125 25.59375 6.703125 
z
M 24.796875 53.296875 
Q 30.40625 53.296875 34.25 51.84375 
Q 38.09375 50.40625 40.4375 47.75 
Q 42.796875 45.09375 43.796875 41.4375 
Q 44.796875 37.796875 44.796875 33.40625 
L 44.796875 0.90625 
Q 43.59375 0.703125 41.4375 0.34375 
Q 39.296875 0 36.59375 -0.296875 
Q 33.90625 -0.59375 30.75 -0.84375 
Q 27.59375 -1.09375 24.5 -1.09375 
Q 20.09375 -1.09375 16.390625 -0.1875 
Q 12.703125 0.703125 10 2.640625 
Q 7.296875 4.59375 5.796875 7.796875 
Q 4.296875 11 4.296875 15.5 
Q 4.296875 19.796875 6.046875 22.890625 
Q 7.796875 26 10.796875 27.890625 
Q 13.796875 29.796875 17.796875 30.6875 
Q 21.796875 31.59375 26.203125 31.59375 
Q 27.59375 31.59375 29.09375 31.4375 
Q 30.59375 31.296875 31.9375 31.046875 
Q 33.296875 30.796875 34.296875 30.59375 
Q 35.296875 30.40625 35.703125 30.296875 
L 35.703125 32.90625 
Q 35.703125 35.203125 35.203125 37.453125 
Q 34.703125 39.703125 33.390625 41.453125 
Q 32.09375 43.203125 29.84375 44.25 
Q 27.59375 45.296875 24 45.296875 
Q 19.40625 45.296875 15.953125 44.640625 
Q 12.5 44 10.796875 43.296875 
L 9.703125 51 
Q 11.5 51.796875 15.703125 52.546875 
Q 19.90625 53.296875 24.796875 53.296875 
z
" id="Ubuntu-97"/>
      <path d="M 54.90625 0 
Q 53.203125 4.5 51.703125 8.84375 
Q 50.203125 13.203125 48.59375 17.703125 
L 17.203125 17.703125 
L 10.90625 0 
L 0.796875 0 
Q 4.796875 11 8.296875 20.34375 
Q 11.796875 29.703125 15.140625 38.09375 
Q 18.5 46.5 21.796875 54.140625 
Q 25.09375 61.796875 28.703125 69.296875 
L 37.59375 69.296875 
Q 41.203125 61.796875 44.5 54.140625 
Q 47.796875 46.5 51.140625 38.09375 
Q 54.5 29.703125 58 20.34375 
Q 61.5 11 65.5 0 
z
M 45.796875 25.703125 
Q 42.59375 34.40625 39.4375 42.546875 
Q 36.296875 50.703125 32.90625 58.203125 
Q 29.40625 50.703125 26.25 42.546875 
Q 23.09375 34.40625 20 25.703125 
z
" id="Ubuntu-65"/>
     </defs>
     <g transform="translate(419.613875 83.93)scale(0.1 -0.1)">
      <use xlink:href="#Ubuntu-76"/>
      <use x="51.899994" xlink:href="#Ubuntu-97"/>
      <use x="104.099991" xlink:href="#Ubuntu-115"/>
      <use x="148.699982" xlink:href="#Ubuntu-116"/>
      <use x="188.899979" xlink:href="#Ubuntu-32"/>
      <use x="211.999969" xlink:href="#Ubuntu-65"/>
      <use x="278.284332" xlink:href="#Ubuntu-100"/>
      <use x="337.184326" xlink:href="#Ubuntu-100"/>
      <use x="396.08432" xlink:href="#Ubuntu-101"/>
      <use x="451.984314" xlink:href="#Ubuntu-100"/>
      <use x="510.884308" xlink:href="#Ubuntu-32"/>
      <use x="533.984299" xlink:href="#Ubuntu-80"/>
      <use x="594.753036" xlink:href="#Ubuntu-111"/>
      <use x="653.753021" xlink:href="#Ubuntu-105"/>
      <use x="679.053009" xlink:href="#Ubuntu-110"/>
      <use x="736.453003" xlink:href="#Ubuntu-116"/>
     </g>
    </g>
   </g>
   <g id="PathCollection_2">
    <g clip-path="url(#p1ebe8fc146)">
     <use style="fill:#ff0000;stroke:#ff0000;stroke-width:0.24;" x="75.003693" xlink:href="#m19f6cb7f3e" y="141.216802"/>
    </g>
   </g>
  </g>
 </g>
 <defs>
  <clipPath id="p1ebe8fc146">
   <rect height="217.44" width="334.8" x="34.421875" y="22.51125"/>
  </clipPath>
 </defs>
</svg>
