<?xml version="1.0" encoding="utf-8" standalone="no"?>
<!DOCTYPE svg PUBLIC "-//W3C//DTD SVG 1.1//EN"
  "http://www.w3.org/Graphics/SVG/1.1/DTD/svg11.dtd">
<!-- Created with matplotlib (https://matplotlib.org/) -->
<svg height="262.19625pt" version="1.1" viewBox="0 0 515.03575 262.19625" width="515.03575pt" xmlns="http://www.w3.org/2000/svg" xmlns:xlink="http://www.w3.org/1999/xlink">
 <defs>
  <style type="text/css">
*{stroke-linecap:butt;stroke-linejoin:round;white-space:pre;}
  </style>
 </defs>
 <g id="figure_1">
  <g id="patch_1">
   <path d="M 0 262.19625 
L 515.03575 262.19625 
L 515.03575 0 
L 0 0 
z
" style="fill:#ffffff;"/>
  </g>
  <g id="axes_1">
   <g id="patch_2">
    <path d="M 34.240625 224.64 
L 369.040625 224.64 
L 369.040625 7.2 
L 34.240625 7.2 
z
" style="fill:#ffffff;"/>
   </g>
   <g id="PolyCollection_1">
    <defs>
     <path d="M 49.458807 -144.22415 
L 49.458807 -170.931425 
L 49.966926 -171.470309 
L 50.475046 -172.003792 
L 50.983166 -172.531535 
L 51.491285 -173.05319 
L 51.999405 -173.568398 
L 52.507524 -174.076792 
L 53.015644 -174.577991 
L 53.523764 -175.071608 
L 54.031883 -175.557241 
L 54.540003 -176.034479 
L 55.048122 -176.5029 
L 55.556242 -176.962068 
L 56.064362 -177.411539 
L 56.572481 -177.850854 
L 57.080601 -178.279543 
L 57.58872 -178.697121 
L 58.09684 -179.103094 
L 58.604959 -179.496951 
L 59.113079 -179.878171 
L 59.621199 -180.246216 
L 60.129318 -180.600535 
L 60.637438 -180.940565 
L 61.145557 -181.265726 
L 61.653677 -181.575422 
L 62.161797 -181.869044 
L 62.669916 -182.145968 
L 63.178036 -182.40555 
L 63.686155 -182.647135 
L 64.194275 -182.870047 
L 64.702395 -183.073596 
L 65.210514 -183.257074 
L 65.718634 -183.419754 
L 66.226753 -183.560893 
L 66.734873 -183.679728 
L 67.242993 -183.775479 
L 67.751112 -183.847346 
L 68.259232 -183.89451 
L 68.767351 -183.91613 
L 69.275471 -183.91135 
L 69.783591 -183.879287 
L 70.29171 -183.819043 
L 70.79983 -183.729694 
L 71.307949 -183.610297 
L 71.816069 -183.459886 
L 72.324189 -183.277473 
L 72.832308 -183.062046 
L 73.340428 -182.81257 
L 73.848547 -182.527989 
L 74.356667 -182.207218 
L 74.864786 -181.911467 
L 75.372906 -182.263239 
L 75.881026 -182.577902 
L 76.389145 -182.856559 
L 76.897265 -183.100286 
L 77.405384 -183.31014 
L 77.913504 -183.48715 
L 78.421624 -183.632324 
L 78.929743 -183.746646 
L 79.437863 -183.831079 
L 79.945982 -183.886564 
L 80.454102 -183.914017 
L 80.962222 -183.914337 
L 81.470341 -183.8884 
L 81.978461 -183.837061 
L 82.48658 -183.761157 
L 82.9947 -183.661504 
L 83.50282 -183.538898 
L 84.010939 -183.394116 
L 84.519059 -183.227919 
L 85.027178 -183.041046 
L 85.535298 -182.834221 
L 86.043418 -182.608149 
L 86.551537 -182.363518 
L 87.059657 -182.101 
L 87.567776 -181.82125 
L 88.075896 -181.524905 
L 88.584015 -181.21259 
L 89.092135 -180.88491 
L 89.600255 -180.542459 
L 90.108374 -180.185813 
L 90.616494 -179.815534 
L 91.124613 -179.432172 
L 91.632733 -179.036259 
L 92.140853 -178.628317 
L 92.648972 -178.208853 
L 93.157092 -177.77836 
L 93.665211 -177.33732 
L 94.173331 -176.886202 
L 94.681451 -176.42546 
L 95.18957 -175.95554 
L 95.69769 -175.476874 
L 96.205809 -174.989882 
L 96.713929 -174.494974 
L 97.222049 -173.992549 
L 97.730168 -173.482993 
L 98.238288 -172.966685 
L 98.746407 -172.443991 
L 99.254527 -171.915267 
L 99.762647 -171.380861 
L 100.270766 -170.841109 
L 100.778886 -170.296339 
L 101.287005 -169.746869 
L 101.795125 -169.193009 
L 102.303245 -168.635059 
L 102.811364 -168.073312 
L 103.319484 -167.50805 
L 103.827603 -166.939549 
L 104.335723 -166.368076 
L 104.843842 -165.79389 
L 105.351962 -165.217244 
L 105.860082 -164.638381 
L 106.368201 -164.057538 
L 106.876321 -163.474944 
L 107.38444 -162.890823 
L 107.89256 -162.30539 
L 108.40068 -161.718854 
L 108.908799 -161.131418 
L 109.416919 -160.543278 
L 109.925038 -159.954625 
L 110.433158 -159.365641 
L 110.941278 -158.776506 
L 111.449397 -158.187391 
L 111.957517 -157.598463 
L 112.465636 -157.009883 
L 112.973756 -156.421808 
L 113.481876 -155.834387 
L 113.989995 -155.247766 
L 114.498115 -154.662085 
L 115.006234 -154.077481 
L 115.514354 -153.494083 
L 116.022474 -152.912019 
L 116.530593 -152.331409 
L 117.038713 -151.752371 
L 117.546832 -151.175018 
L 118.054952 -150.599459 
L 118.563072 -150.025798 
L 119.071191 -149.454137 
L 119.579311 -148.884572 
L 120.08743 -148.317197 
L 120.59555 -147.7521 
L 121.103669 -147.189368 
L 121.611789 -146.629083 
L 122.119909 -146.071325 
L 122.628028 -145.516168 
L 123.136148 -144.963685 
L 123.644267 -144.413945 
L 124.152387 -143.867016 
L 124.660507 -143.322959 
L 125.168626 -142.781835 
L 125.676746 -142.243703 
L 126.184865 -141.708616 
L 126.692985 -141.176627 
L 127.201105 -140.647786 
L 127.709224 -140.122139 
L 128.217344 -139.599731 
L 128.725463 -139.080604 
L 129.233583 -138.564798 
L 129.741703 -138.052351 
L 130.249822 -137.543298 
L 130.757942 -137.037673 
L 131.266061 -136.535505 
L 131.774181 -136.036826 
L 132.282301 -135.541661 
L 132.79042 -135.050037 
L 133.29854 -134.561976 
L 133.806659 -134.0775 
L 134.314779 -133.59663 
L 134.822898 -133.119384 
L 135.331018 -132.645778 
L 135.839138 -132.175827 
L 136.347257 -131.709545 
L 136.855377 -131.246943 
L 137.363496 -130.788033 
L 137.871616 -130.332824 
L 138.379736 -129.881322 
L 138.887855 -129.433536 
L 139.395975 -128.989469 
L 139.904094 -128.549126 
L 140.412214 -128.11251 
L 140.920334 -127.679622 
L 141.428453 -127.250463 
L 141.936573 -126.825031 
L 142.444692 -126.403327 
L 142.952812 -125.985346 
L 143.460932 -125.571085 
L 143.969051 -125.16054 
L 144.477171 -124.753705 
L 144.98529 -124.350574 
L 145.49341 -123.951139 
L 146.00153 -123.555393 
L 146.509649 -123.163326 
L 147.017769 -122.774929 
L 147.525888 -122.390191 
L 148.034008 -122.009102 
L 148.542128 -121.63165 
L 149.050247 -121.257823 
L 149.558367 -120.887606 
L 150.066486 -120.520988 
L 150.574606 -120.157953 
L 151.082725 -119.798486 
L 151.590845 -119.442574 
L 152.098965 -119.090198 
L 152.607084 -118.741344 
L 153.115204 -118.395995 
L 153.623323 -118.054133 
L 154.131443 -117.71574 
L 154.639563 -117.380799 
L 155.147682 -117.049291 
L 155.655802 -116.721197 
L 156.163921 -116.396498 
L 156.672041 -116.075175 
L 157.180161 -115.757207 
L 157.68828 -115.442574 
L 158.1964 -115.131256 
L 158.704519 -114.823233 
L 159.212639 -114.518482 
L 159.720759 -114.216984 
L 160.228878 -113.918715 
L 160.736998 -113.623656 
L 161.245117 -113.331783 
L 161.753237 -113.043075 
L 162.261357 -112.757509 
L 162.769476 -112.475063 
L 163.277596 -112.195714 
L 163.785715 -111.91944 
L 164.293835 -111.646217 
L 164.801954 -111.376024 
L 165.310074 -111.108836 
L 165.818194 -110.84463 
L 166.326313 -110.583383 
L 166.834433 -110.325072 
L 167.342552 -110.069674 
L 167.850672 -109.817164 
L 168.358792 -109.567519 
L 168.866911 -109.320716 
L 169.375031 -109.076731 
L 169.88315 -108.83554 
L 170.39127 -108.59712 
L 170.89939 -108.361447 
L 171.407509 -108.128497 
L 171.915629 -107.898246 
L 172.423748 -107.670671 
L 172.931868 -107.445749 
L 173.439988 -107.223455 
L 173.948107 -107.003766 
L 174.456227 -106.786658 
L 174.964346 -106.572107 
L 175.472466 -106.360091 
L 175.980586 -106.150586 
L 176.488705 -105.943568 
L 176.996825 -105.739014 
L 177.504944 -105.536901 
L 178.013064 -105.337205 
L 178.521184 -105.139904 
L 179.029303 -104.944974 
L 179.537423 -104.752392 
L 180.045542 -104.562136 
L 180.553662 -104.374183 
L 181.061781 -104.188509 
L 181.569901 -104.005093 
L 182.078021 -103.823911 
L 182.58614 -103.644942 
L 183.09426 -103.468164 
L 183.602379 -103.293553 
L 184.110499 -103.121088 
L 184.618619 -102.950747 
L 185.126738 -102.782508 
L 185.634858 -102.61635 
L 186.142977 -102.45225 
L 186.651097 -102.290188 
L 187.159217 -102.130141 
L 187.667336 -101.97209 
L 188.175456 -101.816012 
L 188.683575 -101.661886 
L 189.191695 -101.509693 
L 189.699815 -101.359411 
L 190.207934 -101.21102 
L 190.716054 -101.064498 
L 191.224173 -100.919827 
L 191.732293 -100.776986 
L 192.240413 -100.635954 
L 192.748532 -100.496713 
L 193.256652 -100.359242 
L 193.764771 -100.223522 
L 194.272891 -100.089533 
L 194.78101 -99.957256 
L 195.28913 -99.826673 
L 195.79725 -99.697763 
L 196.305369 -99.570509 
L 196.813489 -99.444891 
L 197.321608 -99.320892 
L 197.829728 -99.198492 
L 198.337848 -99.077673 
L 198.845967 -98.958418 
L 199.354087 -98.840709 
L 199.862206 -98.724527 
L 200.370326 -98.609856 
L 200.878446 -98.496677 
L 201.386565 -98.384974 
L 201.894685 -98.274729 
L 202.402804 -98.165925 
L 202.910924 -98.058546 
L 203.419044 -97.952574 
L 203.927163 -97.847993 
L 204.435283 -97.744788 
L 204.943402 -97.64294 
L 205.451522 -97.542435 
L 205.959642 -97.443257 
L 206.467761 -97.345389 
L 206.975881 -97.248817 
L 207.484 -97.153523 
L 207.99212 -97.059494 
L 208.50024 -96.966714 
L 209.008359 -96.875168 
L 209.516479 -96.784841 
L 210.024598 -96.695718 
L 210.532718 -96.607784 
L 211.040837 -96.521026 
L 211.548957 -96.435429 
L 212.057077 -96.350978 
L 212.565196 -96.267659 
L 213.073316 -96.18546 
L 213.581435 -96.104365 
L 214.089555 -96.024362 
L 214.597675 -95.945436 
L 215.105794 -95.867575 
L 215.613914 -95.790765 
L 216.122033 -95.714993 
L 216.630153 -95.640247 
L 217.138273 -95.566513 
L 217.646392 -95.493779 
L 218.154512 -95.422032 
L 218.662631 -95.35126 
L 219.170751 -95.281451 
L 219.678871 -95.212593 
L 220.18699 -95.144673 
L 220.69511 -95.077679 
L 221.203229 -95.011601 
L 221.711349 -94.946426 
L 222.219469 -94.882143 
L 222.727588 -94.81874 
L 223.235708 -94.756207 
L 223.743827 -94.694532 
L 224.251947 -94.633704 
L 224.760066 -94.573713 
L 225.268186 -94.514547 
L 225.776306 -94.456196 
L 226.284425 -94.39865 
L 226.792545 -94.341898 
L 227.300664 -94.28593 
L 227.808784 -94.230735 
L 228.316904 -94.176305 
L 228.825023 -94.122628 
L 229.333143 -94.069695 
L 229.841262 -94.017497 
L 230.349382 -93.966023 
L 230.857502 -93.915265 
L 231.365621 -93.865213 
L 231.873741 -93.815857 
L 232.38186 -93.767189 
L 232.88998 -93.7192 
L 233.3981 -93.671881 
L 233.906219 -93.625222 
L 234.414339 -93.579216 
L 234.922458 -93.533853 
L 235.430578 -93.489125 
L 235.938698 -93.445024 
L 236.446817 -93.401541 
L 236.954937 -93.358669 
L 237.463056 -93.316398 
L 237.971176 -93.274722 
L 238.479296 -93.233631 
L 238.987415 -93.193119 
L 239.495535 -93.153178 
L 240.003654 -93.1138 
L 240.511774 -93.074977 
L 241.019893 -93.036702 
L 241.528013 -92.998968 
L 242.036133 -92.961767 
L 242.544252 -92.925093 
L 243.052372 -92.888938 
L 243.560491 -92.853295 
L 244.068611 -92.818157 
L 244.576731 -92.783518 
L 245.08485 -92.74937 
L 245.59297 -92.715708 
L 246.101089 -92.682524 
L 246.609209 -92.649812 
L 247.117329 -92.617566 
L 247.625448 -92.585779 
L 248.133568 -92.554445 
L 248.641687 -92.523558 
L 249.149807 -92.493111 
L 249.657927 -92.4631 
L 250.166046 -92.433517 
L 250.674166 -92.404357 
L 251.182285 -92.375615 
L 251.690405 -92.347284 
L 252.198525 -92.319359 
L 252.706644 -92.291834 
L 253.214764 -92.264704 
L 253.722883 -92.237963 
L 254.231003 -92.211607 
L 254.739122 -92.185629 
L 255.247242 -92.160024 
L 255.755362 -92.134788 
L 256.263481 -92.109915 
L 256.771601 -92.0854 
L 257.27972 -92.061239 
L 257.78784 -92.037426 
L 258.29596 -92.013956 
L 258.804079 -91.990825 
L 259.312199 -91.968029 
L 259.820318 -91.945562 
L 260.328438 -91.923419 
L 260.836558 -91.901597 
L 261.344677 -91.880091 
L 261.852797 -91.858897 
L 262.360916 -91.838009 
L 262.869036 -91.817424 
L 263.377156 -91.797138 
L 263.885275 -91.777147 
L 264.393395 -91.757445 
L 264.901514 -91.73803 
L 265.409634 -91.718897 
L 265.917754 -91.700043 
L 266.425873 -91.681463 
L 266.933993 -91.663153 
L 267.442112 -91.64511 
L 267.950232 -91.62733 
L 268.458352 -91.609809 
L 268.966471 -91.592544 
L 269.474591 -91.575531 
L 269.98271 -91.558766 
L 270.49083 -91.542246 
L 270.998949 -91.525968 
L 271.507069 -91.509928 
L 272.015189 -91.494122 
L 272.523308 -91.478548 
L 273.031428 -91.463202 
L 273.539547 -91.44808 
L 274.047667 -91.433181 
L 274.555787 -91.4185 
L 275.063906 -91.404034 
L 275.572026 -91.38978 
L 276.080145 -91.375736 
L 276.588265 -91.361899 
L 277.096385 -91.348264 
L 277.604504 -91.33483 
L 278.112624 -91.321594 
L 278.620743 -91.308553 
L 279.128863 -91.295703 
L 279.636983 -91.283043 
L 280.145102 -91.27057 
L 280.653222 -91.25828 
L 281.161341 -91.246172 
L 281.669461 -91.234242 
L 282.177581 -91.222489 
L 282.6857 -91.210909 
L 283.19382 -91.1995 
L 283.701939 -91.18826 
L 284.210059 -91.177186 
L 284.718178 -91.166276 
L 285.226298 -91.155527 
L 285.734418 -91.144937 
L 286.242537 -91.134505 
L 286.750657 -91.124226 
L 287.258776 -91.114101 
L 287.766896 -91.104125 
L 288.275016 -91.094297 
L 288.783135 -91.084616 
L 289.291255 -91.075078 
L 289.799374 -91.065681 
L 290.307494 -91.056425 
L 290.815614 -91.047305 
L 291.323733 -91.038322 
L 291.831853 -91.029472 
L 292.339972 -91.020754 
L 292.848092 -91.012165 
L 293.356212 -91.003705 
L 293.864331 -90.99537 
L 294.372451 -90.98716 
L 294.88057 -90.979072 
L 295.38869 -90.971105 
L 295.89681 -90.963257 
L 296.404929 -90.955526 
L 296.913049 -90.94791 
L 297.421168 -90.940408 
L 297.929288 -90.933018 
L 298.437408 -90.925738 
L 298.945527 -90.918568 
L 299.453647 -90.911504 
L 299.961766 -90.904547 
L 300.469886 -90.897693 
L 300.978005 -90.890942 
L 301.486125 -90.884292 
L 301.994245 -90.877742 
L 302.502364 -90.87129 
L 303.010484 -90.864935 
L 303.518603 -90.858675 
L 304.026723 -90.852509 
L 304.534843 -90.846435 
L 305.042962 -90.840453 
L 305.551082 -90.83456 
L 306.059201 -90.828756 
L 306.567321 -90.82304 
L 307.075441 -90.817409 
L 307.58356 -90.811863 
L 308.09168 -90.8064 
L 308.599799 -90.80102 
L 309.107919 -90.79572 
L 309.616039 -90.7905 
L 310.124158 -90.785359 
L 310.632278 -90.780296 
L 311.140397 -90.775308 
L 311.648517 -90.770396 
L 312.156637 -90.765558 
L 312.664756 -90.760793 
L 313.172876 -90.7561 
L 313.680995 -90.751478 
L 314.189115 -90.746925 
L 314.697235 -90.742442 
L 315.205354 -90.738026 
L 315.713474 -90.733676 
L 316.221593 -90.729393 
L 316.729713 -90.725174 
L 317.237832 -90.721019 
L 317.745952 -90.716927 
L 318.254072 -90.712897 
L 318.762191 -90.708928 
L 319.270311 -90.705019 
L 319.77843 -90.701169 
L 320.28655 -90.697378 
L 320.79467 -90.693644 
L 321.302789 -90.689966 
L 321.810909 -90.686345 
L 322.319028 -90.682778 
L 322.827148 -90.679265 
L 323.335268 -90.675806 
L 323.843387 -90.672399 
L 324.351507 -90.669044 
L 324.859626 -90.66574 
L 325.367746 -90.662487 
L 325.875866 -90.659282 
L 326.383985 -90.656127 
L 326.892105 -90.653019 
L 327.400224 -90.649959 
L 327.908344 -90.646945 
L 328.416464 -90.643977 
L 328.924583 -90.641054 
L 329.432703 -90.638176 
L 329.940822 -90.635341 
L 330.448942 -90.63255 
L 330.957061 -90.629801 
L 331.465181 -90.627095 
L 331.973301 -90.624429 
L 332.48142 -90.621804 
L 332.98954 -90.619219 
L 333.497659 -90.616674 
L 334.005779 -90.614168 
L 334.513899 -90.611699 
L 335.022018 -90.609269 
L 335.530138 -90.606875 
L 336.038257 -90.604518 
L 336.546377 -90.602198 
L 337.054497 -90.599912 
L 337.562616 -90.597662 
L 338.070736 -90.595446 
L 338.578855 -90.593264 
L 339.086975 -90.591115 
L 339.595095 -90.588999 
L 340.103214 -90.586916 
L 340.611334 -90.584864 
L 341.119453 -90.582844 
L 341.627573 -90.580855 
L 342.135693 -90.578896 
L 342.643812 -90.576967 
L 343.151932 -90.575068 
L 343.660051 -90.573198 
L 344.168171 -90.571357 
L 344.676291 -90.569544 
L 345.18441 -90.567759 
L 345.69253 -90.566001 
L 346.200649 -90.56427 
L 346.708769 -90.562566 
L 347.216888 -90.560888 
L 347.725008 -90.559235 
L 348.233128 -90.557608 
L 348.741247 -90.556006 
L 349.249367 -90.554429 
L 349.757486 -90.552876 
L 350.265606 -90.551347 
L 350.773726 -90.549841 
L 351.281845 -90.548359 
L 351.789965 -90.546899 
L 352.298084 -90.545462 
L 352.806204 -90.544047 
L 353.314324 -90.542653 
L 353.822443 -90.541282 
L 353.822443 -47.439886 
L 353.822443 -47.439886 
L 353.314324 -47.441259 
L 352.806204 -47.442652 
L 352.298084 -47.444068 
L 351.789965 -47.445505 
L 351.281845 -47.446966 
L 350.773726 -47.448449 
L 350.265606 -47.449955 
L 349.757486 -47.451484 
L 349.249367 -47.453038 
L 348.741247 -47.454616 
L 348.233128 -47.456218 
L 347.725008 -47.457846 
L 347.216888 -47.459499 
L 346.708769 -47.461177 
L 346.200649 -47.462882 
L 345.69253 -47.464614 
L 345.18441 -47.466372 
L 344.676291 -47.468158 
L 344.168171 -47.469972 
L 343.660051 -47.471814 
L 343.151932 -47.473685 
L 342.643812 -47.475585 
L 342.135693 -47.477514 
L 341.627573 -47.479474 
L 341.119453 -47.481464 
L 340.611334 -47.483485 
L 340.103214 -47.485537 
L 339.595095 -47.487622 
L 339.086975 -47.489738 
L 338.578855 -47.491888 
L 338.070736 -47.494071 
L 337.562616 -47.496288 
L 337.054497 -47.49854 
L 336.546377 -47.500826 
L 336.038257 -47.503148 
L 335.530138 -47.505507 
L 335.022018 -47.507901 
L 334.513899 -47.510333 
L 334.005779 -47.512803 
L 333.497659 -47.515311 
L 332.98954 -47.517857 
L 332.48142 -47.520444 
L 331.973301 -47.52307 
L 331.465181 -47.525737 
L 330.957061 -47.528445 
L 330.448942 -47.531196 
L 329.940822 -47.533989 
L 329.432703 -47.536825 
L 328.924583 -47.539705 
L 328.416464 -47.542629 
L 327.908344 -47.545599 
L 327.400224 -47.548615 
L 326.892105 -47.551678 
L 326.383985 -47.554787 
L 325.875866 -47.557945 
L 325.367746 -47.561152 
L 324.859626 -47.564408 
L 324.351507 -47.567714 
L 323.843387 -47.571072 
L 323.335268 -47.574481 
L 322.827148 -47.577943 
L 322.319028 -47.581458 
L 321.810909 -47.585027 
L 321.302789 -47.588652 
L 320.79467 -47.592332 
L 320.28655 -47.596069 
L 319.77843 -47.599864 
L 319.270311 -47.603717 
L 318.762191 -47.607629 
L 318.254072 -47.611602 
L 317.745952 -47.615635 
L 317.237832 -47.619731 
L 316.729713 -47.62389 
L 316.221593 -47.628112 
L 315.713474 -47.6324 
L 315.205354 -47.636753 
L 314.697235 -47.641174 
L 314.189115 -47.645662 
L 313.680995 -47.650219 
L 313.172876 -47.654846 
L 312.664756 -47.659544 
L 312.156637 -47.664314 
L 311.648517 -47.669157 
L 311.140397 -47.674074 
L 310.632278 -47.679067 
L 310.124158 -47.684136 
L 309.616039 -47.689283 
L 309.107919 -47.694509 
L 308.599799 -47.699814 
L 308.09168 -47.705201 
L 307.58356 -47.710671 
L 307.075441 -47.716223 
L 306.567321 -47.721861 
L 306.059201 -47.727585 
L 305.551082 -47.733396 
L 305.042962 -47.739296 
L 304.534843 -47.745287 
L 304.026723 -47.751368 
L 303.518603 -47.757543 
L 303.010484 -47.763811 
L 302.502364 -47.770175 
L 301.994245 -47.776637 
L 301.486125 -47.783196 
L 300.978005 -47.789856 
L 300.469886 -47.796617 
L 299.961766 -47.803481 
L 299.453647 -47.810449 
L 298.945527 -47.817523 
L 298.437408 -47.824705 
L 297.929288 -47.831997 
L 297.421168 -47.839399 
L 296.913049 -47.846913 
L 296.404929 -47.854542 
L 295.89681 -47.862286 
L 295.38869 -47.870148 
L 294.88057 -47.878129 
L 294.372451 -47.886232 
L 293.864331 -47.894457 
L 293.356212 -47.902807 
L 292.848092 -47.911283 
L 292.339972 -47.919888 
L 291.831853 -47.928623 
L 291.323733 -47.93749 
L 290.815614 -47.946491 
L 290.307494 -47.955629 
L 289.799374 -47.964905 
L 289.291255 -47.974321 
L 288.783135 -47.983879 
L 288.275016 -47.993581 
L 287.766896 -48.00343 
L 287.258776 -48.013428 
L 286.750657 -48.023577 
L 286.242537 -48.033878 
L 285.734418 -48.044335 
L 285.226298 -48.054949 
L 284.718178 -48.065724 
L 284.210059 -48.076661 
L 283.701939 -48.087762 
L 283.19382 -48.09903 
L 282.6857 -48.110468 
L 282.177581 -48.122078 
L 281.669461 -48.133862 
L 281.161341 -48.145823 
L 280.653222 -48.157964 
L 280.145102 -48.170288 
L 279.636983 -48.182796 
L 279.128863 -48.195492 
L 278.620743 -48.208378 
L 278.112624 -48.221457 
L 277.604504 -48.234733 
L 277.096385 -48.248207 
L 276.588265 -48.261883 
L 276.080145 -48.275763 
L 275.572026 -48.289852 
L 275.063906 -48.30415 
L 274.555787 -48.318663 
L 274.047667 -48.333393 
L 273.539547 -48.348342 
L 273.031428 -48.363514 
L 272.523308 -48.378913 
L 272.015189 -48.394542 
L 271.507069 -48.410404 
L 270.998949 -48.426502 
L 270.49083 -48.44284 
L 269.98271 -48.459421 
L 269.474591 -48.476249 
L 268.966471 -48.493327 
L 268.458352 -48.510659 
L 267.950232 -48.528249 
L 267.442112 -48.5461 
L 266.933993 -48.564216 
L 266.425873 -48.582602 
L 265.917754 -48.60126 
L 265.409634 -48.620194 
L 264.901514 -48.63941 
L 264.393395 -48.65891 
L 263.885275 -48.678699 
L 263.377156 -48.698781 
L 262.869036 -48.71916 
L 262.360916 -48.73984 
L 261.852797 -48.760826 
L 261.344677 -48.782123 
L 260.836558 -48.803734 
L 260.328438 -48.825663 
L 259.820318 -48.847917 
L 259.312199 -48.870498 
L 258.804079 -48.893413 
L 258.29596 -48.916665 
L 257.78784 -48.94026 
L 257.27972 -48.964201 
L 256.771601 -48.988495 
L 256.263481 -49.013147 
L 255.755362 -49.03816 
L 255.247242 -49.063541 
L 254.739122 -49.089295 
L 254.231003 -49.115427 
L 253.722883 -49.141942 
L 253.214764 -49.168846 
L 252.706644 -49.196144 
L 252.198525 -49.223841 
L 251.690405 -49.251944 
L 251.182285 -49.280459 
L 250.674166 -49.30939 
L 250.166046 -49.338744 
L 249.657927 -49.368527 
L 249.149807 -49.398745 
L 248.641687 -49.429403 
L 248.133568 -49.460509 
L 247.625448 -49.492068 
L 247.117329 -49.524087 
L 246.609209 -49.556572 
L 246.101089 -49.589529 
L 245.59297 -49.622966 
L 245.08485 -49.656889 
L 244.576731 -49.691305 
L 244.068611 -49.72622 
L 243.560491 -49.761642 
L 243.052372 -49.797578 
L 242.544252 -49.834035 
L 242.036133 -49.871019 
L 241.528013 -49.908539 
L 241.019893 -49.946602 
L 240.511774 -49.985216 
L 240.003654 -50.024387 
L 239.495535 -50.064124 
L 238.987415 -50.104435 
L 238.479296 -50.145327 
L 237.971176 -50.186809 
L 237.463056 -50.228888 
L 236.954937 -50.271573 
L 236.446817 -50.314873 
L 235.938698 -50.358795 
L 235.430578 -50.403348 
L 234.922458 -50.448541 
L 234.414339 -50.494383 
L 233.906219 -50.540883 
L 233.3981 -50.588049 
L 232.88998 -50.635891 
L 232.38186 -50.684418 
L 231.873741 -50.733639 
L 231.365621 -50.783564 
L 230.857502 -50.834202 
L 230.349382 -50.885563 
L 229.841262 -50.937658 
L 229.333143 -50.990495 
L 228.825023 -51.044085 
L 228.316904 -51.098438 
L 227.808784 -51.153565 
L 227.300664 -51.209475 
L 226.792545 -51.266181 
L 226.284425 -51.323691 
L 225.776306 -51.382018 
L 225.268186 -51.441172 
L 224.760066 -51.501164 
L 224.251947 -51.562005 
L 223.743827 -51.623707 
L 223.235708 -51.686282 
L 222.727588 -51.749742 
L 222.219469 -51.814097 
L 221.711349 -51.87936 
L 221.203229 -51.945543 
L 220.69511 -52.012658 
L 220.18699 -52.080719 
L 219.678871 -52.149736 
L 219.170751 -52.219724 
L 218.662631 -52.290695 
L 218.154512 -52.362661 
L 217.646392 -52.435637 
L 217.138273 -52.509635 
L 216.630153 -52.58467 
L 216.122033 -52.660753 
L 215.613914 -52.737901 
L 215.105794 -52.816126 
L 214.597675 -52.895442 
L 214.089555 -52.975864 
L 213.581435 -53.057407 
L 213.073316 -53.140085 
L 212.565196 -53.223913 
L 212.057077 -53.308906 
L 211.548957 -53.395078 
L 211.040837 -53.482447 
L 210.532718 -53.571026 
L 210.024598 -53.660832 
L 209.516479 -53.75188 
L 209.008359 -53.844187 
L 208.50024 -53.937769 
L 207.99212 -54.032642 
L 207.484 -54.128824 
L 206.975881 -54.22633 
L 206.467761 -54.325178 
L 205.959642 -54.425385 
L 205.451522 -54.526968 
L 204.943402 -54.629945 
L 204.435283 -54.734334 
L 203.927163 -54.840153 
L 203.419044 -54.94742 
L 202.910924 -55.056153 
L 202.402804 -55.166371 
L 201.894685 -55.278092 
L 201.386565 -55.391336 
L 200.878446 -55.506122 
L 200.370326 -55.62247 
L 199.862206 -55.740398 
L 199.354087 -55.859927 
L 198.845967 -55.981077 
L 198.337848 -56.103867 
L 197.829728 -56.228319 
L 197.321608 -56.354454 
L 196.813489 -56.482291 
L 196.305369 -56.611853 
L 195.79725 -56.74316 
L 195.28913 -56.876234 
L 194.78101 -57.011096 
L 194.272891 -57.14777 
L 193.764771 -57.286277 
L 193.256652 -57.426639 
L 192.748532 -57.56888 
L 192.240413 -57.713022 
L 191.732293 -57.859088 
L 191.224173 -58.007101 
L 190.716054 -58.157086 
L 190.207934 -58.309066 
L 189.699815 -58.463065 
L 189.191695 -58.619108 
L 188.683575 -58.777219 
L 188.175456 -58.937422 
L 187.667336 -59.099743 
L 187.159217 -59.264207 
L 186.651097 -59.43084 
L 186.142977 -59.599667 
L 185.634858 -59.770715 
L 185.126738 -59.944009 
L 184.618619 -60.119575 
L 184.110499 -60.297441 
L 183.602379 -60.477634 
L 183.09426 -60.660181 
L 182.58614 -60.845108 
L 182.078021 -61.032444 
L 181.569901 -61.222217 
L 181.061781 -61.414455 
L 180.553662 -61.609185 
L 180.045542 -61.806438 
L 179.537423 -62.006241 
L 179.029303 -62.208623 
L 178.521184 -62.413615 
L 178.013064 -62.621245 
L 177.504944 -62.831544 
L 176.996825 -63.044541 
L 176.488705 -63.260267 
L 175.980586 -63.478752 
L 175.472466 -63.700027 
L 174.964346 -63.924123 
L 174.456227 -64.151072 
L 173.948107 -64.380904 
L 173.439988 -64.613651 
L 172.931868 -64.849346 
L 172.423748 -65.08802 
L 171.915629 -65.329706 
L 171.407509 -65.574437 
L 170.89939 -65.822244 
L 170.39127 -66.073161 
L 169.88315 -66.327222 
L 169.375031 -66.58446 
L 168.866911 -66.844909 
L 168.358792 -67.108601 
L 167.850672 -67.375572 
L 167.342552 -67.645856 
L 166.834433 -67.919486 
L 166.326313 -68.196499 
L 165.818194 -68.476928 
L 165.310074 -68.760808 
L 164.801954 -69.048176 
L 164.293835 -69.339065 
L 163.785715 -69.633512 
L 163.277596 -69.931553 
L 162.769476 -70.233222 
L 162.261357 -70.538557 
L 161.753237 -70.847593 
L 161.245117 -71.160366 
L 160.736998 -71.476914 
L 160.228878 -71.797272 
L 159.720759 -72.121477 
L 159.212639 -72.449567 
L 158.704519 -72.781577 
L 158.1964 -73.117545 
L 157.68828 -73.457508 
L 157.180161 -73.801503 
L 156.672041 -74.149567 
L 156.163921 -74.501737 
L 155.655802 -74.858052 
L 155.147682 -75.218547 
L 154.639563 -75.583261 
L 154.131443 -75.952231 
L 153.623323 -76.325494 
L 153.115204 -76.703088 
L 152.607084 -77.08505 
L 152.098965 -77.471418 
L 151.590845 -77.862229 
L 151.082725 -78.257519 
L 150.574606 -78.657327 
L 150.066486 -79.061689 
L 149.558367 -79.470642 
L 149.050247 -79.884224 
L 148.542128 -80.302471 
L 148.034008 -80.725419 
L 147.525888 -81.153105 
L 147.017769 -81.585565 
L 146.509649 -82.022836 
L 146.00153 -82.464953 
L 145.49341 -82.911952 
L 144.98529 -83.363867 
L 144.477171 -83.820735 
L 143.969051 -84.282589 
L 143.460932 -84.749465 
L 142.952812 -85.221396 
L 142.444692 -85.698415 
L 141.936573 -86.180557 
L 141.428453 -86.667854 
L 140.920334 -87.160338 
L 140.412214 -87.658041 
L 139.904094 -88.160995 
L 139.395975 -88.669231 
L 138.887855 -89.182779 
L 138.379736 -89.701668 
L 137.871616 -90.225927 
L 137.363496 -90.755586 
L 136.855377 -91.290671 
L 136.347257 -91.83121 
L 135.839138 -92.377229 
L 135.331018 -92.928753 
L 134.822898 -93.485806 
L 134.314779 -94.048414 
L 133.806659 -94.616597 
L 133.29854 -95.190379 
L 132.79042 -95.769779 
L 132.282301 -96.354818 
L 131.774181 -96.945514 
L 131.266061 -97.541885 
L 130.757942 -98.143947 
L 130.249822 -98.751715 
L 129.741703 -99.365202 
L 129.233583 -99.984422 
L 128.725463 -100.609385 
L 128.217344 -101.240101 
L 127.709224 -101.876577 
L 127.201105 -102.518821 
L 126.692985 -103.166837 
L 126.184865 -103.820629 
L 125.676746 -104.480197 
L 125.168626 -105.145542 
L 124.660507 -105.816661 
L 124.152387 -106.493549 
L 123.644267 -107.176201 
L 123.136148 -107.864609 
L 122.628028 -108.558761 
L 122.119909 -109.258644 
L 121.611789 -109.964245 
L 121.103669 -110.675544 
L 120.59555 -111.392523 
L 120.08743 -112.115157 
L 119.579311 -112.843423 
L 119.071191 -113.577292 
L 118.563072 -114.316733 
L 118.054952 -115.061711 
L 117.546832 -115.812191 
L 117.038713 -116.568132 
L 116.530593 -117.32949 
L 116.022474 -118.096219 
L 115.514354 -118.868269 
L 115.006234 -119.645586 
L 114.498115 -120.428111 
L 113.989995 -121.215785 
L 113.481876 -122.008541 
L 112.973756 -122.806311 
L 112.465636 -123.60902 
L 111.957517 -124.41659 
L 111.449397 -125.22894 
L 110.941278 -126.045983 
L 110.433158 -126.867625 
L 109.925038 -127.693772 
L 109.416919 -128.524321 
L 108.908799 -129.359166 
L 108.40068 -130.198193 
L 107.89256 -131.041286 
L 107.38444 -131.88832 
L 106.876321 -132.739167 
L 106.368201 -133.593691 
L 105.860082 -134.451751 
L 105.351962 -135.313197 
L 104.843842 -136.177877 
L 104.335723 -137.045627 
L 103.827603 -137.91628 
L 103.319484 -138.789661 
L 102.811364 -139.665586 
L 102.303245 -140.543864 
L 101.795125 -141.424296 
L 101.287005 -142.306677 
L 100.778886 -143.190792 
L 100.270766 -144.076416 
L 99.762647 -144.963317 
L 99.254527 -145.851254 
L 98.746407 -146.739977 
L 98.238288 -147.629225 
L 97.730168 -148.518727 
L 97.222049 -149.408204 
L 96.713929 -150.297365 
L 96.205809 -151.185908 
L 95.69769 -152.07352 
L 95.18957 -152.959878 
L 94.681451 -153.844647 
L 94.173331 -154.727479 
L 93.665211 -155.608013 
L 93.157092 -156.485878 
L 92.648972 -157.360687 
L 92.140853 -158.232043 
L 91.632733 -159.099531 
L 91.124613 -159.962725 
L 90.616494 -160.821184 
L 90.108374 -161.674451 
L 89.600255 -162.522055 
L 89.092135 -163.363507 
L 88.584015 -164.198304 
L 88.075896 -165.025925 
L 87.567776 -165.845832 
L 87.059657 -166.657471 
L 86.551537 -167.460267 
L 86.043418 -168.253629 
L 85.535298 -169.036945 
L 85.027178 -169.809584 
L 84.519059 -170.570896 
L 84.010939 -171.320208 
L 83.50282 -172.056827 
L 82.9947 -172.780038 
L 82.48658 -173.489103 
L 81.978461 -174.183261 
L 81.470341 -174.861727 
L 80.962222 -175.523693 
L 80.454102 -176.168325 
L 79.945982 -176.794761 
L 79.437863 -177.402115 
L 78.929743 -177.989473 
L 78.421624 -178.555894 
L 77.913504 -179.100406 
L 77.405384 -179.622008 
L 76.897265 -180.119671 
L 76.389145 -180.59233 
L 75.881026 -181.038892 
L 75.372906 -181.45823 
L 74.864786 -181.84918 
L 74.356667 -181.525391 
L 73.848547 -181.110703 
L 73.340428 -180.668599 
L 72.832308 -180.200213 
L 72.324189 -179.706643 
L 71.816069 -179.188958 
L 71.307949 -178.648194 
L 70.79983 -178.085357 
L 70.29171 -177.501422 
L 69.783591 -176.897336 
L 69.275471 -176.274018 
L 68.767351 -175.632359 
L 68.259232 -174.973223 
L 67.751112 -174.29745 
L 67.242993 -173.605852 
L 66.734873 -172.899218 
L 66.226753 -172.178313 
L 65.718634 -171.443878 
L 65.210514 -170.696633 
L 64.702395 -169.937274 
L 64.194275 -169.166477 
L 63.686155 -168.384896 
L 63.178036 -167.593166 
L 62.669916 -166.7919 
L 62.161797 -165.981695 
L 61.653677 -165.163126 
L 61.145557 -164.336753 
L 60.637438 -163.503116 
L 60.129318 -162.662737 
L 59.621199 -161.816125 
L 59.113079 -160.963768 
L 58.604959 -160.106143 
L 58.09684 -159.243707 
L 57.58872 -158.376904 
L 57.080601 -157.506164 
L 56.572481 -156.631902 
L 56.064362 -155.754519 
L 55.556242 -154.874404 
L 55.048122 -153.99193 
L 54.540003 -153.10746 
L 54.031883 -152.221342 
L 53.523764 -151.333916 
L 53.015644 -150.445506 
L 52.507524 -149.556427 
L 51.999405 -148.666983 
L 51.491285 -147.777465 
L 50.983166 -146.888156 
L 50.475046 -145.999327 
L 49.966926 -145.111241 
L 49.458807 -144.22415 
z
" id="m3c3121c064" style="stroke:#808080;stroke-opacity:0.2;"/>
    </defs>
    <g clip-path="url(#pb90afdde5c)">
     <use style="fill:#808080;fill-opacity:0.2;stroke:#808080;stroke-opacity:0.2;" x="0" xlink:href="#m3c3121c064" y="262.19625"/>
    </g>
   </g>
   <g id="matplotlib.axis_1">
    <g id="xtick_1">
     <g id="line2d_1">
      <defs>
       <path d="M 0 0 
L 0 3.5 
" id="m9706eab11c" style="stroke:#808080;stroke-width:0.8;"/>
      </defs>
      <g>
       <use style="fill:#808080;stroke:#808080;stroke-width:0.8;" x="49.458807" xlink:href="#m9706eab11c" y="224.64"/>
      </g>
     </g>
     <g id="text_1">
      <!-- 0 -->
      <defs>
       <path d="M 31.78125 66.40625 
Q 24.171875 66.40625 20.328125 58.90625 
Q 16.5 51.421875 16.5 36.375 
Q 16.5 21.390625 20.328125 13.890625 
Q 24.171875 6.390625 31.78125 6.390625 
Q 39.453125 6.390625 43.28125 13.890625 
Q 47.125 21.390625 47.125 36.375 
Q 47.125 51.421875 43.28125 58.90625 
Q 39.453125 66.40625 31.78125 66.40625 
z
M 31.78125 74.21875 
Q 44.046875 74.21875 50.515625 64.515625 
Q 56.984375 54.828125 56.984375 36.375 
Q 56.984375 17.96875 50.515625 8.265625 
Q 44.046875 -1.421875 31.78125 -1.421875 
Q 19.53125 -1.421875 13.0625 8.265625 
Q 6.59375 17.96875 6.59375 36.375 
Q 6.59375 54.828125 13.0625 64.515625 
Q 19.53125 74.21875 31.78125 74.21875 
z
" id="DejaVuSans-48"/>
      </defs>
      <g transform="translate(46.277557 239.238437)scale(0.1 -0.1)">
       <use xlink:href="#DejaVuSans-48"/>
      </g>
     </g>
    </g>
    <g id="xtick_2">
     <g id="line2d_2">
      <g>
       <use style="fill:#808080;stroke:#808080;stroke-width:0.8;" x="100.18608" xlink:href="#m9706eab11c" y="224.64"/>
      </g>
     </g>
     <g id="text_2">
      <!-- 1 -->
      <defs>
       <path d="M 12.40625 8.296875 
L 28.515625 8.296875 
L 28.515625 63.921875 
L 10.984375 60.40625 
L 10.984375 69.390625 
L 28.421875 72.90625 
L 38.28125 72.90625 
L 38.28125 8.296875 
L 54.390625 8.296875 
L 54.390625 0 
L 12.40625 0 
z
" id="DejaVuSans-49"/>
      </defs>
      <g transform="translate(97.00483 239.238437)scale(0.1 -0.1)">
       <use xlink:href="#DejaVuSans-49"/>
      </g>
     </g>
    </g>
    <g id="xtick_3">
     <g id="line2d_3">
      <g>
       <use style="fill:#808080;stroke:#808080;stroke-width:0.8;" x="150.913352" xlink:href="#m9706eab11c" y="224.64"/>
      </g>
     </g>
     <g id="text_3">
      <!-- 2 -->
      <defs>
       <path d="M 19.1875 8.296875 
L 53.609375 8.296875 
L 53.609375 0 
L 7.328125 0 
L 7.328125 8.296875 
Q 12.9375 14.109375 22.625 23.890625 
Q 32.328125 33.6875 34.8125 36.53125 
Q 39.546875 41.84375 41.421875 45.53125 
Q 43.3125 49.21875 43.3125 52.78125 
Q 43.3125 58.59375 39.234375 62.25 
Q 35.15625 65.921875 28.609375 65.921875 
Q 23.96875 65.921875 18.8125 64.3125 
Q 13.671875 62.703125 7.8125 59.421875 
L 7.8125 69.390625 
Q 13.765625 71.78125 18.9375 73 
Q 24.125 74.21875 28.421875 74.21875 
Q 39.75 74.21875 46.484375 68.546875 
Q 53.21875 62.890625 53.21875 53.421875 
Q 53.21875 48.921875 51.53125 44.890625 
Q 49.859375 40.875 45.40625 35.40625 
Q 44.1875 33.984375 37.640625 27.21875 
Q 31.109375 20.453125 19.1875 8.296875 
z
" id="DejaVuSans-50"/>
      </defs>
      <g transform="translate(147.732102 239.238437)scale(0.1 -0.1)">
       <use xlink:href="#DejaVuSans-50"/>
      </g>
     </g>
    </g>
    <g id="xtick_4">
     <g id="line2d_4">
      <g>
       <use style="fill:#808080;stroke:#808080;stroke-width:0.8;" x="201.640625" xlink:href="#m9706eab11c" y="224.64"/>
      </g>
     </g>
     <g id="text_4">
      <!-- 3 -->
      <defs>
       <path d="M 40.578125 39.3125 
Q 47.65625 37.796875 51.625 33 
Q 55.609375 28.21875 55.609375 21.1875 
Q 55.609375 10.40625 48.1875 4.484375 
Q 40.765625 -1.421875 27.09375 -1.421875 
Q 22.515625 -1.421875 17.65625 -0.515625 
Q 12.796875 0.390625 7.625 2.203125 
L 7.625 11.71875 
Q 11.71875 9.328125 16.59375 8.109375 
Q 21.484375 6.890625 26.8125 6.890625 
Q 36.078125 6.890625 40.9375 10.546875 
Q 45.796875 14.203125 45.796875 21.1875 
Q 45.796875 27.640625 41.28125 31.265625 
Q 36.765625 34.90625 28.71875 34.90625 
L 20.21875 34.90625 
L 20.21875 43.015625 
L 29.109375 43.015625 
Q 36.375 43.015625 40.234375 45.921875 
Q 44.09375 48.828125 44.09375 54.296875 
Q 44.09375 59.90625 40.109375 62.90625 
Q 36.140625 65.921875 28.71875 65.921875 
Q 24.65625 65.921875 20.015625 65.03125 
Q 15.375 64.15625 9.8125 62.3125 
L 9.8125 71.09375 
Q 15.4375 72.65625 20.34375 73.4375 
Q 25.25 74.21875 29.59375 74.21875 
Q 40.828125 74.21875 47.359375 69.109375 
Q 53.90625 64.015625 53.90625 55.328125 
Q 53.90625 49.265625 50.4375 45.09375 
Q 46.96875 40.921875 40.578125 39.3125 
z
" id="DejaVuSans-51"/>
      </defs>
      <g transform="translate(198.459375 239.238437)scale(0.1 -0.1)">
       <use xlink:href="#DejaVuSans-51"/>
      </g>
     </g>
    </g>
    <g id="xtick_5">
     <g id="line2d_5">
      <g>
       <use style="fill:#808080;stroke:#808080;stroke-width:0.8;" x="252.367898" xlink:href="#m9706eab11c" y="224.64"/>
      </g>
     </g>
     <g id="text_5">
      <!-- 4 -->
      <defs>
       <path d="M 37.796875 64.3125 
L 12.890625 25.390625 
L 37.796875 25.390625 
z
M 35.203125 72.90625 
L 47.609375 72.90625 
L 47.609375 25.390625 
L 58.015625 25.390625 
L 58.015625 17.1875 
L 47.609375 17.1875 
L 47.609375 0 
L 37.796875 0 
L 37.796875 17.1875 
L 4.890625 17.1875 
L 4.890625 26.703125 
z
" id="DejaVuSans-52"/>
      </defs>
      <g transform="translate(249.186648 239.238437)scale(0.1 -0.1)">
       <use xlink:href="#DejaVuSans-52"/>
      </g>
     </g>
    </g>
    <g id="xtick_6">
     <g id="line2d_6">
      <g>
       <use style="fill:#808080;stroke:#808080;stroke-width:0.8;" x="303.09517" xlink:href="#m9706eab11c" y="224.64"/>
      </g>
     </g>
     <g id="text_6">
      <!-- 5 -->
      <defs>
       <path d="M 10.796875 72.90625 
L 49.515625 72.90625 
L 49.515625 64.59375 
L 19.828125 64.59375 
L 19.828125 46.734375 
Q 21.96875 47.46875 24.109375 47.828125 
Q 26.265625 48.1875 28.421875 48.1875 
Q 40.625 48.1875 47.75 41.5 
Q 54.890625 34.8125 54.890625 23.390625 
Q 54.890625 11.625 47.5625 5.09375 
Q 40.234375 -1.421875 26.90625 -1.421875 
Q 22.3125 -1.421875 17.546875 -0.640625 
Q 12.796875 0.140625 7.71875 1.703125 
L 7.71875 11.625 
Q 12.109375 9.234375 16.796875 8.0625 
Q 21.484375 6.890625 26.703125 6.890625 
Q 35.15625 6.890625 40.078125 11.328125 
Q 45.015625 15.765625 45.015625 23.390625 
Q 45.015625 31 40.078125 35.4375 
Q 35.15625 39.890625 26.703125 39.890625 
Q 22.75 39.890625 18.8125 39.015625 
Q 14.890625 38.140625 10.796875 36.28125 
z
" id="DejaVuSans-53"/>
      </defs>
      <g transform="translate(299.91392 239.238437)scale(0.1 -0.1)">
       <use xlink:href="#DejaVuSans-53"/>
      </g>
     </g>
    </g>
    <g id="xtick_7">
     <g id="line2d_7">
      <g>
       <use style="fill:#808080;stroke:#808080;stroke-width:0.8;" x="353.822443" xlink:href="#m9706eab11c" y="224.64"/>
      </g>
     </g>
     <g id="text_7">
      <!-- 6 -->
      <defs>
       <path d="M 33.015625 40.375 
Q 26.375 40.375 22.484375 35.828125 
Q 18.609375 31.296875 18.609375 23.390625 
Q 18.609375 15.53125 22.484375 10.953125 
Q 26.375 6.390625 33.015625 6.390625 
Q 39.65625 6.390625 43.53125 10.953125 
Q 47.40625 15.53125 47.40625 23.390625 
Q 47.40625 31.296875 43.53125 35.828125 
Q 39.65625 40.375 33.015625 40.375 
z
M 52.59375 71.296875 
L 52.59375 62.3125 
Q 48.875 64.0625 45.09375 64.984375 
Q 41.3125 65.921875 37.59375 65.921875 
Q 27.828125 65.921875 22.671875 59.328125 
Q 17.53125 52.734375 16.796875 39.40625 
Q 19.671875 43.65625 24.015625 45.921875 
Q 28.375 48.1875 33.59375 48.1875 
Q 44.578125 48.1875 50.953125 41.515625 
Q 57.328125 34.859375 57.328125 23.390625 
Q 57.328125 12.15625 50.6875 5.359375 
Q 44.046875 -1.421875 33.015625 -1.421875 
Q 20.359375 -1.421875 13.671875 8.265625 
Q 6.984375 17.96875 6.984375 36.375 
Q 6.984375 53.65625 15.1875 63.9375 
Q 23.390625 74.21875 37.203125 74.21875 
Q 40.921875 74.21875 44.703125 73.484375 
Q 48.484375 72.75 52.59375 71.296875 
z
" id="DejaVuSans-54"/>
      </defs>
      <g transform="translate(350.641193 239.238437)scale(0.1 -0.1)">
       <use xlink:href="#DejaVuSans-54"/>
      </g>
     </g>
    </g>
    <g id="text_8">
     <!-- X -->
     <defs>
      <path d="M 6.296875 72.90625 
L 16.890625 72.90625 
L 35.015625 45.796875 
L 53.21875 72.90625 
L 63.8125 72.90625 
L 40.375 37.890625 
L 65.375 0 
L 54.78125 0 
L 34.28125 31 
L 13.625 0 
L 2.984375 0 
L 29 38.921875 
z
" id="DejaVuSans-88"/>
     </defs>
     <g transform="translate(198.215625 252.916562)scale(0.1 -0.1)">
      <use xlink:href="#DejaVuSans-88"/>
     </g>
    </g>
   </g>
   <g id="matplotlib.axis_2">
    <g id="ytick_1">
     <g id="line2d_8">
      <defs>
       <path d="M 0 0 
L -3.5 0 
" id="m4f428ff3df" style="stroke:#808080;stroke-width:0.8;"/>
      </defs>
      <g>
       <use style="fill:#808080;stroke:#808080;stroke-width:0.8;" x="34.240625" xlink:href="#m4f428ff3df" y="193.292373"/>
      </g>
     </g>
     <g id="text_9">
      <!-- 0 -->
      <g transform="translate(20.878125 197.091591)scale(0.1 -0.1)">
       <use xlink:href="#DejaVuSans-48"/>
      </g>
     </g>
    </g>
    <g id="ytick_2">
     <g id="line2d_9">
      <g>
       <use style="fill:#808080;stroke:#808080;stroke-width:0.8;" x="34.240625" xlink:href="#m4f428ff3df" y="150.190965"/>
      </g>
     </g>
     <g id="text_10">
      <!-- 2 -->
      <g transform="translate(20.878125 153.990184)scale(0.1 -0.1)">
       <use xlink:href="#DejaVuSans-50"/>
      </g>
     </g>
    </g>
    <g id="ytick_3">
     <g id="line2d_10">
      <g>
       <use style="fill:#808080;stroke:#808080;stroke-width:0.8;" x="34.240625" xlink:href="#m4f428ff3df" y="107.089557"/>
      </g>
     </g>
     <g id="text_11">
      <!-- 4 -->
      <g transform="translate(20.878125 110.888776)scale(0.1 -0.1)">
       <use xlink:href="#DejaVuSans-52"/>
      </g>
     </g>
    </g>
    <g id="ytick_4">
     <g id="line2d_11">
      <g>
       <use style="fill:#808080;stroke:#808080;stroke-width:0.8;" x="34.240625" xlink:href="#m4f428ff3df" y="63.988149"/>
      </g>
     </g>
     <g id="text_12">
      <!-- 6 -->
      <g transform="translate(20.878125 67.787368)scale(0.1 -0.1)">
       <use xlink:href="#DejaVuSans-54"/>
      </g>
     </g>
    </g>
    <g id="ytick_5">
     <g id="line2d_12">
      <g>
       <use style="fill:#808080;stroke:#808080;stroke-width:0.8;" x="34.240625" xlink:href="#m4f428ff3df" y="20.886741"/>
      </g>
     </g>
     <g id="text_13">
      <!-- 8 -->
      <defs>
       <path d="M 31.78125 34.625 
Q 24.75 34.625 20.71875 30.859375 
Q 16.703125 27.09375 16.703125 20.515625 
Q 16.703125 13.921875 20.71875 10.15625 
Q 24.75 6.390625 31.78125 6.390625 
Q 38.8125 6.390625 42.859375 10.171875 
Q 46.921875 13.96875 46.921875 20.515625 
Q 46.921875 27.09375 42.890625 30.859375 
Q 38.875 34.625 31.78125 34.625 
z
M 21.921875 38.8125 
Q 15.578125 40.375 12.03125 44.71875 
Q 8.5 49.078125 8.5 55.328125 
Q 8.5 64.0625 14.71875 69.140625 
Q 20.953125 74.21875 31.78125 74.21875 
Q 42.671875 74.21875 48.875 69.140625 
Q 55.078125 64.0625 55.078125 55.328125 
Q 55.078125 49.078125 51.53125 44.71875 
Q 48 40.375 41.703125 38.8125 
Q 48.828125 37.15625 52.796875 32.3125 
Q 56.78125 27.484375 56.78125 20.515625 
Q 56.78125 9.90625 50.3125 4.234375 
Q 43.84375 -1.421875 31.78125 -1.421875 
Q 19.734375 -1.421875 13.25 4.234375 
Q 6.78125 9.90625 6.78125 20.515625 
Q 6.78125 27.484375 10.78125 32.3125 
Q 14.796875 37.15625 21.921875 38.8125 
z
M 18.3125 54.390625 
Q 18.3125 48.734375 21.84375 45.5625 
Q 25.390625 42.390625 31.78125 42.390625 
Q 38.140625 42.390625 41.71875 45.5625 
Q 45.3125 48.734375 45.3125 54.390625 
Q 45.3125 60.0625 41.71875 63.234375 
Q 38.140625 66.40625 31.78125 66.40625 
Q 25.390625 66.40625 21.84375 63.234375 
Q 18.3125 60.0625 18.3125 54.390625 
z
" id="DejaVuSans-56"/>
      </defs>
      <g transform="translate(20.878125 24.68596)scale(0.1 -0.1)">
       <use xlink:href="#DejaVuSans-56"/>
      </g>
     </g>
    </g>
    <g id="text_14">
     <!-- Gold content -->
     <defs>
      <path d="M 59.515625 10.40625 
L 59.515625 29.984375 
L 43.40625 29.984375 
L 43.40625 38.09375 
L 69.28125 38.09375 
L 69.28125 6.78125 
Q 63.578125 2.734375 56.6875 0.65625 
Q 49.8125 -1.421875 42 -1.421875 
Q 24.90625 -1.421875 15.25 8.5625 
Q 5.609375 18.5625 5.609375 36.375 
Q 5.609375 54.25 15.25 64.234375 
Q 24.90625 74.21875 42 74.21875 
Q 49.125 74.21875 55.546875 72.453125 
Q 61.96875 70.703125 67.390625 67.28125 
L 67.390625 56.78125 
Q 61.921875 61.421875 55.765625 63.765625 
Q 49.609375 66.109375 42.828125 66.109375 
Q 29.4375 66.109375 22.71875 58.640625 
Q 16.015625 51.171875 16.015625 36.375 
Q 16.015625 21.625 22.71875 14.15625 
Q 29.4375 6.6875 42.828125 6.6875 
Q 48.046875 6.6875 52.140625 7.59375 
Q 56.25 8.5 59.515625 10.40625 
z
" id="DejaVuSans-71"/>
      <path d="M 30.609375 48.390625 
Q 23.390625 48.390625 19.1875 42.75 
Q 14.984375 37.109375 14.984375 27.296875 
Q 14.984375 17.484375 19.15625 11.84375 
Q 23.34375 6.203125 30.609375 6.203125 
Q 37.796875 6.203125 41.984375 11.859375 
Q 46.1875 17.53125 46.1875 27.296875 
Q 46.1875 37.015625 41.984375 42.703125 
Q 37.796875 48.390625 30.609375 48.390625 
z
M 30.609375 56 
Q 42.328125 56 49.015625 48.375 
Q 55.71875 40.765625 55.71875 27.296875 
Q 55.71875 13.875 49.015625 6.21875 
Q 42.328125 -1.421875 30.609375 -1.421875 
Q 18.84375 -1.421875 12.171875 6.21875 
Q 5.515625 13.875 5.515625 27.296875 
Q 5.515625 40.765625 12.171875 48.375 
Q 18.84375 56 30.609375 56 
z
" id="DejaVuSans-111"/>
      <path d="M 9.421875 75.984375 
L 18.40625 75.984375 
L 18.40625 0 
L 9.421875 0 
z
" id="DejaVuSans-108"/>
      <path d="M 45.40625 46.390625 
L 45.40625 75.984375 
L 54.390625 75.984375 
L 54.390625 0 
L 45.40625 0 
L 45.40625 8.203125 
Q 42.578125 3.328125 38.25 0.953125 
Q 33.9375 -1.421875 27.875 -1.421875 
Q 17.96875 -1.421875 11.734375 6.484375 
Q 5.515625 14.40625 5.515625 27.296875 
Q 5.515625 40.1875 11.734375 48.09375 
Q 17.96875 56 27.875 56 
Q 33.9375 56 38.25 53.625 
Q 42.578125 51.265625 45.40625 46.390625 
z
M 14.796875 27.296875 
Q 14.796875 17.390625 18.875 11.75 
Q 22.953125 6.109375 30.078125 6.109375 
Q 37.203125 6.109375 41.296875 11.75 
Q 45.40625 17.390625 45.40625 27.296875 
Q 45.40625 37.203125 41.296875 42.84375 
Q 37.203125 48.484375 30.078125 48.484375 
Q 22.953125 48.484375 18.875 42.84375 
Q 14.796875 37.203125 14.796875 27.296875 
z
" id="DejaVuSans-100"/>
      <path id="DejaVuSans-32"/>
      <path d="M 48.78125 52.59375 
L 48.78125 44.1875 
Q 44.96875 46.296875 41.140625 47.34375 
Q 37.3125 48.390625 33.40625 48.390625 
Q 24.65625 48.390625 19.8125 42.84375 
Q 14.984375 37.3125 14.984375 27.296875 
Q 14.984375 17.28125 19.8125 11.734375 
Q 24.65625 6.203125 33.40625 6.203125 
Q 37.3125 6.203125 41.140625 7.25 
Q 44.96875 8.296875 48.78125 10.40625 
L 48.78125 2.09375 
Q 45.015625 0.34375 40.984375 -0.53125 
Q 36.96875 -1.421875 32.421875 -1.421875 
Q 20.0625 -1.421875 12.78125 6.34375 
Q 5.515625 14.109375 5.515625 27.296875 
Q 5.515625 40.671875 12.859375 48.328125 
Q 20.21875 56 33.015625 56 
Q 37.15625 56 41.109375 55.140625 
Q 45.0625 54.296875 48.78125 52.59375 
z
" id="DejaVuSans-99"/>
      <path d="M 54.890625 33.015625 
L 54.890625 0 
L 45.90625 0 
L 45.90625 32.71875 
Q 45.90625 40.484375 42.875 44.328125 
Q 39.84375 48.1875 33.796875 48.1875 
Q 26.515625 48.1875 22.3125 43.546875 
Q 18.109375 38.921875 18.109375 30.90625 
L 18.109375 0 
L 9.078125 0 
L 9.078125 54.6875 
L 18.109375 54.6875 
L 18.109375 46.1875 
Q 21.34375 51.125 25.703125 53.5625 
Q 30.078125 56 35.796875 56 
Q 45.21875 56 50.046875 50.171875 
Q 54.890625 44.34375 54.890625 33.015625 
z
" id="DejaVuSans-110"/>
      <path d="M 18.3125 70.21875 
L 18.3125 54.6875 
L 36.8125 54.6875 
L 36.8125 47.703125 
L 18.3125 47.703125 
L 18.3125 18.015625 
Q 18.3125 11.328125 20.140625 9.421875 
Q 21.96875 7.515625 27.59375 7.515625 
L 36.8125 7.515625 
L 36.8125 0 
L 27.59375 0 
Q 17.1875 0 13.234375 3.875 
Q 9.28125 7.765625 9.28125 18.015625 
L 9.28125 47.703125 
L 2.6875 47.703125 
L 2.6875 54.6875 
L 9.28125 54.6875 
L 9.28125 70.21875 
z
" id="DejaVuSans-116"/>
      <path d="M 56.203125 29.59375 
L 56.203125 25.203125 
L 14.890625 25.203125 
Q 15.484375 15.921875 20.484375 11.0625 
Q 25.484375 6.203125 34.421875 6.203125 
Q 39.59375 6.203125 44.453125 7.46875 
Q 49.3125 8.734375 54.109375 11.28125 
L 54.109375 2.78125 
Q 49.265625 0.734375 44.1875 -0.34375 
Q 39.109375 -1.421875 33.890625 -1.421875 
Q 20.796875 -1.421875 13.15625 6.1875 
Q 5.515625 13.8125 5.515625 26.8125 
Q 5.515625 40.234375 12.765625 48.109375 
Q 20.015625 56 32.328125 56 
Q 43.359375 56 49.78125 48.890625 
Q 56.203125 41.796875 56.203125 29.59375 
z
M 47.21875 32.234375 
Q 47.125 39.59375 43.09375 43.984375 
Q 39.0625 48.390625 32.421875 48.390625 
Q 24.90625 48.390625 20.390625 44.140625 
Q 15.875 39.890625 15.1875 32.171875 
z
" id="DejaVuSans-101"/>
     </defs>
     <g transform="translate(14.798437 148.148906)rotate(-90)scale(0.1 -0.1)">
      <use xlink:href="#DejaVuSans-71"/>
      <use x="77.490234" xlink:href="#DejaVuSans-111"/>
      <use x="138.671875" xlink:href="#DejaVuSans-108"/>
      <use x="166.455078" xlink:href="#DejaVuSans-100"/>
      <use x="229.931641" xlink:href="#DejaVuSans-32"/>
      <use x="261.71875" xlink:href="#DejaVuSans-99"/>
      <use x="316.699219" xlink:href="#DejaVuSans-111"/>
      <use x="377.880859" xlink:href="#DejaVuSans-110"/>
      <use x="441.259766" xlink:href="#DejaVuSans-116"/>
      <use x="480.46875" xlink:href="#DejaVuSans-101"/>
      <use x="541.992188" xlink:href="#DejaVuSans-110"/>
      <use x="605.371094" xlink:href="#DejaVuSans-116"/>
     </g>
    </g>
   </g>
   <g id="line2d_13">
    <path clip-path="url(#pb90afdde5c)" d="M 49.458807 104.618462 
L 55.048122 96.948835 
L 58.604959 92.394703 
L 61.653677 88.826976 
L 64.194275 86.177988 
L 66.226753 84.326647 
L 68.259232 82.762384 
L 69.783591 81.807938 
L 71.307949 81.067005 
L 72.832308 80.565121 
L 74.356667 80.329946 
L 75.881026 80.387853 
L 77.405384 80.730176 
L 78.929743 81.32819 
L 80.454102 82.155079 
L 82.48658 83.57112 
L 84.519059 85.296843 
L 87.059657 87.817014 
L 89.600255 90.663993 
L 92.648972 94.41148 
L 96.713929 99.800081 
L 102.811364 108.326801 
L 113.481876 123.274786 
L 119.071191 130.680535 
L 123.644267 136.401177 
L 128.217344 141.776334 
L 132.79042 146.786342 
L 136.855377 150.927443 
L 140.920334 154.77627 
L 144.98529 158.339029 
L 149.050247 161.625227 
L 153.115204 164.646708 
L 157.180161 167.416895 
L 161.753237 170.250916 
L 166.326313 172.806309 
L 170.89939 175.104405 
L 175.472466 177.166191 
L 180.553662 179.204566 
L 185.634858 181.002718 
L 191.224173 182.732786 
L 196.813489 184.232659 
L 202.910924 185.638901 
L 209.516479 186.92789 
L 216.630153 188.083792 
L 224.251947 189.098395 
L 232.88998 190.018704 
L 242.544252 190.816686 
L 253.722883 191.506297 
L 266.933993 192.082565 
L 282.6857 192.535562 
L 303.010484 192.881877 
L 330.957061 193.117127 
L 353.822443 193.205666 
L 353.822443 193.205666 
" style="fill:none;stroke:#000000;stroke-linecap:square;stroke-width:1.5;"/>
   </g>
   <g id="line2d_14">
    <path clip-path="url(#pb90afdde5c)" d="M 49.458807 131.943552 
L 53.523764 121.651255 
L 57.080601 113.232093 
L 60.637438 105.392155 
L 63.686155 99.152522 
L 66.734873 93.370147 
L 69.783591 88.0554 
L 72.832308 83.215971 
L 75.372906 79.549898 
L 77.913504 76.218918 
L 80.454102 73.223248 
L 82.9947 70.561849 
L 85.535298 68.232446 
L 88.075896 66.231558 
L 90.616494 64.554523 
L 93.157092 63.195528 
L 95.18957 62.332708 
L 97.222049 61.664984 
L 99.254527 61.187892 
L 101.287005 60.896557 
L 103.827603 60.785546 
L 106.368201 60.945402 
L 108.908799 61.364141 
L 111.449397 62.028963 
L 113.989995 62.926314 
L 116.530593 64.041946 
L 119.579311 65.647842 
L 122.628028 67.519823 
L 126.184865 70.002973 
L 129.741703 72.764861 
L 133.806659 76.202589 
L 138.887855 80.817431 
L 146.00153 87.620168 
L 156.672041 97.811224 
L 161.753237 102.351207 
L 165.818194 105.722595 
L 169.88315 108.800037 
L 173.439988 111.210147 
L 176.488705 113.040262 
L 179.537423 114.633384 
L 182.58614 115.973025 
L 185.634858 117.044629 
L 188.175456 117.723771 
L 190.716054 118.201873 
L 193.256652 118.473806 
L 195.79725 118.535486 
L 198.337848 118.383893 
L 200.878446 118.017079 
L 203.419044 117.434177 
L 205.959642 116.635404 
L 208.50024 115.622059 
L 211.040837 114.396522 
L 214.089555 112.65071 
L 217.138273 110.612322 
L 220.18699 108.291465 
L 223.235708 105.700338 
L 226.792545 102.354854 
L 230.349382 98.686873 
L 234.414339 94.137788 
L 238.479296 89.254799 
L 243.052372 83.429559 
L 248.641687 75.950783 
L 257.78784 63.274704 
L 266.425873 51.413957 
L 272.015189 44.124746 
L 276.588265 38.541187 
L 280.653222 33.952532 
L 284.210059 30.28262 
L 287.258776 27.428504 
L 290.307494 24.871607 
L 293.356212 22.637322 
L 295.89681 21.039236 
L 298.437408 19.695008 
L 300.978005 18.616954 
L 303.518603 17.816546 
L 305.551082 17.383258 
L 307.58356 17.139422 
L 309.616039 17.089606 
L 311.648517 17.237957 
L 313.680995 17.588188 
L 315.713474 18.143561 
L 317.745952 18.906878 
L 319.77843 19.880467 
L 321.810909 21.066174 
L 323.843387 22.465348 
L 326.383985 24.515753 
L 328.924583 26.901533 
L 331.465181 29.621965 
L 334.005779 32.675051 
L 336.546377 36.057506 
L 339.086975 39.764752 
L 342.135693 44.633808 
L 345.18441 49.949433 
L 348.233128 55.696362 
L 351.789965 62.922225 
L 353.822443 67.29144 
L 353.822443 67.29144 
" style="fill:none;stroke:#800080;stroke-linecap:square;stroke-width:1.5;"/>
   </g>
   <g id="patch_3">
    <path d="M 34.240625 224.64 
L 34.240625 7.2 
" style="fill:none;stroke:#808080;stroke-linecap:square;stroke-linejoin:miter;stroke-width:0.5;"/>
   </g>
   <g id="patch_4">
    <path d="M 34.240625 224.64 
L 369.040625 224.64 
" style="fill:none;stroke:#808080;stroke-linecap:square;stroke-linejoin:miter;stroke-width:0.5;"/>
   </g>
   <g id="legend_1">
    <g id="patch_5">
     <path d="M 389.432625 73.932812 
L 505.83575 73.932812 
Q 507.83575 73.932812 507.83575 71.932812 
L 507.83575 14.2 
Q 507.83575 12.2 505.83575 12.2 
L 389.432625 12.2 
Q 387.432625 12.2 387.432625 14.2 
L 387.432625 71.932812 
Q 387.432625 73.932812 389.432625 73.932812 
z
" style="fill:#ffffff;opacity:0.8;stroke:#cccccc;stroke-linejoin:miter;"/>
    </g>
    <g id="line2d_15">
     <path d="M 391.432625 20.298437 
L 411.432625 20.298437 
" style="fill:none;stroke:#000000;stroke-linecap:square;stroke-width:1.5;"/>
    </g>
    <g id="line2d_16"/>
    <g id="text_15">
     <!-- Predicted -->
     <defs>
      <path d="M 19.671875 64.796875 
L 19.671875 37.40625 
L 32.078125 37.40625 
Q 38.96875 37.40625 42.71875 40.96875 
Q 46.484375 44.53125 46.484375 51.125 
Q 46.484375 57.671875 42.71875 61.234375 
Q 38.96875 64.796875 32.078125 64.796875 
z
M 9.8125 72.90625 
L 32.078125 72.90625 
Q 44.34375 72.90625 50.609375 67.359375 
Q 56.890625 61.8125 56.890625 51.125 
Q 56.890625 40.328125 50.609375 34.8125 
Q 44.34375 29.296875 32.078125 29.296875 
L 19.671875 29.296875 
L 19.671875 0 
L 9.8125 0 
z
" id="DejaVuSans-80"/>
      <path d="M 41.109375 46.296875 
Q 39.59375 47.171875 37.8125 47.578125 
Q 36.03125 48 33.890625 48 
Q 26.265625 48 22.1875 43.046875 
Q 18.109375 38.09375 18.109375 28.8125 
L 18.109375 0 
L 9.078125 0 
L 9.078125 54.6875 
L 18.109375 54.6875 
L 18.109375 46.1875 
Q 20.953125 51.171875 25.484375 53.578125 
Q 30.03125 56 36.53125 56 
Q 37.453125 56 38.578125 55.875 
Q 39.703125 55.765625 41.0625 55.515625 
z
" id="DejaVuSans-114"/>
      <path d="M 9.421875 54.6875 
L 18.40625 54.6875 
L 18.40625 0 
L 9.421875 0 
z
M 9.421875 75.984375 
L 18.40625 75.984375 
L 18.40625 64.59375 
L 9.421875 64.59375 
z
" id="DejaVuSans-105"/>
     </defs>
     <g transform="translate(419.432625 23.798437)scale(0.1 -0.1)">
      <use xlink:href="#DejaVuSans-80"/>
      <use x="60.287109" xlink:href="#DejaVuSans-114"/>
      <use x="101.369141" xlink:href="#DejaVuSans-101"/>
      <use x="162.892578" xlink:href="#DejaVuSans-100"/>
      <use x="226.369141" xlink:href="#DejaVuSans-105"/>
      <use x="254.152344" xlink:href="#DejaVuSans-99"/>
      <use x="309.132812" xlink:href="#DejaVuSans-116"/>
      <use x="348.341797" xlink:href="#DejaVuSans-101"/>
      <use x="409.865234" xlink:href="#DejaVuSans-100"/>
     </g>
    </g>
    <g id="line2d_17">
     <path d="M 391.432625 34.976562 
L 411.432625 34.976562 
" style="fill:none;stroke:#800080;stroke-linecap:square;stroke-width:1.5;"/>
    </g>
    <g id="line2d_18"/>
    <g id="text_16">
     <!-- GT -->
     <defs>
      <path d="M -0.296875 72.90625 
L 61.375 72.90625 
L 61.375 64.59375 
L 35.5 64.59375 
L 35.5 0 
L 25.59375 0 
L 25.59375 64.59375 
L -0.296875 64.59375 
z
" id="DejaVuSans-84"/>
     </defs>
     <g transform="translate(419.432625 38.476562)scale(0.1 -0.1)">
      <use xlink:href="#DejaVuSans-71"/>
      <use x="77.443359" xlink:href="#DejaVuSans-84"/>
     </g>
    </g>
    <g id="patch_6">
     <path d="M 391.432625 53.154687 
L 411.432625 53.154687 
L 411.432625 46.154687 
L 391.432625 46.154687 
z
" style="fill:#808080;opacity:0.2;stroke:#808080;stroke-linejoin:miter;"/>
    </g>
    <g id="text_17">
     <!-- $\mu \pm \sigma$ -->
     <defs>
      <path d="M -1.3125 -20.796875 
L 13.375 54.6875 
L 22.40625 54.6875 
L 15.765625 20.65625 
Q 15.578125 19.625 15.421875 18.359375 
Q 15.28125 17.09375 15.28125 15.828125 
Q 15.28125 11.28125 18.140625 8.828125 
Q 21 6.390625 26.3125 6.390625 
Q 33.546875 6.390625 37.984375 10.484375 
Q 42.4375 14.59375 44 22.796875 
L 50.203125 54.6875 
L 59.1875 54.6875 
L 51.03125 12.640625 
Q 50.828125 11.71875 50.75 11.03125 
Q 50.6875 10.359375 50.6875 9.8125 
Q 50.6875 8.296875 51.296875 7.59375 
Q 51.90625 6.890625 53.21875 6.890625 
Q 53.71875 6.890625 54.5625 7.125 
Q 55.421875 7.375 56.984375 8.015625 
L 55.609375 0.78125 
Q 53.46875 -0.296875 51.515625 -0.859375 
Q 49.5625 -1.421875 47.703125 -1.421875 
Q 44.484375 -1.421875 42.65625 0.625 
Q 40.828125 2.6875 40.828125 6.296875 
Q 38.09375 2.390625 34.296875 0.484375 
Q 30.515625 -1.421875 25.390625 -1.421875 
Q 20.84375 -1.421875 17.453125 0.671875 
Q 14.0625 2.78125 12.984375 6.203125 
L 7.71875 -20.796875 
z
" id="DejaVuSans-Oblique-956"/>
      <path d="M 46 62.703125 
L 46 43.796875 
L 73.1875 43.796875 
L 73.1875 35.5 
L 46 35.5 
L 46 16.609375 
L 37.796875 16.609375 
L 37.796875 35.5 
L 10.59375 35.5 
L 10.59375 43.796875 
L 37.796875 43.796875 
L 37.796875 62.703125 
z
M 10.59375 8.296875 
L 73.1875 8.296875 
L 73.1875 0 
L 10.59375 0 
z
" id="DejaVuSans-177"/>
      <path d="M 34.671875 47.5625 
Q 27.25 47.5625 22.21875 42.1875 
Q 16.890625 36.578125 15.140625 27.296875 
Q 13.1875 17.484375 16.3125 11.8125 
Q 19.390625 6.203125 26.65625 6.203125 
Q 33.84375 6.203125 39.109375 11.859375 
Q 44.4375 17.53125 46.34375 27.296875 
Q 48.046875 36.234375 45.015625 42.1875 
Q 42.1875 47.5625 34.671875 47.5625 
z
M 36.078125 54.734375 
L 65.921875 54.6875 
L 64.15625 45.703125 
L 54.109375 45.703125 
Q 57.90625 38.09375 55.859375 27.296875 
Q 53.21875 13.875 45.0625 6.25 
Q 36.859375 -1.421875 25.140625 -1.421875 
Q 13.375 -1.421875 8.203125 6.25 
Q 3.03125 13.875 5.671875 27.296875 
Q 8.25 40.765625 16.40625 48.390625 
Q 23.1875 54.734375 36.078125 54.734375 
z
" id="DejaVuSans-Oblique-963"/>
     </defs>
     <g transform="translate(419.432625 53.154687)scale(0.1 -0.1)">
      <use transform="translate(0 0.296875)" xlink:href="#DejaVuSans-Oblique-956"/>
      <use transform="translate(83.105469 0.296875)" xlink:href="#DejaVuSans-177"/>
      <use transform="translate(186.376953 0.296875)" xlink:href="#DejaVuSans-Oblique-963"/>
     </g>
    </g>
    <g id="PathCollection_1">
     <defs>
      <path d="M 0 8.660254 
C 2.296726 8.660254 4.499694 7.747755 6.123724 6.123724 
C 7.747755 4.499694 8.660254 2.296726 8.660254 0 
C 8.660254 -2.296726 7.747755 -4.499694 6.123724 -6.123724 
C 4.499694 -7.747755 2.296726 -8.660254 0 -8.660254 
C -2.296726 -8.660254 -4.499694 -7.747755 -6.123724 -6.123724 
C -7.747755 -4.499694 -8.660254 -2.296726 -8.660254 0 
C -8.660254 2.296726 -7.747755 4.499694 -6.123724 6.123724 
C -4.499694 7.747755 -2.296726 8.660254 0 8.660254 
z
" id="md112c51502" style="stroke:#ff0000;"/>
     </defs>
     <g>
      <use style="fill:#ff0000;stroke:#ff0000;" x="401.432625" xlink:href="#md112c51502" y="65.228125"/>
     </g>
    </g>
    <g id="text_18">
     <!-- Last Added Point -->
     <defs>
      <path d="M 9.8125 72.90625 
L 19.671875 72.90625 
L 19.671875 8.296875 
L 55.171875 8.296875 
L 55.171875 0 
L 9.8125 0 
z
" id="DejaVuSans-76"/>
      <path d="M 34.28125 27.484375 
Q 23.390625 27.484375 19.1875 25 
Q 14.984375 22.515625 14.984375 16.5 
Q 14.984375 11.71875 18.140625 8.90625 
Q 21.296875 6.109375 26.703125 6.109375 
Q 34.1875 6.109375 38.703125 11.40625 
Q 43.21875 16.703125 43.21875 25.484375 
L 43.21875 27.484375 
z
M 52.203125 31.203125 
L 52.203125 0 
L 43.21875 0 
L 43.21875 8.296875 
Q 40.140625 3.328125 35.546875 0.953125 
Q 30.953125 -1.421875 24.3125 -1.421875 
Q 15.921875 -1.421875 10.953125 3.296875 
Q 6 8.015625 6 15.921875 
Q 6 25.140625 12.171875 29.828125 
Q 18.359375 34.515625 30.609375 34.515625 
L 43.21875 34.515625 
L 43.21875 35.40625 
Q 43.21875 41.609375 39.140625 45 
Q 35.0625 48.390625 27.6875 48.390625 
Q 23 48.390625 18.546875 47.265625 
Q 14.109375 46.140625 10.015625 43.890625 
L 10.015625 52.203125 
Q 14.9375 54.109375 19.578125 55.046875 
Q 24.21875 56 28.609375 56 
Q 40.484375 56 46.34375 49.84375 
Q 52.203125 43.703125 52.203125 31.203125 
z
" id="DejaVuSans-97"/>
      <path d="M 44.28125 53.078125 
L 44.28125 44.578125 
Q 40.484375 46.53125 36.375 47.5 
Q 32.28125 48.484375 27.875 48.484375 
Q 21.1875 48.484375 17.84375 46.4375 
Q 14.5 44.390625 14.5 40.28125 
Q 14.5 37.15625 16.890625 35.375 
Q 19.28125 33.59375 26.515625 31.984375 
L 29.59375 31.296875 
Q 39.15625 29.25 43.1875 25.515625 
Q 47.21875 21.78125 47.21875 15.09375 
Q 47.21875 7.46875 41.1875 3.015625 
Q 35.15625 -1.421875 24.609375 -1.421875 
Q 20.21875 -1.421875 15.453125 -0.5625 
Q 10.6875 0.296875 5.421875 2 
L 5.421875 11.28125 
Q 10.40625 8.6875 15.234375 7.390625 
Q 20.0625 6.109375 24.8125 6.109375 
Q 31.15625 6.109375 34.5625 8.28125 
Q 37.984375 10.453125 37.984375 14.40625 
Q 37.984375 18.0625 35.515625 20.015625 
Q 33.0625 21.96875 24.703125 23.78125 
L 21.578125 24.515625 
Q 13.234375 26.265625 9.515625 29.90625 
Q 5.8125 33.546875 5.8125 39.890625 
Q 5.8125 47.609375 11.28125 51.796875 
Q 16.75 56 26.8125 56 
Q 31.78125 56 36.171875 55.265625 
Q 40.578125 54.546875 44.28125 53.078125 
z
" id="DejaVuSans-115"/>
      <path d="M 34.1875 63.1875 
L 20.796875 26.90625 
L 47.609375 26.90625 
z
M 28.609375 72.90625 
L 39.796875 72.90625 
L 67.578125 0 
L 57.328125 0 
L 50.6875 18.703125 
L 17.828125 18.703125 
L 11.1875 0 
L 0.78125 0 
z
" id="DejaVuSans-65"/>
     </defs>
     <g transform="translate(419.432625 67.853125)scale(0.1 -0.1)">
      <use xlink:href="#DejaVuSans-76"/>
      <use x="55.712891" xlink:href="#DejaVuSans-97"/>
      <use x="116.992188" xlink:href="#DejaVuSans-115"/>
      <use x="169.091797" xlink:href="#DejaVuSans-116"/>
      <use x="208.300781" xlink:href="#DejaVuSans-32"/>
      <use x="240.087891" xlink:href="#DejaVuSans-65"/>
      <use x="308.480469" xlink:href="#DejaVuSans-100"/>
      <use x="371.957031" xlink:href="#DejaVuSans-100"/>
      <use x="435.433594" xlink:href="#DejaVuSans-101"/>
      <use x="496.957031" xlink:href="#DejaVuSans-100"/>
      <use x="560.433594" xlink:href="#DejaVuSans-32"/>
      <use x="592.220703" xlink:href="#DejaVuSans-80"/>
      <use x="652.476562" xlink:href="#DejaVuSans-111"/>
      <use x="713.658203" xlink:href="#DejaVuSans-105"/>
      <use x="741.441406" xlink:href="#DejaVuSans-110"/>
      <use x="804.820312" xlink:href="#DejaVuSans-116"/>
     </g>
    </g>
   </g>
   <g id="PathCollection_2">
    <g clip-path="url(#pb90afdde5c)">
     <use style="fill:#ff0000;stroke:#ff0000;" x="74.822443" xlink:href="#md112c51502" y="80.315809"/>
    </g>
   </g>
  </g>
 </g>
 <defs>
  <clipPath id="pb90afdde5c">
   <rect height="217.44" width="334.8" x="34.240625" y="7.2"/>
  </clipPath>
 </defs>
</svg>
