<?xml version="1.0" encoding="utf-8" standalone="no"?>
<!DOCTYPE svg PUBLIC "-//W3C//DTD SVG 1.1//EN"
  "http://www.w3.org/Graphics/SVG/1.1/DTD/svg11.dtd">
<!-- Created with matplotlib (https://matplotlib.org/) -->
<svg height="276.8496pt" version="1.1" viewBox="0 0 538.750475 276.8496" width="538.750475pt" xmlns="http://www.w3.org/2000/svg" xmlns:xlink="http://www.w3.org/1999/xlink">
 <defs>
  <style type="text/css">
*{stroke-linecap:butt;stroke-linejoin:round;white-space:pre;}
  </style>
 </defs>
 <g id="figure_1">
  <g id="patch_1">
   <path d="M 0 276.8496 
L 538.750475 276.8496 
L 538.750475 0 
L 0 0 
z
" style="fill:#f0f0f0;"/>
  </g>
  <g id="axes_1">
   <g id="patch_2">
    <path d="M 30.346875 242.93085 
L 406.186875 242.93085 
L 406.186875 25.49085 
L 30.346875 25.49085 
z
" style="fill:#f0f0f0;"/>
   </g>
   <g id="matplotlib.axis_1">
    <g id="xtick_1">
     <g id="line2d_1">
      <path clip-path="url(#pf379d159a0)" d="M 47.430511 242.93085 
L 47.430511 25.49085 
" style="fill:none;stroke:#cbcbcb;"/>
     </g>
     <g id="line2d_2"/>
     <g id="text_1">
      <!-- 0 -->
      <defs>
       <path d="M 5 34.703125 
Q 5 52.09375 11.140625 61.5 
Q 17.296875 70.90625 28.203125 70.90625 
Q 39.09375 70.90625 45.25 61.5 
Q 51.40625 52.09375 51.40625 34.703125 
Q 51.40625 17.296875 45.25 7.890625 
Q 39.09375 -1.5 28.203125 -1.5 
Q 17.296875 -1.5 11.140625 7.890625 
Q 5 17.296875 5 34.703125 
z
M 41.59375 34.703125 
Q 41.59375 40.40625 40.9375 45.5 
Q 40.296875 50.59375 38.75 54.390625 
Q 37.203125 58.203125 34.59375 60.453125 
Q 32 62.703125 28.203125 62.703125 
Q 24.40625 62.703125 21.796875 60.453125 
Q 19.203125 58.203125 17.640625 54.390625 
Q 16.09375 50.59375 15.4375 45.5 
Q 14.796875 40.40625 14.796875 34.703125 
Q 14.796875 29 15.4375 23.890625 
Q 16.09375 18.796875 17.640625 15 
Q 19.203125 11.203125 21.796875 8.953125 
Q 24.40625 6.703125 28.203125 6.703125 
Q 32 6.703125 34.59375 8.953125 
Q 37.203125 11.203125 38.75 15 
Q 40.296875 18.796875 40.9375 23.890625 
Q 41.59375 29 41.59375 34.703125 
z
" id="Ubuntu-48"/>
      </defs>
      <g transform="translate(44.89223 253.414288)scale(0.09 -0.09)">
       <use xlink:href="#Ubuntu-48"/>
      </g>
     </g>
    </g>
    <g id="xtick_2">
     <g id="line2d_3">
      <path clip-path="url(#pf379d159a0)" d="M 104.375966 242.93085 
L 104.375966 25.49085 
" style="fill:none;stroke:#cbcbcb;"/>
     </g>
     <g id="line2d_4"/>
     <g id="text_2">
      <!-- 1 -->
      <defs>
       <path d="M 9.296875 55 
Q 15 57.203125 20.390625 60.640625 
Q 25.796875 64.09375 30.296875 69.296875 
L 36.90625 69.296875 
L 36.90625 0 
L 27.59375 0 
L 27.59375 56.40625 
Q 26.40625 55.296875 24.65625 54.09375 
Q 22.90625 52.90625 20.84375 51.796875 
Q 18.796875 50.703125 16.546875 49.703125 
Q 14.296875 48.703125 12.203125 48 
z
" id="Ubuntu-49"/>
      </defs>
      <g transform="translate(101.837685 253.414288)scale(0.09 -0.09)">
       <use xlink:href="#Ubuntu-49"/>
      </g>
     </g>
    </g>
    <g id="xtick_3">
     <g id="line2d_5">
      <path clip-path="url(#pf379d159a0)" d="M 161.32142 242.93085 
L 161.32142 25.49085 
" style="fill:none;stroke:#cbcbcb;"/>
     </g>
     <g id="line2d_6"/>
     <g id="text_3">
      <!-- 2 -->
      <defs>
       <path d="M 46.703125 51.59375 
Q 46.703125 48 45.25 44.640625 
Q 43.796875 41.296875 41.390625 38.046875 
Q 39 34.796875 36 31.640625 
Q 33 28.5 30 25.5 
Q 28.296875 23.796875 26.046875 21.5 
Q 23.796875 19.203125 21.796875 16.703125 
Q 19.796875 14.203125 18.4375 11.890625 
Q 17.09375 9.59375 17.09375 7.90625 
L 49 7.90625 
L 49 0 
L 7 0 
Q 6.90625 0.59375 6.90625 1.1875 
Q 6.90625 1.796875 6.90625 2.296875 
Q 6.90625 7 8.453125 11.046875 
Q 10 15.09375 12.5 18.6875 
Q 15 22.296875 18.09375 25.5 
Q 21.203125 28.703125 24.203125 31.703125 
Q 26.703125 34.09375 28.953125 36.4375 
Q 31.203125 38.796875 32.953125 41.140625 
Q 34.703125 43.5 35.75 46 
Q 36.796875 48.5 36.796875 51.296875 
Q 36.796875 54.296875 35.84375 56.390625 
Q 34.90625 58.5 33.296875 59.890625 
Q 31.703125 61.296875 29.546875 61.9375 
Q 27.40625 62.59375 25 62.59375 
Q 22.09375 62.59375 19.6875 61.796875 
Q 17.296875 61 15.390625 59.953125 
Q 13.5 58.90625 12.203125 57.75 
Q 10.90625 56.59375 10.203125 56 
L 5.59375 62.59375 
Q 6.5 63.59375 8.296875 65.046875 
Q 10.09375 66.5 12.59375 67.796875 
Q 15.09375 69.09375 18.1875 70 
Q 21.296875 70.90625 24.90625 70.90625 
Q 35.796875 70.90625 41.25 65.84375 
Q 46.703125 60.796875 46.703125 51.59375 
z
" id="Ubuntu-50"/>
      </defs>
      <g transform="translate(158.783139 253.414288)scale(0.09 -0.09)">
       <use xlink:href="#Ubuntu-50"/>
      </g>
     </g>
    </g>
    <g id="xtick_4">
     <g id="line2d_7">
      <path clip-path="url(#pf379d159a0)" d="M 218.266875 242.93085 
L 218.266875 25.49085 
" style="fill:none;stroke:#cbcbcb;"/>
     </g>
     <g id="line2d_8"/>
     <g id="text_4">
      <!-- 3 -->
      <defs>
       <path d="M 22.59375 6.796875 
Q 31.5 6.796875 35.34375 10.296875 
Q 39.203125 13.796875 39.203125 19.703125 
Q 39.203125 23.5 37.59375 26.09375 
Q 36 28.703125 33.390625 30.25 
Q 30.796875 31.796875 27.34375 32.4375 
Q 23.90625 33.09375 20.296875 33.09375 
L 17.90625 33.09375 
L 17.90625 40.703125 
L 21.203125 40.703125 
Q 23.703125 40.703125 26.34375 41.203125 
Q 29 41.703125 31.203125 43 
Q 33.40625 44.296875 34.796875 46.546875 
Q 36.203125 48.796875 36.203125 52.203125 
Q 36.203125 55 35.203125 57 
Q 34.203125 59 32.546875 60.296875 
Q 30.90625 61.59375 28.75 62.140625 
Q 26.59375 62.703125 24.203125 62.703125 
Q 19.40625 62.703125 16.046875 61.296875 
Q 12.703125 59.90625 10.40625 58.40625 
L 6.796875 65.5 
Q 8 66.296875 9.84375 67.25 
Q 11.703125 68.203125 14 69 
Q 16.296875 69.796875 18.9375 70.34375 
Q 21.59375 70.90625 24.5 70.90625 
Q 30 70.90625 34 69.546875 
Q 38 68.203125 40.59375 65.75 
Q 43.203125 63.296875 44.5 59.9375 
Q 45.796875 56.59375 45.796875 52.703125 
Q 45.796875 47.296875 42.6875 43.4375 
Q 39.59375 39.59375 35.203125 37.59375 
Q 37.90625 36.796875 40.40625 35.296875 
Q 42.90625 33.796875 44.75 31.5 
Q 46.59375 29.203125 47.75 26.203125 
Q 48.90625 23.203125 48.90625 19.5 
Q 48.90625 15 47.34375 11.140625 
Q 45.796875 7.296875 42.546875 4.5 
Q 39.296875 1.703125 34.390625 0.09375 
Q 29.5 -1.5 22.796875 -1.5 
Q 20.203125 -1.5 17.453125 -1.09375 
Q 14.703125 -0.703125 12.296875 -0.09375 
Q 9.90625 0.5 8.09375 1.09375 
Q 6.296875 1.703125 5.5 2.09375 
L 7.296875 10.203125 
Q 9 9.40625 12.953125 8.09375 
Q 16.90625 6.796875 22.59375 6.796875 
z
" id="Ubuntu-51"/>
      </defs>
      <g transform="translate(215.728594 253.414288)scale(0.09 -0.09)">
       <use xlink:href="#Ubuntu-51"/>
      </g>
     </g>
    </g>
    <g id="xtick_5">
     <g id="line2d_9">
      <path clip-path="url(#pf379d159a0)" d="M 275.21233 242.93085 
L 275.21233 25.49085 
" style="fill:none;stroke:#cbcbcb;"/>
     </g>
     <g id="line2d_10"/>
     <g id="text_5">
      <!-- 4 -->
      <defs>
       <path d="M 4 24 
Q 5.90625 28.40625 9.203125 34.25 
Q 12.5 40.09375 16.640625 46.296875 
Q 20.796875 52.5 25.546875 58.5 
Q 30.296875 64.5 35.09375 69.296875 
L 44 69.296875 
L 44 25.296875 
L 52.203125 25.296875 
L 52.203125 17.703125 
L 44 17.703125 
L 44 0 
L 35 0 
L 35 17.703125 
L 4 17.703125 
z
M 35 58.296875 
Q 32 55.09375 28.953125 51.140625 
Q 25.90625 47.203125 23 42.890625 
Q 20.09375 38.59375 17.546875 34.09375 
Q 15 29.59375 13 25.296875 
L 35 25.296875 
z
" id="Ubuntu-52"/>
      </defs>
      <g transform="translate(272.674048 253.414288)scale(0.09 -0.09)">
       <use xlink:href="#Ubuntu-52"/>
      </g>
     </g>
    </g>
    <g id="xtick_6">
     <g id="line2d_11">
      <path clip-path="url(#pf379d159a0)" d="M 332.157784 242.93085 
L 332.157784 25.49085 
" style="fill:none;stroke:#cbcbcb;"/>
     </g>
     <g id="line2d_12"/>
     <g id="text_6">
      <!-- 5 -->
      <defs>
       <path d="M 19.90625 42.59375 
Q 35 42 42.046875 36 
Q 49.09375 30 49.09375 19.703125 
Q 49.09375 15.09375 47.546875 11.1875 
Q 46 7.296875 42.84375 4.5 
Q 39.703125 1.703125 34.890625 0.09375 
Q 30.09375 -1.5 23.5 -1.5 
Q 20.90625 -1.5 18.203125 -1.09375 
Q 15.5 -0.703125 13.203125 -0.09375 
Q 10.90625 0.5 9.09375 1.09375 
Q 7.296875 1.703125 6.5 2.09375 
L 8.296875 10.203125 
Q 10 9.40625 13.84375 8.09375 
Q 17.703125 6.796875 23.296875 6.796875 
Q 27.796875 6.796875 30.84375 7.796875 
Q 33.90625 8.796875 35.796875 10.5 
Q 37.703125 12.203125 38.546875 14.453125 
Q 39.40625 16.703125 39.40625 19.203125 
Q 39.40625 23 38.09375 25.953125 
Q 36.796875 28.90625 33.5 30.90625 
Q 30.203125 32.90625 24.703125 33.953125 
Q 19.203125 35 10.796875 35 
Q 11.40625 39.90625 11.75 44.203125 
Q 12.09375 48.5 12.390625 52.59375 
Q 12.703125 56.703125 12.890625 60.75 
Q 13.09375 64.796875 13.296875 69.296875 
L 46.703125 69.296875 
L 46.703125 61.40625 
L 21.40625 61.40625 
Q 21.296875 59.90625 21.09375 57.34375 
Q 20.90625 54.796875 20.703125 52.046875 
Q 20.5 49.296875 20.296875 46.6875 
Q 20.09375 44.09375 19.90625 42.59375 
z
" id="Ubuntu-53"/>
      </defs>
      <g transform="translate(329.619503 253.414288)scale(0.09 -0.09)">
       <use xlink:href="#Ubuntu-53"/>
      </g>
     </g>
    </g>
    <g id="xtick_7">
     <g id="line2d_13">
      <path clip-path="url(#pf379d159a0)" d="M 389.103239 242.93085 
L 389.103239 25.49085 
" style="fill:none;stroke:#cbcbcb;"/>
     </g>
     <g id="line2d_14"/>
     <g id="text_7">
      <!-- 6 -->
      <defs>
       <path d="M 6.296875 27.796875 
Q 6.296875 37.90625 9.09375 45.65625 
Q 11.90625 53.40625 17.046875 58.703125 
Q 22.203125 64 29.546875 66.75 
Q 36.90625 69.5 46.09375 69.59375 
L 46.796875 61.796875 
Q 40.90625 61.703125 36.046875 60.5 
Q 31.203125 59.296875 27.390625 56.6875 
Q 23.59375 54.09375 21 49.9375 
Q 18.40625 45.796875 17.09375 39.703125 
Q 19.703125 40.90625 22.953125 41.703125 
Q 26.203125 42.5 29.703125 42.5 
Q 35.59375 42.5 39.6875 40.703125 
Q 43.796875 38.90625 46.390625 35.953125 
Q 49 33 50.140625 29.140625 
Q 51.296875 25.296875 51.296875 21.09375 
Q 51.296875 17.296875 50 13.296875 
Q 48.703125 9.296875 46.046875 6 
Q 43.40625 2.703125 39.296875 0.59375 
Q 35.203125 -1.5 29.59375 -1.5 
Q 18.203125 -1.5 12.25 6.296875 
Q 6.296875 14.09375 6.296875 27.796875 
z
M 28.703125 34.90625 
Q 25.203125 34.90625 22.203125 34.25 
Q 19.203125 33.59375 16.203125 32.296875 
Q 16.09375 31.203125 16.046875 30.046875 
Q 16 28.90625 16 27.796875 
Q 16 23.40625 16.59375 19.5 
Q 17.203125 15.59375 18.75 12.640625 
Q 20.296875 9.703125 22.890625 7.953125 
Q 25.5 6.203125 29.5 6.203125 
Q 32.796875 6.203125 35.09375 7.59375 
Q 37.40625 9 38.90625 11.203125 
Q 40.40625 13.40625 41.046875 15.953125 
Q 41.703125 18.5 41.703125 20.90625 
Q 41.703125 27.703125 38.453125 31.296875 
Q 35.203125 34.90625 28.703125 34.90625 
z
" id="Ubuntu-54"/>
      </defs>
      <g transform="translate(386.564957 253.414288)scale(0.09 -0.09)">
       <use xlink:href="#Ubuntu-54"/>
      </g>
     </g>
    </g>
    <g id="text_8">
     <!-- X -->
     <defs>
      <path d="M 50.203125 0 
Q 48.703125 3 46.59375 6.640625 
Q 44.5 10.296875 42 14.25 
Q 39.5 18.203125 36.796875 22.140625 
Q 34.09375 26.09375 31.59375 29.59375 
Q 29.09375 26.09375 26.390625 22.140625 
Q 23.703125 18.203125 21.25 14.25 
Q 18.796875 10.296875 16.640625 6.640625 
Q 14.5 3 13 0 
L 2.296875 0 
Q 6.796875 8.796875 12.75 17.890625 
Q 18.703125 27 25.40625 36.59375 
L 3.203125 69.296875 
L 14.40625 69.296875 
L 31.5 43.5 
L 48.40625 69.296875 
L 59.5 69.296875 
L 37.703125 37 
Q 44.5 27.296875 50.5 18.09375 
Q 56.5 8.90625 61.09375 0 
z
" id="Ubuntu-88"/>
     </defs>
     <g transform="translate(214.796719 267.6146)scale(0.11 -0.11)">
      <use xlink:href="#Ubuntu-88"/>
     </g>
    </g>
   </g>
   <g id="matplotlib.axis_2">
    <g id="ytick_1">
     <g id="line2d_15">
      <path clip-path="url(#pf379d159a0)" d="M 30.346875 211.505959 
L 406.186875 211.505959 
" style="fill:none;stroke:#cbcbcb;"/>
     </g>
     <g id="line2d_16"/>
     <g id="text_9">
      <!-- 0 -->
      <g transform="translate(21.770313 214.997678)scale(0.09 -0.09)">
       <use xlink:href="#Ubuntu-48"/>
      </g>
     </g>
    </g>
    <g id="ytick_2">
     <g id="line2d_17">
      <path clip-path="url(#pf379d159a0)" d="M 30.346875 168.42345 
L 406.186875 168.42345 
" style="fill:none;stroke:#cbcbcb;"/>
     </g>
     <g id="line2d_18"/>
     <g id="text_10">
      <!-- 2 -->
      <g transform="translate(21.770313 171.915169)scale(0.09 -0.09)">
       <use xlink:href="#Ubuntu-50"/>
      </g>
     </g>
    </g>
    <g id="ytick_3">
     <g id="line2d_19">
      <path clip-path="url(#pf379d159a0)" d="M 30.346875 125.340941 
L 406.186875 125.340941 
" style="fill:none;stroke:#cbcbcb;"/>
     </g>
     <g id="line2d_20"/>
     <g id="text_11">
      <!-- 4 -->
      <g transform="translate(21.770313 128.83266)scale(0.09 -0.09)">
       <use xlink:href="#Ubuntu-52"/>
      </g>
     </g>
    </g>
    <g id="ytick_4">
     <g id="line2d_21">
      <path clip-path="url(#pf379d159a0)" d="M 30.346875 82.258432 
L 406.186875 82.258432 
" style="fill:none;stroke:#cbcbcb;"/>
     </g>
     <g id="line2d_22"/>
     <g id="text_12">
      <!-- 6 -->
      <g transform="translate(21.770313 85.750151)scale(0.09 -0.09)">
       <use xlink:href="#Ubuntu-54"/>
      </g>
     </g>
    </g>
    <g id="ytick_5">
     <g id="line2d_23">
      <path clip-path="url(#pf379d159a0)" d="M 30.346875 39.175923 
L 406.186875 39.175923 
" style="fill:none;stroke:#cbcbcb;"/>
     </g>
     <g id="line2d_24"/>
     <g id="text_13">
      <!-- 8 -->
      <defs>
       <path d="M 50.90625 18 
Q 50.90625 13.796875 49.453125 10.25 
Q 48 6.703125 45.140625 4.046875 
Q 42.296875 1.40625 38 -0.046875 
Q 33.703125 -1.5 28.09375 -1.5 
Q 21.59375 -1.5 17.25 0.34375 
Q 12.90625 2.203125 10.296875 5 
Q 7.703125 7.796875 6.59375 11.140625 
Q 5.5 14.5 5.5 17.5 
Q 5.5 20.40625 6.453125 23.046875 
Q 7.40625 25.703125 8.953125 28 
Q 10.5 30.296875 12.546875 32.140625 
Q 14.59375 34 16.90625 35.40625 
Q 7.09375 41 7.09375 51.90625 
Q 7.09375 55.703125 8.59375 59.140625 
Q 10.09375 62.59375 12.84375 65.1875 
Q 15.59375 67.796875 19.5 69.34375 
Q 23.40625 70.90625 28.203125 70.90625 
Q 33.796875 70.90625 37.796875 69.203125 
Q 41.796875 67.5 44.34375 64.84375 
Q 46.90625 62.203125 48.046875 59 
Q 49.203125 55.796875 49.203125 52.796875 
Q 49.203125 49.90625 48.34375 47.34375 
Q 47.5 44.796875 46.046875 42.59375 
Q 44.59375 40.40625 42.75 38.703125 
Q 40.90625 37 38.90625 35.703125 
Q 50.703125 30.09375 50.90625 18 
z
M 14.90625 17.40625 
Q 14.90625 15.59375 15.546875 13.640625 
Q 16.203125 11.703125 17.796875 10.046875 
Q 19.40625 8.40625 21.90625 7.296875 
Q 24.40625 6.203125 28.203125 6.203125 
Q 31.59375 6.203125 34.140625 7.203125 
Q 36.703125 8.203125 38.296875 9.75 
Q 39.90625 11.296875 40.703125 13.296875 
Q 41.5 15.296875 41.5 17.40625 
Q 41.5 20.59375 40.296875 23 
Q 39.09375 25.40625 36.84375 27.203125 
Q 34.59375 29 31.4375 30.25 
Q 28.296875 31.5 24.296875 32.40625 
Q 19.796875 29.90625 17.34375 26.203125 
Q 14.90625 22.5 14.90625 17.40625 
z
M 39.90625 52.90625 
Q 39.90625 54.40625 39.25 56.203125 
Q 38.59375 58 37.1875 59.546875 
Q 35.796875 61.09375 33.59375 62.140625 
Q 31.40625 63.203125 28.203125 63.203125 
Q 25 63.203125 22.75 62.203125 
Q 20.5 61.203125 19.09375 59.640625 
Q 17.703125 58.09375 17.046875 56.25 
Q 16.40625 54.40625 16.40625 52.59375 
Q 16.40625 50.40625 17.203125 48.203125 
Q 18 46 19.703125 44.09375 
Q 21.40625 42.203125 24.15625 40.703125 
Q 26.90625 39.203125 30.703125 38.296875 
Q 34.90625 40.796875 37.40625 44.140625 
Q 39.90625 47.5 39.90625 52.90625 
z
" id="Ubuntu-56"/>
      </defs>
      <g transform="translate(21.770313 42.667642)scale(0.09 -0.09)">
       <use xlink:href="#Ubuntu-56"/>
      </g>
     </g>
    </g>
    <g id="text_14">
     <!-- Gold content -->
     <defs>
      <path d="M 50.90625 34.09375 
L 60.59375 34.09375 
L 60.59375 1.703125 
Q 59.40625 1.296875 57.15625 0.796875 
Q 54.90625 0.296875 51.953125 -0.203125 
Q 49 -0.703125 45.5 -1.046875 
Q 42 -1.40625 38.40625 -1.40625 
Q 31.09375 -1.40625 25.09375 1 
Q 19.09375 3.40625 14.796875 8 
Q 10.5 12.59375 8.140625 19.296875 
Q 5.796875 26 5.796875 34.703125 
Q 5.796875 43.40625 8.4375 50.15625 
Q 11.09375 56.90625 15.59375 61.5 
Q 20.09375 66.09375 26.140625 68.5 
Q 32.203125 70.90625 39.09375 70.90625 
Q 43.796875 70.90625 47.4375 70.296875 
Q 51.09375 69.703125 53.6875 68.890625 
Q 56.296875 68.09375 57.9375 67.296875 
Q 59.59375 66.5 60.203125 66.09375 
L 57.09375 58 
Q 54.203125 59.90625 49.390625 61.15625 
Q 44.59375 62.40625 39.59375 62.40625 
Q 34.296875 62.40625 29.9375 60.5 
Q 25.59375 58.59375 22.546875 55 
Q 19.5 51.40625 17.796875 46.25 
Q 16.09375 41.09375 16.09375 34.703125 
Q 16.09375 28.5 17.546875 23.390625 
Q 19 18.296875 21.953125 14.640625 
Q 24.90625 11 29.25 9 
Q 33.59375 7 39.5 7 
Q 43.703125 7 46.640625 7.453125 
Q 49.59375 7.90625 50.90625 8.296875 
z
" id="Ubuntu-71"/>
      <path d="M 53.90625 26 
Q 53.90625 19.796875 52.09375 14.796875 
Q 50.296875 9.796875 47.046875 6.1875 
Q 43.796875 2.59375 39.296875 0.640625 
Q 34.796875 -1.296875 29.5 -1.296875 
Q 24.203125 -1.296875 19.703125 0.640625 
Q 15.203125 2.59375 11.953125 6.1875 
Q 8.703125 9.796875 6.890625 14.796875 
Q 5.09375 19.796875 5.09375 26 
Q 5.09375 32.09375 6.890625 37.140625 
Q 8.703125 42.203125 11.953125 45.796875 
Q 15.203125 49.40625 19.703125 51.34375 
Q 24.203125 53.296875 29.5 53.296875 
Q 34.796875 53.296875 39.296875 51.34375 
Q 43.796875 49.40625 47.046875 45.796875 
Q 50.296875 42.203125 52.09375 37.140625 
Q 53.90625 32.09375 53.90625 26 
z
M 44.203125 26 
Q 44.203125 34.796875 40.25 39.9375 
Q 36.296875 45.09375 29.5 45.09375 
Q 22.703125 45.09375 18.75 39.9375 
Q 14.796875 34.796875 14.796875 26 
Q 14.796875 17.203125 18.75 12.046875 
Q 22.703125 6.90625 29.5 6.90625 
Q 36.296875 6.90625 40.25 12.046875 
Q 44.203125 17.203125 44.203125 26 
z
" id="Ubuntu-111"/>
      <path d="M 23.59375 -1 
Q 15 -0.796875 11.390625 2.703125 
Q 7.796875 6.203125 7.796875 13.59375 
L 7.796875 76 
L 17.09375 77.59375 
L 17.09375 15.09375 
Q 17.09375 12.796875 17.5 11.296875 
Q 17.90625 9.796875 18.796875 8.890625 
Q 19.703125 8 21.203125 7.546875 
Q 22.703125 7.09375 24.90625 6.796875 
z
" id="Ubuntu-108"/>
      <path d="M 41.59375 41 
Q 39.90625 42.40625 36.703125 43.703125 
Q 33.5 45 29.703125 45 
Q 25.703125 45 22.84375 43.546875 
Q 20 42.09375 18.203125 39.546875 
Q 16.40625 37 15.59375 33.5 
Q 14.796875 30 14.796875 26 
Q 14.796875 16.90625 19.296875 11.953125 
Q 23.796875 7 31.296875 7 
Q 35.09375 7 37.640625 7.34375 
Q 40.203125 7.703125 41.59375 8.09375 
z
M 41.59375 76 
L 50.90625 77.59375 
L 50.90625 1.5 
Q 47.703125 0.59375 42.703125 -0.296875 
Q 37.703125 -1.203125 31.203125 -1.203125 
Q 25.203125 -1.203125 20.390625 0.6875 
Q 15.59375 2.59375 12.1875 6.09375 
Q 8.796875 9.59375 6.9375 14.640625 
Q 5.09375 19.703125 5.09375 26 
Q 5.09375 32 6.640625 37 
Q 8.203125 42 11.203125 45.59375 
Q 14.203125 49.203125 18.546875 51.203125 
Q 22.90625 53.203125 28.5 53.203125 
Q 33 53.203125 36.453125 52 
Q 39.90625 50.796875 41.59375 49.703125 
z
" id="Ubuntu-100"/>
      <path id="Ubuntu-32"/>
      <path d="M 30.59375 -1.203125 
Q 24.296875 -1.203125 19.546875 0.796875 
Q 14.796875 2.796875 11.546875 6.390625 
Q 8.296875 10 6.6875 14.953125 
Q 5.09375 19.90625 5.09375 25.90625 
Q 5.09375 31.90625 6.84375 36.90625 
Q 8.59375 41.90625 11.796875 45.546875 
Q 15 49.203125 19.640625 51.25 
Q 24.296875 53.296875 30 53.296875 
Q 33.5 53.296875 37 52.6875 
Q 40.5 52.09375 43.703125 50.796875 
L 41.59375 42.90625 
Q 39.5 43.90625 36.75 44.5 
Q 34 45.09375 30.90625 45.09375 
Q 23.09375 45.09375 18.9375 40.1875 
Q 14.796875 35.296875 14.796875 25.90625 
Q 14.796875 21.703125 15.75 18.203125 
Q 16.703125 14.703125 18.75 12.203125 
Q 20.796875 9.703125 24 8.34375 
Q 27.203125 7 31.796875 7 
Q 35.5 7 38.5 7.703125 
Q 41.5 8.40625 43.203125 9.203125 
L 44.5 1.40625 
Q 43.703125 0.90625 42.203125 0.453125 
Q 40.703125 0 38.796875 -0.34375 
Q 36.90625 -0.703125 34.75 -0.953125 
Q 32.59375 -1.203125 30.59375 -1.203125 
z
" id="Ubuntu-99"/>
      <path d="M 8 50.5 
Q 11.203125 51.296875 16.5 52.1875 
Q 21.796875 53.09375 28.703125 53.09375 
Q 34.90625 53.09375 39 51.34375 
Q 43.09375 49.59375 45.546875 46.4375 
Q 48 43.296875 49 38.890625 
Q 50 34.5 50 29.203125 
L 50 0 
L 40.703125 0 
L 40.703125 27.203125 
Q 40.703125 32 40.046875 35.390625 
Q 39.40625 38.796875 37.90625 40.890625 
Q 36.40625 43 33.90625 43.953125 
Q 31.40625 44.90625 27.703125 44.90625 
Q 26.203125 44.90625 24.59375 44.796875 
Q 23 44.703125 21.546875 44.546875 
Q 20.09375 44.40625 18.9375 44.203125 
Q 17.796875 44 17.296875 43.90625 
L 17.296875 0 
L 8 0 
z
" id="Ubuntu-110"/>
      <path d="M 16.703125 52 
L 36.40625 52 
L 36.40625 44.203125 
L 16.703125 44.203125 
L 16.703125 20.203125 
Q 16.703125 16.296875 17.296875 13.75 
Q 17.90625 11.203125 19.09375 9.75 
Q 20.296875 8.296875 22.09375 7.6875 
Q 23.90625 7.09375 26.296875 7.09375 
Q 30.5 7.09375 33.046875 8.046875 
Q 35.59375 9 36.59375 9.40625 
L 38.40625 1.703125 
Q 37 1 33.5 -0.046875 
Q 30 -1.09375 25.5 -1.09375 
Q 20.203125 -1.09375 16.75 0.25 
Q 13.296875 1.59375 11.1875 4.296875 
Q 9.09375 7 8.25 10.953125 
Q 7.40625 14.90625 7.40625 20.09375 
L 7.40625 66.5 
L 16.703125 68.09375 
z
" id="Ubuntu-116"/>
      <path d="M 5.09375 25.90625 
Q 5.09375 32.796875 7.09375 37.9375 
Q 9.09375 43.09375 12.390625 46.5 
Q 15.703125 49.90625 20 51.59375 
Q 24.296875 53.296875 28.796875 53.296875 
Q 39.296875 53.296875 44.890625 46.75 
Q 50.5 40.203125 50.5 26.796875 
Q 50.5 26.203125 50.5 25.25 
Q 50.5 24.296875 50.40625 23.5 
L 14.796875 23.5 
Q 15.40625 15.40625 19.5 11.203125 
Q 23.59375 7 32.296875 7 
Q 37.203125 7 40.546875 7.84375 
Q 43.90625 8.703125 45.59375 9.5 
L 46.90625 1.703125 
Q 45.203125 0.796875 40.953125 -0.203125 
Q 36.703125 -1.203125 31.296875 -1.203125 
Q 24.5 -1.203125 19.546875 0.84375 
Q 14.59375 2.90625 11.390625 6.5 
Q 8.203125 10.09375 6.640625 15.046875 
Q 5.09375 20 5.09375 25.90625 
z
M 40.796875 31 
Q 40.90625 37.296875 37.65625 41.34375 
Q 34.40625 45.40625 28.703125 45.40625 
Q 25.5 45.40625 23.046875 44.15625 
Q 20.59375 42.90625 18.890625 40.90625 
Q 17.203125 38.90625 16.25 36.296875 
Q 15.296875 33.703125 15 31 
z
" id="Ubuntu-101"/>
     </defs>
     <g transform="translate(15.735313 166.776006)rotate(-90)scale(0.11 -0.11)">
      <use xlink:href="#Ubuntu-71"/>
      <use x="67.199997" xlink:href="#Ubuntu-111"/>
      <use x="126.199982" xlink:href="#Ubuntu-108"/>
      <use x="153.499969" xlink:href="#Ubuntu-100"/>
      <use x="212.399963" xlink:href="#Ubuntu-32"/>
      <use x="235.499954" xlink:href="#Ubuntu-99"/>
      <use x="281.984314" xlink:href="#Ubuntu-111"/>
      <use x="340.984299" xlink:href="#Ubuntu-110"/>
      <use x="398.384293" xlink:href="#Ubuntu-116"/>
      <use x="438.568665" xlink:href="#Ubuntu-101"/>
      <use x="494.468658" xlink:href="#Ubuntu-110"/>
      <use x="551.868652" xlink:href="#Ubuntu-116"/>
     </g>
    </g>
   </g>
   <g id="PolyCollection_1">
    <defs>
     <path d="M 47.430511 -43.802386 
L 47.430511 -86.884895 
L 48.000917 -86.884895 
L 48.571322 -86.884895 
L 49.141727 -86.884895 
L 49.712132 -86.884895 
L 50.282537 -86.884895 
L 50.852943 -86.884895 
L 51.423348 -86.884895 
L 51.993753 -86.884895 
L 52.564158 -86.884895 
L 53.134564 -86.884895 
L 53.704969 -86.884895 
L 54.275374 -86.884895 
L 54.845779 -86.884895 
L 55.416184 -86.884895 
L 55.98659 -86.884895 
L 56.556995 -86.884895 
L 57.1274 -86.884895 
L 57.697805 -86.884895 
L 58.268211 -86.884895 
L 58.838616 -86.884895 
L 59.409021 -86.884895 
L 59.979426 -86.884895 
L 60.549831 -86.884895 
L 61.120237 -86.884895 
L 61.690642 -86.884895 
L 62.261047 -86.884895 
L 62.831452 -86.884895 
L 63.401858 -86.884895 
L 63.972263 -86.884895 
L 64.542668 -86.884895 
L 65.113073 -86.884895 
L 65.683478 -86.884895 
L 66.253884 -86.884895 
L 66.824289 -86.884895 
L 67.394694 -86.884895 
L 67.965099 -86.884895 
L 68.535505 -86.884895 
L 69.10591 -86.884895 
L 69.676315 -86.884895 
L 70.24672 -86.884895 
L 70.817125 -86.884895 
L 71.387531 -86.884895 
L 71.957936 -86.884895 
L 72.528341 -86.884895 
L 73.098746 -86.884895 
L 73.669152 -86.884895 
L 74.239557 -86.884895 
L 74.809962 -86.884895 
L 75.380367 -86.884895 
L 75.950772 -86.884895 
L 76.521178 -86.884895 
L 77.091583 -86.884895 
L 77.661988 -86.884895 
L 78.232393 -86.884895 
L 78.802799 -86.884895 
L 79.373204 -86.884895 
L 79.943609 -86.884895 
L 80.514014 -86.884895 
L 81.084419 -86.884895 
L 81.654825 -86.884895 
L 82.22523 -86.884895 
L 82.795635 -86.884895 
L 83.36604 -86.884895 
L 83.936445 -86.884895 
L 84.506851 -86.884895 
L 85.077256 -86.884895 
L 85.647661 -86.884895 
L 86.218066 -86.884895 
L 86.788472 -86.884895 
L 87.358877 -86.884895 
L 87.929282 -86.884895 
L 88.499687 -86.884895 
L 89.070092 -86.884895 
L 89.640498 -86.884895 
L 90.210903 -86.884895 
L 90.781308 -86.884895 
L 91.351713 -86.884895 
L 91.922119 -86.884895 
L 92.492524 -86.884895 
L 93.062929 -86.884895 
L 93.633334 -86.884895 
L 94.203739 -86.884895 
L 94.774145 -86.884895 
L 95.34455 -86.884895 
L 95.914955 -86.884895 
L 96.48536 -86.884895 
L 97.055766 -86.884895 
L 97.626171 -86.884895 
L 98.196576 -86.884895 
L 98.766981 -86.884895 
L 99.337386 -86.884895 
L 99.907792 -86.884895 
L 100.478197 -86.884895 
L 101.048602 -86.884895 
L 101.619007 -86.884895 
L 102.189413 -86.884895 
L 102.759818 -86.884895 
L 103.330223 -86.884895 
L 103.900628 -86.884895 
L 104.471033 -86.884895 
L 105.041439 -86.884895 
L 105.611844 -86.884895 
L 106.182249 -86.884895 
L 106.752654 -86.884895 
L 107.32306 -86.884895 
L 107.893465 -86.884895 
L 108.46387 -86.884895 
L 109.034275 -86.884895 
L 109.60468 -86.884895 
L 110.175086 -86.884895 
L 110.745491 -86.884895 
L 111.315896 -86.884895 
L 111.886301 -86.884895 
L 112.456707 -86.884895 
L 113.027112 -86.884895 
L 113.597517 -86.884895 
L 114.167922 -86.884895 
L 114.738327 -86.884895 
L 115.308733 -86.884895 
L 115.879138 -86.884895 
L 116.449543 -86.884895 
L 117.019948 -86.884895 
L 117.590354 -86.884895 
L 118.160759 -86.884895 
L 118.731164 -86.884895 
L 119.301569 -86.884895 
L 119.871974 -86.884895 
L 120.44238 -86.884895 
L 121.012785 -86.884895 
L 121.58319 -86.884895 
L 122.153595 -86.884895 
L 122.724001 -86.884895 
L 123.294406 -86.884895 
L 123.864811 -86.884895 
L 124.435216 -86.884895 
L 125.005621 -86.884895 
L 125.576027 -86.884895 
L 126.146432 -86.884895 
L 126.716837 -86.884895 
L 127.287242 -86.884895 
L 127.857647 -86.884895 
L 128.428053 -86.884895 
L 128.998458 -86.884895 
L 129.568863 -86.884895 
L 130.139268 -86.884895 
L 130.709674 -86.884895 
L 131.280079 -86.884895 
L 131.850484 -86.884895 
L 132.420889 -86.884895 
L 132.991294 -86.884895 
L 133.5617 -86.884895 
L 134.132105 -86.884895 
L 134.70251 -86.884895 
L 135.272915 -86.884895 
L 135.843321 -86.884895 
L 136.413726 -86.884895 
L 136.984131 -86.884895 
L 137.554536 -86.884895 
L 138.124941 -86.884895 
L 138.695347 -86.884895 
L 139.265752 -86.884895 
L 139.836157 -86.884895 
L 140.406562 -86.884895 
L 140.976968 -86.884895 
L 141.547373 -86.884895 
L 142.117778 -86.884895 
L 142.688183 -86.884895 
L 143.258588 -86.884895 
L 143.828994 -86.884895 
L 144.399399 -86.884895 
L 144.969804 -86.884895 
L 145.540209 -86.884895 
L 146.110615 -86.884895 
L 146.68102 -86.884895 
L 147.251425 -86.884895 
L 147.82183 -86.884895 
L 148.392235 -86.884895 
L 148.962641 -86.884895 
L 149.533046 -86.884895 
L 150.103451 -86.884895 
L 150.673856 -86.884895 
L 151.244262 -86.884895 
L 151.814667 -86.884895 
L 152.385072 -86.884895 
L 152.955477 -86.884895 
L 153.525882 -86.884895 
L 154.096288 -86.884895 
L 154.666693 -86.884895 
L 155.237098 -86.884895 
L 155.807503 -86.884895 
L 156.377909 -86.884895 
L 156.948314 -86.884895 
L 157.518719 -86.884895 
L 158.089124 -86.884895 
L 158.659529 -86.884895 
L 159.229935 -86.884895 
L 159.80034 -86.884895 
L 160.370745 -86.884895 
L 160.94115 -86.884895 
L 161.511556 -86.884895 
L 162.081961 -86.884895 
L 162.652366 -86.884895 
L 163.222771 -86.884895 
L 163.793176 -86.884895 
L 164.363582 -86.884895 
L 164.933987 -86.884895 
L 165.504392 -86.884895 
L 166.074797 -86.884895 
L 166.645203 -86.884895 
L 167.215608 -86.884895 
L 167.786013 -86.884895 
L 168.356418 -86.884895 
L 168.926823 -86.884895 
L 169.497229 -86.884895 
L 170.067634 -86.884895 
L 170.638039 -86.884895 
L 171.208444 -86.884895 
L 171.77885 -86.884895 
L 172.349255 -86.884895 
L 172.91966 -86.884895 
L 173.490065 -86.884895 
L 174.06047 -86.884895 
L 174.630876 -86.884895 
L 175.201281 -86.884895 
L 175.771686 -86.884895 
L 176.342091 -86.884895 
L 176.912496 -86.884895 
L 177.482902 -86.884895 
L 178.053307 -86.884895 
L 178.623712 -86.884895 
L 179.194117 -86.884895 
L 179.764523 -86.884895 
L 180.334928 -86.884895 
L 180.905333 -86.884895 
L 181.475738 -86.884895 
L 182.046143 -86.884895 
L 182.616549 -86.884895 
L 183.186954 -86.884895 
L 183.757359 -86.884895 
L 184.327764 -86.884895 
L 184.89817 -86.884895 
L 185.468575 -86.884895 
L 186.03898 -86.884895 
L 186.609385 -86.884895 
L 187.17979 -86.884895 
L 187.750196 -86.884895 
L 188.320601 -86.884895 
L 188.891006 -86.884895 
L 189.461411 -86.884895 
L 190.031817 -86.884895 
L 190.602222 -86.884895 
L 191.172627 -86.884895 
L 191.743032 -86.884895 
L 192.313437 -86.884895 
L 192.883843 -86.884895 
L 193.454248 -86.884895 
L 194.024653 -86.884895 
L 194.595058 -86.884895 
L 195.165464 -86.884895 
L 195.735869 -86.884895 
L 196.306274 -86.884895 
L 196.876679 -86.884895 
L 197.447084 -86.884895 
L 198.01749 -86.884895 
L 198.587895 -86.884895 
L 199.1583 -86.884895 
L 199.728705 -86.884895 
L 200.299111 -86.884895 
L 200.869516 -86.884895 
L 201.439921 -86.884895 
L 202.010326 -86.884895 
L 202.580731 -86.884895 
L 203.151137 -86.884895 
L 203.721542 -86.884895 
L 204.291947 -86.884895 
L 204.862352 -86.884895 
L 205.432758 -86.884895 
L 206.003163 -86.884895 
L 206.573568 -86.884895 
L 207.143973 -86.884895 
L 207.714378 -86.884895 
L 208.284784 -86.884895 
L 208.855189 -86.884895 
L 209.425594 -86.884895 
L 209.995999 -86.884895 
L 210.566405 -86.884895 
L 211.13681 -86.884895 
L 211.707215 -86.884895 
L 212.27762 -86.884895 
L 212.848025 -86.884895 
L 213.418431 -86.884895 
L 213.988836 -86.884895 
L 214.559241 -86.884895 
L 215.129646 -86.884895 
L 215.700052 -86.884895 
L 216.270457 -86.884895 
L 216.840862 -86.884895 
L 217.411267 -86.884895 
L 217.981672 -86.884895 
L 218.552078 -86.884895 
L 219.122483 -86.884895 
L 219.692888 -86.884895 
L 220.263293 -86.884895 
L 220.833698 -86.884895 
L 221.404104 -86.884895 
L 221.974509 -86.884895 
L 222.544914 -86.884895 
L 223.115319 -86.884895 
L 223.685725 -86.884895 
L 224.25613 -86.884895 
L 224.826535 -86.884895 
L 225.39694 -86.884895 
L 225.967345 -86.884895 
L 226.537751 -86.884895 
L 227.108156 -86.884895 
L 227.678561 -86.884895 
L 228.248966 -86.884895 
L 228.819372 -86.884895 
L 229.389777 -86.884895 
L 229.960182 -86.884895 
L 230.530587 -86.884895 
L 231.100992 -86.884895 
L 231.671398 -86.884895 
L 232.241803 -86.884895 
L 232.812208 -86.884895 
L 233.382613 -86.884895 
L 233.953019 -86.884895 
L 234.523424 -86.884895 
L 235.093829 -86.884895 
L 235.664234 -86.884895 
L 236.234639 -86.884895 
L 236.805045 -86.884895 
L 237.37545 -86.884895 
L 237.945855 -86.884895 
L 238.51626 -86.884895 
L 239.086666 -86.884895 
L 239.657071 -86.884895 
L 240.227476 -86.884895 
L 240.797881 -86.884895 
L 241.368286 -86.884895 
L 241.938692 -86.884895 
L 242.509097 -86.884895 
L 243.079502 -86.884895 
L 243.649907 -86.884895 
L 244.220313 -86.884895 
L 244.790718 -86.884895 
L 245.361123 -86.884895 
L 245.931528 -86.884895 
L 246.501933 -86.884895 
L 247.072339 -86.884895 
L 247.642744 -86.884895 
L 248.213149 -86.884895 
L 248.783554 -86.884895 
L 249.35396 -86.884895 
L 249.924365 -86.884895 
L 250.49477 -86.884895 
L 251.065175 -86.884895 
L 251.63558 -86.884895 
L 252.205986 -86.884895 
L 252.776391 -86.884895 
L 253.346796 -86.884895 
L 253.917201 -86.884895 
L 254.487607 -86.884895 
L 255.058012 -86.884895 
L 255.628417 -86.884895 
L 256.198822 -86.884895 
L 256.769227 -86.884895 
L 257.339633 -86.884895 
L 257.910038 -86.884895 
L 258.480443 -86.884895 
L 259.050848 -86.884895 
L 259.621254 -86.884895 
L 260.191659 -86.884895 
L 260.762064 -86.884895 
L 261.332469 -86.884895 
L 261.902874 -86.884895 
L 262.47328 -86.884895 
L 263.043685 -86.884895 
L 263.61409 -86.884895 
L 264.184495 -86.884895 
L 264.7549 -86.884895 
L 265.325306 -86.884895 
L 265.895711 -86.884895 
L 266.466116 -86.884895 
L 267.036521 -86.884895 
L 267.606927 -86.884895 
L 268.177332 -86.884895 
L 268.747737 -86.884895 
L 269.318142 -86.884895 
L 269.888547 -86.884895 
L 270.458953 -86.884895 
L 271.029358 -86.884895 
L 271.599763 -86.884895 
L 272.170168 -86.884895 
L 272.740574 -86.884895 
L 273.310979 -86.884895 
L 273.881384 -86.884895 
L 274.451789 -86.884895 
L 275.022194 -86.884895 
L 275.5926 -86.884895 
L 276.163005 -86.884895 
L 276.73341 -86.884895 
L 277.303815 -86.884895 
L 277.874221 -86.884895 
L 278.444626 -86.884895 
L 279.015031 -86.884895 
L 279.585436 -86.884895 
L 280.155841 -86.884895 
L 280.726247 -86.884895 
L 281.296652 -86.884895 
L 281.867057 -86.884895 
L 282.437462 -86.884895 
L 283.007868 -86.884895 
L 283.578273 -86.884895 
L 284.148678 -86.884895 
L 284.719083 -86.884895 
L 285.289488 -86.884895 
L 285.859894 -86.884895 
L 286.430299 -86.884895 
L 287.000704 -86.884895 
L 287.571109 -86.884895 
L 288.141515 -86.884895 
L 288.71192 -86.884895 
L 289.282325 -86.884895 
L 289.85273 -86.884895 
L 290.423135 -86.884895 
L 290.993541 -86.884895 
L 291.563946 -86.884895 
L 292.134351 -86.884895 
L 292.704756 -86.884895 
L 293.275162 -86.884895 
L 293.845567 -86.884895 
L 294.415972 -86.884895 
L 294.986377 -86.884895 
L 295.556782 -86.884895 
L 296.127188 -86.884895 
L 296.697593 -86.884895 
L 297.267998 -86.884895 
L 297.838403 -86.884895 
L 298.408809 -86.884895 
L 298.979214 -86.884895 
L 299.549619 -86.884895 
L 300.120024 -86.884895 
L 300.690429 -86.884895 
L 301.260835 -86.884895 
L 301.83124 -86.884895 
L 302.401645 -86.884895 
L 302.97205 -86.884895 
L 303.542456 -86.884895 
L 304.112861 -86.884895 
L 304.683266 -86.884895 
L 305.253671 -86.884895 
L 305.824076 -86.884895 
L 306.394482 -86.884895 
L 306.964887 -86.884895 
L 307.535292 -86.884895 
L 308.105697 -86.884895 
L 308.676103 -86.884895 
L 309.246508 -86.884895 
L 309.816913 -86.884895 
L 310.387318 -86.884895 
L 310.957723 -86.884895 
L 311.528129 -86.884895 
L 312.098534 -86.884895 
L 312.668939 -86.884895 
L 313.239344 -86.884895 
L 313.809749 -86.884895 
L 314.380155 -86.884895 
L 314.95056 -86.884895 
L 315.520965 -86.884895 
L 316.09137 -86.884895 
L 316.661776 -86.884895 
L 317.232181 -86.884895 
L 317.802586 -86.884895 
L 318.372991 -86.884895 
L 318.943396 -86.884895 
L 319.513802 -86.884895 
L 320.084207 -86.884895 
L 320.654612 -86.884895 
L 321.225017 -86.884895 
L 321.795423 -86.884895 
L 322.365828 -86.884895 
L 322.936233 -86.884895 
L 323.506638 -86.884895 
L 324.077043 -86.884895 
L 324.647449 -86.884895 
L 325.217854 -86.884895 
L 325.788259 -86.884895 
L 326.358664 -86.884895 
L 326.92907 -86.884895 
L 327.499475 -86.884895 
L 328.06988 -86.884895 
L 328.640285 -86.884895 
L 329.21069 -86.884895 
L 329.781096 -86.884895 
L 330.351501 -86.884895 
L 330.921906 -86.884895 
L 331.492311 -86.884895 
L 332.062717 -86.884895 
L 332.633122 -86.884895 
L 333.203527 -86.884895 
L 333.773932 -86.884895 
L 334.344337 -86.884895 
L 334.914743 -86.884895 
L 335.485148 -86.884895 
L 336.055553 -86.884895 
L 336.625958 -86.884895 
L 337.196364 -86.884895 
L 337.766769 -86.884895 
L 338.337174 -86.884895 
L 338.907579 -86.884895 
L 339.477984 -86.884895 
L 340.04839 -86.884895 
L 340.618795 -86.884895 
L 341.1892 -86.884895 
L 341.759605 -86.884895 
L 342.330011 -86.884895 
L 342.900416 -86.884895 
L 343.470821 -86.884895 
L 344.041226 -86.884895 
L 344.611631 -86.884895 
L 345.182037 -86.884895 
L 345.752442 -86.884895 
L 346.322847 -86.884895 
L 346.893252 -86.884895 
L 347.463658 -86.884895 
L 348.034063 -86.884895 
L 348.604468 -86.884895 
L 349.174873 -86.884895 
L 349.745278 -86.884895 
L 350.315684 -86.884895 
L 350.886089 -86.884895 
L 351.456494 -86.884895 
L 352.026899 -86.884895 
L 352.597305 -86.884895 
L 353.16771 -86.884895 
L 353.738115 -86.884895 
L 354.30852 -86.884895 
L 354.878925 -86.884895 
L 355.449331 -86.884895 
L 356.019736 -86.884895 
L 356.590141 -86.884895 
L 357.160546 -86.884895 
L 357.730951 -86.884895 
L 358.301357 -86.884895 
L 358.871762 -86.884895 
L 359.442167 -86.884895 
L 360.012572 -86.884895 
L 360.582978 -86.884895 
L 361.153383 -86.884895 
L 361.723788 -86.884895 
L 362.294193 -86.884895 
L 362.864598 -86.884895 
L 363.435004 -86.884895 
L 364.005409 -86.884895 
L 364.575814 -86.884895 
L 365.146219 -86.884895 
L 365.716625 -86.884895 
L 366.28703 -86.884895 
L 366.857435 -86.884895 
L 367.42784 -86.884895 
L 367.998245 -86.884895 
L 368.568651 -86.884895 
L 369.139056 -86.884895 
L 369.709461 -86.884895 
L 370.279866 -86.884895 
L 370.850272 -86.884895 
L 371.420677 -86.884895 
L 371.991082 -86.884895 
L 372.561487 -86.884895 
L 373.131892 -86.884895 
L 373.702298 -86.884895 
L 374.272703 -86.884895 
L 374.843108 -86.884895 
L 375.413513 -86.884895 
L 375.983919 -86.884895 
L 376.554324 -86.884895 
L 377.124729 -86.884895 
L 377.695134 -86.884895 
L 378.265539 -86.884895 
L 378.835945 -86.884895 
L 379.40635 -86.884895 
L 379.976755 -86.884895 
L 380.54716 -86.884895 
L 381.117566 -86.884895 
L 381.687971 -86.884895 
L 382.258376 -86.884895 
L 382.828781 -86.884895 
L 383.399186 -86.884895 
L 383.969592 -86.884895 
L 384.539997 -86.884895 
L 385.110402 -86.884895 
L 385.680807 -86.884895 
L 386.251213 -86.884895 
L 386.821618 -86.884895 
L 387.392023 -86.884895 
L 387.962428 -86.884895 
L 388.532833 -86.884895 
L 389.103239 -86.884895 
L 389.103239 -43.802386 
L 389.103239 -43.802386 
L 388.532833 -43.802386 
L 387.962428 -43.802386 
L 387.392023 -43.802386 
L 386.821618 -43.802386 
L 386.251213 -43.802386 
L 385.680807 -43.802386 
L 385.110402 -43.802386 
L 384.539997 -43.802386 
L 383.969592 -43.802386 
L 383.399186 -43.802386 
L 382.828781 -43.802386 
L 382.258376 -43.802386 
L 381.687971 -43.802386 
L 381.117566 -43.802386 
L 380.54716 -43.802386 
L 379.976755 -43.802386 
L 379.40635 -43.802386 
L 378.835945 -43.802386 
L 378.265539 -43.802386 
L 377.695134 -43.802386 
L 377.124729 -43.802386 
L 376.554324 -43.802386 
L 375.983919 -43.802386 
L 375.413513 -43.802386 
L 374.843108 -43.802386 
L 374.272703 -43.802386 
L 373.702298 -43.802386 
L 373.131892 -43.802386 
L 372.561487 -43.802386 
L 371.991082 -43.802386 
L 371.420677 -43.802386 
L 370.850272 -43.802386 
L 370.279866 -43.802386 
L 369.709461 -43.802386 
L 369.139056 -43.802386 
L 368.568651 -43.802386 
L 367.998245 -43.802386 
L 367.42784 -43.802386 
L 366.857435 -43.802386 
L 366.28703 -43.802386 
L 365.716625 -43.802386 
L 365.146219 -43.802386 
L 364.575814 -43.802386 
L 364.005409 -43.802386 
L 363.435004 -43.802386 
L 362.864598 -43.802386 
L 362.294193 -43.802386 
L 361.723788 -43.802386 
L 361.153383 -43.802386 
L 360.582978 -43.802386 
L 360.012572 -43.802386 
L 359.442167 -43.802386 
L 358.871762 -43.802386 
L 358.301357 -43.802386 
L 357.730951 -43.802386 
L 357.160546 -43.802386 
L 356.590141 -43.802386 
L 356.019736 -43.802386 
L 355.449331 -43.802386 
L 354.878925 -43.802386 
L 354.30852 -43.802386 
L 353.738115 -43.802386 
L 353.16771 -43.802386 
L 352.597305 -43.802386 
L 352.026899 -43.802386 
L 351.456494 -43.802386 
L 350.886089 -43.802386 
L 350.315684 -43.802386 
L 349.745278 -43.802386 
L 349.174873 -43.802386 
L 348.604468 -43.802386 
L 348.034063 -43.802386 
L 347.463658 -43.802386 
L 346.893252 -43.802386 
L 346.322847 -43.802386 
L 345.752442 -43.802386 
L 345.182037 -43.802386 
L 344.611631 -43.802386 
L 344.041226 -43.802386 
L 343.470821 -43.802386 
L 342.900416 -43.802386 
L 342.330011 -43.802386 
L 341.759605 -43.802386 
L 341.1892 -43.802386 
L 340.618795 -43.802386 
L 340.04839 -43.802386 
L 339.477984 -43.802386 
L 338.907579 -43.802386 
L 338.337174 -43.802386 
L 337.766769 -43.802386 
L 337.196364 -43.802386 
L 336.625958 -43.802386 
L 336.055553 -43.802386 
L 335.485148 -43.802386 
L 334.914743 -43.802386 
L 334.344337 -43.802386 
L 333.773932 -43.802386 
L 333.203527 -43.802386 
L 332.633122 -43.802386 
L 332.062717 -43.802386 
L 331.492311 -43.802386 
L 330.921906 -43.802386 
L 330.351501 -43.802386 
L 329.781096 -43.802386 
L 329.21069 -43.802386 
L 328.640285 -43.802386 
L 328.06988 -43.802386 
L 327.499475 -43.802386 
L 326.92907 -43.802386 
L 326.358664 -43.802386 
L 325.788259 -43.802386 
L 325.217854 -43.802386 
L 324.647449 -43.802386 
L 324.077043 -43.802386 
L 323.506638 -43.802386 
L 322.936233 -43.802386 
L 322.365828 -43.802386 
L 321.795423 -43.802386 
L 321.225017 -43.802386 
L 320.654612 -43.802386 
L 320.084207 -43.802386 
L 319.513802 -43.802386 
L 318.943396 -43.802386 
L 318.372991 -43.802386 
L 317.802586 -43.802386 
L 317.232181 -43.802386 
L 316.661776 -43.802386 
L 316.09137 -43.802386 
L 315.520965 -43.802386 
L 314.95056 -43.802386 
L 314.380155 -43.802386 
L 313.809749 -43.802386 
L 313.239344 -43.802386 
L 312.668939 -43.802386 
L 312.098534 -43.802386 
L 311.528129 -43.802386 
L 310.957723 -43.802386 
L 310.387318 -43.802386 
L 309.816913 -43.802386 
L 309.246508 -43.802386 
L 308.676103 -43.802386 
L 308.105697 -43.802386 
L 307.535292 -43.802386 
L 306.964887 -43.802386 
L 306.394482 -43.802386 
L 305.824076 -43.802386 
L 305.253671 -43.802386 
L 304.683266 -43.802386 
L 304.112861 -43.802386 
L 303.542456 -43.802386 
L 302.97205 -43.802386 
L 302.401645 -43.802386 
L 301.83124 -43.802386 
L 301.260835 -43.802386 
L 300.690429 -43.802386 
L 300.120024 -43.802386 
L 299.549619 -43.802386 
L 298.979214 -43.802386 
L 298.408809 -43.802386 
L 297.838403 -43.802386 
L 297.267998 -43.802386 
L 296.697593 -43.802386 
L 296.127188 -43.802386 
L 295.556782 -43.802386 
L 294.986377 -43.802386 
L 294.415972 -43.802386 
L 293.845567 -43.802386 
L 293.275162 -43.802386 
L 292.704756 -43.802386 
L 292.134351 -43.802386 
L 291.563946 -43.802386 
L 290.993541 -43.802386 
L 290.423135 -43.802386 
L 289.85273 -43.802386 
L 289.282325 -43.802386 
L 288.71192 -43.802386 
L 288.141515 -43.802386 
L 287.571109 -43.802386 
L 287.000704 -43.802386 
L 286.430299 -43.802386 
L 285.859894 -43.802386 
L 285.289488 -43.802386 
L 284.719083 -43.802386 
L 284.148678 -43.802386 
L 283.578273 -43.802386 
L 283.007868 -43.802386 
L 282.437462 -43.802386 
L 281.867057 -43.802386 
L 281.296652 -43.802386 
L 280.726247 -43.802386 
L 280.155841 -43.802386 
L 279.585436 -43.802386 
L 279.015031 -43.802386 
L 278.444626 -43.802386 
L 277.874221 -43.802386 
L 277.303815 -43.802386 
L 276.73341 -43.802386 
L 276.163005 -43.802386 
L 275.5926 -43.802386 
L 275.022194 -43.802386 
L 274.451789 -43.802386 
L 273.881384 -43.802386 
L 273.310979 -43.802386 
L 272.740574 -43.802386 
L 272.170168 -43.802386 
L 271.599763 -43.802386 
L 271.029358 -43.802386 
L 270.458953 -43.802386 
L 269.888547 -43.802386 
L 269.318142 -43.802386 
L 268.747737 -43.802386 
L 268.177332 -43.802386 
L 267.606927 -43.802386 
L 267.036521 -43.802386 
L 266.466116 -43.802386 
L 265.895711 -43.802386 
L 265.325306 -43.802386 
L 264.7549 -43.802386 
L 264.184495 -43.802386 
L 263.61409 -43.802386 
L 263.043685 -43.802386 
L 262.47328 -43.802386 
L 261.902874 -43.802386 
L 261.332469 -43.802386 
L 260.762064 -43.802386 
L 260.191659 -43.802386 
L 259.621254 -43.802386 
L 259.050848 -43.802386 
L 258.480443 -43.802386 
L 257.910038 -43.802386 
L 257.339633 -43.802386 
L 256.769227 -43.802386 
L 256.198822 -43.802386 
L 255.628417 -43.802386 
L 255.058012 -43.802386 
L 254.487607 -43.802386 
L 253.917201 -43.802386 
L 253.346796 -43.802386 
L 252.776391 -43.802386 
L 252.205986 -43.802386 
L 251.63558 -43.802386 
L 251.065175 -43.802386 
L 250.49477 -43.802386 
L 249.924365 -43.802386 
L 249.35396 -43.802386 
L 248.783554 -43.802386 
L 248.213149 -43.802386 
L 247.642744 -43.802386 
L 247.072339 -43.802386 
L 246.501933 -43.802386 
L 245.931528 -43.802386 
L 245.361123 -43.802386 
L 244.790718 -43.802386 
L 244.220313 -43.802386 
L 243.649907 -43.802386 
L 243.079502 -43.802386 
L 242.509097 -43.802386 
L 241.938692 -43.802386 
L 241.368286 -43.802386 
L 240.797881 -43.802386 
L 240.227476 -43.802386 
L 239.657071 -43.802386 
L 239.086666 -43.802386 
L 238.51626 -43.802386 
L 237.945855 -43.802386 
L 237.37545 -43.802386 
L 236.805045 -43.802386 
L 236.234639 -43.802386 
L 235.664234 -43.802386 
L 235.093829 -43.802386 
L 234.523424 -43.802386 
L 233.953019 -43.802386 
L 233.382613 -43.802386 
L 232.812208 -43.802386 
L 232.241803 -43.802386 
L 231.671398 -43.802386 
L 231.100992 -43.802386 
L 230.530587 -43.802386 
L 229.960182 -43.802386 
L 229.389777 -43.802386 
L 228.819372 -43.802386 
L 228.248966 -43.802386 
L 227.678561 -43.802386 
L 227.108156 -43.802386 
L 226.537751 -43.802386 
L 225.967345 -43.802386 
L 225.39694 -43.802386 
L 224.826535 -43.802386 
L 224.25613 -43.802386 
L 223.685725 -43.802386 
L 223.115319 -43.802386 
L 222.544914 -43.802386 
L 221.974509 -43.802386 
L 221.404104 -43.802386 
L 220.833698 -43.802386 
L 220.263293 -43.802386 
L 219.692888 -43.802386 
L 219.122483 -43.802386 
L 218.552078 -43.802386 
L 217.981672 -43.802386 
L 217.411267 -43.802386 
L 216.840862 -43.802386 
L 216.270457 -43.802386 
L 215.700052 -43.802386 
L 215.129646 -43.802386 
L 214.559241 -43.802386 
L 213.988836 -43.802386 
L 213.418431 -43.802386 
L 212.848025 -43.802386 
L 212.27762 -43.802386 
L 211.707215 -43.802386 
L 211.13681 -43.802386 
L 210.566405 -43.802386 
L 209.995999 -43.802386 
L 209.425594 -43.802386 
L 208.855189 -43.802386 
L 208.284784 -43.802386 
L 207.714378 -43.802386 
L 207.143973 -43.802386 
L 206.573568 -43.802386 
L 206.003163 -43.802386 
L 205.432758 -43.802386 
L 204.862352 -43.802386 
L 204.291947 -43.802386 
L 203.721542 -43.802386 
L 203.151137 -43.802386 
L 202.580731 -43.802386 
L 202.010326 -43.802386 
L 201.439921 -43.802386 
L 200.869516 -43.802386 
L 200.299111 -43.802386 
L 199.728705 -43.802386 
L 199.1583 -43.802386 
L 198.587895 -43.802386 
L 198.01749 -43.802386 
L 197.447084 -43.802386 
L 196.876679 -43.802386 
L 196.306274 -43.802386 
L 195.735869 -43.802386 
L 195.165464 -43.802386 
L 194.595058 -43.802386 
L 194.024653 -43.802386 
L 193.454248 -43.802386 
L 192.883843 -43.802386 
L 192.313437 -43.802386 
L 191.743032 -43.802386 
L 191.172627 -43.802386 
L 190.602222 -43.802386 
L 190.031817 -43.802386 
L 189.461411 -43.802386 
L 188.891006 -43.802386 
L 188.320601 -43.802386 
L 187.750196 -43.802386 
L 187.17979 -43.802386 
L 186.609385 -43.802386 
L 186.03898 -43.802386 
L 185.468575 -43.802386 
L 184.89817 -43.802386 
L 184.327764 -43.802386 
L 183.757359 -43.802386 
L 183.186954 -43.802386 
L 182.616549 -43.802386 
L 182.046143 -43.802386 
L 181.475738 -43.802386 
L 180.905333 -43.802386 
L 180.334928 -43.802386 
L 179.764523 -43.802386 
L 179.194117 -43.802386 
L 178.623712 -43.802386 
L 178.053307 -43.802386 
L 177.482902 -43.802386 
L 176.912496 -43.802386 
L 176.342091 -43.802386 
L 175.771686 -43.802386 
L 175.201281 -43.802386 
L 174.630876 -43.802386 
L 174.06047 -43.802386 
L 173.490065 -43.802386 
L 172.91966 -43.802386 
L 172.349255 -43.802386 
L 171.77885 -43.802386 
L 171.208444 -43.802386 
L 170.638039 -43.802386 
L 170.067634 -43.802386 
L 169.497229 -43.802386 
L 168.926823 -43.802386 
L 168.356418 -43.802386 
L 167.786013 -43.802386 
L 167.215608 -43.802386 
L 166.645203 -43.802386 
L 166.074797 -43.802386 
L 165.504392 -43.802386 
L 164.933987 -43.802386 
L 164.363582 -43.802386 
L 163.793176 -43.802386 
L 163.222771 -43.802386 
L 162.652366 -43.802386 
L 162.081961 -43.802386 
L 161.511556 -43.802386 
L 160.94115 -43.802386 
L 160.370745 -43.802386 
L 159.80034 -43.802386 
L 159.229935 -43.802386 
L 158.659529 -43.802386 
L 158.089124 -43.802386 
L 157.518719 -43.802386 
L 156.948314 -43.802386 
L 156.377909 -43.802386 
L 155.807503 -43.802386 
L 155.237098 -43.802386 
L 154.666693 -43.802386 
L 154.096288 -43.802386 
L 153.525882 -43.802386 
L 152.955477 -43.802386 
L 152.385072 -43.802386 
L 151.814667 -43.802386 
L 151.244262 -43.802386 
L 150.673856 -43.802386 
L 150.103451 -43.802386 
L 149.533046 -43.802386 
L 148.962641 -43.802386 
L 148.392235 -43.802386 
L 147.82183 -43.802386 
L 147.251425 -43.802386 
L 146.68102 -43.802386 
L 146.110615 -43.802386 
L 145.540209 -43.802386 
L 144.969804 -43.802386 
L 144.399399 -43.802386 
L 143.828994 -43.802386 
L 143.258588 -43.802386 
L 142.688183 -43.802386 
L 142.117778 -43.802386 
L 141.547373 -43.802386 
L 140.976968 -43.802386 
L 140.406562 -43.802386 
L 139.836157 -43.802386 
L 139.265752 -43.802386 
L 138.695347 -43.802386 
L 138.124941 -43.802386 
L 137.554536 -43.802386 
L 136.984131 -43.802386 
L 136.413726 -43.802386 
L 135.843321 -43.802386 
L 135.272915 -43.802386 
L 134.70251 -43.802386 
L 134.132105 -43.802386 
L 133.5617 -43.802386 
L 132.991294 -43.802386 
L 132.420889 -43.802386 
L 131.850484 -43.802386 
L 131.280079 -43.802386 
L 130.709674 -43.802386 
L 130.139268 -43.802386 
L 129.568863 -43.802386 
L 128.998458 -43.802386 
L 128.428053 -43.802386 
L 127.857647 -43.802386 
L 127.287242 -43.802386 
L 126.716837 -43.802386 
L 126.146432 -43.802386 
L 125.576027 -43.802386 
L 125.005621 -43.802386 
L 124.435216 -43.802386 
L 123.864811 -43.802386 
L 123.294406 -43.802386 
L 122.724001 -43.802386 
L 122.153595 -43.802386 
L 121.58319 -43.802386 
L 121.012785 -43.802386 
L 120.44238 -43.802386 
L 119.871974 -43.802386 
L 119.301569 -43.802386 
L 118.731164 -43.802386 
L 118.160759 -43.802386 
L 117.590354 -43.802386 
L 117.019948 -43.802386 
L 116.449543 -43.802386 
L 115.879138 -43.802386 
L 115.308733 -43.802386 
L 114.738327 -43.802386 
L 114.167922 -43.802386 
L 113.597517 -43.802386 
L 113.027112 -43.802386 
L 112.456707 -43.802386 
L 111.886301 -43.802386 
L 111.315896 -43.802386 
L 110.745491 -43.802386 
L 110.175086 -43.802386 
L 109.60468 -43.802386 
L 109.034275 -43.802386 
L 108.46387 -43.802386 
L 107.893465 -43.802386 
L 107.32306 -43.802386 
L 106.752654 -43.802386 
L 106.182249 -43.802386 
L 105.611844 -43.802386 
L 105.041439 -43.802386 
L 104.471033 -43.802386 
L 103.900628 -43.802386 
L 103.330223 -43.802386 
L 102.759818 -43.802386 
L 102.189413 -43.802386 
L 101.619007 -43.802386 
L 101.048602 -43.802386 
L 100.478197 -43.802386 
L 99.907792 -43.802386 
L 99.337386 -43.802386 
L 98.766981 -43.802386 
L 98.196576 -43.802386 
L 97.626171 -43.802386 
L 97.055766 -43.802386 
L 96.48536 -43.802386 
L 95.914955 -43.802386 
L 95.34455 -43.802386 
L 94.774145 -43.802386 
L 94.203739 -43.802386 
L 93.633334 -43.802386 
L 93.062929 -43.802386 
L 92.492524 -43.802386 
L 91.922119 -43.802386 
L 91.351713 -43.802386 
L 90.781308 -43.802386 
L 90.210903 -43.802386 
L 89.640498 -43.802386 
L 89.070092 -43.802386 
L 88.499687 -43.802386 
L 87.929282 -43.802386 
L 87.358877 -43.802386 
L 86.788472 -43.802386 
L 86.218066 -43.802386 
L 85.647661 -43.802386 
L 85.077256 -43.802386 
L 84.506851 -43.802386 
L 83.936445 -43.802386 
L 83.36604 -43.802386 
L 82.795635 -43.802386 
L 82.22523 -43.802386 
L 81.654825 -43.802386 
L 81.084419 -43.802386 
L 80.514014 -43.802386 
L 79.943609 -43.802386 
L 79.373204 -43.802386 
L 78.802799 -43.802386 
L 78.232393 -43.802386 
L 77.661988 -43.802386 
L 77.091583 -43.802386 
L 76.521178 -43.802386 
L 75.950772 -43.802386 
L 75.380367 -43.802386 
L 74.809962 -43.802386 
L 74.239557 -43.802386 
L 73.669152 -43.802386 
L 73.098746 -43.802386 
L 72.528341 -43.802386 
L 71.957936 -43.802386 
L 71.387531 -43.802386 
L 70.817125 -43.802386 
L 70.24672 -43.802386 
L 69.676315 -43.802386 
L 69.10591 -43.802386 
L 68.535505 -43.802386 
L 67.965099 -43.802386 
L 67.394694 -43.802386 
L 66.824289 -43.802386 
L 66.253884 -43.802386 
L 65.683478 -43.802386 
L 65.113073 -43.802386 
L 64.542668 -43.802386 
L 63.972263 -43.802386 
L 63.401858 -43.802386 
L 62.831452 -43.802386 
L 62.261047 -43.802386 
L 61.690642 -43.802386 
L 61.120237 -43.802386 
L 60.549831 -43.802386 
L 59.979426 -43.802386 
L 59.409021 -43.802386 
L 58.838616 -43.802386 
L 58.268211 -43.802386 
L 57.697805 -43.802386 
L 57.1274 -43.802386 
L 56.556995 -43.802386 
L 55.98659 -43.802386 
L 55.416184 -43.802386 
L 54.845779 -43.802386 
L 54.275374 -43.802386 
L 53.704969 -43.802386 
L 53.134564 -43.802386 
L 52.564158 -43.802386 
L 51.993753 -43.802386 
L 51.423348 -43.802386 
L 50.852943 -43.802386 
L 50.282537 -43.802386 
L 49.712132 -43.802386 
L 49.141727 -43.802386 
L 48.571322 -43.802386 
L 48.000917 -43.802386 
L 47.430511 -43.802386 
z
" id="m1493998145" style="stroke:#808080;stroke-opacity:0.4;stroke-width:0.5;"/>
    </defs>
    <g clip-path="url(#pf379d159a0)">
     <use style="fill:#808080;fill-opacity:0.4;stroke:#808080;stroke-opacity:0.4;stroke-width:0.5;" x="0" xlink:href="#m1493998145" y="276.8496"/>
    </g>
   </g>
   <g id="line2d_25">
    <path clip-path="url(#pf379d159a0)" d="M 47.430511 211.505959 
L 389.103239 211.505959 
L 389.103239 211.505959 
" style="fill:none;stroke:#000000;stroke-width:2.7;"/>
   </g>
   <g id="line2d_26">
    <path clip-path="url(#pf379d159a0)" d="M 47.430511 150.184038 
L 51.423348 141.144032 
L 55.416184 132.648197 
L 59.409021 124.727326 
L 62.831452 118.415449 
L 66.253884 112.55864 
L 69.676315 107.167714 
L 73.098746 102.250802 
L 75.950772 98.519484 
L 78.802799 95.122918 
L 81.654825 92.061573 
L 84.506851 89.334658 
L 87.358877 86.940146 
L 90.210903 84.874797 
L 93.062929 83.134183 
L 95.34455 81.971789 
L 97.626171 81.010299 
L 99.907792 80.245894 
L 102.189413 79.674321 
L 104.471033 79.29091 
L 106.752654 79.09059 
L 109.60468 79.08931 
L 112.456707 79.354089 
L 115.308733 79.872612 
L 118.160759 80.63178 
L 121.012785 81.617757 
L 123.864811 82.816042 
L 127.287242 84.512918 
L 130.709674 86.466606 
L 134.70251 89.032979 
L 138.695347 91.864718 
L 143.258588 95.365583 
L 148.962641 100.034033 
L 158.089124 107.849307 
L 167.786013 116.066676 
L 173.490065 120.604669 
L 178.053307 123.974579 
L 182.046143 126.684075 
L 186.03898 129.133069 
L 189.461411 131.00013 
L 192.883843 132.633231 
L 196.306274 134.015576 
L 199.728705 135.132289 
L 202.580731 135.850618 
L 205.432758 136.369144 
L 208.284784 136.682533 
L 211.13681 136.786494 
L 213.988836 136.677794 
L 216.840862 136.35427 
L 219.692888 135.81484 
L 222.544914 135.059503 
L 225.39694 134.089342 
L 228.248966 132.90652 
L 231.100992 131.51427 
L 234.523424 129.573241 
L 237.945855 127.346263 
L 241.368286 124.844842 
L 244.790718 122.082529 
L 248.783554 118.550911 
L 252.776391 114.713293 
L 257.339633 109.992893 
L 262.47328 104.317719 
L 268.177332 97.653669 
L 275.5926 88.618582 
L 292.134351 68.334524 
L 297.838403 61.764501 
L 302.401645 56.822628 
L 306.394482 52.787539 
L 310.387318 49.070193 
L 313.809749 46.170368 
L 317.232181 43.56328 
L 320.084207 41.63283 
L 322.936233 39.937573 
L 325.788259 38.490913 
L 328.640285 37.305484 
L 331.492311 36.393098 
L 333.773932 35.867156 
L 336.055553 35.528146 
L 338.337174 35.380839 
L 340.618795 35.429594 
L 342.900416 35.67834 
L 345.182037 36.130564 
L 347.463658 36.789299 
L 349.745278 37.657111 
L 352.026899 38.736085 
L 354.30852 40.027821 
L 356.590141 41.53342 
L 359.442167 43.717022 
L 362.294193 46.235716 
L 365.146219 49.08827 
L 367.998245 52.272174 
L 370.850272 55.783627 
L 373.702298 59.617534 
L 377.124729 64.634778 
L 380.54716 70.093603 
L 383.969592 75.977873 
L 387.392023 82.26884 
L 389.103239 85.560275 
L 389.103239 85.560275 
" style="fill:none;stroke:#800080;stroke-width:2.7;"/>
   </g>
   <g id="patch_3">
    <path d="M 30.346875 242.93085 
L 30.346875 25.49085 
" style="fill:none;stroke:#f0f0f0;stroke-linecap:square;stroke-linejoin:miter;stroke-width:3;"/>
   </g>
   <g id="patch_4">
    <path d="M 406.186875 242.93085 
L 406.186875 25.49085 
" style="fill:none;stroke:#f0f0f0;stroke-linecap:square;stroke-linejoin:miter;stroke-width:3;"/>
   </g>
   <g id="patch_5">
    <path d="M 30.346875 242.93085 
L 406.186875 242.93085 
" style="fill:none;stroke:#f0f0f0;stroke-linecap:square;stroke-linejoin:miter;stroke-width:3;"/>
   </g>
   <g id="patch_6">
    <path d="M 30.346875 25.49085 
L 406.186875 25.49085 
" style="fill:none;stroke:#f0f0f0;stroke-linecap:square;stroke-linejoin:miter;stroke-width:3;"/>
   </g>
   <g id="text_15">
    <!-- Prior -->
    <defs>
     <path d="M 27 70 
Q 41.59375 70 49.4375 64.453125 
Q 57.296875 58.90625 57.296875 47.90625 
Q 57.296875 41.90625 55.140625 37.65625 
Q 53 33.40625 48.953125 30.75 
Q 44.90625 28.09375 39.09375 26.890625 
Q 33.296875 25.703125 26 25.703125 
L 18.296875 25.703125 
L 18.296875 0 
L 8.59375 0 
L 8.59375 68.296875 
Q 12.703125 69.296875 17.75 69.640625 
Q 22.796875 70 27 70 
z
M 27.796875 61.5 
Q 21.59375 61.5 18.296875 61.203125 
L 18.296875 34 
L 25.59375 34 
Q 30.59375 34 34.59375 34.640625 
Q 38.59375 35.296875 41.34375 36.84375 
Q 44.09375 38.40625 45.59375 41.09375 
Q 47.09375 43.796875 47.09375 48 
Q 47.09375 52 45.546875 54.59375 
Q 44 57.203125 41.34375 58.75 
Q 38.703125 60.296875 35.203125 60.890625 
Q 31.703125 61.5 27.796875 61.5 
z
" id="Ubuntu-80"/>
     <path d="M 27.203125 53.09375 
Q 28.40625 53.09375 29.953125 52.9375 
Q 31.5 52.796875 33 52.546875 
Q 34.5 52.296875 35.75 52.046875 
Q 37 51.796875 37.59375 51.59375 
L 36 43.5 
Q 34.90625 43.90625 32.34375 44.453125 
Q 29.796875 45 25.796875 45 
Q 23.203125 45 20.640625 44.453125 
Q 18.09375 43.90625 17.296875 43.703125 
L 17.296875 0 
L 8 0 
L 8 49.796875 
Q 11.296875 51 16.1875 52.046875 
Q 21.09375 53.09375 27.203125 53.09375 
z
" id="Ubuntu-114"/>
     <path d="M 17.296875 0 
L 8 0 
L 8 52 
L 17.296875 52 
z
M 12.59375 61.40625 
Q 10.09375 61.40625 8.34375 63.046875 
Q 6.59375 64.703125 6.59375 67.5 
Q 6.59375 70.296875 8.34375 71.9375 
Q 10.09375 73.59375 12.59375 73.59375 
Q 15.09375 73.59375 16.84375 71.9375 
Q 18.59375 70.296875 18.59375 67.5 
Q 18.59375 64.703125 16.84375 63.046875 
Q 15.09375 61.40625 12.59375 61.40625 
z
" id="Ubuntu-105"/>
    </defs>
    <g transform="translate(200.6622 19.49085)scale(0.1584 -0.1584)">
     <use xlink:href="#Ubuntu-80"/>
     <use x="60.799988" xlink:href="#Ubuntu-114"/>
     <use x="99.399979" xlink:href="#Ubuntu-105"/>
     <use x="124.699966" xlink:href="#Ubuntu-111"/>
     <use x="183.699951" xlink:href="#Ubuntu-114"/>
    </g>
   </g>
   <g id="legend_1">
    <g id="patch_7">
     <path d="M 428.920475 83.416163 
L 529.350475 83.416163 
Q 531.550475 83.416163 531.550475 81.216163 
L 531.550475 33.19085 
Q 531.550475 30.99085 529.350475 30.99085 
L 428.920475 30.99085 
Q 426.720475 30.99085 426.720475 33.19085 
L 426.720475 81.216163 
Q 426.720475 83.416163 428.920475 83.416163 
z
" style="fill:#f0f0f0;opacity:0.8;stroke:#cccccc;stroke-linejoin:miter;stroke-width:0.5;"/>
    </g>
    <g id="line2d_27">
     <path d="M 431.120475 40.23085 
L 453.120475 40.23085 
" style="fill:none;stroke:#000000;stroke-width:2.7;"/>
    </g>
    <g id="line2d_28"/>
    <g id="text_16">
     <!-- Predicted ($\mu$) -->
     <defs>
      <path d="M 17.09375 29.90625 
Q 17.09375 17.09375 20.796875 6.1875 
Q 24.5 -4.703125 31.703125 -14 
L 25.09375 -18.5 
Q 17.296875 -9 12.546875 3.34375 
Q 7.796875 15.703125 7.796875 29.90625 
Q 7.796875 44.09375 12.546875 56.4375 
Q 17.296875 68.796875 25.09375 78.296875 
L 31.703125 73.796875 
Q 24.5 64.5 20.796875 53.59375 
Q 17.09375 42.703125 17.09375 29.90625 
z
" id="Ubuntu-40"/>
      <path d="M -1.3125 -20.796875 
L 13.375 54.6875 
L 22.40625 54.6875 
L 15.765625 20.65625 
Q 15.578125 19.625 15.421875 18.359375 
Q 15.28125 17.09375 15.28125 15.828125 
Q 15.28125 11.28125 18.140625 8.828125 
Q 21 6.390625 26.3125 6.390625 
Q 33.546875 6.390625 37.984375 10.484375 
Q 42.4375 14.59375 44 22.796875 
L 50.203125 54.6875 
L 59.1875 54.6875 
L 51.03125 12.640625 
Q 50.828125 11.71875 50.75 11.03125 
Q 50.6875 10.359375 50.6875 9.8125 
Q 50.6875 8.296875 51.296875 7.59375 
Q 51.90625 6.890625 53.21875 6.890625 
Q 53.71875 6.890625 54.5625 7.125 
Q 55.421875 7.375 56.984375 8.015625 
L 55.609375 0.78125 
Q 53.46875 -0.296875 51.515625 -0.859375 
Q 49.5625 -1.421875 47.703125 -1.421875 
Q 44.484375 -1.421875 42.65625 0.625 
Q 40.828125 2.6875 40.828125 6.296875 
Q 38.09375 2.390625 34.296875 0.484375 
Q 30.515625 -1.421875 25.390625 -1.421875 
Q 20.84375 -1.421875 17.453125 0.671875 
Q 14.0625 2.78125 12.984375 6.203125 
L 7.71875 -20.796875 
z
" id="DejaVuSans-Oblique-956"/>
      <path d="M 15.296875 29.90625 
Q 15.296875 42.703125 11.59375 53.59375 
Q 7.90625 64.5 0.703125 73.796875 
L 7.296875 78.296875 
Q 15.09375 68.796875 19.84375 56.4375 
Q 24.59375 44.09375 24.59375 29.90625 
Q 24.59375 15.703125 19.84375 3.34375 
Q 15.09375 -9 7.296875 -18.5 
L 0.703125 -14 
Q 7.90625 -4.703125 11.59375 6.1875 
Q 15.296875 17.09375 15.296875 29.90625 
z
" id="Ubuntu-41"/>
     </defs>
     <g transform="translate(461.920475 44.08085)scale(0.11 -0.11)">
      <use transform="translate(0 0.703125)" xlink:href="#Ubuntu-80"/>
      <use transform="translate(60.799988 0.703125)" xlink:href="#Ubuntu-114"/>
      <use transform="translate(99.399979 0.703125)" xlink:href="#Ubuntu-101"/>
      <use transform="translate(155.299973 0.703125)" xlink:href="#Ubuntu-100"/>
      <use transform="translate(214.199966 0.703125)" xlink:href="#Ubuntu-105"/>
      <use transform="translate(239.499954 0.703125)" xlink:href="#Ubuntu-99"/>
      <use transform="translate(285.999939 0.703125)" xlink:href="#Ubuntu-116"/>
      <use transform="translate(326.199936 0.703125)" xlink:href="#Ubuntu-101"/>
      <use transform="translate(382.09993 0.703125)" xlink:href="#Ubuntu-100"/>
      <use transform="translate(440.999924 0.703125)" xlink:href="#Ubuntu-32"/>
      <use transform="translate(464.099915 0.703125)" xlink:href="#Ubuntu-40"/>
      <use transform="translate(496.499908 0.703125)" xlink:href="#DejaVuSans-Oblique-956"/>
      <use transform="translate(560.122955 0.703125)" xlink:href="#Ubuntu-41"/>
     </g>
    </g>
    <g id="line2d_29">
     <path d="M 431.120475 56.73085 
L 453.120475 56.73085 
" style="fill:none;stroke:#800080;stroke-width:2.7;"/>
    </g>
    <g id="line2d_30"/>
    <g id="text_17">
     <!-- GT ($f$) -->
     <defs>
      <path d="M 54.90625 69.296875 
L 54.90625 60.90625 
L 33.09375 60.90625 
L 33.09375 0 
L 23.40625 0 
L 23.40625 60.90625 
L 1.59375 60.90625 
L 1.59375 69.296875 
z
" id="Ubuntu-84"/>
      <path d="M 47.796875 75.984375 
L 46.390625 68.5 
L 37.796875 68.5 
Q 32.90625 68.5 30.6875 66.578125 
Q 28.46875 64.65625 27.390625 59.515625 
L 26.421875 54.6875 
L 41.21875 54.6875 
L 39.890625 47.703125 
L 25.09375 47.703125 
L 15.828125 0 
L 6.78125 0 
L 16.109375 47.703125 
L 7.515625 47.703125 
L 8.796875 54.6875 
L 17.390625 54.6875 
L 18.109375 58.5 
Q 19.96875 68.171875 24.625 72.078125 
Q 29.296875 75.984375 39.3125 75.984375 
z
" id="DejaVuSans-Oblique-102"/>
     </defs>
     <g transform="translate(461.920475 60.58085)scale(0.11 -0.11)">
      <use transform="translate(0 0.703125)" xlink:href="#Ubuntu-71"/>
      <use transform="translate(67.199997 0.703125)" xlink:href="#Ubuntu-84"/>
      <use transform="translate(123.699982 0.703125)" xlink:href="#Ubuntu-32"/>
      <use transform="translate(146.799973 0.703125)" xlink:href="#Ubuntu-40"/>
      <use transform="translate(179.199966 0.703125)" xlink:href="#DejaVuSans-Oblique-102"/>
      <use transform="translate(214.405045 0.703125)" xlink:href="#Ubuntu-41"/>
     </g>
    </g>
    <g id="patch_8">
     <path d="M 431.120475 76.706163 
L 453.120475 76.706163 
L 453.120475 69.006163 
L 431.120475 69.006163 
z
" style="fill:#808080;opacity:0.4;stroke:#808080;stroke-linejoin:miter;stroke-width:0.5;"/>
    </g>
    <g id="text_18">
     <!-- $\mu \pm \sigma$ -->
     <defs>
      <path d="M 46 62.703125 
L 46 43.796875 
L 73.1875 43.796875 
L 73.1875 35.5 
L 46 35.5 
L 46 16.609375 
L 37.796875 16.609375 
L 37.796875 35.5 
L 10.59375 35.5 
L 10.59375 43.796875 
L 37.796875 43.796875 
L 37.796875 62.703125 
z
M 10.59375 8.296875 
L 73.1875 8.296875 
L 73.1875 0 
L 10.59375 0 
z
" id="DejaVuSans-177"/>
      <path d="M 34.671875 47.5625 
Q 27.25 47.5625 22.21875 42.1875 
Q 16.890625 36.578125 15.140625 27.296875 
Q 13.1875 17.484375 16.3125 11.8125 
Q 19.390625 6.203125 26.65625 6.203125 
Q 33.84375 6.203125 39.109375 11.859375 
Q 44.4375 17.53125 46.34375 27.296875 
Q 48.046875 36.234375 45.015625 42.1875 
Q 42.1875 47.5625 34.671875 47.5625 
z
M 36.078125 54.734375 
L 65.921875 54.6875 
L 64.15625 45.703125 
L 54.109375 45.703125 
Q 57.90625 38.09375 55.859375 27.296875 
Q 53.21875 13.875 45.0625 6.25 
Q 36.859375 -1.421875 25.140625 -1.421875 
Q 13.375 -1.421875 8.203125 6.25 
Q 3.03125 13.875 5.671875 27.296875 
Q 8.25 40.765625 16.40625 48.390625 
Q 23.1875 54.734375 36.078125 54.734375 
z
" id="DejaVuSans-Oblique-963"/>
     </defs>
     <g transform="translate(461.920475 76.706163)scale(0.11 -0.11)">
      <use transform="translate(0 0.296875)" xlink:href="#DejaVuSans-Oblique-956"/>
      <use transform="translate(83.105469 0.296875)" xlink:href="#DejaVuSans-177"/>
      <use transform="translate(186.376953 0.296875)" xlink:href="#DejaVuSans-Oblique-963"/>
     </g>
    </g>
   </g>
  </g>
 </g>
 <defs>
  <clipPath id="pf379d159a0">
   <rect height="217.44" width="375.84" x="30.346875" y="25.49085"/>
  </clipPath>
 </defs>
</svg>
