<?xml version="1.0" encoding="utf-8" standalone="no"?>
<!DOCTYPE svg PUBLIC "-//W3C//DTD SVG 1.1//EN"
  "http://www.w3.org/Graphics/SVG/1.1/DTD/svg11.dtd">
<!-- Created with matplotlib (https://matplotlib.org/) -->
<svg height="273.810375pt" version="1.1" viewBox="0 0 527.195475 273.810375" width="527.195475pt" xmlns="http://www.w3.org/2000/svg" xmlns:xlink="http://www.w3.org/1999/xlink">
 <defs>
  <style type="text/css">
*{stroke-linecap:butt;stroke-linejoin:round;white-space:pre;}
  </style>
 </defs>
 <g id="figure_1">
  <g id="patch_1">
   <path d="M 0 273.810375 
L 527.195475 273.810375 
L 527.195475 0 
L 0 0 
z
" style="fill:#f0f0f0;"/>
  </g>
  <g id="axes_1">
   <g id="patch_2">
    <path d="M 28.821875 241.8135 
L 404.661875 241.8135 
L 404.661875 24.3735 
L 28.821875 24.3735 
z
" style="fill:#f0f0f0;"/>
   </g>
   <g id="matplotlib.axis_1">
    <g id="xtick_1">
     <g id="line2d_1">
      <path clip-path="url(#p6d5afc6a08)" d="M 45.905511 241.8135 
L 45.905511 24.3735 
" style="fill:none;stroke:#cbcbcb;"/>
     </g>
     <g id="line2d_2"/>
     <g id="text_1">
      <!-- 0 -->
      <defs>
       <path d="M 5 34.703125 
Q 5 52.09375 11.140625 61.5 
Q 17.296875 70.90625 28.203125 70.90625 
Q 39.09375 70.90625 45.25 61.5 
Q 51.40625 52.09375 51.40625 34.703125 
Q 51.40625 17.296875 45.25 7.890625 
Q 39.09375 -1.5 28.203125 -1.5 
Q 17.296875 -1.5 11.140625 7.890625 
Q 5 17.296875 5 34.703125 
z
M 41.59375 34.703125 
Q 41.59375 40.40625 40.9375 45.5 
Q 40.296875 50.59375 38.75 54.390625 
Q 37.203125 58.203125 34.59375 60.453125 
Q 32 62.703125 28.203125 62.703125 
Q 24.40625 62.703125 21.796875 60.453125 
Q 19.203125 58.203125 17.640625 54.390625 
Q 16.09375 50.59375 15.4375 45.5 
Q 14.796875 40.40625 14.796875 34.703125 
Q 14.796875 29 15.4375 23.890625 
Q 16.09375 18.796875 17.640625 15 
Q 19.203125 11.203125 21.796875 8.953125 
Q 24.40625 6.703125 28.203125 6.703125 
Q 32 6.703125 34.59375 8.953125 
Q 37.203125 11.203125 38.75 15 
Q 40.296875 18.796875 40.9375 23.890625 
Q 41.59375 29 41.59375 34.703125 
z
" id="Ubuntu-48"/>
      </defs>
      <g transform="translate(43.649261 251.521)scale(0.08 -0.08)">
       <use xlink:href="#Ubuntu-48"/>
      </g>
     </g>
    </g>
    <g id="xtick_2">
     <g id="line2d_3">
      <path clip-path="url(#p6d5afc6a08)" d="M 102.850966 241.8135 
L 102.850966 24.3735 
" style="fill:none;stroke:#cbcbcb;"/>
     </g>
     <g id="line2d_4"/>
     <g id="text_2">
      <!-- 1 -->
      <defs>
       <path d="M 9.296875 55 
Q 15 57.203125 20.390625 60.640625 
Q 25.796875 64.09375 30.296875 69.296875 
L 36.90625 69.296875 
L 36.90625 0 
L 27.59375 0 
L 27.59375 56.40625 
Q 26.40625 55.296875 24.65625 54.09375 
Q 22.90625 52.90625 20.84375 51.796875 
Q 18.796875 50.703125 16.546875 49.703125 
Q 14.296875 48.703125 12.203125 48 
z
" id="Ubuntu-49"/>
      </defs>
      <g transform="translate(100.594716 251.521)scale(0.08 -0.08)">
       <use xlink:href="#Ubuntu-49"/>
      </g>
     </g>
    </g>
    <g id="xtick_3">
     <g id="line2d_5">
      <path clip-path="url(#p6d5afc6a08)" d="M 159.79642 241.8135 
L 159.79642 24.3735 
" style="fill:none;stroke:#cbcbcb;"/>
     </g>
     <g id="line2d_6"/>
     <g id="text_3">
      <!-- 2 -->
      <defs>
       <path d="M 46.703125 51.59375 
Q 46.703125 48 45.25 44.640625 
Q 43.796875 41.296875 41.390625 38.046875 
Q 39 34.796875 36 31.640625 
Q 33 28.5 30 25.5 
Q 28.296875 23.796875 26.046875 21.5 
Q 23.796875 19.203125 21.796875 16.703125 
Q 19.796875 14.203125 18.4375 11.890625 
Q 17.09375 9.59375 17.09375 7.90625 
L 49 7.90625 
L 49 0 
L 7 0 
Q 6.90625 0.59375 6.90625 1.1875 
Q 6.90625 1.796875 6.90625 2.296875 
Q 6.90625 7 8.453125 11.046875 
Q 10 15.09375 12.5 18.6875 
Q 15 22.296875 18.09375 25.5 
Q 21.203125 28.703125 24.203125 31.703125 
Q 26.703125 34.09375 28.953125 36.4375 
Q 31.203125 38.796875 32.953125 41.140625 
Q 34.703125 43.5 35.75 46 
Q 36.796875 48.5 36.796875 51.296875 
Q 36.796875 54.296875 35.84375 56.390625 
Q 34.90625 58.5 33.296875 59.890625 
Q 31.703125 61.296875 29.546875 61.9375 
Q 27.40625 62.59375 25 62.59375 
Q 22.09375 62.59375 19.6875 61.796875 
Q 17.296875 61 15.390625 59.953125 
Q 13.5 58.90625 12.203125 57.75 
Q 10.90625 56.59375 10.203125 56 
L 5.59375 62.59375 
Q 6.5 63.59375 8.296875 65.046875 
Q 10.09375 66.5 12.59375 67.796875 
Q 15.09375 69.09375 18.1875 70 
Q 21.296875 70.90625 24.90625 70.90625 
Q 35.796875 70.90625 41.25 65.84375 
Q 46.703125 60.796875 46.703125 51.59375 
z
" id="Ubuntu-50"/>
      </defs>
      <g transform="translate(157.54017 251.521)scale(0.08 -0.08)">
       <use xlink:href="#Ubuntu-50"/>
      </g>
     </g>
    </g>
    <g id="xtick_4">
     <g id="line2d_7">
      <path clip-path="url(#p6d5afc6a08)" d="M 216.741875 241.8135 
L 216.741875 24.3735 
" style="fill:none;stroke:#cbcbcb;"/>
     </g>
     <g id="line2d_8"/>
     <g id="text_4">
      <!-- 3 -->
      <defs>
       <path d="M 22.59375 6.796875 
Q 31.5 6.796875 35.34375 10.296875 
Q 39.203125 13.796875 39.203125 19.703125 
Q 39.203125 23.5 37.59375 26.09375 
Q 36 28.703125 33.390625 30.25 
Q 30.796875 31.796875 27.34375 32.4375 
Q 23.90625 33.09375 20.296875 33.09375 
L 17.90625 33.09375 
L 17.90625 40.703125 
L 21.203125 40.703125 
Q 23.703125 40.703125 26.34375 41.203125 
Q 29 41.703125 31.203125 43 
Q 33.40625 44.296875 34.796875 46.546875 
Q 36.203125 48.796875 36.203125 52.203125 
Q 36.203125 55 35.203125 57 
Q 34.203125 59 32.546875 60.296875 
Q 30.90625 61.59375 28.75 62.140625 
Q 26.59375 62.703125 24.203125 62.703125 
Q 19.40625 62.703125 16.046875 61.296875 
Q 12.703125 59.90625 10.40625 58.40625 
L 6.796875 65.5 
Q 8 66.296875 9.84375 67.25 
Q 11.703125 68.203125 14 69 
Q 16.296875 69.796875 18.9375 70.34375 
Q 21.59375 70.90625 24.5 70.90625 
Q 30 70.90625 34 69.546875 
Q 38 68.203125 40.59375 65.75 
Q 43.203125 63.296875 44.5 59.9375 
Q 45.796875 56.59375 45.796875 52.703125 
Q 45.796875 47.296875 42.6875 43.4375 
Q 39.59375 39.59375 35.203125 37.59375 
Q 37.90625 36.796875 40.40625 35.296875 
Q 42.90625 33.796875 44.75 31.5 
Q 46.59375 29.203125 47.75 26.203125 
Q 48.90625 23.203125 48.90625 19.5 
Q 48.90625 15 47.34375 11.140625 
Q 45.796875 7.296875 42.546875 4.5 
Q 39.296875 1.703125 34.390625 0.09375 
Q 29.5 -1.5 22.796875 -1.5 
Q 20.203125 -1.5 17.453125 -1.09375 
Q 14.703125 -0.703125 12.296875 -0.09375 
Q 9.90625 0.5 8.09375 1.09375 
Q 6.296875 1.703125 5.5 2.09375 
L 7.296875 10.203125 
Q 9 9.40625 12.953125 8.09375 
Q 16.90625 6.796875 22.59375 6.796875 
z
" id="Ubuntu-51"/>
      </defs>
      <g transform="translate(214.485625 251.521)scale(0.08 -0.08)">
       <use xlink:href="#Ubuntu-51"/>
      </g>
     </g>
    </g>
    <g id="xtick_5">
     <g id="line2d_9">
      <path clip-path="url(#p6d5afc6a08)" d="M 273.68733 241.8135 
L 273.68733 24.3735 
" style="fill:none;stroke:#cbcbcb;"/>
     </g>
     <g id="line2d_10"/>
     <g id="text_5">
      <!-- 4 -->
      <defs>
       <path d="M 4 24 
Q 5.90625 28.40625 9.203125 34.25 
Q 12.5 40.09375 16.640625 46.296875 
Q 20.796875 52.5 25.546875 58.5 
Q 30.296875 64.5 35.09375 69.296875 
L 44 69.296875 
L 44 25.296875 
L 52.203125 25.296875 
L 52.203125 17.703125 
L 44 17.703125 
L 44 0 
L 35 0 
L 35 17.703125 
L 4 17.703125 
z
M 35 58.296875 
Q 32 55.09375 28.953125 51.140625 
Q 25.90625 47.203125 23 42.890625 
Q 20.09375 38.59375 17.546875 34.09375 
Q 15 29.59375 13 25.296875 
L 35 25.296875 
z
" id="Ubuntu-52"/>
      </defs>
      <g transform="translate(271.43108 251.521)scale(0.08 -0.08)">
       <use xlink:href="#Ubuntu-52"/>
      </g>
     </g>
    </g>
    <g id="xtick_6">
     <g id="line2d_11">
      <path clip-path="url(#p6d5afc6a08)" d="M 330.632784 241.8135 
L 330.632784 24.3735 
" style="fill:none;stroke:#cbcbcb;"/>
     </g>
     <g id="line2d_12"/>
     <g id="text_6">
      <!-- 5 -->
      <defs>
       <path d="M 19.90625 42.59375 
Q 35 42 42.046875 36 
Q 49.09375 30 49.09375 19.703125 
Q 49.09375 15.09375 47.546875 11.1875 
Q 46 7.296875 42.84375 4.5 
Q 39.703125 1.703125 34.890625 0.09375 
Q 30.09375 -1.5 23.5 -1.5 
Q 20.90625 -1.5 18.203125 -1.09375 
Q 15.5 -0.703125 13.203125 -0.09375 
Q 10.90625 0.5 9.09375 1.09375 
Q 7.296875 1.703125 6.5 2.09375 
L 8.296875 10.203125 
Q 10 9.40625 13.84375 8.09375 
Q 17.703125 6.796875 23.296875 6.796875 
Q 27.796875 6.796875 30.84375 7.796875 
Q 33.90625 8.796875 35.796875 10.5 
Q 37.703125 12.203125 38.546875 14.453125 
Q 39.40625 16.703125 39.40625 19.203125 
Q 39.40625 23 38.09375 25.953125 
Q 36.796875 28.90625 33.5 30.90625 
Q 30.203125 32.90625 24.703125 33.953125 
Q 19.203125 35 10.796875 35 
Q 11.40625 39.90625 11.75 44.203125 
Q 12.09375 48.5 12.390625 52.59375 
Q 12.703125 56.703125 12.890625 60.75 
Q 13.09375 64.796875 13.296875 69.296875 
L 46.703125 69.296875 
L 46.703125 61.40625 
L 21.40625 61.40625 
Q 21.296875 59.90625 21.09375 57.34375 
Q 20.90625 54.796875 20.703125 52.046875 
Q 20.5 49.296875 20.296875 46.6875 
Q 20.09375 44.09375 19.90625 42.59375 
z
" id="Ubuntu-53"/>
      </defs>
      <g transform="translate(328.376534 251.521)scale(0.08 -0.08)">
       <use xlink:href="#Ubuntu-53"/>
      </g>
     </g>
    </g>
    <g id="xtick_7">
     <g id="line2d_13">
      <path clip-path="url(#p6d5afc6a08)" d="M 387.578239 241.8135 
L 387.578239 24.3735 
" style="fill:none;stroke:#cbcbcb;"/>
     </g>
     <g id="line2d_14"/>
     <g id="text_7">
      <!-- 6 -->
      <defs>
       <path d="M 6.296875 27.796875 
Q 6.296875 37.90625 9.09375 45.65625 
Q 11.90625 53.40625 17.046875 58.703125 
Q 22.203125 64 29.546875 66.75 
Q 36.90625 69.5 46.09375 69.59375 
L 46.796875 61.796875 
Q 40.90625 61.703125 36.046875 60.5 
Q 31.203125 59.296875 27.390625 56.6875 
Q 23.59375 54.09375 21 49.9375 
Q 18.40625 45.796875 17.09375 39.703125 
Q 19.703125 40.90625 22.953125 41.703125 
Q 26.203125 42.5 29.703125 42.5 
Q 35.59375 42.5 39.6875 40.703125 
Q 43.796875 38.90625 46.390625 35.953125 
Q 49 33 50.140625 29.140625 
Q 51.296875 25.296875 51.296875 21.09375 
Q 51.296875 17.296875 50 13.296875 
Q 48.703125 9.296875 46.046875 6 
Q 43.40625 2.703125 39.296875 0.59375 
Q 35.203125 -1.5 29.59375 -1.5 
Q 18.203125 -1.5 12.25 6.296875 
Q 6.296875 14.09375 6.296875 27.796875 
z
M 28.703125 34.90625 
Q 25.203125 34.90625 22.203125 34.25 
Q 19.203125 33.59375 16.203125 32.296875 
Q 16.09375 31.203125 16.046875 30.046875 
Q 16 28.90625 16 27.796875 
Q 16 23.40625 16.59375 19.5 
Q 17.203125 15.59375 18.75 12.640625 
Q 20.296875 9.703125 22.890625 7.953125 
Q 25.5 6.203125 29.5 6.203125 
Q 32.796875 6.203125 35.09375 7.59375 
Q 37.40625 9 38.90625 11.203125 
Q 40.40625 13.40625 41.046875 15.953125 
Q 41.703125 18.5 41.703125 20.90625 
Q 41.703125 27.703125 38.453125 31.296875 
Q 35.203125 34.90625 28.703125 34.90625 
z
" id="Ubuntu-54"/>
      </defs>
      <g transform="translate(385.321989 251.521)scale(0.08 -0.08)">
       <use xlink:href="#Ubuntu-54"/>
      </g>
     </g>
    </g>
    <g id="text_8">
     <!-- X -->
     <defs>
      <path d="M 50.203125 0 
Q 48.703125 3 46.59375 6.640625 
Q 44.5 10.296875 42 14.25 
Q 39.5 18.203125 36.796875 22.140625 
Q 34.09375 26.09375 31.59375 29.59375 
Q 29.09375 26.09375 26.390625 22.140625 
Q 23.703125 18.203125 21.25 14.25 
Q 18.796875 10.296875 16.640625 6.640625 
Q 14.5 3 13 0 
L 2.296875 0 
Q 6.796875 8.796875 12.75 17.890625 
Q 18.703125 27 25.40625 36.59375 
L 3.203125 69.296875 
L 14.40625 69.296875 
L 31.5 43.5 
L 48.40625 69.296875 
L 59.5 69.296875 
L 37.703125 37 
Q 44.5 27.296875 50.5 18.09375 
Q 56.5 8.90625 61.09375 0 
z
" id="Ubuntu-88"/>
     </defs>
     <g transform="translate(213.587187 264.760375)scale(0.1 -0.1)">
      <use xlink:href="#Ubuntu-88"/>
     </g>
    </g>
   </g>
   <g id="matplotlib.axis_2">
    <g id="ytick_1">
     <g id="line2d_15">
      <path clip-path="url(#p6d5afc6a08)" d="M 28.821875 210.388609 
L 404.661875 210.388609 
" style="fill:none;stroke:#cbcbcb;"/>
     </g>
     <g id="line2d_16"/>
     <g id="text_9">
      <!-- 0 -->
      <g transform="translate(20.809375 213.492359)scale(0.08 -0.08)">
       <use xlink:href="#Ubuntu-48"/>
      </g>
     </g>
    </g>
    <g id="ytick_2">
     <g id="line2d_17">
      <path clip-path="url(#p6d5afc6a08)" d="M 28.821875 167.3061 
L 404.661875 167.3061 
" style="fill:none;stroke:#cbcbcb;"/>
     </g>
     <g id="line2d_18"/>
     <g id="text_10">
      <!-- 2 -->
      <g transform="translate(20.809375 170.40985)scale(0.08 -0.08)">
       <use xlink:href="#Ubuntu-50"/>
      </g>
     </g>
    </g>
    <g id="ytick_3">
     <g id="line2d_19">
      <path clip-path="url(#p6d5afc6a08)" d="M 28.821875 124.223591 
L 404.661875 124.223591 
" style="fill:none;stroke:#cbcbcb;"/>
     </g>
     <g id="line2d_20"/>
     <g id="text_11">
      <!-- 4 -->
      <g transform="translate(20.809375 127.327341)scale(0.08 -0.08)">
       <use xlink:href="#Ubuntu-52"/>
      </g>
     </g>
    </g>
    <g id="ytick_4">
     <g id="line2d_21">
      <path clip-path="url(#p6d5afc6a08)" d="M 28.821875 81.141082 
L 404.661875 81.141082 
" style="fill:none;stroke:#cbcbcb;"/>
     </g>
     <g id="line2d_22"/>
     <g id="text_12">
      <!-- 6 -->
      <g transform="translate(20.809375 84.244832)scale(0.08 -0.08)">
       <use xlink:href="#Ubuntu-54"/>
      </g>
     </g>
    </g>
    <g id="ytick_5">
     <g id="line2d_23">
      <path clip-path="url(#p6d5afc6a08)" d="M 28.821875 38.058573 
L 404.661875 38.058573 
" style="fill:none;stroke:#cbcbcb;"/>
     </g>
     <g id="line2d_24"/>
     <g id="text_13">
      <!-- 8 -->
      <defs>
       <path d="M 50.90625 18 
Q 50.90625 13.796875 49.453125 10.25 
Q 48 6.703125 45.140625 4.046875 
Q 42.296875 1.40625 38 -0.046875 
Q 33.703125 -1.5 28.09375 -1.5 
Q 21.59375 -1.5 17.25 0.34375 
Q 12.90625 2.203125 10.296875 5 
Q 7.703125 7.796875 6.59375 11.140625 
Q 5.5 14.5 5.5 17.5 
Q 5.5 20.40625 6.453125 23.046875 
Q 7.40625 25.703125 8.953125 28 
Q 10.5 30.296875 12.546875 32.140625 
Q 14.59375 34 16.90625 35.40625 
Q 7.09375 41 7.09375 51.90625 
Q 7.09375 55.703125 8.59375 59.140625 
Q 10.09375 62.59375 12.84375 65.1875 
Q 15.59375 67.796875 19.5 69.34375 
Q 23.40625 70.90625 28.203125 70.90625 
Q 33.796875 70.90625 37.796875 69.203125 
Q 41.796875 67.5 44.34375 64.84375 
Q 46.90625 62.203125 48.046875 59 
Q 49.203125 55.796875 49.203125 52.796875 
Q 49.203125 49.90625 48.34375 47.34375 
Q 47.5 44.796875 46.046875 42.59375 
Q 44.59375 40.40625 42.75 38.703125 
Q 40.90625 37 38.90625 35.703125 
Q 50.703125 30.09375 50.90625 18 
z
M 14.90625 17.40625 
Q 14.90625 15.59375 15.546875 13.640625 
Q 16.203125 11.703125 17.796875 10.046875 
Q 19.40625 8.40625 21.90625 7.296875 
Q 24.40625 6.203125 28.203125 6.203125 
Q 31.59375 6.203125 34.140625 7.203125 
Q 36.703125 8.203125 38.296875 9.75 
Q 39.90625 11.296875 40.703125 13.296875 
Q 41.5 15.296875 41.5 17.40625 
Q 41.5 20.59375 40.296875 23 
Q 39.09375 25.40625 36.84375 27.203125 
Q 34.59375 29 31.4375 30.25 
Q 28.296875 31.5 24.296875 32.40625 
Q 19.796875 29.90625 17.34375 26.203125 
Q 14.90625 22.5 14.90625 17.40625 
z
M 39.90625 52.90625 
Q 39.90625 54.40625 39.25 56.203125 
Q 38.59375 58 37.1875 59.546875 
Q 35.796875 61.09375 33.59375 62.140625 
Q 31.40625 63.203125 28.203125 63.203125 
Q 25 63.203125 22.75 62.203125 
Q 20.5 61.203125 19.09375 59.640625 
Q 17.703125 58.09375 17.046875 56.25 
Q 16.40625 54.40625 16.40625 52.59375 
Q 16.40625 50.40625 17.203125 48.203125 
Q 18 46 19.703125 44.09375 
Q 21.40625 42.203125 24.15625 40.703125 
Q 26.90625 39.203125 30.703125 38.296875 
Q 34.90625 40.796875 37.40625 44.140625 
Q 39.90625 47.5 39.90625 52.90625 
z
" id="Ubuntu-56"/>
      </defs>
      <g transform="translate(20.809375 41.162323)scale(0.08 -0.08)">
       <use xlink:href="#Ubuntu-56"/>
      </g>
     </g>
    </g>
    <g id="text_14">
     <!-- Gold content -->
     <defs>
      <path d="M 50.90625 34.09375 
L 60.59375 34.09375 
L 60.59375 1.703125 
Q 59.40625 1.296875 57.15625 0.796875 
Q 54.90625 0.296875 51.953125 -0.203125 
Q 49 -0.703125 45.5 -1.046875 
Q 42 -1.40625 38.40625 -1.40625 
Q 31.09375 -1.40625 25.09375 1 
Q 19.09375 3.40625 14.796875 8 
Q 10.5 12.59375 8.140625 19.296875 
Q 5.796875 26 5.796875 34.703125 
Q 5.796875 43.40625 8.4375 50.15625 
Q 11.09375 56.90625 15.59375 61.5 
Q 20.09375 66.09375 26.140625 68.5 
Q 32.203125 70.90625 39.09375 70.90625 
Q 43.796875 70.90625 47.4375 70.296875 
Q 51.09375 69.703125 53.6875 68.890625 
Q 56.296875 68.09375 57.9375 67.296875 
Q 59.59375 66.5 60.203125 66.09375 
L 57.09375 58 
Q 54.203125 59.90625 49.390625 61.15625 
Q 44.59375 62.40625 39.59375 62.40625 
Q 34.296875 62.40625 29.9375 60.5 
Q 25.59375 58.59375 22.546875 55 
Q 19.5 51.40625 17.796875 46.25 
Q 16.09375 41.09375 16.09375 34.703125 
Q 16.09375 28.5 17.546875 23.390625 
Q 19 18.296875 21.953125 14.640625 
Q 24.90625 11 29.25 9 
Q 33.59375 7 39.5 7 
Q 43.703125 7 46.640625 7.453125 
Q 49.59375 7.90625 50.90625 8.296875 
z
" id="Ubuntu-71"/>
      <path d="M 53.90625 26 
Q 53.90625 19.796875 52.09375 14.796875 
Q 50.296875 9.796875 47.046875 6.1875 
Q 43.796875 2.59375 39.296875 0.640625 
Q 34.796875 -1.296875 29.5 -1.296875 
Q 24.203125 -1.296875 19.703125 0.640625 
Q 15.203125 2.59375 11.953125 6.1875 
Q 8.703125 9.796875 6.890625 14.796875 
Q 5.09375 19.796875 5.09375 26 
Q 5.09375 32.09375 6.890625 37.140625 
Q 8.703125 42.203125 11.953125 45.796875 
Q 15.203125 49.40625 19.703125 51.34375 
Q 24.203125 53.296875 29.5 53.296875 
Q 34.796875 53.296875 39.296875 51.34375 
Q 43.796875 49.40625 47.046875 45.796875 
Q 50.296875 42.203125 52.09375 37.140625 
Q 53.90625 32.09375 53.90625 26 
z
M 44.203125 26 
Q 44.203125 34.796875 40.25 39.9375 
Q 36.296875 45.09375 29.5 45.09375 
Q 22.703125 45.09375 18.75 39.9375 
Q 14.796875 34.796875 14.796875 26 
Q 14.796875 17.203125 18.75 12.046875 
Q 22.703125 6.90625 29.5 6.90625 
Q 36.296875 6.90625 40.25 12.046875 
Q 44.203125 17.203125 44.203125 26 
z
" id="Ubuntu-111"/>
      <path d="M 23.59375 -1 
Q 15 -0.796875 11.390625 2.703125 
Q 7.796875 6.203125 7.796875 13.59375 
L 7.796875 76 
L 17.09375 77.59375 
L 17.09375 15.09375 
Q 17.09375 12.796875 17.5 11.296875 
Q 17.90625 9.796875 18.796875 8.890625 
Q 19.703125 8 21.203125 7.546875 
Q 22.703125 7.09375 24.90625 6.796875 
z
" id="Ubuntu-108"/>
      <path d="M 41.59375 41 
Q 39.90625 42.40625 36.703125 43.703125 
Q 33.5 45 29.703125 45 
Q 25.703125 45 22.84375 43.546875 
Q 20 42.09375 18.203125 39.546875 
Q 16.40625 37 15.59375 33.5 
Q 14.796875 30 14.796875 26 
Q 14.796875 16.90625 19.296875 11.953125 
Q 23.796875 7 31.296875 7 
Q 35.09375 7 37.640625 7.34375 
Q 40.203125 7.703125 41.59375 8.09375 
z
M 41.59375 76 
L 50.90625 77.59375 
L 50.90625 1.5 
Q 47.703125 0.59375 42.703125 -0.296875 
Q 37.703125 -1.203125 31.203125 -1.203125 
Q 25.203125 -1.203125 20.390625 0.6875 
Q 15.59375 2.59375 12.1875 6.09375 
Q 8.796875 9.59375 6.9375 14.640625 
Q 5.09375 19.703125 5.09375 26 
Q 5.09375 32 6.640625 37 
Q 8.203125 42 11.203125 45.59375 
Q 14.203125 49.203125 18.546875 51.203125 
Q 22.90625 53.203125 28.5 53.203125 
Q 33 53.203125 36.453125 52 
Q 39.90625 50.796875 41.59375 49.703125 
z
" id="Ubuntu-100"/>
      <path id="Ubuntu-32"/>
      <path d="M 30.59375 -1.203125 
Q 24.296875 -1.203125 19.546875 0.796875 
Q 14.796875 2.796875 11.546875 6.390625 
Q 8.296875 10 6.6875 14.953125 
Q 5.09375 19.90625 5.09375 25.90625 
Q 5.09375 31.90625 6.84375 36.90625 
Q 8.59375 41.90625 11.796875 45.546875 
Q 15 49.203125 19.640625 51.25 
Q 24.296875 53.296875 30 53.296875 
Q 33.5 53.296875 37 52.6875 
Q 40.5 52.09375 43.703125 50.796875 
L 41.59375 42.90625 
Q 39.5 43.90625 36.75 44.5 
Q 34 45.09375 30.90625 45.09375 
Q 23.09375 45.09375 18.9375 40.1875 
Q 14.796875 35.296875 14.796875 25.90625 
Q 14.796875 21.703125 15.75 18.203125 
Q 16.703125 14.703125 18.75 12.203125 
Q 20.796875 9.703125 24 8.34375 
Q 27.203125 7 31.796875 7 
Q 35.5 7 38.5 7.703125 
Q 41.5 8.40625 43.203125 9.203125 
L 44.5 1.40625 
Q 43.703125 0.90625 42.203125 0.453125 
Q 40.703125 0 38.796875 -0.34375 
Q 36.90625 -0.703125 34.75 -0.953125 
Q 32.59375 -1.203125 30.59375 -1.203125 
z
" id="Ubuntu-99"/>
      <path d="M 8 50.5 
Q 11.203125 51.296875 16.5 52.1875 
Q 21.796875 53.09375 28.703125 53.09375 
Q 34.90625 53.09375 39 51.34375 
Q 43.09375 49.59375 45.546875 46.4375 
Q 48 43.296875 49 38.890625 
Q 50 34.5 50 29.203125 
L 50 0 
L 40.703125 0 
L 40.703125 27.203125 
Q 40.703125 32 40.046875 35.390625 
Q 39.40625 38.796875 37.90625 40.890625 
Q 36.40625 43 33.90625 43.953125 
Q 31.40625 44.90625 27.703125 44.90625 
Q 26.203125 44.90625 24.59375 44.796875 
Q 23 44.703125 21.546875 44.546875 
Q 20.09375 44.40625 18.9375 44.203125 
Q 17.796875 44 17.296875 43.90625 
L 17.296875 0 
L 8 0 
z
" id="Ubuntu-110"/>
      <path d="M 16.703125 52 
L 36.40625 52 
L 36.40625 44.203125 
L 16.703125 44.203125 
L 16.703125 20.203125 
Q 16.703125 16.296875 17.296875 13.75 
Q 17.90625 11.203125 19.09375 9.75 
Q 20.296875 8.296875 22.09375 7.6875 
Q 23.90625 7.09375 26.296875 7.09375 
Q 30.5 7.09375 33.046875 8.046875 
Q 35.59375 9 36.59375 9.40625 
L 38.40625 1.703125 
Q 37 1 33.5 -0.046875 
Q 30 -1.09375 25.5 -1.09375 
Q 20.203125 -1.09375 16.75 0.25 
Q 13.296875 1.59375 11.1875 4.296875 
Q 9.09375 7 8.25 10.953125 
Q 7.40625 14.90625 7.40625 20.09375 
L 7.40625 66.5 
L 16.703125 68.09375 
z
" id="Ubuntu-116"/>
      <path d="M 5.09375 25.90625 
Q 5.09375 32.796875 7.09375 37.9375 
Q 9.09375 43.09375 12.390625 46.5 
Q 15.703125 49.90625 20 51.59375 
Q 24.296875 53.296875 28.796875 53.296875 
Q 39.296875 53.296875 44.890625 46.75 
Q 50.5 40.203125 50.5 26.796875 
Q 50.5 26.203125 50.5 25.25 
Q 50.5 24.296875 50.40625 23.5 
L 14.796875 23.5 
Q 15.40625 15.40625 19.5 11.203125 
Q 23.59375 7 32.296875 7 
Q 37.203125 7 40.546875 7.84375 
Q 43.90625 8.703125 45.59375 9.5 
L 46.90625 1.703125 
Q 45.203125 0.796875 40.953125 -0.203125 
Q 36.703125 -1.203125 31.296875 -1.203125 
Q 24.5 -1.203125 19.546875 0.84375 
Q 14.59375 2.90625 11.390625 6.5 
Q 8.203125 10.09375 6.640625 15.046875 
Q 5.09375 20 5.09375 25.90625 
z
M 40.796875 31 
Q 40.90625 37.296875 37.65625 41.34375 
Q 34.40625 45.40625 28.703125 45.40625 
Q 25.5 45.40625 23.046875 44.15625 
Q 20.59375 42.90625 18.890625 40.90625 
Q 17.203125 38.90625 16.25 36.296875 
Q 15.296875 33.703125 15 31 
z
" id="Ubuntu-101"/>
     </defs>
     <g transform="translate(14.959375 162.698187)rotate(-90)scale(0.1 -0.1)">
      <use xlink:href="#Ubuntu-71"/>
      <use x="67.199997" xlink:href="#Ubuntu-111"/>
      <use x="126.199982" xlink:href="#Ubuntu-108"/>
      <use x="153.499969" xlink:href="#Ubuntu-100"/>
      <use x="212.399963" xlink:href="#Ubuntu-32"/>
      <use x="235.499954" xlink:href="#Ubuntu-99"/>
      <use x="281.984314" xlink:href="#Ubuntu-111"/>
      <use x="340.984299" xlink:href="#Ubuntu-110"/>
      <use x="398.384293" xlink:href="#Ubuntu-116"/>
      <use x="438.568665" xlink:href="#Ubuntu-101"/>
      <use x="494.468658" xlink:href="#Ubuntu-110"/>
      <use x="551.868652" xlink:href="#Ubuntu-116"/>
     </g>
    </g>
   </g>
   <g id="PolyCollection_1">
    <defs>
     <path d="M 45.905511 -41.880511 
L 45.905511 -84.96302 
L 46.475917 -84.96302 
L 47.046322 -84.96302 
L 47.616727 -84.96302 
L 48.187132 -84.96302 
L 48.757537 -84.96302 
L 49.327943 -84.96302 
L 49.898348 -84.96302 
L 50.468753 -84.96302 
L 51.039158 -84.96302 
L 51.609564 -84.96302 
L 52.179969 -84.96302 
L 52.750374 -84.96302 
L 53.320779 -84.96302 
L 53.891184 -84.96302 
L 54.46159 -84.96302 
L 55.031995 -84.96302 
L 55.6024 -84.96302 
L 56.172805 -84.96302 
L 56.743211 -84.96302 
L 57.313616 -84.96302 
L 57.884021 -84.96302 
L 58.454426 -84.96302 
L 59.024831 -84.96302 
L 59.595237 -84.96302 
L 60.165642 -84.96302 
L 60.736047 -84.96302 
L 61.306452 -84.96302 
L 61.876858 -84.96302 
L 62.447263 -84.96302 
L 63.017668 -84.96302 
L 63.588073 -84.96302 
L 64.158478 -84.96302 
L 64.728884 -84.96302 
L 65.299289 -84.96302 
L 65.869694 -84.96302 
L 66.440099 -84.96302 
L 67.010505 -84.96302 
L 67.58091 -84.96302 
L 68.151315 -84.96302 
L 68.72172 -84.96302 
L 69.292125 -84.96302 
L 69.862531 -84.96302 
L 70.432936 -84.96302 
L 71.003341 -84.96302 
L 71.573746 -84.96302 
L 72.144152 -84.96302 
L 72.714557 -84.96302 
L 73.284962 -84.96302 
L 73.855367 -84.96302 
L 74.425772 -84.96302 
L 74.996178 -84.96302 
L 75.566583 -84.96302 
L 76.136988 -84.96302 
L 76.707393 -84.96302 
L 77.277799 -84.96302 
L 77.848204 -84.96302 
L 78.418609 -84.96302 
L 78.989014 -84.96302 
L 79.559419 -84.96302 
L 80.129825 -84.96302 
L 80.70023 -84.96302 
L 81.270635 -84.96302 
L 81.84104 -84.96302 
L 82.411445 -84.96302 
L 82.981851 -84.96302 
L 83.552256 -84.96302 
L 84.122661 -84.96302 
L 84.693066 -84.96302 
L 85.263472 -84.96302 
L 85.833877 -84.96302 
L 86.404282 -84.96302 
L 86.974687 -84.96302 
L 87.545092 -84.96302 
L 88.115498 -84.96302 
L 88.685903 -84.96302 
L 89.256308 -84.96302 
L 89.826713 -84.96302 
L 90.397119 -84.96302 
L 90.967524 -84.96302 
L 91.537929 -84.96302 
L 92.108334 -84.96302 
L 92.678739 -84.96302 
L 93.249145 -84.96302 
L 93.81955 -84.96302 
L 94.389955 -84.96302 
L 94.96036 -84.96302 
L 95.530766 -84.96302 
L 96.101171 -84.96302 
L 96.671576 -84.96302 
L 97.241981 -84.96302 
L 97.812386 -84.96302 
L 98.382792 -84.96302 
L 98.953197 -84.96302 
L 99.523602 -84.96302 
L 100.094007 -84.96302 
L 100.664413 -84.96302 
L 101.234818 -84.96302 
L 101.805223 -84.96302 
L 102.375628 -84.96302 
L 102.946033 -84.96302 
L 103.516439 -84.96302 
L 104.086844 -84.96302 
L 104.657249 -84.96302 
L 105.227654 -84.96302 
L 105.79806 -84.96302 
L 106.368465 -84.96302 
L 106.93887 -84.96302 
L 107.509275 -84.96302 
L 108.07968 -84.96302 
L 108.650086 -84.96302 
L 109.220491 -84.96302 
L 109.790896 -84.96302 
L 110.361301 -84.96302 
L 110.931707 -84.96302 
L 111.502112 -84.96302 
L 112.072517 -84.96302 
L 112.642922 -84.96302 
L 113.213327 -84.96302 
L 113.783733 -84.96302 
L 114.354138 -84.96302 
L 114.924543 -84.96302 
L 115.494948 -84.96302 
L 116.065354 -84.96302 
L 116.635759 -84.96302 
L 117.206164 -84.96302 
L 117.776569 -84.96302 
L 118.346974 -84.96302 
L 118.91738 -84.96302 
L 119.487785 -84.96302 
L 120.05819 -84.96302 
L 120.628595 -84.96302 
L 121.199001 -84.96302 
L 121.769406 -84.96302 
L 122.339811 -84.96302 
L 122.910216 -84.96302 
L 123.480621 -84.96302 
L 124.051027 -84.96302 
L 124.621432 -84.96302 
L 125.191837 -84.96302 
L 125.762242 -84.96302 
L 126.332647 -84.96302 
L 126.903053 -84.96302 
L 127.473458 -84.96302 
L 128.043863 -84.96302 
L 128.614268 -84.96302 
L 129.184674 -84.96302 
L 129.755079 -84.96302 
L 130.325484 -84.96302 
L 130.895889 -84.96302 
L 131.466294 -84.96302 
L 132.0367 -84.96302 
L 132.607105 -84.96302 
L 133.17751 -84.96302 
L 133.747915 -84.96302 
L 134.318321 -84.96302 
L 134.888726 -84.96302 
L 135.459131 -84.96302 
L 136.029536 -84.96302 
L 136.599941 -84.96302 
L 137.170347 -84.96302 
L 137.740752 -84.96302 
L 138.311157 -84.96302 
L 138.881562 -84.96302 
L 139.451968 -84.96302 
L 140.022373 -84.96302 
L 140.592778 -84.96302 
L 141.163183 -84.96302 
L 141.733588 -84.96302 
L 142.303994 -84.96302 
L 142.874399 -84.96302 
L 143.444804 -84.96302 
L 144.015209 -84.96302 
L 144.585615 -84.96302 
L 145.15602 -84.96302 
L 145.726425 -84.96302 
L 146.29683 -84.96302 
L 146.867235 -84.96302 
L 147.437641 -84.96302 
L 148.008046 -84.96302 
L 148.578451 -84.96302 
L 149.148856 -84.96302 
L 149.719262 -84.96302 
L 150.289667 -84.96302 
L 150.860072 -84.96302 
L 151.430477 -84.96302 
L 152.000882 -84.96302 
L 152.571288 -84.96302 
L 153.141693 -84.96302 
L 153.712098 -84.96302 
L 154.282503 -84.96302 
L 154.852909 -84.96302 
L 155.423314 -84.96302 
L 155.993719 -84.96302 
L 156.564124 -84.96302 
L 157.134529 -84.96302 
L 157.704935 -84.96302 
L 158.27534 -84.96302 
L 158.845745 -84.96302 
L 159.41615 -84.96302 
L 159.986556 -84.96302 
L 160.556961 -84.96302 
L 161.127366 -84.96302 
L 161.697771 -84.96302 
L 162.268176 -84.96302 
L 162.838582 -84.96302 
L 163.408987 -84.96302 
L 163.979392 -84.96302 
L 164.549797 -84.96302 
L 165.120203 -84.96302 
L 165.690608 -84.96302 
L 166.261013 -84.96302 
L 166.831418 -84.96302 
L 167.401823 -84.96302 
L 167.972229 -84.96302 
L 168.542634 -84.96302 
L 169.113039 -84.96302 
L 169.683444 -84.96302 
L 170.25385 -84.96302 
L 170.824255 -84.96302 
L 171.39466 -84.96302 
L 171.965065 -84.96302 
L 172.53547 -84.96302 
L 173.105876 -84.96302 
L 173.676281 -84.96302 
L 174.246686 -84.96302 
L 174.817091 -84.96302 
L 175.387496 -84.96302 
L 175.957902 -84.96302 
L 176.528307 -84.96302 
L 177.098712 -84.96302 
L 177.669117 -84.96302 
L 178.239523 -84.96302 
L 178.809928 -84.96302 
L 179.380333 -84.96302 
L 179.950738 -84.96302 
L 180.521143 -84.96302 
L 181.091549 -84.96302 
L 181.661954 -84.96302 
L 182.232359 -84.96302 
L 182.802764 -84.96302 
L 183.37317 -84.96302 
L 183.943575 -84.96302 
L 184.51398 -84.96302 
L 185.084385 -84.96302 
L 185.65479 -84.96302 
L 186.225196 -84.96302 
L 186.795601 -84.96302 
L 187.366006 -84.96302 
L 187.936411 -84.96302 
L 188.506817 -84.96302 
L 189.077222 -84.96302 
L 189.647627 -84.96302 
L 190.218032 -84.96302 
L 190.788437 -84.96302 
L 191.358843 -84.96302 
L 191.929248 -84.96302 
L 192.499653 -84.96302 
L 193.070058 -84.96302 
L 193.640464 -84.96302 
L 194.210869 -84.96302 
L 194.781274 -84.96302 
L 195.351679 -84.96302 
L 195.922084 -84.96302 
L 196.49249 -84.96302 
L 197.062895 -84.96302 
L 197.6333 -84.96302 
L 198.203705 -84.96302 
L 198.774111 -84.96302 
L 199.344516 -84.96302 
L 199.914921 -84.96302 
L 200.485326 -84.96302 
L 201.055731 -84.96302 
L 201.626137 -84.96302 
L 202.196542 -84.96302 
L 202.766947 -84.96302 
L 203.337352 -84.96302 
L 203.907758 -84.96302 
L 204.478163 -84.96302 
L 205.048568 -84.96302 
L 205.618973 -84.96302 
L 206.189378 -84.96302 
L 206.759784 -84.96302 
L 207.330189 -84.96302 
L 207.900594 -84.96302 
L 208.470999 -84.96302 
L 209.041405 -84.96302 
L 209.61181 -84.96302 
L 210.182215 -84.96302 
L 210.75262 -84.96302 
L 211.323025 -84.96302 
L 211.893431 -84.96302 
L 212.463836 -84.96302 
L 213.034241 -84.96302 
L 213.604646 -84.96302 
L 214.175052 -84.96302 
L 214.745457 -84.96302 
L 215.315862 -84.96302 
L 215.886267 -84.96302 
L 216.456672 -84.96302 
L 217.027078 -84.96302 
L 217.597483 -84.96302 
L 218.167888 -84.96302 
L 218.738293 -84.96302 
L 219.308698 -84.96302 
L 219.879104 -84.96302 
L 220.449509 -84.96302 
L 221.019914 -84.96302 
L 221.590319 -84.96302 
L 222.160725 -84.96302 
L 222.73113 -84.96302 
L 223.301535 -84.96302 
L 223.87194 -84.96302 
L 224.442345 -84.96302 
L 225.012751 -84.96302 
L 225.583156 -84.96302 
L 226.153561 -84.96302 
L 226.723966 -84.96302 
L 227.294372 -84.96302 
L 227.864777 -84.96302 
L 228.435182 -84.96302 
L 229.005587 -84.96302 
L 229.575992 -84.96302 
L 230.146398 -84.96302 
L 230.716803 -84.96302 
L 231.287208 -84.96302 
L 231.857613 -84.96302 
L 232.428019 -84.96302 
L 232.998424 -84.96302 
L 233.568829 -84.96302 
L 234.139234 -84.96302 
L 234.709639 -84.96302 
L 235.280045 -84.96302 
L 235.85045 -84.96302 
L 236.420855 -84.96302 
L 236.99126 -84.96302 
L 237.561666 -84.96302 
L 238.132071 -84.96302 
L 238.702476 -84.96302 
L 239.272881 -84.96302 
L 239.843286 -84.96302 
L 240.413692 -84.96302 
L 240.984097 -84.96302 
L 241.554502 -84.96302 
L 242.124907 -84.96302 
L 242.695313 -84.96302 
L 243.265718 -84.96302 
L 243.836123 -84.96302 
L 244.406528 -84.96302 
L 244.976933 -84.96302 
L 245.547339 -84.96302 
L 246.117744 -84.96302 
L 246.688149 -84.96302 
L 247.258554 -84.96302 
L 247.82896 -84.96302 
L 248.399365 -84.96302 
L 248.96977 -84.96302 
L 249.540175 -84.96302 
L 250.11058 -84.96302 
L 250.680986 -84.96302 
L 251.251391 -84.96302 
L 251.821796 -84.96302 
L 252.392201 -84.96302 
L 252.962607 -84.96302 
L 253.533012 -84.96302 
L 254.103417 -84.96302 
L 254.673822 -84.96302 
L 255.244227 -84.96302 
L 255.814633 -84.96302 
L 256.385038 -84.96302 
L 256.955443 -84.96302 
L 257.525848 -84.96302 
L 258.096254 -84.96302 
L 258.666659 -84.96302 
L 259.237064 -84.96302 
L 259.807469 -84.96302 
L 260.377874 -84.96302 
L 260.94828 -84.96302 
L 261.518685 -84.96302 
L 262.08909 -84.96302 
L 262.659495 -84.96302 
L 263.2299 -84.96302 
L 263.800306 -84.96302 
L 264.370711 -84.96302 
L 264.941116 -84.96302 
L 265.511521 -84.96302 
L 266.081927 -84.96302 
L 266.652332 -84.96302 
L 267.222737 -84.96302 
L 267.793142 -84.96302 
L 268.363547 -84.96302 
L 268.933953 -84.96302 
L 269.504358 -84.96302 
L 270.074763 -84.96302 
L 270.645168 -84.96302 
L 271.215574 -84.96302 
L 271.785979 -84.96302 
L 272.356384 -84.96302 
L 272.926789 -84.96302 
L 273.497194 -84.96302 
L 274.0676 -84.96302 
L 274.638005 -84.96302 
L 275.20841 -84.96302 
L 275.778815 -84.96302 
L 276.349221 -84.96302 
L 276.919626 -84.96302 
L 277.490031 -84.96302 
L 278.060436 -84.96302 
L 278.630841 -84.96302 
L 279.201247 -84.96302 
L 279.771652 -84.96302 
L 280.342057 -84.96302 
L 280.912462 -84.96302 
L 281.482868 -84.96302 
L 282.053273 -84.96302 
L 282.623678 -84.96302 
L 283.194083 -84.96302 
L 283.764488 -84.96302 
L 284.334894 -84.96302 
L 284.905299 -84.96302 
L 285.475704 -84.96302 
L 286.046109 -84.96302 
L 286.616515 -84.96302 
L 287.18692 -84.96302 
L 287.757325 -84.96302 
L 288.32773 -84.96302 
L 288.898135 -84.96302 
L 289.468541 -84.96302 
L 290.038946 -84.96302 
L 290.609351 -84.96302 
L 291.179756 -84.96302 
L 291.750162 -84.96302 
L 292.320567 -84.96302 
L 292.890972 -84.96302 
L 293.461377 -84.96302 
L 294.031782 -84.96302 
L 294.602188 -84.96302 
L 295.172593 -84.96302 
L 295.742998 -84.96302 
L 296.313403 -84.96302 
L 296.883809 -84.96302 
L 297.454214 -84.96302 
L 298.024619 -84.96302 
L 298.595024 -84.96302 
L 299.165429 -84.96302 
L 299.735835 -84.96302 
L 300.30624 -84.96302 
L 300.876645 -84.96302 
L 301.44705 -84.96302 
L 302.017456 -84.96302 
L 302.587861 -84.96302 
L 303.158266 -84.96302 
L 303.728671 -84.96302 
L 304.299076 -84.96302 
L 304.869482 -84.96302 
L 305.439887 -84.96302 
L 306.010292 -84.96302 
L 306.580697 -84.96302 
L 307.151103 -84.96302 
L 307.721508 -84.96302 
L 308.291913 -84.96302 
L 308.862318 -84.96302 
L 309.432723 -84.96302 
L 310.003129 -84.96302 
L 310.573534 -84.96302 
L 311.143939 -84.96302 
L 311.714344 -84.96302 
L 312.284749 -84.96302 
L 312.855155 -84.96302 
L 313.42556 -84.96302 
L 313.995965 -84.96302 
L 314.56637 -84.96302 
L 315.136776 -84.96302 
L 315.707181 -84.96302 
L 316.277586 -84.96302 
L 316.847991 -84.96302 
L 317.418396 -84.96302 
L 317.988802 -84.96302 
L 318.559207 -84.96302 
L 319.129612 -84.96302 
L 319.700017 -84.96302 
L 320.270423 -84.96302 
L 320.840828 -84.96302 
L 321.411233 -84.96302 
L 321.981638 -84.96302 
L 322.552043 -84.96302 
L 323.122449 -84.96302 
L 323.692854 -84.96302 
L 324.263259 -84.96302 
L 324.833664 -84.96302 
L 325.40407 -84.96302 
L 325.974475 -84.96302 
L 326.54488 -84.96302 
L 327.115285 -84.96302 
L 327.68569 -84.96302 
L 328.256096 -84.96302 
L 328.826501 -84.96302 
L 329.396906 -84.96302 
L 329.967311 -84.96302 
L 330.537717 -84.96302 
L 331.108122 -84.96302 
L 331.678527 -84.96302 
L 332.248932 -84.96302 
L 332.819337 -84.96302 
L 333.389743 -84.96302 
L 333.960148 -84.96302 
L 334.530553 -84.96302 
L 335.100958 -84.96302 
L 335.671364 -84.96302 
L 336.241769 -84.96302 
L 336.812174 -84.96302 
L 337.382579 -84.96302 
L 337.952984 -84.96302 
L 338.52339 -84.96302 
L 339.093795 -84.96302 
L 339.6642 -84.96302 
L 340.234605 -84.96302 
L 340.805011 -84.96302 
L 341.375416 -84.96302 
L 341.945821 -84.96302 
L 342.516226 -84.96302 
L 343.086631 -84.96302 
L 343.657037 -84.96302 
L 344.227442 -84.96302 
L 344.797847 -84.96302 
L 345.368252 -84.96302 
L 345.938658 -84.96302 
L 346.509063 -84.96302 
L 347.079468 -84.96302 
L 347.649873 -84.96302 
L 348.220278 -84.96302 
L 348.790684 -84.96302 
L 349.361089 -84.96302 
L 349.931494 -84.96302 
L 350.501899 -84.96302 
L 351.072305 -84.96302 
L 351.64271 -84.96302 
L 352.213115 -84.96302 
L 352.78352 -84.96302 
L 353.353925 -84.96302 
L 353.924331 -84.96302 
L 354.494736 -84.96302 
L 355.065141 -84.96302 
L 355.635546 -84.96302 
L 356.205951 -84.96302 
L 356.776357 -84.96302 
L 357.346762 -84.96302 
L 357.917167 -84.96302 
L 358.487572 -84.96302 
L 359.057978 -84.96302 
L 359.628383 -84.96302 
L 360.198788 -84.96302 
L 360.769193 -84.96302 
L 361.339598 -84.96302 
L 361.910004 -84.96302 
L 362.480409 -84.96302 
L 363.050814 -84.96302 
L 363.621219 -84.96302 
L 364.191625 -84.96302 
L 364.76203 -84.96302 
L 365.332435 -84.96302 
L 365.90284 -84.96302 
L 366.473245 -84.96302 
L 367.043651 -84.96302 
L 367.614056 -84.96302 
L 368.184461 -84.96302 
L 368.754866 -84.96302 
L 369.325272 -84.96302 
L 369.895677 -84.96302 
L 370.466082 -84.96302 
L 371.036487 -84.96302 
L 371.606892 -84.96302 
L 372.177298 -84.96302 
L 372.747703 -84.96302 
L 373.318108 -84.96302 
L 373.888513 -84.96302 
L 374.458919 -84.96302 
L 375.029324 -84.96302 
L 375.599729 -84.96302 
L 376.170134 -84.96302 
L 376.740539 -84.96302 
L 377.310945 -84.96302 
L 377.88135 -84.96302 
L 378.451755 -84.96302 
L 379.02216 -84.96302 
L 379.592566 -84.96302 
L 380.162971 -84.96302 
L 380.733376 -84.96302 
L 381.303781 -84.96302 
L 381.874186 -84.96302 
L 382.444592 -84.96302 
L 383.014997 -84.96302 
L 383.585402 -84.96302 
L 384.155807 -84.96302 
L 384.726213 -84.96302 
L 385.296618 -84.96302 
L 385.867023 -84.96302 
L 386.437428 -84.96302 
L 387.007833 -84.96302 
L 387.578239 -84.96302 
L 387.578239 -41.880511 
L 387.578239 -41.880511 
L 387.007833 -41.880511 
L 386.437428 -41.880511 
L 385.867023 -41.880511 
L 385.296618 -41.880511 
L 384.726213 -41.880511 
L 384.155807 -41.880511 
L 383.585402 -41.880511 
L 383.014997 -41.880511 
L 382.444592 -41.880511 
L 381.874186 -41.880511 
L 381.303781 -41.880511 
L 380.733376 -41.880511 
L 380.162971 -41.880511 
L 379.592566 -41.880511 
L 379.02216 -41.880511 
L 378.451755 -41.880511 
L 377.88135 -41.880511 
L 377.310945 -41.880511 
L 376.740539 -41.880511 
L 376.170134 -41.880511 
L 375.599729 -41.880511 
L 375.029324 -41.880511 
L 374.458919 -41.880511 
L 373.888513 -41.880511 
L 373.318108 -41.880511 
L 372.747703 -41.880511 
L 372.177298 -41.880511 
L 371.606892 -41.880511 
L 371.036487 -41.880511 
L 370.466082 -41.880511 
L 369.895677 -41.880511 
L 369.325272 -41.880511 
L 368.754866 -41.880511 
L 368.184461 -41.880511 
L 367.614056 -41.880511 
L 367.043651 -41.880511 
L 366.473245 -41.880511 
L 365.90284 -41.880511 
L 365.332435 -41.880511 
L 364.76203 -41.880511 
L 364.191625 -41.880511 
L 363.621219 -41.880511 
L 363.050814 -41.880511 
L 362.480409 -41.880511 
L 361.910004 -41.880511 
L 361.339598 -41.880511 
L 360.769193 -41.880511 
L 360.198788 -41.880511 
L 359.628383 -41.880511 
L 359.057978 -41.880511 
L 358.487572 -41.880511 
L 357.917167 -41.880511 
L 357.346762 -41.880511 
L 356.776357 -41.880511 
L 356.205951 -41.880511 
L 355.635546 -41.880511 
L 355.065141 -41.880511 
L 354.494736 -41.880511 
L 353.924331 -41.880511 
L 353.353925 -41.880511 
L 352.78352 -41.880511 
L 352.213115 -41.880511 
L 351.64271 -41.880511 
L 351.072305 -41.880511 
L 350.501899 -41.880511 
L 349.931494 -41.880511 
L 349.361089 -41.880511 
L 348.790684 -41.880511 
L 348.220278 -41.880511 
L 347.649873 -41.880511 
L 347.079468 -41.880511 
L 346.509063 -41.880511 
L 345.938658 -41.880511 
L 345.368252 -41.880511 
L 344.797847 -41.880511 
L 344.227442 -41.880511 
L 343.657037 -41.880511 
L 343.086631 -41.880511 
L 342.516226 -41.880511 
L 341.945821 -41.880511 
L 341.375416 -41.880511 
L 340.805011 -41.880511 
L 340.234605 -41.880511 
L 339.6642 -41.880511 
L 339.093795 -41.880511 
L 338.52339 -41.880511 
L 337.952984 -41.880511 
L 337.382579 -41.880511 
L 336.812174 -41.880511 
L 336.241769 -41.880511 
L 335.671364 -41.880511 
L 335.100958 -41.880511 
L 334.530553 -41.880511 
L 333.960148 -41.880511 
L 333.389743 -41.880511 
L 332.819337 -41.880511 
L 332.248932 -41.880511 
L 331.678527 -41.880511 
L 331.108122 -41.880511 
L 330.537717 -41.880511 
L 329.967311 -41.880511 
L 329.396906 -41.880511 
L 328.826501 -41.880511 
L 328.256096 -41.880511 
L 327.68569 -41.880511 
L 327.115285 -41.880511 
L 326.54488 -41.880511 
L 325.974475 -41.880511 
L 325.40407 -41.880511 
L 324.833664 -41.880511 
L 324.263259 -41.880511 
L 323.692854 -41.880511 
L 323.122449 -41.880511 
L 322.552043 -41.880511 
L 321.981638 -41.880511 
L 321.411233 -41.880511 
L 320.840828 -41.880511 
L 320.270423 -41.880511 
L 319.700017 -41.880511 
L 319.129612 -41.880511 
L 318.559207 -41.880511 
L 317.988802 -41.880511 
L 317.418396 -41.880511 
L 316.847991 -41.880511 
L 316.277586 -41.880511 
L 315.707181 -41.880511 
L 315.136776 -41.880511 
L 314.56637 -41.880511 
L 313.995965 -41.880511 
L 313.42556 -41.880511 
L 312.855155 -41.880511 
L 312.284749 -41.880511 
L 311.714344 -41.880511 
L 311.143939 -41.880511 
L 310.573534 -41.880511 
L 310.003129 -41.880511 
L 309.432723 -41.880511 
L 308.862318 -41.880511 
L 308.291913 -41.880511 
L 307.721508 -41.880511 
L 307.151103 -41.880511 
L 306.580697 -41.880511 
L 306.010292 -41.880511 
L 305.439887 -41.880511 
L 304.869482 -41.880511 
L 304.299076 -41.880511 
L 303.728671 -41.880511 
L 303.158266 -41.880511 
L 302.587861 -41.880511 
L 302.017456 -41.880511 
L 301.44705 -41.880511 
L 300.876645 -41.880511 
L 300.30624 -41.880511 
L 299.735835 -41.880511 
L 299.165429 -41.880511 
L 298.595024 -41.880511 
L 298.024619 -41.880511 
L 297.454214 -41.880511 
L 296.883809 -41.880511 
L 296.313403 -41.880511 
L 295.742998 -41.880511 
L 295.172593 -41.880511 
L 294.602188 -41.880511 
L 294.031782 -41.880511 
L 293.461377 -41.880511 
L 292.890972 -41.880511 
L 292.320567 -41.880511 
L 291.750162 -41.880511 
L 291.179756 -41.880511 
L 290.609351 -41.880511 
L 290.038946 -41.880511 
L 289.468541 -41.880511 
L 288.898135 -41.880511 
L 288.32773 -41.880511 
L 287.757325 -41.880511 
L 287.18692 -41.880511 
L 286.616515 -41.880511 
L 286.046109 -41.880511 
L 285.475704 -41.880511 
L 284.905299 -41.880511 
L 284.334894 -41.880511 
L 283.764488 -41.880511 
L 283.194083 -41.880511 
L 282.623678 -41.880511 
L 282.053273 -41.880511 
L 281.482868 -41.880511 
L 280.912462 -41.880511 
L 280.342057 -41.880511 
L 279.771652 -41.880511 
L 279.201247 -41.880511 
L 278.630841 -41.880511 
L 278.060436 -41.880511 
L 277.490031 -41.880511 
L 276.919626 -41.880511 
L 276.349221 -41.880511 
L 275.778815 -41.880511 
L 275.20841 -41.880511 
L 274.638005 -41.880511 
L 274.0676 -41.880511 
L 273.497194 -41.880511 
L 272.926789 -41.880511 
L 272.356384 -41.880511 
L 271.785979 -41.880511 
L 271.215574 -41.880511 
L 270.645168 -41.880511 
L 270.074763 -41.880511 
L 269.504358 -41.880511 
L 268.933953 -41.880511 
L 268.363547 -41.880511 
L 267.793142 -41.880511 
L 267.222737 -41.880511 
L 266.652332 -41.880511 
L 266.081927 -41.880511 
L 265.511521 -41.880511 
L 264.941116 -41.880511 
L 264.370711 -41.880511 
L 263.800306 -41.880511 
L 263.2299 -41.880511 
L 262.659495 -41.880511 
L 262.08909 -41.880511 
L 261.518685 -41.880511 
L 260.94828 -41.880511 
L 260.377874 -41.880511 
L 259.807469 -41.880511 
L 259.237064 -41.880511 
L 258.666659 -41.880511 
L 258.096254 -41.880511 
L 257.525848 -41.880511 
L 256.955443 -41.880511 
L 256.385038 -41.880511 
L 255.814633 -41.880511 
L 255.244227 -41.880511 
L 254.673822 -41.880511 
L 254.103417 -41.880511 
L 253.533012 -41.880511 
L 252.962607 -41.880511 
L 252.392201 -41.880511 
L 251.821796 -41.880511 
L 251.251391 -41.880511 
L 250.680986 -41.880511 
L 250.11058 -41.880511 
L 249.540175 -41.880511 
L 248.96977 -41.880511 
L 248.399365 -41.880511 
L 247.82896 -41.880511 
L 247.258554 -41.880511 
L 246.688149 -41.880511 
L 246.117744 -41.880511 
L 245.547339 -41.880511 
L 244.976933 -41.880511 
L 244.406528 -41.880511 
L 243.836123 -41.880511 
L 243.265718 -41.880511 
L 242.695313 -41.880511 
L 242.124907 -41.880511 
L 241.554502 -41.880511 
L 240.984097 -41.880511 
L 240.413692 -41.880511 
L 239.843286 -41.880511 
L 239.272881 -41.880511 
L 238.702476 -41.880511 
L 238.132071 -41.880511 
L 237.561666 -41.880511 
L 236.99126 -41.880511 
L 236.420855 -41.880511 
L 235.85045 -41.880511 
L 235.280045 -41.880511 
L 234.709639 -41.880511 
L 234.139234 -41.880511 
L 233.568829 -41.880511 
L 232.998424 -41.880511 
L 232.428019 -41.880511 
L 231.857613 -41.880511 
L 231.287208 -41.880511 
L 230.716803 -41.880511 
L 230.146398 -41.880511 
L 229.575992 -41.880511 
L 229.005587 -41.880511 
L 228.435182 -41.880511 
L 227.864777 -41.880511 
L 227.294372 -41.880511 
L 226.723966 -41.880511 
L 226.153561 -41.880511 
L 225.583156 -41.880511 
L 225.012751 -41.880511 
L 224.442345 -41.880511 
L 223.87194 -41.880511 
L 223.301535 -41.880511 
L 222.73113 -41.880511 
L 222.160725 -41.880511 
L 221.590319 -41.880511 
L 221.019914 -41.880511 
L 220.449509 -41.880511 
L 219.879104 -41.880511 
L 219.308698 -41.880511 
L 218.738293 -41.880511 
L 218.167888 -41.880511 
L 217.597483 -41.880511 
L 217.027078 -41.880511 
L 216.456672 -41.880511 
L 215.886267 -41.880511 
L 215.315862 -41.880511 
L 214.745457 -41.880511 
L 214.175052 -41.880511 
L 213.604646 -41.880511 
L 213.034241 -41.880511 
L 212.463836 -41.880511 
L 211.893431 -41.880511 
L 211.323025 -41.880511 
L 210.75262 -41.880511 
L 210.182215 -41.880511 
L 209.61181 -41.880511 
L 209.041405 -41.880511 
L 208.470999 -41.880511 
L 207.900594 -41.880511 
L 207.330189 -41.880511 
L 206.759784 -41.880511 
L 206.189378 -41.880511 
L 205.618973 -41.880511 
L 205.048568 -41.880511 
L 204.478163 -41.880511 
L 203.907758 -41.880511 
L 203.337352 -41.880511 
L 202.766947 -41.880511 
L 202.196542 -41.880511 
L 201.626137 -41.880511 
L 201.055731 -41.880511 
L 200.485326 -41.880511 
L 199.914921 -41.880511 
L 199.344516 -41.880511 
L 198.774111 -41.880511 
L 198.203705 -41.880511 
L 197.6333 -41.880511 
L 197.062895 -41.880511 
L 196.49249 -41.880511 
L 195.922084 -41.880511 
L 195.351679 -41.880511 
L 194.781274 -41.880511 
L 194.210869 -41.880511 
L 193.640464 -41.880511 
L 193.070058 -41.880511 
L 192.499653 -41.880511 
L 191.929248 -41.880511 
L 191.358843 -41.880511 
L 190.788437 -41.880511 
L 190.218032 -41.880511 
L 189.647627 -41.880511 
L 189.077222 -41.880511 
L 188.506817 -41.880511 
L 187.936411 -41.880511 
L 187.366006 -41.880511 
L 186.795601 -41.880511 
L 186.225196 -41.880511 
L 185.65479 -41.880511 
L 185.084385 -41.880511 
L 184.51398 -41.880511 
L 183.943575 -41.880511 
L 183.37317 -41.880511 
L 182.802764 -41.880511 
L 182.232359 -41.880511 
L 181.661954 -41.880511 
L 181.091549 -41.880511 
L 180.521143 -41.880511 
L 179.950738 -41.880511 
L 179.380333 -41.880511 
L 178.809928 -41.880511 
L 178.239523 -41.880511 
L 177.669117 -41.880511 
L 177.098712 -41.880511 
L 176.528307 -41.880511 
L 175.957902 -41.880511 
L 175.387496 -41.880511 
L 174.817091 -41.880511 
L 174.246686 -41.880511 
L 173.676281 -41.880511 
L 173.105876 -41.880511 
L 172.53547 -41.880511 
L 171.965065 -41.880511 
L 171.39466 -41.880511 
L 170.824255 -41.880511 
L 170.25385 -41.880511 
L 169.683444 -41.880511 
L 169.113039 -41.880511 
L 168.542634 -41.880511 
L 167.972229 -41.880511 
L 167.401823 -41.880511 
L 166.831418 -41.880511 
L 166.261013 -41.880511 
L 165.690608 -41.880511 
L 165.120203 -41.880511 
L 164.549797 -41.880511 
L 163.979392 -41.880511 
L 163.408987 -41.880511 
L 162.838582 -41.880511 
L 162.268176 -41.880511 
L 161.697771 -41.880511 
L 161.127366 -41.880511 
L 160.556961 -41.880511 
L 159.986556 -41.880511 
L 159.41615 -41.880511 
L 158.845745 -41.880511 
L 158.27534 -41.880511 
L 157.704935 -41.880511 
L 157.134529 -41.880511 
L 156.564124 -41.880511 
L 155.993719 -41.880511 
L 155.423314 -41.880511 
L 154.852909 -41.880511 
L 154.282503 -41.880511 
L 153.712098 -41.880511 
L 153.141693 -41.880511 
L 152.571288 -41.880511 
L 152.000882 -41.880511 
L 151.430477 -41.880511 
L 150.860072 -41.880511 
L 150.289667 -41.880511 
L 149.719262 -41.880511 
L 149.148856 -41.880511 
L 148.578451 -41.880511 
L 148.008046 -41.880511 
L 147.437641 -41.880511 
L 146.867235 -41.880511 
L 146.29683 -41.880511 
L 145.726425 -41.880511 
L 145.15602 -41.880511 
L 144.585615 -41.880511 
L 144.015209 -41.880511 
L 143.444804 -41.880511 
L 142.874399 -41.880511 
L 142.303994 -41.880511 
L 141.733588 -41.880511 
L 141.163183 -41.880511 
L 140.592778 -41.880511 
L 140.022373 -41.880511 
L 139.451968 -41.880511 
L 138.881562 -41.880511 
L 138.311157 -41.880511 
L 137.740752 -41.880511 
L 137.170347 -41.880511 
L 136.599941 -41.880511 
L 136.029536 -41.880511 
L 135.459131 -41.880511 
L 134.888726 -41.880511 
L 134.318321 -41.880511 
L 133.747915 -41.880511 
L 133.17751 -41.880511 
L 132.607105 -41.880511 
L 132.0367 -41.880511 
L 131.466294 -41.880511 
L 130.895889 -41.880511 
L 130.325484 -41.880511 
L 129.755079 -41.880511 
L 129.184674 -41.880511 
L 128.614268 -41.880511 
L 128.043863 -41.880511 
L 127.473458 -41.880511 
L 126.903053 -41.880511 
L 126.332647 -41.880511 
L 125.762242 -41.880511 
L 125.191837 -41.880511 
L 124.621432 -41.880511 
L 124.051027 -41.880511 
L 123.480621 -41.880511 
L 122.910216 -41.880511 
L 122.339811 -41.880511 
L 121.769406 -41.880511 
L 121.199001 -41.880511 
L 120.628595 -41.880511 
L 120.05819 -41.880511 
L 119.487785 -41.880511 
L 118.91738 -41.880511 
L 118.346974 -41.880511 
L 117.776569 -41.880511 
L 117.206164 -41.880511 
L 116.635759 -41.880511 
L 116.065354 -41.880511 
L 115.494948 -41.880511 
L 114.924543 -41.880511 
L 114.354138 -41.880511 
L 113.783733 -41.880511 
L 113.213327 -41.880511 
L 112.642922 -41.880511 
L 112.072517 -41.880511 
L 111.502112 -41.880511 
L 110.931707 -41.880511 
L 110.361301 -41.880511 
L 109.790896 -41.880511 
L 109.220491 -41.880511 
L 108.650086 -41.880511 
L 108.07968 -41.880511 
L 107.509275 -41.880511 
L 106.93887 -41.880511 
L 106.368465 -41.880511 
L 105.79806 -41.880511 
L 105.227654 -41.880511 
L 104.657249 -41.880511 
L 104.086844 -41.880511 
L 103.516439 -41.880511 
L 102.946033 -41.880511 
L 102.375628 -41.880511 
L 101.805223 -41.880511 
L 101.234818 -41.880511 
L 100.664413 -41.880511 
L 100.094007 -41.880511 
L 99.523602 -41.880511 
L 98.953197 -41.880511 
L 98.382792 -41.880511 
L 97.812386 -41.880511 
L 97.241981 -41.880511 
L 96.671576 -41.880511 
L 96.101171 -41.880511 
L 95.530766 -41.880511 
L 94.96036 -41.880511 
L 94.389955 -41.880511 
L 93.81955 -41.880511 
L 93.249145 -41.880511 
L 92.678739 -41.880511 
L 92.108334 -41.880511 
L 91.537929 -41.880511 
L 90.967524 -41.880511 
L 90.397119 -41.880511 
L 89.826713 -41.880511 
L 89.256308 -41.880511 
L 88.685903 -41.880511 
L 88.115498 -41.880511 
L 87.545092 -41.880511 
L 86.974687 -41.880511 
L 86.404282 -41.880511 
L 85.833877 -41.880511 
L 85.263472 -41.880511 
L 84.693066 -41.880511 
L 84.122661 -41.880511 
L 83.552256 -41.880511 
L 82.981851 -41.880511 
L 82.411445 -41.880511 
L 81.84104 -41.880511 
L 81.270635 -41.880511 
L 80.70023 -41.880511 
L 80.129825 -41.880511 
L 79.559419 -41.880511 
L 78.989014 -41.880511 
L 78.418609 -41.880511 
L 77.848204 -41.880511 
L 77.277799 -41.880511 
L 76.707393 -41.880511 
L 76.136988 -41.880511 
L 75.566583 -41.880511 
L 74.996178 -41.880511 
L 74.425772 -41.880511 
L 73.855367 -41.880511 
L 73.284962 -41.880511 
L 72.714557 -41.880511 
L 72.144152 -41.880511 
L 71.573746 -41.880511 
L 71.003341 -41.880511 
L 70.432936 -41.880511 
L 69.862531 -41.880511 
L 69.292125 -41.880511 
L 68.72172 -41.880511 
L 68.151315 -41.880511 
L 67.58091 -41.880511 
L 67.010505 -41.880511 
L 66.440099 -41.880511 
L 65.869694 -41.880511 
L 65.299289 -41.880511 
L 64.728884 -41.880511 
L 64.158478 -41.880511 
L 63.588073 -41.880511 
L 63.017668 -41.880511 
L 62.447263 -41.880511 
L 61.876858 -41.880511 
L 61.306452 -41.880511 
L 60.736047 -41.880511 
L 60.165642 -41.880511 
L 59.595237 -41.880511 
L 59.024831 -41.880511 
L 58.454426 -41.880511 
L 57.884021 -41.880511 
L 57.313616 -41.880511 
L 56.743211 -41.880511 
L 56.172805 -41.880511 
L 55.6024 -41.880511 
L 55.031995 -41.880511 
L 54.46159 -41.880511 
L 53.891184 -41.880511 
L 53.320779 -41.880511 
L 52.750374 -41.880511 
L 52.179969 -41.880511 
L 51.609564 -41.880511 
L 51.039158 -41.880511 
L 50.468753 -41.880511 
L 49.898348 -41.880511 
L 49.327943 -41.880511 
L 48.757537 -41.880511 
L 48.187132 -41.880511 
L 47.616727 -41.880511 
L 47.046322 -41.880511 
L 46.475917 -41.880511 
L 45.905511 -41.880511 
z
" id="mf629707d91" style="stroke:#808080;stroke-opacity:0.4;stroke-width:0.5;"/>
    </defs>
    <g clip-path="url(#p6d5afc6a08)">
     <use style="fill:#808080;fill-opacity:0.4;stroke:#808080;stroke-opacity:0.4;stroke-width:0.5;" x="0" xlink:href="#mf629707d91" y="273.810375"/>
    </g>
   </g>
   <g id="line2d_25">
    <path clip-path="url(#p6d5afc6a08)" d="M 45.905511 210.388609 
L 387.578239 210.388609 
L 387.578239 210.388609 
" style="fill:none;stroke:#000000;stroke-width:2.7;"/>
   </g>
   <g id="line2d_26">
    <path clip-path="url(#p6d5afc6a08)" d="M 45.905511 149.066688 
L 49.898348 140.026682 
L 53.891184 131.530847 
L 57.884021 123.609976 
L 61.306452 117.298099 
L 64.728884 111.44129 
L 68.151315 106.050364 
L 71.573746 101.133452 
L 74.425772 97.402134 
L 77.277799 94.005568 
L 80.129825 90.944223 
L 82.981851 88.217308 
L 85.833877 85.822796 
L 88.685903 83.757447 
L 91.537929 82.016833 
L 93.81955 80.854439 
L 96.101171 79.892949 
L 98.382792 79.128544 
L 100.664413 78.556971 
L 102.946033 78.17356 
L 105.227654 77.97324 
L 108.07968 77.97196 
L 110.931707 78.236739 
L 113.783733 78.755262 
L 116.635759 79.51443 
L 119.487785 80.500407 
L 122.339811 81.698692 
L 125.762242 83.395568 
L 129.184674 85.349256 
L 133.17751 87.915629 
L 137.170347 90.747368 
L 141.733588 94.248233 
L 147.437641 98.916683 
L 156.564124 106.731957 
L 166.261013 114.949326 
L 171.965065 119.487319 
L 176.528307 122.857229 
L 180.521143 125.566725 
L 184.51398 128.015719 
L 187.936411 129.88278 
L 191.358843 131.515881 
L 194.781274 132.898226 
L 198.203705 134.014939 
L 201.055731 134.733268 
L 203.907758 135.251794 
L 206.759784 135.565183 
L 209.61181 135.669144 
L 212.463836 135.560444 
L 215.315862 135.23692 
L 218.167888 134.69749 
L 221.019914 133.942153 
L 223.87194 132.971992 
L 226.723966 131.78917 
L 229.575992 130.39692 
L 232.998424 128.455891 
L 236.420855 126.228913 
L 239.843286 123.727492 
L 243.265718 120.965179 
L 247.258554 117.433561 
L 251.251391 113.595943 
L 255.814633 108.875543 
L 260.94828 103.200369 
L 266.652332 96.536319 
L 274.0676 87.501232 
L 290.609351 67.217174 
L 296.313403 60.647151 
L 300.876645 55.705278 
L 304.869482 51.670189 
L 308.862318 47.952843 
L 312.284749 45.053018 
L 315.707181 42.44593 
L 318.559207 40.51548 
L 321.411233 38.820223 
L 324.263259 37.373563 
L 327.115285 36.188134 
L 329.967311 35.275748 
L 332.248932 34.749806 
L 334.530553 34.410796 
L 336.812174 34.263489 
L 339.093795 34.312244 
L 341.375416 34.56099 
L 343.657037 35.013214 
L 345.938658 35.671949 
L 348.220278 36.539761 
L 350.501899 37.618735 
L 352.78352 38.910471 
L 355.065141 40.41607 
L 357.917167 42.599672 
L 360.769193 45.118366 
L 363.621219 47.97092 
L 366.473245 51.154824 
L 369.325272 54.666277 
L 372.177298 58.500184 
L 375.599729 63.517428 
L 379.02216 68.976253 
L 382.444592 74.860523 
L 385.867023 81.15149 
L 387.578239 84.442925 
L 387.578239 84.442925 
" style="fill:none;stroke:#800080;stroke-width:2.7;"/>
   </g>
   <g id="patch_3">
    <path d="M 28.821875 241.8135 
L 28.821875 24.3735 
" style="fill:none;stroke:#f0f0f0;stroke-linecap:square;stroke-linejoin:miter;stroke-width:3;"/>
   </g>
   <g id="patch_4">
    <path d="M 404.661875 241.8135 
L 404.661875 24.3735 
" style="fill:none;stroke:#f0f0f0;stroke-linecap:square;stroke-linejoin:miter;stroke-width:3;"/>
   </g>
   <g id="patch_5">
    <path d="M 28.821875 241.8135 
L 404.661875 241.8135 
" style="fill:none;stroke:#f0f0f0;stroke-linecap:square;stroke-linejoin:miter;stroke-width:3;"/>
   </g>
   <g id="patch_6">
    <path d="M 28.821875 24.3735 
L 404.661875 24.3735 
" style="fill:none;stroke:#f0f0f0;stroke-linecap:square;stroke-linejoin:miter;stroke-width:3;"/>
   </g>
   <g id="text_15">
    <!-- Prior -->
    <defs>
     <path d="M 27 70 
Q 41.59375 70 49.4375 64.453125 
Q 57.296875 58.90625 57.296875 47.90625 
Q 57.296875 41.90625 55.140625 37.65625 
Q 53 33.40625 48.953125 30.75 
Q 44.90625 28.09375 39.09375 26.890625 
Q 33.296875 25.703125 26 25.703125 
L 18.296875 25.703125 
L 18.296875 0 
L 8.59375 0 
L 8.59375 68.296875 
Q 12.703125 69.296875 17.75 69.640625 
Q 22.796875 70 27 70 
z
M 27.796875 61.5 
Q 21.59375 61.5 18.296875 61.203125 
L 18.296875 34 
L 25.59375 34 
Q 30.59375 34 34.59375 34.640625 
Q 38.59375 35.296875 41.34375 36.84375 
Q 44.09375 38.40625 45.59375 41.09375 
Q 47.09375 43.796875 47.09375 48 
Q 47.09375 52 45.546875 54.59375 
Q 44 57.203125 41.34375 58.75 
Q 38.703125 60.296875 35.203125 60.890625 
Q 31.703125 61.5 27.796875 61.5 
z
" id="Ubuntu-80"/>
     <path d="M 27.203125 53.09375 
Q 28.40625 53.09375 29.953125 52.9375 
Q 31.5 52.796875 33 52.546875 
Q 34.5 52.296875 35.75 52.046875 
Q 37 51.796875 37.59375 51.59375 
L 36 43.5 
Q 34.90625 43.90625 32.34375 44.453125 
Q 29.796875 45 25.796875 45 
Q 23.203125 45 20.640625 44.453125 
Q 18.09375 43.90625 17.296875 43.703125 
L 17.296875 0 
L 8 0 
L 8 49.796875 
Q 11.296875 51 16.1875 52.046875 
Q 21.09375 53.09375 27.203125 53.09375 
z
" id="Ubuntu-114"/>
     <path d="M 17.296875 0 
L 8 0 
L 8 52 
L 17.296875 52 
z
M 12.59375 61.40625 
Q 10.09375 61.40625 8.34375 63.046875 
Q 6.59375 64.703125 6.59375 67.5 
Q 6.59375 70.296875 8.34375 71.9375 
Q 10.09375 73.59375 12.59375 73.59375 
Q 15.09375 73.59375 16.84375 71.9375 
Q 18.59375 70.296875 18.59375 67.5 
Q 18.59375 64.703125 16.84375 63.046875 
Q 15.09375 61.40625 12.59375 61.40625 
z
" id="Ubuntu-105"/>
    </defs>
    <g transform="translate(200.737625 18.3735)scale(0.144 -0.144)">
     <use xlink:href="#Ubuntu-80"/>
     <use x="60.799988" xlink:href="#Ubuntu-114"/>
     <use x="99.399979" xlink:href="#Ubuntu-105"/>
     <use x="124.699966" xlink:href="#Ubuntu-111"/>
     <use x="183.699951" xlink:href="#Ubuntu-114"/>
    </g>
   </g>
   <g id="legend_1">
    <g id="patch_7">
     <path d="M 426.695475 77.032875 
L 517.995475 77.032875 
Q 519.995475 77.032875 519.995475 75.032875 
L 519.995475 31.3735 
Q 519.995475 29.3735 517.995475 29.3735 
L 426.695475 29.3735 
Q 424.695475 29.3735 424.695475 31.3735 
L 424.695475 75.032875 
Q 424.695475 77.032875 426.695475 77.032875 
z
" style="fill:#f0f0f0;opacity:0.8;stroke:#cccccc;stroke-linejoin:miter;stroke-width:0.5;"/>
    </g>
    <g id="line2d_27">
     <path d="M 428.695475 37.7735 
L 448.695475 37.7735 
" style="fill:none;stroke:#000000;stroke-width:2.7;"/>
    </g>
    <g id="line2d_28"/>
    <g id="text_16">
     <!-- Predicted ($\mu$) -->
     <defs>
      <path d="M 17.09375 29.90625 
Q 17.09375 17.09375 20.796875 6.1875 
Q 24.5 -4.703125 31.703125 -14 
L 25.09375 -18.5 
Q 17.296875 -9 12.546875 3.34375 
Q 7.796875 15.703125 7.796875 29.90625 
Q 7.796875 44.09375 12.546875 56.4375 
Q 17.296875 68.796875 25.09375 78.296875 
L 31.703125 73.796875 
Q 24.5 64.5 20.796875 53.59375 
Q 17.09375 42.703125 17.09375 29.90625 
z
" id="Ubuntu-40"/>
      <path d="M -1.3125 -20.796875 
L 13.375 54.6875 
L 22.40625 54.6875 
L 15.765625 20.65625 
Q 15.578125 19.625 15.421875 18.359375 
Q 15.28125 17.09375 15.28125 15.828125 
Q 15.28125 11.28125 18.140625 8.828125 
Q 21 6.390625 26.3125 6.390625 
Q 33.546875 6.390625 37.984375 10.484375 
Q 42.4375 14.59375 44 22.796875 
L 50.203125 54.6875 
L 59.1875 54.6875 
L 51.03125 12.640625 
Q 50.828125 11.71875 50.75 11.03125 
Q 50.6875 10.359375 50.6875 9.8125 
Q 50.6875 8.296875 51.296875 7.59375 
Q 51.90625 6.890625 53.21875 6.890625 
Q 53.71875 6.890625 54.5625 7.125 
Q 55.421875 7.375 56.984375 8.015625 
L 55.609375 0.78125 
Q 53.46875 -0.296875 51.515625 -0.859375 
Q 49.5625 -1.421875 47.703125 -1.421875 
Q 44.484375 -1.421875 42.65625 0.625 
Q 40.828125 2.6875 40.828125 6.296875 
Q 38.09375 2.390625 34.296875 0.484375 
Q 30.515625 -1.421875 25.390625 -1.421875 
Q 20.84375 -1.421875 17.453125 0.671875 
Q 14.0625 2.78125 12.984375 6.203125 
L 7.71875 -20.796875 
z
" id="DejaVuSans-Oblique-956"/>
      <path d="M 15.296875 29.90625 
Q 15.296875 42.703125 11.59375 53.59375 
Q 7.90625 64.5 0.703125 73.796875 
L 7.296875 78.296875 
Q 15.09375 68.796875 19.84375 56.4375 
Q 24.59375 44.09375 24.59375 29.90625 
Q 24.59375 15.703125 19.84375 3.34375 
Q 15.09375 -9 7.296875 -18.5 
L 0.703125 -14 
Q 7.90625 -4.703125 11.59375 6.1875 
Q 15.296875 17.09375 15.296875 29.90625 
z
" id="Ubuntu-41"/>
     </defs>
     <g transform="translate(456.695475 41.2735)scale(0.1 -0.1)">
      <use transform="translate(0 0.703125)" xlink:href="#Ubuntu-80"/>
      <use transform="translate(60.799988 0.703125)" xlink:href="#Ubuntu-114"/>
      <use transform="translate(99.399979 0.703125)" xlink:href="#Ubuntu-101"/>
      <use transform="translate(155.299973 0.703125)" xlink:href="#Ubuntu-100"/>
      <use transform="translate(214.199966 0.703125)" xlink:href="#Ubuntu-105"/>
      <use transform="translate(239.499954 0.703125)" xlink:href="#Ubuntu-99"/>
      <use transform="translate(285.999939 0.703125)" xlink:href="#Ubuntu-116"/>
      <use transform="translate(326.199936 0.703125)" xlink:href="#Ubuntu-101"/>
      <use transform="translate(382.09993 0.703125)" xlink:href="#Ubuntu-100"/>
      <use transform="translate(440.999924 0.703125)" xlink:href="#Ubuntu-32"/>
      <use transform="translate(464.099915 0.703125)" xlink:href="#Ubuntu-40"/>
      <use transform="translate(496.499908 0.703125)" xlink:href="#DejaVuSans-Oblique-956"/>
      <use transform="translate(560.122955 0.703125)" xlink:href="#Ubuntu-41"/>
     </g>
    </g>
    <g id="line2d_29">
     <path d="M 428.695475 52.7735 
L 448.695475 52.7735 
" style="fill:none;stroke:#800080;stroke-width:2.7;"/>
    </g>
    <g id="line2d_30"/>
    <g id="text_17">
     <!-- GT ($f$) -->
     <defs>
      <path d="M 54.90625 69.296875 
L 54.90625 60.90625 
L 33.09375 60.90625 
L 33.09375 0 
L 23.40625 0 
L 23.40625 60.90625 
L 1.59375 60.90625 
L 1.59375 69.296875 
z
" id="Ubuntu-84"/>
      <path d="M 47.796875 75.984375 
L 46.390625 68.5 
L 37.796875 68.5 
Q 32.90625 68.5 30.6875 66.578125 
Q 28.46875 64.65625 27.390625 59.515625 
L 26.421875 54.6875 
L 41.21875 54.6875 
L 39.890625 47.703125 
L 25.09375 47.703125 
L 15.828125 0 
L 6.78125 0 
L 16.109375 47.703125 
L 7.515625 47.703125 
L 8.796875 54.6875 
L 17.390625 54.6875 
L 18.109375 58.5 
Q 19.96875 68.171875 24.625 72.078125 
Q 29.296875 75.984375 39.3125 75.984375 
z
" id="DejaVuSans-Oblique-102"/>
     </defs>
     <g transform="translate(456.695475 56.2735)scale(0.1 -0.1)">
      <use transform="translate(0 0.703125)" xlink:href="#Ubuntu-71"/>
      <use transform="translate(67.199997 0.703125)" xlink:href="#Ubuntu-84"/>
      <use transform="translate(123.699982 0.703125)" xlink:href="#Ubuntu-32"/>
      <use transform="translate(146.799973 0.703125)" xlink:href="#Ubuntu-40"/>
      <use transform="translate(179.199966 0.703125)" xlink:href="#DejaVuSans-Oblique-102"/>
      <use transform="translate(214.405045 0.703125)" xlink:href="#Ubuntu-41"/>
     </g>
    </g>
    <g id="patch_8">
     <path d="M 428.695475 70.932875 
L 448.695475 70.932875 
L 448.695475 63.932875 
L 428.695475 63.932875 
z
" style="fill:#808080;opacity:0.4;stroke:#808080;stroke-linejoin:miter;stroke-width:0.5;"/>
    </g>
    <g id="text_18">
     <!-- $\mu \pm \sigma$ -->
     <defs>
      <path d="M 46 62.703125 
L 46 43.796875 
L 73.1875 43.796875 
L 73.1875 35.5 
L 46 35.5 
L 46 16.609375 
L 37.796875 16.609375 
L 37.796875 35.5 
L 10.59375 35.5 
L 10.59375 43.796875 
L 37.796875 43.796875 
L 37.796875 62.703125 
z
M 10.59375 8.296875 
L 73.1875 8.296875 
L 73.1875 0 
L 10.59375 0 
z
" id="DejaVuSans-177"/>
      <path d="M 34.671875 47.5625 
Q 27.25 47.5625 22.21875 42.1875 
Q 16.890625 36.578125 15.140625 27.296875 
Q 13.1875 17.484375 16.3125 11.8125 
Q 19.390625 6.203125 26.65625 6.203125 
Q 33.84375 6.203125 39.109375 11.859375 
Q 44.4375 17.53125 46.34375 27.296875 
Q 48.046875 36.234375 45.015625 42.1875 
Q 42.1875 47.5625 34.671875 47.5625 
z
M 36.078125 54.734375 
L 65.921875 54.6875 
L 64.15625 45.703125 
L 54.109375 45.703125 
Q 57.90625 38.09375 55.859375 27.296875 
Q 53.21875 13.875 45.0625 6.25 
Q 36.859375 -1.421875 25.140625 -1.421875 
Q 13.375 -1.421875 8.203125 6.25 
Q 3.03125 13.875 5.671875 27.296875 
Q 8.25 40.765625 16.40625 48.390625 
Q 23.1875 54.734375 36.078125 54.734375 
z
" id="DejaVuSans-Oblique-963"/>
     </defs>
     <g transform="translate(456.695475 70.932875)scale(0.1 -0.1)">
      <use transform="translate(0 0.296875)" xlink:href="#DejaVuSans-Oblique-956"/>
      <use transform="translate(83.105469 0.296875)" xlink:href="#DejaVuSans-177"/>
      <use transform="translate(186.376953 0.296875)" xlink:href="#DejaVuSans-Oblique-963"/>
     </g>
    </g>
   </g>
  </g>
 </g>
 <defs>
  <clipPath id="p6d5afc6a08">
   <rect height="217.44" width="375.84" x="28.821875" y="24.3735"/>
  </clipPath>
 </defs>
</svg>
