<?xml version="1.0" encoding="utf-8" standalone="no"?>
<!DOCTYPE svg PUBLIC "-//W3C//DTD SVG 1.1//EN"
  "http://www.w3.org/Graphics/SVG/1.1/DTD/svg11.dtd">
<!-- Created with matplotlib (https://matplotlib.org/) -->
<svg height="262.19625pt" version="1.1" viewBox="0 0 376.240625 262.19625" width="376.240625pt" xmlns="http://www.w3.org/2000/svg" xmlns:xlink="http://www.w3.org/1999/xlink">
 <defs>
  <style type="text/css">
*{stroke-linecap:butt;stroke-linejoin:round;white-space:pre;}
  </style>
 </defs>
 <g id="figure_1">
  <g id="patch_1">
   <path d="M 0 262.19625 
L 376.240625 262.19625 
L 376.240625 0 
L 0 0 
z
" style="fill:#ffffff;"/>
  </g>
  <g id="axes_1">
   <g id="patch_2">
    <path d="M 34.240625 224.64 
L 369.040625 224.64 
L 369.040625 7.2 
L 34.240625 7.2 
z
" style="fill:#ffffff;"/>
   </g>
   <g id="PolyCollection_1">
    <defs>
     <path d="M 49.458807 -47.439886 
L 49.458807 -90.522395 
L 49.966926 -90.522395 
L 50.475046 -90.522395 
L 50.983166 -90.522395 
L 51.491285 -90.522395 
L 51.999405 -90.522395 
L 52.507524 -90.522395 
L 53.015644 -90.522395 
L 53.523764 -90.522395 
L 54.031883 -90.522395 
L 54.540003 -90.522395 
L 55.048122 -90.522395 
L 55.556242 -90.522395 
L 56.064362 -90.522395 
L 56.572481 -90.522395 
L 57.080601 -90.522395 
L 57.58872 -90.522395 
L 58.09684 -90.522395 
L 58.604959 -90.522395 
L 59.113079 -90.522395 
L 59.621199 -90.522395 
L 60.129318 -90.522395 
L 60.637438 -90.522395 
L 61.145557 -90.522395 
L 61.653677 -90.522395 
L 62.161797 -90.522395 
L 62.669916 -90.522395 
L 63.178036 -90.522395 
L 63.686155 -90.522395 
L 64.194275 -90.522395 
L 64.702395 -90.522395 
L 65.210514 -90.522395 
L 65.718634 -90.522395 
L 66.226753 -90.522395 
L 66.734873 -90.522395 
L 67.242993 -90.522395 
L 67.751112 -90.522395 
L 68.259232 -90.522395 
L 68.767351 -90.522395 
L 69.275471 -90.522395 
L 69.783591 -90.522395 
L 70.29171 -90.522395 
L 70.79983 -90.522395 
L 71.307949 -90.522395 
L 71.816069 -90.522395 
L 72.324189 -90.522395 
L 72.832308 -90.522395 
L 73.340428 -90.522395 
L 73.848547 -90.522395 
L 74.356667 -90.522395 
L 74.864786 -90.522395 
L 75.372906 -90.522395 
L 75.881026 -90.522395 
L 76.389145 -90.522395 
L 76.897265 -90.522395 
L 77.405384 -90.522395 
L 77.913504 -90.522395 
L 78.421624 -90.522395 
L 78.929743 -90.522395 
L 79.437863 -90.522395 
L 79.945982 -90.522395 
L 80.454102 -90.522395 
L 80.962222 -90.522395 
L 81.470341 -90.522395 
L 81.978461 -90.522395 
L 82.48658 -90.522395 
L 82.9947 -90.522395 
L 83.50282 -90.522395 
L 84.010939 -90.522395 
L 84.519059 -90.522395 
L 85.027178 -90.522395 
L 85.535298 -90.522395 
L 86.043418 -90.522395 
L 86.551537 -90.522395 
L 87.059657 -90.522395 
L 87.567776 -90.522395 
L 88.075896 -90.522395 
L 88.584015 -90.522395 
L 89.092135 -90.522395 
L 89.600255 -90.522395 
L 90.108374 -90.522395 
L 90.616494 -90.522395 
L 91.124613 -90.522395 
L 91.632733 -90.522395 
L 92.140853 -90.522395 
L 92.648972 -90.522395 
L 93.157092 -90.522395 
L 93.665211 -90.522395 
L 94.173331 -90.522395 
L 94.681451 -90.522395 
L 95.18957 -90.522395 
L 95.69769 -90.522395 
L 96.205809 -90.522395 
L 96.713929 -90.522395 
L 97.222049 -90.522395 
L 97.730168 -90.522395 
L 98.238288 -90.522395 
L 98.746407 -90.522395 
L 99.254527 -90.522395 
L 99.762647 -90.522395 
L 100.270766 -90.522395 
L 100.778886 -90.522395 
L 101.287005 -90.522395 
L 101.795125 -90.522395 
L 102.303245 -90.522395 
L 102.811364 -90.522395 
L 103.319484 -90.522395 
L 103.827603 -90.522395 
L 104.335723 -90.522395 
L 104.843842 -90.522395 
L 105.351962 -90.522395 
L 105.860082 -90.522395 
L 106.368201 -90.522395 
L 106.876321 -90.522395 
L 107.38444 -90.522395 
L 107.89256 -90.522395 
L 108.40068 -90.522395 
L 108.908799 -90.522395 
L 109.416919 -90.522395 
L 109.925038 -90.522395 
L 110.433158 -90.522395 
L 110.941278 -90.522395 
L 111.449397 -90.522395 
L 111.957517 -90.522395 
L 112.465636 -90.522395 
L 112.973756 -90.522395 
L 113.481876 -90.522395 
L 113.989995 -90.522395 
L 114.498115 -90.522395 
L 115.006234 -90.522395 
L 115.514354 -90.522395 
L 116.022474 -90.522395 
L 116.530593 -90.522395 
L 117.038713 -90.522395 
L 117.546832 -90.522395 
L 118.054952 -90.522395 
L 118.563072 -90.522395 
L 119.071191 -90.522395 
L 119.579311 -90.522395 
L 120.08743 -90.522395 
L 120.59555 -90.522395 
L 121.103669 -90.522395 
L 121.611789 -90.522395 
L 122.119909 -90.522395 
L 122.628028 -90.522395 
L 123.136148 -90.522395 
L 123.644267 -90.522395 
L 124.152387 -90.522395 
L 124.660507 -90.522395 
L 125.168626 -90.522395 
L 125.676746 -90.522395 
L 126.184865 -90.522395 
L 126.692985 -90.522395 
L 127.201105 -90.522395 
L 127.709224 -90.522395 
L 128.217344 -90.522395 
L 128.725463 -90.522395 
L 129.233583 -90.522395 
L 129.741703 -90.522395 
L 130.249822 -90.522395 
L 130.757942 -90.522395 
L 131.266061 -90.522395 
L 131.774181 -90.522395 
L 132.282301 -90.522395 
L 132.79042 -90.522395 
L 133.29854 -90.522395 
L 133.806659 -90.522395 
L 134.314779 -90.522395 
L 134.822898 -90.522395 
L 135.331018 -90.522395 
L 135.839138 -90.522395 
L 136.347257 -90.522395 
L 136.855377 -90.522395 
L 137.363496 -90.522395 
L 137.871616 -90.522395 
L 138.379736 -90.522395 
L 138.887855 -90.522395 
L 139.395975 -90.522395 
L 139.904094 -90.522395 
L 140.412214 -90.522395 
L 140.920334 -90.522395 
L 141.428453 -90.522395 
L 141.936573 -90.522395 
L 142.444692 -90.522395 
L 142.952812 -90.522395 
L 143.460932 -90.522395 
L 143.969051 -90.522395 
L 144.477171 -90.522395 
L 144.98529 -90.522395 
L 145.49341 -90.522395 
L 146.00153 -90.522395 
L 146.509649 -90.522395 
L 147.017769 -90.522395 
L 147.525888 -90.522395 
L 148.034008 -90.522395 
L 148.542128 -90.522395 
L 149.050247 -90.522395 
L 149.558367 -90.522395 
L 150.066486 -90.522395 
L 150.574606 -90.522395 
L 151.082725 -90.522395 
L 151.590845 -90.522395 
L 152.098965 -90.522395 
L 152.607084 -90.522395 
L 153.115204 -90.522395 
L 153.623323 -90.522395 
L 154.131443 -90.522395 
L 154.639563 -90.522395 
L 155.147682 -90.522395 
L 155.655802 -90.522395 
L 156.163921 -90.522395 
L 156.672041 -90.522395 
L 157.180161 -90.522395 
L 157.68828 -90.522395 
L 158.1964 -90.522395 
L 158.704519 -90.522395 
L 159.212639 -90.522395 
L 159.720759 -90.522395 
L 160.228878 -90.522395 
L 160.736998 -90.522395 
L 161.245117 -90.522395 
L 161.753237 -90.522395 
L 162.261357 -90.522395 
L 162.769476 -90.522395 
L 163.277596 -90.522395 
L 163.785715 -90.522395 
L 164.293835 -90.522395 
L 164.801954 -90.522395 
L 165.310074 -90.522395 
L 165.818194 -90.522395 
L 166.326313 -90.522395 
L 166.834433 -90.522395 
L 167.342552 -90.522395 
L 167.850672 -90.522395 
L 168.358792 -90.522395 
L 168.866911 -90.522395 
L 169.375031 -90.522395 
L 169.88315 -90.522395 
L 170.39127 -90.522395 
L 170.89939 -90.522395 
L 171.407509 -90.522395 
L 171.915629 -90.522395 
L 172.423748 -90.522395 
L 172.931868 -90.522395 
L 173.439988 -90.522395 
L 173.948107 -90.522395 
L 174.456227 -90.522395 
L 174.964346 -90.522395 
L 175.472466 -90.522395 
L 175.980586 -90.522395 
L 176.488705 -90.522395 
L 176.996825 -90.522395 
L 177.504944 -90.522395 
L 178.013064 -90.522395 
L 178.521184 -90.522395 
L 179.029303 -90.522395 
L 179.537423 -90.522395 
L 180.045542 -90.522395 
L 180.553662 -90.522395 
L 181.061781 -90.522395 
L 181.569901 -90.522395 
L 182.078021 -90.522395 
L 182.58614 -90.522395 
L 183.09426 -90.522395 
L 183.602379 -90.522395 
L 184.110499 -90.522395 
L 184.618619 -90.522395 
L 185.126738 -90.522395 
L 185.634858 -90.522395 
L 186.142977 -90.522395 
L 186.651097 -90.522395 
L 187.159217 -90.522395 
L 187.667336 -90.522395 
L 188.175456 -90.522395 
L 188.683575 -90.522395 
L 189.191695 -90.522395 
L 189.699815 -90.522395 
L 190.207934 -90.522395 
L 190.716054 -90.522395 
L 191.224173 -90.522395 
L 191.732293 -90.522395 
L 192.240413 -90.522395 
L 192.748532 -90.522395 
L 193.256652 -90.522395 
L 193.764771 -90.522395 
L 194.272891 -90.522395 
L 194.78101 -90.522395 
L 195.28913 -90.522395 
L 195.79725 -90.522395 
L 196.305369 -90.522395 
L 196.813489 -90.522395 
L 197.321608 -90.522395 
L 197.829728 -90.522395 
L 198.337848 -90.522395 
L 198.845967 -90.522395 
L 199.354087 -90.522395 
L 199.862206 -90.522395 
L 200.370326 -90.522395 
L 200.878446 -90.522395 
L 201.386565 -90.522395 
L 201.894685 -90.522395 
L 202.402804 -90.522395 
L 202.910924 -90.522395 
L 203.419044 -90.522395 
L 203.927163 -90.522395 
L 204.435283 -90.522395 
L 204.943402 -90.522395 
L 205.451522 -90.522395 
L 205.959642 -90.522395 
L 206.467761 -90.522395 
L 206.975881 -90.522395 
L 207.484 -90.522395 
L 207.99212 -90.522395 
L 208.50024 -90.522395 
L 209.008359 -90.522395 
L 209.516479 -90.522395 
L 210.024598 -90.522395 
L 210.532718 -90.522395 
L 211.040837 -90.522395 
L 211.548957 -90.522395 
L 212.057077 -90.522395 
L 212.565196 -90.522395 
L 213.073316 -90.522395 
L 213.581435 -90.522395 
L 214.089555 -90.522395 
L 214.597675 -90.522395 
L 215.105794 -90.522395 
L 215.613914 -90.522395 
L 216.122033 -90.522395 
L 216.630153 -90.522395 
L 217.138273 -90.522395 
L 217.646392 -90.522395 
L 218.154512 -90.522395 
L 218.662631 -90.522395 
L 219.170751 -90.522395 
L 219.678871 -90.522395 
L 220.18699 -90.522395 
L 220.69511 -90.522395 
L 221.203229 -90.522395 
L 221.711349 -90.522395 
L 222.219469 -90.522395 
L 222.727588 -90.522395 
L 223.235708 -90.522395 
L 223.743827 -90.522395 
L 224.251947 -90.522395 
L 224.760066 -90.522395 
L 225.268186 -90.522395 
L 225.776306 -90.522395 
L 226.284425 -90.522395 
L 226.792545 -90.522395 
L 227.300664 -90.522395 
L 227.808784 -90.522395 
L 228.316904 -90.522395 
L 228.825023 -90.522395 
L 229.333143 -90.522395 
L 229.841262 -90.522395 
L 230.349382 -90.522395 
L 230.857502 -90.522395 
L 231.365621 -90.522395 
L 231.873741 -90.522395 
L 232.38186 -90.522395 
L 232.88998 -90.522395 
L 233.3981 -90.522395 
L 233.906219 -90.522395 
L 234.414339 -90.522395 
L 234.922458 -90.522395 
L 235.430578 -90.522395 
L 235.938698 -90.522395 
L 236.446817 -90.522395 
L 236.954937 -90.522395 
L 237.463056 -90.522395 
L 237.971176 -90.522395 
L 238.479296 -90.522395 
L 238.987415 -90.522395 
L 239.495535 -90.522395 
L 240.003654 -90.522395 
L 240.511774 -90.522395 
L 241.019893 -90.522395 
L 241.528013 -90.522395 
L 242.036133 -90.522395 
L 242.544252 -90.522395 
L 243.052372 -90.522395 
L 243.560491 -90.522395 
L 244.068611 -90.522395 
L 244.576731 -90.522395 
L 245.08485 -90.522395 
L 245.59297 -90.522395 
L 246.101089 -90.522395 
L 246.609209 -90.522395 
L 247.117329 -90.522395 
L 247.625448 -90.522395 
L 248.133568 -90.522395 
L 248.641687 -90.522395 
L 249.149807 -90.522395 
L 249.657927 -90.522395 
L 250.166046 -90.522395 
L 250.674166 -90.522395 
L 251.182285 -90.522395 
L 251.690405 -90.522395 
L 252.198525 -90.522395 
L 252.706644 -90.522395 
L 253.214764 -90.522395 
L 253.722883 -90.522395 
L 254.231003 -90.522395 
L 254.739122 -90.522395 
L 255.247242 -90.522395 
L 255.755362 -90.522395 
L 256.263481 -90.522395 
L 256.771601 -90.522395 
L 257.27972 -90.522395 
L 257.78784 -90.522395 
L 258.29596 -90.522395 
L 258.804079 -90.522395 
L 259.312199 -90.522395 
L 259.820318 -90.522395 
L 260.328438 -90.522395 
L 260.836558 -90.522395 
L 261.344677 -90.522395 
L 261.852797 -90.522395 
L 262.360916 -90.522395 
L 262.869036 -90.522395 
L 263.377156 -90.522395 
L 263.885275 -90.522395 
L 264.393395 -90.522395 
L 264.901514 -90.522395 
L 265.409634 -90.522395 
L 265.917754 -90.522395 
L 266.425873 -90.522395 
L 266.933993 -90.522395 
L 267.442112 -90.522395 
L 267.950232 -90.522395 
L 268.458352 -90.522395 
L 268.966471 -90.522395 
L 269.474591 -90.522395 
L 269.98271 -90.522395 
L 270.49083 -90.522395 
L 270.998949 -90.522395 
L 271.507069 -90.522395 
L 272.015189 -90.522395 
L 272.523308 -90.522395 
L 273.031428 -90.522395 
L 273.539547 -90.522395 
L 274.047667 -90.522395 
L 274.555787 -90.522395 
L 275.063906 -90.522395 
L 275.572026 -90.522395 
L 276.080145 -90.522395 
L 276.588265 -90.522395 
L 277.096385 -90.522395 
L 277.604504 -90.522395 
L 278.112624 -90.522395 
L 278.620743 -90.522395 
L 279.128863 -90.522395 
L 279.636983 -90.522395 
L 280.145102 -90.522395 
L 280.653222 -90.522395 
L 281.161341 -90.522395 
L 281.669461 -90.522395 
L 282.177581 -90.522395 
L 282.6857 -90.522395 
L 283.19382 -90.522395 
L 283.701939 -90.522395 
L 284.210059 -90.522395 
L 284.718178 -90.522395 
L 285.226298 -90.522395 
L 285.734418 -90.522395 
L 286.242537 -90.522395 
L 286.750657 -90.522395 
L 287.258776 -90.522395 
L 287.766896 -90.522395 
L 288.275016 -90.522395 
L 288.783135 -90.522395 
L 289.291255 -90.522395 
L 289.799374 -90.522395 
L 290.307494 -90.522395 
L 290.815614 -90.522395 
L 291.323733 -90.522395 
L 291.831853 -90.522395 
L 292.339972 -90.522395 
L 292.848092 -90.522395 
L 293.356212 -90.522395 
L 293.864331 -90.522395 
L 294.372451 -90.522395 
L 294.88057 -90.522395 
L 295.38869 -90.522395 
L 295.89681 -90.522395 
L 296.404929 -90.522395 
L 296.913049 -90.522395 
L 297.421168 -90.522395 
L 297.929288 -90.522395 
L 298.437408 -90.522395 
L 298.945527 -90.522395 
L 299.453647 -90.522395 
L 299.961766 -90.522395 
L 300.469886 -90.522395 
L 300.978005 -90.522395 
L 301.486125 -90.522395 
L 301.994245 -90.522395 
L 302.502364 -90.522395 
L 303.010484 -90.522395 
L 303.518603 -90.522395 
L 304.026723 -90.522395 
L 304.534843 -90.522395 
L 305.042962 -90.522395 
L 305.551082 -90.522395 
L 306.059201 -90.522395 
L 306.567321 -90.522395 
L 307.075441 -90.522395 
L 307.58356 -90.522395 
L 308.09168 -90.522395 
L 308.599799 -90.522395 
L 309.107919 -90.522395 
L 309.616039 -90.522395 
L 310.124158 -90.522395 
L 310.632278 -90.522395 
L 311.140397 -90.522395 
L 311.648517 -90.522395 
L 312.156637 -90.522395 
L 312.664756 -90.522395 
L 313.172876 -90.522395 
L 313.680995 -90.522395 
L 314.189115 -90.522395 
L 314.697235 -90.522395 
L 315.205354 -90.522395 
L 315.713474 -90.522395 
L 316.221593 -90.522395 
L 316.729713 -90.522395 
L 317.237832 -90.522395 
L 317.745952 -90.522395 
L 318.254072 -90.522395 
L 318.762191 -90.522395 
L 319.270311 -90.522395 
L 319.77843 -90.522395 
L 320.28655 -90.522395 
L 320.79467 -90.522395 
L 321.302789 -90.522395 
L 321.810909 -90.522395 
L 322.319028 -90.522395 
L 322.827148 -90.522395 
L 323.335268 -90.522395 
L 323.843387 -90.522395 
L 324.351507 -90.522395 
L 324.859626 -90.522395 
L 325.367746 -90.522395 
L 325.875866 -90.522395 
L 326.383985 -90.522395 
L 326.892105 -90.522395 
L 327.400224 -90.522395 
L 327.908344 -90.522395 
L 328.416464 -90.522395 
L 328.924583 -90.522395 
L 329.432703 -90.522395 
L 329.940822 -90.522395 
L 330.448942 -90.522395 
L 330.957061 -90.522395 
L 331.465181 -90.522395 
L 331.973301 -90.522395 
L 332.48142 -90.522395 
L 332.98954 -90.522395 
L 333.497659 -90.522395 
L 334.005779 -90.522395 
L 334.513899 -90.522395 
L 335.022018 -90.522395 
L 335.530138 -90.522395 
L 336.038257 -90.522395 
L 336.546377 -90.522395 
L 337.054497 -90.522395 
L 337.562616 -90.522395 
L 338.070736 -90.522395 
L 338.578855 -90.522395 
L 339.086975 -90.522395 
L 339.595095 -90.522395 
L 340.103214 -90.522395 
L 340.611334 -90.522395 
L 341.119453 -90.522395 
L 341.627573 -90.522395 
L 342.135693 -90.522395 
L 342.643812 -90.522395 
L 343.151932 -90.522395 
L 343.660051 -90.522395 
L 344.168171 -90.522395 
L 344.676291 -90.522395 
L 345.18441 -90.522395 
L 345.69253 -90.522395 
L 346.200649 -90.522395 
L 346.708769 -90.522395 
L 347.216888 -90.522395 
L 347.725008 -90.522395 
L 348.233128 -90.522395 
L 348.741247 -90.522395 
L 349.249367 -90.522395 
L 349.757486 -90.522395 
L 350.265606 -90.522395 
L 350.773726 -90.522395 
L 351.281845 -90.522395 
L 351.789965 -90.522395 
L 352.298084 -90.522395 
L 352.806204 -90.522395 
L 353.314324 -90.522395 
L 353.822443 -90.522395 
L 353.822443 -47.439886 
L 353.822443 -47.439886 
L 353.314324 -47.439886 
L 352.806204 -47.439886 
L 352.298084 -47.439886 
L 351.789965 -47.439886 
L 351.281845 -47.439886 
L 350.773726 -47.439886 
L 350.265606 -47.439886 
L 349.757486 -47.439886 
L 349.249367 -47.439886 
L 348.741247 -47.439886 
L 348.233128 -47.439886 
L 347.725008 -47.439886 
L 347.216888 -47.439886 
L 346.708769 -47.439886 
L 346.200649 -47.439886 
L 345.69253 -47.439886 
L 345.18441 -47.439886 
L 344.676291 -47.439886 
L 344.168171 -47.439886 
L 343.660051 -47.439886 
L 343.151932 -47.439886 
L 342.643812 -47.439886 
L 342.135693 -47.439886 
L 341.627573 -47.439886 
L 341.119453 -47.439886 
L 340.611334 -47.439886 
L 340.103214 -47.439886 
L 339.595095 -47.439886 
L 339.086975 -47.439886 
L 338.578855 -47.439886 
L 338.070736 -47.439886 
L 337.562616 -47.439886 
L 337.054497 -47.439886 
L 336.546377 -47.439886 
L 336.038257 -47.439886 
L 335.530138 -47.439886 
L 335.022018 -47.439886 
L 334.513899 -47.439886 
L 334.005779 -47.439886 
L 333.497659 -47.439886 
L 332.98954 -47.439886 
L 332.48142 -47.439886 
L 331.973301 -47.439886 
L 331.465181 -47.439886 
L 330.957061 -47.439886 
L 330.448942 -47.439886 
L 329.940822 -47.439886 
L 329.432703 -47.439886 
L 328.924583 -47.439886 
L 328.416464 -47.439886 
L 327.908344 -47.439886 
L 327.400224 -47.439886 
L 326.892105 -47.439886 
L 326.383985 -47.439886 
L 325.875866 -47.439886 
L 325.367746 -47.439886 
L 324.859626 -47.439886 
L 324.351507 -47.439886 
L 323.843387 -47.439886 
L 323.335268 -47.439886 
L 322.827148 -47.439886 
L 322.319028 -47.439886 
L 321.810909 -47.439886 
L 321.302789 -47.439886 
L 320.79467 -47.439886 
L 320.28655 -47.439886 
L 319.77843 -47.439886 
L 319.270311 -47.439886 
L 318.762191 -47.439886 
L 318.254072 -47.439886 
L 317.745952 -47.439886 
L 317.237832 -47.439886 
L 316.729713 -47.439886 
L 316.221593 -47.439886 
L 315.713474 -47.439886 
L 315.205354 -47.439886 
L 314.697235 -47.439886 
L 314.189115 -47.439886 
L 313.680995 -47.439886 
L 313.172876 -47.439886 
L 312.664756 -47.439886 
L 312.156637 -47.439886 
L 311.648517 -47.439886 
L 311.140397 -47.439886 
L 310.632278 -47.439886 
L 310.124158 -47.439886 
L 309.616039 -47.439886 
L 309.107919 -47.439886 
L 308.599799 -47.439886 
L 308.09168 -47.439886 
L 307.58356 -47.439886 
L 307.075441 -47.439886 
L 306.567321 -47.439886 
L 306.059201 -47.439886 
L 305.551082 -47.439886 
L 305.042962 -47.439886 
L 304.534843 -47.439886 
L 304.026723 -47.439886 
L 303.518603 -47.439886 
L 303.010484 -47.439886 
L 302.502364 -47.439886 
L 301.994245 -47.439886 
L 301.486125 -47.439886 
L 300.978005 -47.439886 
L 300.469886 -47.439886 
L 299.961766 -47.439886 
L 299.453647 -47.439886 
L 298.945527 -47.439886 
L 298.437408 -47.439886 
L 297.929288 -47.439886 
L 297.421168 -47.439886 
L 296.913049 -47.439886 
L 296.404929 -47.439886 
L 295.89681 -47.439886 
L 295.38869 -47.439886 
L 294.88057 -47.439886 
L 294.372451 -47.439886 
L 293.864331 -47.439886 
L 293.356212 -47.439886 
L 292.848092 -47.439886 
L 292.339972 -47.439886 
L 291.831853 -47.439886 
L 291.323733 -47.439886 
L 290.815614 -47.439886 
L 290.307494 -47.439886 
L 289.799374 -47.439886 
L 289.291255 -47.439886 
L 288.783135 -47.439886 
L 288.275016 -47.439886 
L 287.766896 -47.439886 
L 287.258776 -47.439886 
L 286.750657 -47.439886 
L 286.242537 -47.439886 
L 285.734418 -47.439886 
L 285.226298 -47.439886 
L 284.718178 -47.439886 
L 284.210059 -47.439886 
L 283.701939 -47.439886 
L 283.19382 -47.439886 
L 282.6857 -47.439886 
L 282.177581 -47.439886 
L 281.669461 -47.439886 
L 281.161341 -47.439886 
L 280.653222 -47.439886 
L 280.145102 -47.439886 
L 279.636983 -47.439886 
L 279.128863 -47.439886 
L 278.620743 -47.439886 
L 278.112624 -47.439886 
L 277.604504 -47.439886 
L 277.096385 -47.439886 
L 276.588265 -47.439886 
L 276.080145 -47.439886 
L 275.572026 -47.439886 
L 275.063906 -47.439886 
L 274.555787 -47.439886 
L 274.047667 -47.439886 
L 273.539547 -47.439886 
L 273.031428 -47.439886 
L 272.523308 -47.439886 
L 272.015189 -47.439886 
L 271.507069 -47.439886 
L 270.998949 -47.439886 
L 270.49083 -47.439886 
L 269.98271 -47.439886 
L 269.474591 -47.439886 
L 268.966471 -47.439886 
L 268.458352 -47.439886 
L 267.950232 -47.439886 
L 267.442112 -47.439886 
L 266.933993 -47.439886 
L 266.425873 -47.439886 
L 265.917754 -47.439886 
L 265.409634 -47.439886 
L 264.901514 -47.439886 
L 264.393395 -47.439886 
L 263.885275 -47.439886 
L 263.377156 -47.439886 
L 262.869036 -47.439886 
L 262.360916 -47.439886 
L 261.852797 -47.439886 
L 261.344677 -47.439886 
L 260.836558 -47.439886 
L 260.328438 -47.439886 
L 259.820318 -47.439886 
L 259.312199 -47.439886 
L 258.804079 -47.439886 
L 258.29596 -47.439886 
L 257.78784 -47.439886 
L 257.27972 -47.439886 
L 256.771601 -47.439886 
L 256.263481 -47.439886 
L 255.755362 -47.439886 
L 255.247242 -47.439886 
L 254.739122 -47.439886 
L 254.231003 -47.439886 
L 253.722883 -47.439886 
L 253.214764 -47.439886 
L 252.706644 -47.439886 
L 252.198525 -47.439886 
L 251.690405 -47.439886 
L 251.182285 -47.439886 
L 250.674166 -47.439886 
L 250.166046 -47.439886 
L 249.657927 -47.439886 
L 249.149807 -47.439886 
L 248.641687 -47.439886 
L 248.133568 -47.439886 
L 247.625448 -47.439886 
L 247.117329 -47.439886 
L 246.609209 -47.439886 
L 246.101089 -47.439886 
L 245.59297 -47.439886 
L 245.08485 -47.439886 
L 244.576731 -47.439886 
L 244.068611 -47.439886 
L 243.560491 -47.439886 
L 243.052372 -47.439886 
L 242.544252 -47.439886 
L 242.036133 -47.439886 
L 241.528013 -47.439886 
L 241.019893 -47.439886 
L 240.511774 -47.439886 
L 240.003654 -47.439886 
L 239.495535 -47.439886 
L 238.987415 -47.439886 
L 238.479296 -47.439886 
L 237.971176 -47.439886 
L 237.463056 -47.439886 
L 236.954937 -47.439886 
L 236.446817 -47.439886 
L 235.938698 -47.439886 
L 235.430578 -47.439886 
L 234.922458 -47.439886 
L 234.414339 -47.439886 
L 233.906219 -47.439886 
L 233.3981 -47.439886 
L 232.88998 -47.439886 
L 232.38186 -47.439886 
L 231.873741 -47.439886 
L 231.365621 -47.439886 
L 230.857502 -47.439886 
L 230.349382 -47.439886 
L 229.841262 -47.439886 
L 229.333143 -47.439886 
L 228.825023 -47.439886 
L 228.316904 -47.439886 
L 227.808784 -47.439886 
L 227.300664 -47.439886 
L 226.792545 -47.439886 
L 226.284425 -47.439886 
L 225.776306 -47.439886 
L 225.268186 -47.439886 
L 224.760066 -47.439886 
L 224.251947 -47.439886 
L 223.743827 -47.439886 
L 223.235708 -47.439886 
L 222.727588 -47.439886 
L 222.219469 -47.439886 
L 221.711349 -47.439886 
L 221.203229 -47.439886 
L 220.69511 -47.439886 
L 220.18699 -47.439886 
L 219.678871 -47.439886 
L 219.170751 -47.439886 
L 218.662631 -47.439886 
L 218.154512 -47.439886 
L 217.646392 -47.439886 
L 217.138273 -47.439886 
L 216.630153 -47.439886 
L 216.122033 -47.439886 
L 215.613914 -47.439886 
L 215.105794 -47.439886 
L 214.597675 -47.439886 
L 214.089555 -47.439886 
L 213.581435 -47.439886 
L 213.073316 -47.439886 
L 212.565196 -47.439886 
L 212.057077 -47.439886 
L 211.548957 -47.439886 
L 211.040837 -47.439886 
L 210.532718 -47.439886 
L 210.024598 -47.439886 
L 209.516479 -47.439886 
L 209.008359 -47.439886 
L 208.50024 -47.439886 
L 207.99212 -47.439886 
L 207.484 -47.439886 
L 206.975881 -47.439886 
L 206.467761 -47.439886 
L 205.959642 -47.439886 
L 205.451522 -47.439886 
L 204.943402 -47.439886 
L 204.435283 -47.439886 
L 203.927163 -47.439886 
L 203.419044 -47.439886 
L 202.910924 -47.439886 
L 202.402804 -47.439886 
L 201.894685 -47.439886 
L 201.386565 -47.439886 
L 200.878446 -47.439886 
L 200.370326 -47.439886 
L 199.862206 -47.439886 
L 199.354087 -47.439886 
L 198.845967 -47.439886 
L 198.337848 -47.439886 
L 197.829728 -47.439886 
L 197.321608 -47.439886 
L 196.813489 -47.439886 
L 196.305369 -47.439886 
L 195.79725 -47.439886 
L 195.28913 -47.439886 
L 194.78101 -47.439886 
L 194.272891 -47.439886 
L 193.764771 -47.439886 
L 193.256652 -47.439886 
L 192.748532 -47.439886 
L 192.240413 -47.439886 
L 191.732293 -47.439886 
L 191.224173 -47.439886 
L 190.716054 -47.439886 
L 190.207934 -47.439886 
L 189.699815 -47.439886 
L 189.191695 -47.439886 
L 188.683575 -47.439886 
L 188.175456 -47.439886 
L 187.667336 -47.439886 
L 187.159217 -47.439886 
L 186.651097 -47.439886 
L 186.142977 -47.439886 
L 185.634858 -47.439886 
L 185.126738 -47.439886 
L 184.618619 -47.439886 
L 184.110499 -47.439886 
L 183.602379 -47.439886 
L 183.09426 -47.439886 
L 182.58614 -47.439886 
L 182.078021 -47.439886 
L 181.569901 -47.439886 
L 181.061781 -47.439886 
L 180.553662 -47.439886 
L 180.045542 -47.439886 
L 179.537423 -47.439886 
L 179.029303 -47.439886 
L 178.521184 -47.439886 
L 178.013064 -47.439886 
L 177.504944 -47.439886 
L 176.996825 -47.439886 
L 176.488705 -47.439886 
L 175.980586 -47.439886 
L 175.472466 -47.439886 
L 174.964346 -47.439886 
L 174.456227 -47.439886 
L 173.948107 -47.439886 
L 173.439988 -47.439886 
L 172.931868 -47.439886 
L 172.423748 -47.439886 
L 171.915629 -47.439886 
L 171.407509 -47.439886 
L 170.89939 -47.439886 
L 170.39127 -47.439886 
L 169.88315 -47.439886 
L 169.375031 -47.439886 
L 168.866911 -47.439886 
L 168.358792 -47.439886 
L 167.850672 -47.439886 
L 167.342552 -47.439886 
L 166.834433 -47.439886 
L 166.326313 -47.439886 
L 165.818194 -47.439886 
L 165.310074 -47.439886 
L 164.801954 -47.439886 
L 164.293835 -47.439886 
L 163.785715 -47.439886 
L 163.277596 -47.439886 
L 162.769476 -47.439886 
L 162.261357 -47.439886 
L 161.753237 -47.439886 
L 161.245117 -47.439886 
L 160.736998 -47.439886 
L 160.228878 -47.439886 
L 159.720759 -47.439886 
L 159.212639 -47.439886 
L 158.704519 -47.439886 
L 158.1964 -47.439886 
L 157.68828 -47.439886 
L 157.180161 -47.439886 
L 156.672041 -47.439886 
L 156.163921 -47.439886 
L 155.655802 -47.439886 
L 155.147682 -47.439886 
L 154.639563 -47.439886 
L 154.131443 -47.439886 
L 153.623323 -47.439886 
L 153.115204 -47.439886 
L 152.607084 -47.439886 
L 152.098965 -47.439886 
L 151.590845 -47.439886 
L 151.082725 -47.439886 
L 150.574606 -47.439886 
L 150.066486 -47.439886 
L 149.558367 -47.439886 
L 149.050247 -47.439886 
L 148.542128 -47.439886 
L 148.034008 -47.439886 
L 147.525888 -47.439886 
L 147.017769 -47.439886 
L 146.509649 -47.439886 
L 146.00153 -47.439886 
L 145.49341 -47.439886 
L 144.98529 -47.439886 
L 144.477171 -47.439886 
L 143.969051 -47.439886 
L 143.460932 -47.439886 
L 142.952812 -47.439886 
L 142.444692 -47.439886 
L 141.936573 -47.439886 
L 141.428453 -47.439886 
L 140.920334 -47.439886 
L 140.412214 -47.439886 
L 139.904094 -47.439886 
L 139.395975 -47.439886 
L 138.887855 -47.439886 
L 138.379736 -47.439886 
L 137.871616 -47.439886 
L 137.363496 -47.439886 
L 136.855377 -47.439886 
L 136.347257 -47.439886 
L 135.839138 -47.439886 
L 135.331018 -47.439886 
L 134.822898 -47.439886 
L 134.314779 -47.439886 
L 133.806659 -47.439886 
L 133.29854 -47.439886 
L 132.79042 -47.439886 
L 132.282301 -47.439886 
L 131.774181 -47.439886 
L 131.266061 -47.439886 
L 130.757942 -47.439886 
L 130.249822 -47.439886 
L 129.741703 -47.439886 
L 129.233583 -47.439886 
L 128.725463 -47.439886 
L 128.217344 -47.439886 
L 127.709224 -47.439886 
L 127.201105 -47.439886 
L 126.692985 -47.439886 
L 126.184865 -47.439886 
L 125.676746 -47.439886 
L 125.168626 -47.439886 
L 124.660507 -47.439886 
L 124.152387 -47.439886 
L 123.644267 -47.439886 
L 123.136148 -47.439886 
L 122.628028 -47.439886 
L 122.119909 -47.439886 
L 121.611789 -47.439886 
L 121.103669 -47.439886 
L 120.59555 -47.439886 
L 120.08743 -47.439886 
L 119.579311 -47.439886 
L 119.071191 -47.439886 
L 118.563072 -47.439886 
L 118.054952 -47.439886 
L 117.546832 -47.439886 
L 117.038713 -47.439886 
L 116.530593 -47.439886 
L 116.022474 -47.439886 
L 115.514354 -47.439886 
L 115.006234 -47.439886 
L 114.498115 -47.439886 
L 113.989995 -47.439886 
L 113.481876 -47.439886 
L 112.973756 -47.439886 
L 112.465636 -47.439886 
L 111.957517 -47.439886 
L 111.449397 -47.439886 
L 110.941278 -47.439886 
L 110.433158 -47.439886 
L 109.925038 -47.439886 
L 109.416919 -47.439886 
L 108.908799 -47.439886 
L 108.40068 -47.439886 
L 107.89256 -47.439886 
L 107.38444 -47.439886 
L 106.876321 -47.439886 
L 106.368201 -47.439886 
L 105.860082 -47.439886 
L 105.351962 -47.439886 
L 104.843842 -47.439886 
L 104.335723 -47.439886 
L 103.827603 -47.439886 
L 103.319484 -47.439886 
L 102.811364 -47.439886 
L 102.303245 -47.439886 
L 101.795125 -47.439886 
L 101.287005 -47.439886 
L 100.778886 -47.439886 
L 100.270766 -47.439886 
L 99.762647 -47.439886 
L 99.254527 -47.439886 
L 98.746407 -47.439886 
L 98.238288 -47.439886 
L 97.730168 -47.439886 
L 97.222049 -47.439886 
L 96.713929 -47.439886 
L 96.205809 -47.439886 
L 95.69769 -47.439886 
L 95.18957 -47.439886 
L 94.681451 -47.439886 
L 94.173331 -47.439886 
L 93.665211 -47.439886 
L 93.157092 -47.439886 
L 92.648972 -47.439886 
L 92.140853 -47.439886 
L 91.632733 -47.439886 
L 91.124613 -47.439886 
L 90.616494 -47.439886 
L 90.108374 -47.439886 
L 89.600255 -47.439886 
L 89.092135 -47.439886 
L 88.584015 -47.439886 
L 88.075896 -47.439886 
L 87.567776 -47.439886 
L 87.059657 -47.439886 
L 86.551537 -47.439886 
L 86.043418 -47.439886 
L 85.535298 -47.439886 
L 85.027178 -47.439886 
L 84.519059 -47.439886 
L 84.010939 -47.439886 
L 83.50282 -47.439886 
L 82.9947 -47.439886 
L 82.48658 -47.439886 
L 81.978461 -47.439886 
L 81.470341 -47.439886 
L 80.962222 -47.439886 
L 80.454102 -47.439886 
L 79.945982 -47.439886 
L 79.437863 -47.439886 
L 78.929743 -47.439886 
L 78.421624 -47.439886 
L 77.913504 -47.439886 
L 77.405384 -47.439886 
L 76.897265 -47.439886 
L 76.389145 -47.439886 
L 75.881026 -47.439886 
L 75.372906 -47.439886 
L 74.864786 -47.439886 
L 74.356667 -47.439886 
L 73.848547 -47.439886 
L 73.340428 -47.439886 
L 72.832308 -47.439886 
L 72.324189 -47.439886 
L 71.816069 -47.439886 
L 71.307949 -47.439886 
L 70.79983 -47.439886 
L 70.29171 -47.439886 
L 69.783591 -47.439886 
L 69.275471 -47.439886 
L 68.767351 -47.439886 
L 68.259232 -47.439886 
L 67.751112 -47.439886 
L 67.242993 -47.439886 
L 66.734873 -47.439886 
L 66.226753 -47.439886 
L 65.718634 -47.439886 
L 65.210514 -47.439886 
L 64.702395 -47.439886 
L 64.194275 -47.439886 
L 63.686155 -47.439886 
L 63.178036 -47.439886 
L 62.669916 -47.439886 
L 62.161797 -47.439886 
L 61.653677 -47.439886 
L 61.145557 -47.439886 
L 60.637438 -47.439886 
L 60.129318 -47.439886 
L 59.621199 -47.439886 
L 59.113079 -47.439886 
L 58.604959 -47.439886 
L 58.09684 -47.439886 
L 57.58872 -47.439886 
L 57.080601 -47.439886 
L 56.572481 -47.439886 
L 56.064362 -47.439886 
L 55.556242 -47.439886 
L 55.048122 -47.439886 
L 54.540003 -47.439886 
L 54.031883 -47.439886 
L 53.523764 -47.439886 
L 53.015644 -47.439886 
L 52.507524 -47.439886 
L 51.999405 -47.439886 
L 51.491285 -47.439886 
L 50.983166 -47.439886 
L 50.475046 -47.439886 
L 49.966926 -47.439886 
L 49.458807 -47.439886 
z
" id="m4e84f89bfd" style="stroke:#808080;stroke-opacity:0.2;"/>
    </defs>
    <g clip-path="url(#pdc46e98274)">
     <use style="fill:#808080;fill-opacity:0.2;stroke:#808080;stroke-opacity:0.2;" x="0" xlink:href="#m4e84f89bfd" y="262.19625"/>
    </g>
   </g>
   <g id="matplotlib.axis_1">
    <g id="xtick_1">
     <g id="line2d_1">
      <defs>
       <path d="M 0 0 
L 0 3.5 
" id="md542c79377" style="stroke:#808080;stroke-width:0.8;"/>
      </defs>
      <g>
       <use style="fill:#808080;stroke:#808080;stroke-width:0.8;" x="49.458807" xlink:href="#md542c79377" y="224.64"/>
      </g>
     </g>
     <g id="text_1">
      <!-- 0 -->
      <defs>
       <path d="M 31.78125 66.40625 
Q 24.171875 66.40625 20.328125 58.90625 
Q 16.5 51.421875 16.5 36.375 
Q 16.5 21.390625 20.328125 13.890625 
Q 24.171875 6.390625 31.78125 6.390625 
Q 39.453125 6.390625 43.28125 13.890625 
Q 47.125 21.390625 47.125 36.375 
Q 47.125 51.421875 43.28125 58.90625 
Q 39.453125 66.40625 31.78125 66.40625 
z
M 31.78125 74.21875 
Q 44.046875 74.21875 50.515625 64.515625 
Q 56.984375 54.828125 56.984375 36.375 
Q 56.984375 17.96875 50.515625 8.265625 
Q 44.046875 -1.421875 31.78125 -1.421875 
Q 19.53125 -1.421875 13.0625 8.265625 
Q 6.59375 17.96875 6.59375 36.375 
Q 6.59375 54.828125 13.0625 64.515625 
Q 19.53125 74.21875 31.78125 74.21875 
z
" id="DejaVuSans-48"/>
      </defs>
      <g transform="translate(46.277557 239.238438)scale(0.1 -0.1)">
       <use xlink:href="#DejaVuSans-48"/>
      </g>
     </g>
    </g>
    <g id="xtick_2">
     <g id="line2d_2">
      <g>
       <use style="fill:#808080;stroke:#808080;stroke-width:0.8;" x="100.18608" xlink:href="#md542c79377" y="224.64"/>
      </g>
     </g>
     <g id="text_2">
      <!-- 1 -->
      <defs>
       <path d="M 12.40625 8.296875 
L 28.515625 8.296875 
L 28.515625 63.921875 
L 10.984375 60.40625 
L 10.984375 69.390625 
L 28.421875 72.90625 
L 38.28125 72.90625 
L 38.28125 8.296875 
L 54.390625 8.296875 
L 54.390625 0 
L 12.40625 0 
z
" id="DejaVuSans-49"/>
      </defs>
      <g transform="translate(97.00483 239.238438)scale(0.1 -0.1)">
       <use xlink:href="#DejaVuSans-49"/>
      </g>
     </g>
    </g>
    <g id="xtick_3">
     <g id="line2d_3">
      <g>
       <use style="fill:#808080;stroke:#808080;stroke-width:0.8;" x="150.913352" xlink:href="#md542c79377" y="224.64"/>
      </g>
     </g>
     <g id="text_3">
      <!-- 2 -->
      <defs>
       <path d="M 19.1875 8.296875 
L 53.609375 8.296875 
L 53.609375 0 
L 7.328125 0 
L 7.328125 8.296875 
Q 12.9375 14.109375 22.625 23.890625 
Q 32.328125 33.6875 34.8125 36.53125 
Q 39.546875 41.84375 41.421875 45.53125 
Q 43.3125 49.21875 43.3125 52.78125 
Q 43.3125 58.59375 39.234375 62.25 
Q 35.15625 65.921875 28.609375 65.921875 
Q 23.96875 65.921875 18.8125 64.3125 
Q 13.671875 62.703125 7.8125 59.421875 
L 7.8125 69.390625 
Q 13.765625 71.78125 18.9375 73 
Q 24.125 74.21875 28.421875 74.21875 
Q 39.75 74.21875 46.484375 68.546875 
Q 53.21875 62.890625 53.21875 53.421875 
Q 53.21875 48.921875 51.53125 44.890625 
Q 49.859375 40.875 45.40625 35.40625 
Q 44.1875 33.984375 37.640625 27.21875 
Q 31.109375 20.453125 19.1875 8.296875 
z
" id="DejaVuSans-50"/>
      </defs>
      <g transform="translate(147.732102 239.238438)scale(0.1 -0.1)">
       <use xlink:href="#DejaVuSans-50"/>
      </g>
     </g>
    </g>
    <g id="xtick_4">
     <g id="line2d_4">
      <g>
       <use style="fill:#808080;stroke:#808080;stroke-width:0.8;" x="201.640625" xlink:href="#md542c79377" y="224.64"/>
      </g>
     </g>
     <g id="text_4">
      <!-- 3 -->
      <defs>
       <path d="M 40.578125 39.3125 
Q 47.65625 37.796875 51.625 33 
Q 55.609375 28.21875 55.609375 21.1875 
Q 55.609375 10.40625 48.1875 4.484375 
Q 40.765625 -1.421875 27.09375 -1.421875 
Q 22.515625 -1.421875 17.65625 -0.515625 
Q 12.796875 0.390625 7.625 2.203125 
L 7.625 11.71875 
Q 11.71875 9.328125 16.59375 8.109375 
Q 21.484375 6.890625 26.8125 6.890625 
Q 36.078125 6.890625 40.9375 10.546875 
Q 45.796875 14.203125 45.796875 21.1875 
Q 45.796875 27.640625 41.28125 31.265625 
Q 36.765625 34.90625 28.71875 34.90625 
L 20.21875 34.90625 
L 20.21875 43.015625 
L 29.109375 43.015625 
Q 36.375 43.015625 40.234375 45.921875 
Q 44.09375 48.828125 44.09375 54.296875 
Q 44.09375 59.90625 40.109375 62.90625 
Q 36.140625 65.921875 28.71875 65.921875 
Q 24.65625 65.921875 20.015625 65.03125 
Q 15.375 64.15625 9.8125 62.3125 
L 9.8125 71.09375 
Q 15.4375 72.65625 20.34375 73.4375 
Q 25.25 74.21875 29.59375 74.21875 
Q 40.828125 74.21875 47.359375 69.109375 
Q 53.90625 64.015625 53.90625 55.328125 
Q 53.90625 49.265625 50.4375 45.09375 
Q 46.96875 40.921875 40.578125 39.3125 
z
" id="DejaVuSans-51"/>
      </defs>
      <g transform="translate(198.459375 239.238438)scale(0.1 -0.1)">
       <use xlink:href="#DejaVuSans-51"/>
      </g>
     </g>
    </g>
    <g id="xtick_5">
     <g id="line2d_5">
      <g>
       <use style="fill:#808080;stroke:#808080;stroke-width:0.8;" x="252.367898" xlink:href="#md542c79377" y="224.64"/>
      </g>
     </g>
     <g id="text_5">
      <!-- 4 -->
      <defs>
       <path d="M 37.796875 64.3125 
L 12.890625 25.390625 
L 37.796875 25.390625 
z
M 35.203125 72.90625 
L 47.609375 72.90625 
L 47.609375 25.390625 
L 58.015625 25.390625 
L 58.015625 17.1875 
L 47.609375 17.1875 
L 47.609375 0 
L 37.796875 0 
L 37.796875 17.1875 
L 4.890625 17.1875 
L 4.890625 26.703125 
z
" id="DejaVuSans-52"/>
      </defs>
      <g transform="translate(249.186648 239.238438)scale(0.1 -0.1)">
       <use xlink:href="#DejaVuSans-52"/>
      </g>
     </g>
    </g>
    <g id="xtick_6">
     <g id="line2d_6">
      <g>
       <use style="fill:#808080;stroke:#808080;stroke-width:0.8;" x="303.09517" xlink:href="#md542c79377" y="224.64"/>
      </g>
     </g>
     <g id="text_6">
      <!-- 5 -->
      <defs>
       <path d="M 10.796875 72.90625 
L 49.515625 72.90625 
L 49.515625 64.59375 
L 19.828125 64.59375 
L 19.828125 46.734375 
Q 21.96875 47.46875 24.109375 47.828125 
Q 26.265625 48.1875 28.421875 48.1875 
Q 40.625 48.1875 47.75 41.5 
Q 54.890625 34.8125 54.890625 23.390625 
Q 54.890625 11.625 47.5625 5.09375 
Q 40.234375 -1.421875 26.90625 -1.421875 
Q 22.3125 -1.421875 17.546875 -0.640625 
Q 12.796875 0.140625 7.71875 1.703125 
L 7.71875 11.625 
Q 12.109375 9.234375 16.796875 8.0625 
Q 21.484375 6.890625 26.703125 6.890625 
Q 35.15625 6.890625 40.078125 11.328125 
Q 45.015625 15.765625 45.015625 23.390625 
Q 45.015625 31 40.078125 35.4375 
Q 35.15625 39.890625 26.703125 39.890625 
Q 22.75 39.890625 18.8125 39.015625 
Q 14.890625 38.140625 10.796875 36.28125 
z
" id="DejaVuSans-53"/>
      </defs>
      <g transform="translate(299.91392 239.238438)scale(0.1 -0.1)">
       <use xlink:href="#DejaVuSans-53"/>
      </g>
     </g>
    </g>
    <g id="xtick_7">
     <g id="line2d_7">
      <g>
       <use style="fill:#808080;stroke:#808080;stroke-width:0.8;" x="353.822443" xlink:href="#md542c79377" y="224.64"/>
      </g>
     </g>
     <g id="text_7">
      <!-- 6 -->
      <defs>
       <path d="M 33.015625 40.375 
Q 26.375 40.375 22.484375 35.828125 
Q 18.609375 31.296875 18.609375 23.390625 
Q 18.609375 15.53125 22.484375 10.953125 
Q 26.375 6.390625 33.015625 6.390625 
Q 39.65625 6.390625 43.53125 10.953125 
Q 47.40625 15.53125 47.40625 23.390625 
Q 47.40625 31.296875 43.53125 35.828125 
Q 39.65625 40.375 33.015625 40.375 
z
M 52.59375 71.296875 
L 52.59375 62.3125 
Q 48.875 64.0625 45.09375 64.984375 
Q 41.3125 65.921875 37.59375 65.921875 
Q 27.828125 65.921875 22.671875 59.328125 
Q 17.53125 52.734375 16.796875 39.40625 
Q 19.671875 43.65625 24.015625 45.921875 
Q 28.375 48.1875 33.59375 48.1875 
Q 44.578125 48.1875 50.953125 41.515625 
Q 57.328125 34.859375 57.328125 23.390625 
Q 57.328125 12.15625 50.6875 5.359375 
Q 44.046875 -1.421875 33.015625 -1.421875 
Q 20.359375 -1.421875 13.671875 8.265625 
Q 6.984375 17.96875 6.984375 36.375 
Q 6.984375 53.65625 15.1875 63.9375 
Q 23.390625 74.21875 37.203125 74.21875 
Q 40.921875 74.21875 44.703125 73.484375 
Q 48.484375 72.75 52.59375 71.296875 
z
" id="DejaVuSans-54"/>
      </defs>
      <g transform="translate(350.641193 239.238438)scale(0.1 -0.1)">
       <use xlink:href="#DejaVuSans-54"/>
      </g>
     </g>
    </g>
    <g id="text_8">
     <!-- X -->
     <defs>
      <path d="M 6.296875 72.90625 
L 16.890625 72.90625 
L 35.015625 45.796875 
L 53.21875 72.90625 
L 63.8125 72.90625 
L 40.375 37.890625 
L 65.375 0 
L 54.78125 0 
L 34.28125 31 
L 13.625 0 
L 2.984375 0 
L 29 38.921875 
z
" id="DejaVuSans-88"/>
     </defs>
     <g transform="translate(198.215625 252.916563)scale(0.1 -0.1)">
      <use xlink:href="#DejaVuSans-88"/>
     </g>
    </g>
   </g>
   <g id="matplotlib.axis_2">
    <g id="ytick_1">
     <g id="line2d_8">
      <defs>
       <path d="M 0 0 
L -3.5 0 
" id="m89100c2c0d" style="stroke:#808080;stroke-width:0.8;"/>
      </defs>
      <g>
       <use style="fill:#808080;stroke:#808080;stroke-width:0.8;" x="34.240625" xlink:href="#m89100c2c0d" y="193.215109"/>
      </g>
     </g>
     <g id="text_9">
      <!-- 0 -->
      <g transform="translate(20.878125 197.014328)scale(0.1 -0.1)">
       <use xlink:href="#DejaVuSans-48"/>
      </g>
     </g>
    </g>
    <g id="ytick_2">
     <g id="line2d_9">
      <g>
       <use style="fill:#808080;stroke:#808080;stroke-width:0.8;" x="34.240625" xlink:href="#m89100c2c0d" y="150.1326"/>
      </g>
     </g>
     <g id="text_10">
      <!-- 2 -->
      <g transform="translate(20.878125 153.931819)scale(0.1 -0.1)">
       <use xlink:href="#DejaVuSans-50"/>
      </g>
     </g>
    </g>
    <g id="ytick_3">
     <g id="line2d_10">
      <g>
       <use style="fill:#808080;stroke:#808080;stroke-width:0.8;" x="34.240625" xlink:href="#m89100c2c0d" y="107.050091"/>
      </g>
     </g>
     <g id="text_11">
      <!-- 4 -->
      <g transform="translate(20.878125 110.84931)scale(0.1 -0.1)">
       <use xlink:href="#DejaVuSans-52"/>
      </g>
     </g>
    </g>
    <g id="ytick_4">
     <g id="line2d_11">
      <g>
       <use style="fill:#808080;stroke:#808080;stroke-width:0.8;" x="34.240625" xlink:href="#m89100c2c0d" y="63.967582"/>
      </g>
     </g>
     <g id="text_12">
      <!-- 6 -->
      <g transform="translate(20.878125 67.766801)scale(0.1 -0.1)">
       <use xlink:href="#DejaVuSans-54"/>
      </g>
     </g>
    </g>
    <g id="ytick_5">
     <g id="line2d_12">
      <g>
       <use style="fill:#808080;stroke:#808080;stroke-width:0.8;" x="34.240625" xlink:href="#m89100c2c0d" y="20.885073"/>
      </g>
     </g>
     <g id="text_13">
      <!-- 8 -->
      <defs>
       <path d="M 31.78125 34.625 
Q 24.75 34.625 20.71875 30.859375 
Q 16.703125 27.09375 16.703125 20.515625 
Q 16.703125 13.921875 20.71875 10.15625 
Q 24.75 6.390625 31.78125 6.390625 
Q 38.8125 6.390625 42.859375 10.171875 
Q 46.921875 13.96875 46.921875 20.515625 
Q 46.921875 27.09375 42.890625 30.859375 
Q 38.875 34.625 31.78125 34.625 
z
M 21.921875 38.8125 
Q 15.578125 40.375 12.03125 44.71875 
Q 8.5 49.078125 8.5 55.328125 
Q 8.5 64.0625 14.71875 69.140625 
Q 20.953125 74.21875 31.78125 74.21875 
Q 42.671875 74.21875 48.875 69.140625 
Q 55.078125 64.0625 55.078125 55.328125 
Q 55.078125 49.078125 51.53125 44.71875 
Q 48 40.375 41.703125 38.8125 
Q 48.828125 37.15625 52.796875 32.3125 
Q 56.78125 27.484375 56.78125 20.515625 
Q 56.78125 9.90625 50.3125 4.234375 
Q 43.84375 -1.421875 31.78125 -1.421875 
Q 19.734375 -1.421875 13.25 4.234375 
Q 6.78125 9.90625 6.78125 20.515625 
Q 6.78125 27.484375 10.78125 32.3125 
Q 14.796875 37.15625 21.921875 38.8125 
z
M 18.3125 54.390625 
Q 18.3125 48.734375 21.84375 45.5625 
Q 25.390625 42.390625 31.78125 42.390625 
Q 38.140625 42.390625 41.71875 45.5625 
Q 45.3125 48.734375 45.3125 54.390625 
Q 45.3125 60.0625 41.71875 63.234375 
Q 38.140625 66.40625 31.78125 66.40625 
Q 25.390625 66.40625 21.84375 63.234375 
Q 18.3125 60.0625 18.3125 54.390625 
z
" id="DejaVuSans-56"/>
      </defs>
      <g transform="translate(20.878125 24.684292)scale(0.1 -0.1)">
       <use xlink:href="#DejaVuSans-56"/>
      </g>
     </g>
    </g>
    <g id="text_14">
     <!-- Gold content -->
     <defs>
      <path d="M 59.515625 10.40625 
L 59.515625 29.984375 
L 43.40625 29.984375 
L 43.40625 38.09375 
L 69.28125 38.09375 
L 69.28125 6.78125 
Q 63.578125 2.734375 56.6875 0.65625 
Q 49.8125 -1.421875 42 -1.421875 
Q 24.90625 -1.421875 15.25 8.5625 
Q 5.609375 18.5625 5.609375 36.375 
Q 5.609375 54.25 15.25 64.234375 
Q 24.90625 74.21875 42 74.21875 
Q 49.125 74.21875 55.546875 72.453125 
Q 61.96875 70.703125 67.390625 67.28125 
L 67.390625 56.78125 
Q 61.921875 61.421875 55.765625 63.765625 
Q 49.609375 66.109375 42.828125 66.109375 
Q 29.4375 66.109375 22.71875 58.640625 
Q 16.015625 51.171875 16.015625 36.375 
Q 16.015625 21.625 22.71875 14.15625 
Q 29.4375 6.6875 42.828125 6.6875 
Q 48.046875 6.6875 52.140625 7.59375 
Q 56.25 8.5 59.515625 10.40625 
z
" id="DejaVuSans-71"/>
      <path d="M 30.609375 48.390625 
Q 23.390625 48.390625 19.1875 42.75 
Q 14.984375 37.109375 14.984375 27.296875 
Q 14.984375 17.484375 19.15625 11.84375 
Q 23.34375 6.203125 30.609375 6.203125 
Q 37.796875 6.203125 41.984375 11.859375 
Q 46.1875 17.53125 46.1875 27.296875 
Q 46.1875 37.015625 41.984375 42.703125 
Q 37.796875 48.390625 30.609375 48.390625 
z
M 30.609375 56 
Q 42.328125 56 49.015625 48.375 
Q 55.71875 40.765625 55.71875 27.296875 
Q 55.71875 13.875 49.015625 6.21875 
Q 42.328125 -1.421875 30.609375 -1.421875 
Q 18.84375 -1.421875 12.171875 6.21875 
Q 5.515625 13.875 5.515625 27.296875 
Q 5.515625 40.765625 12.171875 48.375 
Q 18.84375 56 30.609375 56 
z
" id="DejaVuSans-111"/>
      <path d="M 9.421875 75.984375 
L 18.40625 75.984375 
L 18.40625 0 
L 9.421875 0 
z
" id="DejaVuSans-108"/>
      <path d="M 45.40625 46.390625 
L 45.40625 75.984375 
L 54.390625 75.984375 
L 54.390625 0 
L 45.40625 0 
L 45.40625 8.203125 
Q 42.578125 3.328125 38.25 0.953125 
Q 33.9375 -1.421875 27.875 -1.421875 
Q 17.96875 -1.421875 11.734375 6.484375 
Q 5.515625 14.40625 5.515625 27.296875 
Q 5.515625 40.1875 11.734375 48.09375 
Q 17.96875 56 27.875 56 
Q 33.9375 56 38.25 53.625 
Q 42.578125 51.265625 45.40625 46.390625 
z
M 14.796875 27.296875 
Q 14.796875 17.390625 18.875 11.75 
Q 22.953125 6.109375 30.078125 6.109375 
Q 37.203125 6.109375 41.296875 11.75 
Q 45.40625 17.390625 45.40625 27.296875 
Q 45.40625 37.203125 41.296875 42.84375 
Q 37.203125 48.484375 30.078125 48.484375 
Q 22.953125 48.484375 18.875 42.84375 
Q 14.796875 37.203125 14.796875 27.296875 
z
" id="DejaVuSans-100"/>
      <path id="DejaVuSans-32"/>
      <path d="M 48.78125 52.59375 
L 48.78125 44.1875 
Q 44.96875 46.296875 41.140625 47.34375 
Q 37.3125 48.390625 33.40625 48.390625 
Q 24.65625 48.390625 19.8125 42.84375 
Q 14.984375 37.3125 14.984375 27.296875 
Q 14.984375 17.28125 19.8125 11.734375 
Q 24.65625 6.203125 33.40625 6.203125 
Q 37.3125 6.203125 41.140625 7.25 
Q 44.96875 8.296875 48.78125 10.40625 
L 48.78125 2.09375 
Q 45.015625 0.34375 40.984375 -0.53125 
Q 36.96875 -1.421875 32.421875 -1.421875 
Q 20.0625 -1.421875 12.78125 6.34375 
Q 5.515625 14.109375 5.515625 27.296875 
Q 5.515625 40.671875 12.859375 48.328125 
Q 20.21875 56 33.015625 56 
Q 37.15625 56 41.109375 55.140625 
Q 45.0625 54.296875 48.78125 52.59375 
z
" id="DejaVuSans-99"/>
      <path d="M 54.890625 33.015625 
L 54.890625 0 
L 45.90625 0 
L 45.90625 32.71875 
Q 45.90625 40.484375 42.875 44.328125 
Q 39.84375 48.1875 33.796875 48.1875 
Q 26.515625 48.1875 22.3125 43.546875 
Q 18.109375 38.921875 18.109375 30.90625 
L 18.109375 0 
L 9.078125 0 
L 9.078125 54.6875 
L 18.109375 54.6875 
L 18.109375 46.1875 
Q 21.34375 51.125 25.703125 53.5625 
Q 30.078125 56 35.796875 56 
Q 45.21875 56 50.046875 50.171875 
Q 54.890625 44.34375 54.890625 33.015625 
z
" id="DejaVuSans-110"/>
      <path d="M 18.3125 70.21875 
L 18.3125 54.6875 
L 36.8125 54.6875 
L 36.8125 47.703125 
L 18.3125 47.703125 
L 18.3125 18.015625 
Q 18.3125 11.328125 20.140625 9.421875 
Q 21.96875 7.515625 27.59375 7.515625 
L 36.8125 7.515625 
L 36.8125 0 
L 27.59375 0 
Q 17.1875 0 13.234375 3.875 
Q 9.28125 7.765625 9.28125 18.015625 
L 9.28125 47.703125 
L 2.6875 47.703125 
L 2.6875 54.6875 
L 9.28125 54.6875 
L 9.28125 70.21875 
z
" id="DejaVuSans-116"/>
      <path d="M 56.203125 29.59375 
L 56.203125 25.203125 
L 14.890625 25.203125 
Q 15.484375 15.921875 20.484375 11.0625 
Q 25.484375 6.203125 34.421875 6.203125 
Q 39.59375 6.203125 44.453125 7.46875 
Q 49.3125 8.734375 54.109375 11.28125 
L 54.109375 2.78125 
Q 49.265625 0.734375 44.1875 -0.34375 
Q 39.109375 -1.421875 33.890625 -1.421875 
Q 20.796875 -1.421875 13.15625 6.1875 
Q 5.515625 13.8125 5.515625 26.8125 
Q 5.515625 40.234375 12.765625 48.109375 
Q 20.015625 56 32.328125 56 
Q 43.359375 56 49.78125 48.890625 
Q 56.203125 41.796875 56.203125 29.59375 
z
M 47.21875 32.234375 
Q 47.125 39.59375 43.09375 43.984375 
Q 39.0625 48.390625 32.421875 48.390625 
Q 24.90625 48.390625 20.390625 44.140625 
Q 15.875 39.890625 15.1875 32.171875 
z
" id="DejaVuSans-101"/>
     </defs>
     <g transform="translate(14.798437 148.148906)rotate(-90)scale(0.1 -0.1)">
      <use xlink:href="#DejaVuSans-71"/>
      <use x="77.490234" xlink:href="#DejaVuSans-111"/>
      <use x="138.671875" xlink:href="#DejaVuSans-108"/>
      <use x="166.455078" xlink:href="#DejaVuSans-100"/>
      <use x="229.931641" xlink:href="#DejaVuSans-32"/>
      <use x="261.71875" xlink:href="#DejaVuSans-99"/>
      <use x="316.699219" xlink:href="#DejaVuSans-111"/>
      <use x="377.880859" xlink:href="#DejaVuSans-110"/>
      <use x="441.259766" xlink:href="#DejaVuSans-116"/>
      <use x="480.46875" xlink:href="#DejaVuSans-101"/>
      <use x="541.992188" xlink:href="#DejaVuSans-110"/>
      <use x="605.371094" xlink:href="#DejaVuSans-116"/>
     </g>
    </g>
   </g>
   <g id="line2d_13">
    <path clip-path="url(#pdc46e98274)" d="M 49.458807 193.215109 
L 353.822443 193.215109 
L 353.822443 193.215109 
" style="fill:none;stroke:#000000;stroke-linecap:square;stroke-width:1.5;"/>
   </g>
   <g id="line2d_14">
    <path clip-path="url(#pdc46e98274)" d="M 49.458807 131.893188 
L 53.523764 121.605405 
L 57.080601 113.189934 
L 60.637438 105.353434 
L 63.686155 99.116537 
L 66.734873 93.336697 
L 69.783591 88.024281 
L 72.832308 83.186974 
L 75.372906 79.522508 
L 77.913504 76.192989 
L 80.454102 73.198632 
L 82.9947 70.5384 
L 85.535298 68.210018 
L 88.075896 66.210008 
L 90.616494 64.533708 
L 93.157092 63.175309 
L 95.18957 62.312867 
L 97.222049 61.645436 
L 99.254527 61.168553 
L 101.287005 60.877346 
L 103.827603 60.766384 
L 106.368201 60.92617 
L 108.908799 61.344725 
L 111.449397 62.009255 
L 113.989995 62.906213 
L 116.530593 64.021355 
L 119.579311 65.626547 
L 122.628028 67.497707 
L 126.184865 69.979769 
L 129.741703 72.740447 
L 133.806659 76.176666 
L 138.887855 80.789485 
L 146.00153 87.589239 
L 156.672041 97.775826 
L 161.753237 102.313819 
L 165.818194 105.683729 
L 169.88315 108.759822 
L 173.439988 111.168875 
L 176.488705 112.998187 
L 179.537423 114.590611 
L 182.58614 115.929664 
L 185.634858 117.000798 
L 188.175456 117.679643 
L 190.716054 118.157535 
L 193.256652 118.429348 
L 195.79725 118.491002 
L 198.337848 118.339475 
L 200.878446 117.972822 
L 203.419044 117.390176 
L 205.959642 116.591753 
L 208.50024 115.578853 
L 211.040837 114.353852 
L 214.089555 112.608806 
L 217.138273 110.571312 
L 220.18699 108.251472 
L 223.235708 105.661482 
L 226.792545 102.317465 
L 230.349382 98.651092 
L 234.414339 94.104002 
L 238.479296 89.223154 
L 243.052372 83.400468 
L 248.641687 75.924971 
L 257.78784 63.25445 
L 266.425873 51.398904 
L 272.015189 44.112889 
L 276.588265 38.531778 
L 280.653222 33.945136 
L 284.210059 30.276832 
L 287.258776 27.423968 
L 290.307494 24.868192 
L 293.356212 22.634887 
L 295.89681 21.037502 
L 298.437408 19.693863 
L 300.978005 18.616282 
L 303.518603 17.816224 
L 305.551082 17.383127 
L 307.58356 17.139398 
L 309.616039 17.089603 
L 311.648517 17.237889 
L 313.680995 17.587967 
L 315.713474 18.143096 
L 317.745952 18.906079 
L 319.77843 19.879241 
L 321.810909 21.064427 
L 323.843387 22.462988 
L 326.383985 24.512494 
L 328.924583 26.897228 
L 331.465181 29.616467 
L 334.005779 32.668215 
L 336.546377 36.049187 
L 339.086975 39.754806 
L 342.135693 44.621728 
L 345.18441 49.935022 
L 348.233128 55.679432 
L 351.789965 62.902126 
L 353.822443 67.269425 
L 353.822443 67.269425 
" style="fill:none;stroke:#800080;stroke-linecap:square;stroke-width:1.5;"/>
   </g>
   <g id="patch_3">
    <path d="M 34.240625 224.64 
L 34.240625 7.2 
" style="fill:none;stroke:#808080;stroke-linecap:square;stroke-linejoin:miter;stroke-width:0.5;"/>
   </g>
   <g id="patch_4">
    <path d="M 34.240625 224.64 
L 369.040625 224.64 
" style="fill:none;stroke:#808080;stroke-linecap:square;stroke-linejoin:miter;stroke-width:0.5;"/>
   </g>
   <g id="legend_1">
    <g id="patch_5">
     <path d="M 41.240625 44.55625 
L 120.576562 44.55625 
Q 122.576562 44.55625 122.576562 42.55625 
L 122.576562 14.2 
Q 122.576562 12.2 120.576562 12.2 
L 41.240625 12.2 
Q 39.240625 12.2 39.240625 14.2 
L 39.240625 42.55625 
Q 39.240625 44.55625 41.240625 44.55625 
z
" style="fill:#ffffff;opacity:0.8;stroke:#cccccc;stroke-linejoin:miter;"/>
    </g>
    <g id="line2d_15">
     <path d="M 43.240625 20.298438 
L 63.240625 20.298438 
" style="fill:none;stroke:#000000;stroke-linecap:square;stroke-width:1.5;"/>
    </g>
    <g id="line2d_16"/>
    <g id="text_15">
     <!-- Predicted -->
     <defs>
      <path d="M 19.671875 64.796875 
L 19.671875 37.40625 
L 32.078125 37.40625 
Q 38.96875 37.40625 42.71875 40.96875 
Q 46.484375 44.53125 46.484375 51.125 
Q 46.484375 57.671875 42.71875 61.234375 
Q 38.96875 64.796875 32.078125 64.796875 
z
M 9.8125 72.90625 
L 32.078125 72.90625 
Q 44.34375 72.90625 50.609375 67.359375 
Q 56.890625 61.8125 56.890625 51.125 
Q 56.890625 40.328125 50.609375 34.8125 
Q 44.34375 29.296875 32.078125 29.296875 
L 19.671875 29.296875 
L 19.671875 0 
L 9.8125 0 
z
" id="DejaVuSans-80"/>
      <path d="M 41.109375 46.296875 
Q 39.59375 47.171875 37.8125 47.578125 
Q 36.03125 48 33.890625 48 
Q 26.265625 48 22.1875 43.046875 
Q 18.109375 38.09375 18.109375 28.8125 
L 18.109375 0 
L 9.078125 0 
L 9.078125 54.6875 
L 18.109375 54.6875 
L 18.109375 46.1875 
Q 20.953125 51.171875 25.484375 53.578125 
Q 30.03125 56 36.53125 56 
Q 37.453125 56 38.578125 55.875 
Q 39.703125 55.765625 41.0625 55.515625 
z
" id="DejaVuSans-114"/>
      <path d="M 9.421875 54.6875 
L 18.40625 54.6875 
L 18.40625 0 
L 9.421875 0 
z
M 9.421875 75.984375 
L 18.40625 75.984375 
L 18.40625 64.59375 
L 9.421875 64.59375 
z
" id="DejaVuSans-105"/>
     </defs>
     <g transform="translate(71.240625 23.798438)scale(0.1 -0.1)">
      <use xlink:href="#DejaVuSans-80"/>
      <use x="60.287109" xlink:href="#DejaVuSans-114"/>
      <use x="101.369141" xlink:href="#DejaVuSans-101"/>
      <use x="162.892578" xlink:href="#DejaVuSans-100"/>
      <use x="226.369141" xlink:href="#DejaVuSans-105"/>
      <use x="254.152344" xlink:href="#DejaVuSans-99"/>
      <use x="309.132812" xlink:href="#DejaVuSans-116"/>
      <use x="348.341797" xlink:href="#DejaVuSans-101"/>
      <use x="409.865234" xlink:href="#DejaVuSans-100"/>
     </g>
    </g>
    <g id="line2d_17">
     <path d="M 43.240625 34.976562 
L 63.240625 34.976562 
" style="fill:none;stroke:#800080;stroke-linecap:square;stroke-width:1.5;"/>
    </g>
    <g id="line2d_18"/>
    <g id="text_16">
     <!-- GT -->
     <defs>
      <path d="M -0.296875 72.90625 
L 61.375 72.90625 
L 61.375 64.59375 
L 35.5 64.59375 
L 35.5 0 
L 25.59375 0 
L 25.59375 64.59375 
L -0.296875 64.59375 
z
" id="DejaVuSans-84"/>
     </defs>
     <g transform="translate(71.240625 38.476562)scale(0.1 -0.1)">
      <use xlink:href="#DejaVuSans-71"/>
      <use x="77.443359" xlink:href="#DejaVuSans-84"/>
     </g>
    </g>
   </g>
  </g>
 </g>
 <defs>
  <clipPath id="pdc46e98274">
   <rect height="217.44" width="334.8" x="34.240625" y="7.2"/>
  </clipPath>
 </defs>
</svg>
