<?xml version="1.0" encoding="utf-8" standalone="no"?>
<!DOCTYPE svg PUBLIC "-//W3C//DTD SVG 1.1//EN"
  "http://www.w3.org/Graphics/SVG/1.1/DTD/svg11.dtd">
<!-- Created with matplotlib (https://matplotlib.org/) -->
<svg height="277.548125pt" version="1.1" viewBox="0 0 504.313875 277.548125" width="504.313875pt" xmlns="http://www.w3.org/2000/svg" xmlns:xlink="http://www.w3.org/1999/xlink">
 <defs>
  <style type="text/css">
*{stroke-linecap:butt;stroke-linejoin:round;}
  </style>
 </defs>
 <g id="figure_1">
  <g id="patch_1">
   <path d="M 0 277.548125 
L 504.313875 277.548125 
L 504.313875 0 
L 0 0 
z
" style="fill:#ffffff;"/>
  </g>
  <g id="axes_1">
   <g id="patch_2">
    <path d="M 34.421875 239.95125 
L 369.221875 239.95125 
L 369.221875 22.51125 
L 34.421875 22.51125 
z
" style="fill:#ffffff;"/>
   </g>
   <g id="PolyCollection_1">
    <defs>
     <path d="M 49.640057 -86.545126 
L 49.640057 -168.139911 
L 50.148176 -168.139911 
L 50.656296 -168.139911 
L 51.164416 -168.139911 
L 51.672535 -168.139911 
L 52.180655 -168.139911 
L 52.688774 -168.139911 
L 53.196894 -168.139911 
L 53.705014 -168.139911 
L 54.213133 -168.139911 
L 54.721253 -168.139911 
L 55.229372 -168.139911 
L 55.737492 -168.139911 
L 56.245612 -168.139911 
L 56.753731 -168.139911 
L 57.261851 -168.139911 
L 57.76997 -168.139911 
L 58.27809 -168.139911 
L 58.786209 -168.139911 
L 59.294329 -168.139911 
L 59.802449 -168.139911 
L 60.310568 -168.139911 
L 60.818688 -168.139911 
L 61.326807 -168.139911 
L 61.834927 -168.139911 
L 62.343047 -168.139911 
L 62.851166 -168.139911 
L 63.359286 -168.139911 
L 63.867405 -168.139911 
L 64.375525 -168.139911 
L 64.883645 -168.139911 
L 65.391764 -168.139911 
L 65.899884 -168.139911 
L 66.408003 -168.139911 
L 66.916123 -168.139911 
L 67.424243 -168.139911 
L 67.932362 -168.139911 
L 68.440482 -168.139911 
L 68.948601 -168.139911 
L 69.456721 -168.139911 
L 69.964841 -168.139911 
L 70.47296 -168.139911 
L 70.98108 -168.139911 
L 71.489199 -168.139911 
L 71.997319 -168.139911 
L 72.505439 -168.139911 
L 73.013558 -168.139911 
L 73.521678 -168.139911 
L 74.029797 -168.139911 
L 74.537917 -168.139911 
L 75.046036 -168.139911 
L 75.554156 -168.139911 
L 76.062276 -168.139911 
L 76.570395 -168.139911 
L 77.078515 -168.139911 
L 77.586634 -168.139911 
L 78.094754 -168.139911 
L 78.602874 -168.139911 
L 79.110993 -168.139911 
L 79.619113 -168.139911 
L 80.127232 -168.139911 
L 80.635352 -168.139911 
L 81.143472 -168.139911 
L 81.651591 -168.139911 
L 82.159711 -168.139911 
L 82.66783 -168.139911 
L 83.17595 -168.139911 
L 83.68407 -168.139911 
L 84.192189 -168.139911 
L 84.700309 -168.139911 
L 85.208428 -168.139911 
L 85.716548 -168.139911 
L 86.224668 -168.139911 
L 86.732787 -168.139911 
L 87.240907 -168.139911 
L 87.749026 -168.139911 
L 88.257146 -168.139911 
L 88.765265 -168.139911 
L 89.273385 -168.139911 
L 89.781505 -168.139911 
L 90.289624 -168.139911 
L 90.797744 -168.139911 
L 91.305863 -168.139911 
L 91.813983 -168.139911 
L 92.322103 -168.139911 
L 92.830222 -168.139911 
L 93.338342 -168.139911 
L 93.846461 -168.139911 
L 94.354581 -168.139911 
L 94.862701 -168.139911 
L 95.37082 -168.139911 
L 95.87894 -168.139911 
L 96.387059 -168.139911 
L 96.895179 -168.139911 
L 97.403299 -168.139911 
L 97.911418 -168.139911 
L 98.419538 -168.139911 
L 98.927657 -168.139911 
L 99.435777 -168.139911 
L 99.943897 -168.139911 
L 100.452016 -168.139911 
L 100.960136 -168.139911 
L 101.468255 -168.139911 
L 101.976375 -168.139911 
L 102.484495 -168.139911 
L 102.992614 -168.139911 
L 103.500734 -168.139911 
L 104.008853 -168.139911 
L 104.516973 -168.139911 
L 105.025092 -168.139911 
L 105.533212 -168.139911 
L 106.041332 -168.139911 
L 106.549451 -168.139911 
L 107.057571 -168.139911 
L 107.56569 -168.139911 
L 108.07381 -168.139911 
L 108.58193 -168.139911 
L 109.090049 -168.139911 
L 109.598169 -168.139911 
L 110.106288 -168.139911 
L 110.614408 -168.139911 
L 111.122528 -168.139911 
L 111.630647 -168.139911 
L 112.138767 -168.139911 
L 112.646886 -168.139911 
L 113.155006 -168.139911 
L 113.663126 -168.139911 
L 114.171245 -168.139911 
L 114.679365 -168.139911 
L 115.187484 -168.139911 
L 115.695604 -168.139911 
L 116.203724 -168.139911 
L 116.711843 -168.139911 
L 117.219963 -168.139911 
L 117.728082 -168.139911 
L 118.236202 -168.139911 
L 118.744322 -168.139911 
L 119.252441 -168.139911 
L 119.760561 -168.139911 
L 120.26868 -168.139911 
L 120.7768 -168.139911 
L 121.284919 -168.139911 
L 121.793039 -168.139911 
L 122.301159 -168.139911 
L 122.809278 -168.139911 
L 123.317398 -168.139911 
L 123.825517 -168.139911 
L 124.333637 -168.139911 
L 124.841757 -168.139911 
L 125.349876 -168.139911 
L 125.857996 -168.139911 
L 126.366115 -168.139911 
L 126.874235 -168.139911 
L 127.382355 -168.139911 
L 127.890474 -168.139911 
L 128.398594 -168.139911 
L 128.906713 -168.139911 
L 129.414833 -168.139911 
L 129.922953 -168.139911 
L 130.431072 -168.139911 
L 130.939192 -168.139911 
L 131.447311 -168.139911 
L 131.955431 -168.139911 
L 132.463551 -168.139911 
L 132.97167 -168.139911 
L 133.47979 -168.139911 
L 133.987909 -168.139911 
L 134.496029 -168.139911 
L 135.004148 -168.139911 
L 135.512268 -168.139911 
L 136.020388 -168.139911 
L 136.528507 -168.139911 
L 137.036627 -168.139911 
L 137.544746 -168.139911 
L 138.052866 -168.139911 
L 138.560986 -168.139911 
L 139.069105 -168.139911 
L 139.577225 -168.139911 
L 140.085344 -168.139911 
L 140.593464 -168.139911 
L 141.101584 -168.139911 
L 141.609703 -168.139911 
L 142.117823 -168.139911 
L 142.625942 -168.139911 
L 143.134062 -168.139911 
L 143.642182 -168.139911 
L 144.150301 -168.139911 
L 144.658421 -168.139911 
L 145.16654 -168.139911 
L 145.67466 -168.139911 
L 146.18278 -168.139911 
L 146.690899 -168.139911 
L 147.199019 -168.139911 
L 147.707138 -168.139911 
L 148.215258 -168.139911 
L 148.723378 -168.139911 
L 149.231497 -168.139911 
L 149.739617 -168.139911 
L 150.247736 -168.139911 
L 150.755856 -168.139911 
L 151.263975 -168.139911 
L 151.772095 -168.139911 
L 152.280215 -168.139911 
L 152.788334 -168.139911 
L 153.296454 -168.139911 
L 153.804573 -168.139911 
L 154.312693 -168.139911 
L 154.820813 -168.139911 
L 155.328932 -168.139911 
L 155.837052 -168.139911 
L 156.345171 -168.139911 
L 156.853291 -168.139911 
L 157.361411 -168.139911 
L 157.86953 -168.139911 
L 158.37765 -168.139911 
L 158.885769 -168.139911 
L 159.393889 -168.139911 
L 159.902009 -168.139911 
L 160.410128 -168.139911 
L 160.918248 -168.139911 
L 161.426367 -168.139911 
L 161.934487 -168.139911 
L 162.442607 -168.139911 
L 162.950726 -168.139911 
L 163.458846 -168.139911 
L 163.966965 -168.139911 
L 164.475085 -168.139911 
L 164.983204 -168.139911 
L 165.491324 -168.139911 
L 165.999444 -168.139911 
L 166.507563 -168.139911 
L 167.015683 -168.139911 
L 167.523802 -168.139911 
L 168.031922 -168.139911 
L 168.540042 -168.139911 
L 169.048161 -168.139911 
L 169.556281 -168.139911 
L 170.0644 -168.139911 
L 170.57252 -168.139911 
L 171.08064 -168.139911 
L 171.588759 -168.139911 
L 172.096879 -168.139911 
L 172.604998 -168.139911 
L 173.113118 -168.139911 
L 173.621238 -168.139911 
L 174.129357 -168.139911 
L 174.637477 -168.139911 
L 175.145596 -168.139911 
L 175.653716 -168.139911 
L 176.161836 -168.139911 
L 176.669955 -168.139911 
L 177.178075 -168.139911 
L 177.686194 -168.139911 
L 178.194314 -168.139911 
L 178.702434 -168.139911 
L 179.210553 -168.139911 
L 179.718673 -168.139911 
L 180.226792 -168.139911 
L 180.734912 -168.139911 
L 181.243031 -168.139911 
L 181.751151 -168.139911 
L 182.259271 -168.139911 
L 182.76739 -168.139911 
L 183.27551 -168.139911 
L 183.783629 -168.139911 
L 184.291749 -168.139911 
L 184.799869 -168.139911 
L 185.307988 -168.139911 
L 185.816108 -168.139911 
L 186.324227 -168.139911 
L 186.832347 -168.139911 
L 187.340467 -168.139911 
L 187.848586 -168.139911 
L 188.356706 -168.139911 
L 188.864825 -168.139911 
L 189.372945 -168.139911 
L 189.881065 -168.139911 
L 190.389184 -168.139911 
L 190.897304 -168.139911 
L 191.405423 -168.139911 
L 191.913543 -168.139911 
L 192.421663 -168.139911 
L 192.929782 -168.139911 
L 193.437902 -168.139911 
L 193.946021 -168.139911 
L 194.454141 -168.139911 
L 194.96226 -168.139911 
L 195.47038 -168.139911 
L 195.9785 -168.139911 
L 196.486619 -168.139911 
L 196.994739 -168.139911 
L 197.502858 -168.139911 
L 198.010978 -168.139911 
L 198.519098 -168.139911 
L 199.027217 -168.139911 
L 199.535337 -168.139911 
L 200.043456 -168.139911 
L 200.551576 -168.139911 
L 201.059696 -168.139911 
L 201.567815 -168.139911 
L 202.075935 -168.139911 
L 202.584054 -168.139911 
L 203.092174 -168.139911 
L 203.600294 -168.139911 
L 204.108413 -168.139911 
L 204.616533 -168.139911 
L 205.124652 -168.139911 
L 205.632772 -168.139911 
L 206.140892 -168.139911 
L 206.649011 -168.139911 
L 207.157131 -168.139911 
L 207.66525 -168.139911 
L 208.17337 -168.139911 
L 208.68149 -168.139911 
L 209.189609 -168.139911 
L 209.697729 -168.139911 
L 210.205848 -168.139911 
L 210.713968 -168.139911 
L 211.222087 -168.139911 
L 211.730207 -168.139911 
L 212.238327 -168.139911 
L 212.746446 -168.139911 
L 213.254566 -168.139911 
L 213.762685 -168.139911 
L 214.270805 -168.139911 
L 214.778925 -168.139911 
L 215.287044 -168.139911 
L 215.795164 -168.139911 
L 216.303283 -168.139911 
L 216.811403 -168.139911 
L 217.319523 -168.139911 
L 217.827642 -168.139911 
L 218.335762 -168.139911 
L 218.843881 -168.139911 
L 219.352001 -168.139911 
L 219.860121 -168.139911 
L 220.36824 -168.139911 
L 220.87636 -168.139911 
L 221.384479 -168.139911 
L 221.892599 -168.139911 
L 222.400719 -168.139911 
L 222.908838 -168.139911 
L 223.416958 -168.139911 
L 223.925077 -168.139911 
L 224.433197 -168.139911 
L 224.941316 -168.139911 
L 225.449436 -168.139911 
L 225.957556 -168.139911 
L 226.465675 -168.139911 
L 226.973795 -168.139911 
L 227.481914 -168.139911 
L 227.990034 -168.139911 
L 228.498154 -168.139911 
L 229.006273 -168.139911 
L 229.514393 -168.139911 
L 230.022512 -168.139911 
L 230.530632 -168.139911 
L 231.038752 -168.139911 
L 231.546871 -168.139911 
L 232.054991 -168.139911 
L 232.56311 -168.139911 
L 233.07123 -168.139911 
L 233.57935 -168.139911 
L 234.087469 -168.139911 
L 234.595589 -168.139911 
L 235.103708 -168.139911 
L 235.611828 -168.139911 
L 236.119948 -168.139911 
L 236.628067 -168.139911 
L 237.136187 -168.139911 
L 237.644306 -168.139911 
L 238.152426 -168.139911 
L 238.660546 -168.139911 
L 239.168665 -168.139911 
L 239.676785 -168.139911 
L 240.184904 -168.139911 
L 240.693024 -168.139911 
L 241.201143 -168.139911 
L 241.709263 -168.139911 
L 242.217383 -168.139911 
L 242.725502 -168.139911 
L 243.233622 -168.139911 
L 243.741741 -168.139911 
L 244.249861 -168.139911 
L 244.757981 -168.139911 
L 245.2661 -168.139911 
L 245.77422 -168.139911 
L 246.282339 -168.139911 
L 246.790459 -168.139911 
L 247.298579 -168.139911 
L 247.806698 -168.139911 
L 248.314818 -168.139911 
L 248.822937 -168.139911 
L 249.331057 -168.139911 
L 249.839177 -168.139911 
L 250.347296 -168.139911 
L 250.855416 -168.139911 
L 251.363535 -168.139911 
L 251.871655 -168.139911 
L 252.379775 -168.139911 
L 252.887894 -168.139911 
L 253.396014 -168.139911 
L 253.904133 -168.139911 
L 254.412253 -168.139911 
L 254.920372 -168.139911 
L 255.428492 -168.139911 
L 255.936612 -168.139911 
L 256.444731 -168.139911 
L 256.952851 -168.139911 
L 257.46097 -168.139911 
L 257.96909 -168.139911 
L 258.47721 -168.139911 
L 258.985329 -168.139911 
L 259.493449 -168.139911 
L 260.001568 -168.139911 
L 260.509688 -168.139911 
L 261.017808 -168.139911 
L 261.525927 -168.139911 
L 262.034047 -168.139911 
L 262.542166 -168.139911 
L 263.050286 -168.139911 
L 263.558406 -168.139911 
L 264.066525 -168.139911 
L 264.574645 -168.139911 
L 265.082764 -168.139911 
L 265.590884 -168.139911 
L 266.099004 -168.139911 
L 266.607123 -168.139911 
L 267.115243 -168.139911 
L 267.623362 -168.139911 
L 268.131482 -168.139911 
L 268.639602 -168.139911 
L 269.147721 -168.139911 
L 269.655841 -168.139911 
L 270.16396 -168.139911 
L 270.67208 -168.139911 
L 271.180199 -168.139911 
L 271.688319 -168.139911 
L 272.196439 -168.139911 
L 272.704558 -168.139911 
L 273.212678 -168.139911 
L 273.720797 -168.139911 
L 274.228917 -168.139911 
L 274.737037 -168.139911 
L 275.245156 -168.139911 
L 275.753276 -168.139911 
L 276.261395 -168.139911 
L 276.769515 -168.139911 
L 277.277635 -168.139911 
L 277.785754 -168.139911 
L 278.293874 -168.139911 
L 278.801993 -168.139911 
L 279.310113 -168.139911 
L 279.818233 -168.139911 
L 280.326352 -168.139911 
L 280.834472 -168.139911 
L 281.342591 -168.139911 
L 281.850711 -168.139911 
L 282.358831 -168.139911 
L 282.86695 -168.139911 
L 283.37507 -168.139911 
L 283.883189 -168.139911 
L 284.391309 -168.139911 
L 284.899428 -168.139911 
L 285.407548 -168.139911 
L 285.915668 -168.139911 
L 286.423787 -168.139911 
L 286.931907 -168.139911 
L 287.440026 -168.139911 
L 287.948146 -168.139911 
L 288.456266 -168.139911 
L 288.964385 -168.139911 
L 289.472505 -168.139911 
L 289.980624 -168.139911 
L 290.488744 -168.139911 
L 290.996864 -168.139911 
L 291.504983 -168.139911 
L 292.013103 -168.139911 
L 292.521222 -168.139911 
L 293.029342 -168.139911 
L 293.537462 -168.139911 
L 294.045581 -168.139911 
L 294.553701 -168.139911 
L 295.06182 -168.139911 
L 295.56994 -168.139911 
L 296.07806 -168.139911 
L 296.586179 -168.139911 
L 297.094299 -168.139911 
L 297.602418 -168.139911 
L 298.110538 -168.139911 
L 298.618658 -168.139911 
L 299.126777 -168.139911 
L 299.634897 -168.139911 
L 300.143016 -168.139911 
L 300.651136 -168.139911 
L 301.159255 -168.139911 
L 301.667375 -168.139911 
L 302.175495 -168.139911 
L 302.683614 -168.139911 
L 303.191734 -168.139911 
L 303.699853 -168.139911 
L 304.207973 -168.139911 
L 304.716093 -168.139911 
L 305.224212 -168.139911 
L 305.732332 -168.139911 
L 306.240451 -168.139911 
L 306.748571 -168.139911 
L 307.256691 -168.139911 
L 307.76481 -168.139911 
L 308.27293 -168.139911 
L 308.781049 -168.139911 
L 309.289169 -168.139911 
L 309.797289 -168.139911 
L 310.305408 -168.139911 
L 310.813528 -168.139911 
L 311.321647 -168.139911 
L 311.829767 -168.139911 
L 312.337887 -168.139911 
L 312.846006 -168.139911 
L 313.354126 -168.139911 
L 313.862245 -168.139911 
L 314.370365 -168.139911 
L 314.878485 -168.139911 
L 315.386604 -168.139911 
L 315.894724 -168.139911 
L 316.402843 -168.139911 
L 316.910963 -168.139911 
L 317.419082 -168.139911 
L 317.927202 -168.139911 
L 318.435322 -168.139911 
L 318.943441 -168.139911 
L 319.451561 -168.139911 
L 319.95968 -168.139911 
L 320.4678 -168.139911 
L 320.97592 -168.139911 
L 321.484039 -168.139911 
L 321.992159 -168.139911 
L 322.500278 -168.139911 
L 323.008398 -168.139911 
L 323.516518 -168.139911 
L 324.024637 -168.139911 
L 324.532757 -168.139911 
L 325.040876 -168.139911 
L 325.548996 -168.139911 
L 326.057116 -168.139911 
L 326.565235 -168.139911 
L 327.073355 -168.139911 
L 327.581474 -168.139911 
L 328.089594 -168.139911 
L 328.597714 -168.139911 
L 329.105833 -168.139911 
L 329.613953 -168.139911 
L 330.122072 -168.139911 
L 330.630192 -168.139911 
L 331.138311 -168.139911 
L 331.646431 -168.139911 
L 332.154551 -168.139911 
L 332.66267 -168.139911 
L 333.17079 -168.139911 
L 333.678909 -168.139911 
L 334.187029 -168.139911 
L 334.695149 -168.139911 
L 335.203268 -168.139911 
L 335.711388 -168.139911 
L 336.219507 -168.139911 
L 336.727627 -168.139911 
L 337.235747 -168.139911 
L 337.743866 -168.139911 
L 338.251986 -168.139911 
L 338.760105 -168.139911 
L 339.268225 -168.139911 
L 339.776345 -168.139911 
L 340.284464 -168.139911 
L 340.792584 -168.139911 
L 341.300703 -168.139911 
L 341.808823 -168.139911 
L 342.316943 -168.139911 
L 342.825062 -168.139911 
L 343.333182 -168.139911 
L 343.841301 -168.139911 
L 344.349421 -168.139911 
L 344.857541 -168.139911 
L 345.36566 -168.139911 
L 345.87378 -168.139911 
L 346.381899 -168.139911 
L 346.890019 -168.139911 
L 347.398138 -168.139911 
L 347.906258 -168.139911 
L 348.414378 -168.139911 
L 348.922497 -168.139911 
L 349.430617 -168.139911 
L 349.938736 -168.139911 
L 350.446856 -168.139911 
L 350.954976 -168.139911 
L 351.463095 -168.139911 
L 351.971215 -168.139911 
L 352.479334 -168.139911 
L 352.987454 -168.139911 
L 353.495574 -168.139911 
L 354.003693 -168.139911 
L 354.003693 -86.545126 
L 354.003693 -86.545126 
L 353.495574 -86.545126 
L 352.987454 -86.545126 
L 352.479334 -86.545126 
L 351.971215 -86.545126 
L 351.463095 -86.545126 
L 350.954976 -86.545126 
L 350.446856 -86.545126 
L 349.938736 -86.545126 
L 349.430617 -86.545126 
L 348.922497 -86.545126 
L 348.414378 -86.545126 
L 347.906258 -86.545126 
L 347.398138 -86.545126 
L 346.890019 -86.545126 
L 346.381899 -86.545126 
L 345.87378 -86.545126 
L 345.36566 -86.545126 
L 344.857541 -86.545126 
L 344.349421 -86.545126 
L 343.841301 -86.545126 
L 343.333182 -86.545126 
L 342.825062 -86.545126 
L 342.316943 -86.545126 
L 341.808823 -86.545126 
L 341.300703 -86.545126 
L 340.792584 -86.545126 
L 340.284464 -86.545126 
L 339.776345 -86.545126 
L 339.268225 -86.545126 
L 338.760105 -86.545126 
L 338.251986 -86.545126 
L 337.743866 -86.545126 
L 337.235747 -86.545126 
L 336.727627 -86.545126 
L 336.219507 -86.545126 
L 335.711388 -86.545126 
L 335.203268 -86.545126 
L 334.695149 -86.545126 
L 334.187029 -86.545126 
L 333.678909 -86.545126 
L 333.17079 -86.545126 
L 332.66267 -86.545126 
L 332.154551 -86.545126 
L 331.646431 -86.545126 
L 331.138311 -86.545126 
L 330.630192 -86.545126 
L 330.122072 -86.545126 
L 329.613953 -86.545126 
L 329.105833 -86.545126 
L 328.597714 -86.545126 
L 328.089594 -86.545126 
L 327.581474 -86.545126 
L 327.073355 -86.545126 
L 326.565235 -86.545126 
L 326.057116 -86.545126 
L 325.548996 -86.545126 
L 325.040876 -86.545126 
L 324.532757 -86.545126 
L 324.024637 -86.545126 
L 323.516518 -86.545126 
L 323.008398 -86.545126 
L 322.500278 -86.545126 
L 321.992159 -86.545126 
L 321.484039 -86.545126 
L 320.97592 -86.545126 
L 320.4678 -86.545126 
L 319.95968 -86.545126 
L 319.451561 -86.545126 
L 318.943441 -86.545126 
L 318.435322 -86.545126 
L 317.927202 -86.545126 
L 317.419082 -86.545126 
L 316.910963 -86.545126 
L 316.402843 -86.545126 
L 315.894724 -86.545126 
L 315.386604 -86.545126 
L 314.878485 -86.545126 
L 314.370365 -86.545126 
L 313.862245 -86.545126 
L 313.354126 -86.545126 
L 312.846006 -86.545126 
L 312.337887 -86.545126 
L 311.829767 -86.545126 
L 311.321647 -86.545126 
L 310.813528 -86.545126 
L 310.305408 -86.545126 
L 309.797289 -86.545126 
L 309.289169 -86.545126 
L 308.781049 -86.545126 
L 308.27293 -86.545126 
L 307.76481 -86.545126 
L 307.256691 -86.545126 
L 306.748571 -86.545126 
L 306.240451 -86.545126 
L 305.732332 -86.545126 
L 305.224212 -86.545126 
L 304.716093 -86.545126 
L 304.207973 -86.545126 
L 303.699853 -86.545126 
L 303.191734 -86.545126 
L 302.683614 -86.545126 
L 302.175495 -86.545126 
L 301.667375 -86.545126 
L 301.159255 -86.545126 
L 300.651136 -86.545126 
L 300.143016 -86.545126 
L 299.634897 -86.545126 
L 299.126777 -86.545126 
L 298.618658 -86.545126 
L 298.110538 -86.545126 
L 297.602418 -86.545126 
L 297.094299 -86.545126 
L 296.586179 -86.545126 
L 296.07806 -86.545126 
L 295.56994 -86.545126 
L 295.06182 -86.545126 
L 294.553701 -86.545126 
L 294.045581 -86.545126 
L 293.537462 -86.545126 
L 293.029342 -86.545126 
L 292.521222 -86.545126 
L 292.013103 -86.545126 
L 291.504983 -86.545126 
L 290.996864 -86.545126 
L 290.488744 -86.545126 
L 289.980624 -86.545126 
L 289.472505 -86.545126 
L 288.964385 -86.545126 
L 288.456266 -86.545126 
L 287.948146 -86.545126 
L 287.440026 -86.545126 
L 286.931907 -86.545126 
L 286.423787 -86.545126 
L 285.915668 -86.545126 
L 285.407548 -86.545126 
L 284.899428 -86.545126 
L 284.391309 -86.545126 
L 283.883189 -86.545126 
L 283.37507 -86.545126 
L 282.86695 -86.545126 
L 282.358831 -86.545126 
L 281.850711 -86.545126 
L 281.342591 -86.545126 
L 280.834472 -86.545126 
L 280.326352 -86.545126 
L 279.818233 -86.545126 
L 279.310113 -86.545126 
L 278.801993 -86.545126 
L 278.293874 -86.545126 
L 277.785754 -86.545126 
L 277.277635 -86.545126 
L 276.769515 -86.545126 
L 276.261395 -86.545126 
L 275.753276 -86.545126 
L 275.245156 -86.545126 
L 274.737037 -86.545126 
L 274.228917 -86.545126 
L 273.720797 -86.545126 
L 273.212678 -86.545126 
L 272.704558 -86.545126 
L 272.196439 -86.545126 
L 271.688319 -86.545126 
L 271.180199 -86.545126 
L 270.67208 -86.545126 
L 270.16396 -86.545126 
L 269.655841 -86.545126 
L 269.147721 -86.545126 
L 268.639602 -86.545126 
L 268.131482 -86.545126 
L 267.623362 -86.545126 
L 267.115243 -86.545126 
L 266.607123 -86.545126 
L 266.099004 -86.545126 
L 265.590884 -86.545126 
L 265.082764 -86.545126 
L 264.574645 -86.545126 
L 264.066525 -86.545126 
L 263.558406 -86.545126 
L 263.050286 -86.545126 
L 262.542166 -86.545126 
L 262.034047 -86.545126 
L 261.525927 -86.545126 
L 261.017808 -86.545126 
L 260.509688 -86.545126 
L 260.001568 -86.545126 
L 259.493449 -86.545126 
L 258.985329 -86.545126 
L 258.47721 -86.545126 
L 257.96909 -86.545126 
L 257.46097 -86.545126 
L 256.952851 -86.545126 
L 256.444731 -86.545126 
L 255.936612 -86.545126 
L 255.428492 -86.545126 
L 254.920372 -86.545126 
L 254.412253 -86.545126 
L 253.904133 -86.545126 
L 253.396014 -86.545126 
L 252.887894 -86.545126 
L 252.379775 -86.545126 
L 251.871655 -86.545126 
L 251.363535 -86.545126 
L 250.855416 -86.545126 
L 250.347296 -86.545126 
L 249.839177 -86.545126 
L 249.331057 -86.545126 
L 248.822937 -86.545126 
L 248.314818 -86.545126 
L 247.806698 -86.545126 
L 247.298579 -86.545126 
L 246.790459 -86.545126 
L 246.282339 -86.545126 
L 245.77422 -86.545126 
L 245.2661 -86.545126 
L 244.757981 -86.545126 
L 244.249861 -86.545126 
L 243.741741 -86.545126 
L 243.233622 -86.545126 
L 242.725502 -86.545126 
L 242.217383 -86.545126 
L 241.709263 -86.545126 
L 241.201143 -86.545126 
L 240.693024 -86.545126 
L 240.184904 -86.545126 
L 239.676785 -86.545126 
L 239.168665 -86.545126 
L 238.660546 -86.545126 
L 238.152426 -86.545126 
L 237.644306 -86.545126 
L 237.136187 -86.545126 
L 236.628067 -86.545126 
L 236.119948 -86.545126 
L 235.611828 -86.545126 
L 235.103708 -86.545126 
L 234.595589 -86.545126 
L 234.087469 -86.545126 
L 233.57935 -86.545126 
L 233.07123 -86.545126 
L 232.56311 -86.545126 
L 232.054991 -86.545126 
L 231.546871 -86.545126 
L 231.038752 -86.545126 
L 230.530632 -86.545126 
L 230.022512 -86.545126 
L 229.514393 -86.545126 
L 229.006273 -86.545126 
L 228.498154 -86.545126 
L 227.990034 -86.545126 
L 227.481914 -86.545126 
L 226.973795 -86.545126 
L 226.465675 -86.545126 
L 225.957556 -86.545126 
L 225.449436 -86.545126 
L 224.941316 -86.545126 
L 224.433197 -86.545126 
L 223.925077 -86.545126 
L 223.416958 -86.545126 
L 222.908838 -86.545126 
L 222.400719 -86.545126 
L 221.892599 -86.545126 
L 221.384479 -86.545126 
L 220.87636 -86.545126 
L 220.36824 -86.545126 
L 219.860121 -86.545126 
L 219.352001 -86.545126 
L 218.843881 -86.545126 
L 218.335762 -86.545126 
L 217.827642 -86.545126 
L 217.319523 -86.545126 
L 216.811403 -86.545126 
L 216.303283 -86.545126 
L 215.795164 -86.545126 
L 215.287044 -86.545126 
L 214.778925 -86.545126 
L 214.270805 -86.545126 
L 213.762685 -86.545126 
L 213.254566 -86.545126 
L 212.746446 -86.545126 
L 212.238327 -86.545126 
L 211.730207 -86.545126 
L 211.222087 -86.545126 
L 210.713968 -86.545126 
L 210.205848 -86.545126 
L 209.697729 -86.545126 
L 209.189609 -86.545126 
L 208.68149 -86.545126 
L 208.17337 -86.545126 
L 207.66525 -86.545126 
L 207.157131 -86.545126 
L 206.649011 -86.545126 
L 206.140892 -86.545126 
L 205.632772 -86.545126 
L 205.124652 -86.545126 
L 204.616533 -86.545126 
L 204.108413 -86.545126 
L 203.600294 -86.545126 
L 203.092174 -86.545126 
L 202.584054 -86.545126 
L 202.075935 -86.545126 
L 201.567815 -86.545126 
L 201.059696 -86.545126 
L 200.551576 -86.545126 
L 200.043456 -86.545126 
L 199.535337 -86.545126 
L 199.027217 -86.545126 
L 198.519098 -86.545126 
L 198.010978 -86.545126 
L 197.502858 -86.545126 
L 196.994739 -86.545126 
L 196.486619 -86.545126 
L 195.9785 -86.545126 
L 195.47038 -86.545126 
L 194.96226 -86.545126 
L 194.454141 -86.545126 
L 193.946021 -86.545126 
L 193.437902 -86.545126 
L 192.929782 -86.545126 
L 192.421663 -86.545126 
L 191.913543 -86.545126 
L 191.405423 -86.545126 
L 190.897304 -86.545126 
L 190.389184 -86.545126 
L 189.881065 -86.545126 
L 189.372945 -86.545126 
L 188.864825 -86.545126 
L 188.356706 -86.545126 
L 187.848586 -86.545126 
L 187.340467 -86.545126 
L 186.832347 -86.545126 
L 186.324227 -86.545126 
L 185.816108 -86.545126 
L 185.307988 -86.545126 
L 184.799869 -86.545126 
L 184.291749 -86.545126 
L 183.783629 -86.545126 
L 183.27551 -86.545126 
L 182.76739 -86.545126 
L 182.259271 -86.545126 
L 181.751151 -86.545126 
L 181.243031 -86.545126 
L 180.734912 -86.545126 
L 180.226792 -86.545126 
L 179.718673 -86.545126 
L 179.210553 -86.545126 
L 178.702434 -86.545126 
L 178.194314 -86.545126 
L 177.686194 -86.545126 
L 177.178075 -86.545126 
L 176.669955 -86.545126 
L 176.161836 -86.545126 
L 175.653716 -86.545126 
L 175.145596 -86.545126 
L 174.637477 -86.545126 
L 174.129357 -86.545126 
L 173.621238 -86.545126 
L 173.113118 -86.545126 
L 172.604998 -86.545126 
L 172.096879 -86.545126 
L 171.588759 -86.545126 
L 171.08064 -86.545126 
L 170.57252 -86.545126 
L 170.0644 -86.545126 
L 169.556281 -86.545126 
L 169.048161 -86.545126 
L 168.540042 -86.545126 
L 168.031922 -86.545126 
L 167.523802 -86.545126 
L 167.015683 -86.545126 
L 166.507563 -86.545126 
L 165.999444 -86.545126 
L 165.491324 -86.545126 
L 164.983204 -86.545126 
L 164.475085 -86.545126 
L 163.966965 -86.545126 
L 163.458846 -86.545126 
L 162.950726 -86.545126 
L 162.442607 -86.545126 
L 161.934487 -86.545126 
L 161.426367 -86.545126 
L 160.918248 -86.545126 
L 160.410128 -86.545126 
L 159.902009 -86.545126 
L 159.393889 -86.545126 
L 158.885769 -86.545126 
L 158.37765 -86.545126 
L 157.86953 -86.545126 
L 157.361411 -86.545126 
L 156.853291 -86.545126 
L 156.345171 -86.545126 
L 155.837052 -86.545126 
L 155.328932 -86.545126 
L 154.820813 -86.545126 
L 154.312693 -86.545126 
L 153.804573 -86.545126 
L 153.296454 -86.545126 
L 152.788334 -86.545126 
L 152.280215 -86.545126 
L 151.772095 -86.545126 
L 151.263975 -86.545126 
L 150.755856 -86.545126 
L 150.247736 -86.545126 
L 149.739617 -86.545126 
L 149.231497 -86.545126 
L 148.723378 -86.545126 
L 148.215258 -86.545126 
L 147.707138 -86.545126 
L 147.199019 -86.545126 
L 146.690899 -86.545126 
L 146.18278 -86.545126 
L 145.67466 -86.545126 
L 145.16654 -86.545126 
L 144.658421 -86.545126 
L 144.150301 -86.545126 
L 143.642182 -86.545126 
L 143.134062 -86.545126 
L 142.625942 -86.545126 
L 142.117823 -86.545126 
L 141.609703 -86.545126 
L 141.101584 -86.545126 
L 140.593464 -86.545126 
L 140.085344 -86.545126 
L 139.577225 -86.545126 
L 139.069105 -86.545126 
L 138.560986 -86.545126 
L 138.052866 -86.545126 
L 137.544746 -86.545126 
L 137.036627 -86.545126 
L 136.528507 -86.545126 
L 136.020388 -86.545126 
L 135.512268 -86.545126 
L 135.004148 -86.545126 
L 134.496029 -86.545126 
L 133.987909 -86.545126 
L 133.47979 -86.545126 
L 132.97167 -86.545126 
L 132.463551 -86.545126 
L 131.955431 -86.545126 
L 131.447311 -86.545126 
L 130.939192 -86.545126 
L 130.431072 -86.545126 
L 129.922953 -86.545126 
L 129.414833 -86.545126 
L 128.906713 -86.545126 
L 128.398594 -86.545126 
L 127.890474 -86.545126 
L 127.382355 -86.545126 
L 126.874235 -86.545126 
L 126.366115 -86.545126 
L 125.857996 -86.545126 
L 125.349876 -86.545126 
L 124.841757 -86.545126 
L 124.333637 -86.545126 
L 123.825517 -86.545126 
L 123.317398 -86.545126 
L 122.809278 -86.545126 
L 122.301159 -86.545126 
L 121.793039 -86.545126 
L 121.284919 -86.545126 
L 120.7768 -86.545126 
L 120.26868 -86.545126 
L 119.760561 -86.545126 
L 119.252441 -86.545126 
L 118.744322 -86.545126 
L 118.236202 -86.545126 
L 117.728082 -86.545126 
L 117.219963 -86.545126 
L 116.711843 -86.545126 
L 116.203724 -86.545126 
L 115.695604 -86.545126 
L 115.187484 -86.545126 
L 114.679365 -86.545126 
L 114.171245 -86.545126 
L 113.663126 -86.545126 
L 113.155006 -86.545126 
L 112.646886 -86.545126 
L 112.138767 -86.545126 
L 111.630647 -86.545126 
L 111.122528 -86.545126 
L 110.614408 -86.545126 
L 110.106288 -86.545126 
L 109.598169 -86.545126 
L 109.090049 -86.545126 
L 108.58193 -86.545126 
L 108.07381 -86.545126 
L 107.56569 -86.545126 
L 107.057571 -86.545126 
L 106.549451 -86.545126 
L 106.041332 -86.545126 
L 105.533212 -86.545126 
L 105.025092 -86.545126 
L 104.516973 -86.545126 
L 104.008853 -86.545126 
L 103.500734 -86.545126 
L 102.992614 -86.545126 
L 102.484495 -86.545126 
L 101.976375 -86.545126 
L 101.468255 -86.545126 
L 100.960136 -86.545126 
L 100.452016 -86.545126 
L 99.943897 -86.545126 
L 99.435777 -86.545126 
L 98.927657 -86.545126 
L 98.419538 -86.545126 
L 97.911418 -86.545126 
L 97.403299 -86.545126 
L 96.895179 -86.545126 
L 96.387059 -86.545126 
L 95.87894 -86.545126 
L 95.37082 -86.545126 
L 94.862701 -86.545126 
L 94.354581 -86.545126 
L 93.846461 -86.545126 
L 93.338342 -86.545126 
L 92.830222 -86.545126 
L 92.322103 -86.545126 
L 91.813983 -86.545126 
L 91.305863 -86.545126 
L 90.797744 -86.545126 
L 90.289624 -86.545126 
L 89.781505 -86.545126 
L 89.273385 -86.545126 
L 88.765265 -86.545126 
L 88.257146 -86.545126 
L 87.749026 -86.545126 
L 87.240907 -86.545126 
L 86.732787 -86.545126 
L 86.224668 -86.545126 
L 85.716548 -86.545126 
L 85.208428 -86.545126 
L 84.700309 -86.545126 
L 84.192189 -86.545126 
L 83.68407 -86.545126 
L 83.17595 -86.545126 
L 82.66783 -86.545126 
L 82.159711 -86.545126 
L 81.651591 -86.545126 
L 81.143472 -86.545126 
L 80.635352 -86.545126 
L 80.127232 -86.545126 
L 79.619113 -86.545126 
L 79.110993 -86.545126 
L 78.602874 -86.545126 
L 78.094754 -86.545126 
L 77.586634 -86.545126 
L 77.078515 -86.545126 
L 76.570395 -86.545126 
L 76.062276 -86.545126 
L 75.554156 -86.545126 
L 75.046036 -86.545126 
L 74.537917 -86.545126 
L 74.029797 -86.545126 
L 73.521678 -86.545126 
L 73.013558 -86.545126 
L 72.505439 -86.545126 
L 71.997319 -86.545126 
L 71.489199 -86.545126 
L 70.98108 -86.545126 
L 70.47296 -86.545126 
L 69.964841 -86.545126 
L 69.456721 -86.545126 
L 68.948601 -86.545126 
L 68.440482 -86.545126 
L 67.932362 -86.545126 
L 67.424243 -86.545126 
L 66.916123 -86.545126 
L 66.408003 -86.545126 
L 65.899884 -86.545126 
L 65.391764 -86.545126 
L 64.883645 -86.545126 
L 64.375525 -86.545126 
L 63.867405 -86.545126 
L 63.359286 -86.545126 
L 62.851166 -86.545126 
L 62.343047 -86.545126 
L 61.834927 -86.545126 
L 61.326807 -86.545126 
L 60.818688 -86.545126 
L 60.310568 -86.545126 
L 59.802449 -86.545126 
L 59.294329 -86.545126 
L 58.786209 -86.545126 
L 58.27809 -86.545126 
L 57.76997 -86.545126 
L 57.261851 -86.545126 
L 56.753731 -86.545126 
L 56.245612 -86.545126 
L 55.737492 -86.545126 
L 55.229372 -86.545126 
L 54.721253 -86.545126 
L 54.213133 -86.545126 
L 53.705014 -86.545126 
L 53.196894 -86.545126 
L 52.688774 -86.545126 
L 52.180655 -86.545126 
L 51.672535 -86.545126 
L 51.164416 -86.545126 
L 50.656296 -86.545126 
L 50.148176 -86.545126 
L 49.640057 -86.545126 
z
" id="m5deeb65e41" style="stroke:#808080;stroke-opacity:0.4;stroke-width:0.24;"/>
    </defs>
    <g clip-path="url(#pde5316337a)">
     <use style="fill:#808080;fill-opacity:0.4;stroke:#808080;stroke-opacity:0.4;stroke-width:0.24;" x="0" xlink:href="#m5deeb65e41" y="277.548125"/>
    </g>
   </g>
   <g id="matplotlib.axis_1">
    <g id="xtick_1">
     <g id="line2d_1">
      <path clip-path="url(#pde5316337a)" d="M 49.640057 239.95125 
L 49.640057 22.51125 
" style="fill:none;stroke:#b0b0b0;stroke-linecap:square;stroke-width:0.8;"/>
     </g>
     <g id="line2d_2">
      <defs>
       <path d="M 0 0 
L 0 3.5 
" id="md1c2068cf0" style="stroke:#808080;stroke-width:0.8;"/>
      </defs>
      <g>
       <use style="fill:#808080;stroke:#808080;stroke-width:0.8;" x="49.640057" xlink:href="#md1c2068cf0" y="239.95125"/>
      </g>
     </g>
     <g id="text_1">
      <!-- 0 -->
      <defs>
       <path d="M 5 34.703125 
Q 5 52.09375 11.140625 61.5 
Q 17.296875 70.90625 28.203125 70.90625 
Q 39.09375 70.90625 45.25 61.5 
Q 51.40625 52.09375 51.40625 34.703125 
Q 51.40625 17.296875 45.25 7.890625 
Q 39.09375 -1.5 28.203125 -1.5 
Q 17.296875 -1.5 11.140625 7.890625 
Q 5 17.296875 5 34.703125 
z
M 41.59375 34.703125 
Q 41.59375 40.40625 40.9375 45.5 
Q 40.296875 50.59375 38.75 54.390625 
Q 37.203125 58.203125 34.59375 60.453125 
Q 32 62.703125 28.203125 62.703125 
Q 24.40625 62.703125 21.796875 60.453125 
Q 19.203125 58.203125 17.640625 54.390625 
Q 16.09375 50.59375 15.4375 45.5 
Q 14.796875 40.40625 14.796875 34.703125 
Q 14.796875 29 15.4375 23.890625 
Q 16.09375 18.796875 17.640625 15 
Q 19.203125 11.203125 21.796875 8.953125 
Q 24.40625 6.703125 28.203125 6.703125 
Q 32 6.703125 34.59375 8.953125 
Q 37.203125 11.203125 38.75 15 
Q 40.296875 18.796875 40.9375 23.890625 
Q 41.59375 29 41.59375 34.703125 
z
" id="Ubuntu-48"/>
      </defs>
      <g transform="translate(47.383807 255.25875)scale(0.08 -0.08)">
       <use xlink:href="#Ubuntu-48"/>
      </g>
     </g>
    </g>
    <g id="xtick_2">
     <g id="line2d_3">
      <path clip-path="url(#pde5316337a)" d="M 100.36733 239.95125 
L 100.36733 22.51125 
" style="fill:none;stroke:#b0b0b0;stroke-linecap:square;stroke-width:0.8;"/>
     </g>
     <g id="line2d_4">
      <g>
       <use style="fill:#808080;stroke:#808080;stroke-width:0.8;" x="100.36733" xlink:href="#md1c2068cf0" y="239.95125"/>
      </g>
     </g>
     <g id="text_2">
      <!-- 1 -->
      <defs>
       <path d="M 9.296875 55 
Q 15 57.203125 20.390625 60.640625 
Q 25.796875 64.09375 30.296875 69.296875 
L 36.90625 69.296875 
L 36.90625 0 
L 27.59375 0 
L 27.59375 56.40625 
Q 26.40625 55.296875 24.65625 54.09375 
Q 22.90625 52.90625 20.84375 51.796875 
Q 18.796875 50.703125 16.546875 49.703125 
Q 14.296875 48.703125 12.203125 48 
z
" id="Ubuntu-49"/>
      </defs>
      <g transform="translate(98.11108 255.25875)scale(0.08 -0.08)">
       <use xlink:href="#Ubuntu-49"/>
      </g>
     </g>
    </g>
    <g id="xtick_3">
     <g id="line2d_5">
      <path clip-path="url(#pde5316337a)" d="M 151.094602 239.95125 
L 151.094602 22.51125 
" style="fill:none;stroke:#b0b0b0;stroke-linecap:square;stroke-width:0.8;"/>
     </g>
     <g id="line2d_6">
      <g>
       <use style="fill:#808080;stroke:#808080;stroke-width:0.8;" x="151.094602" xlink:href="#md1c2068cf0" y="239.95125"/>
      </g>
     </g>
     <g id="text_3">
      <!-- 2 -->
      <defs>
       <path d="M 46.703125 51.59375 
Q 46.703125 48 45.25 44.640625 
Q 43.796875 41.296875 41.390625 38.046875 
Q 39 34.796875 36 31.640625 
Q 33 28.5 30 25.5 
Q 28.296875 23.796875 26.046875 21.5 
Q 23.796875 19.203125 21.796875 16.703125 
Q 19.796875 14.203125 18.4375 11.890625 
Q 17.09375 9.59375 17.09375 7.90625 
L 49 7.90625 
L 49 0 
L 7 0 
Q 6.90625 0.59375 6.90625 1.1875 
Q 6.90625 1.796875 6.90625 2.296875 
Q 6.90625 7 8.453125 11.046875 
Q 10 15.09375 12.5 18.6875 
Q 15 22.296875 18.09375 25.5 
Q 21.203125 28.703125 24.203125 31.703125 
Q 26.703125 34.09375 28.953125 36.4375 
Q 31.203125 38.796875 32.953125 41.140625 
Q 34.703125 43.5 35.75 46 
Q 36.796875 48.5 36.796875 51.296875 
Q 36.796875 54.296875 35.84375 56.390625 
Q 34.90625 58.5 33.296875 59.890625 
Q 31.703125 61.296875 29.546875 61.9375 
Q 27.40625 62.59375 25 62.59375 
Q 22.09375 62.59375 19.6875 61.796875 
Q 17.296875 61 15.390625 59.953125 
Q 13.5 58.90625 12.203125 57.75 
Q 10.90625 56.59375 10.203125 56 
L 5.59375 62.59375 
Q 6.5 63.59375 8.296875 65.046875 
Q 10.09375 66.5 12.59375 67.796875 
Q 15.09375 69.09375 18.1875 70 
Q 21.296875 70.90625 24.90625 70.90625 
Q 35.796875 70.90625 41.25 65.84375 
Q 46.703125 60.796875 46.703125 51.59375 
z
" id="Ubuntu-50"/>
      </defs>
      <g transform="translate(148.838352 255.25875)scale(0.08 -0.08)">
       <use xlink:href="#Ubuntu-50"/>
      </g>
     </g>
    </g>
    <g id="xtick_4">
     <g id="line2d_7">
      <path clip-path="url(#pde5316337a)" d="M 201.821875 239.95125 
L 201.821875 22.51125 
" style="fill:none;stroke:#b0b0b0;stroke-linecap:square;stroke-width:0.8;"/>
     </g>
     <g id="line2d_8">
      <g>
       <use style="fill:#808080;stroke:#808080;stroke-width:0.8;" x="201.821875" xlink:href="#md1c2068cf0" y="239.95125"/>
      </g>
     </g>
     <g id="text_4">
      <!-- 3 -->
      <defs>
       <path d="M 22.59375 6.796875 
Q 31.5 6.796875 35.34375 10.296875 
Q 39.203125 13.796875 39.203125 19.703125 
Q 39.203125 23.5 37.59375 26.09375 
Q 36 28.703125 33.390625 30.25 
Q 30.796875 31.796875 27.34375 32.4375 
Q 23.90625 33.09375 20.296875 33.09375 
L 17.90625 33.09375 
L 17.90625 40.703125 
L 21.203125 40.703125 
Q 23.703125 40.703125 26.34375 41.203125 
Q 29 41.703125 31.203125 43 
Q 33.40625 44.296875 34.796875 46.546875 
Q 36.203125 48.796875 36.203125 52.203125 
Q 36.203125 55 35.203125 57 
Q 34.203125 59 32.546875 60.296875 
Q 30.90625 61.59375 28.75 62.140625 
Q 26.59375 62.703125 24.203125 62.703125 
Q 19.40625 62.703125 16.046875 61.296875 
Q 12.703125 59.90625 10.40625 58.40625 
L 6.796875 65.5 
Q 8 66.296875 9.84375 67.25 
Q 11.703125 68.203125 14 69 
Q 16.296875 69.796875 18.9375 70.34375 
Q 21.59375 70.90625 24.5 70.90625 
Q 30 70.90625 34 69.546875 
Q 38 68.203125 40.59375 65.75 
Q 43.203125 63.296875 44.5 59.9375 
Q 45.796875 56.59375 45.796875 52.703125 
Q 45.796875 47.296875 42.6875 43.4375 
Q 39.59375 39.59375 35.203125 37.59375 
Q 37.90625 36.796875 40.40625 35.296875 
Q 42.90625 33.796875 44.75 31.5 
Q 46.59375 29.203125 47.75 26.203125 
Q 48.90625 23.203125 48.90625 19.5 
Q 48.90625 15 47.34375 11.140625 
Q 45.796875 7.296875 42.546875 4.5 
Q 39.296875 1.703125 34.390625 0.09375 
Q 29.5 -1.5 22.796875 -1.5 
Q 20.203125 -1.5 17.453125 -1.09375 
Q 14.703125 -0.703125 12.296875 -0.09375 
Q 9.90625 0.5 8.09375 1.09375 
Q 6.296875 1.703125 5.5 2.09375 
L 7.296875 10.203125 
Q 9 9.40625 12.953125 8.09375 
Q 16.90625 6.796875 22.59375 6.796875 
z
" id="Ubuntu-51"/>
      </defs>
      <g transform="translate(199.565625 255.25875)scale(0.08 -0.08)">
       <use xlink:href="#Ubuntu-51"/>
      </g>
     </g>
    </g>
    <g id="xtick_5">
     <g id="line2d_9">
      <path clip-path="url(#pde5316337a)" d="M 252.549148 239.95125 
L 252.549148 22.51125 
" style="fill:none;stroke:#b0b0b0;stroke-linecap:square;stroke-width:0.8;"/>
     </g>
     <g id="line2d_10">
      <g>
       <use style="fill:#808080;stroke:#808080;stroke-width:0.8;" x="252.549148" xlink:href="#md1c2068cf0" y="239.95125"/>
      </g>
     </g>
     <g id="text_5">
      <!-- 4 -->
      <defs>
       <path d="M 4 24 
Q 5.90625 28.40625 9.203125 34.25 
Q 12.5 40.09375 16.640625 46.296875 
Q 20.796875 52.5 25.546875 58.5 
Q 30.296875 64.5 35.09375 69.296875 
L 44 69.296875 
L 44 25.296875 
L 52.203125 25.296875 
L 52.203125 17.703125 
L 44 17.703125 
L 44 0 
L 35 0 
L 35 17.703125 
L 4 17.703125 
z
M 35 58.296875 
Q 32 55.09375 28.953125 51.140625 
Q 25.90625 47.203125 23 42.890625 
Q 20.09375 38.59375 17.546875 34.09375 
Q 15 29.59375 13 25.296875 
L 35 25.296875 
z
" id="Ubuntu-52"/>
      </defs>
      <g transform="translate(250.292898 255.25875)scale(0.08 -0.08)">
       <use xlink:href="#Ubuntu-52"/>
      </g>
     </g>
    </g>
    <g id="xtick_6">
     <g id="line2d_11">
      <path clip-path="url(#pde5316337a)" d="M 303.27642 239.95125 
L 303.27642 22.51125 
" style="fill:none;stroke:#b0b0b0;stroke-linecap:square;stroke-width:0.8;"/>
     </g>
     <g id="line2d_12">
      <g>
       <use style="fill:#808080;stroke:#808080;stroke-width:0.8;" x="303.27642" xlink:href="#md1c2068cf0" y="239.95125"/>
      </g>
     </g>
     <g id="text_6">
      <!-- 5 -->
      <defs>
       <path d="M 19.90625 42.59375 
Q 35 42 42.046875 36 
Q 49.09375 30 49.09375 19.703125 
Q 49.09375 15.09375 47.546875 11.1875 
Q 46 7.296875 42.84375 4.5 
Q 39.703125 1.703125 34.890625 0.09375 
Q 30.09375 -1.5 23.5 -1.5 
Q 20.90625 -1.5 18.203125 -1.09375 
Q 15.5 -0.703125 13.203125 -0.09375 
Q 10.90625 0.5 9.09375 1.09375 
Q 7.296875 1.703125 6.5 2.09375 
L 8.296875 10.203125 
Q 10 9.40625 13.84375 8.09375 
Q 17.703125 6.796875 23.296875 6.796875 
Q 27.796875 6.796875 30.84375 7.796875 
Q 33.90625 8.796875 35.796875 10.5 
Q 37.703125 12.203125 38.546875 14.453125 
Q 39.40625 16.703125 39.40625 19.203125 
Q 39.40625 23 38.09375 25.953125 
Q 36.796875 28.90625 33.5 30.90625 
Q 30.203125 32.90625 24.703125 33.953125 
Q 19.203125 35 10.796875 35 
Q 11.40625 39.90625 11.75 44.203125 
Q 12.09375 48.5 12.390625 52.59375 
Q 12.703125 56.703125 12.890625 60.75 
Q 13.09375 64.796875 13.296875 69.296875 
L 46.703125 69.296875 
L 46.703125 61.40625 
L 21.40625 61.40625 
Q 21.296875 59.90625 21.09375 57.34375 
Q 20.90625 54.796875 20.703125 52.046875 
Q 20.5 49.296875 20.296875 46.6875 
Q 20.09375 44.09375 19.90625 42.59375 
z
" id="Ubuntu-53"/>
      </defs>
      <g transform="translate(301.02017 255.25875)scale(0.08 -0.08)">
       <use xlink:href="#Ubuntu-53"/>
      </g>
     </g>
    </g>
    <g id="xtick_7">
     <g id="line2d_13">
      <path clip-path="url(#pde5316337a)" d="M 354.003693 239.95125 
L 354.003693 22.51125 
" style="fill:none;stroke:#b0b0b0;stroke-linecap:square;stroke-width:0.8;"/>
     </g>
     <g id="line2d_14">
      <g>
       <use style="fill:#808080;stroke:#808080;stroke-width:0.8;" x="354.003693" xlink:href="#md1c2068cf0" y="239.95125"/>
      </g>
     </g>
     <g id="text_7">
      <!-- 6 -->
      <defs>
       <path d="M 6.296875 27.796875 
Q 6.296875 37.90625 9.09375 45.65625 
Q 11.90625 53.40625 17.046875 58.703125 
Q 22.203125 64 29.546875 66.75 
Q 36.90625 69.5 46.09375 69.59375 
L 46.796875 61.796875 
Q 40.90625 61.703125 36.046875 60.5 
Q 31.203125 59.296875 27.390625 56.6875 
Q 23.59375 54.09375 21 49.9375 
Q 18.40625 45.796875 17.09375 39.703125 
Q 19.703125 40.90625 22.953125 41.703125 
Q 26.203125 42.5 29.703125 42.5 
Q 35.59375 42.5 39.6875 40.703125 
Q 43.796875 38.90625 46.390625 35.953125 
Q 49 33 50.140625 29.140625 
Q 51.296875 25.296875 51.296875 21.09375 
Q 51.296875 17.296875 50 13.296875 
Q 48.703125 9.296875 46.046875 6 
Q 43.40625 2.703125 39.296875 0.59375 
Q 35.203125 -1.5 29.59375 -1.5 
Q 18.203125 -1.5 12.25 6.296875 
Q 6.296875 14.09375 6.296875 27.796875 
z
M 28.703125 34.90625 
Q 25.203125 34.90625 22.203125 34.25 
Q 19.203125 33.59375 16.203125 32.296875 
Q 16.09375 31.203125 16.046875 30.046875 
Q 16 28.90625 16 27.796875 
Q 16 23.40625 16.59375 19.5 
Q 17.203125 15.59375 18.75 12.640625 
Q 20.296875 9.703125 22.890625 7.953125 
Q 25.5 6.203125 29.5 6.203125 
Q 32.796875 6.203125 35.09375 7.59375 
Q 37.40625 9 38.90625 11.203125 
Q 40.40625 13.40625 41.046875 15.953125 
Q 41.703125 18.5 41.703125 20.90625 
Q 41.703125 27.703125 38.453125 31.296875 
Q 35.203125 34.90625 28.703125 34.90625 
z
" id="Ubuntu-54"/>
      </defs>
      <g transform="translate(351.747443 255.25875)scale(0.08 -0.08)">
       <use xlink:href="#Ubuntu-54"/>
      </g>
     </g>
    </g>
    <g id="text_8">
     <!-- X -->
     <defs>
      <path d="M 50.203125 0 
Q 48.703125 3 46.59375 6.640625 
Q 44.5 10.296875 42 14.25 
Q 39.5 18.203125 36.796875 22.140625 
Q 34.09375 26.09375 31.59375 29.59375 
Q 29.09375 26.09375 26.390625 22.140625 
Q 23.703125 18.203125 21.25 14.25 
Q 18.796875 10.296875 16.640625 6.640625 
Q 14.5 3 13 0 
L 2.296875 0 
Q 6.796875 8.796875 12.75 17.890625 
Q 18.703125 27 25.40625 36.59375 
L 3.203125 69.296875 
L 14.40625 69.296875 
L 31.5 43.5 
L 48.40625 69.296875 
L 59.5 69.296875 
L 37.703125 37 
Q 44.5 27.296875 50.5 18.09375 
Q 56.5 8.90625 61.09375 0 
z
" id="Ubuntu-88"/>
     </defs>
     <g transform="translate(198.667188 268.498125)scale(0.1 -0.1)">
      <use xlink:href="#Ubuntu-88"/>
     </g>
    </g>
   </g>
   <g id="matplotlib.axis_2">
    <g id="ytick_1">
     <g id="line2d_15">
      <path clip-path="url(#pde5316337a)" d="M 34.421875 224.382684 
L 369.221875 224.382684 
" style="fill:none;stroke:#b0b0b0;stroke-linecap:square;stroke-width:0.8;"/>
     </g>
     <g id="line2d_16">
      <defs>
       <path d="M 0 0 
L -3.5 0 
" id="md09422ecd2" style="stroke:#808080;stroke-width:0.8;"/>
      </defs>
      <g>
       <use style="fill:#808080;stroke:#808080;stroke-width:0.8;" x="34.421875" xlink:href="#md09422ecd2" y="224.382684"/>
      </g>
     </g>
     <g id="text_9">
      <!-- 3 -->
      <g transform="translate(20.809375 227.486434)scale(0.08 -0.08)">
       <use xlink:href="#Ubuntu-51"/>
      </g>
     </g>
    </g>
    <g id="ytick_2">
     <g id="line2d_17">
      <path clip-path="url(#pde5316337a)" d="M 34.421875 187.294145 
L 369.221875 187.294145 
" style="fill:none;stroke:#b0b0b0;stroke-linecap:square;stroke-width:0.8;"/>
     </g>
     <g id="line2d_18">
      <g>
       <use style="fill:#808080;stroke:#808080;stroke-width:0.8;" x="34.421875" xlink:href="#md09422ecd2" y="187.294145"/>
      </g>
     </g>
     <g id="text_10">
      <!-- 4 -->
      <g transform="translate(20.809375 190.397895)scale(0.08 -0.08)">
       <use xlink:href="#Ubuntu-52"/>
      </g>
     </g>
    </g>
    <g id="ytick_3">
     <g id="line2d_19">
      <path clip-path="url(#pde5316337a)" d="M 34.421875 150.205607 
L 369.221875 150.205607 
" style="fill:none;stroke:#b0b0b0;stroke-linecap:square;stroke-width:0.8;"/>
     </g>
     <g id="line2d_20">
      <g>
       <use style="fill:#808080;stroke:#808080;stroke-width:0.8;" x="34.421875" xlink:href="#md09422ecd2" y="150.205607"/>
      </g>
     </g>
     <g id="text_11">
      <!-- 5 -->
      <g transform="translate(20.809375 153.309357)scale(0.08 -0.08)">
       <use xlink:href="#Ubuntu-53"/>
      </g>
     </g>
    </g>
    <g id="ytick_4">
     <g id="line2d_21">
      <path clip-path="url(#pde5316337a)" d="M 34.421875 113.117068 
L 369.221875 113.117068 
" style="fill:none;stroke:#b0b0b0;stroke-linecap:square;stroke-width:0.8;"/>
     </g>
     <g id="line2d_22">
      <g>
       <use style="fill:#808080;stroke:#808080;stroke-width:0.8;" x="34.421875" xlink:href="#md09422ecd2" y="113.117068"/>
      </g>
     </g>
     <g id="text_12">
      <!-- 6 -->
      <g transform="translate(20.809375 116.220818)scale(0.08 -0.08)">
       <use xlink:href="#Ubuntu-54"/>
      </g>
     </g>
    </g>
    <g id="ytick_5">
     <g id="line2d_23">
      <path clip-path="url(#pde5316337a)" d="M 34.421875 76.028529 
L 369.221875 76.028529 
" style="fill:none;stroke:#b0b0b0;stroke-linecap:square;stroke-width:0.8;"/>
     </g>
     <g id="line2d_24">
      <g>
       <use style="fill:#808080;stroke:#808080;stroke-width:0.8;" x="34.421875" xlink:href="#md09422ecd2" y="76.028529"/>
      </g>
     </g>
     <g id="text_13">
      <!-- 7 -->
      <defs>
       <path d="M 16.296875 0 
Q 16.90625 8 19.15625 16.84375 
Q 21.40625 25.703125 24.703125 34.046875 
Q 28 42.40625 31.953125 49.546875 
Q 35.90625 56.703125 39.703125 61.203125 
L 6 61.203125 
L 6 69.296875 
L 50.09375 69.296875 
L 50.09375 61.59375 
Q 46.796875 57.796875 42.796875 51.140625 
Q 38.796875 44.5 35.25 36.25 
Q 31.703125 28 29.140625 18.640625 
Q 26.59375 9.296875 26 0 
z
" id="Ubuntu-55"/>
      </defs>
      <g transform="translate(20.809375 79.132279)scale(0.08 -0.08)">
       <use xlink:href="#Ubuntu-55"/>
      </g>
     </g>
    </g>
    <g id="ytick_6">
     <g id="line2d_25">
      <path clip-path="url(#pde5316337a)" d="M 34.421875 38.93999 
L 369.221875 38.93999 
" style="fill:none;stroke:#b0b0b0;stroke-linecap:square;stroke-width:0.8;"/>
     </g>
     <g id="line2d_26">
      <g>
       <use style="fill:#808080;stroke:#808080;stroke-width:0.8;" x="34.421875" xlink:href="#md09422ecd2" y="38.93999"/>
      </g>
     </g>
     <g id="text_14">
      <!-- 8 -->
      <defs>
       <path d="M 50.90625 18 
Q 50.90625 13.796875 49.453125 10.25 
Q 48 6.703125 45.140625 4.046875 
Q 42.296875 1.40625 38 -0.046875 
Q 33.703125 -1.5 28.09375 -1.5 
Q 21.59375 -1.5 17.25 0.34375 
Q 12.90625 2.203125 10.296875 5 
Q 7.703125 7.796875 6.59375 11.140625 
Q 5.5 14.5 5.5 17.5 
Q 5.5 20.40625 6.453125 23.046875 
Q 7.40625 25.703125 8.953125 28 
Q 10.5 30.296875 12.546875 32.140625 
Q 14.59375 34 16.90625 35.40625 
Q 7.09375 41 7.09375 51.90625 
Q 7.09375 55.703125 8.59375 59.140625 
Q 10.09375 62.59375 12.84375 65.1875 
Q 15.59375 67.796875 19.5 69.34375 
Q 23.40625 70.90625 28.203125 70.90625 
Q 33.796875 70.90625 37.796875 69.203125 
Q 41.796875 67.5 44.34375 64.84375 
Q 46.90625 62.203125 48.046875 59 
Q 49.203125 55.796875 49.203125 52.796875 
Q 49.203125 49.90625 48.34375 47.34375 
Q 47.5 44.796875 46.046875 42.59375 
Q 44.59375 40.40625 42.75 38.703125 
Q 40.90625 37 38.90625 35.703125 
Q 50.703125 30.09375 50.90625 18 
z
M 14.90625 17.40625 
Q 14.90625 15.59375 15.546875 13.640625 
Q 16.203125 11.703125 17.796875 10.046875 
Q 19.40625 8.40625 21.90625 7.296875 
Q 24.40625 6.203125 28.203125 6.203125 
Q 31.59375 6.203125 34.140625 7.203125 
Q 36.703125 8.203125 38.296875 9.75 
Q 39.90625 11.296875 40.703125 13.296875 
Q 41.5 15.296875 41.5 17.40625 
Q 41.5 20.59375 40.296875 23 
Q 39.09375 25.40625 36.84375 27.203125 
Q 34.59375 29 31.4375 30.25 
Q 28.296875 31.5 24.296875 32.40625 
Q 19.796875 29.90625 17.34375 26.203125 
Q 14.90625 22.5 14.90625 17.40625 
z
M 39.90625 52.90625 
Q 39.90625 54.40625 39.25 56.203125 
Q 38.59375 58 37.1875 59.546875 
Q 35.796875 61.09375 33.59375 62.140625 
Q 31.40625 63.203125 28.203125 63.203125 
Q 25 63.203125 22.75 62.203125 
Q 20.5 61.203125 19.09375 59.640625 
Q 17.703125 58.09375 17.046875 56.25 
Q 16.40625 54.40625 16.40625 52.59375 
Q 16.40625 50.40625 17.203125 48.203125 
Q 18 46 19.703125 44.09375 
Q 21.40625 42.203125 24.15625 40.703125 
Q 26.90625 39.203125 30.703125 38.296875 
Q 34.90625 40.796875 37.40625 44.140625 
Q 39.90625 47.5 39.90625 52.90625 
z
" id="Ubuntu-56"/>
      </defs>
      <g transform="translate(20.809375 42.04374)scale(0.08 -0.08)">
       <use xlink:href="#Ubuntu-56"/>
      </g>
     </g>
    </g>
    <g id="text_15">
     <!-- Gold content -->
     <defs>
      <path d="M 50.90625 34.09375 
L 60.59375 34.09375 
L 60.59375 1.703125 
Q 59.40625 1.296875 57.15625 0.796875 
Q 54.90625 0.296875 51.953125 -0.203125 
Q 49 -0.703125 45.5 -1.046875 
Q 42 -1.40625 38.40625 -1.40625 
Q 31.09375 -1.40625 25.09375 1 
Q 19.09375 3.40625 14.796875 8 
Q 10.5 12.59375 8.140625 19.296875 
Q 5.796875 26 5.796875 34.703125 
Q 5.796875 43.40625 8.4375 50.15625 
Q 11.09375 56.90625 15.59375 61.5 
Q 20.09375 66.09375 26.140625 68.5 
Q 32.203125 70.90625 39.09375 70.90625 
Q 43.796875 70.90625 47.4375 70.296875 
Q 51.09375 69.703125 53.6875 68.890625 
Q 56.296875 68.09375 57.9375 67.296875 
Q 59.59375 66.5 60.203125 66.09375 
L 57.09375 58 
Q 54.203125 59.90625 49.390625 61.15625 
Q 44.59375 62.40625 39.59375 62.40625 
Q 34.296875 62.40625 29.9375 60.5 
Q 25.59375 58.59375 22.546875 55 
Q 19.5 51.40625 17.796875 46.25 
Q 16.09375 41.09375 16.09375 34.703125 
Q 16.09375 28.5 17.546875 23.390625 
Q 19 18.296875 21.953125 14.640625 
Q 24.90625 11 29.25 9 
Q 33.59375 7 39.5 7 
Q 43.703125 7 46.640625 7.453125 
Q 49.59375 7.90625 50.90625 8.296875 
z
" id="Ubuntu-71"/>
      <path d="M 53.90625 26 
Q 53.90625 19.796875 52.09375 14.796875 
Q 50.296875 9.796875 47.046875 6.1875 
Q 43.796875 2.59375 39.296875 0.640625 
Q 34.796875 -1.296875 29.5 -1.296875 
Q 24.203125 -1.296875 19.703125 0.640625 
Q 15.203125 2.59375 11.953125 6.1875 
Q 8.703125 9.796875 6.890625 14.796875 
Q 5.09375 19.796875 5.09375 26 
Q 5.09375 32.09375 6.890625 37.140625 
Q 8.703125 42.203125 11.953125 45.796875 
Q 15.203125 49.40625 19.703125 51.34375 
Q 24.203125 53.296875 29.5 53.296875 
Q 34.796875 53.296875 39.296875 51.34375 
Q 43.796875 49.40625 47.046875 45.796875 
Q 50.296875 42.203125 52.09375 37.140625 
Q 53.90625 32.09375 53.90625 26 
z
M 44.203125 26 
Q 44.203125 34.796875 40.25 39.9375 
Q 36.296875 45.09375 29.5 45.09375 
Q 22.703125 45.09375 18.75 39.9375 
Q 14.796875 34.796875 14.796875 26 
Q 14.796875 17.203125 18.75 12.046875 
Q 22.703125 6.90625 29.5 6.90625 
Q 36.296875 6.90625 40.25 12.046875 
Q 44.203125 17.203125 44.203125 26 
z
" id="Ubuntu-111"/>
      <path d="M 23.59375 -1 
Q 15 -0.796875 11.390625 2.703125 
Q 7.796875 6.203125 7.796875 13.59375 
L 7.796875 76 
L 17.09375 77.59375 
L 17.09375 15.09375 
Q 17.09375 12.796875 17.5 11.296875 
Q 17.90625 9.796875 18.796875 8.890625 
Q 19.703125 8 21.203125 7.546875 
Q 22.703125 7.09375 24.90625 6.796875 
z
" id="Ubuntu-108"/>
      <path d="M 41.59375 41 
Q 39.90625 42.40625 36.703125 43.703125 
Q 33.5 45 29.703125 45 
Q 25.703125 45 22.84375 43.546875 
Q 20 42.09375 18.203125 39.546875 
Q 16.40625 37 15.59375 33.5 
Q 14.796875 30 14.796875 26 
Q 14.796875 16.90625 19.296875 11.953125 
Q 23.796875 7 31.296875 7 
Q 35.09375 7 37.640625 7.34375 
Q 40.203125 7.703125 41.59375 8.09375 
z
M 41.59375 76 
L 50.90625 77.59375 
L 50.90625 1.5 
Q 47.703125 0.59375 42.703125 -0.296875 
Q 37.703125 -1.203125 31.203125 -1.203125 
Q 25.203125 -1.203125 20.390625 0.6875 
Q 15.59375 2.59375 12.1875 6.09375 
Q 8.796875 9.59375 6.9375 14.640625 
Q 5.09375 19.703125 5.09375 26 
Q 5.09375 32 6.640625 37 
Q 8.203125 42 11.203125 45.59375 
Q 14.203125 49.203125 18.546875 51.203125 
Q 22.90625 53.203125 28.5 53.203125 
Q 33 53.203125 36.453125 52 
Q 39.90625 50.796875 41.59375 49.703125 
z
" id="Ubuntu-100"/>
      <path id="Ubuntu-32"/>
      <path d="M 30.59375 -1.203125 
Q 24.296875 -1.203125 19.546875 0.796875 
Q 14.796875 2.796875 11.546875 6.390625 
Q 8.296875 10 6.6875 14.953125 
Q 5.09375 19.90625 5.09375 25.90625 
Q 5.09375 31.90625 6.84375 36.90625 
Q 8.59375 41.90625 11.796875 45.546875 
Q 15 49.203125 19.640625 51.25 
Q 24.296875 53.296875 30 53.296875 
Q 33.5 53.296875 37 52.6875 
Q 40.5 52.09375 43.703125 50.796875 
L 41.59375 42.90625 
Q 39.5 43.90625 36.75 44.5 
Q 34 45.09375 30.90625 45.09375 
Q 23.09375 45.09375 18.9375 40.1875 
Q 14.796875 35.296875 14.796875 25.90625 
Q 14.796875 21.703125 15.75 18.203125 
Q 16.703125 14.703125 18.75 12.203125 
Q 20.796875 9.703125 24 8.34375 
Q 27.203125 7 31.796875 7 
Q 35.5 7 38.5 7.703125 
Q 41.5 8.40625 43.203125 9.203125 
L 44.5 1.40625 
Q 43.703125 0.90625 42.203125 0.453125 
Q 40.703125 0 38.796875 -0.34375 
Q 36.90625 -0.703125 34.75 -0.953125 
Q 32.59375 -1.203125 30.59375 -1.203125 
z
" id="Ubuntu-99"/>
      <path d="M 8 50.5 
Q 11.203125 51.296875 16.5 52.1875 
Q 21.796875 53.09375 28.703125 53.09375 
Q 34.90625 53.09375 39 51.34375 
Q 43.09375 49.59375 45.546875 46.4375 
Q 48 43.296875 49 38.890625 
Q 50 34.5 50 29.203125 
L 50 0 
L 40.703125 0 
L 40.703125 27.203125 
Q 40.703125 32 40.046875 35.390625 
Q 39.40625 38.796875 37.90625 40.890625 
Q 36.40625 43 33.90625 43.953125 
Q 31.40625 44.90625 27.703125 44.90625 
Q 26.203125 44.90625 24.59375 44.796875 
Q 23 44.703125 21.546875 44.546875 
Q 20.09375 44.40625 18.9375 44.203125 
Q 17.796875 44 17.296875 43.90625 
L 17.296875 0 
L 8 0 
z
" id="Ubuntu-110"/>
      <path d="M 16.703125 52 
L 36.40625 52 
L 36.40625 44.203125 
L 16.703125 44.203125 
L 16.703125 20.203125 
Q 16.703125 16.296875 17.296875 13.75 
Q 17.90625 11.203125 19.09375 9.75 
Q 20.296875 8.296875 22.09375 7.6875 
Q 23.90625 7.09375 26.296875 7.09375 
Q 30.5 7.09375 33.046875 8.046875 
Q 35.59375 9 36.59375 9.40625 
L 38.40625 1.703125 
Q 37 1 33.5 -0.046875 
Q 30 -1.09375 25.5 -1.09375 
Q 20.203125 -1.09375 16.75 0.25 
Q 13.296875 1.59375 11.1875 4.296875 
Q 9.09375 7 8.25 10.953125 
Q 7.40625 14.90625 7.40625 20.09375 
L 7.40625 66.5 
L 16.703125 68.09375 
z
" id="Ubuntu-116"/>
      <path d="M 5.09375 25.90625 
Q 5.09375 32.796875 7.09375 37.9375 
Q 9.09375 43.09375 12.390625 46.5 
Q 15.703125 49.90625 20 51.59375 
Q 24.296875 53.296875 28.796875 53.296875 
Q 39.296875 53.296875 44.890625 46.75 
Q 50.5 40.203125 50.5 26.796875 
Q 50.5 26.203125 50.5 25.25 
Q 50.5 24.296875 50.40625 23.5 
L 14.796875 23.5 
Q 15.40625 15.40625 19.5 11.203125 
Q 23.59375 7 32.296875 7 
Q 37.203125 7 40.546875 7.84375 
Q 43.90625 8.703125 45.59375 9.5 
L 46.90625 1.703125 
Q 45.203125 0.796875 40.953125 -0.203125 
Q 36.703125 -1.203125 31.296875 -1.203125 
Q 24.5 -1.203125 19.546875 0.84375 
Q 14.59375 2.90625 11.390625 6.5 
Q 8.203125 10.09375 6.640625 15.046875 
Q 5.09375 20 5.09375 25.90625 
z
M 40.796875 31 
Q 40.90625 37.296875 37.65625 41.34375 
Q 34.40625 45.40625 28.703125 45.40625 
Q 25.5 45.40625 23.046875 44.15625 
Q 20.59375 42.90625 18.890625 40.90625 
Q 17.203125 38.90625 16.25 36.296875 
Q 15.296875 33.703125 15 31 
z
" id="Ubuntu-101"/>
     </defs>
     <g transform="translate(14.959375 160.835938)rotate(-90)scale(0.1 -0.1)">
      <use xlink:href="#Ubuntu-71"/>
      <use x="67.199997" xlink:href="#Ubuntu-111"/>
      <use x="126.199982" xlink:href="#Ubuntu-108"/>
      <use x="153.499969" xlink:href="#Ubuntu-100"/>
      <use x="212.399963" xlink:href="#Ubuntu-32"/>
      <use x="235.499954" xlink:href="#Ubuntu-99"/>
      <use x="281.984314" xlink:href="#Ubuntu-111"/>
      <use x="340.984299" xlink:href="#Ubuntu-110"/>
      <use x="398.384293" xlink:href="#Ubuntu-116"/>
      <use x="438.568665" xlink:href="#Ubuntu-101"/>
      <use x="494.468658" xlink:href="#Ubuntu-110"/>
      <use x="551.868652" xlink:href="#Ubuntu-116"/>
     </g>
    </g>
   </g>
   <g id="line2d_27">
    <path clip-path="url(#pde5316337a)" d="M 49.640057 150.205607 
L 354.003693 150.205607 
L 354.003693 150.205607 
" style="fill:none;stroke:#000000;stroke-linecap:square;stroke-width:2.7;"/>
   </g>
   <g id="line2d_28">
    <path clip-path="url(#pde5316337a)" d="M 49.640057 230.067614 
L 53.196894 214.503031 
L 56.753731 199.875373 
L 60.310568 186.237656 
L 63.359286 175.370216 
L 66.408003 165.286287 
L 69.456721 156.004489 
L 71.997319 148.892636 
L 74.537917 142.353277 
L 77.078515 136.389852 
L 79.619113 131.003604 
L 82.159711 126.193604 
L 84.192189 122.758512 
L 86.224668 119.687756 
L 88.257146 116.977952 
L 90.289624 114.624887 
L 92.322103 112.623541 
L 94.354581 110.968101 
L 96.387059 109.651991 
L 98.419538 108.667888 
L 99.943897 108.142881 
L 101.468255 107.79647 
L 102.992614 107.624796 
L 104.516973 107.62379 
L 106.549451 107.880532 
L 108.58193 108.422443 
L 110.614408 109.238312 
L 112.646886 110.316387 
L 114.679365 111.64441 
L 116.711843 113.209651 
L 119.252441 115.479691 
L 121.793039 118.073194 
L 124.333637 120.962707 
L 127.382355 124.781107 
L 130.939192 129.656639 
L 134.496029 134.908115 
L 139.069105 142.080088 
L 145.67466 152.940491 
L 156.345171 170.517779 
L 160.918248 177.621307 
L 164.983204 183.534793 
L 168.540042 188.316991 
L 171.588759 192.074765 
L 174.637477 195.478942 
L 177.178075 198.021336 
L 179.718673 200.276995 
L 182.259271 202.229651 
L 184.799869 203.864641 
L 186.832347 204.93512 
L 188.864825 205.788067 
L 190.897304 206.418327 
L 192.929782 206.82147 
L 194.96226 206.993806 
L 196.994739 206.932389 
L 199.027217 206.635031 
L 201.059696 206.100298 
L 203.092174 205.327523 
L 205.124652 204.316802 
L 207.157131 203.068993 
L 209.189609 201.585718 
L 211.222087 199.869357 
L 213.762685 197.40097 
L 216.303283 194.581084 
L 218.843881 191.419238 
L 221.384479 187.926725 
L 224.433197 183.317652 
L 227.481914 178.276842 
L 230.530632 172.833213 
L 234.087469 166.016138 
L 238.152426 157.679493 
L 242.725502 147.71519 
L 247.806698 136.084085 
L 255.428492 117.984288 
L 266.099004 92.650999 
L 271.180199 81.155636 
L 275.245156 72.448595 
L 278.801993 65.29072 
L 282.358831 58.646449 
L 285.407548 53.41885 
L 288.456266 48.672461 
L 290.996864 45.117336 
L 293.537462 41.952722 
L 295.56994 39.718243 
L 297.602418 37.760577 
L 299.634897 36.090793 
L 301.667375 34.719381 
L 303.699853 33.656216 
L 305.732332 32.910533 
L 307.256691 32.564794 
L 308.781049 32.405825 
L 310.305408 32.436752 
L 311.829767 32.660471 
L 313.354126 33.079636 
L 314.878485 33.696659 
L 316.402843 34.5137 
L 317.927202 35.532667 
L 319.95968 37.208204 
L 321.992159 39.248792 
L 324.024637 41.656757 
L 326.057116 44.433562 
L 328.089594 47.579793 
L 330.122072 51.09515 
L 332.66267 56.00652 
L 335.203268 61.488389 
L 337.743866 67.534214 
L 340.284464 74.135223 
L 342.825062 81.280418 
L 345.87378 90.554212 
L 348.922497 100.565459 
L 351.971215 111.282624 
L 354.003693 118.801997 
L 354.003693 118.801997 
" style="fill:none;stroke:#800080;stroke-linecap:square;stroke-width:2.7;"/>
   </g>
   <g id="patch_3">
    <path d="M 34.421875 239.95125 
L 34.421875 22.51125 
" style="fill:none;stroke:#808080;stroke-linecap:square;stroke-linejoin:miter;stroke-width:0.5;"/>
   </g>
   <g id="patch_4">
    <path d="M 34.421875 239.95125 
L 369.221875 239.95125 
" style="fill:none;stroke:#808080;stroke-linecap:square;stroke-linejoin:miter;stroke-width:0.5;"/>
   </g>
   <g id="text_16">
    <!-- Prior -->
    <defs>
     <path d="M 27 70 
Q 41.59375 70 49.4375 64.453125 
Q 57.296875 58.90625 57.296875 47.90625 
Q 57.296875 41.90625 55.140625 37.65625 
Q 53 33.40625 48.953125 30.75 
Q 44.90625 28.09375 39.09375 26.890625 
Q 33.296875 25.703125 26 25.703125 
L 18.296875 25.703125 
L 18.296875 0 
L 8.59375 0 
L 8.59375 68.296875 
Q 12.703125 69.296875 17.75 69.640625 
Q 22.796875 70 27 70 
z
M 27.796875 61.5 
Q 21.59375 61.5 18.296875 61.203125 
L 18.296875 34 
L 25.59375 34 
Q 30.59375 34 34.59375 34.640625 
Q 38.59375 35.296875 41.34375 36.84375 
Q 44.09375 38.40625 45.59375 41.09375 
Q 47.09375 43.796875 47.09375 48 
Q 47.09375 52 45.546875 54.59375 
Q 44 57.203125 41.34375 58.75 
Q 38.703125 60.296875 35.203125 60.890625 
Q 31.703125 61.5 27.796875 61.5 
z
" id="Ubuntu-80"/>
     <path d="M 27.203125 53.09375 
Q 28.40625 53.09375 29.953125 52.9375 
Q 31.5 52.796875 33 52.546875 
Q 34.5 52.296875 35.75 52.046875 
Q 37 51.796875 37.59375 51.59375 
L 36 43.5 
Q 34.90625 43.90625 32.34375 44.453125 
Q 29.796875 45 25.796875 45 
Q 23.203125 45 20.640625 44.453125 
Q 18.09375 43.90625 17.296875 43.703125 
L 17.296875 0 
L 8 0 
L 8 49.796875 
Q 11.296875 51 16.1875 52.046875 
Q 21.09375 53.09375 27.203125 53.09375 
z
" id="Ubuntu-114"/>
     <path d="M 17.296875 0 
L 8 0 
L 8 52 
L 17.296875 52 
z
M 12.59375 61.40625 
Q 10.09375 61.40625 8.34375 63.046875 
Q 6.59375 64.703125 6.59375 67.5 
Q 6.59375 70.296875 8.34375 71.9375 
Q 10.09375 73.59375 12.59375 73.59375 
Q 15.09375 73.59375 16.84375 71.9375 
Q 18.59375 70.296875 18.59375 67.5 
Q 18.59375 64.703125 16.84375 63.046875 
Q 15.09375 61.40625 12.59375 61.40625 
z
" id="Ubuntu-105"/>
    </defs>
    <g transform="translate(188.485 16.51125)scale(0.12 -0.12)">
     <use xlink:href="#Ubuntu-80"/>
     <use x="60.799988" xlink:href="#Ubuntu-114"/>
     <use x="99.399979" xlink:href="#Ubuntu-105"/>
     <use x="124.699966" xlink:href="#Ubuntu-111"/>
     <use x="183.699951" xlink:href="#Ubuntu-114"/>
    </g>
   </g>
   <g id="legend_1">
    <g id="patch_5">
     <path d="M 389.613875 75.170625 
L 495.113875 75.170625 
Q 497.113875 75.170625 497.113875 73.170625 
L 497.113875 29.51125 
Q 497.113875 27.51125 495.113875 27.51125 
L 389.613875 27.51125 
Q 387.613875 27.51125 387.613875 29.51125 
L 387.613875 73.170625 
Q 387.613875 75.170625 389.613875 75.170625 
z
" style="fill:#ffffff;opacity:0.8;stroke:#cccccc;stroke-linejoin:miter;stroke-width:0.24;"/>
    </g>
    <g id="line2d_29">
     <path d="M 391.613875 35.91125 
L 411.613875 35.91125 
" style="fill:none;stroke:#000000;stroke-linecap:square;stroke-width:2.7;"/>
    </g>
    <g id="line2d_30"/>
    <g id="text_17">
     <!-- Predicted ($\mu$) -->
     <defs>
      <path d="M 17.09375 29.90625 
Q 17.09375 17.09375 20.796875 6.1875 
Q 24.5 -4.703125 31.703125 -14 
L 25.09375 -18.5 
Q 17.296875 -9 12.546875 3.34375 
Q 7.796875 15.703125 7.796875 29.90625 
Q 7.796875 44.09375 12.546875 56.4375 
Q 17.296875 68.796875 25.09375 78.296875 
L 31.703125 73.796875 
Q 24.5 64.5 20.796875 53.59375 
Q 17.09375 42.703125 17.09375 29.90625 
z
" id="Ubuntu-40"/>
      <path d="M -1.3125 -20.796875 
L 13.375 54.6875 
L 22.40625 54.6875 
L 15.765625 20.65625 
Q 15.578125 19.625 15.421875 18.359375 
Q 15.28125 17.09375 15.28125 15.828125 
Q 15.28125 11.28125 18.140625 8.828125 
Q 21 6.390625 26.3125 6.390625 
Q 33.546875 6.390625 37.984375 10.484375 
Q 42.4375 14.59375 44 22.796875 
L 50.203125 54.6875 
L 59.1875 54.6875 
L 51.03125 12.640625 
Q 50.828125 11.71875 50.75 11.03125 
Q 50.6875 10.359375 50.6875 9.8125 
Q 50.6875 8.296875 51.296875 7.59375 
Q 51.90625 6.890625 53.21875 6.890625 
Q 53.71875 6.890625 54.5625 7.125 
Q 55.421875 7.375 56.984375 8.015625 
L 55.609375 0.78125 
Q 53.46875 -0.296875 51.515625 -0.859375 
Q 49.5625 -1.421875 47.703125 -1.421875 
Q 44.484375 -1.421875 42.65625 0.625 
Q 40.828125 2.6875 40.828125 6.296875 
Q 38.09375 2.390625 34.296875 0.484375 
Q 30.515625 -1.421875 25.390625 -1.421875 
Q 20.84375 -1.421875 17.453125 0.671875 
Q 14.0625 2.78125 12.984375 6.203125 
L 7.71875 -20.796875 
z
" id="DejaVuSans-Oblique-956"/>
      <path d="M 15.296875 29.90625 
Q 15.296875 42.703125 11.59375 53.59375 
Q 7.90625 64.5 0.703125 73.796875 
L 7.296875 78.296875 
Q 15.09375 68.796875 19.84375 56.4375 
Q 24.59375 44.09375 24.59375 29.90625 
Q 24.59375 15.703125 19.84375 3.34375 
Q 15.09375 -9 7.296875 -18.5 
L 0.703125 -14 
Q 7.90625 -4.703125 11.59375 6.1875 
Q 15.296875 17.09375 15.296875 29.90625 
z
" id="Ubuntu-41"/>
     </defs>
     <g transform="translate(419.613875 39.41125)scale(0.1 -0.1)">
      <use transform="translate(0 0.703125)" xlink:href="#Ubuntu-80"/>
      <use transform="translate(60.799988 0.703125)" xlink:href="#Ubuntu-114"/>
      <use transform="translate(99.399979 0.703125)" xlink:href="#Ubuntu-101"/>
      <use transform="translate(155.299973 0.703125)" xlink:href="#Ubuntu-100"/>
      <use transform="translate(214.199966 0.703125)" xlink:href="#Ubuntu-105"/>
      <use transform="translate(239.499954 0.703125)" xlink:href="#Ubuntu-99"/>
      <use transform="translate(285.999939 0.703125)" xlink:href="#Ubuntu-116"/>
      <use transform="translate(326.199936 0.703125)" xlink:href="#Ubuntu-101"/>
      <use transform="translate(382.09993 0.703125)" xlink:href="#Ubuntu-100"/>
      <use transform="translate(440.999924 0.703125)" xlink:href="#Ubuntu-32"/>
      <use transform="translate(464.099915 0.703125)" xlink:href="#Ubuntu-40"/>
      <use transform="translate(496.499908 0.703125)" xlink:href="#DejaVuSans-Oblique-956"/>
      <use transform="translate(560.122955 0.703125)" xlink:href="#Ubuntu-41"/>
     </g>
    </g>
    <g id="line2d_31">
     <path d="M 391.613875 50.91125 
L 411.613875 50.91125 
" style="fill:none;stroke:#800080;stroke-linecap:square;stroke-width:2.7;"/>
    </g>
    <g id="line2d_32"/>
    <g id="text_18">
     <!-- Ground Truth ($f$) -->
     <defs>
      <path d="M 49.40625 1.5 
Q 46.203125 0.703125 40.953125 -0.1875 
Q 35.703125 -1.09375 28.796875 -1.09375 
Q 22.796875 -1.09375 18.6875 0.65625 
Q 14.59375 2.40625 12.09375 5.59375 
Q 9.59375 8.796875 8.5 13.140625 
Q 7.40625 17.5 7.40625 22.796875 
L 7.40625 52 
L 16.703125 52 
L 16.703125 24.796875 
Q 16.703125 15.296875 19.703125 11.1875 
Q 22.703125 7.09375 29.796875 7.09375 
Q 31.296875 7.09375 32.890625 7.1875 
Q 34.5 7.296875 35.890625 7.4375 
Q 37.296875 7.59375 38.4375 7.75 
Q 39.59375 7.90625 40.09375 8.09375 
L 40.09375 52 
L 49.40625 52 
z
" id="Ubuntu-117"/>
      <path d="M 54.90625 69.296875 
L 54.90625 60.90625 
L 33.09375 60.90625 
L 33.09375 0 
L 23.40625 0 
L 23.40625 60.90625 
L 1.59375 60.90625 
L 1.59375 69.296875 
z
" id="Ubuntu-84"/>
      <path d="M 8 0 
L 8 76 
L 17.296875 77.59375 
L 17.296875 51 
Q 19.90625 52 22.84375 52.546875 
Q 25.796875 53.09375 28.703125 53.09375 
Q 34.90625 53.09375 39 51.34375 
Q 43.09375 49.59375 45.546875 46.4375 
Q 48 43.296875 49 38.890625 
Q 50 34.5 50 29.203125 
L 50 0 
L 40.703125 0 
L 40.703125 27.203125 
Q 40.703125 32 40.046875 35.390625 
Q 39.40625 38.796875 37.90625 40.890625 
Q 36.40625 43 33.90625 43.953125 
Q 31.40625 44.90625 27.703125 44.90625 
Q 26.203125 44.90625 24.59375 44.703125 
Q 23 44.5 21.546875 44.25 
Q 20.09375 44 18.9375 43.703125 
Q 17.796875 43.40625 17.296875 43.203125 
L 17.296875 0 
z
" id="Ubuntu-104"/>
      <path d="M 47.796875 75.984375 
L 46.390625 68.5 
L 37.796875 68.5 
Q 32.90625 68.5 30.6875 66.578125 
Q 28.46875 64.65625 27.390625 59.515625 
L 26.421875 54.6875 
L 41.21875 54.6875 
L 39.890625 47.703125 
L 25.09375 47.703125 
L 15.828125 0 
L 6.78125 0 
L 16.109375 47.703125 
L 7.515625 47.703125 
L 8.796875 54.6875 
L 17.390625 54.6875 
L 18.109375 58.5 
Q 19.96875 68.171875 24.625 72.078125 
Q 29.296875 75.984375 39.3125 75.984375 
z
" id="DejaVuSans-Oblique-102"/>
     </defs>
     <g transform="translate(419.613875 54.41125)scale(0.1 -0.1)">
      <use transform="translate(0 0.703125)" xlink:href="#Ubuntu-71"/>
      <use transform="translate(67.199997 0.703125)" xlink:href="#Ubuntu-114"/>
      <use transform="translate(105.799988 0.703125)" xlink:href="#Ubuntu-111"/>
      <use transform="translate(164.799973 0.703125)" xlink:href="#Ubuntu-117"/>
      <use transform="translate(222.199966 0.703125)" xlink:href="#Ubuntu-110"/>
      <use transform="translate(279.59996 0.703125)" xlink:href="#Ubuntu-100"/>
      <use transform="translate(338.499954 0.703125)" xlink:href="#Ubuntu-32"/>
      <use transform="translate(361.599945 0.703125)" xlink:href="#Ubuntu-84"/>
      <use transform="translate(418.09993 0.703125)" xlink:href="#Ubuntu-114"/>
      <use transform="translate(456.699921 0.703125)" xlink:href="#Ubuntu-117"/>
      <use transform="translate(514.099915 0.703125)" xlink:href="#Ubuntu-116"/>
      <use transform="translate(554.299911 0.703125)" xlink:href="#Ubuntu-104"/>
      <use transform="translate(611.399902 0.703125)" xlink:href="#Ubuntu-32"/>
      <use transform="translate(634.499893 0.703125)" xlink:href="#Ubuntu-40"/>
      <use transform="translate(666.899887 0.703125)" xlink:href="#DejaVuSans-Oblique-102"/>
      <use transform="translate(702.104965 0.703125)" xlink:href="#Ubuntu-41"/>
     </g>
    </g>
    <g id="patch_6">
     <path d="M 391.613875 69.070625 
L 411.613875 69.070625 
L 411.613875 62.070625 
L 391.613875 62.070625 
z
" style="fill:#808080;opacity:0.4;stroke:#808080;stroke-linejoin:miter;stroke-width:0.24;"/>
    </g>
    <g id="text_19">
     <!-- $\mu \pm \sigma$ -->
     <defs>
      <path d="M 46 62.703125 
L 46 43.796875 
L 73.1875 43.796875 
L 73.1875 35.5 
L 46 35.5 
L 46 16.609375 
L 37.796875 16.609375 
L 37.796875 35.5 
L 10.59375 35.5 
L 10.59375 43.796875 
L 37.796875 43.796875 
L 37.796875 62.703125 
z
M 10.59375 8.296875 
L 73.1875 8.296875 
L 73.1875 0 
L 10.59375 0 
z
" id="DejaVuSans-177"/>
      <path d="M 34.671875 47.5625 
Q 27.25 47.5625 22.21875 42.1875 
Q 16.890625 36.578125 15.140625 27.296875 
Q 13.1875 17.484375 16.3125 11.8125 
Q 19.390625 6.203125 26.65625 6.203125 
Q 33.84375 6.203125 39.109375 11.859375 
Q 44.4375 17.53125 46.34375 27.296875 
Q 48.046875 36.234375 45.015625 42.1875 
Q 42.1875 47.5625 34.671875 47.5625 
z
M 36.078125 54.734375 
L 65.921875 54.6875 
L 64.15625 45.703125 
L 54.109375 45.703125 
Q 57.90625 38.09375 55.859375 27.296875 
Q 53.21875 13.875 45.0625 6.25 
Q 36.859375 -1.421875 25.140625 -1.421875 
Q 13.375 -1.421875 8.203125 6.25 
Q 3.03125 13.875 5.671875 27.296875 
Q 8.25 40.765625 16.40625 48.390625 
Q 23.1875 54.734375 36.078125 54.734375 
z
" id="DejaVuSans-Oblique-963"/>
     </defs>
     <g transform="translate(419.613875 69.070625)scale(0.1 -0.1)">
      <use transform="translate(0 0.296875)" xlink:href="#DejaVuSans-Oblique-956"/>
      <use transform="translate(83.105469 0.296875)" xlink:href="#DejaVuSans-177"/>
      <use transform="translate(186.376953 0.296875)" xlink:href="#DejaVuSans-Oblique-963"/>
     </g>
    </g>
   </g>
  </g>
 </g>
 <defs>
  <clipPath id="pde5316337a">
   <rect height="217.44" width="334.8" x="34.421875" y="22.51125"/>
  </clipPath>
 </defs>
</svg>
