<?xml version="1.0" encoding="utf-8" standalone="no"?>
<!DOCTYPE svg PUBLIC "-//W3C//DTD SVG 1.1//EN"
  "http://www.w3.org/Graphics/SVG/1.1/DTD/svg11.dtd">
<!-- Created with matplotlib (https://matplotlib.org/) -->
<svg height="279.888825pt" version="1.1" viewBox="0 0 532.065475 279.888825" width="532.065475pt" xmlns="http://www.w3.org/2000/svg" xmlns:xlink="http://www.w3.org/1999/xlink">
 <defs>
  <style type="text/css">
*{stroke-linecap:butt;stroke-linejoin:round;white-space:pre;}
  </style>
 </defs>
 <g id="figure_1">
  <g id="patch_1">
   <path d="M 0 279.888825 
L 532.065475 279.888825 
L 532.065475 0 
L 0 0 
z
" style="fill:#f0f0f0;"/>
  </g>
  <g id="axes_1">
   <g id="patch_2">
    <path d="M 31.871875 244.0482 
L 407.711875 244.0482 
L 407.711875 26.6082 
L 31.871875 26.6082 
z
" style="fill:#f0f0f0;"/>
   </g>
   <g id="matplotlib.axis_1">
    <g id="xtick_1">
     <g id="line2d_1">
      <path clip-path="url(#pcebdf2e399)" d="M 48.955511 244.0482 
L 48.955511 26.6082 
" style="fill:none;stroke:#cbcbcb;"/>
     </g>
     <g id="line2d_2"/>
     <g id="text_1">
      <!-- 0 -->
      <defs>
       <path d="M 5 34.703125 
Q 5 52.09375 11.140625 61.5 
Q 17.296875 70.90625 28.203125 70.90625 
Q 39.09375 70.90625 45.25 61.5 
Q 51.40625 52.09375 51.40625 34.703125 
Q 51.40625 17.296875 45.25 7.890625 
Q 39.09375 -1.5 28.203125 -1.5 
Q 17.296875 -1.5 11.140625 7.890625 
Q 5 17.296875 5 34.703125 
z
M 41.59375 34.703125 
Q 41.59375 40.40625 40.9375 45.5 
Q 40.296875 50.59375 38.75 54.390625 
Q 37.203125 58.203125 34.59375 60.453125 
Q 32 62.703125 28.203125 62.703125 
Q 24.40625 62.703125 21.796875 60.453125 
Q 19.203125 58.203125 17.640625 54.390625 
Q 16.09375 50.59375 15.4375 45.5 
Q 14.796875 40.40625 14.796875 34.703125 
Q 14.796875 29 15.4375 23.890625 
Q 16.09375 18.796875 17.640625 15 
Q 19.203125 11.203125 21.796875 8.953125 
Q 24.40625 6.703125 28.203125 6.703125 
Q 32 6.703125 34.59375 8.953125 
Q 37.203125 11.203125 38.75 15 
Q 40.296875 18.796875 40.9375 23.890625 
Q 41.59375 29 41.59375 34.703125 
z
" id="Ubuntu-48"/>
      </defs>
      <g transform="translate(46.135199 255.307575)scale(0.1 -0.1)">
       <use xlink:href="#Ubuntu-48"/>
      </g>
     </g>
    </g>
    <g id="xtick_2">
     <g id="line2d_3">
      <path clip-path="url(#pcebdf2e399)" d="M 105.900966 244.0482 
L 105.900966 26.6082 
" style="fill:none;stroke:#cbcbcb;"/>
     </g>
     <g id="line2d_4"/>
     <g id="text_2">
      <!-- 1 -->
      <defs>
       <path d="M 9.296875 55 
Q 15 57.203125 20.390625 60.640625 
Q 25.796875 64.09375 30.296875 69.296875 
L 36.90625 69.296875 
L 36.90625 0 
L 27.59375 0 
L 27.59375 56.40625 
Q 26.40625 55.296875 24.65625 54.09375 
Q 22.90625 52.90625 20.84375 51.796875 
Q 18.796875 50.703125 16.546875 49.703125 
Q 14.296875 48.703125 12.203125 48 
z
" id="Ubuntu-49"/>
      </defs>
      <g transform="translate(103.080653 255.307575)scale(0.1 -0.1)">
       <use xlink:href="#Ubuntu-49"/>
      </g>
     </g>
    </g>
    <g id="xtick_3">
     <g id="line2d_5">
      <path clip-path="url(#pcebdf2e399)" d="M 162.84642 244.0482 
L 162.84642 26.6082 
" style="fill:none;stroke:#cbcbcb;"/>
     </g>
     <g id="line2d_6"/>
     <g id="text_3">
      <!-- 2 -->
      <defs>
       <path d="M 46.703125 51.59375 
Q 46.703125 48 45.25 44.640625 
Q 43.796875 41.296875 41.390625 38.046875 
Q 39 34.796875 36 31.640625 
Q 33 28.5 30 25.5 
Q 28.296875 23.796875 26.046875 21.5 
Q 23.796875 19.203125 21.796875 16.703125 
Q 19.796875 14.203125 18.4375 11.890625 
Q 17.09375 9.59375 17.09375 7.90625 
L 49 7.90625 
L 49 0 
L 7 0 
Q 6.90625 0.59375 6.90625 1.1875 
Q 6.90625 1.796875 6.90625 2.296875 
Q 6.90625 7 8.453125 11.046875 
Q 10 15.09375 12.5 18.6875 
Q 15 22.296875 18.09375 25.5 
Q 21.203125 28.703125 24.203125 31.703125 
Q 26.703125 34.09375 28.953125 36.4375 
Q 31.203125 38.796875 32.953125 41.140625 
Q 34.703125 43.5 35.75 46 
Q 36.796875 48.5 36.796875 51.296875 
Q 36.796875 54.296875 35.84375 56.390625 
Q 34.90625 58.5 33.296875 59.890625 
Q 31.703125 61.296875 29.546875 61.9375 
Q 27.40625 62.59375 25 62.59375 
Q 22.09375 62.59375 19.6875 61.796875 
Q 17.296875 61 15.390625 59.953125 
Q 13.5 58.90625 12.203125 57.75 
Q 10.90625 56.59375 10.203125 56 
L 5.59375 62.59375 
Q 6.5 63.59375 8.296875 65.046875 
Q 10.09375 66.5 12.59375 67.796875 
Q 15.09375 69.09375 18.1875 70 
Q 21.296875 70.90625 24.90625 70.90625 
Q 35.796875 70.90625 41.25 65.84375 
Q 46.703125 60.796875 46.703125 51.59375 
z
" id="Ubuntu-50"/>
      </defs>
      <g transform="translate(160.026108 255.307575)scale(0.1 -0.1)">
       <use xlink:href="#Ubuntu-50"/>
      </g>
     </g>
    </g>
    <g id="xtick_4">
     <g id="line2d_7">
      <path clip-path="url(#pcebdf2e399)" d="M 219.791875 244.0482 
L 219.791875 26.6082 
" style="fill:none;stroke:#cbcbcb;"/>
     </g>
     <g id="line2d_8"/>
     <g id="text_4">
      <!-- 3 -->
      <defs>
       <path d="M 22.59375 6.796875 
Q 31.5 6.796875 35.34375 10.296875 
Q 39.203125 13.796875 39.203125 19.703125 
Q 39.203125 23.5 37.59375 26.09375 
Q 36 28.703125 33.390625 30.25 
Q 30.796875 31.796875 27.34375 32.4375 
Q 23.90625 33.09375 20.296875 33.09375 
L 17.90625 33.09375 
L 17.90625 40.703125 
L 21.203125 40.703125 
Q 23.703125 40.703125 26.34375 41.203125 
Q 29 41.703125 31.203125 43 
Q 33.40625 44.296875 34.796875 46.546875 
Q 36.203125 48.796875 36.203125 52.203125 
Q 36.203125 55 35.203125 57 
Q 34.203125 59 32.546875 60.296875 
Q 30.90625 61.59375 28.75 62.140625 
Q 26.59375 62.703125 24.203125 62.703125 
Q 19.40625 62.703125 16.046875 61.296875 
Q 12.703125 59.90625 10.40625 58.40625 
L 6.796875 65.5 
Q 8 66.296875 9.84375 67.25 
Q 11.703125 68.203125 14 69 
Q 16.296875 69.796875 18.9375 70.34375 
Q 21.59375 70.90625 24.5 70.90625 
Q 30 70.90625 34 69.546875 
Q 38 68.203125 40.59375 65.75 
Q 43.203125 63.296875 44.5 59.9375 
Q 45.796875 56.59375 45.796875 52.703125 
Q 45.796875 47.296875 42.6875 43.4375 
Q 39.59375 39.59375 35.203125 37.59375 
Q 37.90625 36.796875 40.40625 35.296875 
Q 42.90625 33.796875 44.75 31.5 
Q 46.59375 29.203125 47.75 26.203125 
Q 48.90625 23.203125 48.90625 19.5 
Q 48.90625 15 47.34375 11.140625 
Q 45.796875 7.296875 42.546875 4.5 
Q 39.296875 1.703125 34.390625 0.09375 
Q 29.5 -1.5 22.796875 -1.5 
Q 20.203125 -1.5 17.453125 -1.09375 
Q 14.703125 -0.703125 12.296875 -0.09375 
Q 9.90625 0.5 8.09375 1.09375 
Q 6.296875 1.703125 5.5 2.09375 
L 7.296875 10.203125 
Q 9 9.40625 12.953125 8.09375 
Q 16.90625 6.796875 22.59375 6.796875 
z
" id="Ubuntu-51"/>
      </defs>
      <g transform="translate(216.971563 255.307575)scale(0.1 -0.1)">
       <use xlink:href="#Ubuntu-51"/>
      </g>
     </g>
    </g>
    <g id="xtick_5">
     <g id="line2d_9">
      <path clip-path="url(#pcebdf2e399)" d="M 276.73733 244.0482 
L 276.73733 26.6082 
" style="fill:none;stroke:#cbcbcb;"/>
     </g>
     <g id="line2d_10"/>
     <g id="text_5">
      <!-- 4 -->
      <defs>
       <path d="M 4 24 
Q 5.90625 28.40625 9.203125 34.25 
Q 12.5 40.09375 16.640625 46.296875 
Q 20.796875 52.5 25.546875 58.5 
Q 30.296875 64.5 35.09375 69.296875 
L 44 69.296875 
L 44 25.296875 
L 52.203125 25.296875 
L 52.203125 17.703125 
L 44 17.703125 
L 44 0 
L 35 0 
L 35 17.703125 
L 4 17.703125 
z
M 35 58.296875 
Q 32 55.09375 28.953125 51.140625 
Q 25.90625 47.203125 23 42.890625 
Q 20.09375 38.59375 17.546875 34.09375 
Q 15 29.59375 13 25.296875 
L 35 25.296875 
z
" id="Ubuntu-52"/>
      </defs>
      <g transform="translate(273.917017 255.307575)scale(0.1 -0.1)">
       <use xlink:href="#Ubuntu-52"/>
      </g>
     </g>
    </g>
    <g id="xtick_6">
     <g id="line2d_11">
      <path clip-path="url(#pcebdf2e399)" d="M 333.682784 244.0482 
L 333.682784 26.6082 
" style="fill:none;stroke:#cbcbcb;"/>
     </g>
     <g id="line2d_12"/>
     <g id="text_6">
      <!-- 5 -->
      <defs>
       <path d="M 19.90625 42.59375 
Q 35 42 42.046875 36 
Q 49.09375 30 49.09375 19.703125 
Q 49.09375 15.09375 47.546875 11.1875 
Q 46 7.296875 42.84375 4.5 
Q 39.703125 1.703125 34.890625 0.09375 
Q 30.09375 -1.5 23.5 -1.5 
Q 20.90625 -1.5 18.203125 -1.09375 
Q 15.5 -0.703125 13.203125 -0.09375 
Q 10.90625 0.5 9.09375 1.09375 
Q 7.296875 1.703125 6.5 2.09375 
L 8.296875 10.203125 
Q 10 9.40625 13.84375 8.09375 
Q 17.703125 6.796875 23.296875 6.796875 
Q 27.796875 6.796875 30.84375 7.796875 
Q 33.90625 8.796875 35.796875 10.5 
Q 37.703125 12.203125 38.546875 14.453125 
Q 39.40625 16.703125 39.40625 19.203125 
Q 39.40625 23 38.09375 25.953125 
Q 36.796875 28.90625 33.5 30.90625 
Q 30.203125 32.90625 24.703125 33.953125 
Q 19.203125 35 10.796875 35 
Q 11.40625 39.90625 11.75 44.203125 
Q 12.09375 48.5 12.390625 52.59375 
Q 12.703125 56.703125 12.890625 60.75 
Q 13.09375 64.796875 13.296875 69.296875 
L 46.703125 69.296875 
L 46.703125 61.40625 
L 21.40625 61.40625 
Q 21.296875 59.90625 21.09375 57.34375 
Q 20.90625 54.796875 20.703125 52.046875 
Q 20.5 49.296875 20.296875 46.6875 
Q 20.09375 44.09375 19.90625 42.59375 
z
" id="Ubuntu-53"/>
      </defs>
      <g transform="translate(330.862472 255.307575)scale(0.1 -0.1)">
       <use xlink:href="#Ubuntu-53"/>
      </g>
     </g>
    </g>
    <g id="xtick_7">
     <g id="line2d_13">
      <path clip-path="url(#pcebdf2e399)" d="M 390.628239 244.0482 
L 390.628239 26.6082 
" style="fill:none;stroke:#cbcbcb;"/>
     </g>
     <g id="line2d_14"/>
     <g id="text_7">
      <!-- 6 -->
      <defs>
       <path d="M 6.296875 27.796875 
Q 6.296875 37.90625 9.09375 45.65625 
Q 11.90625 53.40625 17.046875 58.703125 
Q 22.203125 64 29.546875 66.75 
Q 36.90625 69.5 46.09375 69.59375 
L 46.796875 61.796875 
Q 40.90625 61.703125 36.046875 60.5 
Q 31.203125 59.296875 27.390625 56.6875 
Q 23.59375 54.09375 21 49.9375 
Q 18.40625 45.796875 17.09375 39.703125 
Q 19.703125 40.90625 22.953125 41.703125 
Q 26.203125 42.5 29.703125 42.5 
Q 35.59375 42.5 39.6875 40.703125 
Q 43.796875 38.90625 46.390625 35.953125 
Q 49 33 50.140625 29.140625 
Q 51.296875 25.296875 51.296875 21.09375 
Q 51.296875 17.296875 50 13.296875 
Q 48.703125 9.296875 46.046875 6 
Q 43.40625 2.703125 39.296875 0.59375 
Q 35.203125 -1.5 29.59375 -1.5 
Q 18.203125 -1.5 12.25 6.296875 
Q 6.296875 14.09375 6.296875 27.796875 
z
M 28.703125 34.90625 
Q 25.203125 34.90625 22.203125 34.25 
Q 19.203125 33.59375 16.203125 32.296875 
Q 16.09375 31.203125 16.046875 30.046875 
Q 16 28.90625 16 27.796875 
Q 16 23.40625 16.59375 19.5 
Q 17.203125 15.59375 18.75 12.640625 
Q 20.296875 9.703125 22.890625 7.953125 
Q 25.5 6.203125 29.5 6.203125 
Q 32.796875 6.203125 35.09375 7.59375 
Q 37.40625 9 38.90625 11.203125 
Q 40.40625 13.40625 41.046875 15.953125 
Q 41.703125 18.5 41.703125 20.90625 
Q 41.703125 27.703125 38.453125 31.296875 
Q 35.203125 34.90625 28.703125 34.90625 
z
" id="Ubuntu-54"/>
      </defs>
      <g transform="translate(387.807926 255.307575)scale(0.1 -0.1)">
       <use xlink:href="#Ubuntu-54"/>
      </g>
     </g>
    </g>
    <g id="text_8">
     <!-- X -->
     <defs>
      <path d="M 50.203125 0 
Q 48.703125 3 46.59375 6.640625 
Q 44.5 10.296875 42 14.25 
Q 39.5 18.203125 36.796875 22.140625 
Q 34.09375 26.09375 31.59375 29.59375 
Q 29.09375 26.09375 26.390625 22.140625 
Q 23.703125 18.203125 21.25 14.25 
Q 18.796875 10.296875 16.640625 6.640625 
Q 14.5 3 13 0 
L 2.296875 0 
Q 6.796875 8.796875 12.75 17.890625 
Q 18.703125 27 25.40625 36.59375 
L 3.203125 69.296875 
L 14.40625 69.296875 
L 31.5 43.5 
L 48.40625 69.296875 
L 59.5 69.296875 
L 37.703125 37 
Q 44.5 27.296875 50.5 18.09375 
Q 56.5 8.90625 61.09375 0 
z
" id="Ubuntu-88"/>
     </defs>
     <g transform="translate(216.00625 270.468825)scale(0.12 -0.12)">
      <use xlink:href="#Ubuntu-88"/>
     </g>
    </g>
   </g>
   <g id="matplotlib.axis_2">
    <g id="ytick_1">
     <g id="line2d_15">
      <path clip-path="url(#pcebdf2e399)" d="M 31.871875 212.623309 
L 407.711875 212.623309 
" style="fill:none;stroke:#cbcbcb;"/>
     </g>
     <g id="line2d_16"/>
     <g id="text_9">
      <!-- 0 -->
      <g transform="translate(22.73125 216.502997)scale(0.1 -0.1)">
       <use xlink:href="#Ubuntu-48"/>
      </g>
     </g>
    </g>
    <g id="ytick_2">
     <g id="line2d_17">
      <path clip-path="url(#pcebdf2e399)" d="M 31.871875 169.5408 
L 407.711875 169.5408 
" style="fill:none;stroke:#cbcbcb;"/>
     </g>
     <g id="line2d_18"/>
     <g id="text_10">
      <!-- 2 -->
      <g transform="translate(22.73125 173.420488)scale(0.1 -0.1)">
       <use xlink:href="#Ubuntu-50"/>
      </g>
     </g>
    </g>
    <g id="ytick_3">
     <g id="line2d_19">
      <path clip-path="url(#pcebdf2e399)" d="M 31.871875 126.458291 
L 407.711875 126.458291 
" style="fill:none;stroke:#cbcbcb;"/>
     </g>
     <g id="line2d_20"/>
     <g id="text_11">
      <!-- 4 -->
      <g transform="translate(22.73125 130.337979)scale(0.1 -0.1)">
       <use xlink:href="#Ubuntu-52"/>
      </g>
     </g>
    </g>
    <g id="ytick_4">
     <g id="line2d_21">
      <path clip-path="url(#pcebdf2e399)" d="M 31.871875 83.375782 
L 407.711875 83.375782 
" style="fill:none;stroke:#cbcbcb;"/>
     </g>
     <g id="line2d_22"/>
     <g id="text_12">
      <!-- 6 -->
      <g transform="translate(22.73125 87.25547)scale(0.1 -0.1)">
       <use xlink:href="#Ubuntu-54"/>
      </g>
     </g>
    </g>
    <g id="ytick_5">
     <g id="line2d_23">
      <path clip-path="url(#pcebdf2e399)" d="M 31.871875 40.293273 
L 407.711875 40.293273 
" style="fill:none;stroke:#cbcbcb;"/>
     </g>
     <g id="line2d_24"/>
     <g id="text_13">
      <!-- 8 -->
      <defs>
       <path d="M 50.90625 18 
Q 50.90625 13.796875 49.453125 10.25 
Q 48 6.703125 45.140625 4.046875 
Q 42.296875 1.40625 38 -0.046875 
Q 33.703125 -1.5 28.09375 -1.5 
Q 21.59375 -1.5 17.25 0.34375 
Q 12.90625 2.203125 10.296875 5 
Q 7.703125 7.796875 6.59375 11.140625 
Q 5.5 14.5 5.5 17.5 
Q 5.5 20.40625 6.453125 23.046875 
Q 7.40625 25.703125 8.953125 28 
Q 10.5 30.296875 12.546875 32.140625 
Q 14.59375 34 16.90625 35.40625 
Q 7.09375 41 7.09375 51.90625 
Q 7.09375 55.703125 8.59375 59.140625 
Q 10.09375 62.59375 12.84375 65.1875 
Q 15.59375 67.796875 19.5 69.34375 
Q 23.40625 70.90625 28.203125 70.90625 
Q 33.796875 70.90625 37.796875 69.203125 
Q 41.796875 67.5 44.34375 64.84375 
Q 46.90625 62.203125 48.046875 59 
Q 49.203125 55.796875 49.203125 52.796875 
Q 49.203125 49.90625 48.34375 47.34375 
Q 47.5 44.796875 46.046875 42.59375 
Q 44.59375 40.40625 42.75 38.703125 
Q 40.90625 37 38.90625 35.703125 
Q 50.703125 30.09375 50.90625 18 
z
M 14.90625 17.40625 
Q 14.90625 15.59375 15.546875 13.640625 
Q 16.203125 11.703125 17.796875 10.046875 
Q 19.40625 8.40625 21.90625 7.296875 
Q 24.40625 6.203125 28.203125 6.203125 
Q 31.59375 6.203125 34.140625 7.203125 
Q 36.703125 8.203125 38.296875 9.75 
Q 39.90625 11.296875 40.703125 13.296875 
Q 41.5 15.296875 41.5 17.40625 
Q 41.5 20.59375 40.296875 23 
Q 39.09375 25.40625 36.84375 27.203125 
Q 34.59375 29 31.4375 30.25 
Q 28.296875 31.5 24.296875 32.40625 
Q 19.796875 29.90625 17.34375 26.203125 
Q 14.90625 22.5 14.90625 17.40625 
z
M 39.90625 52.90625 
Q 39.90625 54.40625 39.25 56.203125 
Q 38.59375 58 37.1875 59.546875 
Q 35.796875 61.09375 33.59375 62.140625 
Q 31.40625 63.203125 28.203125 63.203125 
Q 25 63.203125 22.75 62.203125 
Q 20.5 61.203125 19.09375 59.640625 
Q 17.703125 58.09375 17.046875 56.25 
Q 16.40625 54.40625 16.40625 52.59375 
Q 16.40625 50.40625 17.203125 48.203125 
Q 18 46 19.703125 44.09375 
Q 21.40625 42.203125 24.15625 40.703125 
Q 26.90625 39.203125 30.703125 38.296875 
Q 34.90625 40.796875 37.40625 44.140625 
Q 39.90625 47.5 39.90625 52.90625 
z
" id="Ubuntu-56"/>
      </defs>
      <g transform="translate(22.73125 44.172961)scale(0.1 -0.1)">
       <use xlink:href="#Ubuntu-56"/>
      </g>
     </g>
    </g>
    <g id="text_14">
     <!-- Gold content -->
     <defs>
      <path d="M 50.90625 34.09375 
L 60.59375 34.09375 
L 60.59375 1.703125 
Q 59.40625 1.296875 57.15625 0.796875 
Q 54.90625 0.296875 51.953125 -0.203125 
Q 49 -0.703125 45.5 -1.046875 
Q 42 -1.40625 38.40625 -1.40625 
Q 31.09375 -1.40625 25.09375 1 
Q 19.09375 3.40625 14.796875 8 
Q 10.5 12.59375 8.140625 19.296875 
Q 5.796875 26 5.796875 34.703125 
Q 5.796875 43.40625 8.4375 50.15625 
Q 11.09375 56.90625 15.59375 61.5 
Q 20.09375 66.09375 26.140625 68.5 
Q 32.203125 70.90625 39.09375 70.90625 
Q 43.796875 70.90625 47.4375 70.296875 
Q 51.09375 69.703125 53.6875 68.890625 
Q 56.296875 68.09375 57.9375 67.296875 
Q 59.59375 66.5 60.203125 66.09375 
L 57.09375 58 
Q 54.203125 59.90625 49.390625 61.15625 
Q 44.59375 62.40625 39.59375 62.40625 
Q 34.296875 62.40625 29.9375 60.5 
Q 25.59375 58.59375 22.546875 55 
Q 19.5 51.40625 17.796875 46.25 
Q 16.09375 41.09375 16.09375 34.703125 
Q 16.09375 28.5 17.546875 23.390625 
Q 19 18.296875 21.953125 14.640625 
Q 24.90625 11 29.25 9 
Q 33.59375 7 39.5 7 
Q 43.703125 7 46.640625 7.453125 
Q 49.59375 7.90625 50.90625 8.296875 
z
" id="Ubuntu-71"/>
      <path d="M 53.90625 26 
Q 53.90625 19.796875 52.09375 14.796875 
Q 50.296875 9.796875 47.046875 6.1875 
Q 43.796875 2.59375 39.296875 0.640625 
Q 34.796875 -1.296875 29.5 -1.296875 
Q 24.203125 -1.296875 19.703125 0.640625 
Q 15.203125 2.59375 11.953125 6.1875 
Q 8.703125 9.796875 6.890625 14.796875 
Q 5.09375 19.796875 5.09375 26 
Q 5.09375 32.09375 6.890625 37.140625 
Q 8.703125 42.203125 11.953125 45.796875 
Q 15.203125 49.40625 19.703125 51.34375 
Q 24.203125 53.296875 29.5 53.296875 
Q 34.796875 53.296875 39.296875 51.34375 
Q 43.796875 49.40625 47.046875 45.796875 
Q 50.296875 42.203125 52.09375 37.140625 
Q 53.90625 32.09375 53.90625 26 
z
M 44.203125 26 
Q 44.203125 34.796875 40.25 39.9375 
Q 36.296875 45.09375 29.5 45.09375 
Q 22.703125 45.09375 18.75 39.9375 
Q 14.796875 34.796875 14.796875 26 
Q 14.796875 17.203125 18.75 12.046875 
Q 22.703125 6.90625 29.5 6.90625 
Q 36.296875 6.90625 40.25 12.046875 
Q 44.203125 17.203125 44.203125 26 
z
" id="Ubuntu-111"/>
      <path d="M 23.59375 -1 
Q 15 -0.796875 11.390625 2.703125 
Q 7.796875 6.203125 7.796875 13.59375 
L 7.796875 76 
L 17.09375 77.59375 
L 17.09375 15.09375 
Q 17.09375 12.796875 17.5 11.296875 
Q 17.90625 9.796875 18.796875 8.890625 
Q 19.703125 8 21.203125 7.546875 
Q 22.703125 7.09375 24.90625 6.796875 
z
" id="Ubuntu-108"/>
      <path d="M 41.59375 41 
Q 39.90625 42.40625 36.703125 43.703125 
Q 33.5 45 29.703125 45 
Q 25.703125 45 22.84375 43.546875 
Q 20 42.09375 18.203125 39.546875 
Q 16.40625 37 15.59375 33.5 
Q 14.796875 30 14.796875 26 
Q 14.796875 16.90625 19.296875 11.953125 
Q 23.796875 7 31.296875 7 
Q 35.09375 7 37.640625 7.34375 
Q 40.203125 7.703125 41.59375 8.09375 
z
M 41.59375 76 
L 50.90625 77.59375 
L 50.90625 1.5 
Q 47.703125 0.59375 42.703125 -0.296875 
Q 37.703125 -1.203125 31.203125 -1.203125 
Q 25.203125 -1.203125 20.390625 0.6875 
Q 15.59375 2.59375 12.1875 6.09375 
Q 8.796875 9.59375 6.9375 14.640625 
Q 5.09375 19.703125 5.09375 26 
Q 5.09375 32 6.640625 37 
Q 8.203125 42 11.203125 45.59375 
Q 14.203125 49.203125 18.546875 51.203125 
Q 22.90625 53.203125 28.5 53.203125 
Q 33 53.203125 36.453125 52 
Q 39.90625 50.796875 41.59375 49.703125 
z
" id="Ubuntu-100"/>
      <path id="Ubuntu-32"/>
      <path d="M 30.59375 -1.203125 
Q 24.296875 -1.203125 19.546875 0.796875 
Q 14.796875 2.796875 11.546875 6.390625 
Q 8.296875 10 6.6875 14.953125 
Q 5.09375 19.90625 5.09375 25.90625 
Q 5.09375 31.90625 6.84375 36.90625 
Q 8.59375 41.90625 11.796875 45.546875 
Q 15 49.203125 19.640625 51.25 
Q 24.296875 53.296875 30 53.296875 
Q 33.5 53.296875 37 52.6875 
Q 40.5 52.09375 43.703125 50.796875 
L 41.59375 42.90625 
Q 39.5 43.90625 36.75 44.5 
Q 34 45.09375 30.90625 45.09375 
Q 23.09375 45.09375 18.9375 40.1875 
Q 14.796875 35.296875 14.796875 25.90625 
Q 14.796875 21.703125 15.75 18.203125 
Q 16.703125 14.703125 18.75 12.203125 
Q 20.796875 9.703125 24 8.34375 
Q 27.203125 7 31.796875 7 
Q 35.5 7 38.5 7.703125 
Q 41.5 8.40625 43.203125 9.203125 
L 44.5 1.40625 
Q 43.703125 0.90625 42.203125 0.453125 
Q 40.703125 0 38.796875 -0.34375 
Q 36.90625 -0.703125 34.75 -0.953125 
Q 32.59375 -1.203125 30.59375 -1.203125 
z
" id="Ubuntu-99"/>
      <path d="M 8 50.5 
Q 11.203125 51.296875 16.5 52.1875 
Q 21.796875 53.09375 28.703125 53.09375 
Q 34.90625 53.09375 39 51.34375 
Q 43.09375 49.59375 45.546875 46.4375 
Q 48 43.296875 49 38.890625 
Q 50 34.5 50 29.203125 
L 50 0 
L 40.703125 0 
L 40.703125 27.203125 
Q 40.703125 32 40.046875 35.390625 
Q 39.40625 38.796875 37.90625 40.890625 
Q 36.40625 43 33.90625 43.953125 
Q 31.40625 44.90625 27.703125 44.90625 
Q 26.203125 44.90625 24.59375 44.796875 
Q 23 44.703125 21.546875 44.546875 
Q 20.09375 44.40625 18.9375 44.203125 
Q 17.796875 44 17.296875 43.90625 
L 17.296875 0 
L 8 0 
z
" id="Ubuntu-110"/>
      <path d="M 16.703125 52 
L 36.40625 52 
L 36.40625 44.203125 
L 16.703125 44.203125 
L 16.703125 20.203125 
Q 16.703125 16.296875 17.296875 13.75 
Q 17.90625 11.203125 19.09375 9.75 
Q 20.296875 8.296875 22.09375 7.6875 
Q 23.90625 7.09375 26.296875 7.09375 
Q 30.5 7.09375 33.046875 8.046875 
Q 35.59375 9 36.59375 9.40625 
L 38.40625 1.703125 
Q 37 1 33.5 -0.046875 
Q 30 -1.09375 25.5 -1.09375 
Q 20.203125 -1.09375 16.75 0.25 
Q 13.296875 1.59375 11.1875 4.296875 
Q 9.09375 7 8.25 10.953125 
Q 7.40625 14.90625 7.40625 20.09375 
L 7.40625 66.5 
L 16.703125 68.09375 
z
" id="Ubuntu-116"/>
      <path d="M 5.09375 25.90625 
Q 5.09375 32.796875 7.09375 37.9375 
Q 9.09375 43.09375 12.390625 46.5 
Q 15.703125 49.90625 20 51.59375 
Q 24.296875 53.296875 28.796875 53.296875 
Q 39.296875 53.296875 44.890625 46.75 
Q 50.5 40.203125 50.5 26.796875 
Q 50.5 26.203125 50.5 25.25 
Q 50.5 24.296875 50.40625 23.5 
L 14.796875 23.5 
Q 15.40625 15.40625 19.5 11.203125 
Q 23.59375 7 32.296875 7 
Q 37.203125 7 40.546875 7.84375 
Q 43.90625 8.703125 45.59375 9.5 
L 46.90625 1.703125 
Q 45.203125 0.796875 40.953125 -0.203125 
Q 36.703125 -1.203125 31.296875 -1.203125 
Q 24.5 -1.203125 19.546875 0.84375 
Q 14.59375 2.90625 11.390625 6.5 
Q 8.203125 10.09375 6.640625 15.046875 
Q 5.09375 20 5.09375 25.90625 
z
M 40.796875 31 
Q 40.90625 37.296875 37.65625 41.34375 
Q 34.40625 45.40625 28.703125 45.40625 
Q 25.5 45.40625 23.046875 44.15625 
Q 20.59375 42.90625 18.890625 40.90625 
Q 17.203125 38.90625 16.25 36.296875 
Q 15.296875 33.703125 15 31 
z
" id="Ubuntu-101"/>
     </defs>
     <g transform="translate(16.51125 170.853825)rotate(-90)scale(0.12 -0.12)">
      <use xlink:href="#Ubuntu-71"/>
      <use x="67.199997" xlink:href="#Ubuntu-111"/>
      <use x="126.199982" xlink:href="#Ubuntu-108"/>
      <use x="153.499969" xlink:href="#Ubuntu-100"/>
      <use x="212.399963" xlink:href="#Ubuntu-32"/>
      <use x="235.499954" xlink:href="#Ubuntu-99"/>
      <use x="281.984314" xlink:href="#Ubuntu-111"/>
      <use x="340.984299" xlink:href="#Ubuntu-110"/>
      <use x="398.384293" xlink:href="#Ubuntu-116"/>
      <use x="438.568665" xlink:href="#Ubuntu-101"/>
      <use x="494.468658" xlink:href="#Ubuntu-110"/>
      <use x="551.868652" xlink:href="#Ubuntu-116"/>
     </g>
    </g>
   </g>
   <g id="PolyCollection_1">
    <defs>
     <path d="M 48.955511 -45.724261 
L 48.955511 -88.80677 
L 49.525917 -88.80677 
L 50.096322 -88.80677 
L 50.666727 -88.80677 
L 51.237132 -88.80677 
L 51.807537 -88.80677 
L 52.377943 -88.80677 
L 52.948348 -88.80677 
L 53.518753 -88.80677 
L 54.089158 -88.80677 
L 54.659564 -88.80677 
L 55.229969 -88.80677 
L 55.800374 -88.80677 
L 56.370779 -88.80677 
L 56.941184 -88.80677 
L 57.51159 -88.80677 
L 58.081995 -88.80677 
L 58.6524 -88.80677 
L 59.222805 -88.80677 
L 59.793211 -88.80677 
L 60.363616 -88.80677 
L 60.934021 -88.80677 
L 61.504426 -88.80677 
L 62.074831 -88.80677 
L 62.645237 -88.80677 
L 63.215642 -88.80677 
L 63.786047 -88.80677 
L 64.356452 -88.80677 
L 64.926858 -88.80677 
L 65.497263 -88.80677 
L 66.067668 -88.80677 
L 66.638073 -88.80677 
L 67.208478 -88.80677 
L 67.778884 -88.80677 
L 68.349289 -88.80677 
L 68.919694 -88.80677 
L 69.490099 -88.80677 
L 70.060505 -88.80677 
L 70.63091 -88.80677 
L 71.201315 -88.80677 
L 71.77172 -88.80677 
L 72.342125 -88.80677 
L 72.912531 -88.80677 
L 73.482936 -88.80677 
L 74.053341 -88.80677 
L 74.623746 -88.80677 
L 75.194152 -88.80677 
L 75.764557 -88.80677 
L 76.334962 -88.80677 
L 76.905367 -88.80677 
L 77.475772 -88.80677 
L 78.046178 -88.80677 
L 78.616583 -88.80677 
L 79.186988 -88.80677 
L 79.757393 -88.80677 
L 80.327799 -88.80677 
L 80.898204 -88.80677 
L 81.468609 -88.80677 
L 82.039014 -88.80677 
L 82.609419 -88.80677 
L 83.179825 -88.80677 
L 83.75023 -88.80677 
L 84.320635 -88.80677 
L 84.89104 -88.80677 
L 85.461445 -88.80677 
L 86.031851 -88.80677 
L 86.602256 -88.80677 
L 87.172661 -88.80677 
L 87.743066 -88.80677 
L 88.313472 -88.80677 
L 88.883877 -88.80677 
L 89.454282 -88.80677 
L 90.024687 -88.80677 
L 90.595092 -88.80677 
L 91.165498 -88.80677 
L 91.735903 -88.80677 
L 92.306308 -88.80677 
L 92.876713 -88.80677 
L 93.447119 -88.80677 
L 94.017524 -88.80677 
L 94.587929 -88.80677 
L 95.158334 -88.80677 
L 95.728739 -88.80677 
L 96.299145 -88.80677 
L 96.86955 -88.80677 
L 97.439955 -88.80677 
L 98.01036 -88.80677 
L 98.580766 -88.80677 
L 99.151171 -88.80677 
L 99.721576 -88.80677 
L 100.291981 -88.80677 
L 100.862386 -88.80677 
L 101.432792 -88.80677 
L 102.003197 -88.80677 
L 102.573602 -88.80677 
L 103.144007 -88.80677 
L 103.714413 -88.80677 
L 104.284818 -88.80677 
L 104.855223 -88.80677 
L 105.425628 -88.80677 
L 105.996033 -88.80677 
L 106.566439 -88.80677 
L 107.136844 -88.80677 
L 107.707249 -88.80677 
L 108.277654 -88.80677 
L 108.84806 -88.80677 
L 109.418465 -88.80677 
L 109.98887 -88.80677 
L 110.559275 -88.80677 
L 111.12968 -88.80677 
L 111.700086 -88.80677 
L 112.270491 -88.80677 
L 112.840896 -88.80677 
L 113.411301 -88.80677 
L 113.981707 -88.80677 
L 114.552112 -88.80677 
L 115.122517 -88.80677 
L 115.692922 -88.80677 
L 116.263327 -88.80677 
L 116.833733 -88.80677 
L 117.404138 -88.80677 
L 117.974543 -88.80677 
L 118.544948 -88.80677 
L 119.115354 -88.80677 
L 119.685759 -88.80677 
L 120.256164 -88.80677 
L 120.826569 -88.80677 
L 121.396974 -88.80677 
L 121.96738 -88.80677 
L 122.537785 -88.80677 
L 123.10819 -88.80677 
L 123.678595 -88.80677 
L 124.249001 -88.80677 
L 124.819406 -88.80677 
L 125.389811 -88.80677 
L 125.960216 -88.80677 
L 126.530621 -88.80677 
L 127.101027 -88.80677 
L 127.671432 -88.80677 
L 128.241837 -88.80677 
L 128.812242 -88.80677 
L 129.382647 -88.80677 
L 129.953053 -88.80677 
L 130.523458 -88.80677 
L 131.093863 -88.80677 
L 131.664268 -88.80677 
L 132.234674 -88.80677 
L 132.805079 -88.80677 
L 133.375484 -88.80677 
L 133.945889 -88.80677 
L 134.516294 -88.80677 
L 135.0867 -88.80677 
L 135.657105 -88.80677 
L 136.22751 -88.80677 
L 136.797915 -88.80677 
L 137.368321 -88.80677 
L 137.938726 -88.80677 
L 138.509131 -88.80677 
L 139.079536 -88.80677 
L 139.649941 -88.80677 
L 140.220347 -88.80677 
L 140.790752 -88.80677 
L 141.361157 -88.80677 
L 141.931562 -88.80677 
L 142.501968 -88.80677 
L 143.072373 -88.80677 
L 143.642778 -88.80677 
L 144.213183 -88.80677 
L 144.783588 -88.80677 
L 145.353994 -88.80677 
L 145.924399 -88.80677 
L 146.494804 -88.80677 
L 147.065209 -88.80677 
L 147.635615 -88.80677 
L 148.20602 -88.80677 
L 148.776425 -88.80677 
L 149.34683 -88.80677 
L 149.917235 -88.80677 
L 150.487641 -88.80677 
L 151.058046 -88.80677 
L 151.628451 -88.80677 
L 152.198856 -88.80677 
L 152.769262 -88.80677 
L 153.339667 -88.80677 
L 153.910072 -88.80677 
L 154.480477 -88.80677 
L 155.050882 -88.80677 
L 155.621288 -88.80677 
L 156.191693 -88.80677 
L 156.762098 -88.80677 
L 157.332503 -88.80677 
L 157.902909 -88.80677 
L 158.473314 -88.80677 
L 159.043719 -88.80677 
L 159.614124 -88.80677 
L 160.184529 -88.80677 
L 160.754935 -88.80677 
L 161.32534 -88.80677 
L 161.895745 -88.80677 
L 162.46615 -88.80677 
L 163.036556 -88.80677 
L 163.606961 -88.80677 
L 164.177366 -88.80677 
L 164.747771 -88.80677 
L 165.318176 -88.80677 
L 165.888582 -88.80677 
L 166.458987 -88.80677 
L 167.029392 -88.80677 
L 167.599797 -88.80677 
L 168.170203 -88.80677 
L 168.740608 -88.80677 
L 169.311013 -88.80677 
L 169.881418 -88.80677 
L 170.451823 -88.80677 
L 171.022229 -88.80677 
L 171.592634 -88.80677 
L 172.163039 -88.80677 
L 172.733444 -88.80677 
L 173.30385 -88.80677 
L 173.874255 -88.80677 
L 174.44466 -88.80677 
L 175.015065 -88.80677 
L 175.58547 -88.80677 
L 176.155876 -88.80677 
L 176.726281 -88.80677 
L 177.296686 -88.80677 
L 177.867091 -88.80677 
L 178.437496 -88.80677 
L 179.007902 -88.80677 
L 179.578307 -88.80677 
L 180.148712 -88.80677 
L 180.719117 -88.80677 
L 181.289523 -88.80677 
L 181.859928 -88.80677 
L 182.430333 -88.80677 
L 183.000738 -88.80677 
L 183.571143 -88.80677 
L 184.141549 -88.80677 
L 184.711954 -88.80677 
L 185.282359 -88.80677 
L 185.852764 -88.80677 
L 186.42317 -88.80677 
L 186.993575 -88.80677 
L 187.56398 -88.80677 
L 188.134385 -88.80677 
L 188.70479 -88.80677 
L 189.275196 -88.80677 
L 189.845601 -88.80677 
L 190.416006 -88.80677 
L 190.986411 -88.80677 
L 191.556817 -88.80677 
L 192.127222 -88.80677 
L 192.697627 -88.80677 
L 193.268032 -88.80677 
L 193.838437 -88.80677 
L 194.408843 -88.80677 
L 194.979248 -88.80677 
L 195.549653 -88.80677 
L 196.120058 -88.80677 
L 196.690464 -88.80677 
L 197.260869 -88.80677 
L 197.831274 -88.80677 
L 198.401679 -88.80677 
L 198.972084 -88.80677 
L 199.54249 -88.80677 
L 200.112895 -88.80677 
L 200.6833 -88.80677 
L 201.253705 -88.80677 
L 201.824111 -88.80677 
L 202.394516 -88.80677 
L 202.964921 -88.80677 
L 203.535326 -88.80677 
L 204.105731 -88.80677 
L 204.676137 -88.80677 
L 205.246542 -88.80677 
L 205.816947 -88.80677 
L 206.387352 -88.80677 
L 206.957758 -88.80677 
L 207.528163 -88.80677 
L 208.098568 -88.80677 
L 208.668973 -88.80677 
L 209.239378 -88.80677 
L 209.809784 -88.80677 
L 210.380189 -88.80677 
L 210.950594 -88.80677 
L 211.520999 -88.80677 
L 212.091405 -88.80677 
L 212.66181 -88.80677 
L 213.232215 -88.80677 
L 213.80262 -88.80677 
L 214.373025 -88.80677 
L 214.943431 -88.80677 
L 215.513836 -88.80677 
L 216.084241 -88.80677 
L 216.654646 -88.80677 
L 217.225052 -88.80677 
L 217.795457 -88.80677 
L 218.365862 -88.80677 
L 218.936267 -88.80677 
L 219.506672 -88.80677 
L 220.077078 -88.80677 
L 220.647483 -88.80677 
L 221.217888 -88.80677 
L 221.788293 -88.80677 
L 222.358698 -88.80677 
L 222.929104 -88.80677 
L 223.499509 -88.80677 
L 224.069914 -88.80677 
L 224.640319 -88.80677 
L 225.210725 -88.80677 
L 225.78113 -88.80677 
L 226.351535 -88.80677 
L 226.92194 -88.80677 
L 227.492345 -88.80677 
L 228.062751 -88.80677 
L 228.633156 -88.80677 
L 229.203561 -88.80677 
L 229.773966 -88.80677 
L 230.344372 -88.80677 
L 230.914777 -88.80677 
L 231.485182 -88.80677 
L 232.055587 -88.80677 
L 232.625992 -88.80677 
L 233.196398 -88.80677 
L 233.766803 -88.80677 
L 234.337208 -88.80677 
L 234.907613 -88.80677 
L 235.478019 -88.80677 
L 236.048424 -88.80677 
L 236.618829 -88.80677 
L 237.189234 -88.80677 
L 237.759639 -88.80677 
L 238.330045 -88.80677 
L 238.90045 -88.80677 
L 239.470855 -88.80677 
L 240.04126 -88.80677 
L 240.611666 -88.80677 
L 241.182071 -88.80677 
L 241.752476 -88.80677 
L 242.322881 -88.80677 
L 242.893286 -88.80677 
L 243.463692 -88.80677 
L 244.034097 -88.80677 
L 244.604502 -88.80677 
L 245.174907 -88.80677 
L 245.745313 -88.80677 
L 246.315718 -88.80677 
L 246.886123 -88.80677 
L 247.456528 -88.80677 
L 248.026933 -88.80677 
L 248.597339 -88.80677 
L 249.167744 -88.80677 
L 249.738149 -88.80677 
L 250.308554 -88.80677 
L 250.87896 -88.80677 
L 251.449365 -88.80677 
L 252.01977 -88.80677 
L 252.590175 -88.80677 
L 253.16058 -88.80677 
L 253.730986 -88.80677 
L 254.301391 -88.80677 
L 254.871796 -88.80677 
L 255.442201 -88.80677 
L 256.012607 -88.80677 
L 256.583012 -88.80677 
L 257.153417 -88.80677 
L 257.723822 -88.80677 
L 258.294227 -88.80677 
L 258.864633 -88.80677 
L 259.435038 -88.80677 
L 260.005443 -88.80677 
L 260.575848 -88.80677 
L 261.146254 -88.80677 
L 261.716659 -88.80677 
L 262.287064 -88.80677 
L 262.857469 -88.80677 
L 263.427874 -88.80677 
L 263.99828 -88.80677 
L 264.568685 -88.80677 
L 265.13909 -88.80677 
L 265.709495 -88.80677 
L 266.2799 -88.80677 
L 266.850306 -88.80677 
L 267.420711 -88.80677 
L 267.991116 -88.80677 
L 268.561521 -88.80677 
L 269.131927 -88.80677 
L 269.702332 -88.80677 
L 270.272737 -88.80677 
L 270.843142 -88.80677 
L 271.413547 -88.80677 
L 271.983953 -88.80677 
L 272.554358 -88.80677 
L 273.124763 -88.80677 
L 273.695168 -88.80677 
L 274.265574 -88.80677 
L 274.835979 -88.80677 
L 275.406384 -88.80677 
L 275.976789 -88.80677 
L 276.547194 -88.80677 
L 277.1176 -88.80677 
L 277.688005 -88.80677 
L 278.25841 -88.80677 
L 278.828815 -88.80677 
L 279.399221 -88.80677 
L 279.969626 -88.80677 
L 280.540031 -88.80677 
L 281.110436 -88.80677 
L 281.680841 -88.80677 
L 282.251247 -88.80677 
L 282.821652 -88.80677 
L 283.392057 -88.80677 
L 283.962462 -88.80677 
L 284.532868 -88.80677 
L 285.103273 -88.80677 
L 285.673678 -88.80677 
L 286.244083 -88.80677 
L 286.814488 -88.80677 
L 287.384894 -88.80677 
L 287.955299 -88.80677 
L 288.525704 -88.80677 
L 289.096109 -88.80677 
L 289.666515 -88.80677 
L 290.23692 -88.80677 
L 290.807325 -88.80677 
L 291.37773 -88.80677 
L 291.948135 -88.80677 
L 292.518541 -88.80677 
L 293.088946 -88.80677 
L 293.659351 -88.80677 
L 294.229756 -88.80677 
L 294.800162 -88.80677 
L 295.370567 -88.80677 
L 295.940972 -88.80677 
L 296.511377 -88.80677 
L 297.081782 -88.80677 
L 297.652188 -88.80677 
L 298.222593 -88.80677 
L 298.792998 -88.80677 
L 299.363403 -88.80677 
L 299.933809 -88.80677 
L 300.504214 -88.80677 
L 301.074619 -88.80677 
L 301.645024 -88.80677 
L 302.215429 -88.80677 
L 302.785835 -88.80677 
L 303.35624 -88.80677 
L 303.926645 -88.80677 
L 304.49705 -88.80677 
L 305.067456 -88.80677 
L 305.637861 -88.80677 
L 306.208266 -88.80677 
L 306.778671 -88.80677 
L 307.349076 -88.80677 
L 307.919482 -88.80677 
L 308.489887 -88.80677 
L 309.060292 -88.80677 
L 309.630697 -88.80677 
L 310.201103 -88.80677 
L 310.771508 -88.80677 
L 311.341913 -88.80677 
L 311.912318 -88.80677 
L 312.482723 -88.80677 
L 313.053129 -88.80677 
L 313.623534 -88.80677 
L 314.193939 -88.80677 
L 314.764344 -88.80677 
L 315.334749 -88.80677 
L 315.905155 -88.80677 
L 316.47556 -88.80677 
L 317.045965 -88.80677 
L 317.61637 -88.80677 
L 318.186776 -88.80677 
L 318.757181 -88.80677 
L 319.327586 -88.80677 
L 319.897991 -88.80677 
L 320.468396 -88.80677 
L 321.038802 -88.80677 
L 321.609207 -88.80677 
L 322.179612 -88.80677 
L 322.750017 -88.80677 
L 323.320423 -88.80677 
L 323.890828 -88.80677 
L 324.461233 -88.80677 
L 325.031638 -88.80677 
L 325.602043 -88.80677 
L 326.172449 -88.80677 
L 326.742854 -88.80677 
L 327.313259 -88.80677 
L 327.883664 -88.80677 
L 328.45407 -88.80677 
L 329.024475 -88.80677 
L 329.59488 -88.80677 
L 330.165285 -88.80677 
L 330.73569 -88.80677 
L 331.306096 -88.80677 
L 331.876501 -88.80677 
L 332.446906 -88.80677 
L 333.017311 -88.80677 
L 333.587717 -88.80677 
L 334.158122 -88.80677 
L 334.728527 -88.80677 
L 335.298932 -88.80677 
L 335.869337 -88.80677 
L 336.439743 -88.80677 
L 337.010148 -88.80677 
L 337.580553 -88.80677 
L 338.150958 -88.80677 
L 338.721364 -88.80677 
L 339.291769 -88.80677 
L 339.862174 -88.80677 
L 340.432579 -88.80677 
L 341.002984 -88.80677 
L 341.57339 -88.80677 
L 342.143795 -88.80677 
L 342.7142 -88.80677 
L 343.284605 -88.80677 
L 343.855011 -88.80677 
L 344.425416 -88.80677 
L 344.995821 -88.80677 
L 345.566226 -88.80677 
L 346.136631 -88.80677 
L 346.707037 -88.80677 
L 347.277442 -88.80677 
L 347.847847 -88.80677 
L 348.418252 -88.80677 
L 348.988658 -88.80677 
L 349.559063 -88.80677 
L 350.129468 -88.80677 
L 350.699873 -88.80677 
L 351.270278 -88.80677 
L 351.840684 -88.80677 
L 352.411089 -88.80677 
L 352.981494 -88.80677 
L 353.551899 -88.80677 
L 354.122305 -88.80677 
L 354.69271 -88.80677 
L 355.263115 -88.80677 
L 355.83352 -88.80677 
L 356.403925 -88.80677 
L 356.974331 -88.80677 
L 357.544736 -88.80677 
L 358.115141 -88.80677 
L 358.685546 -88.80677 
L 359.255951 -88.80677 
L 359.826357 -88.80677 
L 360.396762 -88.80677 
L 360.967167 -88.80677 
L 361.537572 -88.80677 
L 362.107978 -88.80677 
L 362.678383 -88.80677 
L 363.248788 -88.80677 
L 363.819193 -88.80677 
L 364.389598 -88.80677 
L 364.960004 -88.80677 
L 365.530409 -88.80677 
L 366.100814 -88.80677 
L 366.671219 -88.80677 
L 367.241625 -88.80677 
L 367.81203 -88.80677 
L 368.382435 -88.80677 
L 368.95284 -88.80677 
L 369.523245 -88.80677 
L 370.093651 -88.80677 
L 370.664056 -88.80677 
L 371.234461 -88.80677 
L 371.804866 -88.80677 
L 372.375272 -88.80677 
L 372.945677 -88.80677 
L 373.516082 -88.80677 
L 374.086487 -88.80677 
L 374.656892 -88.80677 
L 375.227298 -88.80677 
L 375.797703 -88.80677 
L 376.368108 -88.80677 
L 376.938513 -88.80677 
L 377.508919 -88.80677 
L 378.079324 -88.80677 
L 378.649729 -88.80677 
L 379.220134 -88.80677 
L 379.790539 -88.80677 
L 380.360945 -88.80677 
L 380.93135 -88.80677 
L 381.501755 -88.80677 
L 382.07216 -88.80677 
L 382.642566 -88.80677 
L 383.212971 -88.80677 
L 383.783376 -88.80677 
L 384.353781 -88.80677 
L 384.924186 -88.80677 
L 385.494592 -88.80677 
L 386.064997 -88.80677 
L 386.635402 -88.80677 
L 387.205807 -88.80677 
L 387.776213 -88.80677 
L 388.346618 -88.80677 
L 388.917023 -88.80677 
L 389.487428 -88.80677 
L 390.057833 -88.80677 
L 390.628239 -88.80677 
L 390.628239 -45.724261 
L 390.628239 -45.724261 
L 390.057833 -45.724261 
L 389.487428 -45.724261 
L 388.917023 -45.724261 
L 388.346618 -45.724261 
L 387.776213 -45.724261 
L 387.205807 -45.724261 
L 386.635402 -45.724261 
L 386.064997 -45.724261 
L 385.494592 -45.724261 
L 384.924186 -45.724261 
L 384.353781 -45.724261 
L 383.783376 -45.724261 
L 383.212971 -45.724261 
L 382.642566 -45.724261 
L 382.07216 -45.724261 
L 381.501755 -45.724261 
L 380.93135 -45.724261 
L 380.360945 -45.724261 
L 379.790539 -45.724261 
L 379.220134 -45.724261 
L 378.649729 -45.724261 
L 378.079324 -45.724261 
L 377.508919 -45.724261 
L 376.938513 -45.724261 
L 376.368108 -45.724261 
L 375.797703 -45.724261 
L 375.227298 -45.724261 
L 374.656892 -45.724261 
L 374.086487 -45.724261 
L 373.516082 -45.724261 
L 372.945677 -45.724261 
L 372.375272 -45.724261 
L 371.804866 -45.724261 
L 371.234461 -45.724261 
L 370.664056 -45.724261 
L 370.093651 -45.724261 
L 369.523245 -45.724261 
L 368.95284 -45.724261 
L 368.382435 -45.724261 
L 367.81203 -45.724261 
L 367.241625 -45.724261 
L 366.671219 -45.724261 
L 366.100814 -45.724261 
L 365.530409 -45.724261 
L 364.960004 -45.724261 
L 364.389598 -45.724261 
L 363.819193 -45.724261 
L 363.248788 -45.724261 
L 362.678383 -45.724261 
L 362.107978 -45.724261 
L 361.537572 -45.724261 
L 360.967167 -45.724261 
L 360.396762 -45.724261 
L 359.826357 -45.724261 
L 359.255951 -45.724261 
L 358.685546 -45.724261 
L 358.115141 -45.724261 
L 357.544736 -45.724261 
L 356.974331 -45.724261 
L 356.403925 -45.724261 
L 355.83352 -45.724261 
L 355.263115 -45.724261 
L 354.69271 -45.724261 
L 354.122305 -45.724261 
L 353.551899 -45.724261 
L 352.981494 -45.724261 
L 352.411089 -45.724261 
L 351.840684 -45.724261 
L 351.270278 -45.724261 
L 350.699873 -45.724261 
L 350.129468 -45.724261 
L 349.559063 -45.724261 
L 348.988658 -45.724261 
L 348.418252 -45.724261 
L 347.847847 -45.724261 
L 347.277442 -45.724261 
L 346.707037 -45.724261 
L 346.136631 -45.724261 
L 345.566226 -45.724261 
L 344.995821 -45.724261 
L 344.425416 -45.724261 
L 343.855011 -45.724261 
L 343.284605 -45.724261 
L 342.7142 -45.724261 
L 342.143795 -45.724261 
L 341.57339 -45.724261 
L 341.002984 -45.724261 
L 340.432579 -45.724261 
L 339.862174 -45.724261 
L 339.291769 -45.724261 
L 338.721364 -45.724261 
L 338.150958 -45.724261 
L 337.580553 -45.724261 
L 337.010148 -45.724261 
L 336.439743 -45.724261 
L 335.869337 -45.724261 
L 335.298932 -45.724261 
L 334.728527 -45.724261 
L 334.158122 -45.724261 
L 333.587717 -45.724261 
L 333.017311 -45.724261 
L 332.446906 -45.724261 
L 331.876501 -45.724261 
L 331.306096 -45.724261 
L 330.73569 -45.724261 
L 330.165285 -45.724261 
L 329.59488 -45.724261 
L 329.024475 -45.724261 
L 328.45407 -45.724261 
L 327.883664 -45.724261 
L 327.313259 -45.724261 
L 326.742854 -45.724261 
L 326.172449 -45.724261 
L 325.602043 -45.724261 
L 325.031638 -45.724261 
L 324.461233 -45.724261 
L 323.890828 -45.724261 
L 323.320423 -45.724261 
L 322.750017 -45.724261 
L 322.179612 -45.724261 
L 321.609207 -45.724261 
L 321.038802 -45.724261 
L 320.468396 -45.724261 
L 319.897991 -45.724261 
L 319.327586 -45.724261 
L 318.757181 -45.724261 
L 318.186776 -45.724261 
L 317.61637 -45.724261 
L 317.045965 -45.724261 
L 316.47556 -45.724261 
L 315.905155 -45.724261 
L 315.334749 -45.724261 
L 314.764344 -45.724261 
L 314.193939 -45.724261 
L 313.623534 -45.724261 
L 313.053129 -45.724261 
L 312.482723 -45.724261 
L 311.912318 -45.724261 
L 311.341913 -45.724261 
L 310.771508 -45.724261 
L 310.201103 -45.724261 
L 309.630697 -45.724261 
L 309.060292 -45.724261 
L 308.489887 -45.724261 
L 307.919482 -45.724261 
L 307.349076 -45.724261 
L 306.778671 -45.724261 
L 306.208266 -45.724261 
L 305.637861 -45.724261 
L 305.067456 -45.724261 
L 304.49705 -45.724261 
L 303.926645 -45.724261 
L 303.35624 -45.724261 
L 302.785835 -45.724261 
L 302.215429 -45.724261 
L 301.645024 -45.724261 
L 301.074619 -45.724261 
L 300.504214 -45.724261 
L 299.933809 -45.724261 
L 299.363403 -45.724261 
L 298.792998 -45.724261 
L 298.222593 -45.724261 
L 297.652188 -45.724261 
L 297.081782 -45.724261 
L 296.511377 -45.724261 
L 295.940972 -45.724261 
L 295.370567 -45.724261 
L 294.800162 -45.724261 
L 294.229756 -45.724261 
L 293.659351 -45.724261 
L 293.088946 -45.724261 
L 292.518541 -45.724261 
L 291.948135 -45.724261 
L 291.37773 -45.724261 
L 290.807325 -45.724261 
L 290.23692 -45.724261 
L 289.666515 -45.724261 
L 289.096109 -45.724261 
L 288.525704 -45.724261 
L 287.955299 -45.724261 
L 287.384894 -45.724261 
L 286.814488 -45.724261 
L 286.244083 -45.724261 
L 285.673678 -45.724261 
L 285.103273 -45.724261 
L 284.532868 -45.724261 
L 283.962462 -45.724261 
L 283.392057 -45.724261 
L 282.821652 -45.724261 
L 282.251247 -45.724261 
L 281.680841 -45.724261 
L 281.110436 -45.724261 
L 280.540031 -45.724261 
L 279.969626 -45.724261 
L 279.399221 -45.724261 
L 278.828815 -45.724261 
L 278.25841 -45.724261 
L 277.688005 -45.724261 
L 277.1176 -45.724261 
L 276.547194 -45.724261 
L 275.976789 -45.724261 
L 275.406384 -45.724261 
L 274.835979 -45.724261 
L 274.265574 -45.724261 
L 273.695168 -45.724261 
L 273.124763 -45.724261 
L 272.554358 -45.724261 
L 271.983953 -45.724261 
L 271.413547 -45.724261 
L 270.843142 -45.724261 
L 270.272737 -45.724261 
L 269.702332 -45.724261 
L 269.131927 -45.724261 
L 268.561521 -45.724261 
L 267.991116 -45.724261 
L 267.420711 -45.724261 
L 266.850306 -45.724261 
L 266.2799 -45.724261 
L 265.709495 -45.724261 
L 265.13909 -45.724261 
L 264.568685 -45.724261 
L 263.99828 -45.724261 
L 263.427874 -45.724261 
L 262.857469 -45.724261 
L 262.287064 -45.724261 
L 261.716659 -45.724261 
L 261.146254 -45.724261 
L 260.575848 -45.724261 
L 260.005443 -45.724261 
L 259.435038 -45.724261 
L 258.864633 -45.724261 
L 258.294227 -45.724261 
L 257.723822 -45.724261 
L 257.153417 -45.724261 
L 256.583012 -45.724261 
L 256.012607 -45.724261 
L 255.442201 -45.724261 
L 254.871796 -45.724261 
L 254.301391 -45.724261 
L 253.730986 -45.724261 
L 253.16058 -45.724261 
L 252.590175 -45.724261 
L 252.01977 -45.724261 
L 251.449365 -45.724261 
L 250.87896 -45.724261 
L 250.308554 -45.724261 
L 249.738149 -45.724261 
L 249.167744 -45.724261 
L 248.597339 -45.724261 
L 248.026933 -45.724261 
L 247.456528 -45.724261 
L 246.886123 -45.724261 
L 246.315718 -45.724261 
L 245.745313 -45.724261 
L 245.174907 -45.724261 
L 244.604502 -45.724261 
L 244.034097 -45.724261 
L 243.463692 -45.724261 
L 242.893286 -45.724261 
L 242.322881 -45.724261 
L 241.752476 -45.724261 
L 241.182071 -45.724261 
L 240.611666 -45.724261 
L 240.04126 -45.724261 
L 239.470855 -45.724261 
L 238.90045 -45.724261 
L 238.330045 -45.724261 
L 237.759639 -45.724261 
L 237.189234 -45.724261 
L 236.618829 -45.724261 
L 236.048424 -45.724261 
L 235.478019 -45.724261 
L 234.907613 -45.724261 
L 234.337208 -45.724261 
L 233.766803 -45.724261 
L 233.196398 -45.724261 
L 232.625992 -45.724261 
L 232.055587 -45.724261 
L 231.485182 -45.724261 
L 230.914777 -45.724261 
L 230.344372 -45.724261 
L 229.773966 -45.724261 
L 229.203561 -45.724261 
L 228.633156 -45.724261 
L 228.062751 -45.724261 
L 227.492345 -45.724261 
L 226.92194 -45.724261 
L 226.351535 -45.724261 
L 225.78113 -45.724261 
L 225.210725 -45.724261 
L 224.640319 -45.724261 
L 224.069914 -45.724261 
L 223.499509 -45.724261 
L 222.929104 -45.724261 
L 222.358698 -45.724261 
L 221.788293 -45.724261 
L 221.217888 -45.724261 
L 220.647483 -45.724261 
L 220.077078 -45.724261 
L 219.506672 -45.724261 
L 218.936267 -45.724261 
L 218.365862 -45.724261 
L 217.795457 -45.724261 
L 217.225052 -45.724261 
L 216.654646 -45.724261 
L 216.084241 -45.724261 
L 215.513836 -45.724261 
L 214.943431 -45.724261 
L 214.373025 -45.724261 
L 213.80262 -45.724261 
L 213.232215 -45.724261 
L 212.66181 -45.724261 
L 212.091405 -45.724261 
L 211.520999 -45.724261 
L 210.950594 -45.724261 
L 210.380189 -45.724261 
L 209.809784 -45.724261 
L 209.239378 -45.724261 
L 208.668973 -45.724261 
L 208.098568 -45.724261 
L 207.528163 -45.724261 
L 206.957758 -45.724261 
L 206.387352 -45.724261 
L 205.816947 -45.724261 
L 205.246542 -45.724261 
L 204.676137 -45.724261 
L 204.105731 -45.724261 
L 203.535326 -45.724261 
L 202.964921 -45.724261 
L 202.394516 -45.724261 
L 201.824111 -45.724261 
L 201.253705 -45.724261 
L 200.6833 -45.724261 
L 200.112895 -45.724261 
L 199.54249 -45.724261 
L 198.972084 -45.724261 
L 198.401679 -45.724261 
L 197.831274 -45.724261 
L 197.260869 -45.724261 
L 196.690464 -45.724261 
L 196.120058 -45.724261 
L 195.549653 -45.724261 
L 194.979248 -45.724261 
L 194.408843 -45.724261 
L 193.838437 -45.724261 
L 193.268032 -45.724261 
L 192.697627 -45.724261 
L 192.127222 -45.724261 
L 191.556817 -45.724261 
L 190.986411 -45.724261 
L 190.416006 -45.724261 
L 189.845601 -45.724261 
L 189.275196 -45.724261 
L 188.70479 -45.724261 
L 188.134385 -45.724261 
L 187.56398 -45.724261 
L 186.993575 -45.724261 
L 186.42317 -45.724261 
L 185.852764 -45.724261 
L 185.282359 -45.724261 
L 184.711954 -45.724261 
L 184.141549 -45.724261 
L 183.571143 -45.724261 
L 183.000738 -45.724261 
L 182.430333 -45.724261 
L 181.859928 -45.724261 
L 181.289523 -45.724261 
L 180.719117 -45.724261 
L 180.148712 -45.724261 
L 179.578307 -45.724261 
L 179.007902 -45.724261 
L 178.437496 -45.724261 
L 177.867091 -45.724261 
L 177.296686 -45.724261 
L 176.726281 -45.724261 
L 176.155876 -45.724261 
L 175.58547 -45.724261 
L 175.015065 -45.724261 
L 174.44466 -45.724261 
L 173.874255 -45.724261 
L 173.30385 -45.724261 
L 172.733444 -45.724261 
L 172.163039 -45.724261 
L 171.592634 -45.724261 
L 171.022229 -45.724261 
L 170.451823 -45.724261 
L 169.881418 -45.724261 
L 169.311013 -45.724261 
L 168.740608 -45.724261 
L 168.170203 -45.724261 
L 167.599797 -45.724261 
L 167.029392 -45.724261 
L 166.458987 -45.724261 
L 165.888582 -45.724261 
L 165.318176 -45.724261 
L 164.747771 -45.724261 
L 164.177366 -45.724261 
L 163.606961 -45.724261 
L 163.036556 -45.724261 
L 162.46615 -45.724261 
L 161.895745 -45.724261 
L 161.32534 -45.724261 
L 160.754935 -45.724261 
L 160.184529 -45.724261 
L 159.614124 -45.724261 
L 159.043719 -45.724261 
L 158.473314 -45.724261 
L 157.902909 -45.724261 
L 157.332503 -45.724261 
L 156.762098 -45.724261 
L 156.191693 -45.724261 
L 155.621288 -45.724261 
L 155.050882 -45.724261 
L 154.480477 -45.724261 
L 153.910072 -45.724261 
L 153.339667 -45.724261 
L 152.769262 -45.724261 
L 152.198856 -45.724261 
L 151.628451 -45.724261 
L 151.058046 -45.724261 
L 150.487641 -45.724261 
L 149.917235 -45.724261 
L 149.34683 -45.724261 
L 148.776425 -45.724261 
L 148.20602 -45.724261 
L 147.635615 -45.724261 
L 147.065209 -45.724261 
L 146.494804 -45.724261 
L 145.924399 -45.724261 
L 145.353994 -45.724261 
L 144.783588 -45.724261 
L 144.213183 -45.724261 
L 143.642778 -45.724261 
L 143.072373 -45.724261 
L 142.501968 -45.724261 
L 141.931562 -45.724261 
L 141.361157 -45.724261 
L 140.790752 -45.724261 
L 140.220347 -45.724261 
L 139.649941 -45.724261 
L 139.079536 -45.724261 
L 138.509131 -45.724261 
L 137.938726 -45.724261 
L 137.368321 -45.724261 
L 136.797915 -45.724261 
L 136.22751 -45.724261 
L 135.657105 -45.724261 
L 135.0867 -45.724261 
L 134.516294 -45.724261 
L 133.945889 -45.724261 
L 133.375484 -45.724261 
L 132.805079 -45.724261 
L 132.234674 -45.724261 
L 131.664268 -45.724261 
L 131.093863 -45.724261 
L 130.523458 -45.724261 
L 129.953053 -45.724261 
L 129.382647 -45.724261 
L 128.812242 -45.724261 
L 128.241837 -45.724261 
L 127.671432 -45.724261 
L 127.101027 -45.724261 
L 126.530621 -45.724261 
L 125.960216 -45.724261 
L 125.389811 -45.724261 
L 124.819406 -45.724261 
L 124.249001 -45.724261 
L 123.678595 -45.724261 
L 123.10819 -45.724261 
L 122.537785 -45.724261 
L 121.96738 -45.724261 
L 121.396974 -45.724261 
L 120.826569 -45.724261 
L 120.256164 -45.724261 
L 119.685759 -45.724261 
L 119.115354 -45.724261 
L 118.544948 -45.724261 
L 117.974543 -45.724261 
L 117.404138 -45.724261 
L 116.833733 -45.724261 
L 116.263327 -45.724261 
L 115.692922 -45.724261 
L 115.122517 -45.724261 
L 114.552112 -45.724261 
L 113.981707 -45.724261 
L 113.411301 -45.724261 
L 112.840896 -45.724261 
L 112.270491 -45.724261 
L 111.700086 -45.724261 
L 111.12968 -45.724261 
L 110.559275 -45.724261 
L 109.98887 -45.724261 
L 109.418465 -45.724261 
L 108.84806 -45.724261 
L 108.277654 -45.724261 
L 107.707249 -45.724261 
L 107.136844 -45.724261 
L 106.566439 -45.724261 
L 105.996033 -45.724261 
L 105.425628 -45.724261 
L 104.855223 -45.724261 
L 104.284818 -45.724261 
L 103.714413 -45.724261 
L 103.144007 -45.724261 
L 102.573602 -45.724261 
L 102.003197 -45.724261 
L 101.432792 -45.724261 
L 100.862386 -45.724261 
L 100.291981 -45.724261 
L 99.721576 -45.724261 
L 99.151171 -45.724261 
L 98.580766 -45.724261 
L 98.01036 -45.724261 
L 97.439955 -45.724261 
L 96.86955 -45.724261 
L 96.299145 -45.724261 
L 95.728739 -45.724261 
L 95.158334 -45.724261 
L 94.587929 -45.724261 
L 94.017524 -45.724261 
L 93.447119 -45.724261 
L 92.876713 -45.724261 
L 92.306308 -45.724261 
L 91.735903 -45.724261 
L 91.165498 -45.724261 
L 90.595092 -45.724261 
L 90.024687 -45.724261 
L 89.454282 -45.724261 
L 88.883877 -45.724261 
L 88.313472 -45.724261 
L 87.743066 -45.724261 
L 87.172661 -45.724261 
L 86.602256 -45.724261 
L 86.031851 -45.724261 
L 85.461445 -45.724261 
L 84.89104 -45.724261 
L 84.320635 -45.724261 
L 83.75023 -45.724261 
L 83.179825 -45.724261 
L 82.609419 -45.724261 
L 82.039014 -45.724261 
L 81.468609 -45.724261 
L 80.898204 -45.724261 
L 80.327799 -45.724261 
L 79.757393 -45.724261 
L 79.186988 -45.724261 
L 78.616583 -45.724261 
L 78.046178 -45.724261 
L 77.475772 -45.724261 
L 76.905367 -45.724261 
L 76.334962 -45.724261 
L 75.764557 -45.724261 
L 75.194152 -45.724261 
L 74.623746 -45.724261 
L 74.053341 -45.724261 
L 73.482936 -45.724261 
L 72.912531 -45.724261 
L 72.342125 -45.724261 
L 71.77172 -45.724261 
L 71.201315 -45.724261 
L 70.63091 -45.724261 
L 70.060505 -45.724261 
L 69.490099 -45.724261 
L 68.919694 -45.724261 
L 68.349289 -45.724261 
L 67.778884 -45.724261 
L 67.208478 -45.724261 
L 66.638073 -45.724261 
L 66.067668 -45.724261 
L 65.497263 -45.724261 
L 64.926858 -45.724261 
L 64.356452 -45.724261 
L 63.786047 -45.724261 
L 63.215642 -45.724261 
L 62.645237 -45.724261 
L 62.074831 -45.724261 
L 61.504426 -45.724261 
L 60.934021 -45.724261 
L 60.363616 -45.724261 
L 59.793211 -45.724261 
L 59.222805 -45.724261 
L 58.6524 -45.724261 
L 58.081995 -45.724261 
L 57.51159 -45.724261 
L 56.941184 -45.724261 
L 56.370779 -45.724261 
L 55.800374 -45.724261 
L 55.229969 -45.724261 
L 54.659564 -45.724261 
L 54.089158 -45.724261 
L 53.518753 -45.724261 
L 52.948348 -45.724261 
L 52.377943 -45.724261 
L 51.807537 -45.724261 
L 51.237132 -45.724261 
L 50.666727 -45.724261 
L 50.096322 -45.724261 
L 49.525917 -45.724261 
L 48.955511 -45.724261 
z
" id="mf652103055" style="stroke:#808080;stroke-opacity:0.4;stroke-width:0.5;"/>
    </defs>
    <g clip-path="url(#pcebdf2e399)">
     <use style="fill:#808080;fill-opacity:0.4;stroke:#808080;stroke-opacity:0.4;stroke-width:0.5;" x="0" xlink:href="#mf652103055" y="279.888825"/>
    </g>
   </g>
   <g id="line2d_25">
    <path clip-path="url(#pcebdf2e399)" d="M 48.955511 212.623309 
L 390.628239 212.623309 
L 390.628239 212.623309 
" style="fill:none;stroke:#000000;stroke-width:2.7;"/>
   </g>
   <g id="line2d_26">
    <path clip-path="url(#pcebdf2e399)" d="M 48.955511 151.301388 
L 52.948348 142.261382 
L 56.941184 133.765547 
L 60.934021 125.844676 
L 64.356452 119.532799 
L 67.778884 113.67599 
L 71.201315 108.285064 
L 74.623746 103.368152 
L 77.475772 99.636834 
L 80.327799 96.240268 
L 83.179825 93.178923 
L 86.031851 90.452008 
L 88.883877 88.057496 
L 91.735903 85.992147 
L 94.587929 84.251533 
L 96.86955 83.089139 
L 99.151171 82.127649 
L 101.432792 81.363244 
L 103.714413 80.791671 
L 105.996033 80.40826 
L 108.277654 80.20794 
L 111.12968 80.20666 
L 113.981707 80.471439 
L 116.833733 80.989962 
L 119.685759 81.74913 
L 122.537785 82.735107 
L 125.389811 83.933392 
L 128.812242 85.630268 
L 132.234674 87.583956 
L 136.22751 90.150329 
L 140.220347 92.982068 
L 144.783588 96.482933 
L 150.487641 101.151383 
L 159.614124 108.966657 
L 169.311013 117.184026 
L 175.015065 121.722019 
L 179.578307 125.091929 
L 183.571143 127.801425 
L 187.56398 130.250419 
L 190.986411 132.11748 
L 194.408843 133.750581 
L 197.831274 135.132926 
L 201.253705 136.249639 
L 204.105731 136.967968 
L 206.957758 137.486494 
L 209.809784 137.799883 
L 212.66181 137.903844 
L 215.513836 137.795144 
L 218.365862 137.47162 
L 221.217888 136.93219 
L 224.069914 136.176853 
L 226.92194 135.206692 
L 229.773966 134.02387 
L 232.625992 132.63162 
L 236.048424 130.690591 
L 239.470855 128.463613 
L 242.893286 125.962192 
L 246.315718 123.199879 
L 250.308554 119.668261 
L 254.301391 115.830643 
L 258.864633 111.110243 
L 263.99828 105.435069 
L 269.702332 98.771019 
L 277.1176 89.735932 
L 293.659351 69.451874 
L 299.363403 62.881851 
L 303.926645 57.939978 
L 307.919482 53.904889 
L 311.912318 50.187543 
L 315.334749 47.287718 
L 318.757181 44.68063 
L 321.609207 42.75018 
L 324.461233 41.054923 
L 327.313259 39.608263 
L 330.165285 38.422834 
L 333.017311 37.510448 
L 335.298932 36.984506 
L 337.580553 36.645496 
L 339.862174 36.498189 
L 342.143795 36.546944 
L 344.425416 36.79569 
L 346.707037 37.247914 
L 348.988658 37.906649 
L 351.270278 38.774461 
L 353.551899 39.853435 
L 355.83352 41.145171 
L 358.115141 42.65077 
L 360.967167 44.834372 
L 363.819193 47.353066 
L 366.671219 50.20562 
L 369.523245 53.389524 
L 372.375272 56.900977 
L 375.227298 60.734884 
L 378.649729 65.752128 
L 382.07216 71.210953 
L 385.494592 77.095223 
L 388.917023 83.38619 
L 390.628239 86.677625 
L 390.628239 86.677625 
" style="fill:none;stroke:#800080;stroke-width:2.7;"/>
   </g>
   <g id="patch_3">
    <path d="M 31.871875 244.0482 
L 31.871875 26.6082 
" style="fill:none;stroke:#f0f0f0;stroke-linecap:square;stroke-linejoin:miter;stroke-width:3;"/>
   </g>
   <g id="patch_4">
    <path d="M 407.711875 244.0482 
L 407.711875 26.6082 
" style="fill:none;stroke:#f0f0f0;stroke-linecap:square;stroke-linejoin:miter;stroke-width:3;"/>
   </g>
   <g id="patch_5">
    <path d="M 31.871875 244.0482 
L 407.711875 244.0482 
" style="fill:none;stroke:#f0f0f0;stroke-linecap:square;stroke-linejoin:miter;stroke-width:3;"/>
   </g>
   <g id="patch_6">
    <path d="M 31.871875 26.6082 
L 407.711875 26.6082 
" style="fill:none;stroke:#f0f0f0;stroke-linecap:square;stroke-linejoin:miter;stroke-width:3;"/>
   </g>
   <g id="text_15">
    <!-- Prior -->
    <defs>
     <path d="M 27 70 
Q 41.59375 70 49.4375 64.453125 
Q 57.296875 58.90625 57.296875 47.90625 
Q 57.296875 41.90625 55.140625 37.65625 
Q 53 33.40625 48.953125 30.75 
Q 44.90625 28.09375 39.09375 26.890625 
Q 33.296875 25.703125 26 25.703125 
L 18.296875 25.703125 
L 18.296875 0 
L 8.59375 0 
L 8.59375 68.296875 
Q 12.703125 69.296875 17.75 69.640625 
Q 22.796875 70 27 70 
z
M 27.796875 61.5 
Q 21.59375 61.5 18.296875 61.203125 
L 18.296875 34 
L 25.59375 34 
Q 30.59375 34 34.59375 34.640625 
Q 38.59375 35.296875 41.34375 36.84375 
Q 44.09375 38.40625 45.59375 41.09375 
Q 47.09375 43.796875 47.09375 48 
Q 47.09375 52 45.546875 54.59375 
Q 44 57.203125 41.34375 58.75 
Q 38.703125 60.296875 35.203125 60.890625 
Q 31.703125 61.5 27.796875 61.5 
z
" id="Ubuntu-80"/>
     <path d="M 27.203125 53.09375 
Q 28.40625 53.09375 29.953125 52.9375 
Q 31.5 52.796875 33 52.546875 
Q 34.5 52.296875 35.75 52.046875 
Q 37 51.796875 37.59375 51.59375 
L 36 43.5 
Q 34.90625 43.90625 32.34375 44.453125 
Q 29.796875 45 25.796875 45 
Q 23.203125 45 20.640625 44.453125 
Q 18.09375 43.90625 17.296875 43.703125 
L 17.296875 0 
L 8 0 
L 8 49.796875 
Q 11.296875 51 16.1875 52.046875 
Q 21.09375 53.09375 27.203125 53.09375 
z
" id="Ubuntu-114"/>
     <path d="M 17.296875 0 
L 8 0 
L 8 52 
L 17.296875 52 
z
M 12.59375 61.40625 
Q 10.09375 61.40625 8.34375 63.046875 
Q 6.59375 64.703125 6.59375 67.5 
Q 6.59375 70.296875 8.34375 71.9375 
Q 10.09375 73.59375 12.59375 73.59375 
Q 15.09375 73.59375 16.84375 71.9375 
Q 18.59375 70.296875 18.59375 67.5 
Q 18.59375 64.703125 16.84375 63.046875 
Q 15.09375 61.40625 12.59375 61.40625 
z
" id="Ubuntu-105"/>
    </defs>
    <g transform="translate(200.586775 20.6082)scale(0.1728 -0.1728)">
     <use xlink:href="#Ubuntu-80"/>
     <use x="60.799988" xlink:href="#Ubuntu-114"/>
     <use x="99.399979" xlink:href="#Ubuntu-105"/>
     <use x="124.699966" xlink:href="#Ubuntu-111"/>
     <use x="183.699951" xlink:href="#Ubuntu-114"/>
    </g>
   </g>
   <g id="legend_1">
    <g id="patch_7">
     <path d="M 431.145475 89.10195 
L 522.465475 89.10195 
Q 524.865475 89.10195 524.865475 86.70195 
L 524.865475 35.0082 
Q 524.865475 32.6082 522.465475 32.6082 
L 431.145475 32.6082 
Q 428.745475 32.6082 428.745475 35.0082 
L 428.745475 86.70195 
Q 428.745475 89.10195 431.145475 89.10195 
z
" style="fill:#f0f0f0;opacity:0.8;stroke:#cccccc;stroke-linejoin:miter;stroke-width:0.5;"/>
    </g>
    <g id="line2d_27">
     <path d="M 433.545475 42.51945 
L 457.545475 42.51945 
" style="fill:none;stroke:#000000;stroke-width:2.7;"/>
    </g>
    <g id="line2d_28"/>
    <g id="text_16">
     <!-- Predicted -->
     <g transform="translate(467.145475 46.71945)scale(0.12 -0.12)">
      <use xlink:href="#Ubuntu-80"/>
      <use x="60.799988" xlink:href="#Ubuntu-114"/>
      <use x="99.399979" xlink:href="#Ubuntu-101"/>
      <use x="155.299973" xlink:href="#Ubuntu-100"/>
      <use x="214.199966" xlink:href="#Ubuntu-105"/>
      <use x="239.499954" xlink:href="#Ubuntu-99"/>
      <use x="285.999939" xlink:href="#Ubuntu-116"/>
      <use x="326.184311" xlink:href="#Ubuntu-101"/>
      <use x="382.084305" xlink:href="#Ubuntu-100"/>
     </g>
    </g>
    <g id="line2d_29">
     <path d="M 433.545475 60.0507 
L 457.545475 60.0507 
" style="fill:none;stroke:#800080;stroke-width:2.7;"/>
    </g>
    <g id="line2d_30"/>
    <g id="text_17">
     <!-- GT -->
     <defs>
      <path d="M 54.90625 69.296875 
L 54.90625 60.90625 
L 33.09375 60.90625 
L 33.09375 0 
L 23.40625 0 
L 23.40625 60.90625 
L 1.59375 60.90625 
L 1.59375 69.296875 
z
" id="Ubuntu-84"/>
     </defs>
     <g transform="translate(467.145475 64.2507)scale(0.12 -0.12)">
      <use xlink:href="#Ubuntu-71"/>
      <use x="67.199997" xlink:href="#Ubuntu-84"/>
     </g>
    </g>
    <g id="patch_8">
     <path d="M 433.545475 81.78195 
L 457.545475 81.78195 
L 457.545475 73.38195 
L 433.545475 73.38195 
z
" style="fill:#808080;opacity:0.4;stroke:#808080;stroke-linejoin:miter;stroke-width:0.5;"/>
    </g>
    <g id="text_18">
     <!-- $\mu \pm \sigma$ -->
     <defs>
      <path d="M -1.3125 -20.796875 
L 13.375 54.6875 
L 22.40625 54.6875 
L 15.765625 20.65625 
Q 15.578125 19.625 15.421875 18.359375 
Q 15.28125 17.09375 15.28125 15.828125 
Q 15.28125 11.28125 18.140625 8.828125 
Q 21 6.390625 26.3125 6.390625 
Q 33.546875 6.390625 37.984375 10.484375 
Q 42.4375 14.59375 44 22.796875 
L 50.203125 54.6875 
L 59.1875 54.6875 
L 51.03125 12.640625 
Q 50.828125 11.71875 50.75 11.03125 
Q 50.6875 10.359375 50.6875 9.8125 
Q 50.6875 8.296875 51.296875 7.59375 
Q 51.90625 6.890625 53.21875 6.890625 
Q 53.71875 6.890625 54.5625 7.125 
Q 55.421875 7.375 56.984375 8.015625 
L 55.609375 0.78125 
Q 53.46875 -0.296875 51.515625 -0.859375 
Q 49.5625 -1.421875 47.703125 -1.421875 
Q 44.484375 -1.421875 42.65625 0.625 
Q 40.828125 2.6875 40.828125 6.296875 
Q 38.09375 2.390625 34.296875 0.484375 
Q 30.515625 -1.421875 25.390625 -1.421875 
Q 20.84375 -1.421875 17.453125 0.671875 
Q 14.0625 2.78125 12.984375 6.203125 
L 7.71875 -20.796875 
z
" id="DejaVuSans-Oblique-956"/>
      <path d="M 46 62.703125 
L 46 43.796875 
L 73.1875 43.796875 
L 73.1875 35.5 
L 46 35.5 
L 46 16.609375 
L 37.796875 16.609375 
L 37.796875 35.5 
L 10.59375 35.5 
L 10.59375 43.796875 
L 37.796875 43.796875 
L 37.796875 62.703125 
z
M 10.59375 8.296875 
L 73.1875 8.296875 
L 73.1875 0 
L 10.59375 0 
z
" id="DejaVuSans-177"/>
      <path d="M 34.671875 47.5625 
Q 27.25 47.5625 22.21875 42.1875 
Q 16.890625 36.578125 15.140625 27.296875 
Q 13.1875 17.484375 16.3125 11.8125 
Q 19.390625 6.203125 26.65625 6.203125 
Q 33.84375 6.203125 39.109375 11.859375 
Q 44.4375 17.53125 46.34375 27.296875 
Q 48.046875 36.234375 45.015625 42.1875 
Q 42.1875 47.5625 34.671875 47.5625 
z
M 36.078125 54.734375 
L 65.921875 54.6875 
L 64.15625 45.703125 
L 54.109375 45.703125 
Q 57.90625 38.09375 55.859375 27.296875 
Q 53.21875 13.875 45.0625 6.25 
Q 36.859375 -1.421875 25.140625 -1.421875 
Q 13.375 -1.421875 8.203125 6.25 
Q 3.03125 13.875 5.671875 27.296875 
Q 8.25 40.765625 16.40625 48.390625 
Q 23.1875 54.734375 36.078125 54.734375 
z
" id="DejaVuSans-Oblique-963"/>
     </defs>
     <g transform="translate(467.145475 81.78195)scale(0.12 -0.12)">
      <use transform="translate(0 0.296875)" xlink:href="#DejaVuSans-Oblique-956"/>
      <use transform="translate(83.105469 0.296875)" xlink:href="#DejaVuSans-177"/>
      <use transform="translate(186.376953 0.296875)" xlink:href="#DejaVuSans-Oblique-963"/>
     </g>
    </g>
   </g>
  </g>
 </g>
 <defs>
  <clipPath id="pcebdf2e399">
   <rect height="217.44" width="375.84" x="31.871875" y="26.6082"/>
  </clipPath>
 </defs>
</svg>
