<?xml version="1.0" encoding="utf-8" standalone="no"?>
<!DOCTYPE svg PUBLIC "-//W3C//DTD SVG 1.1//EN"
  "http://www.w3.org/Graphics/SVG/1.1/DTD/svg11.dtd">
<!-- Created with matplotlib (https://matplotlib.org/) -->
<svg height="275.685875pt" version="1.1" viewBox="0 0 490.113875 275.685875" width="490.113875pt" xmlns="http://www.w3.org/2000/svg" xmlns:xlink="http://www.w3.org/1999/xlink">
 <defs>
  <style type="text/css">
*{stroke-linecap:butt;stroke-linejoin:round;}
  </style>
 </defs>
 <g id="figure_1">
  <g id="patch_1">
   <path d="M 0 275.685875 
L 490.113875 275.685875 
L 490.113875 0 
L 0 0 
z
" style="fill:#ffffff;"/>
  </g>
  <g id="axes_1">
   <g id="patch_2">
    <path d="M 34.421875 238.089 
L 369.221875 238.089 
L 369.221875 20.649 
L 34.421875 20.649 
z
" style="fill:#ffffff;"/>
   </g>
   <g id="PolyCollection_1">
    <defs>
     <path d="M 49.640057 -47.480511 
L 49.640057 -94.360401 
L 50.148176 -94.360401 
L 50.656296 -94.360401 
L 51.164416 -94.360401 
L 51.672535 -94.360401 
L 52.180655 -94.360401 
L 52.688774 -94.360401 
L 53.196894 -94.360401 
L 53.705014 -94.360401 
L 54.213133 -94.360401 
L 54.721253 -94.360401 
L 55.229372 -94.360401 
L 55.737492 -94.360401 
L 56.245612 -94.360401 
L 56.753731 -94.360401 
L 57.261851 -94.360401 
L 57.76997 -94.360401 
L 58.27809 -94.360401 
L 58.786209 -94.360401 
L 59.294329 -94.360401 
L 59.802449 -94.360401 
L 60.310568 -94.360401 
L 60.818688 -94.360401 
L 61.326807 -94.360401 
L 61.834927 -94.360401 
L 62.343047 -94.360401 
L 62.851166 -94.360401 
L 63.359286 -94.360401 
L 63.867405 -94.360401 
L 64.375525 -94.360401 
L 64.883645 -94.360401 
L 65.391764 -94.360401 
L 65.899884 -94.360401 
L 66.408003 -94.360401 
L 66.916123 -94.360401 
L 67.424243 -94.360401 
L 67.932362 -94.360401 
L 68.440482 -94.360401 
L 68.948601 -94.360401 
L 69.456721 -94.360401 
L 69.964841 -94.360401 
L 70.47296 -94.360401 
L 70.98108 -94.360401 
L 71.489199 -94.360401 
L 71.997319 -94.360401 
L 72.505439 -94.360401 
L 73.013558 -94.360401 
L 73.521678 -94.360401 
L 74.029797 -94.360401 
L 74.537917 -94.360401 
L 75.046036 -94.360401 
L 75.554156 -94.360401 
L 76.062276 -94.360401 
L 76.570395 -94.360401 
L 77.078515 -94.360401 
L 77.586634 -94.360401 
L 78.094754 -94.360401 
L 78.602874 -94.360401 
L 79.110993 -94.360401 
L 79.619113 -94.360401 
L 80.127232 -94.360401 
L 80.635352 -94.360401 
L 81.143472 -94.360401 
L 81.651591 -94.360401 
L 82.159711 -94.360401 
L 82.66783 -94.360401 
L 83.17595 -94.360401 
L 83.68407 -94.360401 
L 84.192189 -94.360401 
L 84.700309 -94.360401 
L 85.208428 -94.360401 
L 85.716548 -94.360401 
L 86.224668 -94.360401 
L 86.732787 -94.360401 
L 87.240907 -94.360401 
L 87.749026 -94.360401 
L 88.257146 -94.360401 
L 88.765265 -94.360401 
L 89.273385 -94.360401 
L 89.781505 -94.360401 
L 90.289624 -94.360401 
L 90.797744 -94.360401 
L 91.305863 -94.360401 
L 91.813983 -94.360401 
L 92.322103 -94.360401 
L 92.830222 -94.360401 
L 93.338342 -94.360401 
L 93.846461 -94.360401 
L 94.354581 -94.360401 
L 94.862701 -94.360401 
L 95.37082 -94.360401 
L 95.87894 -94.360401 
L 96.387059 -94.360401 
L 96.895179 -94.360401 
L 97.403299 -94.360401 
L 97.911418 -94.360401 
L 98.419538 -94.360401 
L 98.927657 -94.360401 
L 99.435777 -94.360401 
L 99.943897 -94.360401 
L 100.452016 -94.360401 
L 100.960136 -94.360401 
L 101.468255 -94.360401 
L 101.976375 -94.360401 
L 102.484495 -94.360401 
L 102.992614 -94.360401 
L 103.500734 -94.360401 
L 104.008853 -94.360401 
L 104.516973 -94.360401 
L 105.025092 -94.360401 
L 105.533212 -94.360401 
L 106.041332 -94.360401 
L 106.549451 -94.360401 
L 107.057571 -94.360401 
L 107.56569 -94.360401 
L 108.07381 -94.360401 
L 108.58193 -94.360401 
L 109.090049 -94.360401 
L 109.598169 -94.360401 
L 110.106288 -94.360401 
L 110.614408 -94.360401 
L 111.122528 -94.360401 
L 111.630647 -94.360401 
L 112.138767 -94.360401 
L 112.646886 -94.360401 
L 113.155006 -94.360401 
L 113.663126 -94.360401 
L 114.171245 -94.360401 
L 114.679365 -94.360401 
L 115.187484 -94.360401 
L 115.695604 -94.360401 
L 116.203724 -94.360401 
L 116.711843 -94.360401 
L 117.219963 -94.360401 
L 117.728082 -94.360401 
L 118.236202 -94.360401 
L 118.744322 -94.360401 
L 119.252441 -94.360401 
L 119.760561 -94.360401 
L 120.26868 -94.360401 
L 120.7768 -94.360401 
L 121.284919 -94.360401 
L 121.793039 -94.360401 
L 122.301159 -94.360401 
L 122.809278 -94.360401 
L 123.317398 -94.360401 
L 123.825517 -94.360401 
L 124.333637 -94.360401 
L 124.841757 -94.360401 
L 125.349876 -94.360401 
L 125.857996 -94.360401 
L 126.366115 -94.360401 
L 126.874235 -94.360401 
L 127.382355 -94.360401 
L 127.890474 -94.360401 
L 128.398594 -94.360401 
L 128.906713 -94.360401 
L 129.414833 -94.360401 
L 129.922953 -94.360401 
L 130.431072 -94.360401 
L 130.939192 -94.360401 
L 131.447311 -94.360401 
L 131.955431 -94.360401 
L 132.463551 -94.360401 
L 132.97167 -94.360401 
L 133.47979 -94.360401 
L 133.987909 -94.360401 
L 134.496029 -94.360401 
L 135.004148 -94.360401 
L 135.512268 -94.360401 
L 136.020388 -94.360401 
L 136.528507 -94.360401 
L 137.036627 -94.360401 
L 137.544746 -94.360401 
L 138.052866 -94.360401 
L 138.560986 -94.360401 
L 139.069105 -94.360401 
L 139.577225 -94.360401 
L 140.085344 -94.360401 
L 140.593464 -94.360401 
L 141.101584 -94.360401 
L 141.609703 -94.360401 
L 142.117823 -94.360401 
L 142.625942 -94.360401 
L 143.134062 -94.360401 
L 143.642182 -94.360401 
L 144.150301 -94.360401 
L 144.658421 -94.360401 
L 145.16654 -94.360401 
L 145.67466 -94.360401 
L 146.18278 -94.360401 
L 146.690899 -94.360401 
L 147.199019 -94.360401 
L 147.707138 -94.360401 
L 148.215258 -94.360401 
L 148.723378 -94.360401 
L 149.231497 -94.360401 
L 149.739617 -94.360401 
L 150.247736 -94.360401 
L 150.755856 -94.360401 
L 151.263975 -94.360401 
L 151.772095 -94.360401 
L 152.280215 -94.360401 
L 152.788334 -94.360401 
L 153.296454 -94.360401 
L 153.804573 -94.360401 
L 154.312693 -94.360401 
L 154.820813 -94.360401 
L 155.328932 -94.360401 
L 155.837052 -94.360401 
L 156.345171 -94.360401 
L 156.853291 -94.360401 
L 157.361411 -94.360401 
L 157.86953 -94.360401 
L 158.37765 -94.360401 
L 158.885769 -94.360401 
L 159.393889 -94.360401 
L 159.902009 -94.360401 
L 160.410128 -94.360401 
L 160.918248 -94.360401 
L 161.426367 -94.360401 
L 161.934487 -94.360401 
L 162.442607 -94.360401 
L 162.950726 -94.360401 
L 163.458846 -94.360401 
L 163.966965 -94.360401 
L 164.475085 -94.360401 
L 164.983204 -94.360401 
L 165.491324 -94.360401 
L 165.999444 -94.360401 
L 166.507563 -94.360401 
L 167.015683 -94.360401 
L 167.523802 -94.360401 
L 168.031922 -94.360401 
L 168.540042 -94.360401 
L 169.048161 -94.360401 
L 169.556281 -94.360401 
L 170.0644 -94.360401 
L 170.57252 -94.360401 
L 171.08064 -94.360401 
L 171.588759 -94.360401 
L 172.096879 -94.360401 
L 172.604998 -94.360401 
L 173.113118 -94.360401 
L 173.621238 -94.360401 
L 174.129357 -94.360401 
L 174.637477 -94.360401 
L 175.145596 -94.360401 
L 175.653716 -94.360401 
L 176.161836 -94.360401 
L 176.669955 -94.360401 
L 177.178075 -94.360401 
L 177.686194 -94.360401 
L 178.194314 -94.360401 
L 178.702434 -94.360401 
L 179.210553 -94.360401 
L 179.718673 -94.360401 
L 180.226792 -94.360401 
L 180.734912 -94.360401 
L 181.243031 -94.360401 
L 181.751151 -94.360401 
L 182.259271 -94.360401 
L 182.76739 -94.360401 
L 183.27551 -94.360401 
L 183.783629 -94.360401 
L 184.291749 -94.360401 
L 184.799869 -94.360401 
L 185.307988 -94.360401 
L 185.816108 -94.360401 
L 186.324227 -94.360401 
L 186.832347 -94.360401 
L 187.340467 -94.360401 
L 187.848586 -94.360401 
L 188.356706 -94.360401 
L 188.864825 -94.360401 
L 189.372945 -94.360401 
L 189.881065 -94.360401 
L 190.389184 -94.360401 
L 190.897304 -94.360401 
L 191.405423 -94.360401 
L 191.913543 -94.360401 
L 192.421663 -94.360401 
L 192.929782 -94.360401 
L 193.437902 -94.360401 
L 193.946021 -94.360401 
L 194.454141 -94.360401 
L 194.96226 -94.360401 
L 195.47038 -94.360401 
L 195.9785 -94.360401 
L 196.486619 -94.360401 
L 196.994739 -94.360401 
L 197.502858 -94.360401 
L 198.010978 -94.360401 
L 198.519098 -94.360401 
L 199.027217 -94.360401 
L 199.535337 -94.360401 
L 200.043456 -94.360401 
L 200.551576 -94.360401 
L 201.059696 -94.360401 
L 201.567815 -94.360401 
L 202.075935 -94.360401 
L 202.584054 -94.360401 
L 203.092174 -94.360401 
L 203.600294 -94.360401 
L 204.108413 -94.360401 
L 204.616533 -94.360401 
L 205.124652 -94.360401 
L 205.632772 -94.360401 
L 206.140892 -94.360401 
L 206.649011 -94.360401 
L 207.157131 -94.360401 
L 207.66525 -94.360401 
L 208.17337 -94.360401 
L 208.68149 -94.360401 
L 209.189609 -94.360401 
L 209.697729 -94.360401 
L 210.205848 -94.360401 
L 210.713968 -94.360401 
L 211.222087 -94.360401 
L 211.730207 -94.360401 
L 212.238327 -94.360401 
L 212.746446 -94.360401 
L 213.254566 -94.360401 
L 213.762685 -94.360401 
L 214.270805 -94.360401 
L 214.778925 -94.360401 
L 215.287044 -94.360401 
L 215.795164 -94.360401 
L 216.303283 -94.360401 
L 216.811403 -94.360401 
L 217.319523 -94.360401 
L 217.827642 -94.360401 
L 218.335762 -94.360401 
L 218.843881 -94.360401 
L 219.352001 -94.360401 
L 219.860121 -94.360401 
L 220.36824 -94.360401 
L 220.87636 -94.360401 
L 221.384479 -94.360401 
L 221.892599 -94.360401 
L 222.400719 -94.360401 
L 222.908838 -94.360401 
L 223.416958 -94.360401 
L 223.925077 -94.360401 
L 224.433197 -94.360401 
L 224.941316 -94.360401 
L 225.449436 -94.360401 
L 225.957556 -94.360401 
L 226.465675 -94.360401 
L 226.973795 -94.360401 
L 227.481914 -94.360401 
L 227.990034 -94.360401 
L 228.498154 -94.360401 
L 229.006273 -94.360401 
L 229.514393 -94.360401 
L 230.022512 -94.360401 
L 230.530632 -94.360401 
L 231.038752 -94.360401 
L 231.546871 -94.360401 
L 232.054991 -94.360401 
L 232.56311 -94.360401 
L 233.07123 -94.360401 
L 233.57935 -94.360401 
L 234.087469 -94.360401 
L 234.595589 -94.360401 
L 235.103708 -94.360401 
L 235.611828 -94.360401 
L 236.119948 -94.360401 
L 236.628067 -94.360401 
L 237.136187 -94.360401 
L 237.644306 -94.360401 
L 238.152426 -94.360401 
L 238.660546 -94.360401 
L 239.168665 -94.360401 
L 239.676785 -94.360401 
L 240.184904 -94.360401 
L 240.693024 -94.360401 
L 241.201143 -94.360401 
L 241.709263 -94.360401 
L 242.217383 -94.360401 
L 242.725502 -94.360401 
L 243.233622 -94.360401 
L 243.741741 -94.360401 
L 244.249861 -94.360401 
L 244.757981 -94.360401 
L 245.2661 -94.360401 
L 245.77422 -94.360401 
L 246.282339 -94.360401 
L 246.790459 -94.360401 
L 247.298579 -94.360401 
L 247.806698 -94.360401 
L 248.314818 -94.360401 
L 248.822937 -94.360401 
L 249.331057 -94.360401 
L 249.839177 -94.360401 
L 250.347296 -94.360401 
L 250.855416 -94.360401 
L 251.363535 -94.360401 
L 251.871655 -94.360401 
L 252.379775 -94.360401 
L 252.887894 -94.360401 
L 253.396014 -94.360401 
L 253.904133 -94.360401 
L 254.412253 -94.360401 
L 254.920372 -94.360401 
L 255.428492 -94.360401 
L 255.936612 -94.360401 
L 256.444731 -94.360401 
L 256.952851 -94.360401 
L 257.46097 -94.360401 
L 257.96909 -94.360401 
L 258.47721 -94.360401 
L 258.985329 -94.360401 
L 259.493449 -94.360401 
L 260.001568 -94.360401 
L 260.509688 -94.360401 
L 261.017808 -94.360401 
L 261.525927 -94.360401 
L 262.034047 -94.360401 
L 262.542166 -94.360401 
L 263.050286 -94.360401 
L 263.558406 -94.360401 
L 264.066525 -94.360401 
L 264.574645 -94.360401 
L 265.082764 -94.360401 
L 265.590884 -94.360401 
L 266.099004 -94.360401 
L 266.607123 -94.360401 
L 267.115243 -94.360401 
L 267.623362 -94.360401 
L 268.131482 -94.360401 
L 268.639602 -94.360401 
L 269.147721 -94.360401 
L 269.655841 -94.360401 
L 270.16396 -94.360401 
L 270.67208 -94.360401 
L 271.180199 -94.360401 
L 271.688319 -94.360401 
L 272.196439 -94.360401 
L 272.704558 -94.360401 
L 273.212678 -94.360401 
L 273.720797 -94.360401 
L 274.228917 -94.360401 
L 274.737037 -94.360401 
L 275.245156 -94.360401 
L 275.753276 -94.360401 
L 276.261395 -94.360401 
L 276.769515 -94.360401 
L 277.277635 -94.360401 
L 277.785754 -94.360401 
L 278.293874 -94.360401 
L 278.801993 -94.360401 
L 279.310113 -94.360401 
L 279.818233 -94.360401 
L 280.326352 -94.360401 
L 280.834472 -94.360401 
L 281.342591 -94.360401 
L 281.850711 -94.360401 
L 282.358831 -94.360401 
L 282.86695 -94.360401 
L 283.37507 -94.360401 
L 283.883189 -94.360401 
L 284.391309 -94.360401 
L 284.899428 -94.360401 
L 285.407548 -94.360401 
L 285.915668 -94.360401 
L 286.423787 -94.360401 
L 286.931907 -94.360401 
L 287.440026 -94.360401 
L 287.948146 -94.360401 
L 288.456266 -94.360401 
L 288.964385 -94.360401 
L 289.472505 -94.360401 
L 289.980624 -94.360401 
L 290.488744 -94.360401 
L 290.996864 -94.360401 
L 291.504983 -94.360401 
L 292.013103 -94.360401 
L 292.521222 -94.360401 
L 293.029342 -94.360401 
L 293.537462 -94.360401 
L 294.045581 -94.360401 
L 294.553701 -94.360401 
L 295.06182 -94.360401 
L 295.56994 -94.360401 
L 296.07806 -94.360401 
L 296.586179 -94.360401 
L 297.094299 -94.360401 
L 297.602418 -94.360401 
L 298.110538 -94.360401 
L 298.618658 -94.360401 
L 299.126777 -94.360401 
L 299.634897 -94.360401 
L 300.143016 -94.360401 
L 300.651136 -94.360401 
L 301.159255 -94.360401 
L 301.667375 -94.360401 
L 302.175495 -94.360401 
L 302.683614 -94.360401 
L 303.191734 -94.360401 
L 303.699853 -94.360401 
L 304.207973 -94.360401 
L 304.716093 -94.360401 
L 305.224212 -94.360401 
L 305.732332 -94.360401 
L 306.240451 -94.360401 
L 306.748571 -94.360401 
L 307.256691 -94.360401 
L 307.76481 -94.360401 
L 308.27293 -94.360401 
L 308.781049 -94.360401 
L 309.289169 -94.360401 
L 309.797289 -94.360401 
L 310.305408 -94.360401 
L 310.813528 -94.360401 
L 311.321647 -94.360401 
L 311.829767 -94.360401 
L 312.337887 -94.360401 
L 312.846006 -94.360401 
L 313.354126 -94.360401 
L 313.862245 -94.360401 
L 314.370365 -94.360401 
L 314.878485 -94.360401 
L 315.386604 -94.360401 
L 315.894724 -94.360401 
L 316.402843 -94.360401 
L 316.910963 -94.360401 
L 317.419082 -94.360401 
L 317.927202 -94.360401 
L 318.435322 -94.360401 
L 318.943441 -94.360401 
L 319.451561 -94.360401 
L 319.95968 -94.360401 
L 320.4678 -94.360401 
L 320.97592 -94.360401 
L 321.484039 -94.360401 
L 321.992159 -94.360401 
L 322.500278 -94.360401 
L 323.008398 -94.360401 
L 323.516518 -94.360401 
L 324.024637 -94.360401 
L 324.532757 -94.360401 
L 325.040876 -94.360401 
L 325.548996 -94.360401 
L 326.057116 -94.360401 
L 326.565235 -94.360401 
L 327.073355 -94.360401 
L 327.581474 -94.360401 
L 328.089594 -94.360401 
L 328.597714 -94.360401 
L 329.105833 -94.360401 
L 329.613953 -94.360401 
L 330.122072 -94.360401 
L 330.630192 -94.360401 
L 331.138311 -94.360401 
L 331.646431 -94.360401 
L 332.154551 -94.360401 
L 332.66267 -94.360401 
L 333.17079 -94.360401 
L 333.678909 -94.360401 
L 334.187029 -94.360401 
L 334.695149 -94.360401 
L 335.203268 -94.360401 
L 335.711388 -94.360401 
L 336.219507 -94.360401 
L 336.727627 -94.360401 
L 337.235747 -94.360401 
L 337.743866 -94.360401 
L 338.251986 -94.360401 
L 338.760105 -94.360401 
L 339.268225 -94.360401 
L 339.776345 -94.360401 
L 340.284464 -94.360401 
L 340.792584 -94.360401 
L 341.300703 -94.360401 
L 341.808823 -94.360401 
L 342.316943 -94.360401 
L 342.825062 -94.360401 
L 343.333182 -94.360401 
L 343.841301 -94.360401 
L 344.349421 -94.360401 
L 344.857541 -94.360401 
L 345.36566 -94.360401 
L 345.87378 -94.360401 
L 346.381899 -94.360401 
L 346.890019 -94.360401 
L 347.398138 -94.360401 
L 347.906258 -94.360401 
L 348.414378 -94.360401 
L 348.922497 -94.360401 
L 349.430617 -94.360401 
L 349.938736 -94.360401 
L 350.446856 -94.360401 
L 350.954976 -94.360401 
L 351.463095 -94.360401 
L 351.971215 -94.360401 
L 352.479334 -94.360401 
L 352.987454 -94.360401 
L 353.495574 -94.360401 
L 354.003693 -94.360401 
L 354.003693 -47.480511 
L 354.003693 -47.480511 
L 353.495574 -47.480511 
L 352.987454 -47.480511 
L 352.479334 -47.480511 
L 351.971215 -47.480511 
L 351.463095 -47.480511 
L 350.954976 -47.480511 
L 350.446856 -47.480511 
L 349.938736 -47.480511 
L 349.430617 -47.480511 
L 348.922497 -47.480511 
L 348.414378 -47.480511 
L 347.906258 -47.480511 
L 347.398138 -47.480511 
L 346.890019 -47.480511 
L 346.381899 -47.480511 
L 345.87378 -47.480511 
L 345.36566 -47.480511 
L 344.857541 -47.480511 
L 344.349421 -47.480511 
L 343.841301 -47.480511 
L 343.333182 -47.480511 
L 342.825062 -47.480511 
L 342.316943 -47.480511 
L 341.808823 -47.480511 
L 341.300703 -47.480511 
L 340.792584 -47.480511 
L 340.284464 -47.480511 
L 339.776345 -47.480511 
L 339.268225 -47.480511 
L 338.760105 -47.480511 
L 338.251986 -47.480511 
L 337.743866 -47.480511 
L 337.235747 -47.480511 
L 336.727627 -47.480511 
L 336.219507 -47.480511 
L 335.711388 -47.480511 
L 335.203268 -47.480511 
L 334.695149 -47.480511 
L 334.187029 -47.480511 
L 333.678909 -47.480511 
L 333.17079 -47.480511 
L 332.66267 -47.480511 
L 332.154551 -47.480511 
L 331.646431 -47.480511 
L 331.138311 -47.480511 
L 330.630192 -47.480511 
L 330.122072 -47.480511 
L 329.613953 -47.480511 
L 329.105833 -47.480511 
L 328.597714 -47.480511 
L 328.089594 -47.480511 
L 327.581474 -47.480511 
L 327.073355 -47.480511 
L 326.565235 -47.480511 
L 326.057116 -47.480511 
L 325.548996 -47.480511 
L 325.040876 -47.480511 
L 324.532757 -47.480511 
L 324.024637 -47.480511 
L 323.516518 -47.480511 
L 323.008398 -47.480511 
L 322.500278 -47.480511 
L 321.992159 -47.480511 
L 321.484039 -47.480511 
L 320.97592 -47.480511 
L 320.4678 -47.480511 
L 319.95968 -47.480511 
L 319.451561 -47.480511 
L 318.943441 -47.480511 
L 318.435322 -47.480511 
L 317.927202 -47.480511 
L 317.419082 -47.480511 
L 316.910963 -47.480511 
L 316.402843 -47.480511 
L 315.894724 -47.480511 
L 315.386604 -47.480511 
L 314.878485 -47.480511 
L 314.370365 -47.480511 
L 313.862245 -47.480511 
L 313.354126 -47.480511 
L 312.846006 -47.480511 
L 312.337887 -47.480511 
L 311.829767 -47.480511 
L 311.321647 -47.480511 
L 310.813528 -47.480511 
L 310.305408 -47.480511 
L 309.797289 -47.480511 
L 309.289169 -47.480511 
L 308.781049 -47.480511 
L 308.27293 -47.480511 
L 307.76481 -47.480511 
L 307.256691 -47.480511 
L 306.748571 -47.480511 
L 306.240451 -47.480511 
L 305.732332 -47.480511 
L 305.224212 -47.480511 
L 304.716093 -47.480511 
L 304.207973 -47.480511 
L 303.699853 -47.480511 
L 303.191734 -47.480511 
L 302.683614 -47.480511 
L 302.175495 -47.480511 
L 301.667375 -47.480511 
L 301.159255 -47.480511 
L 300.651136 -47.480511 
L 300.143016 -47.480511 
L 299.634897 -47.480511 
L 299.126777 -47.480511 
L 298.618658 -47.480511 
L 298.110538 -47.480511 
L 297.602418 -47.480511 
L 297.094299 -47.480511 
L 296.586179 -47.480511 
L 296.07806 -47.480511 
L 295.56994 -47.480511 
L 295.06182 -47.480511 
L 294.553701 -47.480511 
L 294.045581 -47.480511 
L 293.537462 -47.480511 
L 293.029342 -47.480511 
L 292.521222 -47.480511 
L 292.013103 -47.480511 
L 291.504983 -47.480511 
L 290.996864 -47.480511 
L 290.488744 -47.480511 
L 289.980624 -47.480511 
L 289.472505 -47.480511 
L 288.964385 -47.480511 
L 288.456266 -47.480511 
L 287.948146 -47.480511 
L 287.440026 -47.480511 
L 286.931907 -47.480511 
L 286.423787 -47.480511 
L 285.915668 -47.480511 
L 285.407548 -47.480511 
L 284.899428 -47.480511 
L 284.391309 -47.480511 
L 283.883189 -47.480511 
L 283.37507 -47.480511 
L 282.86695 -47.480511 
L 282.358831 -47.480511 
L 281.850711 -47.480511 
L 281.342591 -47.480511 
L 280.834472 -47.480511 
L 280.326352 -47.480511 
L 279.818233 -47.480511 
L 279.310113 -47.480511 
L 278.801993 -47.480511 
L 278.293874 -47.480511 
L 277.785754 -47.480511 
L 277.277635 -47.480511 
L 276.769515 -47.480511 
L 276.261395 -47.480511 
L 275.753276 -47.480511 
L 275.245156 -47.480511 
L 274.737037 -47.480511 
L 274.228917 -47.480511 
L 273.720797 -47.480511 
L 273.212678 -47.480511 
L 272.704558 -47.480511 
L 272.196439 -47.480511 
L 271.688319 -47.480511 
L 271.180199 -47.480511 
L 270.67208 -47.480511 
L 270.16396 -47.480511 
L 269.655841 -47.480511 
L 269.147721 -47.480511 
L 268.639602 -47.480511 
L 268.131482 -47.480511 
L 267.623362 -47.480511 
L 267.115243 -47.480511 
L 266.607123 -47.480511 
L 266.099004 -47.480511 
L 265.590884 -47.480511 
L 265.082764 -47.480511 
L 264.574645 -47.480511 
L 264.066525 -47.480511 
L 263.558406 -47.480511 
L 263.050286 -47.480511 
L 262.542166 -47.480511 
L 262.034047 -47.480511 
L 261.525927 -47.480511 
L 261.017808 -47.480511 
L 260.509688 -47.480511 
L 260.001568 -47.480511 
L 259.493449 -47.480511 
L 258.985329 -47.480511 
L 258.47721 -47.480511 
L 257.96909 -47.480511 
L 257.46097 -47.480511 
L 256.952851 -47.480511 
L 256.444731 -47.480511 
L 255.936612 -47.480511 
L 255.428492 -47.480511 
L 254.920372 -47.480511 
L 254.412253 -47.480511 
L 253.904133 -47.480511 
L 253.396014 -47.480511 
L 252.887894 -47.480511 
L 252.379775 -47.480511 
L 251.871655 -47.480511 
L 251.363535 -47.480511 
L 250.855416 -47.480511 
L 250.347296 -47.480511 
L 249.839177 -47.480511 
L 249.331057 -47.480511 
L 248.822937 -47.480511 
L 248.314818 -47.480511 
L 247.806698 -47.480511 
L 247.298579 -47.480511 
L 246.790459 -47.480511 
L 246.282339 -47.480511 
L 245.77422 -47.480511 
L 245.2661 -47.480511 
L 244.757981 -47.480511 
L 244.249861 -47.480511 
L 243.741741 -47.480511 
L 243.233622 -47.480511 
L 242.725502 -47.480511 
L 242.217383 -47.480511 
L 241.709263 -47.480511 
L 241.201143 -47.480511 
L 240.693024 -47.480511 
L 240.184904 -47.480511 
L 239.676785 -47.480511 
L 239.168665 -47.480511 
L 238.660546 -47.480511 
L 238.152426 -47.480511 
L 237.644306 -47.480511 
L 237.136187 -47.480511 
L 236.628067 -47.480511 
L 236.119948 -47.480511 
L 235.611828 -47.480511 
L 235.103708 -47.480511 
L 234.595589 -47.480511 
L 234.087469 -47.480511 
L 233.57935 -47.480511 
L 233.07123 -47.480511 
L 232.56311 -47.480511 
L 232.054991 -47.480511 
L 231.546871 -47.480511 
L 231.038752 -47.480511 
L 230.530632 -47.480511 
L 230.022512 -47.480511 
L 229.514393 -47.480511 
L 229.006273 -47.480511 
L 228.498154 -47.480511 
L 227.990034 -47.480511 
L 227.481914 -47.480511 
L 226.973795 -47.480511 
L 226.465675 -47.480511 
L 225.957556 -47.480511 
L 225.449436 -47.480511 
L 224.941316 -47.480511 
L 224.433197 -47.480511 
L 223.925077 -47.480511 
L 223.416958 -47.480511 
L 222.908838 -47.480511 
L 222.400719 -47.480511 
L 221.892599 -47.480511 
L 221.384479 -47.480511 
L 220.87636 -47.480511 
L 220.36824 -47.480511 
L 219.860121 -47.480511 
L 219.352001 -47.480511 
L 218.843881 -47.480511 
L 218.335762 -47.480511 
L 217.827642 -47.480511 
L 217.319523 -47.480511 
L 216.811403 -47.480511 
L 216.303283 -47.480511 
L 215.795164 -47.480511 
L 215.287044 -47.480511 
L 214.778925 -47.480511 
L 214.270805 -47.480511 
L 213.762685 -47.480511 
L 213.254566 -47.480511 
L 212.746446 -47.480511 
L 212.238327 -47.480511 
L 211.730207 -47.480511 
L 211.222087 -47.480511 
L 210.713968 -47.480511 
L 210.205848 -47.480511 
L 209.697729 -47.480511 
L 209.189609 -47.480511 
L 208.68149 -47.480511 
L 208.17337 -47.480511 
L 207.66525 -47.480511 
L 207.157131 -47.480511 
L 206.649011 -47.480511 
L 206.140892 -47.480511 
L 205.632772 -47.480511 
L 205.124652 -47.480511 
L 204.616533 -47.480511 
L 204.108413 -47.480511 
L 203.600294 -47.480511 
L 203.092174 -47.480511 
L 202.584054 -47.480511 
L 202.075935 -47.480511 
L 201.567815 -47.480511 
L 201.059696 -47.480511 
L 200.551576 -47.480511 
L 200.043456 -47.480511 
L 199.535337 -47.480511 
L 199.027217 -47.480511 
L 198.519098 -47.480511 
L 198.010978 -47.480511 
L 197.502858 -47.480511 
L 196.994739 -47.480511 
L 196.486619 -47.480511 
L 195.9785 -47.480511 
L 195.47038 -47.480511 
L 194.96226 -47.480511 
L 194.454141 -47.480511 
L 193.946021 -47.480511 
L 193.437902 -47.480511 
L 192.929782 -47.480511 
L 192.421663 -47.480511 
L 191.913543 -47.480511 
L 191.405423 -47.480511 
L 190.897304 -47.480511 
L 190.389184 -47.480511 
L 189.881065 -47.480511 
L 189.372945 -47.480511 
L 188.864825 -47.480511 
L 188.356706 -47.480511 
L 187.848586 -47.480511 
L 187.340467 -47.480511 
L 186.832347 -47.480511 
L 186.324227 -47.480511 
L 185.816108 -47.480511 
L 185.307988 -47.480511 
L 184.799869 -47.480511 
L 184.291749 -47.480511 
L 183.783629 -47.480511 
L 183.27551 -47.480511 
L 182.76739 -47.480511 
L 182.259271 -47.480511 
L 181.751151 -47.480511 
L 181.243031 -47.480511 
L 180.734912 -47.480511 
L 180.226792 -47.480511 
L 179.718673 -47.480511 
L 179.210553 -47.480511 
L 178.702434 -47.480511 
L 178.194314 -47.480511 
L 177.686194 -47.480511 
L 177.178075 -47.480511 
L 176.669955 -47.480511 
L 176.161836 -47.480511 
L 175.653716 -47.480511 
L 175.145596 -47.480511 
L 174.637477 -47.480511 
L 174.129357 -47.480511 
L 173.621238 -47.480511 
L 173.113118 -47.480511 
L 172.604998 -47.480511 
L 172.096879 -47.480511 
L 171.588759 -47.480511 
L 171.08064 -47.480511 
L 170.57252 -47.480511 
L 170.0644 -47.480511 
L 169.556281 -47.480511 
L 169.048161 -47.480511 
L 168.540042 -47.480511 
L 168.031922 -47.480511 
L 167.523802 -47.480511 
L 167.015683 -47.480511 
L 166.507563 -47.480511 
L 165.999444 -47.480511 
L 165.491324 -47.480511 
L 164.983204 -47.480511 
L 164.475085 -47.480511 
L 163.966965 -47.480511 
L 163.458846 -47.480511 
L 162.950726 -47.480511 
L 162.442607 -47.480511 
L 161.934487 -47.480511 
L 161.426367 -47.480511 
L 160.918248 -47.480511 
L 160.410128 -47.480511 
L 159.902009 -47.480511 
L 159.393889 -47.480511 
L 158.885769 -47.480511 
L 158.37765 -47.480511 
L 157.86953 -47.480511 
L 157.361411 -47.480511 
L 156.853291 -47.480511 
L 156.345171 -47.480511 
L 155.837052 -47.480511 
L 155.328932 -47.480511 
L 154.820813 -47.480511 
L 154.312693 -47.480511 
L 153.804573 -47.480511 
L 153.296454 -47.480511 
L 152.788334 -47.480511 
L 152.280215 -47.480511 
L 151.772095 -47.480511 
L 151.263975 -47.480511 
L 150.755856 -47.480511 
L 150.247736 -47.480511 
L 149.739617 -47.480511 
L 149.231497 -47.480511 
L 148.723378 -47.480511 
L 148.215258 -47.480511 
L 147.707138 -47.480511 
L 147.199019 -47.480511 
L 146.690899 -47.480511 
L 146.18278 -47.480511 
L 145.67466 -47.480511 
L 145.16654 -47.480511 
L 144.658421 -47.480511 
L 144.150301 -47.480511 
L 143.642182 -47.480511 
L 143.134062 -47.480511 
L 142.625942 -47.480511 
L 142.117823 -47.480511 
L 141.609703 -47.480511 
L 141.101584 -47.480511 
L 140.593464 -47.480511 
L 140.085344 -47.480511 
L 139.577225 -47.480511 
L 139.069105 -47.480511 
L 138.560986 -47.480511 
L 138.052866 -47.480511 
L 137.544746 -47.480511 
L 137.036627 -47.480511 
L 136.528507 -47.480511 
L 136.020388 -47.480511 
L 135.512268 -47.480511 
L 135.004148 -47.480511 
L 134.496029 -47.480511 
L 133.987909 -47.480511 
L 133.47979 -47.480511 
L 132.97167 -47.480511 
L 132.463551 -47.480511 
L 131.955431 -47.480511 
L 131.447311 -47.480511 
L 130.939192 -47.480511 
L 130.431072 -47.480511 
L 129.922953 -47.480511 
L 129.414833 -47.480511 
L 128.906713 -47.480511 
L 128.398594 -47.480511 
L 127.890474 -47.480511 
L 127.382355 -47.480511 
L 126.874235 -47.480511 
L 126.366115 -47.480511 
L 125.857996 -47.480511 
L 125.349876 -47.480511 
L 124.841757 -47.480511 
L 124.333637 -47.480511 
L 123.825517 -47.480511 
L 123.317398 -47.480511 
L 122.809278 -47.480511 
L 122.301159 -47.480511 
L 121.793039 -47.480511 
L 121.284919 -47.480511 
L 120.7768 -47.480511 
L 120.26868 -47.480511 
L 119.760561 -47.480511 
L 119.252441 -47.480511 
L 118.744322 -47.480511 
L 118.236202 -47.480511 
L 117.728082 -47.480511 
L 117.219963 -47.480511 
L 116.711843 -47.480511 
L 116.203724 -47.480511 
L 115.695604 -47.480511 
L 115.187484 -47.480511 
L 114.679365 -47.480511 
L 114.171245 -47.480511 
L 113.663126 -47.480511 
L 113.155006 -47.480511 
L 112.646886 -47.480511 
L 112.138767 -47.480511 
L 111.630647 -47.480511 
L 111.122528 -47.480511 
L 110.614408 -47.480511 
L 110.106288 -47.480511 
L 109.598169 -47.480511 
L 109.090049 -47.480511 
L 108.58193 -47.480511 
L 108.07381 -47.480511 
L 107.56569 -47.480511 
L 107.057571 -47.480511 
L 106.549451 -47.480511 
L 106.041332 -47.480511 
L 105.533212 -47.480511 
L 105.025092 -47.480511 
L 104.516973 -47.480511 
L 104.008853 -47.480511 
L 103.500734 -47.480511 
L 102.992614 -47.480511 
L 102.484495 -47.480511 
L 101.976375 -47.480511 
L 101.468255 -47.480511 
L 100.960136 -47.480511 
L 100.452016 -47.480511 
L 99.943897 -47.480511 
L 99.435777 -47.480511 
L 98.927657 -47.480511 
L 98.419538 -47.480511 
L 97.911418 -47.480511 
L 97.403299 -47.480511 
L 96.895179 -47.480511 
L 96.387059 -47.480511 
L 95.87894 -47.480511 
L 95.37082 -47.480511 
L 94.862701 -47.480511 
L 94.354581 -47.480511 
L 93.846461 -47.480511 
L 93.338342 -47.480511 
L 92.830222 -47.480511 
L 92.322103 -47.480511 
L 91.813983 -47.480511 
L 91.305863 -47.480511 
L 90.797744 -47.480511 
L 90.289624 -47.480511 
L 89.781505 -47.480511 
L 89.273385 -47.480511 
L 88.765265 -47.480511 
L 88.257146 -47.480511 
L 87.749026 -47.480511 
L 87.240907 -47.480511 
L 86.732787 -47.480511 
L 86.224668 -47.480511 
L 85.716548 -47.480511 
L 85.208428 -47.480511 
L 84.700309 -47.480511 
L 84.192189 -47.480511 
L 83.68407 -47.480511 
L 83.17595 -47.480511 
L 82.66783 -47.480511 
L 82.159711 -47.480511 
L 81.651591 -47.480511 
L 81.143472 -47.480511 
L 80.635352 -47.480511 
L 80.127232 -47.480511 
L 79.619113 -47.480511 
L 79.110993 -47.480511 
L 78.602874 -47.480511 
L 78.094754 -47.480511 
L 77.586634 -47.480511 
L 77.078515 -47.480511 
L 76.570395 -47.480511 
L 76.062276 -47.480511 
L 75.554156 -47.480511 
L 75.046036 -47.480511 
L 74.537917 -47.480511 
L 74.029797 -47.480511 
L 73.521678 -47.480511 
L 73.013558 -47.480511 
L 72.505439 -47.480511 
L 71.997319 -47.480511 
L 71.489199 -47.480511 
L 70.98108 -47.480511 
L 70.47296 -47.480511 
L 69.964841 -47.480511 
L 69.456721 -47.480511 
L 68.948601 -47.480511 
L 68.440482 -47.480511 
L 67.932362 -47.480511 
L 67.424243 -47.480511 
L 66.916123 -47.480511 
L 66.408003 -47.480511 
L 65.899884 -47.480511 
L 65.391764 -47.480511 
L 64.883645 -47.480511 
L 64.375525 -47.480511 
L 63.867405 -47.480511 
L 63.359286 -47.480511 
L 62.851166 -47.480511 
L 62.343047 -47.480511 
L 61.834927 -47.480511 
L 61.326807 -47.480511 
L 60.818688 -47.480511 
L 60.310568 -47.480511 
L 59.802449 -47.480511 
L 59.294329 -47.480511 
L 58.786209 -47.480511 
L 58.27809 -47.480511 
L 57.76997 -47.480511 
L 57.261851 -47.480511 
L 56.753731 -47.480511 
L 56.245612 -47.480511 
L 55.737492 -47.480511 
L 55.229372 -47.480511 
L 54.721253 -47.480511 
L 54.213133 -47.480511 
L 53.705014 -47.480511 
L 53.196894 -47.480511 
L 52.688774 -47.480511 
L 52.180655 -47.480511 
L 51.672535 -47.480511 
L 51.164416 -47.480511 
L 50.656296 -47.480511 
L 50.148176 -47.480511 
L 49.640057 -47.480511 
z
" id="mc4ea8f0e70" style="stroke:#808080;stroke-opacity:0.4;stroke-width:0.24;"/>
    </defs>
    <g clip-path="url(#p617e745f89)">
     <use style="fill:#808080;fill-opacity:0.4;stroke:#808080;stroke-opacity:0.4;stroke-width:0.24;" x="0" xlink:href="#mc4ea8f0e70" y="275.685875"/>
    </g>
   </g>
   <g id="matplotlib.axis_1">
    <g id="xtick_1">
     <g id="line2d_1">
      <path clip-path="url(#p617e745f89)" d="M 49.640057 238.089 
L 49.640057 20.649 
" style="fill:none;stroke:#b0b0b0;stroke-linecap:square;stroke-width:0.8;"/>
     </g>
     <g id="line2d_2">
      <defs>
       <path d="M 0 0 
L 0 3.5 
" id="mc0faafa821" style="stroke:#808080;stroke-width:0.8;"/>
      </defs>
      <g>
       <use style="fill:#808080;stroke:#808080;stroke-width:0.8;" x="49.640057" xlink:href="#mc0faafa821" y="238.089"/>
      </g>
     </g>
     <g id="text_1">
      <!-- 0 -->
      <defs>
       <path d="M 5 34.703125 
Q 5 52.09375 11.140625 61.5 
Q 17.296875 70.90625 28.203125 70.90625 
Q 39.09375 70.90625 45.25 61.5 
Q 51.40625 52.09375 51.40625 34.703125 
Q 51.40625 17.296875 45.25 7.890625 
Q 39.09375 -1.5 28.203125 -1.5 
Q 17.296875 -1.5 11.140625 7.890625 
Q 5 17.296875 5 34.703125 
z
M 41.59375 34.703125 
Q 41.59375 40.40625 40.9375 45.5 
Q 40.296875 50.59375 38.75 54.390625 
Q 37.203125 58.203125 34.59375 60.453125 
Q 32 62.703125 28.203125 62.703125 
Q 24.40625 62.703125 21.796875 60.453125 
Q 19.203125 58.203125 17.640625 54.390625 
Q 16.09375 50.59375 15.4375 45.5 
Q 14.796875 40.40625 14.796875 34.703125 
Q 14.796875 29 15.4375 23.890625 
Q 16.09375 18.796875 17.640625 15 
Q 19.203125 11.203125 21.796875 8.953125 
Q 24.40625 6.703125 28.203125 6.703125 
Q 32 6.703125 34.59375 8.953125 
Q 37.203125 11.203125 38.75 15 
Q 40.296875 18.796875 40.9375 23.890625 
Q 41.59375 29 41.59375 34.703125 
z
" id="Ubuntu-48"/>
      </defs>
      <g transform="translate(47.383807 253.3965)scale(0.08 -0.08)">
       <use xlink:href="#Ubuntu-48"/>
      </g>
     </g>
    </g>
    <g id="xtick_2">
     <g id="line2d_3">
      <path clip-path="url(#p617e745f89)" d="M 100.36733 238.089 
L 100.36733 20.649 
" style="fill:none;stroke:#b0b0b0;stroke-linecap:square;stroke-width:0.8;"/>
     </g>
     <g id="line2d_4">
      <g>
       <use style="fill:#808080;stroke:#808080;stroke-width:0.8;" x="100.36733" xlink:href="#mc0faafa821" y="238.089"/>
      </g>
     </g>
     <g id="text_2">
      <!-- 1 -->
      <defs>
       <path d="M 9.296875 55 
Q 15 57.203125 20.390625 60.640625 
Q 25.796875 64.09375 30.296875 69.296875 
L 36.90625 69.296875 
L 36.90625 0 
L 27.59375 0 
L 27.59375 56.40625 
Q 26.40625 55.296875 24.65625 54.09375 
Q 22.90625 52.90625 20.84375 51.796875 
Q 18.796875 50.703125 16.546875 49.703125 
Q 14.296875 48.703125 12.203125 48 
z
" id="Ubuntu-49"/>
      </defs>
      <g transform="translate(98.11108 253.3965)scale(0.08 -0.08)">
       <use xlink:href="#Ubuntu-49"/>
      </g>
     </g>
    </g>
    <g id="xtick_3">
     <g id="line2d_5">
      <path clip-path="url(#p617e745f89)" d="M 151.094602 238.089 
L 151.094602 20.649 
" style="fill:none;stroke:#b0b0b0;stroke-linecap:square;stroke-width:0.8;"/>
     </g>
     <g id="line2d_6">
      <g>
       <use style="fill:#808080;stroke:#808080;stroke-width:0.8;" x="151.094602" xlink:href="#mc0faafa821" y="238.089"/>
      </g>
     </g>
     <g id="text_3">
      <!-- 2 -->
      <defs>
       <path d="M 46.703125 51.59375 
Q 46.703125 48 45.25 44.640625 
Q 43.796875 41.296875 41.390625 38.046875 
Q 39 34.796875 36 31.640625 
Q 33 28.5 30 25.5 
Q 28.296875 23.796875 26.046875 21.5 
Q 23.796875 19.203125 21.796875 16.703125 
Q 19.796875 14.203125 18.4375 11.890625 
Q 17.09375 9.59375 17.09375 7.90625 
L 49 7.90625 
L 49 0 
L 7 0 
Q 6.90625 0.59375 6.90625 1.1875 
Q 6.90625 1.796875 6.90625 2.296875 
Q 6.90625 7 8.453125 11.046875 
Q 10 15.09375 12.5 18.6875 
Q 15 22.296875 18.09375 25.5 
Q 21.203125 28.703125 24.203125 31.703125 
Q 26.703125 34.09375 28.953125 36.4375 
Q 31.203125 38.796875 32.953125 41.140625 
Q 34.703125 43.5 35.75 46 
Q 36.796875 48.5 36.796875 51.296875 
Q 36.796875 54.296875 35.84375 56.390625 
Q 34.90625 58.5 33.296875 59.890625 
Q 31.703125 61.296875 29.546875 61.9375 
Q 27.40625 62.59375 25 62.59375 
Q 22.09375 62.59375 19.6875 61.796875 
Q 17.296875 61 15.390625 59.953125 
Q 13.5 58.90625 12.203125 57.75 
Q 10.90625 56.59375 10.203125 56 
L 5.59375 62.59375 
Q 6.5 63.59375 8.296875 65.046875 
Q 10.09375 66.5 12.59375 67.796875 
Q 15.09375 69.09375 18.1875 70 
Q 21.296875 70.90625 24.90625 70.90625 
Q 35.796875 70.90625 41.25 65.84375 
Q 46.703125 60.796875 46.703125 51.59375 
z
" id="Ubuntu-50"/>
      </defs>
      <g transform="translate(148.838352 253.3965)scale(0.08 -0.08)">
       <use xlink:href="#Ubuntu-50"/>
      </g>
     </g>
    </g>
    <g id="xtick_4">
     <g id="line2d_7">
      <path clip-path="url(#p617e745f89)" d="M 201.821875 238.089 
L 201.821875 20.649 
" style="fill:none;stroke:#b0b0b0;stroke-linecap:square;stroke-width:0.8;"/>
     </g>
     <g id="line2d_8">
      <g>
       <use style="fill:#808080;stroke:#808080;stroke-width:0.8;" x="201.821875" xlink:href="#mc0faafa821" y="238.089"/>
      </g>
     </g>
     <g id="text_4">
      <!-- 3 -->
      <defs>
       <path d="M 22.59375 6.796875 
Q 31.5 6.796875 35.34375 10.296875 
Q 39.203125 13.796875 39.203125 19.703125 
Q 39.203125 23.5 37.59375 26.09375 
Q 36 28.703125 33.390625 30.25 
Q 30.796875 31.796875 27.34375 32.4375 
Q 23.90625 33.09375 20.296875 33.09375 
L 17.90625 33.09375 
L 17.90625 40.703125 
L 21.203125 40.703125 
Q 23.703125 40.703125 26.34375 41.203125 
Q 29 41.703125 31.203125 43 
Q 33.40625 44.296875 34.796875 46.546875 
Q 36.203125 48.796875 36.203125 52.203125 
Q 36.203125 55 35.203125 57 
Q 34.203125 59 32.546875 60.296875 
Q 30.90625 61.59375 28.75 62.140625 
Q 26.59375 62.703125 24.203125 62.703125 
Q 19.40625 62.703125 16.046875 61.296875 
Q 12.703125 59.90625 10.40625 58.40625 
L 6.796875 65.5 
Q 8 66.296875 9.84375 67.25 
Q 11.703125 68.203125 14 69 
Q 16.296875 69.796875 18.9375 70.34375 
Q 21.59375 70.90625 24.5 70.90625 
Q 30 70.90625 34 69.546875 
Q 38 68.203125 40.59375 65.75 
Q 43.203125 63.296875 44.5 59.9375 
Q 45.796875 56.59375 45.796875 52.703125 
Q 45.796875 47.296875 42.6875 43.4375 
Q 39.59375 39.59375 35.203125 37.59375 
Q 37.90625 36.796875 40.40625 35.296875 
Q 42.90625 33.796875 44.75 31.5 
Q 46.59375 29.203125 47.75 26.203125 
Q 48.90625 23.203125 48.90625 19.5 
Q 48.90625 15 47.34375 11.140625 
Q 45.796875 7.296875 42.546875 4.5 
Q 39.296875 1.703125 34.390625 0.09375 
Q 29.5 -1.5 22.796875 -1.5 
Q 20.203125 -1.5 17.453125 -1.09375 
Q 14.703125 -0.703125 12.296875 -0.09375 
Q 9.90625 0.5 8.09375 1.09375 
Q 6.296875 1.703125 5.5 2.09375 
L 7.296875 10.203125 
Q 9 9.40625 12.953125 8.09375 
Q 16.90625 6.796875 22.59375 6.796875 
z
" id="Ubuntu-51"/>
      </defs>
      <g transform="translate(199.565625 253.3965)scale(0.08 -0.08)">
       <use xlink:href="#Ubuntu-51"/>
      </g>
     </g>
    </g>
    <g id="xtick_5">
     <g id="line2d_9">
      <path clip-path="url(#p617e745f89)" d="M 252.549148 238.089 
L 252.549148 20.649 
" style="fill:none;stroke:#b0b0b0;stroke-linecap:square;stroke-width:0.8;"/>
     </g>
     <g id="line2d_10">
      <g>
       <use style="fill:#808080;stroke:#808080;stroke-width:0.8;" x="252.549148" xlink:href="#mc0faafa821" y="238.089"/>
      </g>
     </g>
     <g id="text_5">
      <!-- 4 -->
      <defs>
       <path d="M 4 24 
Q 5.90625 28.40625 9.203125 34.25 
Q 12.5 40.09375 16.640625 46.296875 
Q 20.796875 52.5 25.546875 58.5 
Q 30.296875 64.5 35.09375 69.296875 
L 44 69.296875 
L 44 25.296875 
L 52.203125 25.296875 
L 52.203125 17.703125 
L 44 17.703125 
L 44 0 
L 35 0 
L 35 17.703125 
L 4 17.703125 
z
M 35 58.296875 
Q 32 55.09375 28.953125 51.140625 
Q 25.90625 47.203125 23 42.890625 
Q 20.09375 38.59375 17.546875 34.09375 
Q 15 29.59375 13 25.296875 
L 35 25.296875 
z
" id="Ubuntu-52"/>
      </defs>
      <g transform="translate(250.292898 253.3965)scale(0.08 -0.08)">
       <use xlink:href="#Ubuntu-52"/>
      </g>
     </g>
    </g>
    <g id="xtick_6">
     <g id="line2d_11">
      <path clip-path="url(#p617e745f89)" d="M 303.27642 238.089 
L 303.27642 20.649 
" style="fill:none;stroke:#b0b0b0;stroke-linecap:square;stroke-width:0.8;"/>
     </g>
     <g id="line2d_12">
      <g>
       <use style="fill:#808080;stroke:#808080;stroke-width:0.8;" x="303.27642" xlink:href="#mc0faafa821" y="238.089"/>
      </g>
     </g>
     <g id="text_6">
      <!-- 5 -->
      <defs>
       <path d="M 19.90625 42.59375 
Q 35 42 42.046875 36 
Q 49.09375 30 49.09375 19.703125 
Q 49.09375 15.09375 47.546875 11.1875 
Q 46 7.296875 42.84375 4.5 
Q 39.703125 1.703125 34.890625 0.09375 
Q 30.09375 -1.5 23.5 -1.5 
Q 20.90625 -1.5 18.203125 -1.09375 
Q 15.5 -0.703125 13.203125 -0.09375 
Q 10.90625 0.5 9.09375 1.09375 
Q 7.296875 1.703125 6.5 2.09375 
L 8.296875 10.203125 
Q 10 9.40625 13.84375 8.09375 
Q 17.703125 6.796875 23.296875 6.796875 
Q 27.796875 6.796875 30.84375 7.796875 
Q 33.90625 8.796875 35.796875 10.5 
Q 37.703125 12.203125 38.546875 14.453125 
Q 39.40625 16.703125 39.40625 19.203125 
Q 39.40625 23 38.09375 25.953125 
Q 36.796875 28.90625 33.5 30.90625 
Q 30.203125 32.90625 24.703125 33.953125 
Q 19.203125 35 10.796875 35 
Q 11.40625 39.90625 11.75 44.203125 
Q 12.09375 48.5 12.390625 52.59375 
Q 12.703125 56.703125 12.890625 60.75 
Q 13.09375 64.796875 13.296875 69.296875 
L 46.703125 69.296875 
L 46.703125 61.40625 
L 21.40625 61.40625 
Q 21.296875 59.90625 21.09375 57.34375 
Q 20.90625 54.796875 20.703125 52.046875 
Q 20.5 49.296875 20.296875 46.6875 
Q 20.09375 44.09375 19.90625 42.59375 
z
" id="Ubuntu-53"/>
      </defs>
      <g transform="translate(301.02017 253.3965)scale(0.08 -0.08)">
       <use xlink:href="#Ubuntu-53"/>
      </g>
     </g>
    </g>
    <g id="xtick_7">
     <g id="line2d_13">
      <path clip-path="url(#p617e745f89)" d="M 354.003693 238.089 
L 354.003693 20.649 
" style="fill:none;stroke:#b0b0b0;stroke-linecap:square;stroke-width:0.8;"/>
     </g>
     <g id="line2d_14">
      <g>
       <use style="fill:#808080;stroke:#808080;stroke-width:0.8;" x="354.003693" xlink:href="#mc0faafa821" y="238.089"/>
      </g>
     </g>
     <g id="text_7">
      <!-- 6 -->
      <defs>
       <path d="M 6.296875 27.796875 
Q 6.296875 37.90625 9.09375 45.65625 
Q 11.90625 53.40625 17.046875 58.703125 
Q 22.203125 64 29.546875 66.75 
Q 36.90625 69.5 46.09375 69.59375 
L 46.796875 61.796875 
Q 40.90625 61.703125 36.046875 60.5 
Q 31.203125 59.296875 27.390625 56.6875 
Q 23.59375 54.09375 21 49.9375 
Q 18.40625 45.796875 17.09375 39.703125 
Q 19.703125 40.90625 22.953125 41.703125 
Q 26.203125 42.5 29.703125 42.5 
Q 35.59375 42.5 39.6875 40.703125 
Q 43.796875 38.90625 46.390625 35.953125 
Q 49 33 50.140625 29.140625 
Q 51.296875 25.296875 51.296875 21.09375 
Q 51.296875 17.296875 50 13.296875 
Q 48.703125 9.296875 46.046875 6 
Q 43.40625 2.703125 39.296875 0.59375 
Q 35.203125 -1.5 29.59375 -1.5 
Q 18.203125 -1.5 12.25 6.296875 
Q 6.296875 14.09375 6.296875 27.796875 
z
M 28.703125 34.90625 
Q 25.203125 34.90625 22.203125 34.25 
Q 19.203125 33.59375 16.203125 32.296875 
Q 16.09375 31.203125 16.046875 30.046875 
Q 16 28.90625 16 27.796875 
Q 16 23.40625 16.59375 19.5 
Q 17.203125 15.59375 18.75 12.640625 
Q 20.296875 9.703125 22.890625 7.953125 
Q 25.5 6.203125 29.5 6.203125 
Q 32.796875 6.203125 35.09375 7.59375 
Q 37.40625 9 38.90625 11.203125 
Q 40.40625 13.40625 41.046875 15.953125 
Q 41.703125 18.5 41.703125 20.90625 
Q 41.703125 27.703125 38.453125 31.296875 
Q 35.203125 34.90625 28.703125 34.90625 
z
" id="Ubuntu-54"/>
      </defs>
      <g transform="translate(351.747443 253.3965)scale(0.08 -0.08)">
       <use xlink:href="#Ubuntu-54"/>
      </g>
     </g>
    </g>
    <g id="text_8">
     <!-- X -->
     <defs>
      <path d="M 50.203125 0 
Q 48.703125 3 46.59375 6.640625 
Q 44.5 10.296875 42 14.25 
Q 39.5 18.203125 36.796875 22.140625 
Q 34.09375 26.09375 31.59375 29.59375 
Q 29.09375 26.09375 26.390625 22.140625 
Q 23.703125 18.203125 21.25 14.25 
Q 18.796875 10.296875 16.640625 6.640625 
Q 14.5 3 13 0 
L 2.296875 0 
Q 6.796875 8.796875 12.75 17.890625 
Q 18.703125 27 25.40625 36.59375 
L 3.203125 69.296875 
L 14.40625 69.296875 
L 31.5 43.5 
L 48.40625 69.296875 
L 59.5 69.296875 
L 37.703125 37 
Q 44.5 27.296875 50.5 18.09375 
Q 56.5 8.90625 61.09375 0 
z
" id="Ubuntu-88"/>
     </defs>
     <g transform="translate(198.667188 266.635875)scale(0.1 -0.1)">
      <use xlink:href="#Ubuntu-88"/>
     </g>
    </g>
   </g>
   <g id="matplotlib.axis_2">
    <g id="ytick_1">
     <g id="line2d_15">
      <path clip-path="url(#p617e745f89)" d="M 34.421875 204.765419 
L 369.221875 204.765419 
" style="fill:none;stroke:#b0b0b0;stroke-linecap:square;stroke-width:0.8;"/>
     </g>
     <g id="line2d_16">
      <defs>
       <path d="M 0 0 
L -3.5 0 
" id="m9b31e6613c" style="stroke:#808080;stroke-width:0.8;"/>
      </defs>
      <g>
       <use style="fill:#808080;stroke:#808080;stroke-width:0.8;" x="34.421875" xlink:href="#m9b31e6613c" y="204.765419"/>
      </g>
     </g>
     <g id="text_9">
      <!-- 0 -->
      <g transform="translate(20.809375 207.869169)scale(0.08 -0.08)">
       <use xlink:href="#Ubuntu-48"/>
      </g>
     </g>
    </g>
    <g id="ytick_2">
     <g id="line2d_17">
      <path clip-path="url(#p617e745f89)" d="M 34.421875 162.147338 
L 369.221875 162.147338 
" style="fill:none;stroke:#b0b0b0;stroke-linecap:square;stroke-width:0.8;"/>
     </g>
     <g id="line2d_18">
      <g>
       <use style="fill:#808080;stroke:#808080;stroke-width:0.8;" x="34.421875" xlink:href="#m9b31e6613c" y="162.147338"/>
      </g>
     </g>
     <g id="text_10">
      <!-- 2 -->
      <g transform="translate(20.809375 165.251088)scale(0.08 -0.08)">
       <use xlink:href="#Ubuntu-50"/>
      </g>
     </g>
    </g>
    <g id="ytick_3">
     <g id="line2d_19">
      <path clip-path="url(#p617e745f89)" d="M 34.421875 119.529257 
L 369.221875 119.529257 
" style="fill:none;stroke:#b0b0b0;stroke-linecap:square;stroke-width:0.8;"/>
     </g>
     <g id="line2d_20">
      <g>
       <use style="fill:#808080;stroke:#808080;stroke-width:0.8;" x="34.421875" xlink:href="#m9b31e6613c" y="119.529257"/>
      </g>
     </g>
     <g id="text_11">
      <!-- 4 -->
      <g transform="translate(20.809375 122.633007)scale(0.08 -0.08)">
       <use xlink:href="#Ubuntu-52"/>
      </g>
     </g>
    </g>
    <g id="ytick_4">
     <g id="line2d_21">
      <path clip-path="url(#p617e745f89)" d="M 34.421875 76.911175 
L 369.221875 76.911175 
" style="fill:none;stroke:#b0b0b0;stroke-linecap:square;stroke-width:0.8;"/>
     </g>
     <g id="line2d_22">
      <g>
       <use style="fill:#808080;stroke:#808080;stroke-width:0.8;" x="34.421875" xlink:href="#m9b31e6613c" y="76.911175"/>
      </g>
     </g>
     <g id="text_12">
      <!-- 6 -->
      <g transform="translate(20.809375 80.014925)scale(0.08 -0.08)">
       <use xlink:href="#Ubuntu-54"/>
      </g>
     </g>
    </g>
    <g id="ytick_5">
     <g id="line2d_23">
      <path clip-path="url(#p617e745f89)" d="M 34.421875 34.293094 
L 369.221875 34.293094 
" style="fill:none;stroke:#b0b0b0;stroke-linecap:square;stroke-width:0.8;"/>
     </g>
     <g id="line2d_24">
      <g>
       <use style="fill:#808080;stroke:#808080;stroke-width:0.8;" x="34.421875" xlink:href="#m9b31e6613c" y="34.293094"/>
      </g>
     </g>
     <g id="text_13">
      <!-- 8 -->
      <defs>
       <path d="M 50.90625 18 
Q 50.90625 13.796875 49.453125 10.25 
Q 48 6.703125 45.140625 4.046875 
Q 42.296875 1.40625 38 -0.046875 
Q 33.703125 -1.5 28.09375 -1.5 
Q 21.59375 -1.5 17.25 0.34375 
Q 12.90625 2.203125 10.296875 5 
Q 7.703125 7.796875 6.59375 11.140625 
Q 5.5 14.5 5.5 17.5 
Q 5.5 20.40625 6.453125 23.046875 
Q 7.40625 25.703125 8.953125 28 
Q 10.5 30.296875 12.546875 32.140625 
Q 14.59375 34 16.90625 35.40625 
Q 7.09375 41 7.09375 51.90625 
Q 7.09375 55.703125 8.59375 59.140625 
Q 10.09375 62.59375 12.84375 65.1875 
Q 15.59375 67.796875 19.5 69.34375 
Q 23.40625 70.90625 28.203125 70.90625 
Q 33.796875 70.90625 37.796875 69.203125 
Q 41.796875 67.5 44.34375 64.84375 
Q 46.90625 62.203125 48.046875 59 
Q 49.203125 55.796875 49.203125 52.796875 
Q 49.203125 49.90625 48.34375 47.34375 
Q 47.5 44.796875 46.046875 42.59375 
Q 44.59375 40.40625 42.75 38.703125 
Q 40.90625 37 38.90625 35.703125 
Q 50.703125 30.09375 50.90625 18 
z
M 14.90625 17.40625 
Q 14.90625 15.59375 15.546875 13.640625 
Q 16.203125 11.703125 17.796875 10.046875 
Q 19.40625 8.40625 21.90625 7.296875 
Q 24.40625 6.203125 28.203125 6.203125 
Q 31.59375 6.203125 34.140625 7.203125 
Q 36.703125 8.203125 38.296875 9.75 
Q 39.90625 11.296875 40.703125 13.296875 
Q 41.5 15.296875 41.5 17.40625 
Q 41.5 20.59375 40.296875 23 
Q 39.09375 25.40625 36.84375 27.203125 
Q 34.59375 29 31.4375 30.25 
Q 28.296875 31.5 24.296875 32.40625 
Q 19.796875 29.90625 17.34375 26.203125 
Q 14.90625 22.5 14.90625 17.40625 
z
M 39.90625 52.90625 
Q 39.90625 54.40625 39.25 56.203125 
Q 38.59375 58 37.1875 59.546875 
Q 35.796875 61.09375 33.59375 62.140625 
Q 31.40625 63.203125 28.203125 63.203125 
Q 25 63.203125 22.75 62.203125 
Q 20.5 61.203125 19.09375 59.640625 
Q 17.703125 58.09375 17.046875 56.25 
Q 16.40625 54.40625 16.40625 52.59375 
Q 16.40625 50.40625 17.203125 48.203125 
Q 18 46 19.703125 44.09375 
Q 21.40625 42.203125 24.15625 40.703125 
Q 26.90625 39.203125 30.703125 38.296875 
Q 34.90625 40.796875 37.40625 44.140625 
Q 39.90625 47.5 39.90625 52.90625 
z
" id="Ubuntu-56"/>
      </defs>
      <g transform="translate(20.809375 37.396844)scale(0.08 -0.08)">
       <use xlink:href="#Ubuntu-56"/>
      </g>
     </g>
    </g>
    <g id="text_14">
     <!-- Gold content -->
     <defs>
      <path d="M 50.90625 34.09375 
L 60.59375 34.09375 
L 60.59375 1.703125 
Q 59.40625 1.296875 57.15625 0.796875 
Q 54.90625 0.296875 51.953125 -0.203125 
Q 49 -0.703125 45.5 -1.046875 
Q 42 -1.40625 38.40625 -1.40625 
Q 31.09375 -1.40625 25.09375 1 
Q 19.09375 3.40625 14.796875 8 
Q 10.5 12.59375 8.140625 19.296875 
Q 5.796875 26 5.796875 34.703125 
Q 5.796875 43.40625 8.4375 50.15625 
Q 11.09375 56.90625 15.59375 61.5 
Q 20.09375 66.09375 26.140625 68.5 
Q 32.203125 70.90625 39.09375 70.90625 
Q 43.796875 70.90625 47.4375 70.296875 
Q 51.09375 69.703125 53.6875 68.890625 
Q 56.296875 68.09375 57.9375 67.296875 
Q 59.59375 66.5 60.203125 66.09375 
L 57.09375 58 
Q 54.203125 59.90625 49.390625 61.15625 
Q 44.59375 62.40625 39.59375 62.40625 
Q 34.296875 62.40625 29.9375 60.5 
Q 25.59375 58.59375 22.546875 55 
Q 19.5 51.40625 17.796875 46.25 
Q 16.09375 41.09375 16.09375 34.703125 
Q 16.09375 28.5 17.546875 23.390625 
Q 19 18.296875 21.953125 14.640625 
Q 24.90625 11 29.25 9 
Q 33.59375 7 39.5 7 
Q 43.703125 7 46.640625 7.453125 
Q 49.59375 7.90625 50.90625 8.296875 
z
" id="Ubuntu-71"/>
      <path d="M 53.90625 26 
Q 53.90625 19.796875 52.09375 14.796875 
Q 50.296875 9.796875 47.046875 6.1875 
Q 43.796875 2.59375 39.296875 0.640625 
Q 34.796875 -1.296875 29.5 -1.296875 
Q 24.203125 -1.296875 19.703125 0.640625 
Q 15.203125 2.59375 11.953125 6.1875 
Q 8.703125 9.796875 6.890625 14.796875 
Q 5.09375 19.796875 5.09375 26 
Q 5.09375 32.09375 6.890625 37.140625 
Q 8.703125 42.203125 11.953125 45.796875 
Q 15.203125 49.40625 19.703125 51.34375 
Q 24.203125 53.296875 29.5 53.296875 
Q 34.796875 53.296875 39.296875 51.34375 
Q 43.796875 49.40625 47.046875 45.796875 
Q 50.296875 42.203125 52.09375 37.140625 
Q 53.90625 32.09375 53.90625 26 
z
M 44.203125 26 
Q 44.203125 34.796875 40.25 39.9375 
Q 36.296875 45.09375 29.5 45.09375 
Q 22.703125 45.09375 18.75 39.9375 
Q 14.796875 34.796875 14.796875 26 
Q 14.796875 17.203125 18.75 12.046875 
Q 22.703125 6.90625 29.5 6.90625 
Q 36.296875 6.90625 40.25 12.046875 
Q 44.203125 17.203125 44.203125 26 
z
" id="Ubuntu-111"/>
      <path d="M 23.59375 -1 
Q 15 -0.796875 11.390625 2.703125 
Q 7.796875 6.203125 7.796875 13.59375 
L 7.796875 76 
L 17.09375 77.59375 
L 17.09375 15.09375 
Q 17.09375 12.796875 17.5 11.296875 
Q 17.90625 9.796875 18.796875 8.890625 
Q 19.703125 8 21.203125 7.546875 
Q 22.703125 7.09375 24.90625 6.796875 
z
" id="Ubuntu-108"/>
      <path d="M 41.59375 41 
Q 39.90625 42.40625 36.703125 43.703125 
Q 33.5 45 29.703125 45 
Q 25.703125 45 22.84375 43.546875 
Q 20 42.09375 18.203125 39.546875 
Q 16.40625 37 15.59375 33.5 
Q 14.796875 30 14.796875 26 
Q 14.796875 16.90625 19.296875 11.953125 
Q 23.796875 7 31.296875 7 
Q 35.09375 7 37.640625 7.34375 
Q 40.203125 7.703125 41.59375 8.09375 
z
M 41.59375 76 
L 50.90625 77.59375 
L 50.90625 1.5 
Q 47.703125 0.59375 42.703125 -0.296875 
Q 37.703125 -1.203125 31.203125 -1.203125 
Q 25.203125 -1.203125 20.390625 0.6875 
Q 15.59375 2.59375 12.1875 6.09375 
Q 8.796875 9.59375 6.9375 14.640625 
Q 5.09375 19.703125 5.09375 26 
Q 5.09375 32 6.640625 37 
Q 8.203125 42 11.203125 45.59375 
Q 14.203125 49.203125 18.546875 51.203125 
Q 22.90625 53.203125 28.5 53.203125 
Q 33 53.203125 36.453125 52 
Q 39.90625 50.796875 41.59375 49.703125 
z
" id="Ubuntu-100"/>
      <path id="Ubuntu-32"/>
      <path d="M 30.59375 -1.203125 
Q 24.296875 -1.203125 19.546875 0.796875 
Q 14.796875 2.796875 11.546875 6.390625 
Q 8.296875 10 6.6875 14.953125 
Q 5.09375 19.90625 5.09375 25.90625 
Q 5.09375 31.90625 6.84375 36.90625 
Q 8.59375 41.90625 11.796875 45.546875 
Q 15 49.203125 19.640625 51.25 
Q 24.296875 53.296875 30 53.296875 
Q 33.5 53.296875 37 52.6875 
Q 40.5 52.09375 43.703125 50.796875 
L 41.59375 42.90625 
Q 39.5 43.90625 36.75 44.5 
Q 34 45.09375 30.90625 45.09375 
Q 23.09375 45.09375 18.9375 40.1875 
Q 14.796875 35.296875 14.796875 25.90625 
Q 14.796875 21.703125 15.75 18.203125 
Q 16.703125 14.703125 18.75 12.203125 
Q 20.796875 9.703125 24 8.34375 
Q 27.203125 7 31.796875 7 
Q 35.5 7 38.5 7.703125 
Q 41.5 8.40625 43.203125 9.203125 
L 44.5 1.40625 
Q 43.703125 0.90625 42.203125 0.453125 
Q 40.703125 0 38.796875 -0.34375 
Q 36.90625 -0.703125 34.75 -0.953125 
Q 32.59375 -1.203125 30.59375 -1.203125 
z
" id="Ubuntu-99"/>
      <path d="M 8 50.5 
Q 11.203125 51.296875 16.5 52.1875 
Q 21.796875 53.09375 28.703125 53.09375 
Q 34.90625 53.09375 39 51.34375 
Q 43.09375 49.59375 45.546875 46.4375 
Q 48 43.296875 49 38.890625 
Q 50 34.5 50 29.203125 
L 50 0 
L 40.703125 0 
L 40.703125 27.203125 
Q 40.703125 32 40.046875 35.390625 
Q 39.40625 38.796875 37.90625 40.890625 
Q 36.40625 43 33.90625 43.953125 
Q 31.40625 44.90625 27.703125 44.90625 
Q 26.203125 44.90625 24.59375 44.796875 
Q 23 44.703125 21.546875 44.546875 
Q 20.09375 44.40625 18.9375 44.203125 
Q 17.796875 44 17.296875 43.90625 
L 17.296875 0 
L 8 0 
z
" id="Ubuntu-110"/>
      <path d="M 16.703125 52 
L 36.40625 52 
L 36.40625 44.203125 
L 16.703125 44.203125 
L 16.703125 20.203125 
Q 16.703125 16.296875 17.296875 13.75 
Q 17.90625 11.203125 19.09375 9.75 
Q 20.296875 8.296875 22.09375 7.6875 
Q 23.90625 7.09375 26.296875 7.09375 
Q 30.5 7.09375 33.046875 8.046875 
Q 35.59375 9 36.59375 9.40625 
L 38.40625 1.703125 
Q 37 1 33.5 -0.046875 
Q 30 -1.09375 25.5 -1.09375 
Q 20.203125 -1.09375 16.75 0.25 
Q 13.296875 1.59375 11.1875 4.296875 
Q 9.09375 7 8.25 10.953125 
Q 7.40625 14.90625 7.40625 20.09375 
L 7.40625 66.5 
L 16.703125 68.09375 
z
" id="Ubuntu-116"/>
      <path d="M 5.09375 25.90625 
Q 5.09375 32.796875 7.09375 37.9375 
Q 9.09375 43.09375 12.390625 46.5 
Q 15.703125 49.90625 20 51.59375 
Q 24.296875 53.296875 28.796875 53.296875 
Q 39.296875 53.296875 44.890625 46.75 
Q 50.5 40.203125 50.5 26.796875 
Q 50.5 26.203125 50.5 25.25 
Q 50.5 24.296875 50.40625 23.5 
L 14.796875 23.5 
Q 15.40625 15.40625 19.5 11.203125 
Q 23.59375 7 32.296875 7 
Q 37.203125 7 40.546875 7.84375 
Q 43.90625 8.703125 45.59375 9.5 
L 46.90625 1.703125 
Q 45.203125 0.796875 40.953125 -0.203125 
Q 36.703125 -1.203125 31.296875 -1.203125 
Q 24.5 -1.203125 19.546875 0.84375 
Q 14.59375 2.90625 11.390625 6.5 
Q 8.203125 10.09375 6.640625 15.046875 
Q 5.09375 20 5.09375 25.90625 
z
M 40.796875 31 
Q 40.90625 37.296875 37.65625 41.34375 
Q 34.40625 45.40625 28.703125 45.40625 
Q 25.5 45.40625 23.046875 44.15625 
Q 20.59375 42.90625 18.890625 40.90625 
Q 17.203125 38.90625 16.25 36.296875 
Q 15.296875 33.703125 15 31 
z
" id="Ubuntu-101"/>
     </defs>
     <g transform="translate(14.959375 158.973687)rotate(-90)scale(0.1 -0.1)">
      <use xlink:href="#Ubuntu-71"/>
      <use x="67.199997" xlink:href="#Ubuntu-111"/>
      <use x="126.199982" xlink:href="#Ubuntu-108"/>
      <use x="153.499969" xlink:href="#Ubuntu-100"/>
      <use x="212.399963" xlink:href="#Ubuntu-32"/>
      <use x="235.499954" xlink:href="#Ubuntu-99"/>
      <use x="281.984314" xlink:href="#Ubuntu-111"/>
      <use x="340.984299" xlink:href="#Ubuntu-110"/>
      <use x="398.384293" xlink:href="#Ubuntu-116"/>
      <use x="438.568665" xlink:href="#Ubuntu-101"/>
      <use x="494.468658" xlink:href="#Ubuntu-110"/>
      <use x="551.868652" xlink:href="#Ubuntu-116"/>
     </g>
    </g>
   </g>
   <g id="line2d_25">
    <path clip-path="url(#p617e745f89)" d="M 49.640057 204.765419 
L 354.003693 204.765419 
L 354.003693 204.765419 
" style="fill:none;stroke:#000000;stroke-linecap:square;stroke-width:2.7;"/>
   </g>
   <g id="line2d_26">
    <path clip-path="url(#p617e745f89)" d="M 49.640057 144.104546 
L 53.705014 133.927664 
L 57.261851 125.602912 
L 60.818688 117.850889 
L 63.867405 111.681226 
L 66.916123 105.963692 
L 69.964841 100.708543 
L 73.013558 95.923382 
L 75.554156 92.298419 
L 78.094754 89.004792 
L 80.635352 86.042715 
L 83.17595 83.411159 
L 85.716548 81.107878 
L 88.257146 79.129428 
L 90.797744 77.471198 
L 93.338342 76.127443 
L 95.87894 75.091319 
L 97.911418 74.478636 
L 99.943897 74.05328 
L 102.484495 73.777482 
L 105.025092 73.776216 
L 107.56569 74.03814 
L 110.106288 74.551074 
L 112.646886 75.302058 
L 115.187484 76.277406 
L 117.728082 77.462774 
L 120.7768 79.141358 
L 123.825517 81.073985 
L 127.382355 83.612692 
L 131.447311 86.832807 
L 136.020388 90.778643 
L 141.609703 95.92433 
L 160.410128 113.530436 
L 164.983204 117.369339 
L 169.048161 120.490002 
L 172.604998 122.95145 
L 176.161836 125.127439 
L 179.210553 126.742935 
L 182.259271 128.110379 
L 185.307988 129.215054 
L 187.848586 129.925639 
L 190.389184 130.438575 
L 192.929782 130.748587 
L 195.47038 130.851427 
L 198.010978 130.743898 
L 200.551576 130.423862 
L 203.092174 129.890247 
L 205.632772 129.143052 
L 208.17337 128.18335 
L 210.713968 127.013279 
L 213.762685 125.336084 
L 216.811403 123.368132 
L 219.860121 121.119068 
L 222.908838 118.600614 
L 226.465675 115.340373 
L 230.022512 111.757378 
L 234.087469 107.30408 
L 238.152426 102.514301 
L 242.725502 96.789359 
L 248.314818 89.424261 
L 256.952851 77.606216 
L 266.607123 64.477987 
L 272.196439 57.270515 
L 276.769515 51.749568 
L 280.834472 47.21237 
L 284.391309 43.58361 
L 287.440026 40.761499 
L 290.488744 38.233275 
L 293.537462 36.024044 
L 296.07806 34.443879 
L 298.618658 33.114725 
L 301.159255 32.04876 
L 303.699853 31.257327 
L 305.732332 30.828899 
L 307.76481 30.587797 
L 309.797289 30.538539 
L 311.829767 30.685227 
L 313.862245 31.03153 
L 315.894724 31.580675 
L 317.927202 32.335433 
L 319.95968 33.298105 
L 321.992159 34.470515 
L 324.024637 35.853999 
L 326.565235 37.881411 
L 329.105833 40.240438 
L 331.646431 42.930364 
L 334.187029 45.949214 
L 336.727627 49.293739 
L 339.268225 52.959412 
L 342.316943 57.773868 
L 345.36566 63.029885 
L 348.414378 68.712371 
L 351.971215 75.857204 
L 354.003693 80.177424 
L 354.003693 80.177424 
" style="fill:none;stroke:#800080;stroke-linecap:square;stroke-width:2.7;"/>
   </g>
   <g id="patch_3">
    <path d="M 34.421875 238.089 
L 34.421875 20.649 
" style="fill:none;stroke:#808080;stroke-linecap:square;stroke-linejoin:miter;stroke-width:0.5;"/>
   </g>
   <g id="patch_4">
    <path d="M 34.421875 238.089 
L 369.221875 238.089 
" style="fill:none;stroke:#808080;stroke-linecap:square;stroke-linejoin:miter;stroke-width:0.5;"/>
   </g>
   <g id="text_15">
    <!-- Prior -->
    <defs>
     <path d="M 27 70 
Q 41.59375 70 49.4375 64.453125 
Q 57.296875 58.90625 57.296875 47.90625 
Q 57.296875 41.90625 55.140625 37.65625 
Q 53 33.40625 48.953125 30.75 
Q 44.90625 28.09375 39.09375 26.890625 
Q 33.296875 25.703125 26 25.703125 
L 18.296875 25.703125 
L 18.296875 0 
L 8.59375 0 
L 8.59375 68.296875 
Q 12.703125 69.296875 17.75 69.640625 
Q 22.796875 70 27 70 
z
M 27.796875 61.5 
Q 21.59375 61.5 18.296875 61.203125 
L 18.296875 34 
L 25.59375 34 
Q 30.59375 34 34.59375 34.640625 
Q 38.59375 35.296875 41.34375 36.84375 
Q 44.09375 38.40625 45.59375 41.09375 
Q 47.09375 43.796875 47.09375 48 
Q 47.09375 52 45.546875 54.59375 
Q 44 57.203125 41.34375 58.75 
Q 38.703125 60.296875 35.203125 60.890625 
Q 31.703125 61.5 27.796875 61.5 
z
" id="Ubuntu-80"/>
     <path d="M 27.203125 53.09375 
Q 28.40625 53.09375 29.953125 52.9375 
Q 31.5 52.796875 33 52.546875 
Q 34.5 52.296875 35.75 52.046875 
Q 37 51.796875 37.59375 51.59375 
L 36 43.5 
Q 34.90625 43.90625 32.34375 44.453125 
Q 29.796875 45 25.796875 45 
Q 23.203125 45 20.640625 44.453125 
Q 18.09375 43.90625 17.296875 43.703125 
L 17.296875 0 
L 8 0 
L 8 49.796875 
Q 11.296875 51 16.1875 52.046875 
Q 21.09375 53.09375 27.203125 53.09375 
z
" id="Ubuntu-114"/>
     <path d="M 17.296875 0 
L 8 0 
L 8 52 
L 17.296875 52 
z
M 12.59375 61.40625 
Q 10.09375 61.40625 8.34375 63.046875 
Q 6.59375 64.703125 6.59375 67.5 
Q 6.59375 70.296875 8.34375 71.9375 
Q 10.09375 73.59375 12.59375 73.59375 
Q 15.09375 73.59375 16.84375 71.9375 
Q 18.59375 70.296875 18.59375 67.5 
Q 18.59375 64.703125 16.84375 63.046875 
Q 15.09375 61.40625 12.59375 61.40625 
z
" id="Ubuntu-105"/>
    </defs>
    <g transform="translate(191.152375 14.649)scale(0.096 -0.096)">
     <use xlink:href="#Ubuntu-80"/>
     <use x="60.799988" xlink:href="#Ubuntu-114"/>
     <use x="99.399979" xlink:href="#Ubuntu-105"/>
     <use x="124.699966" xlink:href="#Ubuntu-111"/>
     <use x="183.699951" xlink:href="#Ubuntu-114"/>
    </g>
   </g>
   <g id="legend_1">
    <g id="patch_5">
     <path d="M 389.613875 73.308375 
L 480.913875 73.308375 
Q 482.913875 73.308375 482.913875 71.308375 
L 482.913875 27.649 
Q 482.913875 25.649 480.913875 25.649 
L 389.613875 25.649 
Q 387.613875 25.649 387.613875 27.649 
L 387.613875 71.308375 
Q 387.613875 73.308375 389.613875 73.308375 
z
" style="fill:#ffffff;opacity:0.8;stroke:#cccccc;stroke-linejoin:miter;stroke-width:0.24;"/>
    </g>
    <g id="line2d_27">
     <path d="M 391.613875 34.049 
L 411.613875 34.049 
" style="fill:none;stroke:#000000;stroke-linecap:square;stroke-width:2.7;"/>
    </g>
    <g id="line2d_28"/>
    <g id="text_16">
     <!-- Predicted ($\mu$) -->
     <defs>
      <path d="M 17.09375 29.90625 
Q 17.09375 17.09375 20.796875 6.1875 
Q 24.5 -4.703125 31.703125 -14 
L 25.09375 -18.5 
Q 17.296875 -9 12.546875 3.34375 
Q 7.796875 15.703125 7.796875 29.90625 
Q 7.796875 44.09375 12.546875 56.4375 
Q 17.296875 68.796875 25.09375 78.296875 
L 31.703125 73.796875 
Q 24.5 64.5 20.796875 53.59375 
Q 17.09375 42.703125 17.09375 29.90625 
z
" id="Ubuntu-40"/>
      <path d="M -1.3125 -20.796875 
L 13.375 54.6875 
L 22.40625 54.6875 
L 15.765625 20.65625 
Q 15.578125 19.625 15.421875 18.359375 
Q 15.28125 17.09375 15.28125 15.828125 
Q 15.28125 11.28125 18.140625 8.828125 
Q 21 6.390625 26.3125 6.390625 
Q 33.546875 6.390625 37.984375 10.484375 
Q 42.4375 14.59375 44 22.796875 
L 50.203125 54.6875 
L 59.1875 54.6875 
L 51.03125 12.640625 
Q 50.828125 11.71875 50.75 11.03125 
Q 50.6875 10.359375 50.6875 9.8125 
Q 50.6875 8.296875 51.296875 7.59375 
Q 51.90625 6.890625 53.21875 6.890625 
Q 53.71875 6.890625 54.5625 7.125 
Q 55.421875 7.375 56.984375 8.015625 
L 55.609375 0.78125 
Q 53.46875 -0.296875 51.515625 -0.859375 
Q 49.5625 -1.421875 47.703125 -1.421875 
Q 44.484375 -1.421875 42.65625 0.625 
Q 40.828125 2.6875 40.828125 6.296875 
Q 38.09375 2.390625 34.296875 0.484375 
Q 30.515625 -1.421875 25.390625 -1.421875 
Q 20.84375 -1.421875 17.453125 0.671875 
Q 14.0625 2.78125 12.984375 6.203125 
L 7.71875 -20.796875 
z
" id="DejaVuSans-Oblique-956"/>
      <path d="M 15.296875 29.90625 
Q 15.296875 42.703125 11.59375 53.59375 
Q 7.90625 64.5 0.703125 73.796875 
L 7.296875 78.296875 
Q 15.09375 68.796875 19.84375 56.4375 
Q 24.59375 44.09375 24.59375 29.90625 
Q 24.59375 15.703125 19.84375 3.34375 
Q 15.09375 -9 7.296875 -18.5 
L 0.703125 -14 
Q 7.90625 -4.703125 11.59375 6.1875 
Q 15.296875 17.09375 15.296875 29.90625 
z
" id="Ubuntu-41"/>
     </defs>
     <g transform="translate(419.613875 37.549)scale(0.1 -0.1)">
      <use transform="translate(0 0.703125)" xlink:href="#Ubuntu-80"/>
      <use transform="translate(60.799988 0.703125)" xlink:href="#Ubuntu-114"/>
      <use transform="translate(99.399979 0.703125)" xlink:href="#Ubuntu-101"/>
      <use transform="translate(155.299973 0.703125)" xlink:href="#Ubuntu-100"/>
      <use transform="translate(214.199966 0.703125)" xlink:href="#Ubuntu-105"/>
      <use transform="translate(239.499954 0.703125)" xlink:href="#Ubuntu-99"/>
      <use transform="translate(285.999939 0.703125)" xlink:href="#Ubuntu-116"/>
      <use transform="translate(326.199936 0.703125)" xlink:href="#Ubuntu-101"/>
      <use transform="translate(382.09993 0.703125)" xlink:href="#Ubuntu-100"/>
      <use transform="translate(440.999924 0.703125)" xlink:href="#Ubuntu-32"/>
      <use transform="translate(464.099915 0.703125)" xlink:href="#Ubuntu-40"/>
      <use transform="translate(496.499908 0.703125)" xlink:href="#DejaVuSans-Oblique-956"/>
      <use transform="translate(560.122955 0.703125)" xlink:href="#Ubuntu-41"/>
     </g>
    </g>
    <g id="line2d_29">
     <path d="M 391.613875 49.049 
L 411.613875 49.049 
" style="fill:none;stroke:#800080;stroke-linecap:square;stroke-width:2.7;"/>
    </g>
    <g id="line2d_30"/>
    <g id="text_17">
     <!-- GT ($f$) -->
     <defs>
      <path d="M 54.90625 69.296875 
L 54.90625 60.90625 
L 33.09375 60.90625 
L 33.09375 0 
L 23.40625 0 
L 23.40625 60.90625 
L 1.59375 60.90625 
L 1.59375 69.296875 
z
" id="Ubuntu-84"/>
      <path d="M 47.796875 75.984375 
L 46.390625 68.5 
L 37.796875 68.5 
Q 32.90625 68.5 30.6875 66.578125 
Q 28.46875 64.65625 27.390625 59.515625 
L 26.421875 54.6875 
L 41.21875 54.6875 
L 39.890625 47.703125 
L 25.09375 47.703125 
L 15.828125 0 
L 6.78125 0 
L 16.109375 47.703125 
L 7.515625 47.703125 
L 8.796875 54.6875 
L 17.390625 54.6875 
L 18.109375 58.5 
Q 19.96875 68.171875 24.625 72.078125 
Q 29.296875 75.984375 39.3125 75.984375 
z
" id="DejaVuSans-Oblique-102"/>
     </defs>
     <g transform="translate(419.613875 52.549)scale(0.1 -0.1)">
      <use transform="translate(0 0.703125)" xlink:href="#Ubuntu-71"/>
      <use transform="translate(67.199997 0.703125)" xlink:href="#Ubuntu-84"/>
      <use transform="translate(123.699982 0.703125)" xlink:href="#Ubuntu-32"/>
      <use transform="translate(146.799973 0.703125)" xlink:href="#Ubuntu-40"/>
      <use transform="translate(179.199966 0.703125)" xlink:href="#DejaVuSans-Oblique-102"/>
      <use transform="translate(214.405045 0.703125)" xlink:href="#Ubuntu-41"/>
     </g>
    </g>
    <g id="patch_6">
     <path d="M 391.613875 67.208375 
L 411.613875 67.208375 
L 411.613875 60.208375 
L 391.613875 60.208375 
z
" style="fill:#808080;opacity:0.4;stroke:#808080;stroke-linejoin:miter;stroke-width:0.24;"/>
    </g>
    <g id="text_18">
     <!-- $\mu \pm \sigma$ -->
     <defs>
      <path d="M 46 62.703125 
L 46 43.796875 
L 73.1875 43.796875 
L 73.1875 35.5 
L 46 35.5 
L 46 16.609375 
L 37.796875 16.609375 
L 37.796875 35.5 
L 10.59375 35.5 
L 10.59375 43.796875 
L 37.796875 43.796875 
L 37.796875 62.703125 
z
M 10.59375 8.296875 
L 73.1875 8.296875 
L 73.1875 0 
L 10.59375 0 
z
" id="DejaVuSans-177"/>
      <path d="M 34.671875 47.5625 
Q 27.25 47.5625 22.21875 42.1875 
Q 16.890625 36.578125 15.140625 27.296875 
Q 13.1875 17.484375 16.3125 11.8125 
Q 19.390625 6.203125 26.65625 6.203125 
Q 33.84375 6.203125 39.109375 11.859375 
Q 44.4375 17.53125 46.34375 27.296875 
Q 48.046875 36.234375 45.015625 42.1875 
Q 42.1875 47.5625 34.671875 47.5625 
z
M 36.078125 54.734375 
L 65.921875 54.6875 
L 64.15625 45.703125 
L 54.109375 45.703125 
Q 57.90625 38.09375 55.859375 27.296875 
Q 53.21875 13.875 45.0625 6.25 
Q 36.859375 -1.421875 25.140625 -1.421875 
Q 13.375 -1.421875 8.203125 6.25 
Q 3.03125 13.875 5.671875 27.296875 
Q 8.25 40.765625 16.40625 48.390625 
Q 23.1875 54.734375 36.078125 54.734375 
z
" id="DejaVuSans-Oblique-963"/>
     </defs>
     <g transform="translate(419.613875 67.208375)scale(0.1 -0.1)">
      <use transform="translate(0 0.296875)" xlink:href="#DejaVuSans-Oblique-956"/>
      <use transform="translate(83.105469 0.296875)" xlink:href="#DejaVuSans-177"/>
      <use transform="translate(186.376953 0.296875)" xlink:href="#DejaVuSans-Oblique-963"/>
     </g>
    </g>
   </g>
  </g>
 </g>
 <defs>
  <clipPath id="p617e745f89">
   <rect height="217.44" width="334.8" x="34.421875" y="20.649"/>
  </clipPath>
 </defs>
</svg>
