<?xml version="1.0" encoding="utf-8" standalone="no"?>
<!DOCTYPE svg PUBLIC "-//W3C//DTD SVG 1.1//EN"
  "http://www.w3.org/Graphics/SVG/1.1/DTD/svg11.dtd">
<!-- Created with matplotlib (https://matplotlib.org/) -->
<svg height="288.339375pt" version="1.1" viewBox="0 0 582.483562 288.339375" width="582.483562pt" xmlns="http://www.w3.org/2000/svg" xmlns:xlink="http://www.w3.org/1999/xlink">
 <defs>
  <style type="text/css">
*{stroke-linecap:butt;stroke-linejoin:round;}
  </style>
 </defs>
 <g id="figure_1">
  <g id="patch_1">
   <path d="M 0 288.339375 
L 582.483562 288.339375 
L 582.483562 0 
L 0 0 
z
" style="fill:#ffffff;"/>
  </g>
  <g id="axes_1">
   <g id="patch_2">
    <path d="M 40.521875 243.055 
L 375.321875 243.055 
L 375.321875 25.615 
L 40.521875 25.615 
z
" style="fill:#ffffff;"/>
   </g>
   <g id="matplotlib.axis_1">
    <g id="xtick_1">
     <g id="line2d_1">
      <path clip-path="url(#p6fc7e573ab)" d="M 55.740057 243.055 
L 55.740057 25.615 
" style="fill:none;stroke:#b0b0b0;stroke-linecap:square;stroke-width:0.8;"/>
     </g>
     <g id="line2d_2">
      <defs>
       <path d="M 0 0 
L 0 3.5 
" id="ma243095e01" style="stroke:#808080;stroke-width:0.8;"/>
      </defs>
      <g>
       <use style="fill:#808080;stroke:#808080;stroke-width:0.8;" x="55.740057" xlink:href="#ma243095e01" y="243.055"/>
      </g>
     </g>
     <g id="text_1">
      <!-- 0 -->
      <defs>
       <path d="M 5 34.703125 
Q 5 52.09375 11.140625 61.5 
Q 17.296875 70.90625 28.203125 70.90625 
Q 39.09375 70.90625 45.25 61.5 
Q 51.40625 52.09375 51.40625 34.703125 
Q 51.40625 17.296875 45.25 7.890625 
Q 39.09375 -1.5 28.203125 -1.5 
Q 17.296875 -1.5 11.140625 7.890625 
Q 5 17.296875 5 34.703125 
z
M 41.59375 34.703125 
Q 41.59375 40.40625 40.9375 45.5 
Q 40.296875 50.59375 38.75 54.390625 
Q 37.203125 58.203125 34.59375 60.453125 
Q 32 62.703125 28.203125 62.703125 
Q 24.40625 62.703125 21.796875 60.453125 
Q 19.203125 58.203125 17.640625 54.390625 
Q 16.09375 50.59375 15.4375 45.5 
Q 14.796875 40.40625 14.796875 34.703125 
Q 14.796875 29 15.4375 23.890625 
Q 16.09375 18.796875 17.640625 15 
Q 19.203125 11.203125 21.796875 8.953125 
Q 24.40625 6.703125 28.203125 6.703125 
Q 32 6.703125 34.59375 8.953125 
Q 37.203125 11.203125 38.75 15 
Q 40.296875 18.796875 40.9375 23.890625 
Q 41.59375 29 41.59375 34.703125 
z
" id="Ubuntu-48"/>
      </defs>
      <g transform="translate(52.355682 261.46625)scale(0.12 -0.12)">
       <use xlink:href="#Ubuntu-48"/>
      </g>
     </g>
    </g>
    <g id="xtick_2">
     <g id="line2d_3">
      <path clip-path="url(#p6fc7e573ab)" d="M 106.46733 243.055 
L 106.46733 25.615 
" style="fill:none;stroke:#b0b0b0;stroke-linecap:square;stroke-width:0.8;"/>
     </g>
     <g id="line2d_4">
      <g>
       <use style="fill:#808080;stroke:#808080;stroke-width:0.8;" x="106.46733" xlink:href="#ma243095e01" y="243.055"/>
      </g>
     </g>
     <g id="text_2">
      <!-- 1 -->
      <defs>
       <path d="M 9.296875 55 
Q 15 57.203125 20.390625 60.640625 
Q 25.796875 64.09375 30.296875 69.296875 
L 36.90625 69.296875 
L 36.90625 0 
L 27.59375 0 
L 27.59375 56.40625 
Q 26.40625 55.296875 24.65625 54.09375 
Q 22.90625 52.90625 20.84375 51.796875 
Q 18.796875 50.703125 16.546875 49.703125 
Q 14.296875 48.703125 12.203125 48 
z
" id="Ubuntu-49"/>
      </defs>
      <g transform="translate(103.082955 261.46625)scale(0.12 -0.12)">
       <use xlink:href="#Ubuntu-49"/>
      </g>
     </g>
    </g>
    <g id="xtick_3">
     <g id="line2d_5">
      <path clip-path="url(#p6fc7e573ab)" d="M 157.194602 243.055 
L 157.194602 25.615 
" style="fill:none;stroke:#b0b0b0;stroke-linecap:square;stroke-width:0.8;"/>
     </g>
     <g id="line2d_6">
      <g>
       <use style="fill:#808080;stroke:#808080;stroke-width:0.8;" x="157.194602" xlink:href="#ma243095e01" y="243.055"/>
      </g>
     </g>
     <g id="text_3">
      <!-- 2 -->
      <defs>
       <path d="M 46.703125 51.59375 
Q 46.703125 48 45.25 44.640625 
Q 43.796875 41.296875 41.390625 38.046875 
Q 39 34.796875 36 31.640625 
Q 33 28.5 30 25.5 
Q 28.296875 23.796875 26.046875 21.5 
Q 23.796875 19.203125 21.796875 16.703125 
Q 19.796875 14.203125 18.4375 11.890625 
Q 17.09375 9.59375 17.09375 7.90625 
L 49 7.90625 
L 49 0 
L 7 0 
Q 6.90625 0.59375 6.90625 1.1875 
Q 6.90625 1.796875 6.90625 2.296875 
Q 6.90625 7 8.453125 11.046875 
Q 10 15.09375 12.5 18.6875 
Q 15 22.296875 18.09375 25.5 
Q 21.203125 28.703125 24.203125 31.703125 
Q 26.703125 34.09375 28.953125 36.4375 
Q 31.203125 38.796875 32.953125 41.140625 
Q 34.703125 43.5 35.75 46 
Q 36.796875 48.5 36.796875 51.296875 
Q 36.796875 54.296875 35.84375 56.390625 
Q 34.90625 58.5 33.296875 59.890625 
Q 31.703125 61.296875 29.546875 61.9375 
Q 27.40625 62.59375 25 62.59375 
Q 22.09375 62.59375 19.6875 61.796875 
Q 17.296875 61 15.390625 59.953125 
Q 13.5 58.90625 12.203125 57.75 
Q 10.90625 56.59375 10.203125 56 
L 5.59375 62.59375 
Q 6.5 63.59375 8.296875 65.046875 
Q 10.09375 66.5 12.59375 67.796875 
Q 15.09375 69.09375 18.1875 70 
Q 21.296875 70.90625 24.90625 70.90625 
Q 35.796875 70.90625 41.25 65.84375 
Q 46.703125 60.796875 46.703125 51.59375 
z
" id="Ubuntu-50"/>
      </defs>
      <g transform="translate(153.810227 261.46625)scale(0.12 -0.12)">
       <use xlink:href="#Ubuntu-50"/>
      </g>
     </g>
    </g>
    <g id="xtick_4">
     <g id="line2d_7">
      <path clip-path="url(#p6fc7e573ab)" d="M 207.921875 243.055 
L 207.921875 25.615 
" style="fill:none;stroke:#b0b0b0;stroke-linecap:square;stroke-width:0.8;"/>
     </g>
     <g id="line2d_8">
      <g>
       <use style="fill:#808080;stroke:#808080;stroke-width:0.8;" x="207.921875" xlink:href="#ma243095e01" y="243.055"/>
      </g>
     </g>
     <g id="text_4">
      <!-- 3 -->
      <defs>
       <path d="M 22.59375 6.796875 
Q 31.5 6.796875 35.34375 10.296875 
Q 39.203125 13.796875 39.203125 19.703125 
Q 39.203125 23.5 37.59375 26.09375 
Q 36 28.703125 33.390625 30.25 
Q 30.796875 31.796875 27.34375 32.4375 
Q 23.90625 33.09375 20.296875 33.09375 
L 17.90625 33.09375 
L 17.90625 40.703125 
L 21.203125 40.703125 
Q 23.703125 40.703125 26.34375 41.203125 
Q 29 41.703125 31.203125 43 
Q 33.40625 44.296875 34.796875 46.546875 
Q 36.203125 48.796875 36.203125 52.203125 
Q 36.203125 55 35.203125 57 
Q 34.203125 59 32.546875 60.296875 
Q 30.90625 61.59375 28.75 62.140625 
Q 26.59375 62.703125 24.203125 62.703125 
Q 19.40625 62.703125 16.046875 61.296875 
Q 12.703125 59.90625 10.40625 58.40625 
L 6.796875 65.5 
Q 8 66.296875 9.84375 67.25 
Q 11.703125 68.203125 14 69 
Q 16.296875 69.796875 18.9375 70.34375 
Q 21.59375 70.90625 24.5 70.90625 
Q 30 70.90625 34 69.546875 
Q 38 68.203125 40.59375 65.75 
Q 43.203125 63.296875 44.5 59.9375 
Q 45.796875 56.59375 45.796875 52.703125 
Q 45.796875 47.296875 42.6875 43.4375 
Q 39.59375 39.59375 35.203125 37.59375 
Q 37.90625 36.796875 40.40625 35.296875 
Q 42.90625 33.796875 44.75 31.5 
Q 46.59375 29.203125 47.75 26.203125 
Q 48.90625 23.203125 48.90625 19.5 
Q 48.90625 15 47.34375 11.140625 
Q 45.796875 7.296875 42.546875 4.5 
Q 39.296875 1.703125 34.390625 0.09375 
Q 29.5 -1.5 22.796875 -1.5 
Q 20.203125 -1.5 17.453125 -1.09375 
Q 14.703125 -0.703125 12.296875 -0.09375 
Q 9.90625 0.5 8.09375 1.09375 
Q 6.296875 1.703125 5.5 2.09375 
L 7.296875 10.203125 
Q 9 9.40625 12.953125 8.09375 
Q 16.90625 6.796875 22.59375 6.796875 
z
" id="Ubuntu-51"/>
      </defs>
      <g transform="translate(204.5375 261.46625)scale(0.12 -0.12)">
       <use xlink:href="#Ubuntu-51"/>
      </g>
     </g>
    </g>
    <g id="xtick_5">
     <g id="line2d_9">
      <path clip-path="url(#p6fc7e573ab)" d="M 258.649148 243.055 
L 258.649148 25.615 
" style="fill:none;stroke:#b0b0b0;stroke-linecap:square;stroke-width:0.8;"/>
     </g>
     <g id="line2d_10">
      <g>
       <use style="fill:#808080;stroke:#808080;stroke-width:0.8;" x="258.649148" xlink:href="#ma243095e01" y="243.055"/>
      </g>
     </g>
     <g id="text_5">
      <!-- 4 -->
      <defs>
       <path d="M 4 24 
Q 5.90625 28.40625 9.203125 34.25 
Q 12.5 40.09375 16.640625 46.296875 
Q 20.796875 52.5 25.546875 58.5 
Q 30.296875 64.5 35.09375 69.296875 
L 44 69.296875 
L 44 25.296875 
L 52.203125 25.296875 
L 52.203125 17.703125 
L 44 17.703125 
L 44 0 
L 35 0 
L 35 17.703125 
L 4 17.703125 
z
M 35 58.296875 
Q 32 55.09375 28.953125 51.140625 
Q 25.90625 47.203125 23 42.890625 
Q 20.09375 38.59375 17.546875 34.09375 
Q 15 29.59375 13 25.296875 
L 35 25.296875 
z
" id="Ubuntu-52"/>
      </defs>
      <g transform="translate(255.264773 261.46625)scale(0.12 -0.12)">
       <use xlink:href="#Ubuntu-52"/>
      </g>
     </g>
    </g>
    <g id="xtick_6">
     <g id="line2d_11">
      <path clip-path="url(#p6fc7e573ab)" d="M 309.37642 243.055 
L 309.37642 25.615 
" style="fill:none;stroke:#b0b0b0;stroke-linecap:square;stroke-width:0.8;"/>
     </g>
     <g id="line2d_12">
      <g>
       <use style="fill:#808080;stroke:#808080;stroke-width:0.8;" x="309.37642" xlink:href="#ma243095e01" y="243.055"/>
      </g>
     </g>
     <g id="text_6">
      <!-- 5 -->
      <defs>
       <path d="M 19.90625 42.59375 
Q 35 42 42.046875 36 
Q 49.09375 30 49.09375 19.703125 
Q 49.09375 15.09375 47.546875 11.1875 
Q 46 7.296875 42.84375 4.5 
Q 39.703125 1.703125 34.890625 0.09375 
Q 30.09375 -1.5 23.5 -1.5 
Q 20.90625 -1.5 18.203125 -1.09375 
Q 15.5 -0.703125 13.203125 -0.09375 
Q 10.90625 0.5 9.09375 1.09375 
Q 7.296875 1.703125 6.5 2.09375 
L 8.296875 10.203125 
Q 10 9.40625 13.84375 8.09375 
Q 17.703125 6.796875 23.296875 6.796875 
Q 27.796875 6.796875 30.84375 7.796875 
Q 33.90625 8.796875 35.796875 10.5 
Q 37.703125 12.203125 38.546875 14.453125 
Q 39.40625 16.703125 39.40625 19.203125 
Q 39.40625 23 38.09375 25.953125 
Q 36.796875 28.90625 33.5 30.90625 
Q 30.203125 32.90625 24.703125 33.953125 
Q 19.203125 35 10.796875 35 
Q 11.40625 39.90625 11.75 44.203125 
Q 12.09375 48.5 12.390625 52.59375 
Q 12.703125 56.703125 12.890625 60.75 
Q 13.09375 64.796875 13.296875 69.296875 
L 46.703125 69.296875 
L 46.703125 61.40625 
L 21.40625 61.40625 
Q 21.296875 59.90625 21.09375 57.34375 
Q 20.90625 54.796875 20.703125 52.046875 
Q 20.5 49.296875 20.296875 46.6875 
Q 20.09375 44.09375 19.90625 42.59375 
z
" id="Ubuntu-53"/>
      </defs>
      <g transform="translate(305.992045 261.46625)scale(0.12 -0.12)">
       <use xlink:href="#Ubuntu-53"/>
      </g>
     </g>
    </g>
    <g id="xtick_7">
     <g id="line2d_13">
      <path clip-path="url(#p6fc7e573ab)" d="M 360.103693 243.055 
L 360.103693 25.615 
" style="fill:none;stroke:#b0b0b0;stroke-linecap:square;stroke-width:0.8;"/>
     </g>
     <g id="line2d_14">
      <g>
       <use style="fill:#808080;stroke:#808080;stroke-width:0.8;" x="360.103693" xlink:href="#ma243095e01" y="243.055"/>
      </g>
     </g>
     <g id="text_7">
      <!-- 6 -->
      <defs>
       <path d="M 6.296875 27.796875 
Q 6.296875 37.90625 9.09375 45.65625 
Q 11.90625 53.40625 17.046875 58.703125 
Q 22.203125 64 29.546875 66.75 
Q 36.90625 69.5 46.09375 69.59375 
L 46.796875 61.796875 
Q 40.90625 61.703125 36.046875 60.5 
Q 31.203125 59.296875 27.390625 56.6875 
Q 23.59375 54.09375 21 49.9375 
Q 18.40625 45.796875 17.09375 39.703125 
Q 19.703125 40.90625 22.953125 41.703125 
Q 26.203125 42.5 29.703125 42.5 
Q 35.59375 42.5 39.6875 40.703125 
Q 43.796875 38.90625 46.390625 35.953125 
Q 49 33 50.140625 29.140625 
Q 51.296875 25.296875 51.296875 21.09375 
Q 51.296875 17.296875 50 13.296875 
Q 48.703125 9.296875 46.046875 6 
Q 43.40625 2.703125 39.296875 0.59375 
Q 35.203125 -1.5 29.59375 -1.5 
Q 18.203125 -1.5 12.25 6.296875 
Q 6.296875 14.09375 6.296875 27.796875 
z
M 28.703125 34.90625 
Q 25.203125 34.90625 22.203125 34.25 
Q 19.203125 33.59375 16.203125 32.296875 
Q 16.09375 31.203125 16.046875 30.046875 
Q 16 28.90625 16 27.796875 
Q 16 23.40625 16.59375 19.5 
Q 17.203125 15.59375 18.75 12.640625 
Q 20.296875 9.703125 22.890625 7.953125 
Q 25.5 6.203125 29.5 6.203125 
Q 32.796875 6.203125 35.09375 7.59375 
Q 37.40625 9 38.90625 11.203125 
Q 40.40625 13.40625 41.046875 15.953125 
Q 41.703125 18.5 41.703125 20.90625 
Q 41.703125 27.703125 38.453125 31.296875 
Q 35.203125 34.90625 28.703125 34.90625 
z
" id="Ubuntu-54"/>
      </defs>
      <g transform="translate(356.719318 261.46625)scale(0.12 -0.12)">
       <use xlink:href="#Ubuntu-54"/>
      </g>
     </g>
    </g>
    <g id="text_8">
     <!-- X -->
     <defs>
      <path d="M 50.203125 0 
Q 48.703125 3 46.59375 6.640625 
Q 44.5 10.296875 42 14.25 
Q 39.5 18.203125 36.796875 22.140625 
Q 34.09375 26.09375 31.59375 29.59375 
Q 29.09375 26.09375 26.390625 22.140625 
Q 23.703125 18.203125 21.25 14.25 
Q 18.796875 10.296875 16.640625 6.640625 
Q 14.5 3 13 0 
L 2.296875 0 
Q 6.796875 8.796875 12.75 17.890625 
Q 18.703125 27 25.40625 36.59375 
L 3.203125 69.296875 
L 14.40625 69.296875 
L 31.5 43.5 
L 48.40625 69.296875 
L 59.5 69.296875 
L 37.703125 37 
Q 44.5 27.296875 50.5 18.09375 
Q 56.5 8.90625 61.09375 0 
z
" id="Ubuntu-88"/>
     </defs>
     <g transform="translate(203.505313 278.549375)scale(0.14 -0.14)">
      <use xlink:href="#Ubuntu-88"/>
     </g>
    </g>
   </g>
   <g id="matplotlib.axis_2">
    <g id="ytick_1">
     <g id="line2d_15">
      <path clip-path="url(#p6fc7e573ab)" d="M 40.521875 233.173683 
L 375.321875 233.173683 
" style="fill:none;stroke:#b0b0b0;stroke-linecap:square;stroke-width:0.8;"/>
     </g>
     <g id="line2d_16">
      <defs>
       <path d="M 0 0 
L -3.5 0 
" id="md955885299" style="stroke:#808080;stroke-width:0.8;"/>
      </defs>
      <g>
       <use style="fill:#808080;stroke:#808080;stroke-width:0.8;" x="40.521875" xlink:href="#md955885299" y="233.173683"/>
      </g>
     </g>
     <g id="text_9">
      <!-- 2 -->
      <g transform="translate(24.653125 237.829308)scale(0.12 -0.12)">
       <use xlink:href="#Ubuntu-50"/>
      </g>
     </g>
    </g>
    <g id="ytick_2">
     <g id="line2d_17">
      <path clip-path="url(#p6fc7e573ab)" d="M 40.521875 200.281422 
L 375.321875 200.281422 
" style="fill:none;stroke:#b0b0b0;stroke-linecap:square;stroke-width:0.8;"/>
     </g>
     <g id="line2d_18">
      <g>
       <use style="fill:#808080;stroke:#808080;stroke-width:0.8;" x="40.521875" xlink:href="#md955885299" y="200.281422"/>
      </g>
     </g>
     <g id="text_10">
      <!-- 3 -->
      <g transform="translate(24.653125 204.937047)scale(0.12 -0.12)">
       <use xlink:href="#Ubuntu-51"/>
      </g>
     </g>
    </g>
    <g id="ytick_3">
     <g id="line2d_19">
      <path clip-path="url(#p6fc7e573ab)" d="M 40.521875 167.38916 
L 375.321875 167.38916 
" style="fill:none;stroke:#b0b0b0;stroke-linecap:square;stroke-width:0.8;"/>
     </g>
     <g id="line2d_20">
      <g>
       <use style="fill:#808080;stroke:#808080;stroke-width:0.8;" x="40.521875" xlink:href="#md955885299" y="167.38916"/>
      </g>
     </g>
     <g id="text_11">
      <!-- 4 -->
      <g transform="translate(24.653125 172.044785)scale(0.12 -0.12)">
       <use xlink:href="#Ubuntu-52"/>
      </g>
     </g>
    </g>
    <g id="ytick_4">
     <g id="line2d_21">
      <path clip-path="url(#p6fc7e573ab)" d="M 40.521875 134.496898 
L 375.321875 134.496898 
" style="fill:none;stroke:#b0b0b0;stroke-linecap:square;stroke-width:0.8;"/>
     </g>
     <g id="line2d_22">
      <g>
       <use style="fill:#808080;stroke:#808080;stroke-width:0.8;" x="40.521875" xlink:href="#md955885299" y="134.496898"/>
      </g>
     </g>
     <g id="text_12">
      <!-- 5 -->
      <g transform="translate(24.653125 139.152523)scale(0.12 -0.12)">
       <use xlink:href="#Ubuntu-53"/>
      </g>
     </g>
    </g>
    <g id="ytick_5">
     <g id="line2d_23">
      <path clip-path="url(#p6fc7e573ab)" d="M 40.521875 101.604637 
L 375.321875 101.604637 
" style="fill:none;stroke:#b0b0b0;stroke-linecap:square;stroke-width:0.8;"/>
     </g>
     <g id="line2d_24">
      <g>
       <use style="fill:#808080;stroke:#808080;stroke-width:0.8;" x="40.521875" xlink:href="#md955885299" y="101.604637"/>
      </g>
     </g>
     <g id="text_13">
      <!-- 6 -->
      <g transform="translate(24.653125 106.260262)scale(0.12 -0.12)">
       <use xlink:href="#Ubuntu-54"/>
      </g>
     </g>
    </g>
    <g id="ytick_6">
     <g id="line2d_25">
      <path clip-path="url(#p6fc7e573ab)" d="M 40.521875 68.712375 
L 375.321875 68.712375 
" style="fill:none;stroke:#b0b0b0;stroke-linecap:square;stroke-width:0.8;"/>
     </g>
     <g id="line2d_26">
      <g>
       <use style="fill:#808080;stroke:#808080;stroke-width:0.8;" x="40.521875" xlink:href="#md955885299" y="68.712375"/>
      </g>
     </g>
     <g id="text_14">
      <!-- 7 -->
      <defs>
       <path d="M 16.296875 0 
Q 16.90625 8 19.15625 16.84375 
Q 21.40625 25.703125 24.703125 34.046875 
Q 28 42.40625 31.953125 49.546875 
Q 35.90625 56.703125 39.703125 61.203125 
L 6 61.203125 
L 6 69.296875 
L 50.09375 69.296875 
L 50.09375 61.59375 
Q 46.796875 57.796875 42.796875 51.140625 
Q 38.796875 44.5 35.25 36.25 
Q 31.703125 28 29.140625 18.640625 
Q 26.59375 9.296875 26 0 
z
" id="Ubuntu-55"/>
      </defs>
      <g transform="translate(24.653125 73.368)scale(0.12 -0.12)">
       <use xlink:href="#Ubuntu-55"/>
      </g>
     </g>
    </g>
    <g id="ytick_7">
     <g id="line2d_27">
      <path clip-path="url(#p6fc7e573ab)" d="M 40.521875 35.820113 
L 375.321875 35.820113 
" style="fill:none;stroke:#b0b0b0;stroke-linecap:square;stroke-width:0.8;"/>
     </g>
     <g id="line2d_28">
      <g>
       <use style="fill:#808080;stroke:#808080;stroke-width:0.8;" x="40.521875" xlink:href="#md955885299" y="35.820113"/>
      </g>
     </g>
     <g id="text_15">
      <!-- 8 -->
      <defs>
       <path d="M 50.90625 18 
Q 50.90625 13.796875 49.453125 10.25 
Q 48 6.703125 45.140625 4.046875 
Q 42.296875 1.40625 38 -0.046875 
Q 33.703125 -1.5 28.09375 -1.5 
Q 21.59375 -1.5 17.25 0.34375 
Q 12.90625 2.203125 10.296875 5 
Q 7.703125 7.796875 6.59375 11.140625 
Q 5.5 14.5 5.5 17.5 
Q 5.5 20.40625 6.453125 23.046875 
Q 7.40625 25.703125 8.953125 28 
Q 10.5 30.296875 12.546875 32.140625 
Q 14.59375 34 16.90625 35.40625 
Q 7.09375 41 7.09375 51.90625 
Q 7.09375 55.703125 8.59375 59.140625 
Q 10.09375 62.59375 12.84375 65.1875 
Q 15.59375 67.796875 19.5 69.34375 
Q 23.40625 70.90625 28.203125 70.90625 
Q 33.796875 70.90625 37.796875 69.203125 
Q 41.796875 67.5 44.34375 64.84375 
Q 46.90625 62.203125 48.046875 59 
Q 49.203125 55.796875 49.203125 52.796875 
Q 49.203125 49.90625 48.34375 47.34375 
Q 47.5 44.796875 46.046875 42.59375 
Q 44.59375 40.40625 42.75 38.703125 
Q 40.90625 37 38.90625 35.703125 
Q 50.703125 30.09375 50.90625 18 
z
M 14.90625 17.40625 
Q 14.90625 15.59375 15.546875 13.640625 
Q 16.203125 11.703125 17.796875 10.046875 
Q 19.40625 8.40625 21.90625 7.296875 
Q 24.40625 6.203125 28.203125 6.203125 
Q 31.59375 6.203125 34.140625 7.203125 
Q 36.703125 8.203125 38.296875 9.75 
Q 39.90625 11.296875 40.703125 13.296875 
Q 41.5 15.296875 41.5 17.40625 
Q 41.5 20.59375 40.296875 23 
Q 39.09375 25.40625 36.84375 27.203125 
Q 34.59375 29 31.4375 30.25 
Q 28.296875 31.5 24.296875 32.40625 
Q 19.796875 29.90625 17.34375 26.203125 
Q 14.90625 22.5 14.90625 17.40625 
z
M 39.90625 52.90625 
Q 39.90625 54.40625 39.25 56.203125 
Q 38.59375 58 37.1875 59.546875 
Q 35.796875 61.09375 33.59375 62.140625 
Q 31.40625 63.203125 28.203125 63.203125 
Q 25 63.203125 22.75 62.203125 
Q 20.5 61.203125 19.09375 59.640625 
Q 17.703125 58.09375 17.046875 56.25 
Q 16.40625 54.40625 16.40625 52.59375 
Q 16.40625 50.40625 17.203125 48.203125 
Q 18 46 19.703125 44.09375 
Q 21.40625 42.203125 24.15625 40.703125 
Q 26.90625 39.203125 30.703125 38.296875 
Q 34.90625 40.796875 37.40625 44.140625 
Q 39.90625 47.5 39.90625 52.90625 
z
" id="Ubuntu-56"/>
      </defs>
      <g transform="translate(24.653125 40.475738)scale(0.12 -0.12)">
       <use xlink:href="#Ubuntu-56"/>
      </g>
     </g>
    </g>
    <g id="text_16">
     <!-- Gold content -->
     <defs>
      <path d="M 50.90625 34.09375 
L 60.59375 34.09375 
L 60.59375 1.703125 
Q 59.40625 1.296875 57.15625 0.796875 
Q 54.90625 0.296875 51.953125 -0.203125 
Q 49 -0.703125 45.5 -1.046875 
Q 42 -1.40625 38.40625 -1.40625 
Q 31.09375 -1.40625 25.09375 1 
Q 19.09375 3.40625 14.796875 8 
Q 10.5 12.59375 8.140625 19.296875 
Q 5.796875 26 5.796875 34.703125 
Q 5.796875 43.40625 8.4375 50.15625 
Q 11.09375 56.90625 15.59375 61.5 
Q 20.09375 66.09375 26.140625 68.5 
Q 32.203125 70.90625 39.09375 70.90625 
Q 43.796875 70.90625 47.4375 70.296875 
Q 51.09375 69.703125 53.6875 68.890625 
Q 56.296875 68.09375 57.9375 67.296875 
Q 59.59375 66.5 60.203125 66.09375 
L 57.09375 58 
Q 54.203125 59.90625 49.390625 61.15625 
Q 44.59375 62.40625 39.59375 62.40625 
Q 34.296875 62.40625 29.9375 60.5 
Q 25.59375 58.59375 22.546875 55 
Q 19.5 51.40625 17.796875 46.25 
Q 16.09375 41.09375 16.09375 34.703125 
Q 16.09375 28.5 17.546875 23.390625 
Q 19 18.296875 21.953125 14.640625 
Q 24.90625 11 29.25 9 
Q 33.59375 7 39.5 7 
Q 43.703125 7 46.640625 7.453125 
Q 49.59375 7.90625 50.90625 8.296875 
z
" id="Ubuntu-71"/>
      <path d="M 53.90625 26 
Q 53.90625 19.796875 52.09375 14.796875 
Q 50.296875 9.796875 47.046875 6.1875 
Q 43.796875 2.59375 39.296875 0.640625 
Q 34.796875 -1.296875 29.5 -1.296875 
Q 24.203125 -1.296875 19.703125 0.640625 
Q 15.203125 2.59375 11.953125 6.1875 
Q 8.703125 9.796875 6.890625 14.796875 
Q 5.09375 19.796875 5.09375 26 
Q 5.09375 32.09375 6.890625 37.140625 
Q 8.703125 42.203125 11.953125 45.796875 
Q 15.203125 49.40625 19.703125 51.34375 
Q 24.203125 53.296875 29.5 53.296875 
Q 34.796875 53.296875 39.296875 51.34375 
Q 43.796875 49.40625 47.046875 45.796875 
Q 50.296875 42.203125 52.09375 37.140625 
Q 53.90625 32.09375 53.90625 26 
z
M 44.203125 26 
Q 44.203125 34.796875 40.25 39.9375 
Q 36.296875 45.09375 29.5 45.09375 
Q 22.703125 45.09375 18.75 39.9375 
Q 14.796875 34.796875 14.796875 26 
Q 14.796875 17.203125 18.75 12.046875 
Q 22.703125 6.90625 29.5 6.90625 
Q 36.296875 6.90625 40.25 12.046875 
Q 44.203125 17.203125 44.203125 26 
z
" id="Ubuntu-111"/>
      <path d="M 23.59375 -1 
Q 15 -0.796875 11.390625 2.703125 
Q 7.796875 6.203125 7.796875 13.59375 
L 7.796875 76 
L 17.09375 77.59375 
L 17.09375 15.09375 
Q 17.09375 12.796875 17.5 11.296875 
Q 17.90625 9.796875 18.796875 8.890625 
Q 19.703125 8 21.203125 7.546875 
Q 22.703125 7.09375 24.90625 6.796875 
z
" id="Ubuntu-108"/>
      <path d="M 41.59375 41 
Q 39.90625 42.40625 36.703125 43.703125 
Q 33.5 45 29.703125 45 
Q 25.703125 45 22.84375 43.546875 
Q 20 42.09375 18.203125 39.546875 
Q 16.40625 37 15.59375 33.5 
Q 14.796875 30 14.796875 26 
Q 14.796875 16.90625 19.296875 11.953125 
Q 23.796875 7 31.296875 7 
Q 35.09375 7 37.640625 7.34375 
Q 40.203125 7.703125 41.59375 8.09375 
z
M 41.59375 76 
L 50.90625 77.59375 
L 50.90625 1.5 
Q 47.703125 0.59375 42.703125 -0.296875 
Q 37.703125 -1.203125 31.203125 -1.203125 
Q 25.203125 -1.203125 20.390625 0.6875 
Q 15.59375 2.59375 12.1875 6.09375 
Q 8.796875 9.59375 6.9375 14.640625 
Q 5.09375 19.703125 5.09375 26 
Q 5.09375 32 6.640625 37 
Q 8.203125 42 11.203125 45.59375 
Q 14.203125 49.203125 18.546875 51.203125 
Q 22.90625 53.203125 28.5 53.203125 
Q 33 53.203125 36.453125 52 
Q 39.90625 50.796875 41.59375 49.703125 
z
" id="Ubuntu-100"/>
      <path id="Ubuntu-32"/>
      <path d="M 30.59375 -1.203125 
Q 24.296875 -1.203125 19.546875 0.796875 
Q 14.796875 2.796875 11.546875 6.390625 
Q 8.296875 10 6.6875 14.953125 
Q 5.09375 19.90625 5.09375 25.90625 
Q 5.09375 31.90625 6.84375 36.90625 
Q 8.59375 41.90625 11.796875 45.546875 
Q 15 49.203125 19.640625 51.25 
Q 24.296875 53.296875 30 53.296875 
Q 33.5 53.296875 37 52.6875 
Q 40.5 52.09375 43.703125 50.796875 
L 41.59375 42.90625 
Q 39.5 43.90625 36.75 44.5 
Q 34 45.09375 30.90625 45.09375 
Q 23.09375 45.09375 18.9375 40.1875 
Q 14.796875 35.296875 14.796875 25.90625 
Q 14.796875 21.703125 15.75 18.203125 
Q 16.703125 14.703125 18.75 12.203125 
Q 20.796875 9.703125 24 8.34375 
Q 27.203125 7 31.796875 7 
Q 35.5 7 38.5 7.703125 
Q 41.5 8.40625 43.203125 9.203125 
L 44.5 1.40625 
Q 43.703125 0.90625 42.203125 0.453125 
Q 40.703125 0 38.796875 -0.34375 
Q 36.90625 -0.703125 34.75 -0.953125 
Q 32.59375 -1.203125 30.59375 -1.203125 
z
" id="Ubuntu-99"/>
      <path d="M 8 50.5 
Q 11.203125 51.296875 16.5 52.1875 
Q 21.796875 53.09375 28.703125 53.09375 
Q 34.90625 53.09375 39 51.34375 
Q 43.09375 49.59375 45.546875 46.4375 
Q 48 43.296875 49 38.890625 
Q 50 34.5 50 29.203125 
L 50 0 
L 40.703125 0 
L 40.703125 27.203125 
Q 40.703125 32 40.046875 35.390625 
Q 39.40625 38.796875 37.90625 40.890625 
Q 36.40625 43 33.90625 43.953125 
Q 31.40625 44.90625 27.703125 44.90625 
Q 26.203125 44.90625 24.59375 44.796875 
Q 23 44.703125 21.546875 44.546875 
Q 20.09375 44.40625 18.9375 44.203125 
Q 17.796875 44 17.296875 43.90625 
L 17.296875 0 
L 8 0 
z
" id="Ubuntu-110"/>
      <path d="M 16.703125 52 
L 36.40625 52 
L 36.40625 44.203125 
L 16.703125 44.203125 
L 16.703125 20.203125 
Q 16.703125 16.296875 17.296875 13.75 
Q 17.90625 11.203125 19.09375 9.75 
Q 20.296875 8.296875 22.09375 7.6875 
Q 23.90625 7.09375 26.296875 7.09375 
Q 30.5 7.09375 33.046875 8.046875 
Q 35.59375 9 36.59375 9.40625 
L 38.40625 1.703125 
Q 37 1 33.5 -0.046875 
Q 30 -1.09375 25.5 -1.09375 
Q 20.203125 -1.09375 16.75 0.25 
Q 13.296875 1.59375 11.1875 4.296875 
Q 9.09375 7 8.25 10.953125 
Q 7.40625 14.90625 7.40625 20.09375 
L 7.40625 66.5 
L 16.703125 68.09375 
z
" id="Ubuntu-116"/>
      <path d="M 5.09375 25.90625 
Q 5.09375 32.796875 7.09375 37.9375 
Q 9.09375 43.09375 12.390625 46.5 
Q 15.703125 49.90625 20 51.59375 
Q 24.296875 53.296875 28.796875 53.296875 
Q 39.296875 53.296875 44.890625 46.75 
Q 50.5 40.203125 50.5 26.796875 
Q 50.5 26.203125 50.5 25.25 
Q 50.5 24.296875 50.40625 23.5 
L 14.796875 23.5 
Q 15.40625 15.40625 19.5 11.203125 
Q 23.59375 7 32.296875 7 
Q 37.203125 7 40.546875 7.84375 
Q 43.90625 8.703125 45.59375 9.5 
L 46.90625 1.703125 
Q 45.203125 0.796875 40.953125 -0.203125 
Q 36.703125 -1.203125 31.296875 -1.203125 
Q 24.5 -1.203125 19.546875 0.84375 
Q 14.59375 2.90625 11.390625 6.5 
Q 8.203125 10.09375 6.640625 15.046875 
Q 5.09375 20 5.09375 25.90625 
z
M 40.796875 31 
Q 40.90625 37.296875 37.65625 41.34375 
Q 34.40625 45.40625 28.703125 45.40625 
Q 25.5 45.40625 23.046875 44.15625 
Q 20.59375 42.90625 18.890625 40.90625 
Q 17.203125 38.90625 16.25 36.296875 
Q 15.296875 33.703125 15 31 
z
" id="Ubuntu-101"/>
     </defs>
     <g transform="translate(18.063125 175.781563)rotate(-90)scale(0.14 -0.14)">
      <use xlink:href="#Ubuntu-71"/>
      <use x="67.199997" xlink:href="#Ubuntu-111"/>
      <use x="126.199982" xlink:href="#Ubuntu-108"/>
      <use x="153.499969" xlink:href="#Ubuntu-100"/>
      <use x="212.399963" xlink:href="#Ubuntu-32"/>
      <use x="235.499954" xlink:href="#Ubuntu-99"/>
      <use x="281.984314" xlink:href="#Ubuntu-111"/>
      <use x="340.984299" xlink:href="#Ubuntu-110"/>
      <use x="398.384293" xlink:href="#Ubuntu-116"/>
      <use x="438.568665" xlink:href="#Ubuntu-101"/>
      <use x="494.468658" xlink:href="#Ubuntu-110"/>
      <use x="551.868652" xlink:href="#Ubuntu-116"/>
     </g>
    </g>
   </g>
   <g id="line2d_29">
    <path clip-path="url(#p6fc7e573ab)" d="M 55.740057 158.298285 
L 57.772535 156.972108 
L 59.805014 155.385734 
L 61.329372 153.951366 
L 63.361851 151.738581 
L 65.902449 148.66004 
L 75.048601 136.738825 
L 77.08108 133.611184 
L 79.621678 129.166198 
L 87.751591 114.473203 
L 90.292189 109.482491 
L 94.357146 100.838332 
L 100.454581 88.022683 
L 103.503299 82.024607 
L 106.043897 77.435562 
L 108.076375 74.203596 
L 110.108853 71.424837 
L 111.633212 69.686604 
L 113.157571 68.244012 
L 115.190049 66.700836 
L 118.746886 64.320133 
L 120.779365 63.168119 
L 122.811843 62.239077 
L 127.893039 60.255016 
L 130.433637 59.387689 
L 133.482355 58.676407 
L 135.514833 58.381386 
L 137.039192 58.454763 
L 138.563551 58.856709 
L 140.087909 59.601931 
L 142.120388 60.996875 
L 144.152866 62.682705 
L 146.185344 64.59139 
L 148.217823 66.814058 
L 150.250301 69.36677 
L 152.28278 72.24932 
L 159.396454 82.682776 
L 162.445171 86.395314 
L 168.034487 92.87211 
L 170.066965 95.687934 
L 173.115683 100.347374 
L 177.18064 106.665444 
L 179.213118 109.408565 
L 181.753716 112.436603 
L 183.278075 113.943791 
L 185.310553 115.585704 
L 187.343031 116.976735 
L 188.86739 117.781287 
L 190.391749 118.362163 
L 192.424227 118.849692 
L 194.456706 119.065338 
L 198.013543 119.200673 
L 200.046021 119.097696 
L 202.0785 118.761011 
L 205.127217 117.92804 
L 211.732772 115.853085 
L 213.76525 114.995411 
L 217.322087 113.153856 
L 219.862685 111.56104 
L 222.911403 109.296718 
L 224.943881 107.636214 
L 226.97636 105.67962 
L 229.008838 103.366806 
L 232.565675 98.844592 
L 236.122512 93.917431 
L 241.203708 87.068934 
L 248.825502 77.21606 
L 252.890459 72.27718 
L 254.922937 70.195632 
L 256.447296 68.837935 
L 257.971655 67.762397 
L 259.496014 67.005144 
L 260.512253 66.742146 
L 261.528492 66.677362 
L 262.544731 66.793171 
L 263.56097 67.058904 
L 264.57721 67.484162 
L 265.593449 68.077848 
L 267.117808 69.27706 
L 269.658406 71.720292 
L 282.361395 84.392528 
L 285.410113 87.915566 
L 288.96695 92.308198 
L 294.048146 98.886106 
L 298.621222 104.404869 
L 301.66994 107.64621 
L 303.194299 109.017893 
L 304.718658 110.113448 
L 306.243016 110.976517 
L 307.767375 111.553647 
L 309.291734 111.841829 
L 311.324212 111.945423 
L 316.405408 111.992243 
L 318.437887 112.23941 
L 320.978485 112.84875 
L 323.010963 113.595047 
L 327.584039 115.495837 
L 329.108398 115.820486 
L 330.632757 115.890656 
L 332.157116 115.698488 
L 333.681474 115.27261 
L 339.27079 113.257218 
L 344.860105 110.938732 
L 346.384464 110.146494 
L 348.416943 108.829237 
L 350.957541 106.902459 
L 354.514378 103.843013 
L 357.054976 101.40634 
L 359.087454 99.096013 
L 360.103693 97.799652 
L 360.103693 97.799652 
" style="fill:none;stroke:#1f77b4;stroke-linecap:square;stroke-width:2.7;"/>
   </g>
   <g id="line2d_30">
    <path clip-path="url(#p6fc7e573ab)" d="M 55.740057 92.719173 
L 57.772535 95.445256 
L 61.329372 100.734728 
L 64.886209 106.153694 
L 66.918688 108.915195 
L 69.459286 112.010332 
L 73.524243 116.57447 
L 75.556721 119.005748 
L 79.113558 123.842861 
L 82.670395 128.525467 
L 86.227232 132.845464 
L 88.76783 135.545305 
L 91.308428 137.90487 
L 94.357146 140.454591 
L 96.389624 141.87337 
L 98.930222 143.350059 
L 105.027657 146.50286 
L 107.060136 147.525348 
L 114.68193 150.837213 
L 117.730647 152.221993 
L 124.844322 155.645751 
L 127.893039 156.663155 
L 130.941757 157.407688 
L 135.006713 158.123371 
L 137.039192 158.169438 
L 141.104148 157.923141 
L 144.152866 157.814689 
L 148.217823 157.699254 
L 150.250301 157.498955 
L 153.299019 156.928968 
L 156.855856 156.269229 
L 158.380215 155.978737 
L 160.412693 155.309907 
L 167.018248 152.735167 
L 169.050726 151.942807 
L 171.083204 151.416454 
L 173.623802 150.92504 
L 175.148161 150.845603 
L 176.67252 151.053546 
L 178.196879 151.516766 
L 181.245596 152.702984 
L 183.786194 153.934448 
L 186.326792 155.416555 
L 193.440467 159.864216 
L 195.472945 160.787641 
L 197.505423 161.475031 
L 199.537902 161.899547 
L 203.094739 162.255998 
L 206.143456 162.448274 
L 208.684054 162.329401 
L 210.716533 162.306504 
L 212.240892 162.530041 
L 214.78149 163.231565 
L 217.830207 164.280561 
L 221.387044 165.816563 
L 227.484479 168.790145 
L 231.041316 170.99596 
L 234.090034 172.779455 
L 236.630632 174.049842 
L 240.695589 175.772515 
L 242.728067 176.337092 
L 244.252426 176.541306 
L 245.776785 176.539278 
L 249.333622 176.16116 
L 251.3661 175.790695 
L 253.398579 175.25754 
L 254.922937 174.662753 
L 256.447296 173.796218 
L 257.971655 172.550646 
L 260.004133 170.451426 
L 263.56097 166.39002 
L 267.117808 162.309274 
L 270.674645 158.555906 
L 272.199004 157.222641 
L 273.723362 156.178638 
L 275.247721 155.430099 
L 276.77208 154.996218 
L 278.296439 154.830857 
L 279.820797 154.940616 
L 280.837037 155.202263 
L 282.361395 155.845133 
L 284.393874 157.066091 
L 286.934472 158.904545 
L 289.47507 161.081205 
L 292.015668 163.62527 
L 294.556266 166.422724 
L 297.096864 169.564783 
L 305.226777 180.057994 
L 307.259255 182.217327 
L 309.291734 184.024645 
L 311.832332 185.948631 
L 314.881049 187.923103 
L 316.913528 189.059839 
L 318.946006 189.897337 
L 320.978485 190.471656 
L 324.535322 191.168088 
L 326.5678 191.295934 
L 329.616518 191.163538 
L 333.173355 190.766019 
L 337.238311 190.226499 
L 346.384464 189.083456 
L 348.925062 188.551504 
L 350.449421 188.002312 
L 352.481899 187.034989 
L 354.514378 185.827797 
L 356.546856 184.403843 
L 358.579334 182.728147 
L 360.103693 181.340991 
L 360.103693 181.340991 
" style="fill:none;stroke:#ff7f0e;stroke-linecap:square;stroke-width:2.7;"/>
   </g>
   <g id="line2d_31">
    <path clip-path="url(#p6fc7e573ab)" d="M 55.740057 123.238781 
L 59.805014 122.436223 
L 62.345612 122.244926 
L 67.426807 122.015277 
L 69.459286 122.248361 
L 71.491764 122.717624 
L 73.524243 123.386846 
L 77.589199 125.061545 
L 85.210993 128.33348 
L 87.243472 129.565061 
L 89.27595 131.064057 
L 92.324668 133.702987 
L 96.897744 137.793674 
L 98.930222 139.539511 
L 100.962701 140.996865 
L 107.060136 144.866879 
L 109.092614 145.809074 
L 111.125092 146.434211 
L 114.17381 147.063449 
L 115.698169 147.189675 
L 117.222528 147.079909 
L 119.255006 146.646532 
L 122.811843 145.822552 
L 125.860561 145.189261 
L 127.893039 144.555292 
L 131.957996 143.176555 
L 133.990474 142.784428 
L 135.514833 142.687557 
L 137.547311 142.839987 
L 139.57979 143.196874 
L 142.120388 143.905038 
L 144.152866 144.704592 
L 145.677225 145.566547 
L 147.201584 146.702994 
L 149.234062 148.634322 
L 153.299019 152.594162 
L 158.888334 157.824067 
L 164.985769 164.343823 
L 171.591324 171.635857 
L 174.640042 174.446089 
L 177.18064 176.880711 
L 180.737477 180.654054 
L 182.769955 183.030885 
L 188.359271 189.959011 
L 190.899869 192.504176 
L 195.981065 197.232238 
L 200.554141 201.516409 
L 206.651576 207.445137 
L 208.684054 209.074923 
L 210.716533 210.340452 
L 213.257131 211.607398 
L 215.289609 212.319784 
L 216.813968 212.651878 
L 218.338327 212.788175 
L 220.370805 212.71065 
L 222.403283 212.415249 
L 225.960121 211.626752 
L 227.992599 210.892081 
L 229.516958 210.141605 
L 231.549436 208.869107 
L 234.090034 206.960079 
L 236.122512 205.090059 
L 237.646871 203.43293 
L 239.17123 201.486739 
L 241.203708 198.434437 
L 243.236187 194.93631 
L 245.268665 191.020527 
L 247.301143 186.652606 
L 249.841741 180.561229 
L 261.528492 151.311815 
L 265.593449 141.877386 
L 268.642166 135.258596 
L 271.182764 130.192258 
L 274.231482 124.662817 
L 278.296439 117.82843 
L 280.837037 113.922654 
L 283.377635 110.498015 
L 285.410113 108.092366 
L 286.934472 106.556738 
L 288.458831 105.324624 
L 290.491309 104.069135 
L 296.588744 100.963537 
L 300.145581 99.33031 
L 302.17806 98.778898 
L 304.210538 98.516045 
L 305.734897 98.545499 
L 307.259255 98.783841 
L 314.37293 100.245997 
L 316.405408 100.304903 
L 319.962245 100.061121 
L 324.535322 99.680828 
L 326.05968 99.34266 
L 328.092159 98.670428 
L 332.665235 96.942068 
L 342.319507 94.188163 
L 344.351986 93.415688 
L 346.384464 92.408684 
L 348.416943 91.125651 
L 350.449421 89.582595 
L 353.498138 86.950623 
L 356.546856 83.971827 
L 360.103693 80.318172 
L 360.103693 80.318172 
" style="fill:none;stroke:#2ca02c;stroke-linecap:square;stroke-width:2.7;"/>
   </g>
   <g id="line2d_32">
    <path clip-path="url(#p6fc7e573ab)" d="M 55.740057 183.127221 
L 58.788774 177.578503 
L 62.345612 170.588948 
L 65.902449 163.066051 
L 69.967405 153.874213 
L 74.540482 142.911685 
L 81.146036 126.631904 
L 89.78407 148.056415 
L 94.357146 158.735501 
L 97.913983 166.533025 
L 101.47082 173.818784 
L 105.027657 180.558397 
L 108.076375 185.889204 
L 111.125092 190.808411 
L 114.17381 195.323321 
L 117.222528 199.446585 
L 120.271245 203.194891 
L 123.319963 206.587826 
L 126.36868 209.64692 
L 129.417398 212.394851 
L 132.466115 214.854784 
L 135.514833 217.04985 
L 138.563551 219.002727 
L 142.120388 221.004156 
L 145.677225 222.73875 
L 149.234062 224.23734 
L 153.299019 225.697378 
L 157.363975 226.924642 
L 161.937052 228.069476 
L 167.018248 229.098052 
L 172.607563 229.99008 
L 178.704998 230.738322 
L 185.818673 231.38635 
L 194.456706 231.938525 
L 205.127217 232.382551 
L 218.846446 232.71911 
L 238.66311 232.962794 
L 271.182764 233.110862 
L 345.368225 233.169643 
L 360.103693 233.171364 
L 360.103693 233.171364 
" style="fill:none;stroke:#808080;stroke-dasharray:9.99,4.32;stroke-dashoffset:0;stroke-width:2.7;"/>
   </g>
   <g id="line2d_33">
    <path clip-path="url(#p6fc7e573ab)" d="M 55.740057 72.654938 
L 58.788774 77.66587 
L 61.837492 83.122248 
L 64.886209 89.020471 
L 68.443047 96.43972 
L 71.999884 104.392275 
L 76.064841 114.031085 
L 81.146036 126.418317 
L 87.243472 111.370996 
L 91.308428 101.877841 
L 94.865265 94.083523 
L 98.422103 86.840253 
L 101.47082 81.100516 
L 104.519538 75.805092 
L 107.568255 70.954105 
L 110.616973 66.539459 
L 113.66569 62.546711 
L 116.714408 58.956674 
L 119.763126 55.746789 
L 122.811843 52.892277 
L 125.860561 50.367089 
L 128.909278 48.144683 
L 131.957996 46.198642 
L 135.006713 44.503158 
L 138.055431 43.0334 
L 141.612268 41.572585 
L 145.169105 40.351985 
L 149.234062 39.21012 
L 153.299019 38.297053 
L 157.872095 37.496146 
L 162.953291 36.832843 
L 169.050726 36.279467 
L 176.1644 35.876421 
L 184.802434 35.619711 
L 196.997304 35.50265 
L 218.846446 35.56252 
L 281.853276 35.780296 
L 360.103693 35.817802 
L 360.103693 35.817802 
" style="fill:none;stroke:#808080;stroke-dasharray:9.99,4.32;stroke-dashoffset:0;stroke-width:2.7;"/>
   </g>
   <g id="line2d_34">
    <path clip-path="url(#p6fc7e573ab)" d="M 55.740057 127.89108 
L 65.902449 127.0743 
L 73.524243 126.669942 
L 80.129797 126.527554 
L 86.735352 126.605877 
L 93.849026 126.919758 
L 102.487059 127.543446 
L 115.190049 128.721602 
L 138.563551 130.905718 
L 151.77466 131.897139 
L 164.985769 132.668366 
L 179.213118 133.277096 
L 195.472945 133.748962 
L 215.797729 134.103742 
L 242.728067 134.336148 
L 286.426352 134.461964 
L 360.103693 134.494583 
L 360.103693 134.494583 
" style="fill:none;stroke:#000000;stroke-dasharray:17.28,4.32,2.7,4.32;stroke-dashoffset:0;stroke-width:2.7;"/>
   </g>
   <g id="patch_3">
    <path d="M 40.521875 243.055 
L 40.521875 25.615 
" style="fill:none;stroke:#808080;stroke-linecap:square;stroke-linejoin:miter;stroke-width:0.5;"/>
   </g>
   <g id="patch_4">
    <path d="M 40.521875 243.055 
L 375.321875 243.055 
" style="fill:none;stroke:#808080;stroke-linecap:square;stroke-linejoin:miter;stroke-width:0.5;"/>
   </g>
   <g id="text_17">
    <!-- Samples from surrogate -->
    <defs>
     <path d="M 24.703125 6.90625 
Q 39.90625 6.90625 39.90625 17.296875 
Q 39.90625 20.5 38.546875 22.75 
Q 37.203125 25 34.890625 26.640625 
Q 32.59375 28.296875 29.640625 29.5 
Q 26.703125 30.703125 23.40625 31.90625 
Q 19.59375 33.203125 16.1875 34.84375 
Q 12.796875 36.5 10.296875 38.75 
Q 7.796875 41 6.34375 44.09375 
Q 4.90625 47.203125 4.90625 51.59375 
Q 4.90625 60.703125 11.09375 65.796875 
Q 17.296875 70.90625 28.203125 70.90625 
Q 34.5 70.90625 39.640625 69.546875 
Q 44.796875 68.203125 47.203125 66.59375 
L 44.09375 58.703125 
Q 42 60 37.84375 61.25 
Q 33.703125 62.5 28.203125 62.5 
Q 25.40625 62.5 23 61.890625 
Q 20.59375 61.296875 18.796875 60.09375 
Q 17 58.90625 15.953125 57.046875 
Q 14.90625 55.203125 14.90625 52.703125 
Q 14.90625 49.90625 16 48 
Q 17.09375 46.09375 19.09375 44.640625 
Q 21.09375 43.203125 23.75 42 
Q 26.40625 40.796875 29.59375 39.59375 
Q 34.09375 37.796875 37.84375 36 
Q 41.59375 34.203125 44.34375 31.703125 
Q 47.09375 29.203125 48.59375 25.75 
Q 50.09375 22.296875 50.09375 17.40625 
Q 50.09375 8.296875 43.4375 3.390625 
Q 36.796875 -1.5 24.703125 -1.5 
Q 20.59375 -1.5 17.140625 -0.953125 
Q 13.703125 -0.40625 11 0.34375 
Q 8.296875 1.09375 6.34375 1.9375 
Q 4.40625 2.796875 3.296875 3.40625 
L 6.203125 11.40625 
Q 8.5 10.09375 13.203125 8.5 
Q 17.90625 6.90625 24.703125 6.90625 
z
" id="Ubuntu-83"/>
     <path d="M 25.59375 6.703125 
Q 28.90625 6.703125 31.453125 6.84375 
Q 34 7 35.703125 7.40625 
L 35.703125 22.90625 
Q 34.703125 23.40625 32.453125 23.75 
Q 30.203125 24.09375 27 24.09375 
Q 24.90625 24.09375 22.546875 23.796875 
Q 20.203125 23.5 18.25 22.546875 
Q 16.296875 21.59375 15 19.9375 
Q 13.703125 18.296875 13.703125 15.59375 
Q 13.703125 10.59375 16.890625 8.640625 
Q 20.09375 6.703125 25.59375 6.703125 
z
M 24.796875 53.296875 
Q 30.40625 53.296875 34.25 51.84375 
Q 38.09375 50.40625 40.4375 47.75 
Q 42.796875 45.09375 43.796875 41.4375 
Q 44.796875 37.796875 44.796875 33.40625 
L 44.796875 0.90625 
Q 43.59375 0.703125 41.4375 0.34375 
Q 39.296875 0 36.59375 -0.296875 
Q 33.90625 -0.59375 30.75 -0.84375 
Q 27.59375 -1.09375 24.5 -1.09375 
Q 20.09375 -1.09375 16.390625 -0.1875 
Q 12.703125 0.703125 10 2.640625 
Q 7.296875 4.59375 5.796875 7.796875 
Q 4.296875 11 4.296875 15.5 
Q 4.296875 19.796875 6.046875 22.890625 
Q 7.796875 26 10.796875 27.890625 
Q 13.796875 29.796875 17.796875 30.6875 
Q 21.796875 31.59375 26.203125 31.59375 
Q 27.59375 31.59375 29.09375 31.4375 
Q 30.59375 31.296875 31.9375 31.046875 
Q 33.296875 30.796875 34.296875 30.59375 
Q 35.296875 30.40625 35.703125 30.296875 
L 35.703125 32.90625 
Q 35.703125 35.203125 35.203125 37.453125 
Q 34.703125 39.703125 33.390625 41.453125 
Q 32.09375 43.203125 29.84375 44.25 
Q 27.59375 45.296875 24 45.296875 
Q 19.40625 45.296875 15.953125 44.640625 
Q 12.5 44 10.796875 43.296875 
L 9.703125 51 
Q 11.5 51.796875 15.703125 52.546875 
Q 19.90625 53.296875 24.796875 53.296875 
z
" id="Ubuntu-97"/>
     <path d="M 8 50.5 
Q 11.203125 51.296875 16.453125 52.1875 
Q 21.703125 53.09375 28.59375 53.09375 
Q 33.59375 53.09375 37 51.75 
Q 40.40625 50.40625 42.703125 47.796875 
Q 43.40625 48.296875 44.90625 49.1875 
Q 46.40625 50.09375 48.59375 50.9375 
Q 50.796875 51.796875 53.5 52.4375 
Q 56.203125 53.09375 59.296875 53.09375 
Q 65.296875 53.09375 69.09375 51.34375 
Q 72.90625 49.59375 75.046875 46.390625 
Q 77.203125 43.203125 77.953125 38.796875 
Q 78.703125 34.40625 78.703125 29.203125 
L 78.703125 0 
L 69.40625 0 
L 69.40625 27.203125 
Q 69.40625 31.796875 68.953125 35.09375 
Q 68.5 38.40625 67.25 40.59375 
Q 66 42.796875 63.84375 43.84375 
Q 61.703125 44.90625 58.296875 44.90625 
Q 53.59375 44.90625 50.546875 43.65625 
Q 47.5 42.40625 46.40625 41.40625 
Q 47.203125 38.796875 47.59375 35.6875 
Q 48 32.59375 48 29.203125 
L 48 0 
L 38.703125 0 
L 38.703125 27.203125 
Q 38.703125 31.796875 38.203125 35.09375 
Q 37.703125 38.40625 36.453125 40.59375 
Q 35.203125 42.796875 33.046875 43.84375 
Q 30.90625 44.90625 27.59375 44.90625 
Q 26.203125 44.90625 24.59375 44.796875 
Q 23 44.703125 21.546875 44.546875 
Q 20.09375 44.40625 18.890625 44.203125 
Q 17.703125 44 17.296875 43.90625 
L 17.296875 0 
L 8 0 
z
" id="Ubuntu-109"/>
     <path d="M 44.09375 25.90625 
Q 44.09375 35 39.59375 39.890625 
Q 35.09375 44.796875 27.59375 44.796875 
Q 23.40625 44.796875 21.046875 44.5 
Q 18.703125 44.203125 17.296875 43.796875 
L 17.296875 11 
Q 19 9.59375 22.203125 8.296875 
Q 25.40625 7 29.203125 7 
Q 33.203125 7 36.046875 8.453125 
Q 38.90625 9.90625 40.703125 12.453125 
Q 42.5 15 43.296875 18.453125 
Q 44.09375 21.90625 44.09375 25.90625 
z
M 53.796875 25.90625 
Q 53.796875 20 52.25 15 
Q 50.703125 10 47.703125 6.390625 
Q 44.703125 2.796875 40.34375 0.796875 
Q 36 -1.203125 30.40625 -1.203125 
Q 25.90625 -1.203125 22.453125 0 
Q 19 1.203125 17.296875 2.296875 
L 17.296875 -18.5 
L 8 -18.5 
L 8 50.40625 
Q 11.296875 51.203125 16.25 52.140625 
Q 21.203125 53.09375 27.703125 53.09375 
Q 33.703125 53.09375 38.5 51.1875 
Q 43.296875 49.296875 46.6875 45.796875 
Q 50.09375 42.296875 51.9375 37.25 
Q 53.796875 32.203125 53.796875 25.90625 
z
" id="Ubuntu-112"/>
     <path d="M 20.09375 6.703125 
Q 25.796875 6.703125 28.546875 8.203125 
Q 31.296875 9.703125 31.296875 13 
Q 31.296875 16.40625 28.59375 18.40625 
Q 25.90625 20.40625 19.703125 22.90625 
Q 16.703125 24.09375 13.953125 25.34375 
Q 11.203125 26.59375 9.203125 28.296875 
Q 7.203125 30 6 32.390625 
Q 4.796875 34.796875 4.796875 38.296875 
Q 4.796875 45.203125 9.890625 49.25 
Q 15 53.296875 23.796875 53.296875 
Q 26 53.296875 28.203125 53.046875 
Q 30.40625 52.796875 32.296875 52.4375 
Q 34.203125 52.09375 35.640625 51.6875 
Q 37.09375 51.296875 37.90625 51 
L 36.203125 43 
Q 34.703125 43.796875 31.5 44.640625 
Q 28.296875 45.5 23.796875 45.5 
Q 19.90625 45.5 17 43.953125 
Q 14.09375 42.40625 14.09375 39.09375 
Q 14.09375 37.40625 14.75 36.09375 
Q 15.40625 34.796875 16.75 33.75 
Q 18.09375 32.703125 20.09375 31.796875 
Q 22.09375 30.90625 24.90625 29.90625 
Q 28.59375 28.5 31.5 27.140625 
Q 34.40625 25.796875 36.453125 24 
Q 38.5 22.203125 39.59375 19.640625 
Q 40.703125 17.09375 40.703125 13.40625 
Q 40.703125 6.203125 35.34375 2.5 
Q 30 -1.203125 20.09375 -1.203125 
Q 13.203125 -1.203125 9.296875 -0.046875 
Q 5.40625 1.09375 4 1.703125 
L 5.703125 9.703125 
Q 7.296875 9.09375 10.796875 7.890625 
Q 14.296875 6.703125 20.09375 6.703125 
z
" id="Ubuntu-115"/>
     <path d="M 28.296875 77.59375 
Q 32.40625 77.59375 35.34375 77 
Q 38.296875 76.40625 39.5 75.90625 
L 37.796875 67.90625 
Q 36.59375 68.5 34.390625 69.046875 
Q 32.203125 69.59375 29 69.59375 
Q 22.5 69.59375 19.890625 66.046875 
Q 17.296875 62.5 17.296875 56.5 
L 17.296875 52 
L 37.296875 52 
L 37.296875 44.203125 
L 17.296875 44.203125 
L 17.296875 0 
L 8 0 
L 8 56.703125 
Q 8 66.703125 12.890625 72.140625 
Q 17.796875 77.59375 28.296875 77.59375 
z
" id="Ubuntu-102"/>
     <path d="M 27.203125 53.09375 
Q 28.40625 53.09375 29.953125 52.9375 
Q 31.5 52.796875 33 52.546875 
Q 34.5 52.296875 35.75 52.046875 
Q 37 51.796875 37.59375 51.59375 
L 36 43.5 
Q 34.90625 43.90625 32.34375 44.453125 
Q 29.796875 45 25.796875 45 
Q 23.203125 45 20.640625 44.453125 
Q 18.09375 43.90625 17.296875 43.703125 
L 17.296875 0 
L 8 0 
L 8 49.796875 
Q 11.296875 51 16.1875 52.046875 
Q 21.09375 53.09375 27.203125 53.09375 
z
" id="Ubuntu-114"/>
     <path d="M 49.40625 1.5 
Q 46.203125 0.703125 40.953125 -0.1875 
Q 35.703125 -1.09375 28.796875 -1.09375 
Q 22.796875 -1.09375 18.6875 0.65625 
Q 14.59375 2.40625 12.09375 5.59375 
Q 9.59375 8.796875 8.5 13.140625 
Q 7.40625 17.5 7.40625 22.796875 
L 7.40625 52 
L 16.703125 52 
L 16.703125 24.796875 
Q 16.703125 15.296875 19.703125 11.1875 
Q 22.703125 7.09375 29.796875 7.09375 
Q 31.296875 7.09375 32.890625 7.1875 
Q 34.5 7.296875 35.890625 7.4375 
Q 37.296875 7.59375 38.4375 7.75 
Q 39.59375 7.90625 40.09375 8.09375 
L 40.09375 52 
L 49.40625 52 
z
" id="Ubuntu-117"/>
     <path d="M 40.59375 5.203125 
Q 39.40625 4.40625 35.953125 3.15625 
Q 32.5 1.90625 27.90625 1.90625 
Q 23.203125 1.90625 19.046875 3.40625 
Q 14.90625 4.90625 11.796875 8.046875 
Q 8.703125 11.203125 6.890625 15.890625 
Q 5.09375 20.59375 5.09375 27.09375 
Q 5.09375 32.796875 6.796875 37.546875 
Q 8.5 42.296875 11.75 45.75 
Q 15 49.203125 19.703125 51.140625 
Q 24.40625 53.09375 30.296875 53.09375 
Q 36.796875 53.09375 41.640625 52.140625 
Q 46.5 51.203125 49.796875 50.40625 
L 49.796875 4 
Q 49.796875 -8 43.59375 -13.390625 
Q 37.40625 -18.796875 24.796875 -18.796875 
Q 19.90625 -18.796875 15.546875 -18 
Q 11.203125 -17.203125 8 -16.09375 
L 9.703125 -8 
Q 12.5 -9.09375 16.546875 -9.9375 
Q 20.59375 -10.796875 25 -10.796875 
Q 33.296875 -10.796875 36.9375 -7.5 
Q 40.59375 -4.203125 40.59375 3 
z
M 40.5 43.796875 
Q 39.09375 44.203125 36.75 44.546875 
Q 34.40625 44.90625 30.40625 44.90625 
Q 22.90625 44.90625 18.84375 40 
Q 14.796875 35.09375 14.796875 27 
Q 14.796875 22.5 15.9375 19.296875 
Q 17.09375 16.09375 19.046875 14 
Q 21 11.90625 23.546875 10.90625 
Q 26.09375 9.90625 28.796875 9.90625 
Q 32.5 9.90625 35.59375 10.953125 
Q 38.703125 12 40.5 13.40625 
z
" id="Ubuntu-103"/>
    </defs>
    <g transform="translate(120.645625 19.615)scale(0.16 -0.16)">
     <use xlink:href="#Ubuntu-83"/>
     <use x="53.199997" xlink:href="#Ubuntu-97"/>
     <use x="105.399994" xlink:href="#Ubuntu-109"/>
     <use x="191.499985" xlink:href="#Ubuntu-112"/>
     <use x="250.399979" xlink:href="#Ubuntu-108"/>
     <use x="277.699966" xlink:href="#Ubuntu-101"/>
     <use x="333.59996" xlink:href="#Ubuntu-115"/>
     <use x="378.199951" xlink:href="#Ubuntu-32"/>
     <use x="401.299942" xlink:href="#Ubuntu-102"/>
     <use x="439.899933" xlink:href="#Ubuntu-114"/>
     <use x="478.499924" xlink:href="#Ubuntu-111"/>
     <use x="537.499908" xlink:href="#Ubuntu-109"/>
     <use x="623.599899" xlink:href="#Ubuntu-32"/>
     <use x="646.69989" xlink:href="#Ubuntu-115"/>
     <use x="691.299881" xlink:href="#Ubuntu-117"/>
     <use x="748.699875" xlink:href="#Ubuntu-114"/>
     <use x="787.299866" xlink:href="#Ubuntu-114"/>
     <use x="825.899857" xlink:href="#Ubuntu-111"/>
     <use x="884.899841" xlink:href="#Ubuntu-103"/>
     <use x="942.699829" xlink:href="#Ubuntu-97"/>
     <use x="994.899826" xlink:href="#Ubuntu-116"/>
     <use x="1035.084198" xlink:href="#Ubuntu-101"/>
    </g>
   </g>
   <g id="legend_1">
    <g id="patch_5">
     <path d="M 398.513875 159.67375 
L 572.483563 159.67375 
Q 575.283563 159.67375 575.283563 156.87375 
L 575.283563 35.415 
Q 575.283563 32.615 572.483563 32.615 
L 398.513875 32.615 
Q 395.713875 32.615 395.713875 35.415 
L 395.713875 156.87375 
Q 395.713875 159.67375 398.513875 159.67375 
z
" style="fill:#ffffff;opacity:0.8;stroke:#cccccc;stroke-linejoin:miter;stroke-width:0.24;"/>
    </g>
    <g id="line2d_35">
     <path d="M 401.313875 44.178125 
L 429.313875 44.178125 
" style="fill:none;stroke:#1f77b4;stroke-linecap:square;stroke-width:2.7;"/>
    </g>
    <g id="line2d_36"/>
    <g id="text_18">
     <!-- Sample 1 -->
     <g transform="translate(440.513875 49.078125)scale(0.14 -0.14)">
      <use xlink:href="#Ubuntu-83"/>
      <use x="53.199997" xlink:href="#Ubuntu-97"/>
      <use x="105.399994" xlink:href="#Ubuntu-109"/>
      <use x="191.499985" xlink:href="#Ubuntu-112"/>
      <use x="250.399979" xlink:href="#Ubuntu-108"/>
      <use x="277.699966" xlink:href="#Ubuntu-101"/>
      <use x="333.59996" xlink:href="#Ubuntu-32"/>
      <use x="356.699951" xlink:href="#Ubuntu-49"/>
     </g>
    </g>
    <g id="line2d_37">
     <path d="M 401.313875 64.63125 
L 429.313875 64.63125 
" style="fill:none;stroke:#ff7f0e;stroke-linecap:square;stroke-width:2.7;"/>
    </g>
    <g id="line2d_38"/>
    <g id="text_19">
     <!-- Sample 2 -->
     <g transform="translate(440.513875 69.53125)scale(0.14 -0.14)">
      <use xlink:href="#Ubuntu-83"/>
      <use x="53.199997" xlink:href="#Ubuntu-97"/>
      <use x="105.399994" xlink:href="#Ubuntu-109"/>
      <use x="191.499985" xlink:href="#Ubuntu-112"/>
      <use x="250.399979" xlink:href="#Ubuntu-108"/>
      <use x="277.699966" xlink:href="#Ubuntu-101"/>
      <use x="333.59996" xlink:href="#Ubuntu-32"/>
      <use x="356.699951" xlink:href="#Ubuntu-50"/>
     </g>
    </g>
    <g id="line2d_39">
     <path d="M 401.313875 85.084375 
L 429.313875 85.084375 
" style="fill:none;stroke:#2ca02c;stroke-linecap:square;stroke-width:2.7;"/>
    </g>
    <g id="line2d_40"/>
    <g id="text_20">
     <!-- Sample 3 -->
     <g transform="translate(440.513875 89.984375)scale(0.14 -0.14)">
      <use xlink:href="#Ubuntu-83"/>
      <use x="53.199997" xlink:href="#Ubuntu-97"/>
      <use x="105.399994" xlink:href="#Ubuntu-109"/>
      <use x="191.499985" xlink:href="#Ubuntu-112"/>
      <use x="250.399979" xlink:href="#Ubuntu-108"/>
      <use x="277.699966" xlink:href="#Ubuntu-101"/>
      <use x="333.59996" xlink:href="#Ubuntu-32"/>
      <use x="356.699951" xlink:href="#Ubuntu-51"/>
     </g>
    </g>
    <g id="line2d_41">
     <path d="M 401.313875 105.635937 
L 429.313875 105.635937 
" style="fill:none;stroke:#808080;stroke-dasharray:9.99,4.32;stroke-dashoffset:0;stroke-width:2.7;"/>
    </g>
    <g id="line2d_42"/>
    <g id="text_21">
     <!-- Upper/Lower Bound -->
     <defs>
      <path d="M 34.40625 -1.5 
Q 27.59375 -1.5 22.59375 0.59375 
Q 17.59375 2.703125 14.390625 6.34375 
Q 11.203125 10 9.640625 15 
Q 8.09375 20 8.09375 25.796875 
L 8.09375 69.296875 
L 17.796875 69.296875 
L 17.796875 26.90625 
Q 17.796875 16.5 22.390625 11.796875 
Q 27 7.09375 34.40625 7.09375 
Q 38.09375 7.09375 41.140625 8.25 
Q 44.203125 9.40625 46.390625 11.796875 
Q 48.59375 14.203125 49.796875 17.953125 
Q 51 21.703125 51 26.90625 
L 51 69.296875 
L 60.703125 69.296875 
L 60.703125 25.796875 
Q 60.703125 20 59.140625 15 
Q 57.59375 10 54.34375 6.34375 
Q 51.09375 2.703125 46.140625 0.59375 
Q 41.203125 -1.5 34.40625 -1.5 
z
" id="Ubuntu-85"/>
      <path d="M 7.09375 -18.5 
L -2.40625 -18.5 
L 31.5 78.296875 
L 40.796875 78.296875 
z
" id="Ubuntu-47"/>
      <path d="M 50.296875 8.40625 
L 50.296875 0 
L 8.59375 0 
L 8.59375 69.296875 
L 18.296875 69.296875 
L 18.296875 8.40625 
z
" id="Ubuntu-76"/>
      <path d="M 50.5 0 
Q 47.703125 7.203125 44.546875 16.453125 
Q 41.40625 25.703125 38.796875 35.703125 
Q 36.203125 25.703125 33.09375 16.453125 
Q 30 7.203125 27.203125 0 
L 19.09375 0 
Q 14.5 10.296875 10.09375 23.5 
Q 5.703125 36.703125 1.796875 52 
L 11.796875 52 
Q 12.796875 47.296875 14.1875 41.796875 
Q 15.59375 36.296875 17.140625 30.796875 
Q 18.703125 25.296875 20.390625 20.1875 
Q 22.09375 15.09375 23.59375 11.296875 
Q 25.296875 16 26.9375 21.25 
Q 28.59375 26.5 30.09375 31.84375 
Q 31.59375 37.203125 32.9375 42.34375 
Q 34.296875 47.5 35.296875 52 
L 43 52 
Q 43.90625 47.5 45.203125 42.34375 
Q 46.5 37.203125 48 31.84375 
Q 49.5 26.5 51.140625 21.25 
Q 52.796875 16 54.5 11.296875 
Q 56 15.09375 57.640625 20.1875 
Q 59.296875 25.296875 60.890625 30.796875 
Q 62.5 36.296875 63.890625 41.796875 
Q 65.296875 47.296875 66.296875 52 
L 75.90625 52 
Q 72 36.703125 67.59375 23.5 
Q 63.203125 10.296875 58.59375 0 
z
" id="Ubuntu-119"/>
      <path d="M 27.296875 -0.59375 
Q 25.203125 -0.59375 22.75 -0.5 
Q 20.296875 -0.40625 17.84375 -0.203125 
Q 15.40625 0 13 0.296875 
Q 10.59375 0.59375 8.59375 1.09375 
L 8.59375 68.296875 
Q 10.59375 68.796875 13 69.09375 
Q 15.40625 69.40625 17.84375 69.59375 
Q 20.296875 69.796875 22.6875 69.890625 
Q 25.09375 70 27.203125 70 
Q 33.203125 70 38.453125 69.09375 
Q 43.703125 68.203125 47.546875 66.046875 
Q 51.40625 63.90625 53.59375 60.40625 
Q 55.796875 56.90625 55.796875 51.796875 
Q 55.796875 46.09375 53.09375 42.4375 
Q 50.40625 38.796875 45.90625 37 
Q 52 35.203125 55.59375 31.296875 
Q 59.203125 27.40625 59.203125 20.296875 
Q 59.203125 9.90625 51.546875 4.65625 
Q 43.90625 -0.59375 27.296875 -0.59375 
z
M 18.203125 32.296875 
L 18.203125 7.90625 
Q 19.296875 7.796875 20.796875 7.703125 
Q 22.09375 7.59375 23.84375 7.546875 
Q 25.59375 7.5 27.90625 7.5 
Q 32.203125 7.5 36.046875 8.046875 
Q 39.90625 8.59375 42.796875 10 
Q 45.703125 11.40625 47.453125 13.90625 
Q 49.203125 16.40625 49.203125 20.203125 
Q 49.203125 23.59375 47.890625 25.9375 
Q 46.59375 28.296875 44.140625 29.6875 
Q 41.703125 31.09375 38.296875 31.6875 
Q 34.90625 32.296875 30.703125 32.296875 
z
M 18.203125 40.09375 
L 28.40625 40.09375 
Q 32 40.09375 35.203125 40.59375 
Q 38.40625 41.09375 40.75 42.390625 
Q 43.09375 43.703125 44.4375 45.796875 
Q 45.796875 47.90625 45.796875 51.09375 
Q 45.796875 54.09375 44.390625 56.140625 
Q 43 58.203125 40.546875 59.453125 
Q 38.09375 60.703125 34.796875 61.296875 
Q 31.5 61.90625 27.796875 61.90625 
Q 24.09375 61.90625 22 61.796875 
Q 19.90625 61.703125 18.203125 61.5 
z
" id="Ubuntu-66"/>
     </defs>
     <g transform="translate(440.513875 110.535937)scale(0.14 -0.14)">
      <use xlink:href="#Ubuntu-85"/>
      <use x="68.799988" xlink:href="#Ubuntu-112"/>
      <use x="127.699982" xlink:href="#Ubuntu-112"/>
      <use x="186.599976" xlink:href="#Ubuntu-101"/>
      <use x="242.499969" xlink:href="#Ubuntu-114"/>
      <use x="281.03746" xlink:href="#Ubuntu-47"/>
      <use x="319.437454" xlink:href="#Ubuntu-76"/>
      <use x="371.321823" xlink:href="#Ubuntu-111"/>
      <use x="430.306183" xlink:href="#Ubuntu-119"/>
      <use x="508.006165" xlink:href="#Ubuntu-101"/>
      <use x="563.906158" xlink:href="#Ubuntu-114"/>
      <use x="602.506149" xlink:href="#Ubuntu-32"/>
      <use x="625.60614" xlink:href="#Ubuntu-66"/>
      <use x="689.906128" xlink:href="#Ubuntu-111"/>
      <use x="748.906113" xlink:href="#Ubuntu-117"/>
      <use x="806.306107" xlink:href="#Ubuntu-110"/>
      <use x="863.7061" xlink:href="#Ubuntu-100"/>
     </g>
    </g>
    <g id="line2d_43">
     <path d="M 401.313875 126.089062 
L 429.313875 126.089062 
" style="fill:none;stroke:#000000;stroke-dasharray:17.28,4.32,2.7,4.32;stroke-dashoffset:0;stroke-width:2.7;"/>
    </g>
    <g id="line2d_44"/>
    <g id="text_22">
     <!-- Posterior Mean -->
     <defs>
      <path d="M 27 70 
Q 41.59375 70 49.4375 64.453125 
Q 57.296875 58.90625 57.296875 47.90625 
Q 57.296875 41.90625 55.140625 37.65625 
Q 53 33.40625 48.953125 30.75 
Q 44.90625 28.09375 39.09375 26.890625 
Q 33.296875 25.703125 26 25.703125 
L 18.296875 25.703125 
L 18.296875 0 
L 8.59375 0 
L 8.59375 68.296875 
Q 12.703125 69.296875 17.75 69.640625 
Q 22.796875 70 27 70 
z
M 27.796875 61.5 
Q 21.59375 61.5 18.296875 61.203125 
L 18.296875 34 
L 25.59375 34 
Q 30.59375 34 34.59375 34.640625 
Q 38.59375 35.296875 41.34375 36.84375 
Q 44.09375 38.40625 45.59375 41.09375 
Q 47.09375 43.796875 47.09375 48 
Q 47.09375 52 45.546875 54.59375 
Q 44 57.203125 41.34375 58.75 
Q 38.703125 60.296875 35.203125 60.890625 
Q 31.703125 61.5 27.796875 61.5 
z
" id="Ubuntu-80"/>
      <path d="M 17.296875 0 
L 8 0 
L 8 52 
L 17.296875 52 
z
M 12.59375 61.40625 
Q 10.09375 61.40625 8.34375 63.046875 
Q 6.59375 64.703125 6.59375 67.5 
Q 6.59375 70.296875 8.34375 71.9375 
Q 10.09375 73.59375 12.59375 73.59375 
Q 15.09375 73.59375 16.84375 71.9375 
Q 18.59375 70.296875 18.59375 67.5 
Q 18.59375 64.703125 16.84375 63.046875 
Q 15.09375 61.40625 12.59375 61.40625 
z
" id="Ubuntu-105"/>
      <path d="M 39.703125 9.59375 
Q 38.703125 12 37.046875 15.703125 
Q 35.40625 19.40625 33.5 23.703125 
Q 31.59375 28 29.4375 32.546875 
Q 27.296875 37.09375 25.390625 41.140625 
Q 23.5 45.203125 21.84375 48.390625 
Q 20.203125 51.59375 19.203125 53.296875 
Q 18.09375 41.5 17.390625 27.75 
Q 16.703125 14 16.203125 0 
L 6.703125 0 
Q 7.09375 9 7.59375 18.140625 
Q 8.09375 27.296875 8.75 36.140625 
Q 9.40625 45 10.15625 53.390625 
Q 10.90625 61.796875 11.796875 69.296875 
L 20.296875 69.296875 
Q 23 64.90625 26.09375 58.90625 
Q 29.203125 52.90625 32.296875 46.34375 
Q 35.40625 39.796875 38.296875 33.25 
Q 41.203125 26.703125 43.59375 21.296875 
Q 46 26.703125 48.890625 33.25 
Q 51.796875 39.796875 54.890625 46.34375 
Q 58 52.90625 61.09375 58.90625 
Q 64.203125 64.90625 66.90625 69.296875 
L 75.40625 69.296875 
Q 78.796875 35.796875 80.5 0 
L 71 0 
Q 70.5 14 69.796875 27.75 
Q 69.09375 41.5 68 53.296875 
Q 67 51.59375 65.34375 48.390625 
Q 63.703125 45.203125 61.796875 41.140625 
Q 59.90625 37.09375 57.75 32.546875 
Q 55.59375 28 53.6875 23.703125 
Q 51.796875 19.40625 50.140625 15.703125 
Q 48.5 12 47.5 9.59375 
z
" id="Ubuntu-77"/>
     </defs>
     <g transform="translate(440.513875 130.989062)scale(0.14 -0.14)">
      <use xlink:href="#Ubuntu-80"/>
      <use x="60.768738" xlink:href="#Ubuntu-111"/>
      <use x="119.768723" xlink:href="#Ubuntu-115"/>
      <use x="164.368713" xlink:href="#Ubuntu-116"/>
      <use x="204.553085" xlink:href="#Ubuntu-101"/>
      <use x="260.453079" xlink:href="#Ubuntu-114"/>
      <use x="299.05307" xlink:href="#Ubuntu-105"/>
      <use x="324.353058" xlink:href="#Ubuntu-111"/>
      <use x="383.353043" xlink:href="#Ubuntu-114"/>
      <use x="421.953033" xlink:href="#Ubuntu-32"/>
      <use x="445.053024" xlink:href="#Ubuntu-77"/>
      <use x="532.153015" xlink:href="#Ubuntu-101"/>
      <use x="588.053009" xlink:href="#Ubuntu-97"/>
      <use x="640.253006" xlink:href="#Ubuntu-110"/>
     </g>
    </g>
    <g id="PathCollection_1">
     <defs>
      <path d="M 0 7.071068 
C 1.875269 7.071068 3.673985 6.326016 5 5 
C 6.326016 3.673985 7.071068 1.875269 7.071068 0 
C 7.071068 -1.875269 6.326016 -3.673985 5 -5 
C 3.673985 -6.326016 1.875269 -7.071068 0 -7.071068 
C -1.875269 -7.071068 -3.673985 -6.326016 -5 -5 
C -6.326016 -3.673985 -7.071068 -1.875269 -7.071068 0 
C -7.071068 1.875269 -6.326016 3.673985 -5 5 
C -3.673985 6.326016 -1.875269 7.071068 0 7.071068 
z
" id="m3bbe81f78c" style="stroke:#ff0000;stroke-width:0.24;"/>
     </defs>
     <g>
      <use style="fill:#ff0000;stroke:#ff0000;stroke-width:0.24;" x="415.313875" xlink:href="#m3bbe81f78c" y="147.767187"/>
     </g>
    </g>
    <g id="text_23">
     <!-- Training Point -->
     <defs>
      <path d="M 54.90625 69.296875 
L 54.90625 60.90625 
L 33.09375 60.90625 
L 33.09375 0 
L 23.40625 0 
L 23.40625 60.90625 
L 1.59375 60.90625 
L 1.59375 69.296875 
z
" id="Ubuntu-84"/>
     </defs>
     <g transform="translate(440.513875 151.442187)scale(0.14 -0.14)">
      <use xlink:href="#Ubuntu-84"/>
      <use x="56.437485" xlink:href="#Ubuntu-114"/>
      <use x="95.037476" xlink:href="#Ubuntu-97"/>
      <use x="147.237473" xlink:href="#Ubuntu-105"/>
      <use x="172.53746" xlink:href="#Ubuntu-110"/>
      <use x="229.937454" xlink:href="#Ubuntu-105"/>
      <use x="255.237442" xlink:href="#Ubuntu-110"/>
      <use x="312.637436" xlink:href="#Ubuntu-103"/>
      <use x="370.437424" xlink:href="#Ubuntu-32"/>
      <use x="393.537415" xlink:href="#Ubuntu-80"/>
      <use x="454.306152" xlink:href="#Ubuntu-111"/>
      <use x="513.306137" xlink:href="#Ubuntu-105"/>
      <use x="538.606125" xlink:href="#Ubuntu-110"/>
      <use x="596.006119" xlink:href="#Ubuntu-116"/>
     </g>
    </g>
   </g>
   <g id="PathCollection_2">
    <g clip-path="url(#p6fc7e573ab)">
     <use style="fill:#ff0000;stroke:#ff0000;stroke-width:0.24;" x="81.103693" xlink:href="#m3bbe81f78c" y="126.525106"/>
    </g>
   </g>
  </g>
 </g>
 <defs>
  <clipPath id="p6fc7e573ab">
   <rect height="217.44" width="334.8" x="40.521875" y="25.615"/>
  </clipPath>
 </defs>
</svg>
