<?xml version="1.0" encoding="utf-8" standalone="no"?>
<!DOCTYPE svg PUBLIC "-//W3C//DTD SVG 1.1//EN"
  "http://www.w3.org/Graphics/SVG/1.1/DTD/svg11.dtd">
<!-- Created with matplotlib (https://matplotlib.org/) -->
<svg height="277.548125pt" version="1.1" viewBox="0 0 500.577938 277.548125" width="500.577938pt" xmlns="http://www.w3.org/2000/svg" xmlns:xlink="http://www.w3.org/1999/xlink">
 <defs>
  <style type="text/css">
*{stroke-linecap:butt;stroke-linejoin:round;}
  </style>
 </defs>
 <g id="figure_1">
  <g id="patch_1">
   <path d="M 0 277.548125 
L 500.577937 277.548125 
L 500.577937 0 
L 0 0 
z
" style="fill:#ffffff;"/>
  </g>
  <g id="axes_1">
   <g id="patch_2">
    <path d="M 34.421875 239.95125 
L 369.221875 239.95125 
L 369.221875 22.51125 
L 34.421875 22.51125 
z
" style="fill:#ffffff;"/>
   </g>
   <g id="PolyCollection_1">
    <path clip-path="url(#p992670c3a6)" d="M 49.640057 198.665255 
L 49.640057 51.24585 
L 50.148176 51.769537 
L 50.656296 52.306145 
L 51.164416 52.856008 
L 51.672535 53.419474 
L 52.180655 53.996904 
L 52.688774 54.588675 
L 53.196894 55.195181 
L 53.705014 55.816834 
L 54.213133 56.454065 
L 54.721253 57.107325 
L 55.229372 57.77709 
L 55.737492 58.463858 
L 56.245612 59.168157 
L 56.753731 59.890543 
L 57.261851 60.631605 
L 57.76997 61.391968 
L 58.27809 62.172297 
L 58.786209 62.973301 
L 59.294329 63.795737 
L 59.802449 64.640418 
L 60.310568 65.508217 
L 60.818688 66.400077 
L 61.326807 67.317017 
L 61.834927 68.260145 
L 62.343047 69.23067 
L 62.851166 70.229914 
L 63.359286 71.259331 
L 63.867405 72.320528 
L 64.375525 73.415291 
L 64.883645 74.545611 
L 65.391764 75.713728 
L 65.899884 76.922174 
L 66.408003 78.173831 
L 66.916123 79.47201 
L 67.424243 80.820544 
L 67.932362 82.223915 
L 68.440482 83.687423 
L 68.948601 85.217416 
L 69.456721 86.821604 
L 69.964841 88.509515 
L 70.47296 90.293156 
L 70.98108 92.188029 
L 71.489199 94.214745 
L 71.997319 96.401738 
L 72.505439 98.790182 
L 73.013558 101.443749 
L 73.521678 104.470784 
L 74.029797 108.086256 
L 74.537917 112.866187 
L 75.046036 120.350721 
L 75.554156 111.932225 
L 76.062276 107.426942 
L 76.570395 103.933358 
L 77.078515 100.979291 
L 77.586634 98.3758 
L 78.094754 96.02457 
L 78.602874 93.86672 
L 79.110993 91.863696 
L 79.619113 89.988629 
L 80.127232 88.221909 
L 80.635352 86.548709 
L 81.143472 84.957493 
L 81.651591 83.439074 
L 82.159711 81.985998 
L 82.66783 80.59211 
L 83.17595 79.252261 
L 83.68407 77.962086 
L 84.192189 76.717848 
L 84.700309 75.516314 
L 85.208428 74.354663 
L 85.716548 73.230418 
L 86.224668 72.141382 
L 86.732787 71.0856 
L 87.240907 70.061319 
L 87.749026 69.066959 
L 88.257146 68.101089 
L 88.765265 67.162406 
L 89.273385 66.24972 
L 89.781505 65.361939 
L 90.289624 64.498056 
L 90.797744 63.657142 
L 91.305863 62.838333 
L 91.813983 62.040826 
L 92.322103 61.263873 
L 92.830222 60.506772 
L 93.338342 59.768865 
L 93.846461 59.049533 
L 94.354581 58.348194 
L 94.862701 57.664295 
L 95.37082 56.997315 
L 95.87894 56.346759 
L 96.387059 55.712155 
L 96.895179 55.093056 
L 97.403299 54.489034 
L 97.911418 53.89968 
L 98.419538 53.324603 
L 98.927657 52.76343 
L 99.435777 52.215799 
L 99.943897 51.681368 
L 100.452016 51.159802 
L 100.960136 50.650783 
L 101.468255 50.154003 
L 101.976375 49.669163 
L 102.484495 49.195977 
L 102.992614 48.734166 
L 103.500734 48.283462 
L 104.008853 47.843605 
L 104.516973 47.414342 
L 105.025092 46.995428 
L 105.533212 46.586627 
L 106.041332 46.187706 
L 106.549451 45.798443 
L 107.057571 45.418618 
L 107.56569 45.048021 
L 108.07381 44.686444 
L 108.58193 44.333686 
L 109.090049 43.989551 
L 109.598169 43.653849 
L 110.106288 43.326393 
L 110.614408 43.007001 
L 111.122528 42.695496 
L 111.630647 42.391705 
L 112.138767 42.095459 
L 112.646886 41.806592 
L 113.155006 41.524944 
L 113.663126 41.250356 
L 114.171245 40.982675 
L 114.679365 40.721749 
L 115.187484 40.467431 
L 115.695604 40.219577 
L 116.203724 39.978045 
L 116.711843 39.742697 
L 117.219963 39.513399 
L 117.728082 39.290017 
L 118.236202 39.072422 
L 118.744322 38.860487 
L 119.252441 38.654087 
L 119.760561 38.453102 
L 120.26868 38.257411 
L 120.7768 38.066897 
L 121.284919 37.881447 
L 121.793039 37.700948 
L 122.301159 37.52529 
L 122.809278 37.354365 
L 123.317398 37.188068 
L 123.825517 37.026295 
L 124.333637 36.868945 
L 124.841757 36.715918 
L 125.349876 36.567117 
L 125.857996 36.422447 
L 126.366115 36.281813 
L 126.874235 36.145124 
L 127.382355 36.01229 
L 127.890474 35.883222 
L 128.398594 35.757835 
L 128.906713 35.636044 
L 129.414833 35.517765 
L 129.922953 35.402917 
L 130.431072 35.29142 
L 130.939192 35.183196 
L 131.447311 35.078168 
L 131.955431 34.976261 
L 132.463551 34.877401 
L 132.97167 34.781517 
L 133.47979 34.688536 
L 133.987909 34.59839 
L 134.496029 34.511012 
L 135.004148 34.426333 
L 135.512268 34.344289 
L 136.020388 34.264816 
L 136.528507 34.187852 
L 137.036627 34.113334 
L 137.544746 34.041202 
L 138.052866 33.971398 
L 138.560986 33.903864 
L 139.069105 33.838543 
L 139.577225 33.77538 
L 140.085344 33.71432 
L 140.593464 33.655311 
L 141.101584 33.5983 
L 141.609703 33.543236 
L 142.117823 33.490069 
L 142.625942 33.43875 
L 143.134062 33.389233 
L 143.642182 33.341468 
L 144.150301 33.295412 
L 144.658421 33.251019 
L 145.16654 33.208244 
L 145.67466 33.167046 
L 146.18278 33.127381 
L 146.690899 33.08921 
L 147.199019 33.05249 
L 147.707138 33.017184 
L 148.215258 32.983253 
L 148.723378 32.950658 
L 149.231497 32.919363 
L 149.739617 32.889332 
L 150.247736 32.86053 
L 150.755856 32.832922 
L 151.263975 32.806475 
L 151.772095 32.781155 
L 152.280215 32.75693 
L 152.788334 32.73377 
L 153.296454 32.711643 
L 153.804573 32.690518 
L 154.312693 32.670368 
L 154.820813 32.651163 
L 155.328932 32.632875 
L 155.837052 32.615477 
L 156.345171 32.598942 
L 156.853291 32.583244 
L 157.361411 32.568357 
L 157.86953 32.554258 
L 158.37765 32.54092 
L 158.885769 32.528322 
L 159.393889 32.516439 
L 159.902009 32.50525 
L 160.410128 32.494731 
L 160.918248 32.484863 
L 161.426367 32.475623 
L 161.934487 32.466991 
L 162.442607 32.458948 
L 162.950726 32.451475 
L 163.458846 32.444551 
L 163.966965 32.438159 
L 164.475085 32.432281 
L 164.983204 32.426899 
L 165.491324 32.421997 
L 165.999444 32.417557 
L 166.507563 32.413564 
L 167.015683 32.410002 
L 167.523802 32.406854 
L 168.031922 32.404108 
L 168.540042 32.401747 
L 169.048161 32.399758 
L 169.556281 32.398127 
L 170.0644 32.396841 
L 170.57252 32.395886 
L 171.08064 32.39525 
L 171.588759 32.394921 
L 172.096879 32.394886 
L 172.604998 32.395135 
L 173.113118 32.395655 
L 173.621238 32.396435 
L 174.129357 32.397465 
L 174.637477 32.398735 
L 175.145596 32.400235 
L 175.653716 32.401954 
L 176.161836 32.403883 
L 176.669955 32.406013 
L 177.178075 32.408334 
L 177.686194 32.410839 
L 178.194314 32.413519 
L 178.702434 32.416365 
L 179.210553 32.41937 
L 179.718673 32.422526 
L 180.226792 32.425825 
L 180.734912 32.429261 
L 181.243031 32.432825 
L 181.751151 32.436512 
L 182.259271 32.440315 
L 182.76739 32.444227 
L 183.27551 32.448243 
L 183.783629 32.452356 
L 184.291749 32.45656 
L 184.799869 32.46085 
L 185.307988 32.465221 
L 185.816108 32.469666 
L 186.324227 32.474183 
L 186.832347 32.478764 
L 187.340467 32.483406 
L 187.848586 32.488104 
L 188.356706 32.492854 
L 188.864825 32.497651 
L 189.372945 32.502492 
L 189.881065 32.507372 
L 190.389184 32.512287 
L 190.897304 32.517234 
L 191.405423 32.522209 
L 191.913543 32.52721 
L 192.421663 32.532232 
L 192.929782 32.537272 
L 193.437902 32.542328 
L 193.946021 32.547396 
L 194.454141 32.552474 
L 194.96226 32.557559 
L 195.47038 32.562648 
L 195.9785 32.567739 
L 196.486619 32.572829 
L 196.994739 32.577917 
L 197.502858 32.582999 
L 198.010978 32.588074 
L 198.519098 32.59314 
L 199.027217 32.598195 
L 199.535337 32.603237 
L 200.043456 32.608264 
L 200.551576 32.613275 
L 201.059696 32.618267 
L 201.567815 32.62324 
L 202.075935 32.628192 
L 202.584054 32.633121 
L 203.092174 32.638027 
L 203.600294 32.642908 
L 204.108413 32.647762 
L 204.616533 32.652589 
L 205.124652 32.657387 
L 205.632772 32.662156 
L 206.140892 32.666894 
L 206.649011 32.671601 
L 207.157131 32.676275 
L 207.66525 32.680917 
L 208.17337 32.685525 
L 208.68149 32.690098 
L 209.189609 32.694636 
L 209.697729 32.699138 
L 210.205848 32.703604 
L 210.713968 32.708032 
L 211.222087 32.712424 
L 211.730207 32.716777 
L 212.238327 32.721092 
L 212.746446 32.725369 
L 213.254566 32.729606 
L 213.762685 32.733804 
L 214.270805 32.737962 
L 214.778925 32.74208 
L 215.287044 32.746158 
L 215.795164 32.750195 
L 216.303283 32.754192 
L 216.811403 32.758149 
L 217.319523 32.762064 
L 217.827642 32.765939 
L 218.335762 32.769772 
L 218.843881 32.773565 
L 219.352001 32.777316 
L 219.860121 32.781026 
L 220.36824 32.784695 
L 220.87636 32.788323 
L 221.384479 32.79191 
L 221.892599 32.795457 
L 222.400719 32.798962 
L 222.908838 32.802426 
L 223.416958 32.80585 
L 223.925077 32.809233 
L 224.433197 32.812576 
L 224.941316 32.815878 
L 225.449436 32.819141 
L 225.957556 32.822363 
L 226.465675 32.825546 
L 226.973795 32.828689 
L 227.481914 32.831793 
L 227.990034 32.834858 
L 228.498154 32.837884 
L 229.006273 32.840872 
L 229.514393 32.84382 
L 230.022512 32.846731 
L 230.530632 32.849604 
L 231.038752 32.85244 
L 231.546871 32.855238 
L 232.054991 32.857998 
L 232.56311 32.860723 
L 233.07123 32.86341 
L 233.57935 32.866062 
L 234.087469 32.868677 
L 234.595589 32.871257 
L 235.103708 32.873802 
L 235.611828 32.876312 
L 236.119948 32.878787 
L 236.628067 32.881228 
L 237.136187 32.883634 
L 237.644306 32.886007 
L 238.152426 32.888347 
L 238.660546 32.890654 
L 239.168665 32.892928 
L 239.676785 32.895169 
L 240.184904 32.897379 
L 240.693024 32.899556 
L 241.201143 32.901703 
L 241.709263 32.903818 
L 242.217383 32.905903 
L 242.725502 32.907957 
L 243.233622 32.909981 
L 243.741741 32.911976 
L 244.249861 32.913941 
L 244.757981 32.915877 
L 245.2661 32.917784 
L 245.77422 32.919663 
L 246.282339 32.921514 
L 246.790459 32.923337 
L 247.298579 32.925133 
L 247.806698 32.926902 
L 248.314818 32.928644 
L 248.822937 32.93036 
L 249.331057 32.932049 
L 249.839177 32.933713 
L 250.347296 32.935351 
L 250.855416 32.936965 
L 251.363535 32.938553 
L 251.871655 32.940117 
L 252.379775 32.941657 
L 252.887894 32.943173 
L 253.396014 32.944665 
L 253.904133 32.946135 
L 254.412253 32.947581 
L 254.920372 32.949005 
L 255.428492 32.950406 
L 255.936612 32.951785 
L 256.444731 32.953143 
L 256.952851 32.954479 
L 257.46097 32.955794 
L 257.96909 32.957088 
L 258.47721 32.958362 
L 258.985329 32.959615 
L 259.493449 32.960848 
L 260.001568 32.962062 
L 260.509688 32.963256 
L 261.017808 32.964431 
L 261.525927 32.965587 
L 262.034047 32.966724 
L 262.542166 32.967843 
L 263.050286 32.968944 
L 263.558406 32.970027 
L 264.066525 32.971093 
L 264.574645 32.972141 
L 265.082764 32.973172 
L 265.590884 32.974186 
L 266.099004 32.975184 
L 266.607123 32.976165 
L 267.115243 32.97713 
L 267.623362 32.97808 
L 268.131482 32.979013 
L 268.639602 32.979932 
L 269.147721 32.980835 
L 269.655841 32.981723 
L 270.16396 32.982597 
L 270.67208 32.983456 
L 271.180199 32.9843 
L 271.688319 32.985131 
L 272.196439 32.985948 
L 272.704558 32.986751 
L 273.212678 32.987541 
L 273.720797 32.988317 
L 274.228917 32.989081 
L 274.737037 32.989831 
L 275.245156 32.99057 
L 275.753276 32.991295 
L 276.261395 32.992009 
L 276.769515 32.99271 
L 277.277635 32.9934 
L 277.785754 32.994077 
L 278.293874 32.994744 
L 278.801993 32.995399 
L 279.310113 32.996043 
L 279.818233 32.996676 
L 280.326352 32.997298 
L 280.834472 32.99791 
L 281.342591 32.998511 
L 281.850711 32.999102 
L 282.358831 32.999683 
L 282.86695 33.000254 
L 283.37507 33.000815 
L 283.883189 33.001366 
L 284.391309 33.001908 
L 284.899428 33.002441 
L 285.407548 33.002965 
L 285.915668 33.003479 
L 286.423787 33.003985 
L 286.931907 33.004482 
L 287.440026 33.00497 
L 287.948146 33.00545 
L 288.456266 33.005921 
L 288.964385 33.006385 
L 289.472505 33.00684 
L 289.980624 33.007287 
L 290.488744 33.007727 
L 290.996864 33.008159 
L 291.504983 33.008584 
L 292.013103 33.009001 
L 292.521222 33.00941 
L 293.029342 33.009813 
L 293.537462 33.010209 
L 294.045581 33.010597 
L 294.553701 33.010979 
L 295.06182 33.011354 
L 295.56994 33.011723 
L 296.07806 33.012085 
L 296.586179 33.012441 
L 297.094299 33.01279 
L 297.602418 33.013134 
L 298.110538 33.013471 
L 298.618658 33.013802 
L 299.126777 33.014128 
L 299.634897 33.014448 
L 300.143016 33.014762 
L 300.651136 33.01507 
L 301.159255 33.015374 
L 301.667375 33.015671 
L 302.175495 33.015964 
L 302.683614 33.016251 
L 303.191734 33.016533 
L 303.699853 33.01681 
L 304.207973 33.017083 
L 304.716093 33.01735 
L 305.224212 33.017613 
L 305.732332 33.017871 
L 306.240451 33.018124 
L 306.748571 33.018373 
L 307.256691 33.018617 
L 307.76481 33.018857 
L 308.27293 33.019093 
L 308.781049 33.019324 
L 309.289169 33.019552 
L 309.797289 33.019775 
L 310.305408 33.019994 
L 310.813528 33.02021 
L 311.321647 33.020421 
L 311.829767 33.020629 
L 312.337887 33.020833 
L 312.846006 33.021033 
L 313.354126 33.02123 
L 313.862245 33.021423 
L 314.370365 33.021613 
L 314.878485 33.021799 
L 315.386604 33.021982 
L 315.894724 33.022162 
L 316.402843 33.022338 
L 316.910963 33.022511 
L 317.419082 33.022681 
L 317.927202 33.022848 
L 318.435322 33.023012 
L 318.943441 33.023173 
L 319.451561 33.023331 
L 319.95968 33.023486 
L 320.4678 33.023639 
L 320.97592 33.023788 
L 321.484039 33.023935 
L 321.992159 33.024079 
L 322.500278 33.024221 
L 323.008398 33.02436 
L 323.516518 33.024497 
L 324.024637 33.024631 
L 324.532757 33.024762 
L 325.040876 33.024891 
L 325.548996 33.025018 
L 326.057116 33.025143 
L 326.565235 33.025265 
L 327.073355 33.025385 
L 327.581474 33.025503 
L 328.089594 33.025618 
L 328.597714 33.025732 
L 329.105833 33.025843 
L 329.613953 33.025953 
L 330.122072 33.02606 
L 330.630192 33.026166 
L 331.138311 33.026269 
L 331.646431 33.026371 
L 332.154551 33.026471 
L 332.66267 33.026569 
L 333.17079 33.026665 
L 333.678909 33.026759 
L 334.187029 33.026852 
L 334.695149 33.026943 
L 335.203268 33.027032 
L 335.711388 33.027119 
L 336.219507 33.027205 
L 336.727627 33.02729 
L 337.235747 33.027373 
L 337.743866 33.027454 
L 338.251986 33.027534 
L 338.760105 33.027612 
L 339.268225 33.027689 
L 339.776345 33.027765 
L 340.284464 33.027839 
L 340.792584 33.027911 
L 341.300703 33.027983 
L 341.808823 33.028053 
L 342.316943 33.028122 
L 342.825062 33.028189 
L 343.333182 33.028255 
L 343.841301 33.02832 
L 344.349421 33.028384 
L 344.857541 33.028447 
L 345.36566 33.028508 
L 345.87378 33.028568 
L 346.381899 33.028628 
L 346.890019 33.028686 
L 347.398138 33.028743 
L 347.906258 33.028799 
L 348.414378 33.028854 
L 348.922497 33.028908 
L 349.430617 33.02896 
L 349.938736 33.029012 
L 350.446856 33.029063 
L 350.954976 33.029113 
L 351.463095 33.029162 
L 351.971215 33.02921 
L 352.479334 33.029258 
L 352.987454 33.029304 
L 353.495574 33.02935 
L 354.003693 33.029394 
L 354.003693 230.067614 
L 354.003693 230.067614 
L 353.495574 230.067569 
L 352.987454 230.067523 
L 352.479334 230.067477 
L 351.971215 230.067429 
L 351.463095 230.067381 
L 350.954976 230.067332 
L 350.446856 230.067281 
L 349.938736 230.06723 
L 349.430617 230.067178 
L 348.922497 230.067125 
L 348.414378 230.067071 
L 347.906258 230.067016 
L 347.398138 230.06696 
L 346.890019 230.066902 
L 346.381899 230.066844 
L 345.87378 230.066784 
L 345.36566 230.066724 
L 344.857541 230.066662 
L 344.349421 230.066599 
L 343.841301 230.066535 
L 343.333182 230.06647 
L 342.825062 230.066403 
L 342.316943 230.066335 
L 341.808823 230.066266 
L 341.300703 230.066196 
L 340.792584 230.066124 
L 340.284464 230.066051 
L 339.776345 230.065976 
L 339.268225 230.0659 
L 338.760105 230.065823 
L 338.251986 230.065744 
L 337.743866 230.065663 
L 337.235747 230.065582 
L 336.727627 230.065498 
L 336.219507 230.065413 
L 335.711388 230.065327 
L 335.203268 230.065238 
L 334.695149 230.065148 
L 334.187029 230.065057 
L 333.678909 230.064964 
L 333.17079 230.064868 
L 332.66267 230.064772 
L 332.154551 230.064673 
L 331.646431 230.064572 
L 331.138311 230.06447 
L 330.630192 230.064365 
L 330.122072 230.064259 
L 329.613953 230.064151 
L 329.105833 230.06404 
L 328.597714 230.063928 
L 328.089594 230.063813 
L 327.581474 230.063696 
L 327.073355 230.063577 
L 326.565235 230.063456 
L 326.057116 230.063333 
L 325.548996 230.063207 
L 325.040876 230.063079 
L 324.532757 230.062948 
L 324.024637 230.062815 
L 323.516518 230.06268 
L 323.008398 230.062541 
L 322.500278 230.062401 
L 321.992159 230.062258 
L 321.484039 230.062112 
L 320.97592 230.061963 
L 320.4678 230.061811 
L 319.95968 230.061657 
L 319.451561 230.0615 
L 318.943441 230.06134 
L 318.435322 230.061176 
L 317.927202 230.06101 
L 317.419082 230.060841 
L 316.910963 230.060668 
L 316.402843 230.060493 
L 315.894724 230.060314 
L 315.386604 230.060131 
L 314.878485 230.059946 
L 314.370365 230.059757 
L 313.862245 230.059564 
L 313.354126 230.059368 
L 312.846006 230.059168 
L 312.337887 230.058964 
L 311.829767 230.058756 
L 311.321647 230.058545 
L 310.813528 230.05833 
L 310.305408 230.05811 
L 309.797289 230.057887 
L 309.289169 230.057659 
L 308.781049 230.057428 
L 308.27293 230.057192 
L 307.76481 230.056951 
L 307.256691 230.056706 
L 306.748571 230.056457 
L 306.240451 230.056203 
L 305.732332 230.055944 
L 305.224212 230.05568 
L 304.716093 230.055412 
L 304.207973 230.055138 
L 303.699853 230.054859 
L 303.191734 230.054576 
L 302.683614 230.054287 
L 302.175495 230.053992 
L 301.667375 230.053692 
L 301.159255 230.053387 
L 300.651136 230.053076 
L 300.143016 230.052759 
L 299.634897 230.052437 
L 299.126777 230.052108 
L 298.618658 230.051773 
L 298.110538 230.051432 
L 297.602418 230.051085 
L 297.094299 230.050732 
L 296.586179 230.050372 
L 296.07806 230.050005 
L 295.56994 230.049631 
L 295.06182 230.049251 
L 294.553701 230.048863 
L 294.045581 230.048469 
L 293.537462 230.048067 
L 293.029342 230.047658 
L 292.521222 230.047241 
L 292.013103 230.046816 
L 291.504983 230.046384 
L 290.996864 230.045944 
L 290.488744 230.045495 
L 289.980624 230.045038 
L 289.472505 230.044573 
L 288.964385 230.0441 
L 288.456266 230.043617 
L 287.948146 230.043126 
L 287.440026 230.042626 
L 286.931907 230.042116 
L 286.423787 230.041598 
L 285.915668 230.041069 
L 285.407548 230.040531 
L 284.899428 230.039983 
L 284.391309 230.039425 
L 283.883189 230.038857 
L 283.37507 230.038278 
L 282.86695 230.037689 
L 282.358831 230.037089 
L 281.850711 230.036477 
L 281.342591 230.035855 
L 280.834472 230.035221 
L 280.326352 230.034576 
L 279.818233 230.033919 
L 279.310113 230.033249 
L 278.801993 230.032568 
L 278.293874 230.031873 
L 277.785754 230.031167 
L 277.277635 230.030447 
L 276.769515 230.029714 
L 276.261395 230.028968 
L 275.753276 230.028207 
L 275.245156 230.027433 
L 274.737037 230.026645 
L 274.228917 230.025843 
L 273.720797 230.025025 
L 273.212678 230.024193 
L 272.704558 230.023346 
L 272.196439 230.022483 
L 271.688319 230.021604 
L 271.180199 230.020709 
L 270.67208 230.019798 
L 270.16396 230.01887 
L 269.655841 230.017925 
L 269.147721 230.016962 
L 268.639602 230.015983 
L 268.131482 230.014985 
L 267.623362 230.013969 
L 267.115243 230.012934 
L 266.607123 230.011881 
L 266.099004 230.010808 
L 265.590884 230.009715 
L 265.082764 230.008603 
L 264.574645 230.00747 
L 264.066525 230.006316 
L 263.558406 230.005142 
L 263.050286 230.003946 
L 262.542166 230.002727 
L 262.034047 230.001487 
L 261.525927 230.000224 
L 261.017808 229.998938 
L 260.509688 229.997628 
L 260.001568 229.996294 
L 259.493449 229.994936 
L 258.985329 229.993553 
L 258.47721 229.992145 
L 257.96909 229.990711 
L 257.46097 229.989251 
L 256.952851 229.987763 
L 256.444731 229.986249 
L 255.936612 229.984707 
L 255.428492 229.983137 
L 254.920372 229.981537 
L 254.412253 229.979909 
L 253.904133 229.97825 
L 253.396014 229.976562 
L 252.887894 229.974842 
L 252.379775 229.973091 
L 251.871655 229.971307 
L 251.363535 229.969491 
L 250.855416 229.967641 
L 250.347296 229.965758 
L 249.839177 229.96384 
L 249.331057 229.961886 
L 248.822937 229.959897 
L 248.314818 229.957871 
L 247.806698 229.955808 
L 247.298579 229.953707 
L 246.790459 229.951567 
L 246.282339 229.949388 
L 245.77422 229.947168 
L 245.2661 229.944908 
L 244.757981 229.942606 
L 244.249861 229.940262 
L 243.741741 229.937874 
L 243.233622 229.935442 
L 242.725502 229.932966 
L 242.217383 229.930443 
L 241.709263 229.927874 
L 241.201143 229.925258 
L 240.693024 229.922593 
L 240.184904 229.919879 
L 239.676785 229.917115 
L 239.168665 229.914299 
L 238.660546 229.911431 
L 238.152426 229.90851 
L 237.644306 229.905535 
L 237.136187 229.902505 
L 236.628067 229.899418 
L 236.119948 229.896274 
L 235.611828 229.893072 
L 235.103708 229.889809 
L 234.595589 229.886487 
L 234.087469 229.883102 
L 233.57935 229.879654 
L 233.07123 229.876142 
L 232.56311 229.872564 
L 232.054991 229.86892 
L 231.546871 229.865207 
L 231.038752 229.861425 
L 230.530632 229.857572 
L 230.022512 229.853647 
L 229.514393 229.849649 
L 229.006273 229.845575 
L 228.498154 229.841425 
L 227.990034 229.837197 
L 227.481914 229.83289 
L 226.973795 229.828501 
L 226.465675 229.82403 
L 225.957556 229.819475 
L 225.449436 229.814834 
L 224.941316 229.810105 
L 224.433197 229.805287 
L 223.925077 229.800377 
L 223.416958 229.795375 
L 222.908838 229.790278 
L 222.400719 229.785085 
L 221.892599 229.779792 
L 221.384479 229.7744 
L 220.87636 229.768905 
L 220.36824 229.763305 
L 219.860121 229.757599 
L 219.352001 229.751784 
L 218.843881 229.745858 
L 218.335762 229.739819 
L 217.827642 229.733665 
L 217.319523 229.727392 
L 216.811403 229.721 
L 216.303283 229.714485 
L 215.795164 229.707845 
L 215.287044 229.701078 
L 214.778925 229.69418 
L 214.270805 229.68715 
L 213.762685 229.679984 
L 213.254566 229.67268 
L 212.746446 229.665235 
L 212.238327 229.657646 
L 211.730207 229.64991 
L 211.222087 229.642024 
L 210.713968 229.633986 
L 210.205848 229.625791 
L 209.697729 229.617438 
L 209.189609 229.608921 
L 208.68149 229.600239 
L 208.17337 229.591388 
L 207.66525 229.582364 
L 207.157131 229.573164 
L 206.649011 229.563783 
L 206.140892 229.554219 
L 205.632772 229.544468 
L 205.124652 229.534525 
L 204.616533 229.524387 
L 204.108413 229.51405 
L 203.600294 229.503509 
L 203.092174 229.49276 
L 202.584054 229.481799 
L 202.075935 229.470622 
L 201.567815 229.459223 
L 201.059696 229.447599 
L 200.551576 229.435745 
L 200.043456 229.423655 
L 199.535337 229.411325 
L 199.027217 229.39875 
L 198.519098 229.385925 
L 198.010978 229.372844 
L 197.502858 229.359502 
L 196.994739 229.345894 
L 196.486619 229.332013 
L 195.9785 229.317855 
L 195.47038 229.303413 
L 194.96226 229.288681 
L 194.454141 229.273653 
L 193.946021 229.258323 
L 193.437902 229.242685 
L 192.929782 229.226732 
L 192.421663 229.210457 
L 191.913543 229.193854 
L 191.405423 229.176915 
L 190.897304 229.159633 
L 190.389184 229.142001 
L 189.881065 229.124012 
L 189.372945 229.105658 
L 188.864825 229.086932 
L 188.356706 229.067825 
L 187.848586 229.048328 
L 187.340467 229.028435 
L 186.832347 229.008137 
L 186.324227 228.987424 
L 185.816108 228.966288 
L 185.307988 228.94472 
L 184.799869 228.922711 
L 184.291749 228.900251 
L 183.783629 228.877331 
L 183.27551 228.853941 
L 182.76739 228.83007 
L 182.259271 228.80571 
L 181.751151 228.780848 
L 181.243031 228.755475 
L 180.734912 228.729579 
L 180.226792 228.70315 
L 179.718673 228.676175 
L 179.210553 228.648644 
L 178.702434 228.620545 
L 178.194314 228.591865 
L 177.686194 228.562591 
L 177.178075 228.532713 
L 176.669955 228.502215 
L 176.161836 228.471086 
L 175.653716 228.439311 
L 175.145596 228.406878 
L 174.637477 228.373772 
L 174.129357 228.339978 
L 173.621238 228.305482 
L 173.113118 228.27027 
L 172.604998 228.234326 
L 172.096879 228.197634 
L 171.588759 228.160179 
L 171.08064 228.121944 
L 170.57252 228.082913 
L 170.0644 228.043069 
L 169.556281 228.002395 
L 169.048161 227.960873 
L 168.540042 227.918486 
L 168.031922 227.875215 
L 167.523802 227.831042 
L 167.015683 227.785948 
L 166.507563 227.739912 
L 165.999444 227.692917 
L 165.491324 227.64494 
L 164.983204 227.595963 
L 164.475085 227.545963 
L 163.966965 227.49492 
L 163.458846 227.442812 
L 162.950726 227.389616 
L 162.442607 227.33531 
L 161.934487 227.279871 
L 161.426367 227.223275 
L 160.918248 227.165498 
L 160.410128 227.106517 
L 159.902009 227.046305 
L 159.393889 226.984837 
L 158.885769 226.922089 
L 158.37765 226.858032 
L 157.86953 226.792641 
L 157.361411 226.725888 
L 156.853291 226.657745 
L 156.345171 226.588183 
L 155.837052 226.517175 
L 155.328932 226.444689 
L 154.820813 226.370697 
L 154.312693 226.295167 
L 153.804573 226.218068 
L 153.296454 226.139369 
L 152.788334 226.059037 
L 152.280215 225.97704 
L 151.772095 225.893343 
L 151.263975 225.807913 
L 150.755856 225.720714 
L 150.247736 225.631713 
L 149.739617 225.540871 
L 149.231497 225.448154 
L 148.723378 225.353523 
L 148.215258 225.25694 
L 147.707138 225.158367 
L 147.199019 225.057765 
L 146.690899 224.955093 
L 146.18278 224.85031 
L 145.67466 224.743376 
L 145.16654 224.634248 
L 144.658421 224.522883 
L 144.150301 224.409237 
L 143.642182 224.293266 
L 143.134062 224.174924 
L 142.625942 224.054167 
L 142.117823 223.930946 
L 141.609703 223.805215 
L 141.101584 223.676924 
L 140.593464 223.546026 
L 140.085344 223.412469 
L 139.577225 223.276202 
L 139.069105 223.137175 
L 138.560986 222.995334 
L 138.052866 222.850625 
L 137.544746 222.702995 
L 137.036627 222.552388 
L 136.528507 222.398748 
L 136.020388 222.242017 
L 135.512268 222.082137 
L 135.004148 221.919049 
L 134.496029 221.752692 
L 133.987909 221.583007 
L 133.47979 221.40993 
L 132.97167 221.233398 
L 132.463551 221.053347 
L 131.955431 220.869711 
L 131.447311 220.682425 
L 130.939192 220.49142 
L 130.431072 220.296628 
L 129.922953 220.097979 
L 129.414833 219.895402 
L 128.906713 219.688824 
L 128.398594 219.478173 
L 127.890474 219.263373 
L 127.382355 219.044349 
L 126.874235 218.821024 
L 126.366115 218.593318 
L 125.857996 218.361152 
L 125.349876 218.124446 
L 124.841757 217.883115 
L 124.333637 217.637076 
L 123.825517 217.386244 
L 123.317398 217.130531 
L 122.809278 216.86985 
L 122.301159 216.604109 
L 121.793039 216.333218 
L 121.284919 216.057082 
L 120.7768 215.775607 
L 120.26868 215.488696 
L 119.760561 215.196251 
L 119.252441 214.898171 
L 118.744322 214.594354 
L 118.236202 214.284695 
L 117.728082 213.96909 
L 117.219963 213.647428 
L 116.711843 213.319601 
L 116.203724 212.985496 
L 115.695604 212.644998 
L 115.187484 212.297989 
L 114.679365 211.944352 
L 114.171245 211.583963 
L 113.663126 211.216698 
L 113.155006 210.842429 
L 112.646886 210.461028 
L 112.138767 210.072362 
L 111.630647 209.676293 
L 111.122528 209.272684 
L 110.614408 208.861392 
L 110.106288 208.442272 
L 109.598169 208.015174 
L 109.090049 207.579946 
L 108.58193 207.13643 
L 108.07381 206.684467 
L 107.56569 206.22389 
L 107.057571 205.754531 
L 106.549451 205.276215 
L 106.041332 204.788763 
L 105.533212 204.29199 
L 105.025092 203.785706 
L 104.516973 203.269716 
L 104.008853 202.743818 
L 103.500734 202.207803 
L 102.992614 201.661455 
L 102.484495 201.104553 
L 101.976375 200.536864 
L 101.468255 199.95815 
L 100.960136 199.368164 
L 100.452016 198.766647 
L 99.943897 198.153333 
L 99.435777 197.527941 
L 98.927657 196.890184 
L 98.419538 196.239756 
L 97.911418 195.576342 
L 97.403299 194.899611 
L 96.895179 194.209216 
L 96.387059 193.504793 
L 95.87894 192.785958 
L 95.37082 192.052309 
L 94.862701 191.303421 
L 94.354581 190.538844 
L 93.846461 189.758103 
L 93.338342 188.960693 
L 92.830222 188.146078 
L 92.322103 187.313687 
L 91.813983 186.462907 
L 91.305863 185.593087 
L 90.797744 184.703524 
L 90.289624 183.793464 
L 89.781505 182.86209 
L 89.273385 181.90852 
L 88.765265 180.931797 
L 88.257146 179.930873 
L 87.749026 178.904607 
L 87.240907 177.851742 
L 86.732787 176.770895 
L 86.224668 175.66053 
L 85.716548 174.518939 
L 85.208428 173.344213 
L 84.700309 172.134199 
L 84.192189 170.886463 
L 83.68407 169.598225 
L 83.17595 168.266296 
L 82.66783 166.886976 
L 82.159711 165.455941 
L 81.651591 163.968079 
L 81.143472 162.417272 
L 80.635352 160.796098 
L 80.127232 159.095404 
L 79.619113 157.303686 
L 79.110993 155.406144 
L 78.602874 153.383195 
L 78.094754 151.207995 
L 77.586634 148.84201 
L 77.078515 146.22638 
L 76.570395 143.262804 
L 76.062276 139.762355 
L 75.554156 135.25286 
L 75.046036 126.832812 
L 74.537917 134.318454 
L 74.029797 139.102155 
L 73.521678 142.72405 
L 73.013558 145.760154 
L 72.505439 148.425423 
L 71.997319 150.828187 
L 71.489199 153.032099 
L 70.98108 155.078312 
L 70.47296 156.995237 
L 69.964841 158.803458 
L 69.456721 160.518449 
L 68.948601 162.152186 
L 68.440482 163.714165 
L 67.932362 165.212062 
L 67.424243 166.652189 
L 66.916123 168.039808 
L 66.408003 169.379364 
L 65.899884 170.67465 
L 65.391764 171.928933 
L 64.883645 173.145057 
L 64.375525 174.325508 
L 63.867405 175.472482 
L 63.359286 176.587927 
L 62.851166 177.673584 
L 62.343047 178.731012 
L 61.834927 179.761621 
L 61.326807 180.766686 
L 60.818688 181.747368 
L 60.310568 182.704728 
L 59.802449 183.639738 
L 59.294329 184.553292 
L 58.786209 185.446217 
L 58.27809 186.319278 
L 57.76997 187.173184 
L 57.261851 188.008597 
L 56.753731 188.826134 
L 56.245612 189.626373 
L 55.737492 190.409856 
L 55.229372 191.177093 
L 54.721253 191.928564 
L 54.213133 192.664723 
L 53.705014 193.385998 
L 53.196894 194.092797 
L 52.688774 194.785504 
L 52.180655 195.464488 
L 51.672535 196.130098 
L 51.164416 196.782667 
L 50.656296 197.422515 
L 50.148176 198.049947 
L 49.640057 198.665255 
z
" style="fill:#808080;fill-opacity:0.15;stroke:#808080;stroke-dasharray:0.888,0.384;stroke-dashoffset:0;stroke-opacity:0.15;stroke-width:0.24;"/>
   </g>
   <g id="matplotlib.axis_1">
    <g id="xtick_1">
     <g id="line2d_1">
      <path clip-path="url(#p992670c3a6)" d="M 49.640057 239.95125 
L 49.640057 22.51125 
" style="fill:none;stroke:#b0b0b0;stroke-linecap:square;stroke-opacity:0.25;stroke-width:0.8;"/>
     </g>
     <g id="line2d_2">
      <defs>
       <path d="M 0 0 
L 0 3.5 
" id="m8668cabb54" style="stroke:#808080;stroke-width:0.8;"/>
      </defs>
      <g>
       <use style="fill:#808080;stroke:#808080;stroke-width:0.8;" x="49.640057" xlink:href="#m8668cabb54" y="239.95125"/>
      </g>
     </g>
     <g id="text_1">
      <!-- 0 -->
      <defs>
       <path d="M 5 34.703125 
Q 5 52.09375 11.140625 61.5 
Q 17.296875 70.90625 28.203125 70.90625 
Q 39.09375 70.90625 45.25 61.5 
Q 51.40625 52.09375 51.40625 34.703125 
Q 51.40625 17.296875 45.25 7.890625 
Q 39.09375 -1.5 28.203125 -1.5 
Q 17.296875 -1.5 11.140625 7.890625 
Q 5 17.296875 5 34.703125 
z
M 41.59375 34.703125 
Q 41.59375 40.40625 40.9375 45.5 
Q 40.296875 50.59375 38.75 54.390625 
Q 37.203125 58.203125 34.59375 60.453125 
Q 32 62.703125 28.203125 62.703125 
Q 24.40625 62.703125 21.796875 60.453125 
Q 19.203125 58.203125 17.640625 54.390625 
Q 16.09375 50.59375 15.4375 45.5 
Q 14.796875 40.40625 14.796875 34.703125 
Q 14.796875 29 15.4375 23.890625 
Q 16.09375 18.796875 17.640625 15 
Q 19.203125 11.203125 21.796875 8.953125 
Q 24.40625 6.703125 28.203125 6.703125 
Q 32 6.703125 34.59375 8.953125 
Q 37.203125 11.203125 38.75 15 
Q 40.296875 18.796875 40.9375 23.890625 
Q 41.59375 29 41.59375 34.703125 
z
" id="Ubuntu-48"/>
      </defs>
      <g transform="translate(47.383807 255.25875)scale(0.08 -0.08)">
       <use xlink:href="#Ubuntu-48"/>
      </g>
     </g>
    </g>
    <g id="xtick_2">
     <g id="line2d_3">
      <path clip-path="url(#p992670c3a6)" d="M 100.36733 239.95125 
L 100.36733 22.51125 
" style="fill:none;stroke:#b0b0b0;stroke-linecap:square;stroke-opacity:0.25;stroke-width:0.8;"/>
     </g>
     <g id="line2d_4">
      <g>
       <use style="fill:#808080;stroke:#808080;stroke-width:0.8;" x="100.36733" xlink:href="#m8668cabb54" y="239.95125"/>
      </g>
     </g>
     <g id="text_2">
      <!-- 1 -->
      <defs>
       <path d="M 9.296875 55 
Q 15 57.203125 20.390625 60.640625 
Q 25.796875 64.09375 30.296875 69.296875 
L 36.90625 69.296875 
L 36.90625 0 
L 27.59375 0 
L 27.59375 56.40625 
Q 26.40625 55.296875 24.65625 54.09375 
Q 22.90625 52.90625 20.84375 51.796875 
Q 18.796875 50.703125 16.546875 49.703125 
Q 14.296875 48.703125 12.203125 48 
z
" id="Ubuntu-49"/>
      </defs>
      <g transform="translate(98.11108 255.25875)scale(0.08 -0.08)">
       <use xlink:href="#Ubuntu-49"/>
      </g>
     </g>
    </g>
    <g id="xtick_3">
     <g id="line2d_5">
      <path clip-path="url(#p992670c3a6)" d="M 151.094602 239.95125 
L 151.094602 22.51125 
" style="fill:none;stroke:#b0b0b0;stroke-linecap:square;stroke-opacity:0.25;stroke-width:0.8;"/>
     </g>
     <g id="line2d_6">
      <g>
       <use style="fill:#808080;stroke:#808080;stroke-width:0.8;" x="151.094602" xlink:href="#m8668cabb54" y="239.95125"/>
      </g>
     </g>
     <g id="text_3">
      <!-- 2 -->
      <defs>
       <path d="M 46.703125 51.59375 
Q 46.703125 48 45.25 44.640625 
Q 43.796875 41.296875 41.390625 38.046875 
Q 39 34.796875 36 31.640625 
Q 33 28.5 30 25.5 
Q 28.296875 23.796875 26.046875 21.5 
Q 23.796875 19.203125 21.796875 16.703125 
Q 19.796875 14.203125 18.4375 11.890625 
Q 17.09375 9.59375 17.09375 7.90625 
L 49 7.90625 
L 49 0 
L 7 0 
Q 6.90625 0.59375 6.90625 1.1875 
Q 6.90625 1.796875 6.90625 2.296875 
Q 6.90625 7 8.453125 11.046875 
Q 10 15.09375 12.5 18.6875 
Q 15 22.296875 18.09375 25.5 
Q 21.203125 28.703125 24.203125 31.703125 
Q 26.703125 34.09375 28.953125 36.4375 
Q 31.203125 38.796875 32.953125 41.140625 
Q 34.703125 43.5 35.75 46 
Q 36.796875 48.5 36.796875 51.296875 
Q 36.796875 54.296875 35.84375 56.390625 
Q 34.90625 58.5 33.296875 59.890625 
Q 31.703125 61.296875 29.546875 61.9375 
Q 27.40625 62.59375 25 62.59375 
Q 22.09375 62.59375 19.6875 61.796875 
Q 17.296875 61 15.390625 59.953125 
Q 13.5 58.90625 12.203125 57.75 
Q 10.90625 56.59375 10.203125 56 
L 5.59375 62.59375 
Q 6.5 63.59375 8.296875 65.046875 
Q 10.09375 66.5 12.59375 67.796875 
Q 15.09375 69.09375 18.1875 70 
Q 21.296875 70.90625 24.90625 70.90625 
Q 35.796875 70.90625 41.25 65.84375 
Q 46.703125 60.796875 46.703125 51.59375 
z
" id="Ubuntu-50"/>
      </defs>
      <g transform="translate(148.838352 255.25875)scale(0.08 -0.08)">
       <use xlink:href="#Ubuntu-50"/>
      </g>
     </g>
    </g>
    <g id="xtick_4">
     <g id="line2d_7">
      <path clip-path="url(#p992670c3a6)" d="M 201.821875 239.95125 
L 201.821875 22.51125 
" style="fill:none;stroke:#b0b0b0;stroke-linecap:square;stroke-opacity:0.25;stroke-width:0.8;"/>
     </g>
     <g id="line2d_8">
      <g>
       <use style="fill:#808080;stroke:#808080;stroke-width:0.8;" x="201.821875" xlink:href="#m8668cabb54" y="239.95125"/>
      </g>
     </g>
     <g id="text_4">
      <!-- 3 -->
      <defs>
       <path d="M 22.59375 6.796875 
Q 31.5 6.796875 35.34375 10.296875 
Q 39.203125 13.796875 39.203125 19.703125 
Q 39.203125 23.5 37.59375 26.09375 
Q 36 28.703125 33.390625 30.25 
Q 30.796875 31.796875 27.34375 32.4375 
Q 23.90625 33.09375 20.296875 33.09375 
L 17.90625 33.09375 
L 17.90625 40.703125 
L 21.203125 40.703125 
Q 23.703125 40.703125 26.34375 41.203125 
Q 29 41.703125 31.203125 43 
Q 33.40625 44.296875 34.796875 46.546875 
Q 36.203125 48.796875 36.203125 52.203125 
Q 36.203125 55 35.203125 57 
Q 34.203125 59 32.546875 60.296875 
Q 30.90625 61.59375 28.75 62.140625 
Q 26.59375 62.703125 24.203125 62.703125 
Q 19.40625 62.703125 16.046875 61.296875 
Q 12.703125 59.90625 10.40625 58.40625 
L 6.796875 65.5 
Q 8 66.296875 9.84375 67.25 
Q 11.703125 68.203125 14 69 
Q 16.296875 69.796875 18.9375 70.34375 
Q 21.59375 70.90625 24.5 70.90625 
Q 30 70.90625 34 69.546875 
Q 38 68.203125 40.59375 65.75 
Q 43.203125 63.296875 44.5 59.9375 
Q 45.796875 56.59375 45.796875 52.703125 
Q 45.796875 47.296875 42.6875 43.4375 
Q 39.59375 39.59375 35.203125 37.59375 
Q 37.90625 36.796875 40.40625 35.296875 
Q 42.90625 33.796875 44.75 31.5 
Q 46.59375 29.203125 47.75 26.203125 
Q 48.90625 23.203125 48.90625 19.5 
Q 48.90625 15 47.34375 11.140625 
Q 45.796875 7.296875 42.546875 4.5 
Q 39.296875 1.703125 34.390625 0.09375 
Q 29.5 -1.5 22.796875 -1.5 
Q 20.203125 -1.5 17.453125 -1.09375 
Q 14.703125 -0.703125 12.296875 -0.09375 
Q 9.90625 0.5 8.09375 1.09375 
Q 6.296875 1.703125 5.5 2.09375 
L 7.296875 10.203125 
Q 9 9.40625 12.953125 8.09375 
Q 16.90625 6.796875 22.59375 6.796875 
z
" id="Ubuntu-51"/>
      </defs>
      <g transform="translate(199.565625 255.25875)scale(0.08 -0.08)">
       <use xlink:href="#Ubuntu-51"/>
      </g>
     </g>
    </g>
    <g id="xtick_5">
     <g id="line2d_9">
      <path clip-path="url(#p992670c3a6)" d="M 252.549148 239.95125 
L 252.549148 22.51125 
" style="fill:none;stroke:#b0b0b0;stroke-linecap:square;stroke-opacity:0.25;stroke-width:0.8;"/>
     </g>
     <g id="line2d_10">
      <g>
       <use style="fill:#808080;stroke:#808080;stroke-width:0.8;" x="252.549148" xlink:href="#m8668cabb54" y="239.95125"/>
      </g>
     </g>
     <g id="text_5">
      <!-- 4 -->
      <defs>
       <path d="M 4 24 
Q 5.90625 28.40625 9.203125 34.25 
Q 12.5 40.09375 16.640625 46.296875 
Q 20.796875 52.5 25.546875 58.5 
Q 30.296875 64.5 35.09375 69.296875 
L 44 69.296875 
L 44 25.296875 
L 52.203125 25.296875 
L 52.203125 17.703125 
L 44 17.703125 
L 44 0 
L 35 0 
L 35 17.703125 
L 4 17.703125 
z
M 35 58.296875 
Q 32 55.09375 28.953125 51.140625 
Q 25.90625 47.203125 23 42.890625 
Q 20.09375 38.59375 17.546875 34.09375 
Q 15 29.59375 13 25.296875 
L 35 25.296875 
z
" id="Ubuntu-52"/>
      </defs>
      <g transform="translate(250.292898 255.25875)scale(0.08 -0.08)">
       <use xlink:href="#Ubuntu-52"/>
      </g>
     </g>
    </g>
    <g id="xtick_6">
     <g id="line2d_11">
      <path clip-path="url(#p992670c3a6)" d="M 303.27642 239.95125 
L 303.27642 22.51125 
" style="fill:none;stroke:#b0b0b0;stroke-linecap:square;stroke-opacity:0.25;stroke-width:0.8;"/>
     </g>
     <g id="line2d_12">
      <g>
       <use style="fill:#808080;stroke:#808080;stroke-width:0.8;" x="303.27642" xlink:href="#m8668cabb54" y="239.95125"/>
      </g>
     </g>
     <g id="text_6">
      <!-- 5 -->
      <defs>
       <path d="M 19.90625 42.59375 
Q 35 42 42.046875 36 
Q 49.09375 30 49.09375 19.703125 
Q 49.09375 15.09375 47.546875 11.1875 
Q 46 7.296875 42.84375 4.5 
Q 39.703125 1.703125 34.890625 0.09375 
Q 30.09375 -1.5 23.5 -1.5 
Q 20.90625 -1.5 18.203125 -1.09375 
Q 15.5 -0.703125 13.203125 -0.09375 
Q 10.90625 0.5 9.09375 1.09375 
Q 7.296875 1.703125 6.5 2.09375 
L 8.296875 10.203125 
Q 10 9.40625 13.84375 8.09375 
Q 17.703125 6.796875 23.296875 6.796875 
Q 27.796875 6.796875 30.84375 7.796875 
Q 33.90625 8.796875 35.796875 10.5 
Q 37.703125 12.203125 38.546875 14.453125 
Q 39.40625 16.703125 39.40625 19.203125 
Q 39.40625 23 38.09375 25.953125 
Q 36.796875 28.90625 33.5 30.90625 
Q 30.203125 32.90625 24.703125 33.953125 
Q 19.203125 35 10.796875 35 
Q 11.40625 39.90625 11.75 44.203125 
Q 12.09375 48.5 12.390625 52.59375 
Q 12.703125 56.703125 12.890625 60.75 
Q 13.09375 64.796875 13.296875 69.296875 
L 46.703125 69.296875 
L 46.703125 61.40625 
L 21.40625 61.40625 
Q 21.296875 59.90625 21.09375 57.34375 
Q 20.90625 54.796875 20.703125 52.046875 
Q 20.5 49.296875 20.296875 46.6875 
Q 20.09375 44.09375 19.90625 42.59375 
z
" id="Ubuntu-53"/>
      </defs>
      <g transform="translate(301.02017 255.25875)scale(0.08 -0.08)">
       <use xlink:href="#Ubuntu-53"/>
      </g>
     </g>
    </g>
    <g id="xtick_7">
     <g id="line2d_13">
      <path clip-path="url(#p992670c3a6)" d="M 354.003693 239.95125 
L 354.003693 22.51125 
" style="fill:none;stroke:#b0b0b0;stroke-linecap:square;stroke-opacity:0.25;stroke-width:0.8;"/>
     </g>
     <g id="line2d_14">
      <g>
       <use style="fill:#808080;stroke:#808080;stroke-width:0.8;" x="354.003693" xlink:href="#m8668cabb54" y="239.95125"/>
      </g>
     </g>
     <g id="text_7">
      <!-- 6 -->
      <defs>
       <path d="M 6.296875 27.796875 
Q 6.296875 37.90625 9.09375 45.65625 
Q 11.90625 53.40625 17.046875 58.703125 
Q 22.203125 64 29.546875 66.75 
Q 36.90625 69.5 46.09375 69.59375 
L 46.796875 61.796875 
Q 40.90625 61.703125 36.046875 60.5 
Q 31.203125 59.296875 27.390625 56.6875 
Q 23.59375 54.09375 21 49.9375 
Q 18.40625 45.796875 17.09375 39.703125 
Q 19.703125 40.90625 22.953125 41.703125 
Q 26.203125 42.5 29.703125 42.5 
Q 35.59375 42.5 39.6875 40.703125 
Q 43.796875 38.90625 46.390625 35.953125 
Q 49 33 50.140625 29.140625 
Q 51.296875 25.296875 51.296875 21.09375 
Q 51.296875 17.296875 50 13.296875 
Q 48.703125 9.296875 46.046875 6 
Q 43.40625 2.703125 39.296875 0.59375 
Q 35.203125 -1.5 29.59375 -1.5 
Q 18.203125 -1.5 12.25 6.296875 
Q 6.296875 14.09375 6.296875 27.796875 
z
M 28.703125 34.90625 
Q 25.203125 34.90625 22.203125 34.25 
Q 19.203125 33.59375 16.203125 32.296875 
Q 16.09375 31.203125 16.046875 30.046875 
Q 16 28.90625 16 27.796875 
Q 16 23.40625 16.59375 19.5 
Q 17.203125 15.59375 18.75 12.640625 
Q 20.296875 9.703125 22.890625 7.953125 
Q 25.5 6.203125 29.5 6.203125 
Q 32.796875 6.203125 35.09375 7.59375 
Q 37.40625 9 38.90625 11.203125 
Q 40.40625 13.40625 41.046875 15.953125 
Q 41.703125 18.5 41.703125 20.90625 
Q 41.703125 27.703125 38.453125 31.296875 
Q 35.203125 34.90625 28.703125 34.90625 
z
" id="Ubuntu-54"/>
      </defs>
      <g transform="translate(351.747443 255.25875)scale(0.08 -0.08)">
       <use xlink:href="#Ubuntu-54"/>
      </g>
     </g>
    </g>
    <g id="text_8">
     <!-- X -->
     <defs>
      <path d="M 50.203125 0 
Q 48.703125 3 46.59375 6.640625 
Q 44.5 10.296875 42 14.25 
Q 39.5 18.203125 36.796875 22.140625 
Q 34.09375 26.09375 31.59375 29.59375 
Q 29.09375 26.09375 26.390625 22.140625 
Q 23.703125 18.203125 21.25 14.25 
Q 18.796875 10.296875 16.640625 6.640625 
Q 14.5 3 13 0 
L 2.296875 0 
Q 6.796875 8.796875 12.75 17.890625 
Q 18.703125 27 25.40625 36.59375 
L 3.203125 69.296875 
L 14.40625 69.296875 
L 31.5 43.5 
L 48.40625 69.296875 
L 59.5 69.296875 
L 37.703125 37 
Q 44.5 27.296875 50.5 18.09375 
Q 56.5 8.90625 61.09375 0 
z
" id="Ubuntu-88"/>
     </defs>
     <g transform="translate(198.667188 268.498125)scale(0.1 -0.1)">
      <use xlink:href="#Ubuntu-88"/>
     </g>
    </g>
   </g>
   <g id="matplotlib.axis_2">
    <g id="ytick_1">
     <g id="line2d_15">
      <path clip-path="url(#p992670c3a6)" d="M 34.421875 230.069928 
L 369.221875 230.069928 
" style="fill:none;stroke:#b0b0b0;stroke-linecap:square;stroke-opacity:0.25;stroke-width:0.8;"/>
     </g>
     <g id="line2d_16">
      <defs>
       <path d="M 0 0 
L -3.5 0 
" id="m8df0bd5132" style="stroke:#808080;stroke-width:0.8;"/>
      </defs>
      <g>
       <use style="fill:#808080;stroke:#808080;stroke-width:0.8;" x="34.421875" xlink:href="#m8df0bd5132" y="230.069928"/>
      </g>
     </g>
     <g id="text_9">
      <!-- 2 -->
      <g transform="translate(20.809375 233.173678)scale(0.08 -0.08)">
       <use xlink:href="#Ubuntu-50"/>
      </g>
     </g>
    </g>
    <g id="ytick_2">
     <g id="line2d_17">
      <path clip-path="url(#p992670c3a6)" d="M 34.421875 197.230224 
L 369.221875 197.230224 
" style="fill:none;stroke:#b0b0b0;stroke-linecap:square;stroke-opacity:0.25;stroke-width:0.8;"/>
     </g>
     <g id="line2d_18">
      <g>
       <use style="fill:#808080;stroke:#808080;stroke-width:0.8;" x="34.421875" xlink:href="#m8df0bd5132" y="197.230224"/>
      </g>
     </g>
     <g id="text_10">
      <!-- 3 -->
      <g transform="translate(20.809375 200.333974)scale(0.08 -0.08)">
       <use xlink:href="#Ubuntu-51"/>
      </g>
     </g>
    </g>
    <g id="ytick_3">
     <g id="line2d_19">
      <path clip-path="url(#p992670c3a6)" d="M 34.421875 164.39052 
L 369.221875 164.39052 
" style="fill:none;stroke:#b0b0b0;stroke-linecap:square;stroke-opacity:0.25;stroke-width:0.8;"/>
     </g>
     <g id="line2d_20">
      <g>
       <use style="fill:#808080;stroke:#808080;stroke-width:0.8;" x="34.421875" xlink:href="#m8df0bd5132" y="164.39052"/>
      </g>
     </g>
     <g id="text_11">
      <!-- 4 -->
      <g transform="translate(20.809375 167.49427)scale(0.08 -0.08)">
       <use xlink:href="#Ubuntu-52"/>
      </g>
     </g>
    </g>
    <g id="ytick_4">
     <g id="line2d_21">
      <path clip-path="url(#p992670c3a6)" d="M 34.421875 131.550816 
L 369.221875 131.550816 
" style="fill:none;stroke:#b0b0b0;stroke-linecap:square;stroke-opacity:0.25;stroke-width:0.8;"/>
     </g>
     <g id="line2d_22">
      <g>
       <use style="fill:#808080;stroke:#808080;stroke-width:0.8;" x="34.421875" xlink:href="#m8df0bd5132" y="131.550816"/>
      </g>
     </g>
     <g id="text_12">
      <!-- 5 -->
      <g transform="translate(20.809375 134.654566)scale(0.08 -0.08)">
       <use xlink:href="#Ubuntu-53"/>
      </g>
     </g>
    </g>
    <g id="ytick_5">
     <g id="line2d_23">
      <path clip-path="url(#p992670c3a6)" d="M 34.421875 98.711112 
L 369.221875 98.711112 
" style="fill:none;stroke:#b0b0b0;stroke-linecap:square;stroke-opacity:0.25;stroke-width:0.8;"/>
     </g>
     <g id="line2d_24">
      <g>
       <use style="fill:#808080;stroke:#808080;stroke-width:0.8;" x="34.421875" xlink:href="#m8df0bd5132" y="98.711112"/>
      </g>
     </g>
     <g id="text_13">
      <!-- 6 -->
      <g transform="translate(20.809375 101.814862)scale(0.08 -0.08)">
       <use xlink:href="#Ubuntu-54"/>
      </g>
     </g>
    </g>
    <g id="ytick_6">
     <g id="line2d_25">
      <path clip-path="url(#p992670c3a6)" d="M 34.421875 65.871408 
L 369.221875 65.871408 
" style="fill:none;stroke:#b0b0b0;stroke-linecap:square;stroke-opacity:0.25;stroke-width:0.8;"/>
     </g>
     <g id="line2d_26">
      <g>
       <use style="fill:#808080;stroke:#808080;stroke-width:0.8;" x="34.421875" xlink:href="#m8df0bd5132" y="65.871408"/>
      </g>
     </g>
     <g id="text_14">
      <!-- 7 -->
      <defs>
       <path d="M 16.296875 0 
Q 16.90625 8 19.15625 16.84375 
Q 21.40625 25.703125 24.703125 34.046875 
Q 28 42.40625 31.953125 49.546875 
Q 35.90625 56.703125 39.703125 61.203125 
L 6 61.203125 
L 6 69.296875 
L 50.09375 69.296875 
L 50.09375 61.59375 
Q 46.796875 57.796875 42.796875 51.140625 
Q 38.796875 44.5 35.25 36.25 
Q 31.703125 28 29.140625 18.640625 
Q 26.59375 9.296875 26 0 
z
" id="Ubuntu-55"/>
      </defs>
      <g transform="translate(20.809375 68.975158)scale(0.08 -0.08)">
       <use xlink:href="#Ubuntu-55"/>
      </g>
     </g>
    </g>
    <g id="ytick_7">
     <g id="line2d_27">
      <path clip-path="url(#p992670c3a6)" d="M 34.421875 33.031704 
L 369.221875 33.031704 
" style="fill:none;stroke:#b0b0b0;stroke-linecap:square;stroke-opacity:0.25;stroke-width:0.8;"/>
     </g>
     <g id="line2d_28">
      <g>
       <use style="fill:#808080;stroke:#808080;stroke-width:0.8;" x="34.421875" xlink:href="#m8df0bd5132" y="33.031704"/>
      </g>
     </g>
     <g id="text_15">
      <!-- 8 -->
      <defs>
       <path d="M 50.90625 18 
Q 50.90625 13.796875 49.453125 10.25 
Q 48 6.703125 45.140625 4.046875 
Q 42.296875 1.40625 38 -0.046875 
Q 33.703125 -1.5 28.09375 -1.5 
Q 21.59375 -1.5 17.25 0.34375 
Q 12.90625 2.203125 10.296875 5 
Q 7.703125 7.796875 6.59375 11.140625 
Q 5.5 14.5 5.5 17.5 
Q 5.5 20.40625 6.453125 23.046875 
Q 7.40625 25.703125 8.953125 28 
Q 10.5 30.296875 12.546875 32.140625 
Q 14.59375 34 16.90625 35.40625 
Q 7.09375 41 7.09375 51.90625 
Q 7.09375 55.703125 8.59375 59.140625 
Q 10.09375 62.59375 12.84375 65.1875 
Q 15.59375 67.796875 19.5 69.34375 
Q 23.40625 70.90625 28.203125 70.90625 
Q 33.796875 70.90625 37.796875 69.203125 
Q 41.796875 67.5 44.34375 64.84375 
Q 46.90625 62.203125 48.046875 59 
Q 49.203125 55.796875 49.203125 52.796875 
Q 49.203125 49.90625 48.34375 47.34375 
Q 47.5 44.796875 46.046875 42.59375 
Q 44.59375 40.40625 42.75 38.703125 
Q 40.90625 37 38.90625 35.703125 
Q 50.703125 30.09375 50.90625 18 
z
M 14.90625 17.40625 
Q 14.90625 15.59375 15.546875 13.640625 
Q 16.203125 11.703125 17.796875 10.046875 
Q 19.40625 8.40625 21.90625 7.296875 
Q 24.40625 6.203125 28.203125 6.203125 
Q 31.59375 6.203125 34.140625 7.203125 
Q 36.703125 8.203125 38.296875 9.75 
Q 39.90625 11.296875 40.703125 13.296875 
Q 41.5 15.296875 41.5 17.40625 
Q 41.5 20.59375 40.296875 23 
Q 39.09375 25.40625 36.84375 27.203125 
Q 34.59375 29 31.4375 30.25 
Q 28.296875 31.5 24.296875 32.40625 
Q 19.796875 29.90625 17.34375 26.203125 
Q 14.90625 22.5 14.90625 17.40625 
z
M 39.90625 52.90625 
Q 39.90625 54.40625 39.25 56.203125 
Q 38.59375 58 37.1875 59.546875 
Q 35.796875 61.09375 33.59375 62.140625 
Q 31.40625 63.203125 28.203125 63.203125 
Q 25 63.203125 22.75 62.203125 
Q 20.5 61.203125 19.09375 59.640625 
Q 17.703125 58.09375 17.046875 56.25 
Q 16.40625 54.40625 16.40625 52.59375 
Q 16.40625 50.40625 17.203125 48.203125 
Q 18 46 19.703125 44.09375 
Q 21.40625 42.203125 24.15625 40.703125 
Q 26.90625 39.203125 30.703125 38.296875 
Q 34.90625 40.796875 37.40625 44.140625 
Q 39.90625 47.5 39.90625 52.90625 
z
" id="Ubuntu-56"/>
      </defs>
      <g transform="translate(20.809375 36.135454)scale(0.08 -0.08)">
       <use xlink:href="#Ubuntu-56"/>
      </g>
     </g>
    </g>
    <g id="text_16">
     <!-- Gold content -->
     <defs>
      <path d="M 50.90625 34.09375 
L 60.59375 34.09375 
L 60.59375 1.703125 
Q 59.40625 1.296875 57.15625 0.796875 
Q 54.90625 0.296875 51.953125 -0.203125 
Q 49 -0.703125 45.5 -1.046875 
Q 42 -1.40625 38.40625 -1.40625 
Q 31.09375 -1.40625 25.09375 1 
Q 19.09375 3.40625 14.796875 8 
Q 10.5 12.59375 8.140625 19.296875 
Q 5.796875 26 5.796875 34.703125 
Q 5.796875 43.40625 8.4375 50.15625 
Q 11.09375 56.90625 15.59375 61.5 
Q 20.09375 66.09375 26.140625 68.5 
Q 32.203125 70.90625 39.09375 70.90625 
Q 43.796875 70.90625 47.4375 70.296875 
Q 51.09375 69.703125 53.6875 68.890625 
Q 56.296875 68.09375 57.9375 67.296875 
Q 59.59375 66.5 60.203125 66.09375 
L 57.09375 58 
Q 54.203125 59.90625 49.390625 61.15625 
Q 44.59375 62.40625 39.59375 62.40625 
Q 34.296875 62.40625 29.9375 60.5 
Q 25.59375 58.59375 22.546875 55 
Q 19.5 51.40625 17.796875 46.25 
Q 16.09375 41.09375 16.09375 34.703125 
Q 16.09375 28.5 17.546875 23.390625 
Q 19 18.296875 21.953125 14.640625 
Q 24.90625 11 29.25 9 
Q 33.59375 7 39.5 7 
Q 43.703125 7 46.640625 7.453125 
Q 49.59375 7.90625 50.90625 8.296875 
z
" id="Ubuntu-71"/>
      <path d="M 53.90625 26 
Q 53.90625 19.796875 52.09375 14.796875 
Q 50.296875 9.796875 47.046875 6.1875 
Q 43.796875 2.59375 39.296875 0.640625 
Q 34.796875 -1.296875 29.5 -1.296875 
Q 24.203125 -1.296875 19.703125 0.640625 
Q 15.203125 2.59375 11.953125 6.1875 
Q 8.703125 9.796875 6.890625 14.796875 
Q 5.09375 19.796875 5.09375 26 
Q 5.09375 32.09375 6.890625 37.140625 
Q 8.703125 42.203125 11.953125 45.796875 
Q 15.203125 49.40625 19.703125 51.34375 
Q 24.203125 53.296875 29.5 53.296875 
Q 34.796875 53.296875 39.296875 51.34375 
Q 43.796875 49.40625 47.046875 45.796875 
Q 50.296875 42.203125 52.09375 37.140625 
Q 53.90625 32.09375 53.90625 26 
z
M 44.203125 26 
Q 44.203125 34.796875 40.25 39.9375 
Q 36.296875 45.09375 29.5 45.09375 
Q 22.703125 45.09375 18.75 39.9375 
Q 14.796875 34.796875 14.796875 26 
Q 14.796875 17.203125 18.75 12.046875 
Q 22.703125 6.90625 29.5 6.90625 
Q 36.296875 6.90625 40.25 12.046875 
Q 44.203125 17.203125 44.203125 26 
z
" id="Ubuntu-111"/>
      <path d="M 23.59375 -1 
Q 15 -0.796875 11.390625 2.703125 
Q 7.796875 6.203125 7.796875 13.59375 
L 7.796875 76 
L 17.09375 77.59375 
L 17.09375 15.09375 
Q 17.09375 12.796875 17.5 11.296875 
Q 17.90625 9.796875 18.796875 8.890625 
Q 19.703125 8 21.203125 7.546875 
Q 22.703125 7.09375 24.90625 6.796875 
z
" id="Ubuntu-108"/>
      <path d="M 41.59375 41 
Q 39.90625 42.40625 36.703125 43.703125 
Q 33.5 45 29.703125 45 
Q 25.703125 45 22.84375 43.546875 
Q 20 42.09375 18.203125 39.546875 
Q 16.40625 37 15.59375 33.5 
Q 14.796875 30 14.796875 26 
Q 14.796875 16.90625 19.296875 11.953125 
Q 23.796875 7 31.296875 7 
Q 35.09375 7 37.640625 7.34375 
Q 40.203125 7.703125 41.59375 8.09375 
z
M 41.59375 76 
L 50.90625 77.59375 
L 50.90625 1.5 
Q 47.703125 0.59375 42.703125 -0.296875 
Q 37.703125 -1.203125 31.203125 -1.203125 
Q 25.203125 -1.203125 20.390625 0.6875 
Q 15.59375 2.59375 12.1875 6.09375 
Q 8.796875 9.59375 6.9375 14.640625 
Q 5.09375 19.703125 5.09375 26 
Q 5.09375 32 6.640625 37 
Q 8.203125 42 11.203125 45.59375 
Q 14.203125 49.203125 18.546875 51.203125 
Q 22.90625 53.203125 28.5 53.203125 
Q 33 53.203125 36.453125 52 
Q 39.90625 50.796875 41.59375 49.703125 
z
" id="Ubuntu-100"/>
      <path id="Ubuntu-32"/>
      <path d="M 30.59375 -1.203125 
Q 24.296875 -1.203125 19.546875 0.796875 
Q 14.796875 2.796875 11.546875 6.390625 
Q 8.296875 10 6.6875 14.953125 
Q 5.09375 19.90625 5.09375 25.90625 
Q 5.09375 31.90625 6.84375 36.90625 
Q 8.59375 41.90625 11.796875 45.546875 
Q 15 49.203125 19.640625 51.25 
Q 24.296875 53.296875 30 53.296875 
Q 33.5 53.296875 37 52.6875 
Q 40.5 52.09375 43.703125 50.796875 
L 41.59375 42.90625 
Q 39.5 43.90625 36.75 44.5 
Q 34 45.09375 30.90625 45.09375 
Q 23.09375 45.09375 18.9375 40.1875 
Q 14.796875 35.296875 14.796875 25.90625 
Q 14.796875 21.703125 15.75 18.203125 
Q 16.703125 14.703125 18.75 12.203125 
Q 20.796875 9.703125 24 8.34375 
Q 27.203125 7 31.796875 7 
Q 35.5 7 38.5 7.703125 
Q 41.5 8.40625 43.203125 9.203125 
L 44.5 1.40625 
Q 43.703125 0.90625 42.203125 0.453125 
Q 40.703125 0 38.796875 -0.34375 
Q 36.90625 -0.703125 34.75 -0.953125 
Q 32.59375 -1.203125 30.59375 -1.203125 
z
" id="Ubuntu-99"/>
      <path d="M 8 50.5 
Q 11.203125 51.296875 16.5 52.1875 
Q 21.796875 53.09375 28.703125 53.09375 
Q 34.90625 53.09375 39 51.34375 
Q 43.09375 49.59375 45.546875 46.4375 
Q 48 43.296875 49 38.890625 
Q 50 34.5 50 29.203125 
L 50 0 
L 40.703125 0 
L 40.703125 27.203125 
Q 40.703125 32 40.046875 35.390625 
Q 39.40625 38.796875 37.90625 40.890625 
Q 36.40625 43 33.90625 43.953125 
Q 31.40625 44.90625 27.703125 44.90625 
Q 26.203125 44.90625 24.59375 44.796875 
Q 23 44.703125 21.546875 44.546875 
Q 20.09375 44.40625 18.9375 44.203125 
Q 17.796875 44 17.296875 43.90625 
L 17.296875 0 
L 8 0 
z
" id="Ubuntu-110"/>
      <path d="M 16.703125 52 
L 36.40625 52 
L 36.40625 44.203125 
L 16.703125 44.203125 
L 16.703125 20.203125 
Q 16.703125 16.296875 17.296875 13.75 
Q 17.90625 11.203125 19.09375 9.75 
Q 20.296875 8.296875 22.09375 7.6875 
Q 23.90625 7.09375 26.296875 7.09375 
Q 30.5 7.09375 33.046875 8.046875 
Q 35.59375 9 36.59375 9.40625 
L 38.40625 1.703125 
Q 37 1 33.5 -0.046875 
Q 30 -1.09375 25.5 -1.09375 
Q 20.203125 -1.09375 16.75 0.25 
Q 13.296875 1.59375 11.1875 4.296875 
Q 9.09375 7 8.25 10.953125 
Q 7.40625 14.90625 7.40625 20.09375 
L 7.40625 66.5 
L 16.703125 68.09375 
z
" id="Ubuntu-116"/>
      <path d="M 5.09375 25.90625 
Q 5.09375 32.796875 7.09375 37.9375 
Q 9.09375 43.09375 12.390625 46.5 
Q 15.703125 49.90625 20 51.59375 
Q 24.296875 53.296875 28.796875 53.296875 
Q 39.296875 53.296875 44.890625 46.75 
Q 50.5 40.203125 50.5 26.796875 
Q 50.5 26.203125 50.5 25.25 
Q 50.5 24.296875 50.40625 23.5 
L 14.796875 23.5 
Q 15.40625 15.40625 19.5 11.203125 
Q 23.59375 7 32.296875 7 
Q 37.203125 7 40.546875 7.84375 
Q 43.90625 8.703125 45.59375 9.5 
L 46.90625 1.703125 
Q 45.203125 0.796875 40.953125 -0.203125 
Q 36.703125 -1.203125 31.296875 -1.203125 
Q 24.5 -1.203125 19.546875 0.84375 
Q 14.59375 2.90625 11.390625 6.5 
Q 8.203125 10.09375 6.640625 15.046875 
Q 5.09375 20 5.09375 25.90625 
z
M 40.796875 31 
Q 40.90625 37.296875 37.65625 41.34375 
Q 34.40625 45.40625 28.703125 45.40625 
Q 25.5 45.40625 23.046875 44.15625 
Q 20.59375 42.90625 18.890625 40.90625 
Q 17.203125 38.90625 16.25 36.296875 
Q 15.296875 33.703125 15 31 
z
" id="Ubuntu-101"/>
     </defs>
     <g transform="translate(14.959375 160.835937)rotate(-90)scale(0.1 -0.1)">
      <use xlink:href="#Ubuntu-71"/>
      <use x="67.199997" xlink:href="#Ubuntu-111"/>
      <use x="126.199982" xlink:href="#Ubuntu-108"/>
      <use x="153.499969" xlink:href="#Ubuntu-100"/>
      <use x="212.399963" xlink:href="#Ubuntu-32"/>
      <use x="235.499954" xlink:href="#Ubuntu-99"/>
      <use x="281.984314" xlink:href="#Ubuntu-111"/>
      <use x="340.984299" xlink:href="#Ubuntu-110"/>
      <use x="398.384293" xlink:href="#Ubuntu-116"/>
      <use x="438.568665" xlink:href="#Ubuntu-101"/>
      <use x="494.468658" xlink:href="#Ubuntu-110"/>
      <use x="551.868652" xlink:href="#Ubuntu-116"/>
     </g>
    </g>
   </g>
   <g id="line2d_29">
    <path clip-path="url(#p992670c3a6)" d="M 49.640057 155.314171 
L 51.672535 153.990113 
L 53.705014 152.406274 
L 55.229372 150.974197 
L 57.261851 148.764949 
L 59.802449 145.691327 
L 68.948601 133.789161 
L 70.98108 130.666517 
L 73.521678 126.228634 
L 81.651591 111.559116 
L 84.192189 106.576378 
L 88.257146 97.946032 
L 94.354581 85.150861 
L 97.403299 79.162369 
L 99.943897 74.580657 
L 101.976375 71.353855 
L 104.008853 68.579536 
L 105.533212 66.844081 
L 107.057571 65.403794 
L 109.090049 63.863084 
L 112.646886 61.486184 
L 114.679365 60.336011 
L 116.711843 59.408453 
L 121.793039 57.427563 
L 124.333637 56.561622 
L 127.382355 55.851476 
L 129.414833 55.556927 
L 130.939192 55.630186 
L 132.463551 56.031491 
L 133.987909 56.775521 
L 136.020388 58.168236 
L 138.052866 59.851373 
L 140.085344 61.757008 
L 142.117823 63.976125 
L 144.150301 66.524757 
L 146.18278 69.402702 
L 153.296454 79.819486 
L 156.345171 83.526092 
L 161.934487 89.992539 
L 163.966965 92.803864 
L 167.015683 97.455859 
L 171.08064 103.763833 
L 173.113118 106.50257 
L 175.653716 109.52577 
L 177.178075 111.03055 
L 179.210553 112.66984 
L 181.243031 114.058647 
L 182.76739 114.861915 
L 184.291749 115.441862 
L 186.324227 115.928612 
L 188.356706 116.143913 
L 191.913543 116.279032 
L 193.946021 116.17622 
L 195.9785 115.840073 
L 199.027217 115.008433 
L 205.632772 112.936793 
L 207.66525 112.080489 
L 211.222087 110.241877 
L 213.762685 108.651606 
L 216.811403 106.390902 
L 218.843881 104.733051 
L 220.87636 102.779585 
L 222.908838 100.470466 
L 226.465675 95.955478 
L 230.022512 91.03619 
L 235.103708 84.198636 
L 242.725502 74.361506 
L 246.790459 69.430517 
L 248.822937 67.352295 
L 250.347296 65.996767 
L 251.871655 64.922948 
L 253.396014 64.166905 
L 254.412253 63.904327 
L 255.428492 63.839647 
L 256.444731 63.955271 
L 257.46097 64.220579 
L 258.47721 64.645158 
L 259.493449 65.237896 
L 261.017808 66.435191 
L 263.558406 68.874519 
L 276.261395 81.526507 
L 279.310113 85.043915 
L 282.86695 89.429528 
L 287.948146 95.996925 
L 292.521222 101.50687 
L 295.56994 104.743031 
L 297.094299 106.112522 
L 298.618658 107.206327 
L 300.143016 108.068017 
L 301.667375 108.644225 
L 303.191734 108.931946 
L 305.224212 109.035376 
L 310.305408 109.082121 
L 312.337887 109.328892 
L 314.878485 109.937259 
L 316.910963 110.682363 
L 321.484039 112.580116 
L 323.008398 112.904246 
L 324.532757 112.974304 
L 326.057116 112.782443 
L 327.581474 112.357245 
L 333.17079 110.345074 
L 338.760105 108.030293 
L 340.284464 107.239321 
L 342.316943 105.924169 
L 344.857541 104.000469 
L 348.414378 100.945912 
L 350.954976 98.513133 
L 352.987454 96.206497 
L 354.003693 94.912207 
L 354.003693 94.912207 
" style="fill:none;stroke:#1f77b4;stroke-linecap:square;stroke-width:2.7;"/>
   </g>
   <g id="line2d_30">
    <path clip-path="url(#p992670c3a6)" d="M 49.640057 89.839846 
L 51.672535 92.561574 
L 55.229372 97.842593 
L 58.786209 103.252901 
L 60.818688 106.009989 
L 63.359286 109.100181 
L 67.424243 113.657025 
L 69.456721 116.084418 
L 73.521678 121.603061 
L 76.570395 125.588926 
L 80.127232 129.902021 
L 82.66783 132.597548 
L 85.208428 134.953342 
L 88.257146 137.498989 
L 90.289624 138.9155 
L 92.830222 140.389831 
L 98.927657 143.537594 
L 100.960136 144.558448 
L 108.58193 147.865021 
L 111.630647 149.247588 
L 118.744322 152.665875 
L 121.793039 153.681653 
L 124.841757 154.424997 
L 128.906713 155.139536 
L 130.939192 155.18553 
L 135.004148 154.939626 
L 138.052866 154.831348 
L 142.117823 154.716097 
L 144.150301 154.516118 
L 147.199019 153.947042 
L 150.755856 153.288357 
L 152.280215 152.998329 
L 154.312693 152.330568 
L 160.918248 149.759942 
L 162.950726 148.968848 
L 165.491324 148.328852 
L 168.031922 147.898349 
L 169.556281 147.911253 
L 171.08064 148.212244 
L 173.621238 149.107087 
L 176.161836 150.186625 
L 178.702434 151.520382 
L 181.751151 153.41258 
L 187.340467 156.877599 
L 189.372945 157.79955 
L 191.405423 158.485841 
L 193.437902 158.909679 
L 196.994739 159.26556 
L 200.043456 159.457529 
L 202.584054 159.338846 
L 204.616533 159.315985 
L 206.140892 159.539165 
L 208.68149 160.239568 
L 211.730207 161.286888 
L 215.287044 162.820435 
L 221.384479 165.789266 
L 224.941316 167.991557 
L 227.990034 169.772202 
L 230.530632 171.040559 
L 234.595589 172.760479 
L 236.628067 173.324154 
L 238.152426 173.528042 
L 239.676785 173.526017 
L 243.233622 173.148503 
L 245.2661 172.77863 
L 247.298579 172.246327 
L 248.822937 171.652491 
L 250.347296 170.78734 
L 251.871655 169.543758 
L 253.904133 167.447893 
L 257.46097 163.392977 
L 261.017808 159.31875 
L 264.574645 155.57138 
L 266.099004 154.240246 
L 267.623362 153.197911 
L 269.147721 152.450568 
L 270.67208 152.01738 
L 272.196439 151.852284 
L 273.720797 151.961867 
L 274.737037 152.223096 
L 276.261395 152.864939 
L 278.293874 154.083946 
L 280.834472 155.919463 
L 283.37507 158.092644 
L 285.915668 160.632644 
L 288.456266 163.425628 
L 290.996864 166.562666 
L 299.126777 177.03911 
L 301.159255 179.194993 
L 303.191734 180.999424 
L 305.732332 182.920336 
L 308.781049 184.891652 
L 310.813528 186.026572 
L 312.846006 186.862732 
L 314.878485 187.436133 
L 318.435322 188.131452 
L 320.4678 188.259094 
L 323.516518 188.12691 
L 327.073355 187.730026 
L 331.138311 187.191368 
L 340.284464 186.050151 
L 342.825062 185.519049 
L 344.349421 184.970734 
L 346.381899 184.004957 
L 348.414378 182.799694 
L 350.446856 181.378015 
L 352.479334 179.704997 
L 354.003693 178.320057 
L 354.003693 178.320057 
" style="fill:none;stroke:#ff7f0e;stroke-linecap:square;stroke-width:2.7;"/>
   </g>
   <g id="line2d_31">
    <path clip-path="url(#p992670c3a6)" d="M 49.640057 120.310687 
L 53.705014 119.509412 
L 56.245612 119.318421 
L 61.326807 119.089139 
L 63.359286 119.32185 
L 65.391764 119.790364 
L 67.424243 120.458516 
L 71.489199 122.130539 
L 79.110993 125.397246 
L 81.143472 126.626859 
L 83.17595 128.12346 
L 86.224668 130.758174 
L 90.797744 134.842324 
L 92.830222 136.585371 
L 94.862701 138.040397 
L 100.960136 141.904226 
L 102.992614 142.844916 
L 105.025092 143.469054 
L 108.07381 144.097287 
L 109.598169 144.223311 
L 111.122528 144.113721 
L 113.155006 143.681036 
L 116.711843 142.858373 
L 119.760561 142.226094 
L 121.793039 141.593138 
L 125.857996 140.216603 
L 127.890474 139.825103 
L 129.414833 139.728387 
L 131.447311 139.880573 
L 133.47979 140.23689 
L 136.020388 140.943922 
L 138.052866 141.742199 
L 139.577225 142.602776 
L 141.101584 143.737408 
L 143.134062 145.66565 
L 147.199019 149.619162 
L 152.788334 154.840711 
L 158.885769 161.350049 
L 165.491324 168.630431 
L 168.540042 171.436173 
L 171.08064 173.866905 
L 174.637477 177.634218 
L 176.669955 180.007251 
L 182.259271 186.924307 
L 184.799869 189.465405 
L 189.881065 194.185913 
L 194.454141 198.463238 
L 200.551576 204.382492 
L 202.584054 206.009674 
L 204.616533 207.27318 
L 207.157131 208.538102 
L 209.189609 209.24935 
L 211.222087 209.65196 
L 212.746446 209.715726 
L 214.778925 209.587136 
L 217.319523 209.147207 
L 219.860121 208.557425 
L 221.892599 207.823929 
L 223.416958 207.074652 
L 225.449436 205.804187 
L 227.990034 203.89821 
L 230.022512 202.031178 
L 231.546871 200.376697 
L 233.07123 198.433615 
L 235.103708 195.38619 
L 237.136187 191.893653 
L 239.168665 187.984127 
L 241.201143 183.623186 
L 243.741741 177.541542 
L 255.428492 148.338865 
L 259.493449 138.919511 
L 262.542166 132.311297 
L 265.082764 127.253054 
L 268.131482 121.732448 
L 272.196439 114.908981 
L 274.737037 111.009447 
L 277.277635 107.59028 
L 279.310113 105.188474 
L 280.834472 103.6553 
L 282.358831 102.425155 
L 284.391309 101.171672 
L 290.488744 98.071037 
L 294.045581 96.44042 
L 296.07806 95.889889 
L 298.110538 95.627455 
L 299.634897 95.656862 
L 301.159255 95.894824 
L 308.27293 97.354643 
L 310.305408 97.413455 
L 313.862245 97.170063 
L 318.435322 96.790378 
L 319.95968 96.45275 
L 321.992159 95.781592 
L 326.565235 94.055993 
L 336.219507 91.306489 
L 338.251986 90.535248 
L 340.284464 89.529853 
L 342.316943 88.248871 
L 344.349421 86.708281 
L 347.398138 84.080514 
L 350.446856 81.106477 
L 354.003693 77.458661 
L 354.003693 77.458661 
" style="fill:none;stroke:#2ca02c;stroke-linecap:square;stroke-width:2.7;"/>
   </g>
   <g id="line2d_32">
    <path clip-path="url(#p992670c3a6)" d="M 49.640057 124.955552 
L 59.802449 124.140078 
L 67.424243 123.736366 
L 74.029797 123.594205 
L 80.635352 123.672403 
L 87.749026 123.985783 
L 96.387059 124.608474 
L 109.090049 125.784748 
L 132.463551 127.965374 
L 145.67466 128.955211 
L 158.885769 129.725205 
L 173.113118 130.332962 
L 189.881065 130.815692 
L 210.205848 131.164698 
L 237.644306 131.395771 
L 281.850711 131.51779 
L 354.003693 131.548504 
L 354.003693 131.548504 
" style="fill:none;stroke:#000000;stroke-dasharray:17.28,4.32,2.7,4.32;stroke-dashoffset:0;stroke-width:2.7;"/>
   </g>
   <g id="patch_3">
    <path d="M 34.421875 239.95125 
L 34.421875 22.51125 
" style="fill:none;stroke:#808080;stroke-linecap:square;stroke-linejoin:miter;stroke-width:0.5;"/>
   </g>
   <g id="patch_4">
    <path d="M 34.421875 239.95125 
L 369.221875 239.95125 
" style="fill:none;stroke:#808080;stroke-linecap:square;stroke-linejoin:miter;stroke-width:0.5;"/>
   </g>
   <g id="text_17">
    <!-- Samples from Surrogate Posterior -->
    <defs>
     <path d="M 24.703125 6.90625 
Q 39.90625 6.90625 39.90625 17.296875 
Q 39.90625 20.5 38.546875 22.75 
Q 37.203125 25 34.890625 26.640625 
Q 32.59375 28.296875 29.640625 29.5 
Q 26.703125 30.703125 23.40625 31.90625 
Q 19.59375 33.203125 16.1875 34.84375 
Q 12.796875 36.5 10.296875 38.75 
Q 7.796875 41 6.34375 44.09375 
Q 4.90625 47.203125 4.90625 51.59375 
Q 4.90625 60.703125 11.09375 65.796875 
Q 17.296875 70.90625 28.203125 70.90625 
Q 34.5 70.90625 39.640625 69.546875 
Q 44.796875 68.203125 47.203125 66.59375 
L 44.09375 58.703125 
Q 42 60 37.84375 61.25 
Q 33.703125 62.5 28.203125 62.5 
Q 25.40625 62.5 23 61.890625 
Q 20.59375 61.296875 18.796875 60.09375 
Q 17 58.90625 15.953125 57.046875 
Q 14.90625 55.203125 14.90625 52.703125 
Q 14.90625 49.90625 16 48 
Q 17.09375 46.09375 19.09375 44.640625 
Q 21.09375 43.203125 23.75 42 
Q 26.40625 40.796875 29.59375 39.59375 
Q 34.09375 37.796875 37.84375 36 
Q 41.59375 34.203125 44.34375 31.703125 
Q 47.09375 29.203125 48.59375 25.75 
Q 50.09375 22.296875 50.09375 17.40625 
Q 50.09375 8.296875 43.4375 3.390625 
Q 36.796875 -1.5 24.703125 -1.5 
Q 20.59375 -1.5 17.140625 -0.953125 
Q 13.703125 -0.40625 11 0.34375 
Q 8.296875 1.09375 6.34375 1.9375 
Q 4.40625 2.796875 3.296875 3.40625 
L 6.203125 11.40625 
Q 8.5 10.09375 13.203125 8.5 
Q 17.90625 6.90625 24.703125 6.90625 
z
" id="Ubuntu-83"/>
     <path d="M 25.59375 6.703125 
Q 28.90625 6.703125 31.453125 6.84375 
Q 34 7 35.703125 7.40625 
L 35.703125 22.90625 
Q 34.703125 23.40625 32.453125 23.75 
Q 30.203125 24.09375 27 24.09375 
Q 24.90625 24.09375 22.546875 23.796875 
Q 20.203125 23.5 18.25 22.546875 
Q 16.296875 21.59375 15 19.9375 
Q 13.703125 18.296875 13.703125 15.59375 
Q 13.703125 10.59375 16.890625 8.640625 
Q 20.09375 6.703125 25.59375 6.703125 
z
M 24.796875 53.296875 
Q 30.40625 53.296875 34.25 51.84375 
Q 38.09375 50.40625 40.4375 47.75 
Q 42.796875 45.09375 43.796875 41.4375 
Q 44.796875 37.796875 44.796875 33.40625 
L 44.796875 0.90625 
Q 43.59375 0.703125 41.4375 0.34375 
Q 39.296875 0 36.59375 -0.296875 
Q 33.90625 -0.59375 30.75 -0.84375 
Q 27.59375 -1.09375 24.5 -1.09375 
Q 20.09375 -1.09375 16.390625 -0.1875 
Q 12.703125 0.703125 10 2.640625 
Q 7.296875 4.59375 5.796875 7.796875 
Q 4.296875 11 4.296875 15.5 
Q 4.296875 19.796875 6.046875 22.890625 
Q 7.796875 26 10.796875 27.890625 
Q 13.796875 29.796875 17.796875 30.6875 
Q 21.796875 31.59375 26.203125 31.59375 
Q 27.59375 31.59375 29.09375 31.4375 
Q 30.59375 31.296875 31.9375 31.046875 
Q 33.296875 30.796875 34.296875 30.59375 
Q 35.296875 30.40625 35.703125 30.296875 
L 35.703125 32.90625 
Q 35.703125 35.203125 35.203125 37.453125 
Q 34.703125 39.703125 33.390625 41.453125 
Q 32.09375 43.203125 29.84375 44.25 
Q 27.59375 45.296875 24 45.296875 
Q 19.40625 45.296875 15.953125 44.640625 
Q 12.5 44 10.796875 43.296875 
L 9.703125 51 
Q 11.5 51.796875 15.703125 52.546875 
Q 19.90625 53.296875 24.796875 53.296875 
z
" id="Ubuntu-97"/>
     <path d="M 8 50.5 
Q 11.203125 51.296875 16.453125 52.1875 
Q 21.703125 53.09375 28.59375 53.09375 
Q 33.59375 53.09375 37 51.75 
Q 40.40625 50.40625 42.703125 47.796875 
Q 43.40625 48.296875 44.90625 49.1875 
Q 46.40625 50.09375 48.59375 50.9375 
Q 50.796875 51.796875 53.5 52.4375 
Q 56.203125 53.09375 59.296875 53.09375 
Q 65.296875 53.09375 69.09375 51.34375 
Q 72.90625 49.59375 75.046875 46.390625 
Q 77.203125 43.203125 77.953125 38.796875 
Q 78.703125 34.40625 78.703125 29.203125 
L 78.703125 0 
L 69.40625 0 
L 69.40625 27.203125 
Q 69.40625 31.796875 68.953125 35.09375 
Q 68.5 38.40625 67.25 40.59375 
Q 66 42.796875 63.84375 43.84375 
Q 61.703125 44.90625 58.296875 44.90625 
Q 53.59375 44.90625 50.546875 43.65625 
Q 47.5 42.40625 46.40625 41.40625 
Q 47.203125 38.796875 47.59375 35.6875 
Q 48 32.59375 48 29.203125 
L 48 0 
L 38.703125 0 
L 38.703125 27.203125 
Q 38.703125 31.796875 38.203125 35.09375 
Q 37.703125 38.40625 36.453125 40.59375 
Q 35.203125 42.796875 33.046875 43.84375 
Q 30.90625 44.90625 27.59375 44.90625 
Q 26.203125 44.90625 24.59375 44.796875 
Q 23 44.703125 21.546875 44.546875 
Q 20.09375 44.40625 18.890625 44.203125 
Q 17.703125 44 17.296875 43.90625 
L 17.296875 0 
L 8 0 
z
" id="Ubuntu-109"/>
     <path d="M 44.09375 25.90625 
Q 44.09375 35 39.59375 39.890625 
Q 35.09375 44.796875 27.59375 44.796875 
Q 23.40625 44.796875 21.046875 44.5 
Q 18.703125 44.203125 17.296875 43.796875 
L 17.296875 11 
Q 19 9.59375 22.203125 8.296875 
Q 25.40625 7 29.203125 7 
Q 33.203125 7 36.046875 8.453125 
Q 38.90625 9.90625 40.703125 12.453125 
Q 42.5 15 43.296875 18.453125 
Q 44.09375 21.90625 44.09375 25.90625 
z
M 53.796875 25.90625 
Q 53.796875 20 52.25 15 
Q 50.703125 10 47.703125 6.390625 
Q 44.703125 2.796875 40.34375 0.796875 
Q 36 -1.203125 30.40625 -1.203125 
Q 25.90625 -1.203125 22.453125 0 
Q 19 1.203125 17.296875 2.296875 
L 17.296875 -18.5 
L 8 -18.5 
L 8 50.40625 
Q 11.296875 51.203125 16.25 52.140625 
Q 21.203125 53.09375 27.703125 53.09375 
Q 33.703125 53.09375 38.5 51.1875 
Q 43.296875 49.296875 46.6875 45.796875 
Q 50.09375 42.296875 51.9375 37.25 
Q 53.796875 32.203125 53.796875 25.90625 
z
" id="Ubuntu-112"/>
     <path d="M 20.09375 6.703125 
Q 25.796875 6.703125 28.546875 8.203125 
Q 31.296875 9.703125 31.296875 13 
Q 31.296875 16.40625 28.59375 18.40625 
Q 25.90625 20.40625 19.703125 22.90625 
Q 16.703125 24.09375 13.953125 25.34375 
Q 11.203125 26.59375 9.203125 28.296875 
Q 7.203125 30 6 32.390625 
Q 4.796875 34.796875 4.796875 38.296875 
Q 4.796875 45.203125 9.890625 49.25 
Q 15 53.296875 23.796875 53.296875 
Q 26 53.296875 28.203125 53.046875 
Q 30.40625 52.796875 32.296875 52.4375 
Q 34.203125 52.09375 35.640625 51.6875 
Q 37.09375 51.296875 37.90625 51 
L 36.203125 43 
Q 34.703125 43.796875 31.5 44.640625 
Q 28.296875 45.5 23.796875 45.5 
Q 19.90625 45.5 17 43.953125 
Q 14.09375 42.40625 14.09375 39.09375 
Q 14.09375 37.40625 14.75 36.09375 
Q 15.40625 34.796875 16.75 33.75 
Q 18.09375 32.703125 20.09375 31.796875 
Q 22.09375 30.90625 24.90625 29.90625 
Q 28.59375 28.5 31.5 27.140625 
Q 34.40625 25.796875 36.453125 24 
Q 38.5 22.203125 39.59375 19.640625 
Q 40.703125 17.09375 40.703125 13.40625 
Q 40.703125 6.203125 35.34375 2.5 
Q 30 -1.203125 20.09375 -1.203125 
Q 13.203125 -1.203125 9.296875 -0.046875 
Q 5.40625 1.09375 4 1.703125 
L 5.703125 9.703125 
Q 7.296875 9.09375 10.796875 7.890625 
Q 14.296875 6.703125 20.09375 6.703125 
z
" id="Ubuntu-115"/>
     <path d="M 28.296875 77.59375 
Q 32.40625 77.59375 35.34375 77 
Q 38.296875 76.40625 39.5 75.90625 
L 37.796875 67.90625 
Q 36.59375 68.5 34.390625 69.046875 
Q 32.203125 69.59375 29 69.59375 
Q 22.5 69.59375 19.890625 66.046875 
Q 17.296875 62.5 17.296875 56.5 
L 17.296875 52 
L 37.296875 52 
L 37.296875 44.203125 
L 17.296875 44.203125 
L 17.296875 0 
L 8 0 
L 8 56.703125 
Q 8 66.703125 12.890625 72.140625 
Q 17.796875 77.59375 28.296875 77.59375 
z
" id="Ubuntu-102"/>
     <path d="M 27.203125 53.09375 
Q 28.40625 53.09375 29.953125 52.9375 
Q 31.5 52.796875 33 52.546875 
Q 34.5 52.296875 35.75 52.046875 
Q 37 51.796875 37.59375 51.59375 
L 36 43.5 
Q 34.90625 43.90625 32.34375 44.453125 
Q 29.796875 45 25.796875 45 
Q 23.203125 45 20.640625 44.453125 
Q 18.09375 43.90625 17.296875 43.703125 
L 17.296875 0 
L 8 0 
L 8 49.796875 
Q 11.296875 51 16.1875 52.046875 
Q 21.09375 53.09375 27.203125 53.09375 
z
" id="Ubuntu-114"/>
     <path d="M 49.40625 1.5 
Q 46.203125 0.703125 40.953125 -0.1875 
Q 35.703125 -1.09375 28.796875 -1.09375 
Q 22.796875 -1.09375 18.6875 0.65625 
Q 14.59375 2.40625 12.09375 5.59375 
Q 9.59375 8.796875 8.5 13.140625 
Q 7.40625 17.5 7.40625 22.796875 
L 7.40625 52 
L 16.703125 52 
L 16.703125 24.796875 
Q 16.703125 15.296875 19.703125 11.1875 
Q 22.703125 7.09375 29.796875 7.09375 
Q 31.296875 7.09375 32.890625 7.1875 
Q 34.5 7.296875 35.890625 7.4375 
Q 37.296875 7.59375 38.4375 7.75 
Q 39.59375 7.90625 40.09375 8.09375 
L 40.09375 52 
L 49.40625 52 
z
" id="Ubuntu-117"/>
     <path d="M 40.59375 5.203125 
Q 39.40625 4.40625 35.953125 3.15625 
Q 32.5 1.90625 27.90625 1.90625 
Q 23.203125 1.90625 19.046875 3.40625 
Q 14.90625 4.90625 11.796875 8.046875 
Q 8.703125 11.203125 6.890625 15.890625 
Q 5.09375 20.59375 5.09375 27.09375 
Q 5.09375 32.796875 6.796875 37.546875 
Q 8.5 42.296875 11.75 45.75 
Q 15 49.203125 19.703125 51.140625 
Q 24.40625 53.09375 30.296875 53.09375 
Q 36.796875 53.09375 41.640625 52.140625 
Q 46.5 51.203125 49.796875 50.40625 
L 49.796875 4 
Q 49.796875 -8 43.59375 -13.390625 
Q 37.40625 -18.796875 24.796875 -18.796875 
Q 19.90625 -18.796875 15.546875 -18 
Q 11.203125 -17.203125 8 -16.09375 
L 9.703125 -8 
Q 12.5 -9.09375 16.546875 -9.9375 
Q 20.59375 -10.796875 25 -10.796875 
Q 33.296875 -10.796875 36.9375 -7.5 
Q 40.59375 -4.203125 40.59375 3 
z
M 40.5 43.796875 
Q 39.09375 44.203125 36.75 44.546875 
Q 34.40625 44.90625 30.40625 44.90625 
Q 22.90625 44.90625 18.84375 40 
Q 14.796875 35.09375 14.796875 27 
Q 14.796875 22.5 15.9375 19.296875 
Q 17.09375 16.09375 19.046875 14 
Q 21 11.90625 23.546875 10.90625 
Q 26.09375 9.90625 28.796875 9.90625 
Q 32.5 9.90625 35.59375 10.953125 
Q 38.703125 12 40.5 13.40625 
z
" id="Ubuntu-103"/>
     <path d="M 27 70 
Q 41.59375 70 49.4375 64.453125 
Q 57.296875 58.90625 57.296875 47.90625 
Q 57.296875 41.90625 55.140625 37.65625 
Q 53 33.40625 48.953125 30.75 
Q 44.90625 28.09375 39.09375 26.890625 
Q 33.296875 25.703125 26 25.703125 
L 18.296875 25.703125 
L 18.296875 0 
L 8.59375 0 
L 8.59375 68.296875 
Q 12.703125 69.296875 17.75 69.640625 
Q 22.796875 70 27 70 
z
M 27.796875 61.5 
Q 21.59375 61.5 18.296875 61.203125 
L 18.296875 34 
L 25.59375 34 
Q 30.59375 34 34.59375 34.640625 
Q 38.59375 35.296875 41.34375 36.84375 
Q 44.09375 38.40625 45.59375 41.09375 
Q 47.09375 43.796875 47.09375 48 
Q 47.09375 52 45.546875 54.59375 
Q 44 57.203125 41.34375 58.75 
Q 38.703125 60.296875 35.203125 60.890625 
Q 31.703125 61.5 27.796875 61.5 
z
" id="Ubuntu-80"/>
     <path d="M 17.296875 0 
L 8 0 
L 8 52 
L 17.296875 52 
z
M 12.59375 61.40625 
Q 10.09375 61.40625 8.34375 63.046875 
Q 6.59375 64.703125 6.59375 67.5 
Q 6.59375 70.296875 8.34375 71.9375 
Q 10.09375 73.59375 12.59375 73.59375 
Q 15.09375 73.59375 16.84375 71.9375 
Q 18.59375 70.296875 18.59375 67.5 
Q 18.59375 64.703125 16.84375 63.046875 
Q 15.09375 61.40625 12.59375 61.40625 
z
" id="Ubuntu-105"/>
    </defs>
    <g transform="translate(109.14625 16.51125)scale(0.12 -0.12)">
     <use xlink:href="#Ubuntu-83"/>
     <use x="53.199997" xlink:href="#Ubuntu-97"/>
     <use x="105.399994" xlink:href="#Ubuntu-109"/>
     <use x="191.499985" xlink:href="#Ubuntu-112"/>
     <use x="250.399979" xlink:href="#Ubuntu-108"/>
     <use x="277.699966" xlink:href="#Ubuntu-101"/>
     <use x="333.59996" xlink:href="#Ubuntu-115"/>
     <use x="378.199951" xlink:href="#Ubuntu-32"/>
     <use x="401.299942" xlink:href="#Ubuntu-102"/>
     <use x="439.899933" xlink:href="#Ubuntu-114"/>
     <use x="478.499924" xlink:href="#Ubuntu-111"/>
     <use x="537.499908" xlink:href="#Ubuntu-109"/>
     <use x="623.599899" xlink:href="#Ubuntu-32"/>
     <use x="646.69989" xlink:href="#Ubuntu-83"/>
     <use x="699.899887" xlink:href="#Ubuntu-117"/>
     <use x="757.299881" xlink:href="#Ubuntu-114"/>
     <use x="795.899872" xlink:href="#Ubuntu-114"/>
     <use x="834.499863" xlink:href="#Ubuntu-111"/>
     <use x="893.499847" xlink:href="#Ubuntu-103"/>
     <use x="951.299835" xlink:href="#Ubuntu-97"/>
     <use x="1003.499832" xlink:href="#Ubuntu-116"/>
     <use x="1043.684204" xlink:href="#Ubuntu-101"/>
     <use x="1099.584198" xlink:href="#Ubuntu-32"/>
     <use x="1122.684189" xlink:href="#Ubuntu-80"/>
     <use x="1183.452927" xlink:href="#Ubuntu-111"/>
     <use x="1242.452911" xlink:href="#Ubuntu-115"/>
     <use x="1287.052902" xlink:href="#Ubuntu-116"/>
     <use x="1327.237274" xlink:href="#Ubuntu-101"/>
     <use x="1383.137268" xlink:href="#Ubuntu-114"/>
     <use x="1421.737259" xlink:href="#Ubuntu-105"/>
     <use x="1447.037247" xlink:href="#Ubuntu-111"/>
     <use x="1506.037231" xlink:href="#Ubuntu-114"/>
    </g>
   </g>
   <g id="legend_1">
    <g id="patch_5">
     <path d="M 389.613875 118.447187 
L 491.377938 118.447187 
Q 493.377938 118.447187 493.377938 116.447187 
L 493.377938 29.51125 
Q 493.377938 27.51125 491.377938 27.51125 
L 389.613875 27.51125 
Q 387.613875 27.51125 387.613875 29.51125 
L 387.613875 116.447187 
Q 387.613875 118.447187 389.613875 118.447187 
z
" style="fill:#ffffff;opacity:0.8;stroke:#cccccc;stroke-linejoin:miter;stroke-width:0.24;"/>
    </g>
    <g id="line2d_33">
     <path d="M 391.613875 35.770625 
L 411.613875 35.770625 
" style="fill:none;stroke:#1f77b4;stroke-linecap:square;stroke-width:2.7;"/>
    </g>
    <g id="line2d_34"/>
    <g id="text_18">
     <!-- Sample 1 -->
     <g transform="translate(419.613875 39.270625)scale(0.1 -0.1)">
      <use xlink:href="#Ubuntu-83"/>
      <use x="53.199997" xlink:href="#Ubuntu-97"/>
      <use x="105.399994" xlink:href="#Ubuntu-109"/>
      <use x="191.499985" xlink:href="#Ubuntu-112"/>
      <use x="250.399979" xlink:href="#Ubuntu-108"/>
      <use x="277.699966" xlink:href="#Ubuntu-101"/>
      <use x="333.59996" xlink:href="#Ubuntu-32"/>
      <use x="356.699951" xlink:href="#Ubuntu-49"/>
     </g>
    </g>
    <g id="line2d_35">
     <path d="M 391.613875 50.38 
L 411.613875 50.38 
" style="fill:none;stroke:#ff7f0e;stroke-linecap:square;stroke-width:2.7;"/>
    </g>
    <g id="line2d_36"/>
    <g id="text_19">
     <!-- Sample 2 -->
     <g transform="translate(419.613875 53.88)scale(0.1 -0.1)">
      <use xlink:href="#Ubuntu-83"/>
      <use x="53.199997" xlink:href="#Ubuntu-97"/>
      <use x="105.399994" xlink:href="#Ubuntu-109"/>
      <use x="191.499985" xlink:href="#Ubuntu-112"/>
      <use x="250.399979" xlink:href="#Ubuntu-108"/>
      <use x="277.699966" xlink:href="#Ubuntu-101"/>
      <use x="333.59996" xlink:href="#Ubuntu-32"/>
      <use x="356.699951" xlink:href="#Ubuntu-50"/>
     </g>
    </g>
    <g id="line2d_37">
     <path d="M 391.613875 64.989375 
L 411.613875 64.989375 
" style="fill:none;stroke:#2ca02c;stroke-linecap:square;stroke-width:2.7;"/>
    </g>
    <g id="line2d_38"/>
    <g id="text_20">
     <!-- Sample 3 -->
     <g transform="translate(419.613875 68.489375)scale(0.1 -0.1)">
      <use xlink:href="#Ubuntu-83"/>
      <use x="53.199997" xlink:href="#Ubuntu-97"/>
      <use x="105.399994" xlink:href="#Ubuntu-109"/>
      <use x="191.499985" xlink:href="#Ubuntu-112"/>
      <use x="250.399979" xlink:href="#Ubuntu-108"/>
      <use x="277.699966" xlink:href="#Ubuntu-101"/>
      <use x="333.59996" xlink:href="#Ubuntu-32"/>
      <use x="356.699951" xlink:href="#Ubuntu-51"/>
     </g>
    </g>
    <g id="line2d_39">
     <path d="M 391.613875 79.59875 
L 411.613875 79.59875 
" style="fill:none;stroke:#000000;stroke-dasharray:17.28,4.32,2.7,4.32;stroke-dashoffset:0;stroke-width:2.7;"/>
    </g>
    <g id="line2d_40"/>
    <g id="text_21">
     <!-- Posterior Mean -->
     <defs>
      <path d="M 39.703125 9.59375 
Q 38.703125 12 37.046875 15.703125 
Q 35.40625 19.40625 33.5 23.703125 
Q 31.59375 28 29.4375 32.546875 
Q 27.296875 37.09375 25.390625 41.140625 
Q 23.5 45.203125 21.84375 48.390625 
Q 20.203125 51.59375 19.203125 53.296875 
Q 18.09375 41.5 17.390625 27.75 
Q 16.703125 14 16.203125 0 
L 6.703125 0 
Q 7.09375 9 7.59375 18.140625 
Q 8.09375 27.296875 8.75 36.140625 
Q 9.40625 45 10.15625 53.390625 
Q 10.90625 61.796875 11.796875 69.296875 
L 20.296875 69.296875 
Q 23 64.90625 26.09375 58.90625 
Q 29.203125 52.90625 32.296875 46.34375 
Q 35.40625 39.796875 38.296875 33.25 
Q 41.203125 26.703125 43.59375 21.296875 
Q 46 26.703125 48.890625 33.25 
Q 51.796875 39.796875 54.890625 46.34375 
Q 58 52.90625 61.09375 58.90625 
Q 64.203125 64.90625 66.90625 69.296875 
L 75.40625 69.296875 
Q 78.796875 35.796875 80.5 0 
L 71 0 
Q 70.5 14 69.796875 27.75 
Q 69.09375 41.5 68 53.296875 
Q 67 51.59375 65.34375 48.390625 
Q 63.703125 45.203125 61.796875 41.140625 
Q 59.90625 37.09375 57.75 32.546875 
Q 55.59375 28 53.6875 23.703125 
Q 51.796875 19.40625 50.140625 15.703125 
Q 48.5 12 47.5 9.59375 
z
" id="Ubuntu-77"/>
     </defs>
     <g transform="translate(419.613875 83.09875)scale(0.1 -0.1)">
      <use xlink:href="#Ubuntu-80"/>
      <use x="60.768738" xlink:href="#Ubuntu-111"/>
      <use x="119.768723" xlink:href="#Ubuntu-115"/>
      <use x="164.368713" xlink:href="#Ubuntu-116"/>
      <use x="204.553085" xlink:href="#Ubuntu-101"/>
      <use x="260.453079" xlink:href="#Ubuntu-114"/>
      <use x="299.05307" xlink:href="#Ubuntu-105"/>
      <use x="324.353058" xlink:href="#Ubuntu-111"/>
      <use x="383.353043" xlink:href="#Ubuntu-114"/>
      <use x="421.953033" xlink:href="#Ubuntu-32"/>
      <use x="445.053024" xlink:href="#Ubuntu-77"/>
      <use x="532.153015" xlink:href="#Ubuntu-101"/>
      <use x="588.053009" xlink:href="#Ubuntu-97"/>
      <use x="640.253006" xlink:href="#Ubuntu-110"/>
     </g>
    </g>
    <g id="patch_6">
     <path d="M 391.613875 97.708125 
L 411.613875 97.708125 
L 411.613875 90.708125 
L 391.613875 90.708125 
z
" style="fill:#808080;opacity:0.15;stroke:#808080;stroke-dasharray:0.21312,0.09216;stroke-dashoffset:0;stroke-linejoin:miter;stroke-width:0.24;"/>
    </g>
    <g id="text_22">
     <!-- $\mu \pm \sigma$ -->
     <defs>
      <path d="M -1.3125 -20.796875 
L 13.375 54.6875 
L 22.40625 54.6875 
L 15.765625 20.65625 
Q 15.578125 19.625 15.421875 18.359375 
Q 15.28125 17.09375 15.28125 15.828125 
Q 15.28125 11.28125 18.140625 8.828125 
Q 21 6.390625 26.3125 6.390625 
Q 33.546875 6.390625 37.984375 10.484375 
Q 42.4375 14.59375 44 22.796875 
L 50.203125 54.6875 
L 59.1875 54.6875 
L 51.03125 12.640625 
Q 50.828125 11.71875 50.75 11.03125 
Q 50.6875 10.359375 50.6875 9.8125 
Q 50.6875 8.296875 51.296875 7.59375 
Q 51.90625 6.890625 53.21875 6.890625 
Q 53.71875 6.890625 54.5625 7.125 
Q 55.421875 7.375 56.984375 8.015625 
L 55.609375 0.78125 
Q 53.46875 -0.296875 51.515625 -0.859375 
Q 49.5625 -1.421875 47.703125 -1.421875 
Q 44.484375 -1.421875 42.65625 0.625 
Q 40.828125 2.6875 40.828125 6.296875 
Q 38.09375 2.390625 34.296875 0.484375 
Q 30.515625 -1.421875 25.390625 -1.421875 
Q 20.84375 -1.421875 17.453125 0.671875 
Q 14.0625 2.78125 12.984375 6.203125 
L 7.71875 -20.796875 
z
" id="DejaVuSans-Oblique-956"/>
      <path d="M 46 62.703125 
L 46 43.796875 
L 73.1875 43.796875 
L 73.1875 35.5 
L 46 35.5 
L 46 16.609375 
L 37.796875 16.609375 
L 37.796875 35.5 
L 10.59375 35.5 
L 10.59375 43.796875 
L 37.796875 43.796875 
L 37.796875 62.703125 
z
M 10.59375 8.296875 
L 73.1875 8.296875 
L 73.1875 0 
L 10.59375 0 
z
" id="DejaVuSans-177"/>
      <path d="M 34.671875 47.5625 
Q 27.25 47.5625 22.21875 42.1875 
Q 16.890625 36.578125 15.140625 27.296875 
Q 13.1875 17.484375 16.3125 11.8125 
Q 19.390625 6.203125 26.65625 6.203125 
Q 33.84375 6.203125 39.109375 11.859375 
Q 44.4375 17.53125 46.34375 27.296875 
Q 48.046875 36.234375 45.015625 42.1875 
Q 42.1875 47.5625 34.671875 47.5625 
z
M 36.078125 54.734375 
L 65.921875 54.6875 
L 64.15625 45.703125 
L 54.109375 45.703125 
Q 57.90625 38.09375 55.859375 27.296875 
Q 53.21875 13.875 45.0625 6.25 
Q 36.859375 -1.421875 25.140625 -1.421875 
Q 13.375 -1.421875 8.203125 6.25 
Q 3.03125 13.875 5.671875 27.296875 
Q 8.25 40.765625 16.40625 48.390625 
Q 23.1875 54.734375 36.078125 54.734375 
z
" id="DejaVuSans-Oblique-963"/>
     </defs>
     <g transform="translate(419.613875 97.708125)scale(0.1 -0.1)">
      <use transform="translate(0 0.296875)" xlink:href="#DejaVuSans-Oblique-956"/>
      <use transform="translate(83.105469 0.296875)" xlink:href="#DejaVuSans-177"/>
      <use transform="translate(186.376953 0.296875)" xlink:href="#DejaVuSans-Oblique-963"/>
     </g>
    </g>
    <g id="PathCollection_1">
     <defs>
      <path d="M 0 7.071068 
C 1.875269 7.071068 3.673985 6.326016 5 5 
C 6.326016 3.673985 7.071068 1.875269 7.071068 0 
C 7.071068 -1.875269 6.326016 -3.673985 5 -5 
C 3.673985 -6.326016 1.875269 -7.071068 0 -7.071068 
C -1.875269 -7.071068 -3.673985 -6.326016 -5 -5 
C -6.326016 -3.673985 -7.071068 -1.875269 -7.071068 0 
C -7.071068 1.875269 -6.326016 3.673985 -5 5 
C -3.673985 6.326016 -1.875269 7.071068 0 7.071068 
z
" id="mcf8e59137d" style="stroke:#000000;stroke-width:0.24;"/>
     </defs>
     <g>
      <use style="stroke:#000000;stroke-width:0.24;" x="401.613875" xlink:href="#mcf8e59137d" y="109.9425"/>
     </g>
    </g>
    <g id="text_23">
     <!-- Training Point -->
     <defs>
      <path d="M 54.90625 69.296875 
L 54.90625 60.90625 
L 33.09375 60.90625 
L 33.09375 0 
L 23.40625 0 
L 23.40625 60.90625 
L 1.59375 60.90625 
L 1.59375 69.296875 
z
" id="Ubuntu-84"/>
     </defs>
     <g transform="translate(419.613875 112.5675)scale(0.1 -0.1)">
      <use xlink:href="#Ubuntu-84"/>
      <use x="56.437485" xlink:href="#Ubuntu-114"/>
      <use x="95.037476" xlink:href="#Ubuntu-97"/>
      <use x="147.237473" xlink:href="#Ubuntu-105"/>
      <use x="172.53746" xlink:href="#Ubuntu-110"/>
      <use x="229.937454" xlink:href="#Ubuntu-105"/>
      <use x="255.237442" xlink:href="#Ubuntu-110"/>
      <use x="312.637436" xlink:href="#Ubuntu-103"/>
      <use x="370.437424" xlink:href="#Ubuntu-32"/>
      <use x="393.537415" xlink:href="#Ubuntu-80"/>
      <use x="454.306152" xlink:href="#Ubuntu-111"/>
      <use x="513.306137" xlink:href="#Ubuntu-105"/>
      <use x="538.606125" xlink:href="#Ubuntu-110"/>
      <use x="596.006119" xlink:href="#Ubuntu-116"/>
     </g>
    </g>
   </g>
   <g id="PathCollection_2">
    <g clip-path="url(#p992670c3a6)">
     <use style="stroke:#000000;stroke-width:0.24;" x="75.003693" xlink:href="#mcf8e59137d" y="123.591762"/>
    </g>
   </g>
  </g>
 </g>
 <defs>
  <clipPath id="p992670c3a6">
   <rect height="217.44" width="334.8" x="34.421875" y="22.51125"/>
  </clipPath>
 </defs>
</svg>
