<?xml version="1.0" encoding="utf-8" standalone="no"?>
<!DOCTYPE svg PUBLIC "-//W3C//DTD SVG 1.1//EN"
  "http://www.w3.org/Graphics/SVG/1.1/DTD/svg11.dtd">
<!-- Created with matplotlib (https://matplotlib.org/) -->
<svg height="277.548125pt" version="1.1" viewBox="0 0 500.577938 277.548125" width="500.577938pt" xmlns="http://www.w3.org/2000/svg" xmlns:xlink="http://www.w3.org/1999/xlink">
 <defs>
  <style type="text/css">
*{stroke-linecap:butt;stroke-linejoin:round;}
  </style>
 </defs>
 <g id="figure_1">
  <g id="patch_1">
   <path d="M 0 277.548125 
L 500.577937 277.548125 
L 500.577937 0 
L 0 0 
z
" style="fill:#ffffff;"/>
  </g>
  <g id="axes_1">
   <g id="patch_2">
    <path d="M 34.421875 239.95125 
L 369.221875 239.95125 
L 369.221875 22.51125 
L 34.421875 22.51125 
z
" style="fill:#ffffff;"/>
   </g>
   <g id="PolyCollection_1">
    <path clip-path="url(#p27c99d4ae3)" d="M 49.640057 180.023471 
L 49.640057 69.551188 
L 50.148176 70.355541 
L 50.656296 71.172174 
L 51.164416 72.001123 
L 51.672535 72.842416 
L 52.180655 73.696076 
L 52.688774 74.56212 
L 53.196894 75.440558 
L 53.705014 76.331392 
L 54.213133 77.234619 
L 54.721253 78.150226 
L 55.229372 79.078195 
L 55.737492 80.018498 
L 56.245612 80.971099 
L 56.753731 81.935955 
L 57.261851 82.913012 
L 57.76997 83.902209 
L 58.27809 84.903472 
L 58.786209 85.916721 
L 59.294329 86.941864 
L 59.802449 87.978798 
L 60.310568 89.02741 
L 60.818688 90.087575 
L 61.326807 91.159157 
L 61.834927 92.242009 
L 62.343047 93.33597 
L 62.851166 94.440867 
L 63.359286 95.556514 
L 63.867405 96.682711 
L 64.375525 97.819246 
L 64.883645 98.96589 
L 65.391764 100.122402 
L 65.899884 101.288525 
L 66.408003 102.463985 
L 66.916123 103.648495 
L 67.424243 104.84175 
L 67.932362 106.043428 
L 68.440482 107.253191 
L 68.948601 108.470682 
L 69.456721 109.695528 
L 69.964841 110.927335 
L 70.47296 112.165693 
L 70.98108 113.410168 
L 71.489199 114.660312 
L 71.997319 115.915651 
L 72.505439 117.175693 
L 73.013558 118.439924 
L 73.521678 119.707807 
L 74.029797 120.978782 
L 74.537917 122.252254 
L 75.046036 123.314567 
L 75.554156 122.039862 
L 76.062276 120.766762 
L 76.570395 119.496263 
L 77.078515 118.228951 
L 77.586634 116.965381 
L 78.094754 115.706088 
L 78.602874 114.451581 
L 79.110993 113.20235 
L 79.619113 111.958863 
L 80.127232 110.721568 
L 80.635352 109.490893 
L 81.143472 108.267246 
L 81.651591 107.051017 
L 82.159711 105.842577 
L 82.66783 104.64228 
L 83.17595 103.450461 
L 83.68407 102.267438 
L 84.192189 101.093515 
L 84.700309 99.928975 
L 85.208428 98.774091 
L 85.716548 97.629115 
L 86.224668 96.494288 
L 86.732787 95.369834 
L 87.240907 94.255966 
L 87.749026 93.152879 
L 88.257146 92.060758 
L 88.765265 90.979773 
L 89.273385 89.910084 
L 89.781505 88.851835 
L 90.289624 87.805161 
L 90.797744 86.770185 
L 91.305863 85.747018 
L 91.813983 84.73576 
L 92.322103 83.736503 
L 92.830222 82.749325 
L 93.338342 81.774297 
L 93.846461 80.81148 
L 94.354581 79.860925 
L 94.862701 78.922676 
L 95.37082 77.996766 
L 95.87894 77.083221 
L 96.387059 76.182059 
L 96.895179 75.293291 
L 97.403299 74.416919 
L 97.911418 73.55294 
L 98.419538 72.701342 
L 98.927657 71.862108 
L 99.435777 71.035214 
L 99.943897 70.22063 
L 100.452016 69.418321 
L 100.960136 68.628244 
L 101.468255 67.850355 
L 101.976375 67.0846 
L 102.484495 66.330923 
L 102.992614 65.589263 
L 103.500734 64.859555 
L 104.008853 64.141728 
L 104.516973 63.435709 
L 105.025092 62.74142 
L 105.533212 62.05878 
L 106.041332 61.387703 
L 106.549451 60.728103 
L 107.057571 60.079887 
L 107.56569 59.442961 
L 108.07381 58.81723 
L 108.58193 58.202593 
L 109.090049 57.598949 
L 109.598169 57.006194 
L 110.106288 56.424222 
L 110.614408 55.852924 
L 111.122528 55.292191 
L 111.630647 54.741911 
L 112.138767 54.201971 
L 112.646886 53.672257 
L 113.155006 53.152652 
L 113.663126 52.643039 
L 114.171245 52.143301 
L 114.679365 51.653317 
L 115.187484 51.172969 
L 115.695604 50.702136 
L 116.203724 50.240696 
L 116.711843 49.788527 
L 117.219963 49.345507 
L 117.728082 48.911513 
L 118.236202 48.486422 
L 118.744322 48.070112 
L 119.252441 47.662459 
L 119.760561 47.263339 
L 120.26868 46.872629 
L 120.7768 46.490207 
L 121.284919 46.115948 
L 121.793039 45.749731 
L 122.301159 45.391433 
L 122.809278 45.040933 
L 123.317398 44.698107 
L 123.825517 44.362836 
L 124.333637 44.034999 
L 124.841757 43.714475 
L 125.349876 43.401145 
L 125.857996 43.094892 
L 126.366115 42.795596 
L 126.874235 42.50314 
L 127.382355 42.217409 
L 127.890474 41.938286 
L 128.398594 41.665657 
L 128.906713 41.399408 
L 129.414833 41.139426 
L 129.922953 40.8856 
L 130.431072 40.637819 
L 130.939192 40.395972 
L 131.447311 40.159952 
L 131.955431 39.92965 
L 132.463551 39.704959 
L 132.97167 39.485775 
L 133.47979 39.271993 
L 133.987909 39.063509 
L 134.496029 38.860222 
L 135.004148 38.662031 
L 135.512268 38.468835 
L 136.020388 38.280537 
L 136.528507 38.09704 
L 137.036627 37.918246 
L 137.544746 37.744062 
L 138.052866 37.574394 
L 138.560986 37.409148 
L 139.069105 37.248235 
L 139.577225 37.091565 
L 140.085344 36.939048 
L 140.593464 36.790597 
L 141.101584 36.646127 
L 141.609703 36.505552 
L 142.117823 36.368789 
L 142.625942 36.235755 
L 143.134062 36.10637 
L 143.642182 35.980553 
L 144.150301 35.858226 
L 144.658421 35.739311 
L 145.16654 35.623733 
L 145.67466 35.511416 
L 146.18278 35.402287 
L 146.690899 35.296273 
L 147.199019 35.193303 
L 147.707138 35.093308 
L 148.215258 34.996217 
L 148.723378 34.901965 
L 149.231497 34.810483 
L 149.739617 34.721707 
L 150.247736 34.635573 
L 150.755856 34.552017 
L 151.263975 34.470979 
L 151.772095 34.392396 
L 152.280215 34.31621 
L 152.788334 34.242362 
L 153.296454 34.170795 
L 153.804573 34.101452 
L 154.312693 34.034279 
L 154.820813 33.969221 
L 155.328932 33.906225 
L 155.837052 33.845238 
L 156.345171 33.786211 
L 156.853291 33.729093 
L 157.361411 33.673835 
L 157.86953 33.620389 
L 158.37765 33.568708 
L 158.885769 33.518746 
L 159.393889 33.470458 
L 159.902009 33.4238 
L 160.410128 33.378728 
L 160.918248 33.3352 
L 161.426367 33.293175 
L 161.934487 33.252613 
L 162.442607 33.213473 
L 162.950726 33.175717 
L 163.458846 33.139307 
L 163.966965 33.104206 
L 164.475085 33.070378 
L 164.983204 33.037787 
L 165.491324 33.006398 
L 165.999444 32.976178 
L 166.507563 32.947093 
L 167.015683 32.919112 
L 167.523802 32.892202 
L 168.031922 32.866332 
L 168.540042 32.841474 
L 169.048161 32.817596 
L 169.556281 32.794671 
L 170.0644 32.772671 
L 170.57252 32.751567 
L 171.08064 32.731333 
L 171.588759 32.711944 
L 172.096879 32.693373 
L 172.604998 32.675596 
L 173.113118 32.658589 
L 173.621238 32.642328 
L 174.129357 32.62679 
L 174.637477 32.611953 
L 175.145596 32.597794 
L 175.653716 32.584292 
L 176.161836 32.571428 
L 176.669955 32.559179 
L 177.178075 32.547527 
L 177.686194 32.536453 
L 178.194314 32.525937 
L 178.702434 32.515961 
L 179.210553 32.506508 
L 179.718673 32.497561 
L 180.226792 32.489102 
L 180.734912 32.481115 
L 181.243031 32.473584 
L 181.751151 32.466494 
L 182.259271 32.45983 
L 182.76739 32.453577 
L 183.27551 32.44772 
L 183.783629 32.442246 
L 184.291749 32.437142 
L 184.799869 32.432394 
L 185.307988 32.427989 
L 185.816108 32.423915 
L 186.324227 32.42016 
L 186.832347 32.416713 
L 187.340467 32.413561 
L 187.848586 32.410695 
L 188.356706 32.408102 
L 188.864825 32.405774 
L 189.372945 32.403699 
L 189.881065 32.401868 
L 190.389184 32.400272 
L 190.897304 32.3989 
L 191.405423 32.397745 
L 191.913543 32.396798 
L 192.421663 32.396049 
L 192.929782 32.395492 
L 193.437902 32.395117 
L 193.946021 32.394918 
L 194.454141 32.394886 
L 194.96226 32.395016 
L 195.47038 32.395299 
L 195.9785 32.395729 
L 196.486619 32.396299 
L 196.994739 32.397003 
L 197.502858 32.397835 
L 198.010978 32.39879 
L 198.519098 32.39986 
L 199.027217 32.401041 
L 199.535337 32.402327 
L 200.043456 32.403714 
L 200.551576 32.405195 
L 201.059696 32.406767 
L 201.567815 32.408424 
L 202.075935 32.410161 
L 202.584054 32.411976 
L 203.092174 32.413863 
L 203.600294 32.415817 
L 204.108413 32.417836 
L 204.616533 32.419916 
L 205.124652 32.422052 
L 205.632772 32.424242 
L 206.140892 32.426481 
L 206.649011 32.428767 
L 207.157131 32.431095 
L 207.66525 32.433465 
L 208.17337 32.435871 
L 208.68149 32.438312 
L 209.189609 32.440784 
L 209.697729 32.443286 
L 210.205848 32.445814 
L 210.713968 32.448366 
L 211.222087 32.45094 
L 211.730207 32.453533 
L 212.238327 32.456144 
L 212.746446 32.45877 
L 213.254566 32.461409 
L 213.762685 32.46406 
L 214.270805 32.466719 
L 214.778925 32.469387 
L 215.287044 32.472061 
L 215.795164 32.474739 
L 216.303283 32.47742 
L 216.811403 32.480102 
L 217.319523 32.482784 
L 217.827642 32.485465 
L 218.335762 32.488143 
L 218.843881 32.490817 
L 219.352001 32.493486 
L 219.860121 32.496149 
L 220.36824 32.498804 
L 220.87636 32.501452 
L 221.384479 32.504089 
L 221.892599 32.506717 
L 222.400719 32.509333 
L 222.908838 32.511938 
L 223.416958 32.51453 
L 223.925077 32.517108 
L 224.433197 32.519672 
L 224.941316 32.522221 
L 225.449436 32.524754 
L 225.957556 32.527272 
L 226.465675 32.529773 
L 226.973795 32.532256 
L 227.481914 32.534722 
L 227.990034 32.53717 
L 228.498154 32.539599 
L 229.006273 32.542009 
L 229.514393 32.5444 
L 230.022512 32.546771 
L 230.530632 32.549121 
L 231.038752 32.551452 
L 231.546871 32.553762 
L 232.054991 32.55605 
L 232.56311 32.558318 
L 233.07123 32.560564 
L 233.57935 32.562789 
L 234.087469 32.564992 
L 234.595589 32.567174 
L 235.103708 32.569333 
L 235.611828 32.57147 
L 236.119948 32.573585 
L 236.628067 32.575677 
L 237.136187 32.577747 
L 237.644306 32.579795 
L 238.152426 32.58182 
L 238.660546 32.583823 
L 239.168665 32.585803 
L 239.676785 32.587761 
L 240.184904 32.589696 
L 240.693024 32.591609 
L 241.201143 32.593499 
L 241.709263 32.595367 
L 242.217383 32.597212 
L 242.725502 32.599036 
L 243.233622 32.600836 
L 243.741741 32.602615 
L 244.249861 32.604372 
L 244.757981 32.606107 
L 245.2661 32.607819 
L 245.77422 32.609511 
L 246.282339 32.61118 
L 246.790459 32.612828 
L 247.298579 32.614454 
L 247.806698 32.616059 
L 248.314818 32.617643 
L 248.822937 32.619206 
L 249.331057 32.620749 
L 249.839177 32.62227 
L 250.347296 32.623771 
L 250.855416 32.625252 
L 251.363535 32.626712 
L 251.871655 32.628152 
L 252.379775 32.629572 
L 252.887894 32.630973 
L 253.396014 32.632354 
L 253.904133 32.633715 
L 254.412253 32.635058 
L 254.920372 32.636381 
L 255.428492 32.637686 
L 255.936612 32.638971 
L 256.444731 32.640239 
L 256.952851 32.641488 
L 257.46097 32.642719 
L 257.96909 32.643932 
L 258.47721 32.645127 
L 258.985329 32.646304 
L 259.493449 32.647465 
L 260.001568 32.648608 
L 260.509688 32.649734 
L 261.017808 32.650843 
L 261.525927 32.651936 
L 262.034047 32.653012 
L 262.542166 32.654072 
L 263.050286 32.655116 
L 263.558406 32.656145 
L 264.066525 32.657157 
L 264.574645 32.658154 
L 265.082764 32.659136 
L 265.590884 32.660103 
L 266.099004 32.661054 
L 266.607123 32.661991 
L 267.115243 32.662914 
L 267.623362 32.663822 
L 268.131482 32.664716 
L 268.639602 32.665596 
L 269.147721 32.666462 
L 269.655841 32.667315 
L 270.16396 32.668154 
L 270.67208 32.66898 
L 271.180199 32.669792 
L 271.688319 32.670592 
L 272.196439 32.671379 
L 272.704558 32.672154 
L 273.212678 32.672916 
L 273.720797 32.673666 
L 274.228917 32.674403 
L 274.737037 32.675129 
L 275.245156 32.675844 
L 275.753276 32.676546 
L 276.261395 32.677237 
L 276.769515 32.677917 
L 277.277635 32.678586 
L 277.785754 32.679244 
L 278.293874 32.679892 
L 278.801993 32.680528 
L 279.310113 32.681154 
L 279.818233 32.68177 
L 280.326352 32.682376 
L 280.834472 32.682972 
L 281.342591 32.683557 
L 281.850711 32.684134 
L 282.358831 32.6847 
L 282.86695 32.685257 
L 283.37507 32.685805 
L 283.883189 32.686344 
L 284.391309 32.686874 
L 284.899428 32.687394 
L 285.407548 32.687907 
L 285.915668 32.68841 
L 286.423787 32.688905 
L 286.931907 32.689392 
L 287.440026 32.68987 
L 287.948146 32.690341 
L 288.456266 32.690803 
L 288.964385 32.691258 
L 289.472505 32.691705 
L 289.980624 32.692144 
L 290.488744 32.692576 
L 290.996864 32.693 
L 291.504983 32.693418 
L 292.013103 32.693828 
L 292.521222 32.694231 
L 293.029342 32.694627 
L 293.537462 32.695016 
L 294.045581 32.695399 
L 294.553701 32.695775 
L 295.06182 32.696145 
L 295.56994 32.696508 
L 296.07806 32.696865 
L 296.586179 32.697216 
L 297.094299 32.697561 
L 297.602418 32.697899 
L 298.110538 32.698232 
L 298.618658 32.698559 
L 299.126777 32.698881 
L 299.634897 32.699197 
L 300.143016 32.699507 
L 300.651136 32.699812 
L 301.159255 32.700112 
L 301.667375 32.700406 
L 302.175495 32.700695 
L 302.683614 32.700979 
L 303.191734 32.701259 
L 303.699853 32.701533 
L 304.207973 32.701802 
L 304.716093 32.702067 
L 305.224212 32.702327 
L 305.732332 32.702583 
L 306.240451 32.702834 
L 306.748571 32.70308 
L 307.256691 32.703323 
L 307.76481 32.70356 
L 308.27293 32.703794 
L 308.781049 32.704024 
L 309.289169 32.704249 
L 309.797289 32.704471 
L 310.305408 32.704689 
L 310.813528 32.704902 
L 311.321647 32.705112 
L 311.829767 32.705318 
L 312.337887 32.705521 
L 312.846006 32.70572 
L 313.354126 32.705915 
L 313.862245 32.706107 
L 314.370365 32.706296 
L 314.878485 32.706481 
L 315.386604 32.706662 
L 315.894724 32.706841 
L 316.402843 32.707016 
L 316.910963 32.707188 
L 317.419082 32.707358 
L 317.927202 32.707524 
L 318.435322 32.707687 
L 318.943441 32.707847 
L 319.451561 32.708004 
L 319.95968 32.708159 
L 320.4678 32.70831 
L 320.97592 32.708459 
L 321.484039 32.708605 
L 321.992159 32.708749 
L 322.500278 32.70889 
L 323.008398 32.709028 
L 323.516518 32.709164 
L 324.024637 32.709298 
L 324.532757 32.709429 
L 325.040876 32.709558 
L 325.548996 32.709684 
L 326.057116 32.709808 
L 326.565235 32.70993 
L 327.073355 32.710049 
L 327.581474 32.710167 
L 328.089594 32.710282 
L 328.597714 32.710395 
L 329.105833 32.710506 
L 329.613953 32.710616 
L 330.122072 32.710723 
L 330.630192 32.710828 
L 331.138311 32.710931 
L 331.646431 32.711032 
L 332.154551 32.711132 
L 332.66267 32.71123 
L 333.17079 32.711325 
L 333.678909 32.71142 
L 334.187029 32.711512 
L 334.695149 32.711603 
L 335.203268 32.711692 
L 335.711388 32.711779 
L 336.219507 32.711865 
L 336.727627 32.711949 
L 337.235747 32.712032 
L 337.743866 32.712113 
L 338.251986 32.712193 
L 338.760105 32.712271 
L 339.268225 32.712348 
L 339.776345 32.712423 
L 340.284464 32.712497 
L 340.792584 32.71257 
L 341.300703 32.712641 
L 341.808823 32.712711 
L 342.316943 32.71278 
L 342.825062 32.712847 
L 343.333182 32.712913 
L 343.841301 32.712978 
L 344.349421 32.713042 
L 344.857541 32.713105 
L 345.36566 32.713166 
L 345.87378 32.713226 
L 346.381899 32.713285 
L 346.890019 32.713343 
L 347.398138 32.7134 
L 347.906258 32.713456 
L 348.414378 32.713511 
L 348.922497 32.713565 
L 349.430617 32.713618 
L 349.938736 32.71367 
L 350.446856 32.713721 
L 350.954976 32.713771 
L 351.463095 32.71382 
L 351.971215 32.713868 
L 352.479334 32.713915 
L 352.987454 32.713961 
L 353.495574 32.714007 
L 354.003693 32.714052 
L 354.003693 230.067614 
L 354.003693 230.067614 
L 353.495574 230.067569 
L 352.987454 230.067523 
L 352.479334 230.067476 
L 351.971215 230.067429 
L 351.463095 230.06738 
L 350.954976 230.067331 
L 350.446856 230.06728 
L 349.938736 230.067229 
L 349.430617 230.067177 
L 348.922497 230.067123 
L 348.414378 230.067069 
L 347.906258 230.067014 
L 347.398138 230.066957 
L 346.890019 230.0669 
L 346.381899 230.066841 
L 345.87378 230.066781 
L 345.36566 230.06672 
L 344.857541 230.066658 
L 344.349421 230.066595 
L 343.841301 230.066531 
L 343.333182 230.066465 
L 342.825062 230.066398 
L 342.316943 230.06633 
L 341.808823 230.066261 
L 341.300703 230.06619 
L 340.792584 230.066118 
L 340.284464 230.066044 
L 339.776345 230.065969 
L 339.268225 230.065893 
L 338.760105 230.065815 
L 338.251986 230.065736 
L 337.743866 230.065655 
L 337.235747 230.065573 
L 336.727627 230.065489 
L 336.219507 230.065404 
L 335.711388 230.065317 
L 335.203268 230.065228 
L 334.695149 230.065138 
L 334.187029 230.065046 
L 333.678909 230.064952 
L 333.17079 230.064856 
L 332.66267 230.064759 
L 332.154551 230.064659 
L 331.646431 230.064558 
L 331.138311 230.064455 
L 330.630192 230.06435 
L 330.122072 230.064243 
L 329.613953 230.064134 
L 329.105833 230.064023 
L 328.597714 230.06391 
L 328.089594 230.063795 
L 327.581474 230.063677 
L 327.073355 230.063557 
L 326.565235 230.063435 
L 326.057116 230.063311 
L 325.548996 230.063184 
L 325.040876 230.063055 
L 324.532757 230.062924 
L 324.024637 230.06279 
L 323.516518 230.062653 
L 323.008398 230.062514 
L 322.500278 230.062373 
L 321.992159 230.062228 
L 321.484039 230.062081 
L 320.97592 230.061931 
L 320.4678 230.061779 
L 319.95968 230.061623 
L 319.451561 230.061465 
L 318.943441 230.061303 
L 318.435322 230.061139 
L 317.927202 230.060971 
L 317.419082 230.0608 
L 316.910963 230.060626 
L 316.402843 230.060449 
L 315.894724 230.060268 
L 315.386604 230.060084 
L 314.878485 230.059897 
L 314.370365 230.059706 
L 313.862245 230.059512 
L 313.354126 230.059313 
L 312.846006 230.059111 
L 312.337887 230.058906 
L 311.829767 230.058696 
L 311.321647 230.058483 
L 310.813528 230.058265 
L 310.305408 230.058043 
L 309.797289 230.057818 
L 309.289169 230.057588 
L 308.781049 230.057353 
L 308.27293 230.057114 
L 307.76481 230.056871 
L 307.256691 230.056623 
L 306.748571 230.056371 
L 306.240451 230.056114 
L 305.732332 230.055852 
L 305.224212 230.055585 
L 304.716093 230.055313 
L 304.207973 230.055036 
L 303.699853 230.054754 
L 303.191734 230.054466 
L 302.683614 230.054173 
L 302.175495 230.053875 
L 301.667375 230.053571 
L 301.159255 230.053261 
L 300.651136 230.052946 
L 300.143016 230.052624 
L 299.634897 230.052297 
L 299.126777 230.051963 
L 298.618658 230.051623 
L 298.110538 230.051277 
L 297.602418 230.050925 
L 297.094299 230.050565 
L 296.586179 230.050199 
L 296.07806 230.049826 
L 295.56994 230.049447 
L 295.06182 230.04906 
L 294.553701 230.048665 
L 294.045581 230.048264 
L 293.537462 230.047855 
L 293.029342 230.047438 
L 292.521222 230.047013 
L 292.013103 230.046581 
L 291.504983 230.04614 
L 290.996864 230.045691 
L 290.488744 230.045234 
L 289.980624 230.044768 
L 289.472505 230.044293 
L 288.964385 230.043809 
L 288.456266 230.043317 
L 287.948146 230.042815 
L 287.440026 230.042304 
L 286.931907 230.041783 
L 286.423787 230.041252 
L 285.915668 230.040712 
L 285.407548 230.040161 
L 284.899428 230.0396 
L 284.391309 230.039028 
L 283.883189 230.038446 
L 283.37507 230.037852 
L 282.86695 230.037248 
L 282.358831 230.036632 
L 281.850711 230.036005 
L 281.342591 230.035366 
L 280.834472 230.034715 
L 280.326352 230.034051 
L 279.818233 230.033375 
L 279.310113 230.032687 
L 278.801993 230.031985 
L 278.293874 230.031271 
L 277.785754 230.030542 
L 277.277635 230.0298 
L 276.769515 230.029045 
L 276.261395 230.028274 
L 275.753276 230.02749 
L 275.245156 230.02669 
L 274.737037 230.025876 
L 274.228917 230.025046 
L 273.720797 230.0242 
L 273.212678 230.023339 
L 272.704558 230.022461 
L 272.196439 230.021567 
L 271.688319 230.020655 
L 271.180199 230.019727 
L 270.67208 230.018781 
L 270.16396 230.017817 
L 269.655841 230.016835 
L 269.147721 230.015834 
L 268.639602 230.014814 
L 268.131482 230.013775 
L 267.623362 230.012716 
L 267.115243 230.011637 
L 266.607123 230.010537 
L 266.099004 230.009417 
L 265.590884 230.008275 
L 265.082764 230.007112 
L 264.574645 230.005926 
L 264.066525 230.004718 
L 263.558406 230.003487 
L 263.050286 230.002232 
L 262.542166 230.000953 
L 262.034047 229.99965 
L 261.525927 229.998322 
L 261.017808 229.996969 
L 260.509688 229.99559 
L 260.001568 229.994184 
L 259.493449 229.992751 
L 258.985329 229.991291 
L 258.47721 229.989803 
L 257.96909 229.988286 
L 257.46097 229.98674 
L 256.952851 229.985164 
L 256.444731 229.983558 
L 255.936612 229.981921 
L 255.428492 229.980253 
L 254.920372 229.978552 
L 254.412253 229.976818 
L 253.904133 229.975051 
L 253.396014 229.973249 
L 252.887894 229.971413 
L 252.379775 229.969541 
L 251.871655 229.967633 
L 251.363535 229.965687 
L 250.855416 229.963704 
L 250.347296 229.961682 
L 249.839177 229.959621 
L 249.331057 229.957519 
L 248.822937 229.955376 
L 248.314818 229.953192 
L 247.806698 229.950965 
L 247.298579 229.948694 
L 246.790459 229.946378 
L 246.282339 229.944017 
L 245.77422 229.94161 
L 245.2661 229.939155 
L 244.757981 229.936652 
L 244.249861 229.934099 
L 243.741741 229.931496 
L 243.233622 229.928842 
L 242.725502 229.926135 
L 242.217383 229.923374 
L 241.709263 229.920558 
L 241.201143 229.917687 
L 240.693024 229.914758 
L 240.184904 229.911771 
L 239.676785 229.908725 
L 239.168665 229.905617 
L 238.660546 229.902447 
L 238.152426 229.899214 
L 237.644306 229.895916 
L 237.136187 229.892552 
L 236.628067 229.889119 
L 236.119948 229.885618 
L 235.611828 229.882046 
L 235.103708 229.878402 
L 234.595589 229.874685 
L 234.087469 229.870892 
L 233.57935 229.867022 
L 233.07123 229.863073 
L 232.56311 229.859044 
L 232.054991 229.854933 
L 231.546871 229.850738 
L 231.038752 229.846457 
L 230.530632 229.842089 
L 230.022512 229.837631 
L 229.514393 229.833081 
L 229.006273 229.828438 
L 228.498154 229.823699 
L 227.990034 229.818863 
L 227.481914 229.813927 
L 226.973795 229.808888 
L 226.465675 229.803745 
L 225.957556 229.798495 
L 225.449436 229.793136 
L 224.941316 229.787666 
L 224.433197 229.782081 
L 223.925077 229.77638 
L 223.416958 229.770559 
L 222.908838 229.764617 
L 222.400719 229.758549 
L 221.892599 229.752354 
L 221.384479 229.746029 
L 220.87636 229.73957 
L 220.36824 229.732975 
L 219.860121 229.72624 
L 219.352001 229.719362 
L 218.843881 229.712339 
L 218.335762 229.705165 
L 217.827642 229.69784 
L 217.319523 229.690357 
L 216.811403 229.682715 
L 216.303283 229.674909 
L 215.795164 229.666936 
L 215.287044 229.658792 
L 214.778925 229.650473 
L 214.270805 229.641974 
L 213.762685 229.633292 
L 213.254566 229.624422 
L 212.746446 229.61536 
L 212.238327 229.606102 
L 211.730207 229.596642 
L 211.222087 229.586977 
L 210.713968 229.577101 
L 210.205848 229.56701 
L 209.697729 229.556698 
L 209.189609 229.54616 
L 208.68149 229.535392 
L 208.17337 229.524386 
L 207.66525 229.513139 
L 207.157131 229.501644 
L 206.649011 229.489896 
L 206.140892 229.477888 
L 205.632772 229.465614 
L 205.124652 229.453069 
L 204.616533 229.440245 
L 204.108413 229.427136 
L 203.600294 229.413735 
L 203.092174 229.400035 
L 202.584054 229.38603 
L 202.075935 229.371712 
L 201.567815 229.357074 
L 201.059696 229.342107 
L 200.551576 229.326805 
L 200.043456 229.311158 
L 199.535337 229.29516 
L 199.027217 229.278801 
L 198.519098 229.262073 
L 198.010978 229.244968 
L 197.502858 229.227475 
L 196.994739 229.209587 
L 196.486619 229.191293 
L 195.9785 229.172583 
L 195.47038 229.153449 
L 194.96226 229.133879 
L 194.454141 229.113864 
L 193.946021 229.093393 
L 193.437902 229.072454 
L 192.929782 229.051037 
L 192.421663 229.029129 
L 191.913543 229.006721 
L 191.405423 228.983799 
L 190.897304 228.960351 
L 190.389184 228.936365 
L 189.881065 228.911827 
L 189.372945 228.886726 
L 188.864825 228.861046 
L 188.356706 228.834775 
L 187.848586 228.807898 
L 187.340467 228.780401 
L 186.832347 228.752268 
L 186.324227 228.723486 
L 185.816108 228.694038 
L 185.307988 228.663909 
L 184.799869 228.633082 
L 184.291749 228.601541 
L 183.783629 228.569269 
L 183.27551 228.536248 
L 182.76739 228.502461 
L 182.259271 228.46789 
L 181.751151 228.432515 
L 181.243031 228.396318 
L 180.734912 228.35928 
L 180.226792 228.321381 
L 179.718673 228.2826 
L 179.210553 228.242917 
L 178.702434 228.20231 
L 178.194314 228.160757 
L 177.686194 228.118237 
L 177.178075 228.074727 
L 176.669955 228.030203 
L 176.161836 227.984642 
L 175.653716 227.93802 
L 175.145596 227.890311 
L 174.637477 227.841491 
L 174.129357 227.791534 
L 173.621238 227.740413 
L 173.113118 227.688102 
L 172.604998 227.634572 
L 172.096879 227.579796 
L 171.588759 227.523745 
L 171.08064 227.466389 
L 170.57252 227.407699 
L 170.0644 227.347644 
L 169.556281 227.286192 
L 169.048161 227.223313 
L 168.540042 227.158973 
L 168.031922 227.093139 
L 167.523802 227.025776 
L 167.015683 226.956852 
L 166.507563 226.88633 
L 165.999444 226.814174 
L 165.491324 226.740347 
L 164.983204 226.664813 
L 164.475085 226.587532 
L 163.966965 226.508467 
L 163.458846 226.427576 
L 162.950726 226.34482 
L 162.442607 226.260157 
L 161.934487 226.173545 
L 161.426367 226.084941 
L 160.918248 225.994302 
L 160.410128 225.901583 
L 159.902009 225.806738 
L 159.393889 225.709721 
L 158.885769 225.610486 
L 158.37765 225.508984 
L 157.86953 225.405165 
L 157.361411 225.298982 
L 156.853291 225.190382 
L 156.345171 225.079314 
L 155.837052 224.965726 
L 155.328932 224.849564 
L 154.820813 224.730774 
L 154.312693 224.609301 
L 153.804573 224.485088 
L 153.296454 224.358078 
L 152.788334 224.228214 
L 152.280215 224.095434 
L 151.772095 223.959681 
L 151.263975 223.820892 
L 150.755856 223.679005 
L 150.247736 223.533957 
L 149.739617 223.385685 
L 149.231497 223.234122 
L 148.723378 223.079202 
L 148.215258 222.920859 
L 147.707138 222.759024 
L 147.199019 222.593628 
L 146.690899 222.4246 
L 146.18278 222.251869 
L 145.67466 222.075363 
L 145.16654 221.895007 
L 144.658421 221.710728 
L 144.150301 221.52245 
L 143.642182 221.330097 
L 143.134062 221.13359 
L 142.625942 220.93285 
L 142.117823 220.727799 
L 141.609703 220.518355 
L 141.101584 220.304437 
L 140.593464 220.085961 
L 140.085344 219.862843 
L 139.577225 219.635 
L 139.069105 219.402343 
L 138.560986 219.164788 
L 138.052866 218.922245 
L 137.544746 218.674626 
L 137.036627 218.42184 
L 136.528507 218.163798 
L 136.020388 217.900406 
L 135.512268 217.631572 
L 135.004148 217.357203 
L 134.496029 217.077203 
L 133.987909 216.791477 
L 133.47979 216.49993 
L 132.97167 216.202462 
L 132.463551 215.898977 
L 131.955431 215.589375 
L 131.447311 215.273557 
L 130.939192 214.951422 
L 130.431072 214.622869 
L 129.922953 214.287796 
L 129.414833 213.9461 
L 128.906713 213.597679 
L 128.398594 213.242428 
L 127.890474 212.880243 
L 127.382355 212.51102 
L 126.874235 212.134652 
L 126.366115 211.751034 
L 125.857996 211.36006 
L 125.349876 210.961622 
L 124.841757 210.555615 
L 124.333637 210.141931 
L 123.825517 209.720462 
L 123.317398 209.291101 
L 122.809278 208.85374 
L 122.301159 208.408271 
L 121.793039 207.954588 
L 121.284919 207.492581 
L 120.7768 207.022144 
L 120.26868 206.54317 
L 119.760561 206.055551 
L 119.252441 205.559181 
L 118.744322 205.053954 
L 118.236202 204.539764 
L 117.728082 204.016506 
L 117.219963 203.484076 
L 116.711843 202.942369 
L 116.203724 202.391285 
L 115.695604 201.830719 
L 115.187484 201.260573 
L 114.679365 200.680747 
L 114.171245 200.091141 
L 113.663126 199.49166 
L 113.155006 198.882207 
L 112.646886 198.26269 
L 112.138767 197.633015 
L 111.630647 196.993093 
L 111.122528 196.342835 
L 110.614408 195.682156 
L 110.106288 195.01097 
L 109.598169 194.329196 
L 109.090049 193.636756 
L 108.58193 192.933572 
L 108.07381 192.219571 
L 107.56569 191.494682 
L 107.057571 190.758837 
L 106.549451 190.011971 
L 106.041332 189.254025 
L 105.533212 188.484939 
L 105.025092 187.704661 
L 104.516973 186.913141 
L 104.008853 186.110332 
L 103.500734 185.296193 
L 102.992614 184.470688 
L 102.484495 183.633784 
L 101.976375 182.785454 
L 101.468255 181.925675 
L 100.960136 181.05443 
L 100.452016 180.171708 
L 99.943897 179.277502 
L 99.435777 178.371813 
L 98.927657 177.454647 
L 98.419538 176.526016 
L 97.911418 175.58594 
L 97.403299 174.634444 
L 96.895179 173.671561 
L 96.387059 172.697332 
L 95.87894 171.711805 
L 95.37082 170.715034 
L 94.862701 169.707085 
L 94.354581 168.688028 
L 93.846461 167.657945 
L 93.338342 166.616924 
L 92.830222 165.565066 
L 92.322103 164.502477 
L 91.813983 163.429275 
L 91.305863 162.345588 
L 90.797744 161.251554 
L 90.289624 160.147321 
L 89.781505 159.033048 
L 89.273385 157.908906 
L 88.765265 156.775075 
L 88.257146 155.631751 
L 87.749026 154.479137 
L 87.240907 153.317452 
L 86.732787 152.146926 
L 86.224668 150.967802 
L 85.716548 149.780337 
L 85.208428 148.584799 
L 84.700309 147.381474 
L 84.192189 146.170658 
L 83.68407 144.952665 
L 83.17595 143.727821 
L 82.66783 142.496468 
L 82.159711 141.258965 
L 81.651591 140.015683 
L 81.143472 138.767014 
L 80.635352 137.513361 
L 80.127232 136.255148 
L 79.619113 134.992815 
L 79.110993 133.726817 
L 78.602874 132.45763 
L 78.094754 131.185745 
L 77.586634 129.911673 
L 77.078515 128.635944 
L 76.570395 127.359108 
L 76.062276 126.081733 
L 75.554156 124.804414 
L 75.046036 123.528154 
L 74.537917 124.591578 
L 74.029797 125.868826 
L 73.521678 127.146234 
L 73.013558 128.4232 
L 72.505439 129.699152 
L 71.997319 130.973537 
L 71.489199 132.245822 
L 70.98108 133.515494 
L 70.47296 134.782057 
L 69.964841 136.045034 
L 69.456721 137.303964 
L 68.948601 138.558406 
L 68.440482 139.807935 
L 67.932362 141.052142 
L 67.424243 142.290635 
L 66.916123 143.523038 
L 66.408003 144.748991 
L 65.899884 145.968149 
L 65.391764 147.180183 
L 64.883645 148.384778 
L 64.375525 149.581633 
L 63.867405 150.770463 
L 63.359286 151.950996 
L 62.851166 153.122972 
L 62.343047 154.286147 
L 61.834927 155.440288 
L 61.326807 156.585175 
L 60.818688 157.720602 
L 60.310568 158.846371 
L 59.802449 159.962301 
L 59.294329 161.068219 
L 58.786209 162.163964 
L 58.27809 163.249385 
L 57.76997 164.324344 
L 57.261851 165.38871 
L 56.753731 166.442365 
L 56.245612 167.485198 
L 55.737492 168.517111 
L 55.229372 169.538011 
L 54.721253 170.547817 
L 54.213133 171.546455 
L 53.705014 172.533861 
L 53.196894 173.509977 
L 52.688774 174.474753 
L 52.180655 175.42815 
L 51.672535 176.370131 
L 51.164416 177.300671 
L 50.656296 178.219749 
L 50.148176 179.127351 
L 49.640057 180.023471 
z
" style="fill:#808080;fill-opacity:0.15;stroke:#808080;stroke-dasharray:0.888,0.384;stroke-dashoffset:0;stroke-opacity:0.15;stroke-width:0.24;"/>
   </g>
   <g id="matplotlib.axis_1">
    <g id="xtick_1">
     <g id="line2d_1">
      <path clip-path="url(#p27c99d4ae3)" d="M 49.640057 239.95125 
L 49.640057 22.51125 
" style="fill:none;stroke:#b0b0b0;stroke-linecap:square;stroke-opacity:0.25;stroke-width:0.8;"/>
     </g>
     <g id="line2d_2">
      <defs>
       <path d="M 0 0 
L 0 3.5 
" id="mb25afff6a4" style="stroke:#808080;stroke-width:0.8;"/>
      </defs>
      <g>
       <use style="fill:#808080;stroke:#808080;stroke-width:0.8;" x="49.640057" xlink:href="#mb25afff6a4" y="239.95125"/>
      </g>
     </g>
     <g id="text_1">
      <!-- 0 -->
      <defs>
       <path d="M 5 34.703125 
Q 5 52.09375 11.140625 61.5 
Q 17.296875 70.90625 28.203125 70.90625 
Q 39.09375 70.90625 45.25 61.5 
Q 51.40625 52.09375 51.40625 34.703125 
Q 51.40625 17.296875 45.25 7.890625 
Q 39.09375 -1.5 28.203125 -1.5 
Q 17.296875 -1.5 11.140625 7.890625 
Q 5 17.296875 5 34.703125 
z
M 41.59375 34.703125 
Q 41.59375 40.40625 40.9375 45.5 
Q 40.296875 50.59375 38.75 54.390625 
Q 37.203125 58.203125 34.59375 60.453125 
Q 32 62.703125 28.203125 62.703125 
Q 24.40625 62.703125 21.796875 60.453125 
Q 19.203125 58.203125 17.640625 54.390625 
Q 16.09375 50.59375 15.4375 45.5 
Q 14.796875 40.40625 14.796875 34.703125 
Q 14.796875 29 15.4375 23.890625 
Q 16.09375 18.796875 17.640625 15 
Q 19.203125 11.203125 21.796875 8.953125 
Q 24.40625 6.703125 28.203125 6.703125 
Q 32 6.703125 34.59375 8.953125 
Q 37.203125 11.203125 38.75 15 
Q 40.296875 18.796875 40.9375 23.890625 
Q 41.59375 29 41.59375 34.703125 
z
" id="Ubuntu-48"/>
      </defs>
      <g transform="translate(47.383807 255.25875)scale(0.08 -0.08)">
       <use xlink:href="#Ubuntu-48"/>
      </g>
     </g>
    </g>
    <g id="xtick_2">
     <g id="line2d_3">
      <path clip-path="url(#p27c99d4ae3)" d="M 100.36733 239.95125 
L 100.36733 22.51125 
" style="fill:none;stroke:#b0b0b0;stroke-linecap:square;stroke-opacity:0.25;stroke-width:0.8;"/>
     </g>
     <g id="line2d_4">
      <g>
       <use style="fill:#808080;stroke:#808080;stroke-width:0.8;" x="100.36733" xlink:href="#mb25afff6a4" y="239.95125"/>
      </g>
     </g>
     <g id="text_2">
      <!-- 1 -->
      <defs>
       <path d="M 9.296875 55 
Q 15 57.203125 20.390625 60.640625 
Q 25.796875 64.09375 30.296875 69.296875 
L 36.90625 69.296875 
L 36.90625 0 
L 27.59375 0 
L 27.59375 56.40625 
Q 26.40625 55.296875 24.65625 54.09375 
Q 22.90625 52.90625 20.84375 51.796875 
Q 18.796875 50.703125 16.546875 49.703125 
Q 14.296875 48.703125 12.203125 48 
z
" id="Ubuntu-49"/>
      </defs>
      <g transform="translate(98.11108 255.25875)scale(0.08 -0.08)">
       <use xlink:href="#Ubuntu-49"/>
      </g>
     </g>
    </g>
    <g id="xtick_3">
     <g id="line2d_5">
      <path clip-path="url(#p27c99d4ae3)" d="M 151.094602 239.95125 
L 151.094602 22.51125 
" style="fill:none;stroke:#b0b0b0;stroke-linecap:square;stroke-opacity:0.25;stroke-width:0.8;"/>
     </g>
     <g id="line2d_6">
      <g>
       <use style="fill:#808080;stroke:#808080;stroke-width:0.8;" x="151.094602" xlink:href="#mb25afff6a4" y="239.95125"/>
      </g>
     </g>
     <g id="text_3">
      <!-- 2 -->
      <defs>
       <path d="M 46.703125 51.59375 
Q 46.703125 48 45.25 44.640625 
Q 43.796875 41.296875 41.390625 38.046875 
Q 39 34.796875 36 31.640625 
Q 33 28.5 30 25.5 
Q 28.296875 23.796875 26.046875 21.5 
Q 23.796875 19.203125 21.796875 16.703125 
Q 19.796875 14.203125 18.4375 11.890625 
Q 17.09375 9.59375 17.09375 7.90625 
L 49 7.90625 
L 49 0 
L 7 0 
Q 6.90625 0.59375 6.90625 1.1875 
Q 6.90625 1.796875 6.90625 2.296875 
Q 6.90625 7 8.453125 11.046875 
Q 10 15.09375 12.5 18.6875 
Q 15 22.296875 18.09375 25.5 
Q 21.203125 28.703125 24.203125 31.703125 
Q 26.703125 34.09375 28.953125 36.4375 
Q 31.203125 38.796875 32.953125 41.140625 
Q 34.703125 43.5 35.75 46 
Q 36.796875 48.5 36.796875 51.296875 
Q 36.796875 54.296875 35.84375 56.390625 
Q 34.90625 58.5 33.296875 59.890625 
Q 31.703125 61.296875 29.546875 61.9375 
Q 27.40625 62.59375 25 62.59375 
Q 22.09375 62.59375 19.6875 61.796875 
Q 17.296875 61 15.390625 59.953125 
Q 13.5 58.90625 12.203125 57.75 
Q 10.90625 56.59375 10.203125 56 
L 5.59375 62.59375 
Q 6.5 63.59375 8.296875 65.046875 
Q 10.09375 66.5 12.59375 67.796875 
Q 15.09375 69.09375 18.1875 70 
Q 21.296875 70.90625 24.90625 70.90625 
Q 35.796875 70.90625 41.25 65.84375 
Q 46.703125 60.796875 46.703125 51.59375 
z
" id="Ubuntu-50"/>
      </defs>
      <g transform="translate(148.838352 255.25875)scale(0.08 -0.08)">
       <use xlink:href="#Ubuntu-50"/>
      </g>
     </g>
    </g>
    <g id="xtick_4">
     <g id="line2d_7">
      <path clip-path="url(#p27c99d4ae3)" d="M 201.821875 239.95125 
L 201.821875 22.51125 
" style="fill:none;stroke:#b0b0b0;stroke-linecap:square;stroke-opacity:0.25;stroke-width:0.8;"/>
     </g>
     <g id="line2d_8">
      <g>
       <use style="fill:#808080;stroke:#808080;stroke-width:0.8;" x="201.821875" xlink:href="#mb25afff6a4" y="239.95125"/>
      </g>
     </g>
     <g id="text_4">
      <!-- 3 -->
      <defs>
       <path d="M 22.59375 6.796875 
Q 31.5 6.796875 35.34375 10.296875 
Q 39.203125 13.796875 39.203125 19.703125 
Q 39.203125 23.5 37.59375 26.09375 
Q 36 28.703125 33.390625 30.25 
Q 30.796875 31.796875 27.34375 32.4375 
Q 23.90625 33.09375 20.296875 33.09375 
L 17.90625 33.09375 
L 17.90625 40.703125 
L 21.203125 40.703125 
Q 23.703125 40.703125 26.34375 41.203125 
Q 29 41.703125 31.203125 43 
Q 33.40625 44.296875 34.796875 46.546875 
Q 36.203125 48.796875 36.203125 52.203125 
Q 36.203125 55 35.203125 57 
Q 34.203125 59 32.546875 60.296875 
Q 30.90625 61.59375 28.75 62.140625 
Q 26.59375 62.703125 24.203125 62.703125 
Q 19.40625 62.703125 16.046875 61.296875 
Q 12.703125 59.90625 10.40625 58.40625 
L 6.796875 65.5 
Q 8 66.296875 9.84375 67.25 
Q 11.703125 68.203125 14 69 
Q 16.296875 69.796875 18.9375 70.34375 
Q 21.59375 70.90625 24.5 70.90625 
Q 30 70.90625 34 69.546875 
Q 38 68.203125 40.59375 65.75 
Q 43.203125 63.296875 44.5 59.9375 
Q 45.796875 56.59375 45.796875 52.703125 
Q 45.796875 47.296875 42.6875 43.4375 
Q 39.59375 39.59375 35.203125 37.59375 
Q 37.90625 36.796875 40.40625 35.296875 
Q 42.90625 33.796875 44.75 31.5 
Q 46.59375 29.203125 47.75 26.203125 
Q 48.90625 23.203125 48.90625 19.5 
Q 48.90625 15 47.34375 11.140625 
Q 45.796875 7.296875 42.546875 4.5 
Q 39.296875 1.703125 34.390625 0.09375 
Q 29.5 -1.5 22.796875 -1.5 
Q 20.203125 -1.5 17.453125 -1.09375 
Q 14.703125 -0.703125 12.296875 -0.09375 
Q 9.90625 0.5 8.09375 1.09375 
Q 6.296875 1.703125 5.5 2.09375 
L 7.296875 10.203125 
Q 9 9.40625 12.953125 8.09375 
Q 16.90625 6.796875 22.59375 6.796875 
z
" id="Ubuntu-51"/>
      </defs>
      <g transform="translate(199.565625 255.25875)scale(0.08 -0.08)">
       <use xlink:href="#Ubuntu-51"/>
      </g>
     </g>
    </g>
    <g id="xtick_5">
     <g id="line2d_9">
      <path clip-path="url(#p27c99d4ae3)" d="M 252.549148 239.95125 
L 252.549148 22.51125 
" style="fill:none;stroke:#b0b0b0;stroke-linecap:square;stroke-opacity:0.25;stroke-width:0.8;"/>
     </g>
     <g id="line2d_10">
      <g>
       <use style="fill:#808080;stroke:#808080;stroke-width:0.8;" x="252.549148" xlink:href="#mb25afff6a4" y="239.95125"/>
      </g>
     </g>
     <g id="text_5">
      <!-- 4 -->
      <defs>
       <path d="M 4 24 
Q 5.90625 28.40625 9.203125 34.25 
Q 12.5 40.09375 16.640625 46.296875 
Q 20.796875 52.5 25.546875 58.5 
Q 30.296875 64.5 35.09375 69.296875 
L 44 69.296875 
L 44 25.296875 
L 52.203125 25.296875 
L 52.203125 17.703125 
L 44 17.703125 
L 44 0 
L 35 0 
L 35 17.703125 
L 4 17.703125 
z
M 35 58.296875 
Q 32 55.09375 28.953125 51.140625 
Q 25.90625 47.203125 23 42.890625 
Q 20.09375 38.59375 17.546875 34.09375 
Q 15 29.59375 13 25.296875 
L 35 25.296875 
z
" id="Ubuntu-52"/>
      </defs>
      <g transform="translate(250.292898 255.25875)scale(0.08 -0.08)">
       <use xlink:href="#Ubuntu-52"/>
      </g>
     </g>
    </g>
    <g id="xtick_6">
     <g id="line2d_11">
      <path clip-path="url(#p27c99d4ae3)" d="M 303.27642 239.95125 
L 303.27642 22.51125 
" style="fill:none;stroke:#b0b0b0;stroke-linecap:square;stroke-opacity:0.25;stroke-width:0.8;"/>
     </g>
     <g id="line2d_12">
      <g>
       <use style="fill:#808080;stroke:#808080;stroke-width:0.8;" x="303.27642" xlink:href="#mb25afff6a4" y="239.95125"/>
      </g>
     </g>
     <g id="text_6">
      <!-- 5 -->
      <defs>
       <path d="M 19.90625 42.59375 
Q 35 42 42.046875 36 
Q 49.09375 30 49.09375 19.703125 
Q 49.09375 15.09375 47.546875 11.1875 
Q 46 7.296875 42.84375 4.5 
Q 39.703125 1.703125 34.890625 0.09375 
Q 30.09375 -1.5 23.5 -1.5 
Q 20.90625 -1.5 18.203125 -1.09375 
Q 15.5 -0.703125 13.203125 -0.09375 
Q 10.90625 0.5 9.09375 1.09375 
Q 7.296875 1.703125 6.5 2.09375 
L 8.296875 10.203125 
Q 10 9.40625 13.84375 8.09375 
Q 17.703125 6.796875 23.296875 6.796875 
Q 27.796875 6.796875 30.84375 7.796875 
Q 33.90625 8.796875 35.796875 10.5 
Q 37.703125 12.203125 38.546875 14.453125 
Q 39.40625 16.703125 39.40625 19.203125 
Q 39.40625 23 38.09375 25.953125 
Q 36.796875 28.90625 33.5 30.90625 
Q 30.203125 32.90625 24.703125 33.953125 
Q 19.203125 35 10.796875 35 
Q 11.40625 39.90625 11.75 44.203125 
Q 12.09375 48.5 12.390625 52.59375 
Q 12.703125 56.703125 12.890625 60.75 
Q 13.09375 64.796875 13.296875 69.296875 
L 46.703125 69.296875 
L 46.703125 61.40625 
L 21.40625 61.40625 
Q 21.296875 59.90625 21.09375 57.34375 
Q 20.90625 54.796875 20.703125 52.046875 
Q 20.5 49.296875 20.296875 46.6875 
Q 20.09375 44.09375 19.90625 42.59375 
z
" id="Ubuntu-53"/>
      </defs>
      <g transform="translate(301.02017 255.25875)scale(0.08 -0.08)">
       <use xlink:href="#Ubuntu-53"/>
      </g>
     </g>
    </g>
    <g id="xtick_7">
     <g id="line2d_13">
      <path clip-path="url(#p27c99d4ae3)" d="M 354.003693 239.95125 
L 354.003693 22.51125 
" style="fill:none;stroke:#b0b0b0;stroke-linecap:square;stroke-opacity:0.25;stroke-width:0.8;"/>
     </g>
     <g id="line2d_14">
      <g>
       <use style="fill:#808080;stroke:#808080;stroke-width:0.8;" x="354.003693" xlink:href="#mb25afff6a4" y="239.95125"/>
      </g>
     </g>
     <g id="text_7">
      <!-- 6 -->
      <defs>
       <path d="M 6.296875 27.796875 
Q 6.296875 37.90625 9.09375 45.65625 
Q 11.90625 53.40625 17.046875 58.703125 
Q 22.203125 64 29.546875 66.75 
Q 36.90625 69.5 46.09375 69.59375 
L 46.796875 61.796875 
Q 40.90625 61.703125 36.046875 60.5 
Q 31.203125 59.296875 27.390625 56.6875 
Q 23.59375 54.09375 21 49.9375 
Q 18.40625 45.796875 17.09375 39.703125 
Q 19.703125 40.90625 22.953125 41.703125 
Q 26.203125 42.5 29.703125 42.5 
Q 35.59375 42.5 39.6875 40.703125 
Q 43.796875 38.90625 46.390625 35.953125 
Q 49 33 50.140625 29.140625 
Q 51.296875 25.296875 51.296875 21.09375 
Q 51.296875 17.296875 50 13.296875 
Q 48.703125 9.296875 46.046875 6 
Q 43.40625 2.703125 39.296875 0.59375 
Q 35.203125 -1.5 29.59375 -1.5 
Q 18.203125 -1.5 12.25 6.296875 
Q 6.296875 14.09375 6.296875 27.796875 
z
M 28.703125 34.90625 
Q 25.203125 34.90625 22.203125 34.25 
Q 19.203125 33.59375 16.203125 32.296875 
Q 16.09375 31.203125 16.046875 30.046875 
Q 16 28.90625 16 27.796875 
Q 16 23.40625 16.59375 19.5 
Q 17.203125 15.59375 18.75 12.640625 
Q 20.296875 9.703125 22.890625 7.953125 
Q 25.5 6.203125 29.5 6.203125 
Q 32.796875 6.203125 35.09375 7.59375 
Q 37.40625 9 38.90625 11.203125 
Q 40.40625 13.40625 41.046875 15.953125 
Q 41.703125 18.5 41.703125 20.90625 
Q 41.703125 27.703125 38.453125 31.296875 
Q 35.203125 34.90625 28.703125 34.90625 
z
" id="Ubuntu-54"/>
      </defs>
      <g transform="translate(351.747443 255.25875)scale(0.08 -0.08)">
       <use xlink:href="#Ubuntu-54"/>
      </g>
     </g>
    </g>
    <g id="text_8">
     <!-- X -->
     <defs>
      <path d="M 50.203125 0 
Q 48.703125 3 46.59375 6.640625 
Q 44.5 10.296875 42 14.25 
Q 39.5 18.203125 36.796875 22.140625 
Q 34.09375 26.09375 31.59375 29.59375 
Q 29.09375 26.09375 26.390625 22.140625 
Q 23.703125 18.203125 21.25 14.25 
Q 18.796875 10.296875 16.640625 6.640625 
Q 14.5 3 13 0 
L 2.296875 0 
Q 6.796875 8.796875 12.75 17.890625 
Q 18.703125 27 25.40625 36.59375 
L 3.203125 69.296875 
L 14.40625 69.296875 
L 31.5 43.5 
L 48.40625 69.296875 
L 59.5 69.296875 
L 37.703125 37 
Q 44.5 27.296875 50.5 18.09375 
Q 56.5 8.90625 61.09375 0 
z
" id="Ubuntu-88"/>
     </defs>
     <g transform="translate(198.667188 268.498125)scale(0.1 -0.1)">
      <use xlink:href="#Ubuntu-88"/>
     </g>
    </g>
   </g>
   <g id="matplotlib.axis_2">
    <g id="ytick_1">
     <g id="line2d_15">
      <path clip-path="url(#p27c99d4ae3)" d="M 34.421875 230.069933 
L 369.221875 230.069933 
" style="fill:none;stroke:#b0b0b0;stroke-linecap:square;stroke-opacity:0.25;stroke-width:0.8;"/>
     </g>
     <g id="line2d_16">
      <defs>
       <path d="M 0 0 
L -3.5 0 
" id="m7f339956b5" style="stroke:#808080;stroke-width:0.8;"/>
      </defs>
      <g>
       <use style="fill:#808080;stroke:#808080;stroke-width:0.8;" x="34.421875" xlink:href="#m7f339956b5" y="230.069933"/>
      </g>
     </g>
     <g id="text_9">
      <!-- 2 -->
      <g transform="translate(20.809375 233.173683)scale(0.08 -0.08)">
       <use xlink:href="#Ubuntu-50"/>
      </g>
     </g>
    </g>
    <g id="ytick_2">
     <g id="line2d_17">
      <path clip-path="url(#p27c99d4ae3)" d="M 34.421875 197.177672 
L 369.221875 197.177672 
" style="fill:none;stroke:#b0b0b0;stroke-linecap:square;stroke-opacity:0.25;stroke-width:0.8;"/>
     </g>
     <g id="line2d_18">
      <g>
       <use style="fill:#808080;stroke:#808080;stroke-width:0.8;" x="34.421875" xlink:href="#m7f339956b5" y="197.177672"/>
      </g>
     </g>
     <g id="text_10">
      <!-- 3 -->
      <g transform="translate(20.809375 200.281422)scale(0.08 -0.08)">
       <use xlink:href="#Ubuntu-51"/>
      </g>
     </g>
    </g>
    <g id="ytick_3">
     <g id="line2d_19">
      <path clip-path="url(#p27c99d4ae3)" d="M 34.421875 164.28541 
L 369.221875 164.28541 
" style="fill:none;stroke:#b0b0b0;stroke-linecap:square;stroke-opacity:0.25;stroke-width:0.8;"/>
     </g>
     <g id="line2d_20">
      <g>
       <use style="fill:#808080;stroke:#808080;stroke-width:0.8;" x="34.421875" xlink:href="#m7f339956b5" y="164.28541"/>
      </g>
     </g>
     <g id="text_11">
      <!-- 4 -->
      <g transform="translate(20.809375 167.38916)scale(0.08 -0.08)">
       <use xlink:href="#Ubuntu-52"/>
      </g>
     </g>
    </g>
    <g id="ytick_4">
     <g id="line2d_21">
      <path clip-path="url(#p27c99d4ae3)" d="M 34.421875 131.393148 
L 369.221875 131.393148 
" style="fill:none;stroke:#b0b0b0;stroke-linecap:square;stroke-opacity:0.25;stroke-width:0.8;"/>
     </g>
     <g id="line2d_22">
      <g>
       <use style="fill:#808080;stroke:#808080;stroke-width:0.8;" x="34.421875" xlink:href="#m7f339956b5" y="131.393148"/>
      </g>
     </g>
     <g id="text_12">
      <!-- 5 -->
      <g transform="translate(20.809375 134.496898)scale(0.08 -0.08)">
       <use xlink:href="#Ubuntu-53"/>
      </g>
     </g>
    </g>
    <g id="ytick_5">
     <g id="line2d_23">
      <path clip-path="url(#p27c99d4ae3)" d="M 34.421875 98.500887 
L 369.221875 98.500887 
" style="fill:none;stroke:#b0b0b0;stroke-linecap:square;stroke-opacity:0.25;stroke-width:0.8;"/>
     </g>
     <g id="line2d_24">
      <g>
       <use style="fill:#808080;stroke:#808080;stroke-width:0.8;" x="34.421875" xlink:href="#m7f339956b5" y="98.500887"/>
      </g>
     </g>
     <g id="text_13">
      <!-- 6 -->
      <g transform="translate(20.809375 101.604637)scale(0.08 -0.08)">
       <use xlink:href="#Ubuntu-54"/>
      </g>
     </g>
    </g>
    <g id="ytick_6">
     <g id="line2d_25">
      <path clip-path="url(#p27c99d4ae3)" d="M 34.421875 65.608625 
L 369.221875 65.608625 
" style="fill:none;stroke:#b0b0b0;stroke-linecap:square;stroke-opacity:0.25;stroke-width:0.8;"/>
     </g>
     <g id="line2d_26">
      <g>
       <use style="fill:#808080;stroke:#808080;stroke-width:0.8;" x="34.421875" xlink:href="#m7f339956b5" y="65.608625"/>
      </g>
     </g>
     <g id="text_14">
      <!-- 7 -->
      <defs>
       <path d="M 16.296875 0 
Q 16.90625 8 19.15625 16.84375 
Q 21.40625 25.703125 24.703125 34.046875 
Q 28 42.40625 31.953125 49.546875 
Q 35.90625 56.703125 39.703125 61.203125 
L 6 61.203125 
L 6 69.296875 
L 50.09375 69.296875 
L 50.09375 61.59375 
Q 46.796875 57.796875 42.796875 51.140625 
Q 38.796875 44.5 35.25 36.25 
Q 31.703125 28 29.140625 18.640625 
Q 26.59375 9.296875 26 0 
z
" id="Ubuntu-55"/>
      </defs>
      <g transform="translate(20.809375 68.712375)scale(0.08 -0.08)">
       <use xlink:href="#Ubuntu-55"/>
      </g>
     </g>
    </g>
    <g id="ytick_7">
     <g id="line2d_27">
      <path clip-path="url(#p27c99d4ae3)" d="M 34.421875 32.716363 
L 369.221875 32.716363 
" style="fill:none;stroke:#b0b0b0;stroke-linecap:square;stroke-opacity:0.25;stroke-width:0.8;"/>
     </g>
     <g id="line2d_28">
      <g>
       <use style="fill:#808080;stroke:#808080;stroke-width:0.8;" x="34.421875" xlink:href="#m7f339956b5" y="32.716363"/>
      </g>
     </g>
     <g id="text_15">
      <!-- 8 -->
      <defs>
       <path d="M 50.90625 18 
Q 50.90625 13.796875 49.453125 10.25 
Q 48 6.703125 45.140625 4.046875 
Q 42.296875 1.40625 38 -0.046875 
Q 33.703125 -1.5 28.09375 -1.5 
Q 21.59375 -1.5 17.25 0.34375 
Q 12.90625 2.203125 10.296875 5 
Q 7.703125 7.796875 6.59375 11.140625 
Q 5.5 14.5 5.5 17.5 
Q 5.5 20.40625 6.453125 23.046875 
Q 7.40625 25.703125 8.953125 28 
Q 10.5 30.296875 12.546875 32.140625 
Q 14.59375 34 16.90625 35.40625 
Q 7.09375 41 7.09375 51.90625 
Q 7.09375 55.703125 8.59375 59.140625 
Q 10.09375 62.59375 12.84375 65.1875 
Q 15.59375 67.796875 19.5 69.34375 
Q 23.40625 70.90625 28.203125 70.90625 
Q 33.796875 70.90625 37.796875 69.203125 
Q 41.796875 67.5 44.34375 64.84375 
Q 46.90625 62.203125 48.046875 59 
Q 49.203125 55.796875 49.203125 52.796875 
Q 49.203125 49.90625 48.34375 47.34375 
Q 47.5 44.796875 46.046875 42.59375 
Q 44.59375 40.40625 42.75 38.703125 
Q 40.90625 37 38.90625 35.703125 
Q 50.703125 30.09375 50.90625 18 
z
M 14.90625 17.40625 
Q 14.90625 15.59375 15.546875 13.640625 
Q 16.203125 11.703125 17.796875 10.046875 
Q 19.40625 8.40625 21.90625 7.296875 
Q 24.40625 6.203125 28.203125 6.203125 
Q 31.59375 6.203125 34.140625 7.203125 
Q 36.703125 8.203125 38.296875 9.75 
Q 39.90625 11.296875 40.703125 13.296875 
Q 41.5 15.296875 41.5 17.40625 
Q 41.5 20.59375 40.296875 23 
Q 39.09375 25.40625 36.84375 27.203125 
Q 34.59375 29 31.4375 30.25 
Q 28.296875 31.5 24.296875 32.40625 
Q 19.796875 29.90625 17.34375 26.203125 
Q 14.90625 22.5 14.90625 17.40625 
z
M 39.90625 52.90625 
Q 39.90625 54.40625 39.25 56.203125 
Q 38.59375 58 37.1875 59.546875 
Q 35.796875 61.09375 33.59375 62.140625 
Q 31.40625 63.203125 28.203125 63.203125 
Q 25 63.203125 22.75 62.203125 
Q 20.5 61.203125 19.09375 59.640625 
Q 17.703125 58.09375 17.046875 56.25 
Q 16.40625 54.40625 16.40625 52.59375 
Q 16.40625 50.40625 17.203125 48.203125 
Q 18 46 19.703125 44.09375 
Q 21.40625 42.203125 24.15625 40.703125 
Q 26.90625 39.203125 30.703125 38.296875 
Q 34.90625 40.796875 37.40625 44.140625 
Q 39.90625 47.5 39.90625 52.90625 
z
" id="Ubuntu-56"/>
      </defs>
      <g transform="translate(20.809375 35.820113)scale(0.08 -0.08)">
       <use xlink:href="#Ubuntu-56"/>
      </g>
     </g>
    </g>
    <g id="text_16">
     <!-- Gold content -->
     <defs>
      <path d="M 50.90625 34.09375 
L 60.59375 34.09375 
L 60.59375 1.703125 
Q 59.40625 1.296875 57.15625 0.796875 
Q 54.90625 0.296875 51.953125 -0.203125 
Q 49 -0.703125 45.5 -1.046875 
Q 42 -1.40625 38.40625 -1.40625 
Q 31.09375 -1.40625 25.09375 1 
Q 19.09375 3.40625 14.796875 8 
Q 10.5 12.59375 8.140625 19.296875 
Q 5.796875 26 5.796875 34.703125 
Q 5.796875 43.40625 8.4375 50.15625 
Q 11.09375 56.90625 15.59375 61.5 
Q 20.09375 66.09375 26.140625 68.5 
Q 32.203125 70.90625 39.09375 70.90625 
Q 43.796875 70.90625 47.4375 70.296875 
Q 51.09375 69.703125 53.6875 68.890625 
Q 56.296875 68.09375 57.9375 67.296875 
Q 59.59375 66.5 60.203125 66.09375 
L 57.09375 58 
Q 54.203125 59.90625 49.390625 61.15625 
Q 44.59375 62.40625 39.59375 62.40625 
Q 34.296875 62.40625 29.9375 60.5 
Q 25.59375 58.59375 22.546875 55 
Q 19.5 51.40625 17.796875 46.25 
Q 16.09375 41.09375 16.09375 34.703125 
Q 16.09375 28.5 17.546875 23.390625 
Q 19 18.296875 21.953125 14.640625 
Q 24.90625 11 29.25 9 
Q 33.59375 7 39.5 7 
Q 43.703125 7 46.640625 7.453125 
Q 49.59375 7.90625 50.90625 8.296875 
z
" id="Ubuntu-71"/>
      <path d="M 53.90625 26 
Q 53.90625 19.796875 52.09375 14.796875 
Q 50.296875 9.796875 47.046875 6.1875 
Q 43.796875 2.59375 39.296875 0.640625 
Q 34.796875 -1.296875 29.5 -1.296875 
Q 24.203125 -1.296875 19.703125 0.640625 
Q 15.203125 2.59375 11.953125 6.1875 
Q 8.703125 9.796875 6.890625 14.796875 
Q 5.09375 19.796875 5.09375 26 
Q 5.09375 32.09375 6.890625 37.140625 
Q 8.703125 42.203125 11.953125 45.796875 
Q 15.203125 49.40625 19.703125 51.34375 
Q 24.203125 53.296875 29.5 53.296875 
Q 34.796875 53.296875 39.296875 51.34375 
Q 43.796875 49.40625 47.046875 45.796875 
Q 50.296875 42.203125 52.09375 37.140625 
Q 53.90625 32.09375 53.90625 26 
z
M 44.203125 26 
Q 44.203125 34.796875 40.25 39.9375 
Q 36.296875 45.09375 29.5 45.09375 
Q 22.703125 45.09375 18.75 39.9375 
Q 14.796875 34.796875 14.796875 26 
Q 14.796875 17.203125 18.75 12.046875 
Q 22.703125 6.90625 29.5 6.90625 
Q 36.296875 6.90625 40.25 12.046875 
Q 44.203125 17.203125 44.203125 26 
z
" id="Ubuntu-111"/>
      <path d="M 23.59375 -1 
Q 15 -0.796875 11.390625 2.703125 
Q 7.796875 6.203125 7.796875 13.59375 
L 7.796875 76 
L 17.09375 77.59375 
L 17.09375 15.09375 
Q 17.09375 12.796875 17.5 11.296875 
Q 17.90625 9.796875 18.796875 8.890625 
Q 19.703125 8 21.203125 7.546875 
Q 22.703125 7.09375 24.90625 6.796875 
z
" id="Ubuntu-108"/>
      <path d="M 41.59375 41 
Q 39.90625 42.40625 36.703125 43.703125 
Q 33.5 45 29.703125 45 
Q 25.703125 45 22.84375 43.546875 
Q 20 42.09375 18.203125 39.546875 
Q 16.40625 37 15.59375 33.5 
Q 14.796875 30 14.796875 26 
Q 14.796875 16.90625 19.296875 11.953125 
Q 23.796875 7 31.296875 7 
Q 35.09375 7 37.640625 7.34375 
Q 40.203125 7.703125 41.59375 8.09375 
z
M 41.59375 76 
L 50.90625 77.59375 
L 50.90625 1.5 
Q 47.703125 0.59375 42.703125 -0.296875 
Q 37.703125 -1.203125 31.203125 -1.203125 
Q 25.203125 -1.203125 20.390625 0.6875 
Q 15.59375 2.59375 12.1875 6.09375 
Q 8.796875 9.59375 6.9375 14.640625 
Q 5.09375 19.703125 5.09375 26 
Q 5.09375 32 6.640625 37 
Q 8.203125 42 11.203125 45.59375 
Q 14.203125 49.203125 18.546875 51.203125 
Q 22.90625 53.203125 28.5 53.203125 
Q 33 53.203125 36.453125 52 
Q 39.90625 50.796875 41.59375 49.703125 
z
" id="Ubuntu-100"/>
      <path id="Ubuntu-32"/>
      <path d="M 30.59375 -1.203125 
Q 24.296875 -1.203125 19.546875 0.796875 
Q 14.796875 2.796875 11.546875 6.390625 
Q 8.296875 10 6.6875 14.953125 
Q 5.09375 19.90625 5.09375 25.90625 
Q 5.09375 31.90625 6.84375 36.90625 
Q 8.59375 41.90625 11.796875 45.546875 
Q 15 49.203125 19.640625 51.25 
Q 24.296875 53.296875 30 53.296875 
Q 33.5 53.296875 37 52.6875 
Q 40.5 52.09375 43.703125 50.796875 
L 41.59375 42.90625 
Q 39.5 43.90625 36.75 44.5 
Q 34 45.09375 30.90625 45.09375 
Q 23.09375 45.09375 18.9375 40.1875 
Q 14.796875 35.296875 14.796875 25.90625 
Q 14.796875 21.703125 15.75 18.203125 
Q 16.703125 14.703125 18.75 12.203125 
Q 20.796875 9.703125 24 8.34375 
Q 27.203125 7 31.796875 7 
Q 35.5 7 38.5 7.703125 
Q 41.5 8.40625 43.203125 9.203125 
L 44.5 1.40625 
Q 43.703125 0.90625 42.203125 0.453125 
Q 40.703125 0 38.796875 -0.34375 
Q 36.90625 -0.703125 34.75 -0.953125 
Q 32.59375 -1.203125 30.59375 -1.203125 
z
" id="Ubuntu-99"/>
      <path d="M 8 50.5 
Q 11.203125 51.296875 16.5 52.1875 
Q 21.796875 53.09375 28.703125 53.09375 
Q 34.90625 53.09375 39 51.34375 
Q 43.09375 49.59375 45.546875 46.4375 
Q 48 43.296875 49 38.890625 
Q 50 34.5 50 29.203125 
L 50 0 
L 40.703125 0 
L 40.703125 27.203125 
Q 40.703125 32 40.046875 35.390625 
Q 39.40625 38.796875 37.90625 40.890625 
Q 36.40625 43 33.90625 43.953125 
Q 31.40625 44.90625 27.703125 44.90625 
Q 26.203125 44.90625 24.59375 44.796875 
Q 23 44.703125 21.546875 44.546875 
Q 20.09375 44.40625 18.9375 44.203125 
Q 17.796875 44 17.296875 43.90625 
L 17.296875 0 
L 8 0 
z
" id="Ubuntu-110"/>
      <path d="M 16.703125 52 
L 36.40625 52 
L 36.40625 44.203125 
L 16.703125 44.203125 
L 16.703125 20.203125 
Q 16.703125 16.296875 17.296875 13.75 
Q 17.90625 11.203125 19.09375 9.75 
Q 20.296875 8.296875 22.09375 7.6875 
Q 23.90625 7.09375 26.296875 7.09375 
Q 30.5 7.09375 33.046875 8.046875 
Q 35.59375 9 36.59375 9.40625 
L 38.40625 1.703125 
Q 37 1 33.5 -0.046875 
Q 30 -1.09375 25.5 -1.09375 
Q 20.203125 -1.09375 16.75 0.25 
Q 13.296875 1.59375 11.1875 4.296875 
Q 9.09375 7 8.25 10.953125 
Q 7.40625 14.90625 7.40625 20.09375 
L 7.40625 66.5 
L 16.703125 68.09375 
z
" id="Ubuntu-116"/>
      <path d="M 5.09375 25.90625 
Q 5.09375 32.796875 7.09375 37.9375 
Q 9.09375 43.09375 12.390625 46.5 
Q 15.703125 49.90625 20 51.59375 
Q 24.296875 53.296875 28.796875 53.296875 
Q 39.296875 53.296875 44.890625 46.75 
Q 50.5 40.203125 50.5 26.796875 
Q 50.5 26.203125 50.5 25.25 
Q 50.5 24.296875 50.40625 23.5 
L 14.796875 23.5 
Q 15.40625 15.40625 19.5 11.203125 
Q 23.59375 7 32.296875 7 
Q 37.203125 7 40.546875 7.84375 
Q 43.90625 8.703125 45.59375 9.5 
L 46.90625 1.703125 
Q 45.203125 0.796875 40.953125 -0.203125 
Q 36.703125 -1.203125 31.296875 -1.203125 
Q 24.5 -1.203125 19.546875 0.84375 
Q 14.59375 2.90625 11.390625 6.5 
Q 8.203125 10.09375 6.640625 15.046875 
Q 5.09375 20 5.09375 25.90625 
z
M 40.796875 31 
Q 40.90625 37.296875 37.65625 41.34375 
Q 34.40625 45.40625 28.703125 45.40625 
Q 25.5 45.40625 23.046875 44.15625 
Q 20.59375 42.90625 18.890625 40.90625 
Q 17.203125 38.90625 16.25 36.296875 
Q 15.296875 33.703125 15 31 
z
" id="Ubuntu-101"/>
     </defs>
     <g transform="translate(14.959375 160.835937)rotate(-90)scale(0.1 -0.1)">
      <use xlink:href="#Ubuntu-71"/>
      <use x="67.199997" xlink:href="#Ubuntu-111"/>
      <use x="126.199982" xlink:href="#Ubuntu-108"/>
      <use x="153.499969" xlink:href="#Ubuntu-100"/>
      <use x="212.399963" xlink:href="#Ubuntu-32"/>
      <use x="235.499954" xlink:href="#Ubuntu-99"/>
      <use x="281.984314" xlink:href="#Ubuntu-111"/>
      <use x="340.984299" xlink:href="#Ubuntu-110"/>
      <use x="398.384293" xlink:href="#Ubuntu-116"/>
      <use x="438.568665" xlink:href="#Ubuntu-101"/>
      <use x="494.468658" xlink:href="#Ubuntu-110"/>
      <use x="551.868652" xlink:href="#Ubuntu-116"/>
     </g>
    </g>
   </g>
   <g id="line2d_29">
    <path clip-path="url(#p27c99d4ae3)" d="M 49.640057 155.194535 
L 51.672535 153.868358 
L 53.705014 152.281984 
L 55.229372 150.847616 
L 57.261851 148.634831 
L 59.802449 145.55629 
L 68.948601 133.635075 
L 70.98108 130.507434 
L 73.521678 126.062448 
L 81.651591 111.369453 
L 84.192189 106.378741 
L 88.257146 97.734582 
L 94.354581 84.918933 
L 97.403299 78.920857 
L 99.943897 74.331812 
L 101.976375 71.099846 
L 104.008853 68.321087 
L 105.533212 66.582854 
L 107.057571 65.140262 
L 109.090049 63.597086 
L 112.646886 61.216383 
L 114.679365 60.064369 
L 116.711843 59.135327 
L 121.793039 57.151266 
L 124.333637 56.283939 
L 127.382355 55.572657 
L 129.414833 55.277636 
L 130.939192 55.351013 
L 132.463551 55.752959 
L 133.987909 56.498181 
L 136.020388 57.893125 
L 138.052866 59.578955 
L 140.085344 61.48764 
L 142.117823 63.710308 
L 144.150301 66.26302 
L 146.18278 69.14557 
L 153.296454 79.579026 
L 156.345171 83.291564 
L 161.934487 89.76836 
L 163.966965 92.584184 
L 167.015683 97.243624 
L 171.08064 103.561694 
L 173.113118 106.304815 
L 175.653716 109.332853 
L 177.178075 110.840041 
L 179.210553 112.481954 
L 181.243031 113.872985 
L 182.76739 114.677537 
L 184.291749 115.258413 
L 186.324227 115.745942 
L 188.356706 115.961588 
L 191.913543 116.096923 
L 193.946021 115.993946 
L 195.9785 115.657261 
L 199.027217 114.82429 
L 205.632772 112.749335 
L 207.66525 111.891661 
L 211.222087 110.050106 
L 213.762685 108.45729 
L 216.811403 106.192968 
L 218.843881 104.532464 
L 220.87636 102.57587 
L 222.908838 100.263056 
L 226.465675 95.740842 
L 230.022512 90.813681 
L 235.103708 83.965184 
L 242.725502 74.11231 
L 246.790459 69.17343 
L 248.822937 67.091882 
L 250.347296 65.734185 
L 251.871655 64.658647 
L 253.396014 63.901394 
L 254.412253 63.638396 
L 255.428492 63.573612 
L 256.444731 63.689421 
L 257.46097 63.955154 
L 258.47721 64.380412 
L 259.493449 64.974098 
L 261.017808 66.17331 
L 263.558406 68.616542 
L 276.261395 81.288778 
L 279.310113 84.811816 
L 282.86695 89.204448 
L 287.948146 95.782356 
L 292.521222 101.301119 
L 295.56994 104.54246 
L 297.094299 105.914143 
L 298.618658 107.009698 
L 300.143016 107.872767 
L 301.667375 108.449897 
L 303.191734 108.738079 
L 305.224212 108.841673 
L 310.305408 108.888493 
L 312.337887 109.13566 
L 314.878485 109.745 
L 316.910963 110.491297 
L 321.484039 112.392087 
L 323.008398 112.716736 
L 324.532757 112.786906 
L 326.057116 112.594738 
L 327.581474 112.16886 
L 333.17079 110.153468 
L 338.760105 107.834982 
L 340.284464 107.042744 
L 342.316943 105.725487 
L 344.857541 103.798709 
L 348.414378 100.739263 
L 350.954976 98.30259 
L 352.987454 95.992263 
L 354.003693 94.695902 
L 354.003693 94.695902 
" style="fill:none;stroke:#1f77b4;stroke-linecap:square;stroke-width:2.7;"/>
   </g>
   <g id="line2d_30">
    <path clip-path="url(#p27c99d4ae3)" d="M 49.640057 89.615423 
L 51.672535 92.341506 
L 55.229372 97.630978 
L 58.786209 103.049944 
L 60.818688 105.811445 
L 63.359286 108.906582 
L 67.424243 113.47072 
L 69.456721 115.901998 
L 73.013558 120.739111 
L 76.570395 125.421717 
L 80.127232 129.741714 
L 82.66783 132.441555 
L 85.208428 134.80112 
L 88.257146 137.350841 
L 90.289624 138.76962 
L 92.830222 140.246309 
L 98.927657 143.39911 
L 100.960136 144.421598 
L 108.58193 147.733463 
L 111.630647 149.118243 
L 118.744322 152.542001 
L 121.793039 153.559405 
L 124.841757 154.303938 
L 128.906713 155.019621 
L 130.939192 155.065688 
L 135.004148 154.819391 
L 138.052866 154.710939 
L 142.117823 154.595504 
L 144.150301 154.395205 
L 147.199019 153.825218 
L 150.755856 153.165479 
L 152.280215 152.874987 
L 154.312693 152.206157 
L 160.918248 149.631417 
L 162.950726 148.839057 
L 164.983204 148.312704 
L 167.523802 147.82129 
L 169.048161 147.741853 
L 170.57252 147.949796 
L 172.096879 148.413016 
L 175.145596 149.599234 
L 177.686194 150.830698 
L 180.226792 152.312805 
L 187.340467 156.760466 
L 189.372945 157.683891 
L 191.405423 158.371281 
L 193.437902 158.795797 
L 196.994739 159.152248 
L 200.043456 159.344524 
L 202.584054 159.225651 
L 204.616533 159.202754 
L 206.140892 159.426291 
L 208.68149 160.127815 
L 211.730207 161.176811 
L 215.287044 162.712813 
L 221.384479 165.686395 
L 224.941316 167.89221 
L 227.990034 169.675705 
L 230.530632 170.946092 
L 234.595589 172.668765 
L 236.628067 173.233342 
L 238.152426 173.437556 
L 239.676785 173.435528 
L 243.233622 173.05741 
L 245.2661 172.686945 
L 247.298579 172.15379 
L 248.822937 171.559003 
L 250.347296 170.692468 
L 251.871655 169.446896 
L 253.904133 167.347676 
L 257.46097 163.28627 
L 261.017808 159.205524 
L 264.574645 155.452156 
L 266.099004 154.118891 
L 267.623362 153.074888 
L 269.147721 152.326349 
L 270.67208 151.892468 
L 272.196439 151.727107 
L 273.720797 151.836866 
L 274.737037 152.098513 
L 276.261395 152.741383 
L 278.293874 153.962341 
L 280.834472 155.800795 
L 283.37507 157.977455 
L 285.915668 160.52152 
L 288.456266 163.318974 
L 290.996864 166.461033 
L 299.126777 176.954244 
L 301.159255 179.113577 
L 303.191734 180.920895 
L 305.732332 182.844881 
L 308.781049 184.819353 
L 310.813528 185.956089 
L 312.846006 186.793587 
L 314.878485 187.367906 
L 318.435322 188.064338 
L 320.4678 188.192184 
L 323.516518 188.059788 
L 327.073355 187.662269 
L 331.138311 187.122749 
L 340.284464 185.979706 
L 342.825062 185.447754 
L 344.349421 184.898562 
L 346.381899 183.931239 
L 348.414378 182.724047 
L 350.446856 181.300093 
L 352.479334 179.624397 
L 354.003693 178.237241 
L 354.003693 178.237241 
" style="fill:none;stroke:#ff7f0e;stroke-linecap:square;stroke-width:2.7;"/>
   </g>
   <g id="line2d_31">
    <path clip-path="url(#p27c99d4ae3)" d="M 49.640057 120.135031 
L 53.705014 119.332473 
L 56.245612 119.141176 
L 61.326807 118.911527 
L 63.359286 119.144611 
L 65.391764 119.613874 
L 67.424243 120.283096 
L 71.489199 121.957795 
L 79.110993 125.22973 
L 81.143472 126.461311 
L 83.17595 127.960307 
L 86.224668 130.599237 
L 90.797744 134.689924 
L 92.830222 136.435761 
L 94.862701 137.893115 
L 100.960136 141.763129 
L 102.992614 142.705324 
L 105.025092 143.330461 
L 108.07381 143.959699 
L 109.598169 144.085925 
L 111.122528 143.976159 
L 113.155006 143.542782 
L 116.711843 142.718802 
L 119.760561 142.085511 
L 121.793039 141.451542 
L 125.857996 140.072805 
L 127.890474 139.680678 
L 129.414833 139.583807 
L 131.447311 139.736237 
L 133.47979 140.093124 
L 136.020388 140.801288 
L 138.052866 141.600842 
L 139.577225 142.462797 
L 141.101584 143.599244 
L 143.134062 145.530572 
L 147.199019 149.490412 
L 152.788334 154.720317 
L 158.885769 161.240073 
L 165.491324 168.532107 
L 168.540042 171.342339 
L 171.08064 173.776961 
L 174.637477 177.550304 
L 176.669955 179.927135 
L 182.259271 186.855261 
L 184.799869 189.400426 
L 189.881065 194.128488 
L 194.454141 198.412659 
L 200.551576 204.341387 
L 202.584054 205.971173 
L 204.616533 207.236702 
L 207.157131 208.503648 
L 209.189609 209.216034 
L 210.713968 209.548128 
L 212.238327 209.684425 
L 214.270805 209.6069 
L 216.303283 209.311499 
L 219.860121 208.523002 
L 221.892599 207.788331 
L 223.416958 207.037855 
L 225.449436 205.765357 
L 227.990034 203.856329 
L 230.022512 201.986309 
L 231.546871 200.32918 
L 233.07123 198.382989 
L 235.103708 195.330687 
L 237.136187 191.83256 
L 239.168665 187.916777 
L 241.201143 183.548856 
L 243.741741 177.457479 
L 255.428492 148.208065 
L 259.493449 138.773636 
L 262.542166 132.154846 
L 265.082764 127.088508 
L 268.131482 121.559067 
L 272.196439 114.72468 
L 274.737037 110.818904 
L 277.277635 107.394265 
L 279.310113 104.988616 
L 280.834472 103.452988 
L 282.358831 102.220874 
L 284.391309 100.965385 
L 290.488744 97.859787 
L 294.045581 96.22656 
L 296.07806 95.675148 
L 298.110538 95.412295 
L 299.634897 95.441749 
L 301.159255 95.680091 
L 308.27293 97.142247 
L 310.305408 97.201153 
L 313.862245 96.957371 
L 318.435322 96.577078 
L 319.95968 96.23891 
L 321.992159 95.566678 
L 326.565235 93.838318 
L 336.219507 91.084413 
L 338.251986 90.311938 
L 340.284464 89.304934 
L 342.316943 88.021901 
L 344.349421 86.478845 
L 347.398138 83.846873 
L 350.446856 80.868077 
L 354.003693 77.214422 
L 354.003693 77.214422 
" style="fill:none;stroke:#2ca02c;stroke-linecap:square;stroke-width:2.7;"/>
   </g>
   <g id="line2d_32">
    <path clip-path="url(#p27c99d4ae3)" d="M 49.640057 124.78733 
L 59.802449 123.97055 
L 67.424243 123.566192 
L 74.029797 123.423804 
L 80.635352 123.502127 
L 87.749026 123.816008 
L 96.387059 124.439696 
L 109.090049 125.617852 
L 132.463551 127.801968 
L 145.67466 128.793389 
L 158.885769 129.564616 
L 173.113118 130.173346 
L 189.372945 130.645212 
L 209.697729 130.999992 
L 236.628067 131.232398 
L 280.326352 131.358214 
L 354.003693 131.390833 
L 354.003693 131.390833 
" style="fill:none;stroke:#000000;stroke-dasharray:17.28,4.32,2.7,4.32;stroke-dashoffset:0;stroke-width:2.7;"/>
   </g>
   <g id="patch_3">
    <path d="M 34.421875 239.95125 
L 34.421875 22.51125 
" style="fill:none;stroke:#808080;stroke-linecap:square;stroke-linejoin:miter;stroke-width:0.5;"/>
   </g>
   <g id="patch_4">
    <path d="M 34.421875 239.95125 
L 369.221875 239.95125 
" style="fill:none;stroke:#808080;stroke-linecap:square;stroke-linejoin:miter;stroke-width:0.5;"/>
   </g>
   <g id="text_17">
    <!-- Samples from Surrogate Posterior -->
    <defs>
     <path d="M 24.703125 6.90625 
Q 39.90625 6.90625 39.90625 17.296875 
Q 39.90625 20.5 38.546875 22.75 
Q 37.203125 25 34.890625 26.640625 
Q 32.59375 28.296875 29.640625 29.5 
Q 26.703125 30.703125 23.40625 31.90625 
Q 19.59375 33.203125 16.1875 34.84375 
Q 12.796875 36.5 10.296875 38.75 
Q 7.796875 41 6.34375 44.09375 
Q 4.90625 47.203125 4.90625 51.59375 
Q 4.90625 60.703125 11.09375 65.796875 
Q 17.296875 70.90625 28.203125 70.90625 
Q 34.5 70.90625 39.640625 69.546875 
Q 44.796875 68.203125 47.203125 66.59375 
L 44.09375 58.703125 
Q 42 60 37.84375 61.25 
Q 33.703125 62.5 28.203125 62.5 
Q 25.40625 62.5 23 61.890625 
Q 20.59375 61.296875 18.796875 60.09375 
Q 17 58.90625 15.953125 57.046875 
Q 14.90625 55.203125 14.90625 52.703125 
Q 14.90625 49.90625 16 48 
Q 17.09375 46.09375 19.09375 44.640625 
Q 21.09375 43.203125 23.75 42 
Q 26.40625 40.796875 29.59375 39.59375 
Q 34.09375 37.796875 37.84375 36 
Q 41.59375 34.203125 44.34375 31.703125 
Q 47.09375 29.203125 48.59375 25.75 
Q 50.09375 22.296875 50.09375 17.40625 
Q 50.09375 8.296875 43.4375 3.390625 
Q 36.796875 -1.5 24.703125 -1.5 
Q 20.59375 -1.5 17.140625 -0.953125 
Q 13.703125 -0.40625 11 0.34375 
Q 8.296875 1.09375 6.34375 1.9375 
Q 4.40625 2.796875 3.296875 3.40625 
L 6.203125 11.40625 
Q 8.5 10.09375 13.203125 8.5 
Q 17.90625 6.90625 24.703125 6.90625 
z
" id="Ubuntu-83"/>
     <path d="M 25.59375 6.703125 
Q 28.90625 6.703125 31.453125 6.84375 
Q 34 7 35.703125 7.40625 
L 35.703125 22.90625 
Q 34.703125 23.40625 32.453125 23.75 
Q 30.203125 24.09375 27 24.09375 
Q 24.90625 24.09375 22.546875 23.796875 
Q 20.203125 23.5 18.25 22.546875 
Q 16.296875 21.59375 15 19.9375 
Q 13.703125 18.296875 13.703125 15.59375 
Q 13.703125 10.59375 16.890625 8.640625 
Q 20.09375 6.703125 25.59375 6.703125 
z
M 24.796875 53.296875 
Q 30.40625 53.296875 34.25 51.84375 
Q 38.09375 50.40625 40.4375 47.75 
Q 42.796875 45.09375 43.796875 41.4375 
Q 44.796875 37.796875 44.796875 33.40625 
L 44.796875 0.90625 
Q 43.59375 0.703125 41.4375 0.34375 
Q 39.296875 0 36.59375 -0.296875 
Q 33.90625 -0.59375 30.75 -0.84375 
Q 27.59375 -1.09375 24.5 -1.09375 
Q 20.09375 -1.09375 16.390625 -0.1875 
Q 12.703125 0.703125 10 2.640625 
Q 7.296875 4.59375 5.796875 7.796875 
Q 4.296875 11 4.296875 15.5 
Q 4.296875 19.796875 6.046875 22.890625 
Q 7.796875 26 10.796875 27.890625 
Q 13.796875 29.796875 17.796875 30.6875 
Q 21.796875 31.59375 26.203125 31.59375 
Q 27.59375 31.59375 29.09375 31.4375 
Q 30.59375 31.296875 31.9375 31.046875 
Q 33.296875 30.796875 34.296875 30.59375 
Q 35.296875 30.40625 35.703125 30.296875 
L 35.703125 32.90625 
Q 35.703125 35.203125 35.203125 37.453125 
Q 34.703125 39.703125 33.390625 41.453125 
Q 32.09375 43.203125 29.84375 44.25 
Q 27.59375 45.296875 24 45.296875 
Q 19.40625 45.296875 15.953125 44.640625 
Q 12.5 44 10.796875 43.296875 
L 9.703125 51 
Q 11.5 51.796875 15.703125 52.546875 
Q 19.90625 53.296875 24.796875 53.296875 
z
" id="Ubuntu-97"/>
     <path d="M 8 50.5 
Q 11.203125 51.296875 16.453125 52.1875 
Q 21.703125 53.09375 28.59375 53.09375 
Q 33.59375 53.09375 37 51.75 
Q 40.40625 50.40625 42.703125 47.796875 
Q 43.40625 48.296875 44.90625 49.1875 
Q 46.40625 50.09375 48.59375 50.9375 
Q 50.796875 51.796875 53.5 52.4375 
Q 56.203125 53.09375 59.296875 53.09375 
Q 65.296875 53.09375 69.09375 51.34375 
Q 72.90625 49.59375 75.046875 46.390625 
Q 77.203125 43.203125 77.953125 38.796875 
Q 78.703125 34.40625 78.703125 29.203125 
L 78.703125 0 
L 69.40625 0 
L 69.40625 27.203125 
Q 69.40625 31.796875 68.953125 35.09375 
Q 68.5 38.40625 67.25 40.59375 
Q 66 42.796875 63.84375 43.84375 
Q 61.703125 44.90625 58.296875 44.90625 
Q 53.59375 44.90625 50.546875 43.65625 
Q 47.5 42.40625 46.40625 41.40625 
Q 47.203125 38.796875 47.59375 35.6875 
Q 48 32.59375 48 29.203125 
L 48 0 
L 38.703125 0 
L 38.703125 27.203125 
Q 38.703125 31.796875 38.203125 35.09375 
Q 37.703125 38.40625 36.453125 40.59375 
Q 35.203125 42.796875 33.046875 43.84375 
Q 30.90625 44.90625 27.59375 44.90625 
Q 26.203125 44.90625 24.59375 44.796875 
Q 23 44.703125 21.546875 44.546875 
Q 20.09375 44.40625 18.890625 44.203125 
Q 17.703125 44 17.296875 43.90625 
L 17.296875 0 
L 8 0 
z
" id="Ubuntu-109"/>
     <path d="M 44.09375 25.90625 
Q 44.09375 35 39.59375 39.890625 
Q 35.09375 44.796875 27.59375 44.796875 
Q 23.40625 44.796875 21.046875 44.5 
Q 18.703125 44.203125 17.296875 43.796875 
L 17.296875 11 
Q 19 9.59375 22.203125 8.296875 
Q 25.40625 7 29.203125 7 
Q 33.203125 7 36.046875 8.453125 
Q 38.90625 9.90625 40.703125 12.453125 
Q 42.5 15 43.296875 18.453125 
Q 44.09375 21.90625 44.09375 25.90625 
z
M 53.796875 25.90625 
Q 53.796875 20 52.25 15 
Q 50.703125 10 47.703125 6.390625 
Q 44.703125 2.796875 40.34375 0.796875 
Q 36 -1.203125 30.40625 -1.203125 
Q 25.90625 -1.203125 22.453125 0 
Q 19 1.203125 17.296875 2.296875 
L 17.296875 -18.5 
L 8 -18.5 
L 8 50.40625 
Q 11.296875 51.203125 16.25 52.140625 
Q 21.203125 53.09375 27.703125 53.09375 
Q 33.703125 53.09375 38.5 51.1875 
Q 43.296875 49.296875 46.6875 45.796875 
Q 50.09375 42.296875 51.9375 37.25 
Q 53.796875 32.203125 53.796875 25.90625 
z
" id="Ubuntu-112"/>
     <path d="M 20.09375 6.703125 
Q 25.796875 6.703125 28.546875 8.203125 
Q 31.296875 9.703125 31.296875 13 
Q 31.296875 16.40625 28.59375 18.40625 
Q 25.90625 20.40625 19.703125 22.90625 
Q 16.703125 24.09375 13.953125 25.34375 
Q 11.203125 26.59375 9.203125 28.296875 
Q 7.203125 30 6 32.390625 
Q 4.796875 34.796875 4.796875 38.296875 
Q 4.796875 45.203125 9.890625 49.25 
Q 15 53.296875 23.796875 53.296875 
Q 26 53.296875 28.203125 53.046875 
Q 30.40625 52.796875 32.296875 52.4375 
Q 34.203125 52.09375 35.640625 51.6875 
Q 37.09375 51.296875 37.90625 51 
L 36.203125 43 
Q 34.703125 43.796875 31.5 44.640625 
Q 28.296875 45.5 23.796875 45.5 
Q 19.90625 45.5 17 43.953125 
Q 14.09375 42.40625 14.09375 39.09375 
Q 14.09375 37.40625 14.75 36.09375 
Q 15.40625 34.796875 16.75 33.75 
Q 18.09375 32.703125 20.09375 31.796875 
Q 22.09375 30.90625 24.90625 29.90625 
Q 28.59375 28.5 31.5 27.140625 
Q 34.40625 25.796875 36.453125 24 
Q 38.5 22.203125 39.59375 19.640625 
Q 40.703125 17.09375 40.703125 13.40625 
Q 40.703125 6.203125 35.34375 2.5 
Q 30 -1.203125 20.09375 -1.203125 
Q 13.203125 -1.203125 9.296875 -0.046875 
Q 5.40625 1.09375 4 1.703125 
L 5.703125 9.703125 
Q 7.296875 9.09375 10.796875 7.890625 
Q 14.296875 6.703125 20.09375 6.703125 
z
" id="Ubuntu-115"/>
     <path d="M 28.296875 77.59375 
Q 32.40625 77.59375 35.34375 77 
Q 38.296875 76.40625 39.5 75.90625 
L 37.796875 67.90625 
Q 36.59375 68.5 34.390625 69.046875 
Q 32.203125 69.59375 29 69.59375 
Q 22.5 69.59375 19.890625 66.046875 
Q 17.296875 62.5 17.296875 56.5 
L 17.296875 52 
L 37.296875 52 
L 37.296875 44.203125 
L 17.296875 44.203125 
L 17.296875 0 
L 8 0 
L 8 56.703125 
Q 8 66.703125 12.890625 72.140625 
Q 17.796875 77.59375 28.296875 77.59375 
z
" id="Ubuntu-102"/>
     <path d="M 27.203125 53.09375 
Q 28.40625 53.09375 29.953125 52.9375 
Q 31.5 52.796875 33 52.546875 
Q 34.5 52.296875 35.75 52.046875 
Q 37 51.796875 37.59375 51.59375 
L 36 43.5 
Q 34.90625 43.90625 32.34375 44.453125 
Q 29.796875 45 25.796875 45 
Q 23.203125 45 20.640625 44.453125 
Q 18.09375 43.90625 17.296875 43.703125 
L 17.296875 0 
L 8 0 
L 8 49.796875 
Q 11.296875 51 16.1875 52.046875 
Q 21.09375 53.09375 27.203125 53.09375 
z
" id="Ubuntu-114"/>
     <path d="M 49.40625 1.5 
Q 46.203125 0.703125 40.953125 -0.1875 
Q 35.703125 -1.09375 28.796875 -1.09375 
Q 22.796875 -1.09375 18.6875 0.65625 
Q 14.59375 2.40625 12.09375 5.59375 
Q 9.59375 8.796875 8.5 13.140625 
Q 7.40625 17.5 7.40625 22.796875 
L 7.40625 52 
L 16.703125 52 
L 16.703125 24.796875 
Q 16.703125 15.296875 19.703125 11.1875 
Q 22.703125 7.09375 29.796875 7.09375 
Q 31.296875 7.09375 32.890625 7.1875 
Q 34.5 7.296875 35.890625 7.4375 
Q 37.296875 7.59375 38.4375 7.75 
Q 39.59375 7.90625 40.09375 8.09375 
L 40.09375 52 
L 49.40625 52 
z
" id="Ubuntu-117"/>
     <path d="M 40.59375 5.203125 
Q 39.40625 4.40625 35.953125 3.15625 
Q 32.5 1.90625 27.90625 1.90625 
Q 23.203125 1.90625 19.046875 3.40625 
Q 14.90625 4.90625 11.796875 8.046875 
Q 8.703125 11.203125 6.890625 15.890625 
Q 5.09375 20.59375 5.09375 27.09375 
Q 5.09375 32.796875 6.796875 37.546875 
Q 8.5 42.296875 11.75 45.75 
Q 15 49.203125 19.703125 51.140625 
Q 24.40625 53.09375 30.296875 53.09375 
Q 36.796875 53.09375 41.640625 52.140625 
Q 46.5 51.203125 49.796875 50.40625 
L 49.796875 4 
Q 49.796875 -8 43.59375 -13.390625 
Q 37.40625 -18.796875 24.796875 -18.796875 
Q 19.90625 -18.796875 15.546875 -18 
Q 11.203125 -17.203125 8 -16.09375 
L 9.703125 -8 
Q 12.5 -9.09375 16.546875 -9.9375 
Q 20.59375 -10.796875 25 -10.796875 
Q 33.296875 -10.796875 36.9375 -7.5 
Q 40.59375 -4.203125 40.59375 3 
z
M 40.5 43.796875 
Q 39.09375 44.203125 36.75 44.546875 
Q 34.40625 44.90625 30.40625 44.90625 
Q 22.90625 44.90625 18.84375 40 
Q 14.796875 35.09375 14.796875 27 
Q 14.796875 22.5 15.9375 19.296875 
Q 17.09375 16.09375 19.046875 14 
Q 21 11.90625 23.546875 10.90625 
Q 26.09375 9.90625 28.796875 9.90625 
Q 32.5 9.90625 35.59375 10.953125 
Q 38.703125 12 40.5 13.40625 
z
" id="Ubuntu-103"/>
     <path d="M 27 70 
Q 41.59375 70 49.4375 64.453125 
Q 57.296875 58.90625 57.296875 47.90625 
Q 57.296875 41.90625 55.140625 37.65625 
Q 53 33.40625 48.953125 30.75 
Q 44.90625 28.09375 39.09375 26.890625 
Q 33.296875 25.703125 26 25.703125 
L 18.296875 25.703125 
L 18.296875 0 
L 8.59375 0 
L 8.59375 68.296875 
Q 12.703125 69.296875 17.75 69.640625 
Q 22.796875 70 27 70 
z
M 27.796875 61.5 
Q 21.59375 61.5 18.296875 61.203125 
L 18.296875 34 
L 25.59375 34 
Q 30.59375 34 34.59375 34.640625 
Q 38.59375 35.296875 41.34375 36.84375 
Q 44.09375 38.40625 45.59375 41.09375 
Q 47.09375 43.796875 47.09375 48 
Q 47.09375 52 45.546875 54.59375 
Q 44 57.203125 41.34375 58.75 
Q 38.703125 60.296875 35.203125 60.890625 
Q 31.703125 61.5 27.796875 61.5 
z
" id="Ubuntu-80"/>
     <path d="M 17.296875 0 
L 8 0 
L 8 52 
L 17.296875 52 
z
M 12.59375 61.40625 
Q 10.09375 61.40625 8.34375 63.046875 
Q 6.59375 64.703125 6.59375 67.5 
Q 6.59375 70.296875 8.34375 71.9375 
Q 10.09375 73.59375 12.59375 73.59375 
Q 15.09375 73.59375 16.84375 71.9375 
Q 18.59375 70.296875 18.59375 67.5 
Q 18.59375 64.703125 16.84375 63.046875 
Q 15.09375 61.40625 12.59375 61.40625 
z
" id="Ubuntu-105"/>
    </defs>
    <g transform="translate(109.14625 16.51125)scale(0.12 -0.12)">
     <use xlink:href="#Ubuntu-83"/>
     <use x="53.199997" xlink:href="#Ubuntu-97"/>
     <use x="105.399994" xlink:href="#Ubuntu-109"/>
     <use x="191.499985" xlink:href="#Ubuntu-112"/>
     <use x="250.399979" xlink:href="#Ubuntu-108"/>
     <use x="277.699966" xlink:href="#Ubuntu-101"/>
     <use x="333.59996" xlink:href="#Ubuntu-115"/>
     <use x="378.199951" xlink:href="#Ubuntu-32"/>
     <use x="401.299942" xlink:href="#Ubuntu-102"/>
     <use x="439.899933" xlink:href="#Ubuntu-114"/>
     <use x="478.499924" xlink:href="#Ubuntu-111"/>
     <use x="537.499908" xlink:href="#Ubuntu-109"/>
     <use x="623.599899" xlink:href="#Ubuntu-32"/>
     <use x="646.69989" xlink:href="#Ubuntu-83"/>
     <use x="699.899887" xlink:href="#Ubuntu-117"/>
     <use x="757.299881" xlink:href="#Ubuntu-114"/>
     <use x="795.899872" xlink:href="#Ubuntu-114"/>
     <use x="834.499863" xlink:href="#Ubuntu-111"/>
     <use x="893.499847" xlink:href="#Ubuntu-103"/>
     <use x="951.299835" xlink:href="#Ubuntu-97"/>
     <use x="1003.499832" xlink:href="#Ubuntu-116"/>
     <use x="1043.684204" xlink:href="#Ubuntu-101"/>
     <use x="1099.584198" xlink:href="#Ubuntu-32"/>
     <use x="1122.684189" xlink:href="#Ubuntu-80"/>
     <use x="1183.452927" xlink:href="#Ubuntu-111"/>
     <use x="1242.452911" xlink:href="#Ubuntu-115"/>
     <use x="1287.052902" xlink:href="#Ubuntu-116"/>
     <use x="1327.237274" xlink:href="#Ubuntu-101"/>
     <use x="1383.137268" xlink:href="#Ubuntu-114"/>
     <use x="1421.737259" xlink:href="#Ubuntu-105"/>
     <use x="1447.037247" xlink:href="#Ubuntu-111"/>
     <use x="1506.037231" xlink:href="#Ubuntu-114"/>
    </g>
   </g>
   <g id="legend_1">
    <g id="patch_5">
     <path d="M 389.613875 118.447187 
L 491.377938 118.447187 
Q 493.377938 118.447187 493.377938 116.447187 
L 493.377938 29.51125 
Q 493.377938 27.51125 491.377938 27.51125 
L 389.613875 27.51125 
Q 387.613875 27.51125 387.613875 29.51125 
L 387.613875 116.447187 
Q 387.613875 118.447187 389.613875 118.447187 
z
" style="fill:#ffffff;opacity:0.8;stroke:#cccccc;stroke-linejoin:miter;stroke-width:0.24;"/>
    </g>
    <g id="line2d_33">
     <path d="M 391.613875 35.770625 
L 411.613875 35.770625 
" style="fill:none;stroke:#1f77b4;stroke-linecap:square;stroke-width:2.7;"/>
    </g>
    <g id="line2d_34"/>
    <g id="text_18">
     <!-- Sample 1 -->
     <g transform="translate(419.613875 39.270625)scale(0.1 -0.1)">
      <use xlink:href="#Ubuntu-83"/>
      <use x="53.199997" xlink:href="#Ubuntu-97"/>
      <use x="105.399994" xlink:href="#Ubuntu-109"/>
      <use x="191.499985" xlink:href="#Ubuntu-112"/>
      <use x="250.399979" xlink:href="#Ubuntu-108"/>
      <use x="277.699966" xlink:href="#Ubuntu-101"/>
      <use x="333.59996" xlink:href="#Ubuntu-32"/>
      <use x="356.699951" xlink:href="#Ubuntu-49"/>
     </g>
    </g>
    <g id="line2d_35">
     <path d="M 391.613875 50.38 
L 411.613875 50.38 
" style="fill:none;stroke:#ff7f0e;stroke-linecap:square;stroke-width:2.7;"/>
    </g>
    <g id="line2d_36"/>
    <g id="text_19">
     <!-- Sample 2 -->
     <g transform="translate(419.613875 53.88)scale(0.1 -0.1)">
      <use xlink:href="#Ubuntu-83"/>
      <use x="53.199997" xlink:href="#Ubuntu-97"/>
      <use x="105.399994" xlink:href="#Ubuntu-109"/>
      <use x="191.499985" xlink:href="#Ubuntu-112"/>
      <use x="250.399979" xlink:href="#Ubuntu-108"/>
      <use x="277.699966" xlink:href="#Ubuntu-101"/>
      <use x="333.59996" xlink:href="#Ubuntu-32"/>
      <use x="356.699951" xlink:href="#Ubuntu-50"/>
     </g>
    </g>
    <g id="line2d_37">
     <path d="M 391.613875 64.989375 
L 411.613875 64.989375 
" style="fill:none;stroke:#2ca02c;stroke-linecap:square;stroke-width:2.7;"/>
    </g>
    <g id="line2d_38"/>
    <g id="text_20">
     <!-- Sample 3 -->
     <g transform="translate(419.613875 68.489375)scale(0.1 -0.1)">
      <use xlink:href="#Ubuntu-83"/>
      <use x="53.199997" xlink:href="#Ubuntu-97"/>
      <use x="105.399994" xlink:href="#Ubuntu-109"/>
      <use x="191.499985" xlink:href="#Ubuntu-112"/>
      <use x="250.399979" xlink:href="#Ubuntu-108"/>
      <use x="277.699966" xlink:href="#Ubuntu-101"/>
      <use x="333.59996" xlink:href="#Ubuntu-32"/>
      <use x="356.699951" xlink:href="#Ubuntu-51"/>
     </g>
    </g>
    <g id="line2d_39">
     <path d="M 391.613875 79.59875 
L 411.613875 79.59875 
" style="fill:none;stroke:#000000;stroke-dasharray:17.28,4.32,2.7,4.32;stroke-dashoffset:0;stroke-width:2.7;"/>
    </g>
    <g id="line2d_40"/>
    <g id="text_21">
     <!-- Posterior Mean -->
     <defs>
      <path d="M 39.703125 9.59375 
Q 38.703125 12 37.046875 15.703125 
Q 35.40625 19.40625 33.5 23.703125 
Q 31.59375 28 29.4375 32.546875 
Q 27.296875 37.09375 25.390625 41.140625 
Q 23.5 45.203125 21.84375 48.390625 
Q 20.203125 51.59375 19.203125 53.296875 
Q 18.09375 41.5 17.390625 27.75 
Q 16.703125 14 16.203125 0 
L 6.703125 0 
Q 7.09375 9 7.59375 18.140625 
Q 8.09375 27.296875 8.75 36.140625 
Q 9.40625 45 10.15625 53.390625 
Q 10.90625 61.796875 11.796875 69.296875 
L 20.296875 69.296875 
Q 23 64.90625 26.09375 58.90625 
Q 29.203125 52.90625 32.296875 46.34375 
Q 35.40625 39.796875 38.296875 33.25 
Q 41.203125 26.703125 43.59375 21.296875 
Q 46 26.703125 48.890625 33.25 
Q 51.796875 39.796875 54.890625 46.34375 
Q 58 52.90625 61.09375 58.90625 
Q 64.203125 64.90625 66.90625 69.296875 
L 75.40625 69.296875 
Q 78.796875 35.796875 80.5 0 
L 71 0 
Q 70.5 14 69.796875 27.75 
Q 69.09375 41.5 68 53.296875 
Q 67 51.59375 65.34375 48.390625 
Q 63.703125 45.203125 61.796875 41.140625 
Q 59.90625 37.09375 57.75 32.546875 
Q 55.59375 28 53.6875 23.703125 
Q 51.796875 19.40625 50.140625 15.703125 
Q 48.5 12 47.5 9.59375 
z
" id="Ubuntu-77"/>
     </defs>
     <g transform="translate(419.613875 83.09875)scale(0.1 -0.1)">
      <use xlink:href="#Ubuntu-80"/>
      <use x="60.768738" xlink:href="#Ubuntu-111"/>
      <use x="119.768723" xlink:href="#Ubuntu-115"/>
      <use x="164.368713" xlink:href="#Ubuntu-116"/>
      <use x="204.553085" xlink:href="#Ubuntu-101"/>
      <use x="260.453079" xlink:href="#Ubuntu-114"/>
      <use x="299.05307" xlink:href="#Ubuntu-105"/>
      <use x="324.353058" xlink:href="#Ubuntu-111"/>
      <use x="383.353043" xlink:href="#Ubuntu-114"/>
      <use x="421.953033" xlink:href="#Ubuntu-32"/>
      <use x="445.053024" xlink:href="#Ubuntu-77"/>
      <use x="532.153015" xlink:href="#Ubuntu-101"/>
      <use x="588.053009" xlink:href="#Ubuntu-97"/>
      <use x="640.253006" xlink:href="#Ubuntu-110"/>
     </g>
    </g>
    <g id="patch_6">
     <path d="M 391.613875 97.708125 
L 411.613875 97.708125 
L 411.613875 90.708125 
L 391.613875 90.708125 
z
" style="fill:#808080;opacity:0.15;stroke:#808080;stroke-dasharray:0.21312,0.09216;stroke-dashoffset:0;stroke-linejoin:miter;stroke-width:0.24;"/>
    </g>
    <g id="text_22">
     <!-- $\mu \pm \sigma$ -->
     <defs>
      <path d="M -1.3125 -20.796875 
L 13.375 54.6875 
L 22.40625 54.6875 
L 15.765625 20.65625 
Q 15.578125 19.625 15.421875 18.359375 
Q 15.28125 17.09375 15.28125 15.828125 
Q 15.28125 11.28125 18.140625 8.828125 
Q 21 6.390625 26.3125 6.390625 
Q 33.546875 6.390625 37.984375 10.484375 
Q 42.4375 14.59375 44 22.796875 
L 50.203125 54.6875 
L 59.1875 54.6875 
L 51.03125 12.640625 
Q 50.828125 11.71875 50.75 11.03125 
Q 50.6875 10.359375 50.6875 9.8125 
Q 50.6875 8.296875 51.296875 7.59375 
Q 51.90625 6.890625 53.21875 6.890625 
Q 53.71875 6.890625 54.5625 7.125 
Q 55.421875 7.375 56.984375 8.015625 
L 55.609375 0.78125 
Q 53.46875 -0.296875 51.515625 -0.859375 
Q 49.5625 -1.421875 47.703125 -1.421875 
Q 44.484375 -1.421875 42.65625 0.625 
Q 40.828125 2.6875 40.828125 6.296875 
Q 38.09375 2.390625 34.296875 0.484375 
Q 30.515625 -1.421875 25.390625 -1.421875 
Q 20.84375 -1.421875 17.453125 0.671875 
Q 14.0625 2.78125 12.984375 6.203125 
L 7.71875 -20.796875 
z
" id="DejaVuSans-Oblique-956"/>
      <path d="M 46 62.703125 
L 46 43.796875 
L 73.1875 43.796875 
L 73.1875 35.5 
L 46 35.5 
L 46 16.609375 
L 37.796875 16.609375 
L 37.796875 35.5 
L 10.59375 35.5 
L 10.59375 43.796875 
L 37.796875 43.796875 
L 37.796875 62.703125 
z
M 10.59375 8.296875 
L 73.1875 8.296875 
L 73.1875 0 
L 10.59375 0 
z
" id="DejaVuSans-177"/>
      <path d="M 34.671875 47.5625 
Q 27.25 47.5625 22.21875 42.1875 
Q 16.890625 36.578125 15.140625 27.296875 
Q 13.1875 17.484375 16.3125 11.8125 
Q 19.390625 6.203125 26.65625 6.203125 
Q 33.84375 6.203125 39.109375 11.859375 
Q 44.4375 17.53125 46.34375 27.296875 
Q 48.046875 36.234375 45.015625 42.1875 
Q 42.1875 47.5625 34.671875 47.5625 
z
M 36.078125 54.734375 
L 65.921875 54.6875 
L 64.15625 45.703125 
L 54.109375 45.703125 
Q 57.90625 38.09375 55.859375 27.296875 
Q 53.21875 13.875 45.0625 6.25 
Q 36.859375 -1.421875 25.140625 -1.421875 
Q 13.375 -1.421875 8.203125 6.25 
Q 3.03125 13.875 5.671875 27.296875 
Q 8.25 40.765625 16.40625 48.390625 
Q 23.1875 54.734375 36.078125 54.734375 
z
" id="DejaVuSans-Oblique-963"/>
     </defs>
     <g transform="translate(419.613875 97.708125)scale(0.1 -0.1)">
      <use transform="translate(0 0.296875)" xlink:href="#DejaVuSans-Oblique-956"/>
      <use transform="translate(83.105469 0.296875)" xlink:href="#DejaVuSans-177"/>
      <use transform="translate(186.376953 0.296875)" xlink:href="#DejaVuSans-Oblique-963"/>
     </g>
    </g>
    <g id="PathCollection_1">
     <defs>
      <path d="M 0 7.071068 
C 1.875269 7.071068 3.673985 6.326016 5 5 
C 6.326016 3.673985 7.071068 1.875269 7.071068 0 
C 7.071068 -1.875269 6.326016 -3.673985 5 -5 
C 3.673985 -6.326016 1.875269 -7.071068 0 -7.071068 
C -1.875269 -7.071068 -3.673985 -6.326016 -5 -5 
C -6.326016 -3.673985 -7.071068 -1.875269 -7.071068 0 
C -7.071068 1.875269 -6.326016 3.673985 -5 5 
C -3.673985 6.326016 -1.875269 7.071068 0 7.071068 
z
" id="md67d762dd9" style="stroke:#000000;stroke-width:0.24;"/>
     </defs>
     <g>
      <use style="stroke:#000000;stroke-width:0.24;" x="401.613875" xlink:href="#md67d762dd9" y="109.9425"/>
     </g>
    </g>
    <g id="text_23">
     <!-- Training Point -->
     <defs>
      <path d="M 54.90625 69.296875 
L 54.90625 60.90625 
L 33.09375 60.90625 
L 33.09375 0 
L 23.40625 0 
L 23.40625 60.90625 
L 1.59375 60.90625 
L 1.59375 69.296875 
z
" id="Ubuntu-84"/>
     </defs>
     <g transform="translate(419.613875 112.5675)scale(0.1 -0.1)">
      <use xlink:href="#Ubuntu-84"/>
      <use x="56.437485" xlink:href="#Ubuntu-114"/>
      <use x="95.037476" xlink:href="#Ubuntu-97"/>
      <use x="147.237473" xlink:href="#Ubuntu-105"/>
      <use x="172.53746" xlink:href="#Ubuntu-110"/>
      <use x="229.937454" xlink:href="#Ubuntu-105"/>
      <use x="255.237442" xlink:href="#Ubuntu-110"/>
      <use x="312.637436" xlink:href="#Ubuntu-103"/>
      <use x="370.437424" xlink:href="#Ubuntu-32"/>
      <use x="393.537415" xlink:href="#Ubuntu-80"/>
      <use x="454.306152" xlink:href="#Ubuntu-111"/>
      <use x="513.306137" xlink:href="#Ubuntu-105"/>
      <use x="538.606125" xlink:href="#Ubuntu-110"/>
      <use x="596.006119" xlink:href="#Ubuntu-116"/>
     </g>
    </g>
   </g>
   <g id="PathCollection_2">
    <g clip-path="url(#p27c99d4ae3)">
     <use style="stroke:#000000;stroke-width:0.24;" x="75.003693" xlink:href="#md67d762dd9" y="123.421356"/>
    </g>
   </g>
  </g>
 </g>
 <defs>
  <clipPath id="p27c99d4ae3">
   <rect height="217.44" width="334.8" x="34.421875" y="22.51125"/>
  </clipPath>
 </defs>
</svg>
