<?xml version="1.0" encoding="utf-8" standalone="no"?>
<!DOCTYPE svg PUBLIC "-//W3C//DTD SVG 1.1//EN"
  "http://www.w3.org/Graphics/SVG/1.1/DTD/svg11.dtd">
<!-- Created with matplotlib (https://matplotlib.org/) -->
<svg height="277.548125pt" version="1.1" viewBox="0 0 523.077937 277.548125" width="523.077937pt" xmlns="http://www.w3.org/2000/svg" xmlns:xlink="http://www.w3.org/1999/xlink">
 <defs>
  <style type="text/css">
*{stroke-linecap:butt;stroke-linejoin:round;}
  </style>
 </defs>
 <g id="figure_1">
  <g id="patch_1">
   <path d="M 0 277.548125 
L 523.077937 277.548125 
L 523.077937 0 
L 0 0 
z
" style="fill:#ffffff;"/>
  </g>
  <g id="axes_1">
   <g id="patch_2">
    <path d="M 34.421875 239.95125 
L 369.221875 239.95125 
L 369.221875 22.51125 
L 34.421875 22.51125 
z
" style="fill:#ffffff;"/>
   </g>
   <g id="matplotlib.axis_1">
    <g id="xtick_1">
     <g id="line2d_1">
      <path clip-path="url(#p44e8a4a5ec)" d="M 49.640057 239.95125 
L 49.640057 22.51125 
" style="fill:none;stroke:#b0b0b0;stroke-linecap:square;stroke-opacity:0.25;stroke-width:0.8;"/>
     </g>
     <g id="line2d_2">
      <defs>
       <path d="M 0 0 
L 0 3.5 
" id="mf484d39333" style="stroke:#808080;stroke-width:0.8;"/>
      </defs>
      <g>
       <use style="fill:#808080;stroke:#808080;stroke-width:0.8;" x="49.640057" xlink:href="#mf484d39333" y="239.95125"/>
      </g>
     </g>
     <g id="text_1">
      <!-- 0 -->
      <defs>
       <path d="M 5 34.703125 
Q 5 52.09375 11.140625 61.5 
Q 17.296875 70.90625 28.203125 70.90625 
Q 39.09375 70.90625 45.25 61.5 
Q 51.40625 52.09375 51.40625 34.703125 
Q 51.40625 17.296875 45.25 7.890625 
Q 39.09375 -1.5 28.203125 -1.5 
Q 17.296875 -1.5 11.140625 7.890625 
Q 5 17.296875 5 34.703125 
z
M 41.59375 34.703125 
Q 41.59375 40.40625 40.9375 45.5 
Q 40.296875 50.59375 38.75 54.390625 
Q 37.203125 58.203125 34.59375 60.453125 
Q 32 62.703125 28.203125 62.703125 
Q 24.40625 62.703125 21.796875 60.453125 
Q 19.203125 58.203125 17.640625 54.390625 
Q 16.09375 50.59375 15.4375 45.5 
Q 14.796875 40.40625 14.796875 34.703125 
Q 14.796875 29 15.4375 23.890625 
Q 16.09375 18.796875 17.640625 15 
Q 19.203125 11.203125 21.796875 8.953125 
Q 24.40625 6.703125 28.203125 6.703125 
Q 32 6.703125 34.59375 8.953125 
Q 37.203125 11.203125 38.75 15 
Q 40.296875 18.796875 40.9375 23.890625 
Q 41.59375 29 41.59375 34.703125 
z
" id="Ubuntu-48"/>
      </defs>
      <g transform="translate(47.383807 255.25875)scale(0.08 -0.08)">
       <use xlink:href="#Ubuntu-48"/>
      </g>
     </g>
    </g>
    <g id="xtick_2">
     <g id="line2d_3">
      <path clip-path="url(#p44e8a4a5ec)" d="M 100.36733 239.95125 
L 100.36733 22.51125 
" style="fill:none;stroke:#b0b0b0;stroke-linecap:square;stroke-opacity:0.25;stroke-width:0.8;"/>
     </g>
     <g id="line2d_4">
      <g>
       <use style="fill:#808080;stroke:#808080;stroke-width:0.8;" x="100.36733" xlink:href="#mf484d39333" y="239.95125"/>
      </g>
     </g>
     <g id="text_2">
      <!-- 1 -->
      <defs>
       <path d="M 9.296875 55 
Q 15 57.203125 20.390625 60.640625 
Q 25.796875 64.09375 30.296875 69.296875 
L 36.90625 69.296875 
L 36.90625 0 
L 27.59375 0 
L 27.59375 56.40625 
Q 26.40625 55.296875 24.65625 54.09375 
Q 22.90625 52.90625 20.84375 51.796875 
Q 18.796875 50.703125 16.546875 49.703125 
Q 14.296875 48.703125 12.203125 48 
z
" id="Ubuntu-49"/>
      </defs>
      <g transform="translate(98.11108 255.25875)scale(0.08 -0.08)">
       <use xlink:href="#Ubuntu-49"/>
      </g>
     </g>
    </g>
    <g id="xtick_3">
     <g id="line2d_5">
      <path clip-path="url(#p44e8a4a5ec)" d="M 151.094602 239.95125 
L 151.094602 22.51125 
" style="fill:none;stroke:#b0b0b0;stroke-linecap:square;stroke-opacity:0.25;stroke-width:0.8;"/>
     </g>
     <g id="line2d_6">
      <g>
       <use style="fill:#808080;stroke:#808080;stroke-width:0.8;" x="151.094602" xlink:href="#mf484d39333" y="239.95125"/>
      </g>
     </g>
     <g id="text_3">
      <!-- 2 -->
      <defs>
       <path d="M 46.703125 51.59375 
Q 46.703125 48 45.25 44.640625 
Q 43.796875 41.296875 41.390625 38.046875 
Q 39 34.796875 36 31.640625 
Q 33 28.5 30 25.5 
Q 28.296875 23.796875 26.046875 21.5 
Q 23.796875 19.203125 21.796875 16.703125 
Q 19.796875 14.203125 18.4375 11.890625 
Q 17.09375 9.59375 17.09375 7.90625 
L 49 7.90625 
L 49 0 
L 7 0 
Q 6.90625 0.59375 6.90625 1.1875 
Q 6.90625 1.796875 6.90625 2.296875 
Q 6.90625 7 8.453125 11.046875 
Q 10 15.09375 12.5 18.6875 
Q 15 22.296875 18.09375 25.5 
Q 21.203125 28.703125 24.203125 31.703125 
Q 26.703125 34.09375 28.953125 36.4375 
Q 31.203125 38.796875 32.953125 41.140625 
Q 34.703125 43.5 35.75 46 
Q 36.796875 48.5 36.796875 51.296875 
Q 36.796875 54.296875 35.84375 56.390625 
Q 34.90625 58.5 33.296875 59.890625 
Q 31.703125 61.296875 29.546875 61.9375 
Q 27.40625 62.59375 25 62.59375 
Q 22.09375 62.59375 19.6875 61.796875 
Q 17.296875 61 15.390625 59.953125 
Q 13.5 58.90625 12.203125 57.75 
Q 10.90625 56.59375 10.203125 56 
L 5.59375 62.59375 
Q 6.5 63.59375 8.296875 65.046875 
Q 10.09375 66.5 12.59375 67.796875 
Q 15.09375 69.09375 18.1875 70 
Q 21.296875 70.90625 24.90625 70.90625 
Q 35.796875 70.90625 41.25 65.84375 
Q 46.703125 60.796875 46.703125 51.59375 
z
" id="Ubuntu-50"/>
      </defs>
      <g transform="translate(148.838352 255.25875)scale(0.08 -0.08)">
       <use xlink:href="#Ubuntu-50"/>
      </g>
     </g>
    </g>
    <g id="xtick_4">
     <g id="line2d_7">
      <path clip-path="url(#p44e8a4a5ec)" d="M 201.821875 239.95125 
L 201.821875 22.51125 
" style="fill:none;stroke:#b0b0b0;stroke-linecap:square;stroke-opacity:0.25;stroke-width:0.8;"/>
     </g>
     <g id="line2d_8">
      <g>
       <use style="fill:#808080;stroke:#808080;stroke-width:0.8;" x="201.821875" xlink:href="#mf484d39333" y="239.95125"/>
      </g>
     </g>
     <g id="text_4">
      <!-- 3 -->
      <defs>
       <path d="M 22.59375 6.796875 
Q 31.5 6.796875 35.34375 10.296875 
Q 39.203125 13.796875 39.203125 19.703125 
Q 39.203125 23.5 37.59375 26.09375 
Q 36 28.703125 33.390625 30.25 
Q 30.796875 31.796875 27.34375 32.4375 
Q 23.90625 33.09375 20.296875 33.09375 
L 17.90625 33.09375 
L 17.90625 40.703125 
L 21.203125 40.703125 
Q 23.703125 40.703125 26.34375 41.203125 
Q 29 41.703125 31.203125 43 
Q 33.40625 44.296875 34.796875 46.546875 
Q 36.203125 48.796875 36.203125 52.203125 
Q 36.203125 55 35.203125 57 
Q 34.203125 59 32.546875 60.296875 
Q 30.90625 61.59375 28.75 62.140625 
Q 26.59375 62.703125 24.203125 62.703125 
Q 19.40625 62.703125 16.046875 61.296875 
Q 12.703125 59.90625 10.40625 58.40625 
L 6.796875 65.5 
Q 8 66.296875 9.84375 67.25 
Q 11.703125 68.203125 14 69 
Q 16.296875 69.796875 18.9375 70.34375 
Q 21.59375 70.90625 24.5 70.90625 
Q 30 70.90625 34 69.546875 
Q 38 68.203125 40.59375 65.75 
Q 43.203125 63.296875 44.5 59.9375 
Q 45.796875 56.59375 45.796875 52.703125 
Q 45.796875 47.296875 42.6875 43.4375 
Q 39.59375 39.59375 35.203125 37.59375 
Q 37.90625 36.796875 40.40625 35.296875 
Q 42.90625 33.796875 44.75 31.5 
Q 46.59375 29.203125 47.75 26.203125 
Q 48.90625 23.203125 48.90625 19.5 
Q 48.90625 15 47.34375 11.140625 
Q 45.796875 7.296875 42.546875 4.5 
Q 39.296875 1.703125 34.390625 0.09375 
Q 29.5 -1.5 22.796875 -1.5 
Q 20.203125 -1.5 17.453125 -1.09375 
Q 14.703125 -0.703125 12.296875 -0.09375 
Q 9.90625 0.5 8.09375 1.09375 
Q 6.296875 1.703125 5.5 2.09375 
L 7.296875 10.203125 
Q 9 9.40625 12.953125 8.09375 
Q 16.90625 6.796875 22.59375 6.796875 
z
" id="Ubuntu-51"/>
      </defs>
      <g transform="translate(199.565625 255.25875)scale(0.08 -0.08)">
       <use xlink:href="#Ubuntu-51"/>
      </g>
     </g>
    </g>
    <g id="xtick_5">
     <g id="line2d_9">
      <path clip-path="url(#p44e8a4a5ec)" d="M 252.549148 239.95125 
L 252.549148 22.51125 
" style="fill:none;stroke:#b0b0b0;stroke-linecap:square;stroke-opacity:0.25;stroke-width:0.8;"/>
     </g>
     <g id="line2d_10">
      <g>
       <use style="fill:#808080;stroke:#808080;stroke-width:0.8;" x="252.549148" xlink:href="#mf484d39333" y="239.95125"/>
      </g>
     </g>
     <g id="text_5">
      <!-- 4 -->
      <defs>
       <path d="M 4 24 
Q 5.90625 28.40625 9.203125 34.25 
Q 12.5 40.09375 16.640625 46.296875 
Q 20.796875 52.5 25.546875 58.5 
Q 30.296875 64.5 35.09375 69.296875 
L 44 69.296875 
L 44 25.296875 
L 52.203125 25.296875 
L 52.203125 17.703125 
L 44 17.703125 
L 44 0 
L 35 0 
L 35 17.703125 
L 4 17.703125 
z
M 35 58.296875 
Q 32 55.09375 28.953125 51.140625 
Q 25.90625 47.203125 23 42.890625 
Q 20.09375 38.59375 17.546875 34.09375 
Q 15 29.59375 13 25.296875 
L 35 25.296875 
z
" id="Ubuntu-52"/>
      </defs>
      <g transform="translate(250.292898 255.25875)scale(0.08 -0.08)">
       <use xlink:href="#Ubuntu-52"/>
      </g>
     </g>
    </g>
    <g id="xtick_6">
     <g id="line2d_11">
      <path clip-path="url(#p44e8a4a5ec)" d="M 303.27642 239.95125 
L 303.27642 22.51125 
" style="fill:none;stroke:#b0b0b0;stroke-linecap:square;stroke-opacity:0.25;stroke-width:0.8;"/>
     </g>
     <g id="line2d_12">
      <g>
       <use style="fill:#808080;stroke:#808080;stroke-width:0.8;" x="303.27642" xlink:href="#mf484d39333" y="239.95125"/>
      </g>
     </g>
     <g id="text_6">
      <!-- 5 -->
      <defs>
       <path d="M 19.90625 42.59375 
Q 35 42 42.046875 36 
Q 49.09375 30 49.09375 19.703125 
Q 49.09375 15.09375 47.546875 11.1875 
Q 46 7.296875 42.84375 4.5 
Q 39.703125 1.703125 34.890625 0.09375 
Q 30.09375 -1.5 23.5 -1.5 
Q 20.90625 -1.5 18.203125 -1.09375 
Q 15.5 -0.703125 13.203125 -0.09375 
Q 10.90625 0.5 9.09375 1.09375 
Q 7.296875 1.703125 6.5 2.09375 
L 8.296875 10.203125 
Q 10 9.40625 13.84375 8.09375 
Q 17.703125 6.796875 23.296875 6.796875 
Q 27.796875 6.796875 30.84375 7.796875 
Q 33.90625 8.796875 35.796875 10.5 
Q 37.703125 12.203125 38.546875 14.453125 
Q 39.40625 16.703125 39.40625 19.203125 
Q 39.40625 23 38.09375 25.953125 
Q 36.796875 28.90625 33.5 30.90625 
Q 30.203125 32.90625 24.703125 33.953125 
Q 19.203125 35 10.796875 35 
Q 11.40625 39.90625 11.75 44.203125 
Q 12.09375 48.5 12.390625 52.59375 
Q 12.703125 56.703125 12.890625 60.75 
Q 13.09375 64.796875 13.296875 69.296875 
L 46.703125 69.296875 
L 46.703125 61.40625 
L 21.40625 61.40625 
Q 21.296875 59.90625 21.09375 57.34375 
Q 20.90625 54.796875 20.703125 52.046875 
Q 20.5 49.296875 20.296875 46.6875 
Q 20.09375 44.09375 19.90625 42.59375 
z
" id="Ubuntu-53"/>
      </defs>
      <g transform="translate(301.02017 255.25875)scale(0.08 -0.08)">
       <use xlink:href="#Ubuntu-53"/>
      </g>
     </g>
    </g>
    <g id="xtick_7">
     <g id="line2d_13">
      <path clip-path="url(#p44e8a4a5ec)" d="M 354.003693 239.95125 
L 354.003693 22.51125 
" style="fill:none;stroke:#b0b0b0;stroke-linecap:square;stroke-opacity:0.25;stroke-width:0.8;"/>
     </g>
     <g id="line2d_14">
      <g>
       <use style="fill:#808080;stroke:#808080;stroke-width:0.8;" x="354.003693" xlink:href="#mf484d39333" y="239.95125"/>
      </g>
     </g>
     <g id="text_7">
      <!-- 6 -->
      <defs>
       <path d="M 6.296875 27.796875 
Q 6.296875 37.90625 9.09375 45.65625 
Q 11.90625 53.40625 17.046875 58.703125 
Q 22.203125 64 29.546875 66.75 
Q 36.90625 69.5 46.09375 69.59375 
L 46.796875 61.796875 
Q 40.90625 61.703125 36.046875 60.5 
Q 31.203125 59.296875 27.390625 56.6875 
Q 23.59375 54.09375 21 49.9375 
Q 18.40625 45.796875 17.09375 39.703125 
Q 19.703125 40.90625 22.953125 41.703125 
Q 26.203125 42.5 29.703125 42.5 
Q 35.59375 42.5 39.6875 40.703125 
Q 43.796875 38.90625 46.390625 35.953125 
Q 49 33 50.140625 29.140625 
Q 51.296875 25.296875 51.296875 21.09375 
Q 51.296875 17.296875 50 13.296875 
Q 48.703125 9.296875 46.046875 6 
Q 43.40625 2.703125 39.296875 0.59375 
Q 35.203125 -1.5 29.59375 -1.5 
Q 18.203125 -1.5 12.25 6.296875 
Q 6.296875 14.09375 6.296875 27.796875 
z
M 28.703125 34.90625 
Q 25.203125 34.90625 22.203125 34.25 
Q 19.203125 33.59375 16.203125 32.296875 
Q 16.09375 31.203125 16.046875 30.046875 
Q 16 28.90625 16 27.796875 
Q 16 23.40625 16.59375 19.5 
Q 17.203125 15.59375 18.75 12.640625 
Q 20.296875 9.703125 22.890625 7.953125 
Q 25.5 6.203125 29.5 6.203125 
Q 32.796875 6.203125 35.09375 7.59375 
Q 37.40625 9 38.90625 11.203125 
Q 40.40625 13.40625 41.046875 15.953125 
Q 41.703125 18.5 41.703125 20.90625 
Q 41.703125 27.703125 38.453125 31.296875 
Q 35.203125 34.90625 28.703125 34.90625 
z
" id="Ubuntu-54"/>
      </defs>
      <g transform="translate(351.747443 255.25875)scale(0.08 -0.08)">
       <use xlink:href="#Ubuntu-54"/>
      </g>
     </g>
    </g>
    <g id="text_8">
     <!-- X -->
     <defs>
      <path d="M 50.203125 0 
Q 48.703125 3 46.59375 6.640625 
Q 44.5 10.296875 42 14.25 
Q 39.5 18.203125 36.796875 22.140625 
Q 34.09375 26.09375 31.59375 29.59375 
Q 29.09375 26.09375 26.390625 22.140625 
Q 23.703125 18.203125 21.25 14.25 
Q 18.796875 10.296875 16.640625 6.640625 
Q 14.5 3 13 0 
L 2.296875 0 
Q 6.796875 8.796875 12.75 17.890625 
Q 18.703125 27 25.40625 36.59375 
L 3.203125 69.296875 
L 14.40625 69.296875 
L 31.5 43.5 
L 48.40625 69.296875 
L 59.5 69.296875 
L 37.703125 37 
Q 44.5 27.296875 50.5 18.09375 
Q 56.5 8.90625 61.09375 0 
z
" id="Ubuntu-88"/>
     </defs>
     <g transform="translate(198.667188 268.498125)scale(0.1 -0.1)">
      <use xlink:href="#Ubuntu-88"/>
     </g>
    </g>
   </g>
   <g id="matplotlib.axis_2">
    <g id="ytick_1">
     <g id="line2d_15">
      <path clip-path="url(#p44e8a4a5ec)" d="M 34.421875 230.069933 
L 369.221875 230.069933 
" style="fill:none;stroke:#b0b0b0;stroke-linecap:square;stroke-opacity:0.25;stroke-width:0.8;"/>
     </g>
     <g id="line2d_16">
      <defs>
       <path d="M 0 0 
L -3.5 0 
" id="mee7750168f" style="stroke:#808080;stroke-width:0.8;"/>
      </defs>
      <g>
       <use style="fill:#808080;stroke:#808080;stroke-width:0.8;" x="34.421875" xlink:href="#mee7750168f" y="230.069933"/>
      </g>
     </g>
     <g id="text_9">
      <!-- 2 -->
      <g transform="translate(20.809375 233.173683)scale(0.08 -0.08)">
       <use xlink:href="#Ubuntu-50"/>
      </g>
     </g>
    </g>
    <g id="ytick_2">
     <g id="line2d_17">
      <path clip-path="url(#p44e8a4a5ec)" d="M 34.421875 197.177672 
L 369.221875 197.177672 
" style="fill:none;stroke:#b0b0b0;stroke-linecap:square;stroke-opacity:0.25;stroke-width:0.8;"/>
     </g>
     <g id="line2d_18">
      <g>
       <use style="fill:#808080;stroke:#808080;stroke-width:0.8;" x="34.421875" xlink:href="#mee7750168f" y="197.177672"/>
      </g>
     </g>
     <g id="text_10">
      <!-- 3 -->
      <g transform="translate(20.809375 200.281422)scale(0.08 -0.08)">
       <use xlink:href="#Ubuntu-51"/>
      </g>
     </g>
    </g>
    <g id="ytick_3">
     <g id="line2d_19">
      <path clip-path="url(#p44e8a4a5ec)" d="M 34.421875 164.28541 
L 369.221875 164.28541 
" style="fill:none;stroke:#b0b0b0;stroke-linecap:square;stroke-opacity:0.25;stroke-width:0.8;"/>
     </g>
     <g id="line2d_20">
      <g>
       <use style="fill:#808080;stroke:#808080;stroke-width:0.8;" x="34.421875" xlink:href="#mee7750168f" y="164.28541"/>
      </g>
     </g>
     <g id="text_11">
      <!-- 4 -->
      <g transform="translate(20.809375 167.38916)scale(0.08 -0.08)">
       <use xlink:href="#Ubuntu-52"/>
      </g>
     </g>
    </g>
    <g id="ytick_4">
     <g id="line2d_21">
      <path clip-path="url(#p44e8a4a5ec)" d="M 34.421875 131.393148 
L 369.221875 131.393148 
" style="fill:none;stroke:#b0b0b0;stroke-linecap:square;stroke-opacity:0.25;stroke-width:0.8;"/>
     </g>
     <g id="line2d_22">
      <g>
       <use style="fill:#808080;stroke:#808080;stroke-width:0.8;" x="34.421875" xlink:href="#mee7750168f" y="131.393148"/>
      </g>
     </g>
     <g id="text_12">
      <!-- 5 -->
      <g transform="translate(20.809375 134.496898)scale(0.08 -0.08)">
       <use xlink:href="#Ubuntu-53"/>
      </g>
     </g>
    </g>
    <g id="ytick_5">
     <g id="line2d_23">
      <path clip-path="url(#p44e8a4a5ec)" d="M 34.421875 98.500887 
L 369.221875 98.500887 
" style="fill:none;stroke:#b0b0b0;stroke-linecap:square;stroke-opacity:0.25;stroke-width:0.8;"/>
     </g>
     <g id="line2d_24">
      <g>
       <use style="fill:#808080;stroke:#808080;stroke-width:0.8;" x="34.421875" xlink:href="#mee7750168f" y="98.500887"/>
      </g>
     </g>
     <g id="text_13">
      <!-- 6 -->
      <g transform="translate(20.809375 101.604637)scale(0.08 -0.08)">
       <use xlink:href="#Ubuntu-54"/>
      </g>
     </g>
    </g>
    <g id="ytick_6">
     <g id="line2d_25">
      <path clip-path="url(#p44e8a4a5ec)" d="M 34.421875 65.608625 
L 369.221875 65.608625 
" style="fill:none;stroke:#b0b0b0;stroke-linecap:square;stroke-opacity:0.25;stroke-width:0.8;"/>
     </g>
     <g id="line2d_26">
      <g>
       <use style="fill:#808080;stroke:#808080;stroke-width:0.8;" x="34.421875" xlink:href="#mee7750168f" y="65.608625"/>
      </g>
     </g>
     <g id="text_14">
      <!-- 7 -->
      <defs>
       <path d="M 16.296875 0 
Q 16.90625 8 19.15625 16.84375 
Q 21.40625 25.703125 24.703125 34.046875 
Q 28 42.40625 31.953125 49.546875 
Q 35.90625 56.703125 39.703125 61.203125 
L 6 61.203125 
L 6 69.296875 
L 50.09375 69.296875 
L 50.09375 61.59375 
Q 46.796875 57.796875 42.796875 51.140625 
Q 38.796875 44.5 35.25 36.25 
Q 31.703125 28 29.140625 18.640625 
Q 26.59375 9.296875 26 0 
z
" id="Ubuntu-55"/>
      </defs>
      <g transform="translate(20.809375 68.712375)scale(0.08 -0.08)">
       <use xlink:href="#Ubuntu-55"/>
      </g>
     </g>
    </g>
    <g id="ytick_7">
     <g id="line2d_27">
      <path clip-path="url(#p44e8a4a5ec)" d="M 34.421875 32.716363 
L 369.221875 32.716363 
" style="fill:none;stroke:#b0b0b0;stroke-linecap:square;stroke-opacity:0.25;stroke-width:0.8;"/>
     </g>
     <g id="line2d_28">
      <g>
       <use style="fill:#808080;stroke:#808080;stroke-width:0.8;" x="34.421875" xlink:href="#mee7750168f" y="32.716363"/>
      </g>
     </g>
     <g id="text_15">
      <!-- 8 -->
      <defs>
       <path d="M 50.90625 18 
Q 50.90625 13.796875 49.453125 10.25 
Q 48 6.703125 45.140625 4.046875 
Q 42.296875 1.40625 38 -0.046875 
Q 33.703125 -1.5 28.09375 -1.5 
Q 21.59375 -1.5 17.25 0.34375 
Q 12.90625 2.203125 10.296875 5 
Q 7.703125 7.796875 6.59375 11.140625 
Q 5.5 14.5 5.5 17.5 
Q 5.5 20.40625 6.453125 23.046875 
Q 7.40625 25.703125 8.953125 28 
Q 10.5 30.296875 12.546875 32.140625 
Q 14.59375 34 16.90625 35.40625 
Q 7.09375 41 7.09375 51.90625 
Q 7.09375 55.703125 8.59375 59.140625 
Q 10.09375 62.59375 12.84375 65.1875 
Q 15.59375 67.796875 19.5 69.34375 
Q 23.40625 70.90625 28.203125 70.90625 
Q 33.796875 70.90625 37.796875 69.203125 
Q 41.796875 67.5 44.34375 64.84375 
Q 46.90625 62.203125 48.046875 59 
Q 49.203125 55.796875 49.203125 52.796875 
Q 49.203125 49.90625 48.34375 47.34375 
Q 47.5 44.796875 46.046875 42.59375 
Q 44.59375 40.40625 42.75 38.703125 
Q 40.90625 37 38.90625 35.703125 
Q 50.703125 30.09375 50.90625 18 
z
M 14.90625 17.40625 
Q 14.90625 15.59375 15.546875 13.640625 
Q 16.203125 11.703125 17.796875 10.046875 
Q 19.40625 8.40625 21.90625 7.296875 
Q 24.40625 6.203125 28.203125 6.203125 
Q 31.59375 6.203125 34.140625 7.203125 
Q 36.703125 8.203125 38.296875 9.75 
Q 39.90625 11.296875 40.703125 13.296875 
Q 41.5 15.296875 41.5 17.40625 
Q 41.5 20.59375 40.296875 23 
Q 39.09375 25.40625 36.84375 27.203125 
Q 34.59375 29 31.4375 30.25 
Q 28.296875 31.5 24.296875 32.40625 
Q 19.796875 29.90625 17.34375 26.203125 
Q 14.90625 22.5 14.90625 17.40625 
z
M 39.90625 52.90625 
Q 39.90625 54.40625 39.25 56.203125 
Q 38.59375 58 37.1875 59.546875 
Q 35.796875 61.09375 33.59375 62.140625 
Q 31.40625 63.203125 28.203125 63.203125 
Q 25 63.203125 22.75 62.203125 
Q 20.5 61.203125 19.09375 59.640625 
Q 17.703125 58.09375 17.046875 56.25 
Q 16.40625 54.40625 16.40625 52.59375 
Q 16.40625 50.40625 17.203125 48.203125 
Q 18 46 19.703125 44.09375 
Q 21.40625 42.203125 24.15625 40.703125 
Q 26.90625 39.203125 30.703125 38.296875 
Q 34.90625 40.796875 37.40625 44.140625 
Q 39.90625 47.5 39.90625 52.90625 
z
" id="Ubuntu-56"/>
      </defs>
      <g transform="translate(20.809375 35.820113)scale(0.08 -0.08)">
       <use xlink:href="#Ubuntu-56"/>
      </g>
     </g>
    </g>
    <g id="text_16">
     <!-- Gold content -->
     <defs>
      <path d="M 50.90625 34.09375 
L 60.59375 34.09375 
L 60.59375 1.703125 
Q 59.40625 1.296875 57.15625 0.796875 
Q 54.90625 0.296875 51.953125 -0.203125 
Q 49 -0.703125 45.5 -1.046875 
Q 42 -1.40625 38.40625 -1.40625 
Q 31.09375 -1.40625 25.09375 1 
Q 19.09375 3.40625 14.796875 8 
Q 10.5 12.59375 8.140625 19.296875 
Q 5.796875 26 5.796875 34.703125 
Q 5.796875 43.40625 8.4375 50.15625 
Q 11.09375 56.90625 15.59375 61.5 
Q 20.09375 66.09375 26.140625 68.5 
Q 32.203125 70.90625 39.09375 70.90625 
Q 43.796875 70.90625 47.4375 70.296875 
Q 51.09375 69.703125 53.6875 68.890625 
Q 56.296875 68.09375 57.9375 67.296875 
Q 59.59375 66.5 60.203125 66.09375 
L 57.09375 58 
Q 54.203125 59.90625 49.390625 61.15625 
Q 44.59375 62.40625 39.59375 62.40625 
Q 34.296875 62.40625 29.9375 60.5 
Q 25.59375 58.59375 22.546875 55 
Q 19.5 51.40625 17.796875 46.25 
Q 16.09375 41.09375 16.09375 34.703125 
Q 16.09375 28.5 17.546875 23.390625 
Q 19 18.296875 21.953125 14.640625 
Q 24.90625 11 29.25 9 
Q 33.59375 7 39.5 7 
Q 43.703125 7 46.640625 7.453125 
Q 49.59375 7.90625 50.90625 8.296875 
z
" id="Ubuntu-71"/>
      <path d="M 53.90625 26 
Q 53.90625 19.796875 52.09375 14.796875 
Q 50.296875 9.796875 47.046875 6.1875 
Q 43.796875 2.59375 39.296875 0.640625 
Q 34.796875 -1.296875 29.5 -1.296875 
Q 24.203125 -1.296875 19.703125 0.640625 
Q 15.203125 2.59375 11.953125 6.1875 
Q 8.703125 9.796875 6.890625 14.796875 
Q 5.09375 19.796875 5.09375 26 
Q 5.09375 32.09375 6.890625 37.140625 
Q 8.703125 42.203125 11.953125 45.796875 
Q 15.203125 49.40625 19.703125 51.34375 
Q 24.203125 53.296875 29.5 53.296875 
Q 34.796875 53.296875 39.296875 51.34375 
Q 43.796875 49.40625 47.046875 45.796875 
Q 50.296875 42.203125 52.09375 37.140625 
Q 53.90625 32.09375 53.90625 26 
z
M 44.203125 26 
Q 44.203125 34.796875 40.25 39.9375 
Q 36.296875 45.09375 29.5 45.09375 
Q 22.703125 45.09375 18.75 39.9375 
Q 14.796875 34.796875 14.796875 26 
Q 14.796875 17.203125 18.75 12.046875 
Q 22.703125 6.90625 29.5 6.90625 
Q 36.296875 6.90625 40.25 12.046875 
Q 44.203125 17.203125 44.203125 26 
z
" id="Ubuntu-111"/>
      <path d="M 23.59375 -1 
Q 15 -0.796875 11.390625 2.703125 
Q 7.796875 6.203125 7.796875 13.59375 
L 7.796875 76 
L 17.09375 77.59375 
L 17.09375 15.09375 
Q 17.09375 12.796875 17.5 11.296875 
Q 17.90625 9.796875 18.796875 8.890625 
Q 19.703125 8 21.203125 7.546875 
Q 22.703125 7.09375 24.90625 6.796875 
z
" id="Ubuntu-108"/>
      <path d="M 41.59375 41 
Q 39.90625 42.40625 36.703125 43.703125 
Q 33.5 45 29.703125 45 
Q 25.703125 45 22.84375 43.546875 
Q 20 42.09375 18.203125 39.546875 
Q 16.40625 37 15.59375 33.5 
Q 14.796875 30 14.796875 26 
Q 14.796875 16.90625 19.296875 11.953125 
Q 23.796875 7 31.296875 7 
Q 35.09375 7 37.640625 7.34375 
Q 40.203125 7.703125 41.59375 8.09375 
z
M 41.59375 76 
L 50.90625 77.59375 
L 50.90625 1.5 
Q 47.703125 0.59375 42.703125 -0.296875 
Q 37.703125 -1.203125 31.203125 -1.203125 
Q 25.203125 -1.203125 20.390625 0.6875 
Q 15.59375 2.59375 12.1875 6.09375 
Q 8.796875 9.59375 6.9375 14.640625 
Q 5.09375 19.703125 5.09375 26 
Q 5.09375 32 6.640625 37 
Q 8.203125 42 11.203125 45.59375 
Q 14.203125 49.203125 18.546875 51.203125 
Q 22.90625 53.203125 28.5 53.203125 
Q 33 53.203125 36.453125 52 
Q 39.90625 50.796875 41.59375 49.703125 
z
" id="Ubuntu-100"/>
      <path id="Ubuntu-32"/>
      <path d="M 30.59375 -1.203125 
Q 24.296875 -1.203125 19.546875 0.796875 
Q 14.796875 2.796875 11.546875 6.390625 
Q 8.296875 10 6.6875 14.953125 
Q 5.09375 19.90625 5.09375 25.90625 
Q 5.09375 31.90625 6.84375 36.90625 
Q 8.59375 41.90625 11.796875 45.546875 
Q 15 49.203125 19.640625 51.25 
Q 24.296875 53.296875 30 53.296875 
Q 33.5 53.296875 37 52.6875 
Q 40.5 52.09375 43.703125 50.796875 
L 41.59375 42.90625 
Q 39.5 43.90625 36.75 44.5 
Q 34 45.09375 30.90625 45.09375 
Q 23.09375 45.09375 18.9375 40.1875 
Q 14.796875 35.296875 14.796875 25.90625 
Q 14.796875 21.703125 15.75 18.203125 
Q 16.703125 14.703125 18.75 12.203125 
Q 20.796875 9.703125 24 8.34375 
Q 27.203125 7 31.796875 7 
Q 35.5 7 38.5 7.703125 
Q 41.5 8.40625 43.203125 9.203125 
L 44.5 1.40625 
Q 43.703125 0.90625 42.203125 0.453125 
Q 40.703125 0 38.796875 -0.34375 
Q 36.90625 -0.703125 34.75 -0.953125 
Q 32.59375 -1.203125 30.59375 -1.203125 
z
" id="Ubuntu-99"/>
      <path d="M 8 50.5 
Q 11.203125 51.296875 16.5 52.1875 
Q 21.796875 53.09375 28.703125 53.09375 
Q 34.90625 53.09375 39 51.34375 
Q 43.09375 49.59375 45.546875 46.4375 
Q 48 43.296875 49 38.890625 
Q 50 34.5 50 29.203125 
L 50 0 
L 40.703125 0 
L 40.703125 27.203125 
Q 40.703125 32 40.046875 35.390625 
Q 39.40625 38.796875 37.90625 40.890625 
Q 36.40625 43 33.90625 43.953125 
Q 31.40625 44.90625 27.703125 44.90625 
Q 26.203125 44.90625 24.59375 44.796875 
Q 23 44.703125 21.546875 44.546875 
Q 20.09375 44.40625 18.9375 44.203125 
Q 17.796875 44 17.296875 43.90625 
L 17.296875 0 
L 8 0 
z
" id="Ubuntu-110"/>
      <path d="M 16.703125 52 
L 36.40625 52 
L 36.40625 44.203125 
L 16.703125 44.203125 
L 16.703125 20.203125 
Q 16.703125 16.296875 17.296875 13.75 
Q 17.90625 11.203125 19.09375 9.75 
Q 20.296875 8.296875 22.09375 7.6875 
Q 23.90625 7.09375 26.296875 7.09375 
Q 30.5 7.09375 33.046875 8.046875 
Q 35.59375 9 36.59375 9.40625 
L 38.40625 1.703125 
Q 37 1 33.5 -0.046875 
Q 30 -1.09375 25.5 -1.09375 
Q 20.203125 -1.09375 16.75 0.25 
Q 13.296875 1.59375 11.1875 4.296875 
Q 9.09375 7 8.25 10.953125 
Q 7.40625 14.90625 7.40625 20.09375 
L 7.40625 66.5 
L 16.703125 68.09375 
z
" id="Ubuntu-116"/>
      <path d="M 5.09375 25.90625 
Q 5.09375 32.796875 7.09375 37.9375 
Q 9.09375 43.09375 12.390625 46.5 
Q 15.703125 49.90625 20 51.59375 
Q 24.296875 53.296875 28.796875 53.296875 
Q 39.296875 53.296875 44.890625 46.75 
Q 50.5 40.203125 50.5 26.796875 
Q 50.5 26.203125 50.5 25.25 
Q 50.5 24.296875 50.40625 23.5 
L 14.796875 23.5 
Q 15.40625 15.40625 19.5 11.203125 
Q 23.59375 7 32.296875 7 
Q 37.203125 7 40.546875 7.84375 
Q 43.90625 8.703125 45.59375 9.5 
L 46.90625 1.703125 
Q 45.203125 0.796875 40.953125 -0.203125 
Q 36.703125 -1.203125 31.296875 -1.203125 
Q 24.5 -1.203125 19.546875 0.84375 
Q 14.59375 2.90625 11.390625 6.5 
Q 8.203125 10.09375 6.640625 15.046875 
Q 5.09375 20 5.09375 25.90625 
z
M 40.796875 31 
Q 40.90625 37.296875 37.65625 41.34375 
Q 34.40625 45.40625 28.703125 45.40625 
Q 25.5 45.40625 23.046875 44.15625 
Q 20.59375 42.90625 18.890625 40.90625 
Q 17.203125 38.90625 16.25 36.296875 
Q 15.296875 33.703125 15 31 
z
" id="Ubuntu-101"/>
     </defs>
     <g transform="translate(14.959375 160.835937)rotate(-90)scale(0.1 -0.1)">
      <use xlink:href="#Ubuntu-71"/>
      <use x="67.199997" xlink:href="#Ubuntu-111"/>
      <use x="126.199982" xlink:href="#Ubuntu-108"/>
      <use x="153.499969" xlink:href="#Ubuntu-100"/>
      <use x="212.399963" xlink:href="#Ubuntu-32"/>
      <use x="235.499954" xlink:href="#Ubuntu-99"/>
      <use x="281.984314" xlink:href="#Ubuntu-111"/>
      <use x="340.984299" xlink:href="#Ubuntu-110"/>
      <use x="398.384293" xlink:href="#Ubuntu-116"/>
      <use x="438.568665" xlink:href="#Ubuntu-101"/>
      <use x="494.468658" xlink:href="#Ubuntu-110"/>
      <use x="551.868652" xlink:href="#Ubuntu-116"/>
     </g>
    </g>
   </g>
   <g id="line2d_29">
    <path clip-path="url(#p44e8a4a5ec)" d="M 49.640057 155.194535 
L 51.672535 153.868358 
L 53.705014 152.281984 
L 55.229372 150.847616 
L 57.261851 148.634831 
L 59.802449 145.55629 
L 68.948601 133.635075 
L 70.98108 130.507434 
L 73.521678 126.062448 
L 81.651591 111.369453 
L 84.192189 106.378741 
L 88.257146 97.734582 
L 94.354581 84.918933 
L 97.403299 78.920857 
L 99.943897 74.331812 
L 101.976375 71.099846 
L 104.008853 68.321087 
L 105.533212 66.582854 
L 107.057571 65.140262 
L 109.090049 63.597086 
L 112.646886 61.216383 
L 114.679365 60.064369 
L 116.711843 59.135327 
L 121.793039 57.151266 
L 124.333637 56.283939 
L 127.382355 55.572657 
L 129.414833 55.277636 
L 130.939192 55.351013 
L 132.463551 55.752959 
L 133.987909 56.498181 
L 136.020388 57.893125 
L 138.052866 59.578955 
L 140.085344 61.48764 
L 142.117823 63.710308 
L 144.150301 66.26302 
L 146.18278 69.14557 
L 153.296454 79.579026 
L 156.345171 83.291564 
L 161.934487 89.76836 
L 163.966965 92.584184 
L 167.015683 97.243624 
L 171.08064 103.561694 
L 173.113118 106.304815 
L 175.653716 109.332853 
L 177.178075 110.840041 
L 179.210553 112.481954 
L 181.243031 113.872985 
L 182.76739 114.677537 
L 184.291749 115.258413 
L 186.324227 115.745942 
L 188.356706 115.961588 
L 191.913543 116.096923 
L 193.946021 115.993946 
L 195.9785 115.657261 
L 199.027217 114.82429 
L 205.632772 112.749335 
L 207.66525 111.891661 
L 211.222087 110.050106 
L 213.762685 108.45729 
L 216.811403 106.192968 
L 218.843881 104.532464 
L 220.87636 102.57587 
L 222.908838 100.263056 
L 226.465675 95.740842 
L 230.022512 90.813681 
L 235.103708 83.965184 
L 242.725502 74.11231 
L 246.790459 69.17343 
L 248.822937 67.091882 
L 250.347296 65.734185 
L 251.871655 64.658647 
L 253.396014 63.901394 
L 254.412253 63.638396 
L 255.428492 63.573612 
L 256.444731 63.689421 
L 257.46097 63.955154 
L 258.47721 64.380412 
L 259.493449 64.974098 
L 261.017808 66.17331 
L 263.558406 68.616542 
L 276.261395 81.288778 
L 279.310113 84.811816 
L 282.86695 89.204448 
L 287.948146 95.782356 
L 292.521222 101.301119 
L 295.56994 104.54246 
L 297.094299 105.914143 
L 298.618658 107.009698 
L 300.143016 107.872767 
L 301.667375 108.449897 
L 303.191734 108.738079 
L 305.224212 108.841673 
L 310.305408 108.888493 
L 312.337887 109.13566 
L 314.878485 109.745 
L 316.910963 110.491297 
L 321.484039 112.392087 
L 323.008398 112.716736 
L 324.532757 112.786906 
L 326.057116 112.594738 
L 327.581474 112.16886 
L 333.17079 110.153468 
L 338.760105 107.834982 
L 340.284464 107.042744 
L 342.316943 105.725487 
L 344.857541 103.798709 
L 348.414378 100.739263 
L 350.954976 98.30259 
L 352.987454 95.992263 
L 354.003693 94.695902 
L 354.003693 94.695902 
" style="fill:none;stroke:#1f77b4;stroke-linecap:square;stroke-width:2.7;"/>
   </g>
   <g id="line2d_30">
    <path clip-path="url(#p44e8a4a5ec)" d="M 49.640057 89.615423 
L 51.672535 92.341506 
L 55.229372 97.630978 
L 58.786209 103.049944 
L 60.818688 105.811445 
L 63.359286 108.906582 
L 67.424243 113.47072 
L 69.456721 115.901998 
L 73.013558 120.739111 
L 76.570395 125.421717 
L 80.127232 129.741714 
L 82.66783 132.441555 
L 85.208428 134.80112 
L 88.257146 137.350841 
L 90.289624 138.76962 
L 92.830222 140.246309 
L 98.927657 143.39911 
L 100.960136 144.421598 
L 108.58193 147.733463 
L 111.630647 149.118243 
L 118.744322 152.542001 
L 121.793039 153.559405 
L 124.841757 154.303938 
L 128.906713 155.019621 
L 130.939192 155.065688 
L 135.004148 154.819391 
L 138.052866 154.710939 
L 142.117823 154.595504 
L 144.150301 154.395205 
L 147.199019 153.825218 
L 150.755856 153.165479 
L 152.280215 152.874987 
L 154.312693 152.206157 
L 160.918248 149.631417 
L 162.950726 148.839057 
L 164.983204 148.312704 
L 167.523802 147.82129 
L 169.048161 147.741853 
L 170.57252 147.949796 
L 172.096879 148.413016 
L 175.145596 149.599234 
L 177.686194 150.830698 
L 180.226792 152.312805 
L 187.340467 156.760466 
L 189.372945 157.683891 
L 191.405423 158.371281 
L 193.437902 158.795797 
L 196.994739 159.152248 
L 200.043456 159.344524 
L 202.584054 159.225651 
L 204.616533 159.202754 
L 206.140892 159.426291 
L 208.68149 160.127815 
L 211.730207 161.176811 
L 215.287044 162.712813 
L 221.384479 165.686395 
L 224.941316 167.89221 
L 227.990034 169.675705 
L 230.530632 170.946092 
L 234.595589 172.668765 
L 236.628067 173.233342 
L 238.152426 173.437556 
L 239.676785 173.435528 
L 243.233622 173.05741 
L 245.2661 172.686945 
L 247.298579 172.15379 
L 248.822937 171.559003 
L 250.347296 170.692468 
L 251.871655 169.446896 
L 253.904133 167.347676 
L 257.46097 163.28627 
L 261.017808 159.205524 
L 264.574645 155.452156 
L 266.099004 154.118891 
L 267.623362 153.074888 
L 269.147721 152.326349 
L 270.67208 151.892468 
L 272.196439 151.727107 
L 273.720797 151.836866 
L 274.737037 152.098513 
L 276.261395 152.741383 
L 278.293874 153.962341 
L 280.834472 155.800795 
L 283.37507 157.977455 
L 285.915668 160.52152 
L 288.456266 163.318974 
L 290.996864 166.461033 
L 299.126777 176.954244 
L 301.159255 179.113577 
L 303.191734 180.920895 
L 305.732332 182.844881 
L 308.781049 184.819353 
L 310.813528 185.956089 
L 312.846006 186.793587 
L 314.878485 187.367906 
L 318.435322 188.064338 
L 320.4678 188.192184 
L 323.516518 188.059788 
L 327.073355 187.662269 
L 331.138311 187.122749 
L 340.284464 185.979706 
L 342.825062 185.447754 
L 344.349421 184.898562 
L 346.381899 183.931239 
L 348.414378 182.724047 
L 350.446856 181.300093 
L 352.479334 179.624397 
L 354.003693 178.237241 
L 354.003693 178.237241 
" style="fill:none;stroke:#ff7f0e;stroke-linecap:square;stroke-width:2.7;"/>
   </g>
   <g id="line2d_31">
    <path clip-path="url(#p44e8a4a5ec)" d="M 49.640057 120.135031 
L 53.705014 119.332473 
L 56.245612 119.141176 
L 61.326807 118.911527 
L 63.359286 119.144611 
L 65.391764 119.613874 
L 67.424243 120.283096 
L 71.489199 121.957795 
L 79.110993 125.22973 
L 81.143472 126.461311 
L 83.17595 127.960307 
L 86.224668 130.599237 
L 90.797744 134.689924 
L 92.830222 136.435761 
L 94.862701 137.893115 
L 100.960136 141.763129 
L 102.992614 142.705324 
L 105.025092 143.330461 
L 108.07381 143.959699 
L 109.598169 144.085925 
L 111.122528 143.976159 
L 113.155006 143.542782 
L 116.711843 142.718802 
L 119.760561 142.085511 
L 121.793039 141.451542 
L 125.857996 140.072805 
L 127.890474 139.680678 
L 129.414833 139.583807 
L 131.447311 139.736237 
L 133.47979 140.093124 
L 136.020388 140.801288 
L 138.052866 141.600842 
L 139.577225 142.462797 
L 141.101584 143.599244 
L 143.134062 145.530572 
L 147.199019 149.490412 
L 152.788334 154.720317 
L 158.885769 161.240073 
L 165.491324 168.532107 
L 168.540042 171.342339 
L 171.08064 173.776961 
L 174.637477 177.550304 
L 176.669955 179.927135 
L 182.259271 186.855261 
L 184.799869 189.400426 
L 189.881065 194.128488 
L 194.454141 198.412659 
L 200.551576 204.341387 
L 202.584054 205.971173 
L 204.616533 207.236702 
L 207.157131 208.503648 
L 209.189609 209.216034 
L 210.713968 209.548128 
L 212.238327 209.684425 
L 214.270805 209.6069 
L 216.303283 209.311499 
L 219.860121 208.523002 
L 221.892599 207.788331 
L 223.416958 207.037855 
L 225.449436 205.765357 
L 227.990034 203.856329 
L 230.022512 201.986309 
L 231.546871 200.32918 
L 233.07123 198.382989 
L 235.103708 195.330687 
L 237.136187 191.83256 
L 239.168665 187.916777 
L 241.201143 183.548856 
L 243.741741 177.457479 
L 255.428492 148.208065 
L 259.493449 138.773636 
L 262.542166 132.154846 
L 265.082764 127.088508 
L 268.131482 121.559067 
L 272.196439 114.72468 
L 274.737037 110.818904 
L 277.277635 107.394265 
L 279.310113 104.988616 
L 280.834472 103.452988 
L 282.358831 102.220874 
L 284.391309 100.965385 
L 290.488744 97.859787 
L 294.045581 96.22656 
L 296.07806 95.675148 
L 298.110538 95.412295 
L 299.634897 95.441749 
L 301.159255 95.680091 
L 308.27293 97.142247 
L 310.305408 97.201153 
L 313.862245 96.957371 
L 318.435322 96.577078 
L 319.95968 96.23891 
L 321.992159 95.566678 
L 326.565235 93.838318 
L 336.219507 91.084413 
L 338.251986 90.311938 
L 340.284464 89.304934 
L 342.316943 88.021901 
L 344.349421 86.478845 
L 347.398138 83.846873 
L 350.446856 80.868077 
L 354.003693 77.214422 
L 354.003693 77.214422 
" style="fill:none;stroke:#2ca02c;stroke-linecap:square;stroke-width:2.7;"/>
   </g>
   <g id="line2d_32">
    <path clip-path="url(#p44e8a4a5ec)" d="M 49.640057 180.023471 
L 52.688774 174.474753 
L 56.245612 167.485198 
L 59.802449 159.962301 
L 63.867405 150.770463 
L 68.440482 139.807935 
L 75.046036 123.528154 
L 83.68407 144.952665 
L 88.257146 155.631751 
L 91.813983 163.429275 
L 95.37082 170.715034 
L 98.927657 177.454647 
L 101.976375 182.785454 
L 105.025092 187.704661 
L 108.07381 192.219571 
L 111.122528 196.342835 
L 114.171245 200.091141 
L 117.219963 203.484076 
L 120.26868 206.54317 
L 123.317398 209.291101 
L 126.366115 211.751034 
L 129.414833 213.9461 
L 132.463551 215.898977 
L 136.020388 217.900406 
L 139.577225 219.635 
L 143.134062 221.13359 
L 147.199019 222.593628 
L 151.263975 223.820892 
L 155.837052 224.965726 
L 160.918248 225.994302 
L 166.507563 226.88633 
L 172.604998 227.634572 
L 179.718673 228.2826 
L 188.356706 228.834775 
L 199.027217 229.278801 
L 212.746446 229.61536 
L 232.56311 229.859044 
L 265.082764 230.007112 
L 339.268225 230.065893 
L 354.003693 230.067614 
L 354.003693 230.067614 
" style="fill:none;stroke:#808080;stroke-dasharray:9.99,4.32;stroke-dashoffset:0;stroke-width:2.7;"/>
   </g>
   <g id="line2d_33">
    <path clip-path="url(#p44e8a4a5ec)" d="M 49.640057 69.551188 
L 52.688774 74.56212 
L 55.737492 80.018498 
L 58.786209 85.916721 
L 62.343047 93.33597 
L 65.899884 101.288525 
L 69.964841 110.927335 
L 75.046036 123.314567 
L 81.143472 108.267246 
L 85.208428 98.774091 
L 88.765265 90.979773 
L 92.322103 83.736503 
L 95.37082 77.996766 
L 98.419538 72.701342 
L 101.468255 67.850355 
L 104.516973 63.435709 
L 107.56569 59.442961 
L 110.614408 55.852924 
L 113.663126 52.643039 
L 116.711843 49.788527 
L 119.760561 47.263339 
L 122.809278 45.040933 
L 125.857996 43.094892 
L 128.906713 41.399408 
L 131.955431 39.92965 
L 135.512268 38.468835 
L 139.069105 37.248235 
L 143.134062 36.10637 
L 147.199019 35.193303 
L 151.772095 34.392396 
L 156.853291 33.729093 
L 162.950726 33.175717 
L 170.0644 32.772671 
L 178.702434 32.515961 
L 190.897304 32.3989 
L 212.746446 32.45877 
L 275.753276 32.676546 
L 354.003693 32.714052 
L 354.003693 32.714052 
" style="fill:none;stroke:#808080;stroke-dasharray:9.99,4.32;stroke-dashoffset:0;stroke-width:2.7;"/>
   </g>
   <g id="line2d_34">
    <path clip-path="url(#p44e8a4a5ec)" d="M 49.640057 124.78733 
L 59.802449 123.97055 
L 67.424243 123.566192 
L 74.029797 123.423804 
L 80.635352 123.502127 
L 87.749026 123.816008 
L 96.387059 124.439696 
L 109.090049 125.617852 
L 132.463551 127.801968 
L 145.67466 128.793389 
L 158.885769 129.564616 
L 173.113118 130.173346 
L 189.372945 130.645212 
L 209.697729 130.999992 
L 236.628067 131.232398 
L 280.326352 131.358214 
L 354.003693 131.390833 
L 354.003693 131.390833 
" style="fill:none;stroke:#000000;stroke-dasharray:17.28,4.32,2.7,4.32;stroke-dashoffset:0;stroke-width:2.7;"/>
   </g>
   <g id="patch_3">
    <path d="M 34.421875 239.95125 
L 34.421875 22.51125 
" style="fill:none;stroke:#808080;stroke-linecap:square;stroke-linejoin:miter;stroke-width:0.5;"/>
   </g>
   <g id="patch_4">
    <path d="M 34.421875 239.95125 
L 369.221875 239.95125 
" style="fill:none;stroke:#808080;stroke-linecap:square;stroke-linejoin:miter;stroke-width:0.5;"/>
   </g>
   <g id="text_17">
    <!-- Samples from surrogate -->
    <defs>
     <path d="M 24.703125 6.90625 
Q 39.90625 6.90625 39.90625 17.296875 
Q 39.90625 20.5 38.546875 22.75 
Q 37.203125 25 34.890625 26.640625 
Q 32.59375 28.296875 29.640625 29.5 
Q 26.703125 30.703125 23.40625 31.90625 
Q 19.59375 33.203125 16.1875 34.84375 
Q 12.796875 36.5 10.296875 38.75 
Q 7.796875 41 6.34375 44.09375 
Q 4.90625 47.203125 4.90625 51.59375 
Q 4.90625 60.703125 11.09375 65.796875 
Q 17.296875 70.90625 28.203125 70.90625 
Q 34.5 70.90625 39.640625 69.546875 
Q 44.796875 68.203125 47.203125 66.59375 
L 44.09375 58.703125 
Q 42 60 37.84375 61.25 
Q 33.703125 62.5 28.203125 62.5 
Q 25.40625 62.5 23 61.890625 
Q 20.59375 61.296875 18.796875 60.09375 
Q 17 58.90625 15.953125 57.046875 
Q 14.90625 55.203125 14.90625 52.703125 
Q 14.90625 49.90625 16 48 
Q 17.09375 46.09375 19.09375 44.640625 
Q 21.09375 43.203125 23.75 42 
Q 26.40625 40.796875 29.59375 39.59375 
Q 34.09375 37.796875 37.84375 36 
Q 41.59375 34.203125 44.34375 31.703125 
Q 47.09375 29.203125 48.59375 25.75 
Q 50.09375 22.296875 50.09375 17.40625 
Q 50.09375 8.296875 43.4375 3.390625 
Q 36.796875 -1.5 24.703125 -1.5 
Q 20.59375 -1.5 17.140625 -0.953125 
Q 13.703125 -0.40625 11 0.34375 
Q 8.296875 1.09375 6.34375 1.9375 
Q 4.40625 2.796875 3.296875 3.40625 
L 6.203125 11.40625 
Q 8.5 10.09375 13.203125 8.5 
Q 17.90625 6.90625 24.703125 6.90625 
z
" id="Ubuntu-83"/>
     <path d="M 25.59375 6.703125 
Q 28.90625 6.703125 31.453125 6.84375 
Q 34 7 35.703125 7.40625 
L 35.703125 22.90625 
Q 34.703125 23.40625 32.453125 23.75 
Q 30.203125 24.09375 27 24.09375 
Q 24.90625 24.09375 22.546875 23.796875 
Q 20.203125 23.5 18.25 22.546875 
Q 16.296875 21.59375 15 19.9375 
Q 13.703125 18.296875 13.703125 15.59375 
Q 13.703125 10.59375 16.890625 8.640625 
Q 20.09375 6.703125 25.59375 6.703125 
z
M 24.796875 53.296875 
Q 30.40625 53.296875 34.25 51.84375 
Q 38.09375 50.40625 40.4375 47.75 
Q 42.796875 45.09375 43.796875 41.4375 
Q 44.796875 37.796875 44.796875 33.40625 
L 44.796875 0.90625 
Q 43.59375 0.703125 41.4375 0.34375 
Q 39.296875 0 36.59375 -0.296875 
Q 33.90625 -0.59375 30.75 -0.84375 
Q 27.59375 -1.09375 24.5 -1.09375 
Q 20.09375 -1.09375 16.390625 -0.1875 
Q 12.703125 0.703125 10 2.640625 
Q 7.296875 4.59375 5.796875 7.796875 
Q 4.296875 11 4.296875 15.5 
Q 4.296875 19.796875 6.046875 22.890625 
Q 7.796875 26 10.796875 27.890625 
Q 13.796875 29.796875 17.796875 30.6875 
Q 21.796875 31.59375 26.203125 31.59375 
Q 27.59375 31.59375 29.09375 31.4375 
Q 30.59375 31.296875 31.9375 31.046875 
Q 33.296875 30.796875 34.296875 30.59375 
Q 35.296875 30.40625 35.703125 30.296875 
L 35.703125 32.90625 
Q 35.703125 35.203125 35.203125 37.453125 
Q 34.703125 39.703125 33.390625 41.453125 
Q 32.09375 43.203125 29.84375 44.25 
Q 27.59375 45.296875 24 45.296875 
Q 19.40625 45.296875 15.953125 44.640625 
Q 12.5 44 10.796875 43.296875 
L 9.703125 51 
Q 11.5 51.796875 15.703125 52.546875 
Q 19.90625 53.296875 24.796875 53.296875 
z
" id="Ubuntu-97"/>
     <path d="M 8 50.5 
Q 11.203125 51.296875 16.453125 52.1875 
Q 21.703125 53.09375 28.59375 53.09375 
Q 33.59375 53.09375 37 51.75 
Q 40.40625 50.40625 42.703125 47.796875 
Q 43.40625 48.296875 44.90625 49.1875 
Q 46.40625 50.09375 48.59375 50.9375 
Q 50.796875 51.796875 53.5 52.4375 
Q 56.203125 53.09375 59.296875 53.09375 
Q 65.296875 53.09375 69.09375 51.34375 
Q 72.90625 49.59375 75.046875 46.390625 
Q 77.203125 43.203125 77.953125 38.796875 
Q 78.703125 34.40625 78.703125 29.203125 
L 78.703125 0 
L 69.40625 0 
L 69.40625 27.203125 
Q 69.40625 31.796875 68.953125 35.09375 
Q 68.5 38.40625 67.25 40.59375 
Q 66 42.796875 63.84375 43.84375 
Q 61.703125 44.90625 58.296875 44.90625 
Q 53.59375 44.90625 50.546875 43.65625 
Q 47.5 42.40625 46.40625 41.40625 
Q 47.203125 38.796875 47.59375 35.6875 
Q 48 32.59375 48 29.203125 
L 48 0 
L 38.703125 0 
L 38.703125 27.203125 
Q 38.703125 31.796875 38.203125 35.09375 
Q 37.703125 38.40625 36.453125 40.59375 
Q 35.203125 42.796875 33.046875 43.84375 
Q 30.90625 44.90625 27.59375 44.90625 
Q 26.203125 44.90625 24.59375 44.796875 
Q 23 44.703125 21.546875 44.546875 
Q 20.09375 44.40625 18.890625 44.203125 
Q 17.703125 44 17.296875 43.90625 
L 17.296875 0 
L 8 0 
z
" id="Ubuntu-109"/>
     <path d="M 44.09375 25.90625 
Q 44.09375 35 39.59375 39.890625 
Q 35.09375 44.796875 27.59375 44.796875 
Q 23.40625 44.796875 21.046875 44.5 
Q 18.703125 44.203125 17.296875 43.796875 
L 17.296875 11 
Q 19 9.59375 22.203125 8.296875 
Q 25.40625 7 29.203125 7 
Q 33.203125 7 36.046875 8.453125 
Q 38.90625 9.90625 40.703125 12.453125 
Q 42.5 15 43.296875 18.453125 
Q 44.09375 21.90625 44.09375 25.90625 
z
M 53.796875 25.90625 
Q 53.796875 20 52.25 15 
Q 50.703125 10 47.703125 6.390625 
Q 44.703125 2.796875 40.34375 0.796875 
Q 36 -1.203125 30.40625 -1.203125 
Q 25.90625 -1.203125 22.453125 0 
Q 19 1.203125 17.296875 2.296875 
L 17.296875 -18.5 
L 8 -18.5 
L 8 50.40625 
Q 11.296875 51.203125 16.25 52.140625 
Q 21.203125 53.09375 27.703125 53.09375 
Q 33.703125 53.09375 38.5 51.1875 
Q 43.296875 49.296875 46.6875 45.796875 
Q 50.09375 42.296875 51.9375 37.25 
Q 53.796875 32.203125 53.796875 25.90625 
z
" id="Ubuntu-112"/>
     <path d="M 20.09375 6.703125 
Q 25.796875 6.703125 28.546875 8.203125 
Q 31.296875 9.703125 31.296875 13 
Q 31.296875 16.40625 28.59375 18.40625 
Q 25.90625 20.40625 19.703125 22.90625 
Q 16.703125 24.09375 13.953125 25.34375 
Q 11.203125 26.59375 9.203125 28.296875 
Q 7.203125 30 6 32.390625 
Q 4.796875 34.796875 4.796875 38.296875 
Q 4.796875 45.203125 9.890625 49.25 
Q 15 53.296875 23.796875 53.296875 
Q 26 53.296875 28.203125 53.046875 
Q 30.40625 52.796875 32.296875 52.4375 
Q 34.203125 52.09375 35.640625 51.6875 
Q 37.09375 51.296875 37.90625 51 
L 36.203125 43 
Q 34.703125 43.796875 31.5 44.640625 
Q 28.296875 45.5 23.796875 45.5 
Q 19.90625 45.5 17 43.953125 
Q 14.09375 42.40625 14.09375 39.09375 
Q 14.09375 37.40625 14.75 36.09375 
Q 15.40625 34.796875 16.75 33.75 
Q 18.09375 32.703125 20.09375 31.796875 
Q 22.09375 30.90625 24.90625 29.90625 
Q 28.59375 28.5 31.5 27.140625 
Q 34.40625 25.796875 36.453125 24 
Q 38.5 22.203125 39.59375 19.640625 
Q 40.703125 17.09375 40.703125 13.40625 
Q 40.703125 6.203125 35.34375 2.5 
Q 30 -1.203125 20.09375 -1.203125 
Q 13.203125 -1.203125 9.296875 -0.046875 
Q 5.40625 1.09375 4 1.703125 
L 5.703125 9.703125 
Q 7.296875 9.09375 10.796875 7.890625 
Q 14.296875 6.703125 20.09375 6.703125 
z
" id="Ubuntu-115"/>
     <path d="M 28.296875 77.59375 
Q 32.40625 77.59375 35.34375 77 
Q 38.296875 76.40625 39.5 75.90625 
L 37.796875 67.90625 
Q 36.59375 68.5 34.390625 69.046875 
Q 32.203125 69.59375 29 69.59375 
Q 22.5 69.59375 19.890625 66.046875 
Q 17.296875 62.5 17.296875 56.5 
L 17.296875 52 
L 37.296875 52 
L 37.296875 44.203125 
L 17.296875 44.203125 
L 17.296875 0 
L 8 0 
L 8 56.703125 
Q 8 66.703125 12.890625 72.140625 
Q 17.796875 77.59375 28.296875 77.59375 
z
" id="Ubuntu-102"/>
     <path d="M 27.203125 53.09375 
Q 28.40625 53.09375 29.953125 52.9375 
Q 31.5 52.796875 33 52.546875 
Q 34.5 52.296875 35.75 52.046875 
Q 37 51.796875 37.59375 51.59375 
L 36 43.5 
Q 34.90625 43.90625 32.34375 44.453125 
Q 29.796875 45 25.796875 45 
Q 23.203125 45 20.640625 44.453125 
Q 18.09375 43.90625 17.296875 43.703125 
L 17.296875 0 
L 8 0 
L 8 49.796875 
Q 11.296875 51 16.1875 52.046875 
Q 21.09375 53.09375 27.203125 53.09375 
z
" id="Ubuntu-114"/>
     <path d="M 49.40625 1.5 
Q 46.203125 0.703125 40.953125 -0.1875 
Q 35.703125 -1.09375 28.796875 -1.09375 
Q 22.796875 -1.09375 18.6875 0.65625 
Q 14.59375 2.40625 12.09375 5.59375 
Q 9.59375 8.796875 8.5 13.140625 
Q 7.40625 17.5 7.40625 22.796875 
L 7.40625 52 
L 16.703125 52 
L 16.703125 24.796875 
Q 16.703125 15.296875 19.703125 11.1875 
Q 22.703125 7.09375 29.796875 7.09375 
Q 31.296875 7.09375 32.890625 7.1875 
Q 34.5 7.296875 35.890625 7.4375 
Q 37.296875 7.59375 38.4375 7.75 
Q 39.59375 7.90625 40.09375 8.09375 
L 40.09375 52 
L 49.40625 52 
z
" id="Ubuntu-117"/>
     <path d="M 40.59375 5.203125 
Q 39.40625 4.40625 35.953125 3.15625 
Q 32.5 1.90625 27.90625 1.90625 
Q 23.203125 1.90625 19.046875 3.40625 
Q 14.90625 4.90625 11.796875 8.046875 
Q 8.703125 11.203125 6.890625 15.890625 
Q 5.09375 20.59375 5.09375 27.09375 
Q 5.09375 32.796875 6.796875 37.546875 
Q 8.5 42.296875 11.75 45.75 
Q 15 49.203125 19.703125 51.140625 
Q 24.40625 53.09375 30.296875 53.09375 
Q 36.796875 53.09375 41.640625 52.140625 
Q 46.5 51.203125 49.796875 50.40625 
L 49.796875 4 
Q 49.796875 -8 43.59375 -13.390625 
Q 37.40625 -18.796875 24.796875 -18.796875 
Q 19.90625 -18.796875 15.546875 -18 
Q 11.203125 -17.203125 8 -16.09375 
L 9.703125 -8 
Q 12.5 -9.09375 16.546875 -9.9375 
Q 20.59375 -10.796875 25 -10.796875 
Q 33.296875 -10.796875 36.9375 -7.5 
Q 40.59375 -4.203125 40.59375 3 
z
M 40.5 43.796875 
Q 39.09375 44.203125 36.75 44.546875 
Q 34.40625 44.90625 30.40625 44.90625 
Q 22.90625 44.90625 18.84375 40 
Q 14.796875 35.09375 14.796875 27 
Q 14.796875 22.5 15.9375 19.296875 
Q 17.09375 16.09375 19.046875 14 
Q 21 11.90625 23.546875 10.90625 
Q 26.09375 9.90625 28.796875 9.90625 
Q 32.5 9.90625 35.59375 10.953125 
Q 38.703125 12 40.5 13.40625 
z
" id="Ubuntu-103"/>
    </defs>
    <g transform="translate(136.364688 16.51125)scale(0.12 -0.12)">
     <use xlink:href="#Ubuntu-83"/>
     <use x="53.199997" xlink:href="#Ubuntu-97"/>
     <use x="105.399994" xlink:href="#Ubuntu-109"/>
     <use x="191.499985" xlink:href="#Ubuntu-112"/>
     <use x="250.399979" xlink:href="#Ubuntu-108"/>
     <use x="277.699966" xlink:href="#Ubuntu-101"/>
     <use x="333.59996" xlink:href="#Ubuntu-115"/>
     <use x="378.199951" xlink:href="#Ubuntu-32"/>
     <use x="401.299942" xlink:href="#Ubuntu-102"/>
     <use x="439.899933" xlink:href="#Ubuntu-114"/>
     <use x="478.499924" xlink:href="#Ubuntu-111"/>
     <use x="537.499908" xlink:href="#Ubuntu-109"/>
     <use x="623.599899" xlink:href="#Ubuntu-32"/>
     <use x="646.69989" xlink:href="#Ubuntu-115"/>
     <use x="691.299881" xlink:href="#Ubuntu-117"/>
     <use x="748.699875" xlink:href="#Ubuntu-114"/>
     <use x="787.299866" xlink:href="#Ubuntu-114"/>
     <use x="825.899857" xlink:href="#Ubuntu-111"/>
     <use x="884.899841" xlink:href="#Ubuntu-103"/>
     <use x="942.699829" xlink:href="#Ubuntu-97"/>
     <use x="994.899826" xlink:href="#Ubuntu-116"/>
     <use x="1035.084198" xlink:href="#Ubuntu-101"/>
    </g>
   </g>
   <g id="legend_1">
    <g id="patch_5">
     <path d="M 389.613875 118.2675 
L 513.877938 118.2675 
Q 515.877938 118.2675 515.877938 116.2675 
L 515.877938 29.51125 
Q 515.877938 27.51125 513.877938 27.51125 
L 389.613875 27.51125 
Q 387.613875 27.51125 387.613875 29.51125 
L 387.613875 116.2675 
Q 387.613875 118.2675 389.613875 118.2675 
z
" style="fill:#ffffff;opacity:0.8;stroke:#cccccc;stroke-linejoin:miter;stroke-width:0.24;"/>
    </g>
    <g id="line2d_35">
     <path d="M 391.613875 35.770625 
L 411.613875 35.770625 
" style="fill:none;stroke:#1f77b4;stroke-linecap:square;stroke-width:2.7;"/>
    </g>
    <g id="line2d_36"/>
    <g id="text_18">
     <!-- Sample 1 -->
     <g transform="translate(419.613875 39.270625)scale(0.1 -0.1)">
      <use xlink:href="#Ubuntu-83"/>
      <use x="53.199997" xlink:href="#Ubuntu-97"/>
      <use x="105.399994" xlink:href="#Ubuntu-109"/>
      <use x="191.499985" xlink:href="#Ubuntu-112"/>
      <use x="250.399979" xlink:href="#Ubuntu-108"/>
      <use x="277.699966" xlink:href="#Ubuntu-101"/>
      <use x="333.59996" xlink:href="#Ubuntu-32"/>
      <use x="356.699951" xlink:href="#Ubuntu-49"/>
     </g>
    </g>
    <g id="line2d_37">
     <path d="M 391.613875 50.38 
L 411.613875 50.38 
" style="fill:none;stroke:#ff7f0e;stroke-linecap:square;stroke-width:2.7;"/>
    </g>
    <g id="line2d_38"/>
    <g id="text_19">
     <!-- Sample 2 -->
     <g transform="translate(419.613875 53.88)scale(0.1 -0.1)">
      <use xlink:href="#Ubuntu-83"/>
      <use x="53.199997" xlink:href="#Ubuntu-97"/>
      <use x="105.399994" xlink:href="#Ubuntu-109"/>
      <use x="191.499985" xlink:href="#Ubuntu-112"/>
      <use x="250.399979" xlink:href="#Ubuntu-108"/>
      <use x="277.699966" xlink:href="#Ubuntu-101"/>
      <use x="333.59996" xlink:href="#Ubuntu-32"/>
      <use x="356.699951" xlink:href="#Ubuntu-50"/>
     </g>
    </g>
    <g id="line2d_39">
     <path d="M 391.613875 64.989375 
L 411.613875 64.989375 
" style="fill:none;stroke:#2ca02c;stroke-linecap:square;stroke-width:2.7;"/>
    </g>
    <g id="line2d_40"/>
    <g id="text_20">
     <!-- Sample 3 -->
     <g transform="translate(419.613875 68.489375)scale(0.1 -0.1)">
      <use xlink:href="#Ubuntu-83"/>
      <use x="53.199997" xlink:href="#Ubuntu-97"/>
      <use x="105.399994" xlink:href="#Ubuntu-109"/>
      <use x="191.499985" xlink:href="#Ubuntu-112"/>
      <use x="250.399979" xlink:href="#Ubuntu-108"/>
      <use x="277.699966" xlink:href="#Ubuntu-101"/>
      <use x="333.59996" xlink:href="#Ubuntu-32"/>
      <use x="356.699951" xlink:href="#Ubuntu-51"/>
     </g>
    </g>
    <g id="line2d_41">
     <path d="M 391.613875 79.669062 
L 411.613875 79.669062 
" style="fill:none;stroke:#808080;stroke-dasharray:9.99,4.32;stroke-dashoffset:0;stroke-width:2.7;"/>
    </g>
    <g id="line2d_42"/>
    <g id="text_21">
     <!-- Upper/Lower Bound -->
     <defs>
      <path d="M 34.40625 -1.5 
Q 27.59375 -1.5 22.59375 0.59375 
Q 17.59375 2.703125 14.390625 6.34375 
Q 11.203125 10 9.640625 15 
Q 8.09375 20 8.09375 25.796875 
L 8.09375 69.296875 
L 17.796875 69.296875 
L 17.796875 26.90625 
Q 17.796875 16.5 22.390625 11.796875 
Q 27 7.09375 34.40625 7.09375 
Q 38.09375 7.09375 41.140625 8.25 
Q 44.203125 9.40625 46.390625 11.796875 
Q 48.59375 14.203125 49.796875 17.953125 
Q 51 21.703125 51 26.90625 
L 51 69.296875 
L 60.703125 69.296875 
L 60.703125 25.796875 
Q 60.703125 20 59.140625 15 
Q 57.59375 10 54.34375 6.34375 
Q 51.09375 2.703125 46.140625 0.59375 
Q 41.203125 -1.5 34.40625 -1.5 
z
" id="Ubuntu-85"/>
      <path d="M 7.09375 -18.5 
L -2.40625 -18.5 
L 31.5 78.296875 
L 40.796875 78.296875 
z
" id="Ubuntu-47"/>
      <path d="M 50.296875 8.40625 
L 50.296875 0 
L 8.59375 0 
L 8.59375 69.296875 
L 18.296875 69.296875 
L 18.296875 8.40625 
z
" id="Ubuntu-76"/>
      <path d="M 50.5 0 
Q 47.703125 7.203125 44.546875 16.453125 
Q 41.40625 25.703125 38.796875 35.703125 
Q 36.203125 25.703125 33.09375 16.453125 
Q 30 7.203125 27.203125 0 
L 19.09375 0 
Q 14.5 10.296875 10.09375 23.5 
Q 5.703125 36.703125 1.796875 52 
L 11.796875 52 
Q 12.796875 47.296875 14.1875 41.796875 
Q 15.59375 36.296875 17.140625 30.796875 
Q 18.703125 25.296875 20.390625 20.1875 
Q 22.09375 15.09375 23.59375 11.296875 
Q 25.296875 16 26.9375 21.25 
Q 28.59375 26.5 30.09375 31.84375 
Q 31.59375 37.203125 32.9375 42.34375 
Q 34.296875 47.5 35.296875 52 
L 43 52 
Q 43.90625 47.5 45.203125 42.34375 
Q 46.5 37.203125 48 31.84375 
Q 49.5 26.5 51.140625 21.25 
Q 52.796875 16 54.5 11.296875 
Q 56 15.09375 57.640625 20.1875 
Q 59.296875 25.296875 60.890625 30.796875 
Q 62.5 36.296875 63.890625 41.796875 
Q 65.296875 47.296875 66.296875 52 
L 75.90625 52 
Q 72 36.703125 67.59375 23.5 
Q 63.203125 10.296875 58.59375 0 
z
" id="Ubuntu-119"/>
      <path d="M 27.296875 -0.59375 
Q 25.203125 -0.59375 22.75 -0.5 
Q 20.296875 -0.40625 17.84375 -0.203125 
Q 15.40625 0 13 0.296875 
Q 10.59375 0.59375 8.59375 1.09375 
L 8.59375 68.296875 
Q 10.59375 68.796875 13 69.09375 
Q 15.40625 69.40625 17.84375 69.59375 
Q 20.296875 69.796875 22.6875 69.890625 
Q 25.09375 70 27.203125 70 
Q 33.203125 70 38.453125 69.09375 
Q 43.703125 68.203125 47.546875 66.046875 
Q 51.40625 63.90625 53.59375 60.40625 
Q 55.796875 56.90625 55.796875 51.796875 
Q 55.796875 46.09375 53.09375 42.4375 
Q 50.40625 38.796875 45.90625 37 
Q 52 35.203125 55.59375 31.296875 
Q 59.203125 27.40625 59.203125 20.296875 
Q 59.203125 9.90625 51.546875 4.65625 
Q 43.90625 -0.59375 27.296875 -0.59375 
z
M 18.203125 32.296875 
L 18.203125 7.90625 
Q 19.296875 7.796875 20.796875 7.703125 
Q 22.09375 7.59375 23.84375 7.546875 
Q 25.59375 7.5 27.90625 7.5 
Q 32.203125 7.5 36.046875 8.046875 
Q 39.90625 8.59375 42.796875 10 
Q 45.703125 11.40625 47.453125 13.90625 
Q 49.203125 16.40625 49.203125 20.203125 
Q 49.203125 23.59375 47.890625 25.9375 
Q 46.59375 28.296875 44.140625 29.6875 
Q 41.703125 31.09375 38.296875 31.6875 
Q 34.90625 32.296875 30.703125 32.296875 
z
M 18.203125 40.09375 
L 28.40625 40.09375 
Q 32 40.09375 35.203125 40.59375 
Q 38.40625 41.09375 40.75 42.390625 
Q 43.09375 43.703125 44.4375 45.796875 
Q 45.796875 47.90625 45.796875 51.09375 
Q 45.796875 54.09375 44.390625 56.140625 
Q 43 58.203125 40.546875 59.453125 
Q 38.09375 60.703125 34.796875 61.296875 
Q 31.5 61.90625 27.796875 61.90625 
Q 24.09375 61.90625 22 61.796875 
Q 19.90625 61.703125 18.203125 61.5 
z
" id="Ubuntu-66"/>
     </defs>
     <g transform="translate(419.613875 83.169062)scale(0.1 -0.1)">
      <use xlink:href="#Ubuntu-85"/>
      <use x="68.799988" xlink:href="#Ubuntu-112"/>
      <use x="127.699982" xlink:href="#Ubuntu-112"/>
      <use x="186.599976" xlink:href="#Ubuntu-101"/>
      <use x="242.499969" xlink:href="#Ubuntu-114"/>
      <use x="281.03746" xlink:href="#Ubuntu-47"/>
      <use x="319.437454" xlink:href="#Ubuntu-76"/>
      <use x="371.321823" xlink:href="#Ubuntu-111"/>
      <use x="430.306183" xlink:href="#Ubuntu-119"/>
      <use x="508.006165" xlink:href="#Ubuntu-101"/>
      <use x="563.906158" xlink:href="#Ubuntu-114"/>
      <use x="602.506149" xlink:href="#Ubuntu-32"/>
      <use x="625.60614" xlink:href="#Ubuntu-66"/>
      <use x="689.906128" xlink:href="#Ubuntu-111"/>
      <use x="748.906113" xlink:href="#Ubuntu-117"/>
      <use x="806.306107" xlink:href="#Ubuntu-110"/>
      <use x="863.7061" xlink:href="#Ubuntu-100"/>
     </g>
    </g>
    <g id="line2d_43">
     <path d="M 391.613875 94.278437 
L 411.613875 94.278437 
" style="fill:none;stroke:#000000;stroke-dasharray:17.28,4.32,2.7,4.32;stroke-dashoffset:0;stroke-width:2.7;"/>
    </g>
    <g id="line2d_44"/>
    <g id="text_22">
     <!-- Posterior Mean -->
     <defs>
      <path d="M 27 70 
Q 41.59375 70 49.4375 64.453125 
Q 57.296875 58.90625 57.296875 47.90625 
Q 57.296875 41.90625 55.140625 37.65625 
Q 53 33.40625 48.953125 30.75 
Q 44.90625 28.09375 39.09375 26.890625 
Q 33.296875 25.703125 26 25.703125 
L 18.296875 25.703125 
L 18.296875 0 
L 8.59375 0 
L 8.59375 68.296875 
Q 12.703125 69.296875 17.75 69.640625 
Q 22.796875 70 27 70 
z
M 27.796875 61.5 
Q 21.59375 61.5 18.296875 61.203125 
L 18.296875 34 
L 25.59375 34 
Q 30.59375 34 34.59375 34.640625 
Q 38.59375 35.296875 41.34375 36.84375 
Q 44.09375 38.40625 45.59375 41.09375 
Q 47.09375 43.796875 47.09375 48 
Q 47.09375 52 45.546875 54.59375 
Q 44 57.203125 41.34375 58.75 
Q 38.703125 60.296875 35.203125 60.890625 
Q 31.703125 61.5 27.796875 61.5 
z
" id="Ubuntu-80"/>
      <path d="M 17.296875 0 
L 8 0 
L 8 52 
L 17.296875 52 
z
M 12.59375 61.40625 
Q 10.09375 61.40625 8.34375 63.046875 
Q 6.59375 64.703125 6.59375 67.5 
Q 6.59375 70.296875 8.34375 71.9375 
Q 10.09375 73.59375 12.59375 73.59375 
Q 15.09375 73.59375 16.84375 71.9375 
Q 18.59375 70.296875 18.59375 67.5 
Q 18.59375 64.703125 16.84375 63.046875 
Q 15.09375 61.40625 12.59375 61.40625 
z
" id="Ubuntu-105"/>
      <path d="M 39.703125 9.59375 
Q 38.703125 12 37.046875 15.703125 
Q 35.40625 19.40625 33.5 23.703125 
Q 31.59375 28 29.4375 32.546875 
Q 27.296875 37.09375 25.390625 41.140625 
Q 23.5 45.203125 21.84375 48.390625 
Q 20.203125 51.59375 19.203125 53.296875 
Q 18.09375 41.5 17.390625 27.75 
Q 16.703125 14 16.203125 0 
L 6.703125 0 
Q 7.09375 9 7.59375 18.140625 
Q 8.09375 27.296875 8.75 36.140625 
Q 9.40625 45 10.15625 53.390625 
Q 10.90625 61.796875 11.796875 69.296875 
L 20.296875 69.296875 
Q 23 64.90625 26.09375 58.90625 
Q 29.203125 52.90625 32.296875 46.34375 
Q 35.40625 39.796875 38.296875 33.25 
Q 41.203125 26.703125 43.59375 21.296875 
Q 46 26.703125 48.890625 33.25 
Q 51.796875 39.796875 54.890625 46.34375 
Q 58 52.90625 61.09375 58.90625 
Q 64.203125 64.90625 66.90625 69.296875 
L 75.40625 69.296875 
Q 78.796875 35.796875 80.5 0 
L 71 0 
Q 70.5 14 69.796875 27.75 
Q 69.09375 41.5 68 53.296875 
Q 67 51.59375 65.34375 48.390625 
Q 63.703125 45.203125 61.796875 41.140625 
Q 59.90625 37.09375 57.75 32.546875 
Q 55.59375 28 53.6875 23.703125 
Q 51.796875 19.40625 50.140625 15.703125 
Q 48.5 12 47.5 9.59375 
z
" id="Ubuntu-77"/>
     </defs>
     <g transform="translate(419.613875 97.778437)scale(0.1 -0.1)">
      <use xlink:href="#Ubuntu-80"/>
      <use x="60.768738" xlink:href="#Ubuntu-111"/>
      <use x="119.768723" xlink:href="#Ubuntu-115"/>
      <use x="164.368713" xlink:href="#Ubuntu-116"/>
      <use x="204.553085" xlink:href="#Ubuntu-101"/>
      <use x="260.453079" xlink:href="#Ubuntu-114"/>
      <use x="299.05307" xlink:href="#Ubuntu-105"/>
      <use x="324.353058" xlink:href="#Ubuntu-111"/>
      <use x="383.353043" xlink:href="#Ubuntu-114"/>
      <use x="421.953033" xlink:href="#Ubuntu-32"/>
      <use x="445.053024" xlink:href="#Ubuntu-77"/>
      <use x="532.153015" xlink:href="#Ubuntu-101"/>
      <use x="588.053009" xlink:href="#Ubuntu-97"/>
      <use x="640.253006" xlink:href="#Ubuntu-110"/>
     </g>
    </g>
    <g id="PathCollection_1">
     <defs>
      <path d="M 0 7.071068 
C 1.875269 7.071068 3.673985 6.326016 5 5 
C 6.326016 3.673985 7.071068 1.875269 7.071068 0 
C 7.071068 -1.875269 6.326016 -3.673985 5 -5 
C 3.673985 -6.326016 1.875269 -7.071068 0 -7.071068 
C -1.875269 -7.071068 -3.673985 -6.326016 -5 -5 
C -6.326016 -3.673985 -7.071068 -1.875269 -7.071068 0 
C -7.071068 1.875269 -6.326016 3.673985 -5 5 
C -3.673985 6.326016 -1.875269 7.071068 0 7.071068 
z
" id="mb93f0efbbc" style="stroke:#ff0000;stroke-width:0.24;"/>
     </defs>
     <g>
      <use style="fill:#ff0000;stroke:#ff0000;stroke-width:0.24;" x="401.613875" xlink:href="#mb93f0efbbc" y="109.762812"/>
     </g>
    </g>
    <g id="text_23">
     <!-- Training Point -->
     <defs>
      <path d="M 54.90625 69.296875 
L 54.90625 60.90625 
L 33.09375 60.90625 
L 33.09375 0 
L 23.40625 0 
L 23.40625 60.90625 
L 1.59375 60.90625 
L 1.59375 69.296875 
z
" id="Ubuntu-84"/>
     </defs>
     <g transform="translate(419.613875 112.387812)scale(0.1 -0.1)">
      <use xlink:href="#Ubuntu-84"/>
      <use x="56.437485" xlink:href="#Ubuntu-114"/>
      <use x="95.037476" xlink:href="#Ubuntu-97"/>
      <use x="147.237473" xlink:href="#Ubuntu-105"/>
      <use x="172.53746" xlink:href="#Ubuntu-110"/>
      <use x="229.937454" xlink:href="#Ubuntu-105"/>
      <use x="255.237442" xlink:href="#Ubuntu-110"/>
      <use x="312.637436" xlink:href="#Ubuntu-103"/>
      <use x="370.437424" xlink:href="#Ubuntu-32"/>
      <use x="393.537415" xlink:href="#Ubuntu-80"/>
      <use x="454.306152" xlink:href="#Ubuntu-111"/>
      <use x="513.306137" xlink:href="#Ubuntu-105"/>
      <use x="538.606125" xlink:href="#Ubuntu-110"/>
      <use x="596.006119" xlink:href="#Ubuntu-116"/>
     </g>
    </g>
   </g>
   <g id="PathCollection_2">
    <g clip-path="url(#p44e8a4a5ec)">
     <use style="fill:#ff0000;stroke:#ff0000;stroke-width:0.24;" x="75.003693" xlink:href="#mb93f0efbbc" y="123.421356"/>
    </g>
   </g>
  </g>
 </g>
 <defs>
  <clipPath id="p44e8a4a5ec">
   <rect height="217.44" width="334.8" x="34.421875" y="22.51125"/>
  </clipPath>
 </defs>
</svg>
