<?xml version="1.0" encoding="utf-8" standalone="no"?>
<!DOCTYPE svg PUBLIC "-//W3C//DTD SVG 1.1//EN"
  "http://www.w3.org/Graphics/SVG/1.1/DTD/svg11.dtd">
<!-- Created with matplotlib (https://matplotlib.org/) -->
<svg height="273.810375pt" version="1.1" viewBox="0 0 545.562662 273.810375" width="545.562662pt" xmlns="http://www.w3.org/2000/svg" xmlns:xlink="http://www.w3.org/1999/xlink">
 <defs>
  <style type="text/css">
*{stroke-linecap:butt;stroke-linejoin:round;white-space:pre;}
  </style>
 </defs>
 <g id="figure_1">
  <g id="patch_1">
   <path d="M 0 273.810375 
L 545.562662 273.810375 
L 545.562662 0 
L 0 0 
z
" style="fill:#f0f0f0;"/>
  </g>
  <g id="axes_1">
   <g id="patch_2">
    <path d="M 28.821875 241.8135 
L 404.661875 241.8135 
L 404.661875 24.3735 
L 28.821875 24.3735 
z
" style="fill:#f0f0f0;"/>
   </g>
   <g id="matplotlib.axis_1">
    <g id="xtick_1">
     <g id="line2d_1">
      <path clip-path="url(#p815b02483a)" d="M 45.905511 241.8135 
L 45.905511 24.3735 
" style="fill:none;stroke:#cbcbcb;"/>
     </g>
     <g id="line2d_2"/>
     <g id="text_1">
      <!-- 0 -->
      <defs>
       <path d="M 5 34.703125 
Q 5 52.09375 11.140625 61.5 
Q 17.296875 70.90625 28.203125 70.90625 
Q 39.09375 70.90625 45.25 61.5 
Q 51.40625 52.09375 51.40625 34.703125 
Q 51.40625 17.296875 45.25 7.890625 
Q 39.09375 -1.5 28.203125 -1.5 
Q 17.296875 -1.5 11.140625 7.890625 
Q 5 17.296875 5 34.703125 
z
M 41.59375 34.703125 
Q 41.59375 40.40625 40.9375 45.5 
Q 40.296875 50.59375 38.75 54.390625 
Q 37.203125 58.203125 34.59375 60.453125 
Q 32 62.703125 28.203125 62.703125 
Q 24.40625 62.703125 21.796875 60.453125 
Q 19.203125 58.203125 17.640625 54.390625 
Q 16.09375 50.59375 15.4375 45.5 
Q 14.796875 40.40625 14.796875 34.703125 
Q 14.796875 29 15.4375 23.890625 
Q 16.09375 18.796875 17.640625 15 
Q 19.203125 11.203125 21.796875 8.953125 
Q 24.40625 6.703125 28.203125 6.703125 
Q 32 6.703125 34.59375 8.953125 
Q 37.203125 11.203125 38.75 15 
Q 40.296875 18.796875 40.9375 23.890625 
Q 41.59375 29 41.59375 34.703125 
z
" id="Ubuntu-48"/>
      </defs>
      <g transform="translate(43.649261 251.521)scale(0.08 -0.08)">
       <use xlink:href="#Ubuntu-48"/>
      </g>
     </g>
    </g>
    <g id="xtick_2">
     <g id="line2d_3">
      <path clip-path="url(#p815b02483a)" d="M 102.850966 241.8135 
L 102.850966 24.3735 
" style="fill:none;stroke:#cbcbcb;"/>
     </g>
     <g id="line2d_4"/>
     <g id="text_2">
      <!-- 1 -->
      <defs>
       <path d="M 9.296875 55 
Q 15 57.203125 20.390625 60.640625 
Q 25.796875 64.09375 30.296875 69.296875 
L 36.90625 69.296875 
L 36.90625 0 
L 27.59375 0 
L 27.59375 56.40625 
Q 26.40625 55.296875 24.65625 54.09375 
Q 22.90625 52.90625 20.84375 51.796875 
Q 18.796875 50.703125 16.546875 49.703125 
Q 14.296875 48.703125 12.203125 48 
z
" id="Ubuntu-49"/>
      </defs>
      <g transform="translate(100.594716 251.521)scale(0.08 -0.08)">
       <use xlink:href="#Ubuntu-49"/>
      </g>
     </g>
    </g>
    <g id="xtick_3">
     <g id="line2d_5">
      <path clip-path="url(#p815b02483a)" d="M 159.79642 241.8135 
L 159.79642 24.3735 
" style="fill:none;stroke:#cbcbcb;"/>
     </g>
     <g id="line2d_6"/>
     <g id="text_3">
      <!-- 2 -->
      <defs>
       <path d="M 46.703125 51.59375 
Q 46.703125 48 45.25 44.640625 
Q 43.796875 41.296875 41.390625 38.046875 
Q 39 34.796875 36 31.640625 
Q 33 28.5 30 25.5 
Q 28.296875 23.796875 26.046875 21.5 
Q 23.796875 19.203125 21.796875 16.703125 
Q 19.796875 14.203125 18.4375 11.890625 
Q 17.09375 9.59375 17.09375 7.90625 
L 49 7.90625 
L 49 0 
L 7 0 
Q 6.90625 0.59375 6.90625 1.1875 
Q 6.90625 1.796875 6.90625 2.296875 
Q 6.90625 7 8.453125 11.046875 
Q 10 15.09375 12.5 18.6875 
Q 15 22.296875 18.09375 25.5 
Q 21.203125 28.703125 24.203125 31.703125 
Q 26.703125 34.09375 28.953125 36.4375 
Q 31.203125 38.796875 32.953125 41.140625 
Q 34.703125 43.5 35.75 46 
Q 36.796875 48.5 36.796875 51.296875 
Q 36.796875 54.296875 35.84375 56.390625 
Q 34.90625 58.5 33.296875 59.890625 
Q 31.703125 61.296875 29.546875 61.9375 
Q 27.40625 62.59375 25 62.59375 
Q 22.09375 62.59375 19.6875 61.796875 
Q 17.296875 61 15.390625 59.953125 
Q 13.5 58.90625 12.203125 57.75 
Q 10.90625 56.59375 10.203125 56 
L 5.59375 62.59375 
Q 6.5 63.59375 8.296875 65.046875 
Q 10.09375 66.5 12.59375 67.796875 
Q 15.09375 69.09375 18.1875 70 
Q 21.296875 70.90625 24.90625 70.90625 
Q 35.796875 70.90625 41.25 65.84375 
Q 46.703125 60.796875 46.703125 51.59375 
z
" id="Ubuntu-50"/>
      </defs>
      <g transform="translate(157.54017 251.521)scale(0.08 -0.08)">
       <use xlink:href="#Ubuntu-50"/>
      </g>
     </g>
    </g>
    <g id="xtick_4">
     <g id="line2d_7">
      <path clip-path="url(#p815b02483a)" d="M 216.741875 241.8135 
L 216.741875 24.3735 
" style="fill:none;stroke:#cbcbcb;"/>
     </g>
     <g id="line2d_8"/>
     <g id="text_4">
      <!-- 3 -->
      <defs>
       <path d="M 22.59375 6.796875 
Q 31.5 6.796875 35.34375 10.296875 
Q 39.203125 13.796875 39.203125 19.703125 
Q 39.203125 23.5 37.59375 26.09375 
Q 36 28.703125 33.390625 30.25 
Q 30.796875 31.796875 27.34375 32.4375 
Q 23.90625 33.09375 20.296875 33.09375 
L 17.90625 33.09375 
L 17.90625 40.703125 
L 21.203125 40.703125 
Q 23.703125 40.703125 26.34375 41.203125 
Q 29 41.703125 31.203125 43 
Q 33.40625 44.296875 34.796875 46.546875 
Q 36.203125 48.796875 36.203125 52.203125 
Q 36.203125 55 35.203125 57 
Q 34.203125 59 32.546875 60.296875 
Q 30.90625 61.59375 28.75 62.140625 
Q 26.59375 62.703125 24.203125 62.703125 
Q 19.40625 62.703125 16.046875 61.296875 
Q 12.703125 59.90625 10.40625 58.40625 
L 6.796875 65.5 
Q 8 66.296875 9.84375 67.25 
Q 11.703125 68.203125 14 69 
Q 16.296875 69.796875 18.9375 70.34375 
Q 21.59375 70.90625 24.5 70.90625 
Q 30 70.90625 34 69.546875 
Q 38 68.203125 40.59375 65.75 
Q 43.203125 63.296875 44.5 59.9375 
Q 45.796875 56.59375 45.796875 52.703125 
Q 45.796875 47.296875 42.6875 43.4375 
Q 39.59375 39.59375 35.203125 37.59375 
Q 37.90625 36.796875 40.40625 35.296875 
Q 42.90625 33.796875 44.75 31.5 
Q 46.59375 29.203125 47.75 26.203125 
Q 48.90625 23.203125 48.90625 19.5 
Q 48.90625 15 47.34375 11.140625 
Q 45.796875 7.296875 42.546875 4.5 
Q 39.296875 1.703125 34.390625 0.09375 
Q 29.5 -1.5 22.796875 -1.5 
Q 20.203125 -1.5 17.453125 -1.09375 
Q 14.703125 -0.703125 12.296875 -0.09375 
Q 9.90625 0.5 8.09375 1.09375 
Q 6.296875 1.703125 5.5 2.09375 
L 7.296875 10.203125 
Q 9 9.40625 12.953125 8.09375 
Q 16.90625 6.796875 22.59375 6.796875 
z
" id="Ubuntu-51"/>
      </defs>
      <g transform="translate(214.485625 251.521)scale(0.08 -0.08)">
       <use xlink:href="#Ubuntu-51"/>
      </g>
     </g>
    </g>
    <g id="xtick_5">
     <g id="line2d_9">
      <path clip-path="url(#p815b02483a)" d="M 273.68733 241.8135 
L 273.68733 24.3735 
" style="fill:none;stroke:#cbcbcb;"/>
     </g>
     <g id="line2d_10"/>
     <g id="text_5">
      <!-- 4 -->
      <defs>
       <path d="M 4 24 
Q 5.90625 28.40625 9.203125 34.25 
Q 12.5 40.09375 16.640625 46.296875 
Q 20.796875 52.5 25.546875 58.5 
Q 30.296875 64.5 35.09375 69.296875 
L 44 69.296875 
L 44 25.296875 
L 52.203125 25.296875 
L 52.203125 17.703125 
L 44 17.703125 
L 44 0 
L 35 0 
L 35 17.703125 
L 4 17.703125 
z
M 35 58.296875 
Q 32 55.09375 28.953125 51.140625 
Q 25.90625 47.203125 23 42.890625 
Q 20.09375 38.59375 17.546875 34.09375 
Q 15 29.59375 13 25.296875 
L 35 25.296875 
z
" id="Ubuntu-52"/>
      </defs>
      <g transform="translate(271.43108 251.521)scale(0.08 -0.08)">
       <use xlink:href="#Ubuntu-52"/>
      </g>
     </g>
    </g>
    <g id="xtick_6">
     <g id="line2d_11">
      <path clip-path="url(#p815b02483a)" d="M 330.632784 241.8135 
L 330.632784 24.3735 
" style="fill:none;stroke:#cbcbcb;"/>
     </g>
     <g id="line2d_12"/>
     <g id="text_6">
      <!-- 5 -->
      <defs>
       <path d="M 19.90625 42.59375 
Q 35 42 42.046875 36 
Q 49.09375 30 49.09375 19.703125 
Q 49.09375 15.09375 47.546875 11.1875 
Q 46 7.296875 42.84375 4.5 
Q 39.703125 1.703125 34.890625 0.09375 
Q 30.09375 -1.5 23.5 -1.5 
Q 20.90625 -1.5 18.203125 -1.09375 
Q 15.5 -0.703125 13.203125 -0.09375 
Q 10.90625 0.5 9.09375 1.09375 
Q 7.296875 1.703125 6.5 2.09375 
L 8.296875 10.203125 
Q 10 9.40625 13.84375 8.09375 
Q 17.703125 6.796875 23.296875 6.796875 
Q 27.796875 6.796875 30.84375 7.796875 
Q 33.90625 8.796875 35.796875 10.5 
Q 37.703125 12.203125 38.546875 14.453125 
Q 39.40625 16.703125 39.40625 19.203125 
Q 39.40625 23 38.09375 25.953125 
Q 36.796875 28.90625 33.5 30.90625 
Q 30.203125 32.90625 24.703125 33.953125 
Q 19.203125 35 10.796875 35 
Q 11.40625 39.90625 11.75 44.203125 
Q 12.09375 48.5 12.390625 52.59375 
Q 12.703125 56.703125 12.890625 60.75 
Q 13.09375 64.796875 13.296875 69.296875 
L 46.703125 69.296875 
L 46.703125 61.40625 
L 21.40625 61.40625 
Q 21.296875 59.90625 21.09375 57.34375 
Q 20.90625 54.796875 20.703125 52.046875 
Q 20.5 49.296875 20.296875 46.6875 
Q 20.09375 44.09375 19.90625 42.59375 
z
" id="Ubuntu-53"/>
      </defs>
      <g transform="translate(328.376534 251.521)scale(0.08 -0.08)">
       <use xlink:href="#Ubuntu-53"/>
      </g>
     </g>
    </g>
    <g id="xtick_7">
     <g id="line2d_13">
      <path clip-path="url(#p815b02483a)" d="M 387.578239 241.8135 
L 387.578239 24.3735 
" style="fill:none;stroke:#cbcbcb;"/>
     </g>
     <g id="line2d_14"/>
     <g id="text_7">
      <!-- 6 -->
      <defs>
       <path d="M 6.296875 27.796875 
Q 6.296875 37.90625 9.09375 45.65625 
Q 11.90625 53.40625 17.046875 58.703125 
Q 22.203125 64 29.546875 66.75 
Q 36.90625 69.5 46.09375 69.59375 
L 46.796875 61.796875 
Q 40.90625 61.703125 36.046875 60.5 
Q 31.203125 59.296875 27.390625 56.6875 
Q 23.59375 54.09375 21 49.9375 
Q 18.40625 45.796875 17.09375 39.703125 
Q 19.703125 40.90625 22.953125 41.703125 
Q 26.203125 42.5 29.703125 42.5 
Q 35.59375 42.5 39.6875 40.703125 
Q 43.796875 38.90625 46.390625 35.953125 
Q 49 33 50.140625 29.140625 
Q 51.296875 25.296875 51.296875 21.09375 
Q 51.296875 17.296875 50 13.296875 
Q 48.703125 9.296875 46.046875 6 
Q 43.40625 2.703125 39.296875 0.59375 
Q 35.203125 -1.5 29.59375 -1.5 
Q 18.203125 -1.5 12.25 6.296875 
Q 6.296875 14.09375 6.296875 27.796875 
z
M 28.703125 34.90625 
Q 25.203125 34.90625 22.203125 34.25 
Q 19.203125 33.59375 16.203125 32.296875 
Q 16.09375 31.203125 16.046875 30.046875 
Q 16 28.90625 16 27.796875 
Q 16 23.40625 16.59375 19.5 
Q 17.203125 15.59375 18.75 12.640625 
Q 20.296875 9.703125 22.890625 7.953125 
Q 25.5 6.203125 29.5 6.203125 
Q 32.796875 6.203125 35.09375 7.59375 
Q 37.40625 9 38.90625 11.203125 
Q 40.40625 13.40625 41.046875 15.953125 
Q 41.703125 18.5 41.703125 20.90625 
Q 41.703125 27.703125 38.453125 31.296875 
Q 35.203125 34.90625 28.703125 34.90625 
z
" id="Ubuntu-54"/>
      </defs>
      <g transform="translate(385.321989 251.521)scale(0.08 -0.08)">
       <use xlink:href="#Ubuntu-54"/>
      </g>
     </g>
    </g>
    <g id="text_8">
     <!-- X -->
     <defs>
      <path d="M 50.203125 0 
Q 48.703125 3 46.59375 6.640625 
Q 44.5 10.296875 42 14.25 
Q 39.5 18.203125 36.796875 22.140625 
Q 34.09375 26.09375 31.59375 29.59375 
Q 29.09375 26.09375 26.390625 22.140625 
Q 23.703125 18.203125 21.25 14.25 
Q 18.796875 10.296875 16.640625 6.640625 
Q 14.5 3 13 0 
L 2.296875 0 
Q 6.796875 8.796875 12.75 17.890625 
Q 18.703125 27 25.40625 36.59375 
L 3.203125 69.296875 
L 14.40625 69.296875 
L 31.5 43.5 
L 48.40625 69.296875 
L 59.5 69.296875 
L 37.703125 37 
Q 44.5 27.296875 50.5 18.09375 
Q 56.5 8.90625 61.09375 0 
z
" id="Ubuntu-88"/>
     </defs>
     <g transform="translate(213.587187 264.760375)scale(0.1 -0.1)">
      <use xlink:href="#Ubuntu-88"/>
     </g>
    </g>
   </g>
   <g id="matplotlib.axis_2">
    <g id="ytick_1">
     <g id="line2d_15">
      <path clip-path="url(#p815b02483a)" d="M 28.821875 210.465873 
L 404.661875 210.465873 
" style="fill:none;stroke:#cbcbcb;"/>
     </g>
     <g id="line2d_16"/>
     <g id="text_9">
      <!-- 0 -->
      <g transform="translate(20.809375 213.569623)scale(0.08 -0.08)">
       <use xlink:href="#Ubuntu-48"/>
      </g>
     </g>
    </g>
    <g id="ytick_2">
     <g id="line2d_17">
      <path clip-path="url(#p815b02483a)" d="M 28.821875 167.364465 
L 404.661875 167.364465 
" style="fill:none;stroke:#cbcbcb;"/>
     </g>
     <g id="line2d_18"/>
     <g id="text_10">
      <!-- 2 -->
      <g transform="translate(20.809375 170.468215)scale(0.08 -0.08)">
       <use xlink:href="#Ubuntu-50"/>
      </g>
     </g>
    </g>
    <g id="ytick_3">
     <g id="line2d_19">
      <path clip-path="url(#p815b02483a)" d="M 28.821875 124.263057 
L 404.661875 124.263057 
" style="fill:none;stroke:#cbcbcb;"/>
     </g>
     <g id="line2d_20"/>
     <g id="text_11">
      <!-- 4 -->
      <g transform="translate(20.809375 127.366807)scale(0.08 -0.08)">
       <use xlink:href="#Ubuntu-52"/>
      </g>
     </g>
    </g>
    <g id="ytick_4">
     <g id="line2d_21">
      <path clip-path="url(#p815b02483a)" d="M 28.821875 81.161649 
L 404.661875 81.161649 
" style="fill:none;stroke:#cbcbcb;"/>
     </g>
     <g id="line2d_22"/>
     <g id="text_12">
      <!-- 6 -->
      <g transform="translate(20.809375 84.265399)scale(0.08 -0.08)">
       <use xlink:href="#Ubuntu-54"/>
      </g>
     </g>
    </g>
    <g id="ytick_5">
     <g id="line2d_23">
      <path clip-path="url(#p815b02483a)" d="M 28.821875 38.060241 
L 404.661875 38.060241 
" style="fill:none;stroke:#cbcbcb;"/>
     </g>
     <g id="line2d_24"/>
     <g id="text_13">
      <!-- 8 -->
      <defs>
       <path d="M 50.90625 18 
Q 50.90625 13.796875 49.453125 10.25 
Q 48 6.703125 45.140625 4.046875 
Q 42.296875 1.40625 38 -0.046875 
Q 33.703125 -1.5 28.09375 -1.5 
Q 21.59375 -1.5 17.25 0.34375 
Q 12.90625 2.203125 10.296875 5 
Q 7.703125 7.796875 6.59375 11.140625 
Q 5.5 14.5 5.5 17.5 
Q 5.5 20.40625 6.453125 23.046875 
Q 7.40625 25.703125 8.953125 28 
Q 10.5 30.296875 12.546875 32.140625 
Q 14.59375 34 16.90625 35.40625 
Q 7.09375 41 7.09375 51.90625 
Q 7.09375 55.703125 8.59375 59.140625 
Q 10.09375 62.59375 12.84375 65.1875 
Q 15.59375 67.796875 19.5 69.34375 
Q 23.40625 70.90625 28.203125 70.90625 
Q 33.796875 70.90625 37.796875 69.203125 
Q 41.796875 67.5 44.34375 64.84375 
Q 46.90625 62.203125 48.046875 59 
Q 49.203125 55.796875 49.203125 52.796875 
Q 49.203125 49.90625 48.34375 47.34375 
Q 47.5 44.796875 46.046875 42.59375 
Q 44.59375 40.40625 42.75 38.703125 
Q 40.90625 37 38.90625 35.703125 
Q 50.703125 30.09375 50.90625 18 
z
M 14.90625 17.40625 
Q 14.90625 15.59375 15.546875 13.640625 
Q 16.203125 11.703125 17.796875 10.046875 
Q 19.40625 8.40625 21.90625 7.296875 
Q 24.40625 6.203125 28.203125 6.203125 
Q 31.59375 6.203125 34.140625 7.203125 
Q 36.703125 8.203125 38.296875 9.75 
Q 39.90625 11.296875 40.703125 13.296875 
Q 41.5 15.296875 41.5 17.40625 
Q 41.5 20.59375 40.296875 23 
Q 39.09375 25.40625 36.84375 27.203125 
Q 34.59375 29 31.4375 30.25 
Q 28.296875 31.5 24.296875 32.40625 
Q 19.796875 29.90625 17.34375 26.203125 
Q 14.90625 22.5 14.90625 17.40625 
z
M 39.90625 52.90625 
Q 39.90625 54.40625 39.25 56.203125 
Q 38.59375 58 37.1875 59.546875 
Q 35.796875 61.09375 33.59375 62.140625 
Q 31.40625 63.203125 28.203125 63.203125 
Q 25 63.203125 22.75 62.203125 
Q 20.5 61.203125 19.09375 59.640625 
Q 17.703125 58.09375 17.046875 56.25 
Q 16.40625 54.40625 16.40625 52.59375 
Q 16.40625 50.40625 17.203125 48.203125 
Q 18 46 19.703125 44.09375 
Q 21.40625 42.203125 24.15625 40.703125 
Q 26.90625 39.203125 30.703125 38.296875 
Q 34.90625 40.796875 37.40625 44.140625 
Q 39.90625 47.5 39.90625 52.90625 
z
" id="Ubuntu-56"/>
      </defs>
      <g transform="translate(20.809375 41.163991)scale(0.08 -0.08)">
       <use xlink:href="#Ubuntu-56"/>
      </g>
     </g>
    </g>
    <g id="text_14">
     <!-- Gold content -->
     <defs>
      <path d="M 50.90625 34.09375 
L 60.59375 34.09375 
L 60.59375 1.703125 
Q 59.40625 1.296875 57.15625 0.796875 
Q 54.90625 0.296875 51.953125 -0.203125 
Q 49 -0.703125 45.5 -1.046875 
Q 42 -1.40625 38.40625 -1.40625 
Q 31.09375 -1.40625 25.09375 1 
Q 19.09375 3.40625 14.796875 8 
Q 10.5 12.59375 8.140625 19.296875 
Q 5.796875 26 5.796875 34.703125 
Q 5.796875 43.40625 8.4375 50.15625 
Q 11.09375 56.90625 15.59375 61.5 
Q 20.09375 66.09375 26.140625 68.5 
Q 32.203125 70.90625 39.09375 70.90625 
Q 43.796875 70.90625 47.4375 70.296875 
Q 51.09375 69.703125 53.6875 68.890625 
Q 56.296875 68.09375 57.9375 67.296875 
Q 59.59375 66.5 60.203125 66.09375 
L 57.09375 58 
Q 54.203125 59.90625 49.390625 61.15625 
Q 44.59375 62.40625 39.59375 62.40625 
Q 34.296875 62.40625 29.9375 60.5 
Q 25.59375 58.59375 22.546875 55 
Q 19.5 51.40625 17.796875 46.25 
Q 16.09375 41.09375 16.09375 34.703125 
Q 16.09375 28.5 17.546875 23.390625 
Q 19 18.296875 21.953125 14.640625 
Q 24.90625 11 29.25 9 
Q 33.59375 7 39.5 7 
Q 43.703125 7 46.640625 7.453125 
Q 49.59375 7.90625 50.90625 8.296875 
z
" id="Ubuntu-71"/>
      <path d="M 53.90625 26 
Q 53.90625 19.796875 52.09375 14.796875 
Q 50.296875 9.796875 47.046875 6.1875 
Q 43.796875 2.59375 39.296875 0.640625 
Q 34.796875 -1.296875 29.5 -1.296875 
Q 24.203125 -1.296875 19.703125 0.640625 
Q 15.203125 2.59375 11.953125 6.1875 
Q 8.703125 9.796875 6.890625 14.796875 
Q 5.09375 19.796875 5.09375 26 
Q 5.09375 32.09375 6.890625 37.140625 
Q 8.703125 42.203125 11.953125 45.796875 
Q 15.203125 49.40625 19.703125 51.34375 
Q 24.203125 53.296875 29.5 53.296875 
Q 34.796875 53.296875 39.296875 51.34375 
Q 43.796875 49.40625 47.046875 45.796875 
Q 50.296875 42.203125 52.09375 37.140625 
Q 53.90625 32.09375 53.90625 26 
z
M 44.203125 26 
Q 44.203125 34.796875 40.25 39.9375 
Q 36.296875 45.09375 29.5 45.09375 
Q 22.703125 45.09375 18.75 39.9375 
Q 14.796875 34.796875 14.796875 26 
Q 14.796875 17.203125 18.75 12.046875 
Q 22.703125 6.90625 29.5 6.90625 
Q 36.296875 6.90625 40.25 12.046875 
Q 44.203125 17.203125 44.203125 26 
z
" id="Ubuntu-111"/>
      <path d="M 23.59375 -1 
Q 15 -0.796875 11.390625 2.703125 
Q 7.796875 6.203125 7.796875 13.59375 
L 7.796875 76 
L 17.09375 77.59375 
L 17.09375 15.09375 
Q 17.09375 12.796875 17.5 11.296875 
Q 17.90625 9.796875 18.796875 8.890625 
Q 19.703125 8 21.203125 7.546875 
Q 22.703125 7.09375 24.90625 6.796875 
z
" id="Ubuntu-108"/>
      <path d="M 41.59375 41 
Q 39.90625 42.40625 36.703125 43.703125 
Q 33.5 45 29.703125 45 
Q 25.703125 45 22.84375 43.546875 
Q 20 42.09375 18.203125 39.546875 
Q 16.40625 37 15.59375 33.5 
Q 14.796875 30 14.796875 26 
Q 14.796875 16.90625 19.296875 11.953125 
Q 23.796875 7 31.296875 7 
Q 35.09375 7 37.640625 7.34375 
Q 40.203125 7.703125 41.59375 8.09375 
z
M 41.59375 76 
L 50.90625 77.59375 
L 50.90625 1.5 
Q 47.703125 0.59375 42.703125 -0.296875 
Q 37.703125 -1.203125 31.203125 -1.203125 
Q 25.203125 -1.203125 20.390625 0.6875 
Q 15.59375 2.59375 12.1875 6.09375 
Q 8.796875 9.59375 6.9375 14.640625 
Q 5.09375 19.703125 5.09375 26 
Q 5.09375 32 6.640625 37 
Q 8.203125 42 11.203125 45.59375 
Q 14.203125 49.203125 18.546875 51.203125 
Q 22.90625 53.203125 28.5 53.203125 
Q 33 53.203125 36.453125 52 
Q 39.90625 50.796875 41.59375 49.703125 
z
" id="Ubuntu-100"/>
      <path id="Ubuntu-32"/>
      <path d="M 30.59375 -1.203125 
Q 24.296875 -1.203125 19.546875 0.796875 
Q 14.796875 2.796875 11.546875 6.390625 
Q 8.296875 10 6.6875 14.953125 
Q 5.09375 19.90625 5.09375 25.90625 
Q 5.09375 31.90625 6.84375 36.90625 
Q 8.59375 41.90625 11.796875 45.546875 
Q 15 49.203125 19.640625 51.25 
Q 24.296875 53.296875 30 53.296875 
Q 33.5 53.296875 37 52.6875 
Q 40.5 52.09375 43.703125 50.796875 
L 41.59375 42.90625 
Q 39.5 43.90625 36.75 44.5 
Q 34 45.09375 30.90625 45.09375 
Q 23.09375 45.09375 18.9375 40.1875 
Q 14.796875 35.296875 14.796875 25.90625 
Q 14.796875 21.703125 15.75 18.203125 
Q 16.703125 14.703125 18.75 12.203125 
Q 20.796875 9.703125 24 8.34375 
Q 27.203125 7 31.796875 7 
Q 35.5 7 38.5 7.703125 
Q 41.5 8.40625 43.203125 9.203125 
L 44.5 1.40625 
Q 43.703125 0.90625 42.203125 0.453125 
Q 40.703125 0 38.796875 -0.34375 
Q 36.90625 -0.703125 34.75 -0.953125 
Q 32.59375 -1.203125 30.59375 -1.203125 
z
" id="Ubuntu-99"/>
      <path d="M 8 50.5 
Q 11.203125 51.296875 16.5 52.1875 
Q 21.796875 53.09375 28.703125 53.09375 
Q 34.90625 53.09375 39 51.34375 
Q 43.09375 49.59375 45.546875 46.4375 
Q 48 43.296875 49 38.890625 
Q 50 34.5 50 29.203125 
L 50 0 
L 40.703125 0 
L 40.703125 27.203125 
Q 40.703125 32 40.046875 35.390625 
Q 39.40625 38.796875 37.90625 40.890625 
Q 36.40625 43 33.90625 43.953125 
Q 31.40625 44.90625 27.703125 44.90625 
Q 26.203125 44.90625 24.59375 44.796875 
Q 23 44.703125 21.546875 44.546875 
Q 20.09375 44.40625 18.9375 44.203125 
Q 17.796875 44 17.296875 43.90625 
L 17.296875 0 
L 8 0 
z
" id="Ubuntu-110"/>
      <path d="M 16.703125 52 
L 36.40625 52 
L 36.40625 44.203125 
L 16.703125 44.203125 
L 16.703125 20.203125 
Q 16.703125 16.296875 17.296875 13.75 
Q 17.90625 11.203125 19.09375 9.75 
Q 20.296875 8.296875 22.09375 7.6875 
Q 23.90625 7.09375 26.296875 7.09375 
Q 30.5 7.09375 33.046875 8.046875 
Q 35.59375 9 36.59375 9.40625 
L 38.40625 1.703125 
Q 37 1 33.5 -0.046875 
Q 30 -1.09375 25.5 -1.09375 
Q 20.203125 -1.09375 16.75 0.25 
Q 13.296875 1.59375 11.1875 4.296875 
Q 9.09375 7 8.25 10.953125 
Q 7.40625 14.90625 7.40625 20.09375 
L 7.40625 66.5 
L 16.703125 68.09375 
z
" id="Ubuntu-116"/>
      <path d="M 5.09375 25.90625 
Q 5.09375 32.796875 7.09375 37.9375 
Q 9.09375 43.09375 12.390625 46.5 
Q 15.703125 49.90625 20 51.59375 
Q 24.296875 53.296875 28.796875 53.296875 
Q 39.296875 53.296875 44.890625 46.75 
Q 50.5 40.203125 50.5 26.796875 
Q 50.5 26.203125 50.5 25.25 
Q 50.5 24.296875 50.40625 23.5 
L 14.796875 23.5 
Q 15.40625 15.40625 19.5 11.203125 
Q 23.59375 7 32.296875 7 
Q 37.203125 7 40.546875 7.84375 
Q 43.90625 8.703125 45.59375 9.5 
L 46.90625 1.703125 
Q 45.203125 0.796875 40.953125 -0.203125 
Q 36.703125 -1.203125 31.296875 -1.203125 
Q 24.5 -1.203125 19.546875 0.84375 
Q 14.59375 2.90625 11.390625 6.5 
Q 8.203125 10.09375 6.640625 15.046875 
Q 5.09375 20 5.09375 25.90625 
z
M 40.796875 31 
Q 40.90625 37.296875 37.65625 41.34375 
Q 34.40625 45.40625 28.703125 45.40625 
Q 25.5 45.40625 23.046875 44.15625 
Q 20.59375 42.90625 18.890625 40.90625 
Q 17.203125 38.90625 16.25 36.296875 
Q 15.296875 33.703125 15 31 
z
" id="Ubuntu-101"/>
     </defs>
     <g transform="translate(14.959375 162.698187)rotate(-90)scale(0.1 -0.1)">
      <use xlink:href="#Ubuntu-71"/>
      <use x="67.199997" xlink:href="#Ubuntu-111"/>
      <use x="126.199982" xlink:href="#Ubuntu-108"/>
      <use x="153.499969" xlink:href="#Ubuntu-100"/>
      <use x="212.399963" xlink:href="#Ubuntu-32"/>
      <use x="235.499954" xlink:href="#Ubuntu-99"/>
      <use x="281.984314" xlink:href="#Ubuntu-111"/>
      <use x="340.984299" xlink:href="#Ubuntu-110"/>
      <use x="398.384293" xlink:href="#Ubuntu-116"/>
      <use x="438.568665" xlink:href="#Ubuntu-101"/>
      <use x="494.468658" xlink:href="#Ubuntu-110"/>
      <use x="551.868652" xlink:href="#Ubuntu-116"/>
     </g>
    </g>
   </g>
   <g id="PolyCollection_1">
    <defs>
     <path d="M 45.905511 -138.664775 
L 45.905511 -165.37205 
L 46.475917 -165.910934 
L 47.046322 -166.444417 
L 47.616727 -166.97216 
L 48.187132 -167.493815 
L 48.757537 -168.009023 
L 49.327943 -168.517417 
L 49.898348 -169.018616 
L 50.468753 -169.512233 
L 51.039158 -169.997866 
L 51.609564 -170.475104 
L 52.179969 -170.943525 
L 52.750374 -171.402693 
L 53.320779 -171.852164 
L 53.891184 -172.291479 
L 54.46159 -172.720168 
L 55.031995 -173.137746 
L 55.6024 -173.543719 
L 56.172805 -173.937576 
L 56.743211 -174.318796 
L 57.313616 -174.686841 
L 57.884021 -175.04116 
L 58.454426 -175.38119 
L 59.024831 -175.706351 
L 59.595237 -176.016047 
L 60.165642 -176.309669 
L 60.736047 -176.586593 
L 61.306452 -176.846175 
L 61.876858 -177.08776 
L 62.447263 -177.310672 
L 63.017668 -177.514221 
L 63.588073 -177.697699 
L 64.158478 -177.860379 
L 64.728884 -178.001518 
L 65.299289 -178.120353 
L 65.869694 -178.216104 
L 66.440099 -178.287971 
L 67.010505 -178.335135 
L 67.58091 -178.356755 
L 68.151315 -178.351975 
L 68.72172 -178.319912 
L 69.292125 -178.259668 
L 69.862531 -178.170319 
L 70.432936 -178.050922 
L 71.003341 -177.900511 
L 71.573746 -177.718098 
L 72.144152 -177.502671 
L 72.714557 -177.253195 
L 73.284962 -176.968614 
L 73.855367 -176.647843 
L 74.425772 -176.352092 
L 74.996178 -176.703864 
L 75.566583 -177.018527 
L 76.136988 -177.297184 
L 76.707393 -177.540911 
L 77.277799 -177.750765 
L 77.848204 -177.927775 
L 78.418609 -178.072949 
L 78.989014 -178.187271 
L 79.559419 -178.271704 
L 80.129825 -178.327189 
L 80.70023 -178.354642 
L 81.270635 -178.354962 
L 81.84104 -178.329025 
L 82.411445 -178.277686 
L 82.981851 -178.201782 
L 83.552256 -178.102129 
L 84.122661 -177.979523 
L 84.693066 -177.834741 
L 85.263472 -177.668544 
L 85.833877 -177.481671 
L 86.404282 -177.274846 
L 86.974687 -177.048774 
L 87.545092 -176.804143 
L 88.115498 -176.541625 
L 88.685903 -176.261875 
L 89.256308 -175.96553 
L 89.826713 -175.653215 
L 90.397119 -175.325535 
L 90.967524 -174.983084 
L 91.537929 -174.626438 
L 92.108334 -174.256159 
L 92.678739 -173.872797 
L 93.249145 -173.476884 
L 93.81955 -173.068942 
L 94.389955 -172.649478 
L 94.96036 -172.218985 
L 95.530766 -171.777945 
L 96.101171 -171.326827 
L 96.671576 -170.866085 
L 97.241981 -170.396165 
L 97.812386 -169.917499 
L 98.382792 -169.430507 
L 98.953197 -168.935599 
L 99.523602 -168.433174 
L 100.094007 -167.923618 
L 100.664413 -167.40731 
L 101.234818 -166.884616 
L 101.805223 -166.355892 
L 102.375628 -165.821486 
L 102.946033 -165.281734 
L 103.516439 -164.736964 
L 104.086844 -164.187494 
L 104.657249 -163.633634 
L 105.227654 -163.075684 
L 105.79806 -162.513937 
L 106.368465 -161.948675 
L 106.93887 -161.380174 
L 107.509275 -160.808701 
L 108.07968 -160.234515 
L 108.650086 -159.657869 
L 109.220491 -159.079006 
L 109.790896 -158.498163 
L 110.361301 -157.915569 
L 110.931707 -157.331448 
L 111.502112 -156.746015 
L 112.072517 -156.159479 
L 112.642922 -155.572043 
L 113.213327 -154.983903 
L 113.783733 -154.39525 
L 114.354138 -153.806266 
L 114.924543 -153.217131 
L 115.494948 -152.628016 
L 116.065354 -152.039088 
L 116.635759 -151.450508 
L 117.206164 -150.862433 
L 117.776569 -150.275012 
L 118.346974 -149.688391 
L 118.91738 -149.10271 
L 119.487785 -148.518106 
L 120.05819 -147.934708 
L 120.628595 -147.352644 
L 121.199001 -146.772034 
L 121.769406 -146.192996 
L 122.339811 -145.615643 
L 122.910216 -145.040084 
L 123.480621 -144.466423 
L 124.051027 -143.894762 
L 124.621432 -143.325197 
L 125.191837 -142.757822 
L 125.762242 -142.192725 
L 126.332647 -141.629993 
L 126.903053 -141.069708 
L 127.473458 -140.51195 
L 128.043863 -139.956793 
L 128.614268 -139.40431 
L 129.184674 -138.85457 
L 129.755079 -138.307641 
L 130.325484 -137.763584 
L 130.895889 -137.22246 
L 131.466294 -136.684328 
L 132.0367 -136.149241 
L 132.607105 -135.617252 
L 133.17751 -135.088411 
L 133.747915 -134.562764 
L 134.318321 -134.040356 
L 134.888726 -133.521229 
L 135.459131 -133.005423 
L 136.029536 -132.492976 
L 136.599941 -131.983923 
L 137.170347 -131.478298 
L 137.740752 -130.97613 
L 138.311157 -130.477451 
L 138.881562 -129.982286 
L 139.451968 -129.490662 
L 140.022373 -129.002601 
L 140.592778 -128.518125 
L 141.163183 -128.037255 
L 141.733588 -127.560009 
L 142.303994 -127.086403 
L 142.874399 -126.616452 
L 143.444804 -126.15017 
L 144.015209 -125.687568 
L 144.585615 -125.228658 
L 145.15602 -124.773449 
L 145.726425 -124.321947 
L 146.29683 -123.874161 
L 146.867235 -123.430094 
L 147.437641 -122.989751 
L 148.008046 -122.553135 
L 148.578451 -122.120247 
L 149.148856 -121.691088 
L 149.719262 -121.265656 
L 150.289667 -120.843952 
L 150.860072 -120.425971 
L 151.430477 -120.01171 
L 152.000882 -119.601165 
L 152.571288 -119.19433 
L 153.141693 -118.791199 
L 153.712098 -118.391764 
L 154.282503 -117.996018 
L 154.852909 -117.603951 
L 155.423314 -117.215554 
L 155.993719 -116.830816 
L 156.564124 -116.449727 
L 157.134529 -116.072275 
L 157.704935 -115.698448 
L 158.27534 -115.328231 
L 158.845745 -114.961613 
L 159.41615 -114.598578 
L 159.986556 -114.239111 
L 160.556961 -113.883199 
L 161.127366 -113.530823 
L 161.697771 -113.181969 
L 162.268176 -112.83662 
L 162.838582 -112.494758 
L 163.408987 -112.156365 
L 163.979392 -111.821424 
L 164.549797 -111.489916 
L 165.120203 -111.161822 
L 165.690608 -110.837123 
L 166.261013 -110.5158 
L 166.831418 -110.197832 
L 167.401823 -109.883199 
L 167.972229 -109.571881 
L 168.542634 -109.263858 
L 169.113039 -108.959107 
L 169.683444 -108.657609 
L 170.25385 -108.35934 
L 170.824255 -108.064281 
L 171.39466 -107.772408 
L 171.965065 -107.4837 
L 172.53547 -107.198134 
L 173.105876 -106.915688 
L 173.676281 -106.636339 
L 174.246686 -106.360065 
L 174.817091 -106.086842 
L 175.387496 -105.816649 
L 175.957902 -105.549461 
L 176.528307 -105.285255 
L 177.098712 -105.024008 
L 177.669117 -104.765697 
L 178.239523 -104.510299 
L 178.809928 -104.257789 
L 179.380333 -104.008144 
L 179.950738 -103.761341 
L 180.521143 -103.517356 
L 181.091549 -103.276165 
L 181.661954 -103.037745 
L 182.232359 -102.802072 
L 182.802764 -102.569122 
L 183.37317 -102.338871 
L 183.943575 -102.111296 
L 184.51398 -101.886374 
L 185.084385 -101.66408 
L 185.65479 -101.444391 
L 186.225196 -101.227283 
L 186.795601 -101.012732 
L 187.366006 -100.800716 
L 187.936411 -100.591211 
L 188.506817 -100.384193 
L 189.077222 -100.179639 
L 189.647627 -99.977526 
L 190.218032 -99.77783 
L 190.788437 -99.580529 
L 191.358843 -99.385599 
L 191.929248 -99.193017 
L 192.499653 -99.002761 
L 193.070058 -98.814808 
L 193.640464 -98.629134 
L 194.210869 -98.445718 
L 194.781274 -98.264536 
L 195.351679 -98.085567 
L 195.922084 -97.908789 
L 196.49249 -97.734178 
L 197.062895 -97.561713 
L 197.6333 -97.391372 
L 198.203705 -97.223133 
L 198.774111 -97.056975 
L 199.344516 -96.892875 
L 199.914921 -96.730813 
L 200.485326 -96.570766 
L 201.055731 -96.412715 
L 201.626137 -96.256637 
L 202.196542 -96.102511 
L 202.766947 -95.950318 
L 203.337352 -95.800036 
L 203.907758 -95.651645 
L 204.478163 -95.505123 
L 205.048568 -95.360452 
L 205.618973 -95.217611 
L 206.189378 -95.076579 
L 206.759784 -94.937338 
L 207.330189 -94.799867 
L 207.900594 -94.664147 
L 208.470999 -94.530158 
L 209.041405 -94.397881 
L 209.61181 -94.267298 
L 210.182215 -94.138388 
L 210.75262 -94.011134 
L 211.323025 -93.885516 
L 211.893431 -93.761517 
L 212.463836 -93.639117 
L 213.034241 -93.518298 
L 213.604646 -93.399043 
L 214.175052 -93.281334 
L 214.745457 -93.165152 
L 215.315862 -93.050481 
L 215.886267 -92.937302 
L 216.456672 -92.825599 
L 217.027078 -92.715354 
L 217.597483 -92.60655 
L 218.167888 -92.499171 
L 218.738293 -92.393199 
L 219.308698 -92.288618 
L 219.879104 -92.185413 
L 220.449509 -92.083565 
L 221.019914 -91.98306 
L 221.590319 -91.883882 
L 222.160725 -91.786014 
L 222.73113 -91.689442 
L 223.301535 -91.594148 
L 223.87194 -91.500119 
L 224.442345 -91.407339 
L 225.012751 -91.315793 
L 225.583156 -91.225466 
L 226.153561 -91.136343 
L 226.723966 -91.048409 
L 227.294372 -90.961651 
L 227.864777 -90.876054 
L 228.435182 -90.791603 
L 229.005587 -90.708284 
L 229.575992 -90.626085 
L 230.146398 -90.54499 
L 230.716803 -90.464987 
L 231.287208 -90.386061 
L 231.857613 -90.3082 
L 232.428019 -90.23139 
L 232.998424 -90.155618 
L 233.568829 -90.080872 
L 234.139234 -90.007138 
L 234.709639 -89.934404 
L 235.280045 -89.862657 
L 235.85045 -89.791885 
L 236.420855 -89.722076 
L 236.99126 -89.653218 
L 237.561666 -89.585298 
L 238.132071 -89.518304 
L 238.702476 -89.452226 
L 239.272881 -89.387051 
L 239.843286 -89.322768 
L 240.413692 -89.259365 
L 240.984097 -89.196832 
L 241.554502 -89.135157 
L 242.124907 -89.074329 
L 242.695313 -89.014338 
L 243.265718 -88.955172 
L 243.836123 -88.896821 
L 244.406528 -88.839275 
L 244.976933 -88.782523 
L 245.547339 -88.726555 
L 246.117744 -88.67136 
L 246.688149 -88.61693 
L 247.258554 -88.563253 
L 247.82896 -88.51032 
L 248.399365 -88.458122 
L 248.96977 -88.406648 
L 249.540175 -88.35589 
L 250.11058 -88.305838 
L 250.680986 -88.256482 
L 251.251391 -88.207814 
L 251.821796 -88.159825 
L 252.392201 -88.112506 
L 252.962607 -88.065847 
L 253.533012 -88.019841 
L 254.103417 -87.974478 
L 254.673822 -87.92975 
L 255.244227 -87.885649 
L 255.814633 -87.842166 
L 256.385038 -87.799294 
L 256.955443 -87.757023 
L 257.525848 -87.715347 
L 258.096254 -87.674256 
L 258.666659 -87.633744 
L 259.237064 -87.593803 
L 259.807469 -87.554425 
L 260.377874 -87.515602 
L 260.94828 -87.477327 
L 261.518685 -87.439593 
L 262.08909 -87.402392 
L 262.659495 -87.365718 
L 263.2299 -87.329563 
L 263.800306 -87.29392 
L 264.370711 -87.258782 
L 264.941116 -87.224143 
L 265.511521 -87.189995 
L 266.081927 -87.156333 
L 266.652332 -87.123149 
L 267.222737 -87.090437 
L 267.793142 -87.058191 
L 268.363547 -87.026404 
L 268.933953 -86.99507 
L 269.504358 -86.964183 
L 270.074763 -86.933736 
L 270.645168 -86.903725 
L 271.215574 -86.874142 
L 271.785979 -86.844982 
L 272.356384 -86.81624 
L 272.926789 -86.787909 
L 273.497194 -86.759984 
L 274.0676 -86.732459 
L 274.638005 -86.705329 
L 275.20841 -86.678588 
L 275.778815 -86.652232 
L 276.349221 -86.626254 
L 276.919626 -86.600649 
L 277.490031 -86.575413 
L 278.060436 -86.55054 
L 278.630841 -86.526025 
L 279.201247 -86.501864 
L 279.771652 -86.478051 
L 280.342057 -86.454581 
L 280.912462 -86.43145 
L 281.482868 -86.408654 
L 282.053273 -86.386187 
L 282.623678 -86.364044 
L 283.194083 -86.342222 
L 283.764488 -86.320716 
L 284.334894 -86.299522 
L 284.905299 -86.278634 
L 285.475704 -86.258049 
L 286.046109 -86.237763 
L 286.616515 -86.217772 
L 287.18692 -86.19807 
L 287.757325 -86.178655 
L 288.32773 -86.159522 
L 288.898135 -86.140668 
L 289.468541 -86.122088 
L 290.038946 -86.103778 
L 290.609351 -86.085735 
L 291.179756 -86.067955 
L 291.750162 -86.050434 
L 292.320567 -86.033169 
L 292.890972 -86.016156 
L 293.461377 -85.999391 
L 294.031782 -85.982871 
L 294.602188 -85.966593 
L 295.172593 -85.950553 
L 295.742998 -85.934747 
L 296.313403 -85.919173 
L 296.883809 -85.903827 
L 297.454214 -85.888705 
L 298.024619 -85.873806 
L 298.595024 -85.859125 
L 299.165429 -85.844659 
L 299.735835 -85.830405 
L 300.30624 -85.816361 
L 300.876645 -85.802524 
L 301.44705 -85.788889 
L 302.017456 -85.775455 
L 302.587861 -85.762219 
L 303.158266 -85.749178 
L 303.728671 -85.736328 
L 304.299076 -85.723668 
L 304.869482 -85.711195 
L 305.439887 -85.698905 
L 306.010292 -85.686797 
L 306.580697 -85.674867 
L 307.151103 -85.663114 
L 307.721508 -85.651534 
L 308.291913 -85.640125 
L 308.862318 -85.628885 
L 309.432723 -85.617811 
L 310.003129 -85.606901 
L 310.573534 -85.596152 
L 311.143939 -85.585562 
L 311.714344 -85.57513 
L 312.284749 -85.564851 
L 312.855155 -85.554726 
L 313.42556 -85.54475 
L 313.995965 -85.534922 
L 314.56637 -85.525241 
L 315.136776 -85.515703 
L 315.707181 -85.506306 
L 316.277586 -85.49705 
L 316.847991 -85.48793 
L 317.418396 -85.478947 
L 317.988802 -85.470097 
L 318.559207 -85.461379 
L 319.129612 -85.45279 
L 319.700017 -85.44433 
L 320.270423 -85.435995 
L 320.840828 -85.427785 
L 321.411233 -85.419697 
L 321.981638 -85.41173 
L 322.552043 -85.403882 
L 323.122449 -85.396151 
L 323.692854 -85.388535 
L 324.263259 -85.381033 
L 324.833664 -85.373643 
L 325.40407 -85.366363 
L 325.974475 -85.359193 
L 326.54488 -85.352129 
L 327.115285 -85.345172 
L 327.68569 -85.338318 
L 328.256096 -85.331567 
L 328.826501 -85.324917 
L 329.396906 -85.318367 
L 329.967311 -85.311915 
L 330.537717 -85.30556 
L 331.108122 -85.2993 
L 331.678527 -85.293134 
L 332.248932 -85.28706 
L 332.819337 -85.281078 
L 333.389743 -85.275185 
L 333.960148 -85.269381 
L 334.530553 -85.263665 
L 335.100958 -85.258034 
L 335.671364 -85.252488 
L 336.241769 -85.247025 
L 336.812174 -85.241645 
L 337.382579 -85.236345 
L 337.952984 -85.231125 
L 338.52339 -85.225984 
L 339.093795 -85.220921 
L 339.6642 -85.215933 
L 340.234605 -85.211021 
L 340.805011 -85.206183 
L 341.375416 -85.201418 
L 341.945821 -85.196725 
L 342.516226 -85.192103 
L 343.086631 -85.18755 
L 343.657037 -85.183067 
L 344.227442 -85.178651 
L 344.797847 -85.174301 
L 345.368252 -85.170018 
L 345.938658 -85.165799 
L 346.509063 -85.161644 
L 347.079468 -85.157552 
L 347.649873 -85.153522 
L 348.220278 -85.149553 
L 348.790684 -85.145644 
L 349.361089 -85.141794 
L 349.931494 -85.138003 
L 350.501899 -85.134269 
L 351.072305 -85.130591 
L 351.64271 -85.12697 
L 352.213115 -85.123403 
L 352.78352 -85.11989 
L 353.353925 -85.116431 
L 353.924331 -85.113024 
L 354.494736 -85.109669 
L 355.065141 -85.106365 
L 355.635546 -85.103112 
L 356.205951 -85.099907 
L 356.776357 -85.096752 
L 357.346762 -85.093644 
L 357.917167 -85.090584 
L 358.487572 -85.08757 
L 359.057978 -85.084602 
L 359.628383 -85.081679 
L 360.198788 -85.078801 
L 360.769193 -85.075966 
L 361.339598 -85.073175 
L 361.910004 -85.070426 
L 362.480409 -85.06772 
L 363.050814 -85.065054 
L 363.621219 -85.062429 
L 364.191625 -85.059844 
L 364.76203 -85.057299 
L 365.332435 -85.054793 
L 365.90284 -85.052324 
L 366.473245 -85.049894 
L 367.043651 -85.0475 
L 367.614056 -85.045143 
L 368.184461 -85.042823 
L 368.754866 -85.040537 
L 369.325272 -85.038287 
L 369.895677 -85.036071 
L 370.466082 -85.033889 
L 371.036487 -85.03174 
L 371.606892 -85.029624 
L 372.177298 -85.027541 
L 372.747703 -85.025489 
L 373.318108 -85.023469 
L 373.888513 -85.02148 
L 374.458919 -85.019521 
L 375.029324 -85.017592 
L 375.599729 -85.015693 
L 376.170134 -85.013823 
L 376.740539 -85.011982 
L 377.310945 -85.010169 
L 377.88135 -85.008384 
L 378.451755 -85.006626 
L 379.02216 -85.004895 
L 379.592566 -85.003191 
L 380.162971 -85.001513 
L 380.733376 -84.99986 
L 381.303781 -84.998233 
L 381.874186 -84.996631 
L 382.444592 -84.995054 
L 383.014997 -84.993501 
L 383.585402 -84.991972 
L 384.155807 -84.990466 
L 384.726213 -84.988984 
L 385.296618 -84.987524 
L 385.867023 -84.986087 
L 386.437428 -84.984672 
L 387.007833 -84.983278 
L 387.578239 -84.981907 
L 387.578239 -41.880511 
L 387.578239 -41.880511 
L 387.007833 -41.881884 
L 386.437428 -41.883277 
L 385.867023 -41.884693 
L 385.296618 -41.88613 
L 384.726213 -41.887591 
L 384.155807 -41.889074 
L 383.585402 -41.89058 
L 383.014997 -41.892109 
L 382.444592 -41.893663 
L 381.874186 -41.895241 
L 381.303781 -41.896843 
L 380.733376 -41.898471 
L 380.162971 -41.900124 
L 379.592566 -41.901802 
L 379.02216 -41.903507 
L 378.451755 -41.905239 
L 377.88135 -41.906997 
L 377.310945 -41.908783 
L 376.740539 -41.910597 
L 376.170134 -41.912439 
L 375.599729 -41.91431 
L 375.029324 -41.91621 
L 374.458919 -41.918139 
L 373.888513 -41.920099 
L 373.318108 -41.922089 
L 372.747703 -41.92411 
L 372.177298 -41.926162 
L 371.606892 -41.928247 
L 371.036487 -41.930363 
L 370.466082 -41.932513 
L 369.895677 -41.934696 
L 369.325272 -41.936913 
L 368.754866 -41.939165 
L 368.184461 -41.941451 
L 367.614056 -41.943773 
L 367.043651 -41.946132 
L 366.473245 -41.948526 
L 365.90284 -41.950958 
L 365.332435 -41.953428 
L 364.76203 -41.955936 
L 364.191625 -41.958482 
L 363.621219 -41.961069 
L 363.050814 -41.963695 
L 362.480409 -41.966362 
L 361.910004 -41.96907 
L 361.339598 -41.971821 
L 360.769193 -41.974614 
L 360.198788 -41.97745 
L 359.628383 -41.98033 
L 359.057978 -41.983254 
L 358.487572 -41.986224 
L 357.917167 -41.98924 
L 357.346762 -41.992303 
L 356.776357 -41.995412 
L 356.205951 -41.99857 
L 355.635546 -42.001777 
L 355.065141 -42.005033 
L 354.494736 -42.008339 
L 353.924331 -42.011697 
L 353.353925 -42.015106 
L 352.78352 -42.018568 
L 352.213115 -42.022083 
L 351.64271 -42.025652 
L 351.072305 -42.029277 
L 350.501899 -42.032957 
L 349.931494 -42.036694 
L 349.361089 -42.040489 
L 348.790684 -42.044342 
L 348.220278 -42.048254 
L 347.649873 -42.052227 
L 347.079468 -42.05626 
L 346.509063 -42.060356 
L 345.938658 -42.064515 
L 345.368252 -42.068737 
L 344.797847 -42.073025 
L 344.227442 -42.077378 
L 343.657037 -42.081799 
L 343.086631 -42.086287 
L 342.516226 -42.090844 
L 341.945821 -42.095471 
L 341.375416 -42.100169 
L 340.805011 -42.104939 
L 340.234605 -42.109782 
L 339.6642 -42.114699 
L 339.093795 -42.119692 
L 338.52339 -42.124761 
L 337.952984 -42.129908 
L 337.382579 -42.135134 
L 336.812174 -42.140439 
L 336.241769 -42.145826 
L 335.671364 -42.151296 
L 335.100958 -42.156848 
L 334.530553 -42.162486 
L 333.960148 -42.16821 
L 333.389743 -42.174021 
L 332.819337 -42.179921 
L 332.248932 -42.185912 
L 331.678527 -42.191993 
L 331.108122 -42.198168 
L 330.537717 -42.204436 
L 329.967311 -42.2108 
L 329.396906 -42.217262 
L 328.826501 -42.223821 
L 328.256096 -42.230481 
L 327.68569 -42.237242 
L 327.115285 -42.244106 
L 326.54488 -42.251074 
L 325.974475 -42.258148 
L 325.40407 -42.26533 
L 324.833664 -42.272622 
L 324.263259 -42.280024 
L 323.692854 -42.287538 
L 323.122449 -42.295167 
L 322.552043 -42.302911 
L 321.981638 -42.310773 
L 321.411233 -42.318754 
L 320.840828 -42.326857 
L 320.270423 -42.335082 
L 319.700017 -42.343432 
L 319.129612 -42.351908 
L 318.559207 -42.360513 
L 317.988802 -42.369248 
L 317.418396 -42.378115 
L 316.847991 -42.387116 
L 316.277586 -42.396254 
L 315.707181 -42.40553 
L 315.136776 -42.414946 
L 314.56637 -42.424504 
L 313.995965 -42.434206 
L 313.42556 -42.444055 
L 312.855155 -42.454053 
L 312.284749 -42.464202 
L 311.714344 -42.474503 
L 311.143939 -42.48496 
L 310.573534 -42.495574 
L 310.003129 -42.506349 
L 309.432723 -42.517286 
L 308.862318 -42.528387 
L 308.291913 -42.539655 
L 307.721508 -42.551093 
L 307.151103 -42.562703 
L 306.580697 -42.574487 
L 306.010292 -42.586448 
L 305.439887 -42.598589 
L 304.869482 -42.610913 
L 304.299076 -42.623421 
L 303.728671 -42.636117 
L 303.158266 -42.649003 
L 302.587861 -42.662082 
L 302.017456 -42.675358 
L 301.44705 -42.688832 
L 300.876645 -42.702508 
L 300.30624 -42.716388 
L 299.735835 -42.730477 
L 299.165429 -42.744775 
L 298.595024 -42.759288 
L 298.024619 -42.774018 
L 297.454214 -42.788967 
L 296.883809 -42.804139 
L 296.313403 -42.819538 
L 295.742998 -42.835167 
L 295.172593 -42.851029 
L 294.602188 -42.867127 
L 294.031782 -42.883465 
L 293.461377 -42.900046 
L 292.890972 -42.916874 
L 292.320567 -42.933952 
L 291.750162 -42.951284 
L 291.179756 -42.968874 
L 290.609351 -42.986725 
L 290.038946 -43.004841 
L 289.468541 -43.023227 
L 288.898135 -43.041885 
L 288.32773 -43.060819 
L 287.757325 -43.080035 
L 287.18692 -43.099535 
L 286.616515 -43.119324 
L 286.046109 -43.139406 
L 285.475704 -43.159785 
L 284.905299 -43.180465 
L 284.334894 -43.201451 
L 283.764488 -43.222748 
L 283.194083 -43.244359 
L 282.623678 -43.266288 
L 282.053273 -43.288542 
L 281.482868 -43.311123 
L 280.912462 -43.334038 
L 280.342057 -43.35729 
L 279.771652 -43.380885 
L 279.201247 -43.404826 
L 278.630841 -43.42912 
L 278.060436 -43.453772 
L 277.490031 -43.478785 
L 276.919626 -43.504166 
L 276.349221 -43.52992 
L 275.778815 -43.556052 
L 275.20841 -43.582567 
L 274.638005 -43.609471 
L 274.0676 -43.636769 
L 273.497194 -43.664466 
L 272.926789 -43.692569 
L 272.356384 -43.721084 
L 271.785979 -43.750015 
L 271.215574 -43.779369 
L 270.645168 -43.809152 
L 270.074763 -43.83937 
L 269.504358 -43.870028 
L 268.933953 -43.901134 
L 268.363547 -43.932693 
L 267.793142 -43.964712 
L 267.222737 -43.997197 
L 266.652332 -44.030154 
L 266.081927 -44.063591 
L 265.511521 -44.097514 
L 264.941116 -44.13193 
L 264.370711 -44.166845 
L 263.800306 -44.202267 
L 263.2299 -44.238203 
L 262.659495 -44.27466 
L 262.08909 -44.311644 
L 261.518685 -44.349164 
L 260.94828 -44.387227 
L 260.377874 -44.425841 
L 259.807469 -44.465012 
L 259.237064 -44.504749 
L 258.666659 -44.54506 
L 258.096254 -44.585952 
L 257.525848 -44.627434 
L 256.955443 -44.669513 
L 256.385038 -44.712198 
L 255.814633 -44.755498 
L 255.244227 -44.79942 
L 254.673822 -44.843973 
L 254.103417 -44.889166 
L 253.533012 -44.935008 
L 252.962607 -44.981508 
L 252.392201 -45.028674 
L 251.821796 -45.076516 
L 251.251391 -45.125043 
L 250.680986 -45.174264 
L 250.11058 -45.224189 
L 249.540175 -45.274827 
L 248.96977 -45.326188 
L 248.399365 -45.378283 
L 247.82896 -45.43112 
L 247.258554 -45.48471 
L 246.688149 -45.539063 
L 246.117744 -45.59419 
L 245.547339 -45.6501 
L 244.976933 -45.706806 
L 244.406528 -45.764316 
L 243.836123 -45.822643 
L 243.265718 -45.881797 
L 242.695313 -45.941789 
L 242.124907 -46.00263 
L 241.554502 -46.064332 
L 240.984097 -46.126907 
L 240.413692 -46.190367 
L 239.843286 -46.254722 
L 239.272881 -46.319985 
L 238.702476 -46.386168 
L 238.132071 -46.453283 
L 237.561666 -46.521344 
L 236.99126 -46.590361 
L 236.420855 -46.660349 
L 235.85045 -46.73132 
L 235.280045 -46.803286 
L 234.709639 -46.876262 
L 234.139234 -46.95026 
L 233.568829 -47.025295 
L 232.998424 -47.101378 
L 232.428019 -47.178526 
L 231.857613 -47.256751 
L 231.287208 -47.336067 
L 230.716803 -47.416489 
L 230.146398 -47.498032 
L 229.575992 -47.58071 
L 229.005587 -47.664538 
L 228.435182 -47.749531 
L 227.864777 -47.835703 
L 227.294372 -47.923072 
L 226.723966 -48.011651 
L 226.153561 -48.101457 
L 225.583156 -48.192505 
L 225.012751 -48.284812 
L 224.442345 -48.378394 
L 223.87194 -48.473267 
L 223.301535 -48.569449 
L 222.73113 -48.666955 
L 222.160725 -48.765803 
L 221.590319 -48.86601 
L 221.019914 -48.967593 
L 220.449509 -49.07057 
L 219.879104 -49.174959 
L 219.308698 -49.280778 
L 218.738293 -49.388045 
L 218.167888 -49.496778 
L 217.597483 -49.606996 
L 217.027078 -49.718717 
L 216.456672 -49.831961 
L 215.886267 -49.946747 
L 215.315862 -50.063095 
L 214.745457 -50.181023 
L 214.175052 -50.300552 
L 213.604646 -50.421702 
L 213.034241 -50.544492 
L 212.463836 -50.668944 
L 211.893431 -50.795079 
L 211.323025 -50.922916 
L 210.75262 -51.052478 
L 210.182215 -51.183785 
L 209.61181 -51.316859 
L 209.041405 -51.451721 
L 208.470999 -51.588395 
L 207.900594 -51.726902 
L 207.330189 -51.867264 
L 206.759784 -52.009505 
L 206.189378 -52.153647 
L 205.618973 -52.299713 
L 205.048568 -52.447726 
L 204.478163 -52.597711 
L 203.907758 -52.749691 
L 203.337352 -52.90369 
L 202.766947 -53.059733 
L 202.196542 -53.217844 
L 201.626137 -53.378047 
L 201.055731 -53.540368 
L 200.485326 -53.704832 
L 199.914921 -53.871465 
L 199.344516 -54.040292 
L 198.774111 -54.21134 
L 198.203705 -54.384634 
L 197.6333 -54.5602 
L 197.062895 -54.738066 
L 196.49249 -54.918259 
L 195.922084 -55.100806 
L 195.351679 -55.285733 
L 194.781274 -55.473069 
L 194.210869 -55.662842 
L 193.640464 -55.85508 
L 193.070058 -56.04981 
L 192.499653 -56.247063 
L 191.929248 -56.446866 
L 191.358843 -56.649248 
L 190.788437 -56.85424 
L 190.218032 -57.06187 
L 189.647627 -57.272169 
L 189.077222 -57.485166 
L 188.506817 -57.700892 
L 187.936411 -57.919377 
L 187.366006 -58.140652 
L 186.795601 -58.364748 
L 186.225196 -58.591697 
L 185.65479 -58.821529 
L 185.084385 -59.054276 
L 184.51398 -59.289971 
L 183.943575 -59.528645 
L 183.37317 -59.770331 
L 182.802764 -60.015062 
L 182.232359 -60.262869 
L 181.661954 -60.513786 
L 181.091549 -60.767847 
L 180.521143 -61.025085 
L 179.950738 -61.285534 
L 179.380333 -61.549226 
L 178.809928 -61.816197 
L 178.239523 -62.086481 
L 177.669117 -62.360111 
L 177.098712 -62.637124 
L 176.528307 -62.917553 
L 175.957902 -63.201433 
L 175.387496 -63.488801 
L 174.817091 -63.77969 
L 174.246686 -64.074137 
L 173.676281 -64.372178 
L 173.105876 -64.673847 
L 172.53547 -64.979182 
L 171.965065 -65.288218 
L 171.39466 -65.600991 
L 170.824255 -65.917539 
L 170.25385 -66.237897 
L 169.683444 -66.562102 
L 169.113039 -66.890192 
L 168.542634 -67.222202 
L 167.972229 -67.55817 
L 167.401823 -67.898133 
L 166.831418 -68.242128 
L 166.261013 -68.590192 
L 165.690608 -68.942362 
L 165.120203 -69.298677 
L 164.549797 -69.659172 
L 163.979392 -70.023886 
L 163.408987 -70.392856 
L 162.838582 -70.766119 
L 162.268176 -71.143713 
L 161.697771 -71.525675 
L 161.127366 -71.912043 
L 160.556961 -72.302854 
L 159.986556 -72.698144 
L 159.41615 -73.097952 
L 158.845745 -73.502314 
L 158.27534 -73.911267 
L 157.704935 -74.324849 
L 157.134529 -74.743096 
L 156.564124 -75.166044 
L 155.993719 -75.59373 
L 155.423314 -76.02619 
L 154.852909 -76.463461 
L 154.282503 -76.905578 
L 153.712098 -77.352577 
L 153.141693 -77.804492 
L 152.571288 -78.26136 
L 152.000882 -78.723214 
L 151.430477 -79.19009 
L 150.860072 -79.662021 
L 150.289667 -80.13904 
L 149.719262 -80.621182 
L 149.148856 -81.108479 
L 148.578451 -81.600963 
L 148.008046 -82.098666 
L 147.437641 -82.60162 
L 146.867235 -83.109856 
L 146.29683 -83.623404 
L 145.726425 -84.142293 
L 145.15602 -84.666552 
L 144.585615 -85.196211 
L 144.015209 -85.731296 
L 143.444804 -86.271835 
L 142.874399 -86.817854 
L 142.303994 -87.369378 
L 141.733588 -87.926431 
L 141.163183 -88.489039 
L 140.592778 -89.057222 
L 140.022373 -89.631004 
L 139.451968 -90.210404 
L 138.881562 -90.795443 
L 138.311157 -91.386139 
L 137.740752 -91.98251 
L 137.170347 -92.584572 
L 136.599941 -93.19234 
L 136.029536 -93.805827 
L 135.459131 -94.425047 
L 134.888726 -95.05001 
L 134.318321 -95.680726 
L 133.747915 -96.317202 
L 133.17751 -96.959446 
L 132.607105 -97.607462 
L 132.0367 -98.261254 
L 131.466294 -98.920822 
L 130.895889 -99.586167 
L 130.325484 -100.257286 
L 129.755079 -100.934174 
L 129.184674 -101.616826 
L 128.614268 -102.305234 
L 128.043863 -102.999386 
L 127.473458 -103.699269 
L 126.903053 -104.40487 
L 126.332647 -105.116169 
L 125.762242 -105.833148 
L 125.191837 -106.555782 
L 124.621432 -107.284048 
L 124.051027 -108.017917 
L 123.480621 -108.757358 
L 122.910216 -109.502336 
L 122.339811 -110.252816 
L 121.769406 -111.008757 
L 121.199001 -111.770115 
L 120.628595 -112.536844 
L 120.05819 -113.308894 
L 119.487785 -114.086211 
L 118.91738 -114.868736 
L 118.346974 -115.65641 
L 117.776569 -116.449166 
L 117.206164 -117.246936 
L 116.635759 -118.049645 
L 116.065354 -118.857215 
L 115.494948 -119.669565 
L 114.924543 -120.486608 
L 114.354138 -121.30825 
L 113.783733 -122.134397 
L 113.213327 -122.964946 
L 112.642922 -123.799791 
L 112.072517 -124.638818 
L 111.502112 -125.481911 
L 110.931707 -126.328945 
L 110.361301 -127.179792 
L 109.790896 -128.034316 
L 109.220491 -128.892376 
L 108.650086 -129.753822 
L 108.07968 -130.618502 
L 107.509275 -131.486252 
L 106.93887 -132.356905 
L 106.368465 -133.230286 
L 105.79806 -134.106211 
L 105.227654 -134.984489 
L 104.657249 -135.864921 
L 104.086844 -136.747302 
L 103.516439 -137.631417 
L 102.946033 -138.517041 
L 102.375628 -139.403942 
L 101.805223 -140.291879 
L 101.234818 -141.180602 
L 100.664413 -142.06985 
L 100.094007 -142.959352 
L 99.523602 -143.848829 
L 98.953197 -144.73799 
L 98.382792 -145.626533 
L 97.812386 -146.514145 
L 97.241981 -147.400503 
L 96.671576 -148.285272 
L 96.101171 -149.168104 
L 95.530766 -150.048638 
L 94.96036 -150.926503 
L 94.389955 -151.801312 
L 93.81955 -152.672668 
L 93.249145 -153.540156 
L 92.678739 -154.40335 
L 92.108334 -155.261809 
L 91.537929 -156.115076 
L 90.967524 -156.96268 
L 90.397119 -157.804132 
L 89.826713 -158.638929 
L 89.256308 -159.46655 
L 88.685903 -160.286457 
L 88.115498 -161.098096 
L 87.545092 -161.900892 
L 86.974687 -162.694254 
L 86.404282 -163.47757 
L 85.833877 -164.250209 
L 85.263472 -165.011521 
L 84.693066 -165.760833 
L 84.122661 -166.497452 
L 83.552256 -167.220663 
L 82.981851 -167.929728 
L 82.411445 -168.623886 
L 81.84104 -169.302352 
L 81.270635 -169.964318 
L 80.70023 -170.60895 
L 80.129825 -171.235386 
L 79.559419 -171.84274 
L 78.989014 -172.430098 
L 78.418609 -172.996519 
L 77.848204 -173.541031 
L 77.277799 -174.062633 
L 76.707393 -174.560296 
L 76.136988 -175.032955 
L 75.566583 -175.479517 
L 74.996178 -175.898855 
L 74.425772 -176.289805 
L 73.855367 -175.966016 
L 73.284962 -175.551328 
L 72.714557 -175.109224 
L 72.144152 -174.640838 
L 71.573746 -174.147268 
L 71.003341 -173.629583 
L 70.432936 -173.088819 
L 69.862531 -172.525982 
L 69.292125 -171.942047 
L 68.72172 -171.337961 
L 68.151315 -170.714643 
L 67.58091 -170.072984 
L 67.010505 -169.413848 
L 66.440099 -168.738075 
L 65.869694 -168.046477 
L 65.299289 -167.339843 
L 64.728884 -166.618938 
L 64.158478 -165.884503 
L 63.588073 -165.137258 
L 63.017668 -164.377899 
L 62.447263 -163.607102 
L 61.876858 -162.825521 
L 61.306452 -162.033791 
L 60.736047 -161.232525 
L 60.165642 -160.42232 
L 59.595237 -159.603751 
L 59.024831 -158.777378 
L 58.454426 -157.943741 
L 57.884021 -157.103362 
L 57.313616 -156.25675 
L 56.743211 -155.404393 
L 56.172805 -154.546768 
L 55.6024 -153.684332 
L 55.031995 -152.817529 
L 54.46159 -151.946789 
L 53.891184 -151.072527 
L 53.320779 -150.195144 
L 52.750374 -149.315029 
L 52.179969 -148.432555 
L 51.609564 -147.548085 
L 51.039158 -146.661967 
L 50.468753 -145.774541 
L 49.898348 -144.886131 
L 49.327943 -143.997052 
L 48.757537 -143.107608 
L 48.187132 -142.21809 
L 47.616727 -141.328781 
L 47.046322 -140.439952 
L 46.475917 -139.551866 
L 45.905511 -138.664775 
z
" id="m5832d3b50e" style="stroke:#808080;stroke-opacity:0.4;stroke-width:0.5;"/>
    </defs>
    <g clip-path="url(#p815b02483a)">
     <use style="fill:#808080;fill-opacity:0.4;stroke:#808080;stroke-opacity:0.4;stroke-width:0.5;" x="0" xlink:href="#m5832d3b50e" y="273.810375"/>
    </g>
   </g>
   <g id="line2d_25">
    <path clip-path="url(#p815b02483a)" d="M 45.905511 121.791962 
L 52.179969 114.122335 
L 56.172805 109.568203 
L 59.595237 106.000476 
L 62.447263 103.351488 
L 64.728884 101.500147 
L 67.010505 99.935884 
L 68.72172 98.981438 
L 70.432936 98.240505 
L 72.144152 97.738621 
L 73.855367 97.503446 
L 75.566583 97.561353 
L 77.277799 97.903676 
L 78.989014 98.50169 
L 80.70023 99.328579 
L 82.981851 100.74462 
L 85.263472 102.470343 
L 87.545092 104.457857 
L 90.397119 107.245541 
L 93.81955 110.93957 
L 97.812386 115.594553 
L 103.516439 122.626185 
L 118.91738 141.824652 
L 124.621432 148.505752 
L 129.755079 154.189468 
L 134.888726 159.524756 
L 139.451968 163.959842 
L 144.015209 168.100943 
L 148.578451 171.94977 
L 153.141693 175.512529 
L 157.704935 178.798727 
L 162.268176 181.820208 
L 166.831418 184.590395 
L 171.39466 187.123675 
L 176.528307 189.708971 
L 181.661954 192.034609 
L 186.795601 194.121635 
L 192.499653 196.185463 
L 198.203705 198.006492 
L 204.478163 199.758958 
L 210.75262 201.278569 
L 217.597483 202.703602 
L 225.012751 204.010072 
L 232.998424 205.181877 
L 241.554502 206.21063 
L 251.251391 207.143946 
L 262.08909 207.953357 
L 274.638005 208.652975 
L 288.898135 209.219099 
L 306.580697 209.685698 
L 328.826501 210.036006 
L 359.628383 210.279371 
L 387.578239 210.379166 
L 387.578239 210.379166 
" style="fill:none;stroke:#000000;stroke-width:2.7;"/>
   </g>
   <g id="line2d_26">
    <path clip-path="url(#p815b02483a)" d="M 45.905511 149.117052 
L 49.898348 140.07308 
L 53.891184 131.573518 
L 57.884021 123.649172 
L 61.306452 117.334526 
L 64.728884 111.475148 
L 68.151315 106.081857 
L 71.573746 101.162789 
L 74.425772 97.429834 
L 77.277799 94.031778 
L 80.129825 90.96909 
L 82.981851 88.240978 
L 85.833877 85.845417 
L 88.685903 83.779162 
L 91.537929 82.037784 
L 93.81955 80.87488 
L 96.101171 79.912968 
L 98.382792 79.148228 
L 100.664413 78.576404 
L 102.946033 78.192825 
L 105.227654 77.992417 
L 108.07968 77.991137 
L 110.931707 78.256031 
L 113.783733 78.774782 
L 116.635759 79.534283 
L 119.487785 80.520693 
L 122.339811 81.719503 
L 125.762242 83.417124 
L 129.184674 85.371668 
L 133.17751 87.939167 
L 137.170347 90.772149 
L 141.733588 94.274549 
L 147.437641 98.945048 
L 156.564124 106.76375 
L 166.261013 114.984724 
L 171.965065 119.524707 
L 176.528307 122.896095 
L 180.521143 125.606779 
L 184.51398 128.056848 
L 187.936411 129.924728 
L 191.358843 131.558545 
L 194.781274 132.941497 
L 198.203705 134.0587 
L 201.055731 134.777343 
L 203.907758 135.296097 
L 206.759784 135.609624 
L 209.61181 135.713631 
L 212.463836 135.604883 
L 215.315862 135.281217 
L 218.167888 134.74155 
L 221.019914 133.985881 
L 223.87194 133.015295 
L 226.723966 131.831955 
L 229.575992 130.439094 
L 232.998424 128.497213 
L 236.420855 126.269258 
L 239.843286 123.76674 
L 243.265718 121.003215 
L 247.258554 117.470048 
L 251.251391 113.630746 
L 255.814633 108.908276 
L 260.94828 103.230612 
L 266.652332 96.563639 
L 274.0676 87.524588 
L 290.609351 67.231633 
L 296.313403 60.658728 
L 300.876645 55.714687 
L 304.869482 51.677827 
L 308.862318 47.95885 
L 312.284749 45.057754 
L 315.707181 42.449523 
L 318.559207 40.518225 
L 321.411233 38.822225 
L 324.263259 37.37493 
L 327.115285 36.188981 
L 329.967311 35.276194 
L 332.248932 34.750022 
L 334.530553 34.410864 
L 336.812174 34.263492 
L 339.093795 34.312268 
L 341.375416 34.561123 
L 343.657037 35.013546 
L 345.938658 35.67257 
L 348.220278 36.540762 
L 350.501899 37.62021 
L 352.78352 38.912512 
L 355.065141 40.418772 
L 357.917167 42.603332 
L 360.769193 45.12313 
L 363.621219 47.976936 
L 366.473245 51.162237 
L 369.325272 54.67523 
L 372.177298 58.510819 
L 375.599729 63.530263 
L 379.02216 68.991483 
L 382.444592 74.878334 
L 385.867023 81.172061 
L 387.578239 84.46494 
L 387.578239 84.46494 
" style="fill:none;stroke:#800080;stroke-width:2.7;"/>
   </g>
   <g id="patch_3">
    <path d="M 28.821875 241.8135 
L 28.821875 24.3735 
" style="fill:none;stroke:#f0f0f0;stroke-linecap:square;stroke-linejoin:miter;stroke-width:3;"/>
   </g>
   <g id="patch_4">
    <path d="M 404.661875 241.8135 
L 404.661875 24.3735 
" style="fill:none;stroke:#f0f0f0;stroke-linecap:square;stroke-linejoin:miter;stroke-width:3;"/>
   </g>
   <g id="patch_5">
    <path d="M 28.821875 241.8135 
L 404.661875 241.8135 
" style="fill:none;stroke:#f0f0f0;stroke-linecap:square;stroke-linejoin:miter;stroke-width:3;"/>
   </g>
   <g id="patch_6">
    <path d="M 28.821875 24.3735 
L 404.661875 24.3735 
" style="fill:none;stroke:#f0f0f0;stroke-linecap:square;stroke-linejoin:miter;stroke-width:3;"/>
   </g>
   <g id="text_15">
    <!-- Posterior -->
    <defs>
     <path d="M 27 70 
Q 41.59375 70 49.4375 64.453125 
Q 57.296875 58.90625 57.296875 47.90625 
Q 57.296875 41.90625 55.140625 37.65625 
Q 53 33.40625 48.953125 30.75 
Q 44.90625 28.09375 39.09375 26.890625 
Q 33.296875 25.703125 26 25.703125 
L 18.296875 25.703125 
L 18.296875 0 
L 8.59375 0 
L 8.59375 68.296875 
Q 12.703125 69.296875 17.75 69.640625 
Q 22.796875 70 27 70 
z
M 27.796875 61.5 
Q 21.59375 61.5 18.296875 61.203125 
L 18.296875 34 
L 25.59375 34 
Q 30.59375 34 34.59375 34.640625 
Q 38.59375 35.296875 41.34375 36.84375 
Q 44.09375 38.40625 45.59375 41.09375 
Q 47.09375 43.796875 47.09375 48 
Q 47.09375 52 45.546875 54.59375 
Q 44 57.203125 41.34375 58.75 
Q 38.703125 60.296875 35.203125 60.890625 
Q 31.703125 61.5 27.796875 61.5 
z
" id="Ubuntu-80"/>
     <path d="M 20.09375 6.703125 
Q 25.796875 6.703125 28.546875 8.203125 
Q 31.296875 9.703125 31.296875 13 
Q 31.296875 16.40625 28.59375 18.40625 
Q 25.90625 20.40625 19.703125 22.90625 
Q 16.703125 24.09375 13.953125 25.34375 
Q 11.203125 26.59375 9.203125 28.296875 
Q 7.203125 30 6 32.390625 
Q 4.796875 34.796875 4.796875 38.296875 
Q 4.796875 45.203125 9.890625 49.25 
Q 15 53.296875 23.796875 53.296875 
Q 26 53.296875 28.203125 53.046875 
Q 30.40625 52.796875 32.296875 52.4375 
Q 34.203125 52.09375 35.640625 51.6875 
Q 37.09375 51.296875 37.90625 51 
L 36.203125 43 
Q 34.703125 43.796875 31.5 44.640625 
Q 28.296875 45.5 23.796875 45.5 
Q 19.90625 45.5 17 43.953125 
Q 14.09375 42.40625 14.09375 39.09375 
Q 14.09375 37.40625 14.75 36.09375 
Q 15.40625 34.796875 16.75 33.75 
Q 18.09375 32.703125 20.09375 31.796875 
Q 22.09375 30.90625 24.90625 29.90625 
Q 28.59375 28.5 31.5 27.140625 
Q 34.40625 25.796875 36.453125 24 
Q 38.5 22.203125 39.59375 19.640625 
Q 40.703125 17.09375 40.703125 13.40625 
Q 40.703125 6.203125 35.34375 2.5 
Q 30 -1.203125 20.09375 -1.203125 
Q 13.203125 -1.203125 9.296875 -0.046875 
Q 5.40625 1.09375 4 1.703125 
L 5.703125 9.703125 
Q 7.296875 9.09375 10.796875 7.890625 
Q 14.296875 6.703125 20.09375 6.703125 
z
" id="Ubuntu-115"/>
     <path d="M 27.203125 53.09375 
Q 28.40625 53.09375 29.953125 52.9375 
Q 31.5 52.796875 33 52.546875 
Q 34.5 52.296875 35.75 52.046875 
Q 37 51.796875 37.59375 51.59375 
L 36 43.5 
Q 34.90625 43.90625 32.34375 44.453125 
Q 29.796875 45 25.796875 45 
Q 23.203125 45 20.640625 44.453125 
Q 18.09375 43.90625 17.296875 43.703125 
L 17.296875 0 
L 8 0 
L 8 49.796875 
Q 11.296875 51 16.1875 52.046875 
Q 21.09375 53.09375 27.203125 53.09375 
z
" id="Ubuntu-114"/>
     <path d="M 17.296875 0 
L 8 0 
L 8 52 
L 17.296875 52 
z
M 12.59375 61.40625 
Q 10.09375 61.40625 8.34375 63.046875 
Q 6.59375 64.703125 6.59375 67.5 
Q 6.59375 70.296875 8.34375 71.9375 
Q 10.09375 73.59375 12.59375 73.59375 
Q 15.09375 73.59375 16.84375 71.9375 
Q 18.59375 70.296875 18.59375 67.5 
Q 18.59375 64.703125 16.84375 63.046875 
Q 15.09375 61.40625 12.59375 61.40625 
z
" id="Ubuntu-105"/>
    </defs>
    <g transform="translate(186.362375 18.3735)scale(0.144 -0.144)">
     <use xlink:href="#Ubuntu-80"/>
     <use x="60.768738" xlink:href="#Ubuntu-111"/>
     <use x="119.768723" xlink:href="#Ubuntu-115"/>
     <use x="164.368713" xlink:href="#Ubuntu-116"/>
     <use x="204.553085" xlink:href="#Ubuntu-101"/>
     <use x="260.453079" xlink:href="#Ubuntu-114"/>
     <use x="299.05307" xlink:href="#Ubuntu-105"/>
     <use x="324.353058" xlink:href="#Ubuntu-111"/>
     <use x="383.353043" xlink:href="#Ubuntu-114"/>
    </g>
   </g>
   <g id="legend_1">
    <g id="patch_7">
     <path d="M 426.695475 91.64225 
L 536.362662 91.64225 
Q 538.362662 91.64225 538.362662 89.64225 
L 538.362662 31.3735 
Q 538.362662 29.3735 536.362662 29.3735 
L 426.695475 29.3735 
Q 424.695475 29.3735 424.695475 31.3735 
L 424.695475 89.64225 
Q 424.695475 91.64225 426.695475 91.64225 
z
" style="fill:#f0f0f0;opacity:0.8;stroke:#cccccc;stroke-linejoin:miter;stroke-width:0.5;"/>
    </g>
    <g id="line2d_27">
     <path d="M 428.695475 37.7735 
L 448.695475 37.7735 
" style="fill:none;stroke:#000000;stroke-width:2.7;"/>
    </g>
    <g id="line2d_28"/>
    <g id="text_16">
     <!-- Predicted ($\mu$) -->
     <defs>
      <path d="M 17.09375 29.90625 
Q 17.09375 17.09375 20.796875 6.1875 
Q 24.5 -4.703125 31.703125 -14 
L 25.09375 -18.5 
Q 17.296875 -9 12.546875 3.34375 
Q 7.796875 15.703125 7.796875 29.90625 
Q 7.796875 44.09375 12.546875 56.4375 
Q 17.296875 68.796875 25.09375 78.296875 
L 31.703125 73.796875 
Q 24.5 64.5 20.796875 53.59375 
Q 17.09375 42.703125 17.09375 29.90625 
z
" id="Ubuntu-40"/>
      <path d="M -1.3125 -20.796875 
L 13.375 54.6875 
L 22.40625 54.6875 
L 15.765625 20.65625 
Q 15.578125 19.625 15.421875 18.359375 
Q 15.28125 17.09375 15.28125 15.828125 
Q 15.28125 11.28125 18.140625 8.828125 
Q 21 6.390625 26.3125 6.390625 
Q 33.546875 6.390625 37.984375 10.484375 
Q 42.4375 14.59375 44 22.796875 
L 50.203125 54.6875 
L 59.1875 54.6875 
L 51.03125 12.640625 
Q 50.828125 11.71875 50.75 11.03125 
Q 50.6875 10.359375 50.6875 9.8125 
Q 50.6875 8.296875 51.296875 7.59375 
Q 51.90625 6.890625 53.21875 6.890625 
Q 53.71875 6.890625 54.5625 7.125 
Q 55.421875 7.375 56.984375 8.015625 
L 55.609375 0.78125 
Q 53.46875 -0.296875 51.515625 -0.859375 
Q 49.5625 -1.421875 47.703125 -1.421875 
Q 44.484375 -1.421875 42.65625 0.625 
Q 40.828125 2.6875 40.828125 6.296875 
Q 38.09375 2.390625 34.296875 0.484375 
Q 30.515625 -1.421875 25.390625 -1.421875 
Q 20.84375 -1.421875 17.453125 0.671875 
Q 14.0625 2.78125 12.984375 6.203125 
L 7.71875 -20.796875 
z
" id="DejaVuSans-Oblique-956"/>
      <path d="M 15.296875 29.90625 
Q 15.296875 42.703125 11.59375 53.59375 
Q 7.90625 64.5 0.703125 73.796875 
L 7.296875 78.296875 
Q 15.09375 68.796875 19.84375 56.4375 
Q 24.59375 44.09375 24.59375 29.90625 
Q 24.59375 15.703125 19.84375 3.34375 
Q 15.09375 -9 7.296875 -18.5 
L 0.703125 -14 
Q 7.90625 -4.703125 11.59375 6.1875 
Q 15.296875 17.09375 15.296875 29.90625 
z
" id="Ubuntu-41"/>
     </defs>
     <g transform="translate(456.695475 41.2735)scale(0.1 -0.1)">
      <use transform="translate(0 0.703125)" xlink:href="#Ubuntu-80"/>
      <use transform="translate(60.799988 0.703125)" xlink:href="#Ubuntu-114"/>
      <use transform="translate(99.399979 0.703125)" xlink:href="#Ubuntu-101"/>
      <use transform="translate(155.299973 0.703125)" xlink:href="#Ubuntu-100"/>
      <use transform="translate(214.199966 0.703125)" xlink:href="#Ubuntu-105"/>
      <use transform="translate(239.499954 0.703125)" xlink:href="#Ubuntu-99"/>
      <use transform="translate(285.999939 0.703125)" xlink:href="#Ubuntu-116"/>
      <use transform="translate(326.199936 0.703125)" xlink:href="#Ubuntu-101"/>
      <use transform="translate(382.09993 0.703125)" xlink:href="#Ubuntu-100"/>
      <use transform="translate(440.999924 0.703125)" xlink:href="#Ubuntu-32"/>
      <use transform="translate(464.099915 0.703125)" xlink:href="#Ubuntu-40"/>
      <use transform="translate(496.499908 0.703125)" xlink:href="#DejaVuSans-Oblique-956"/>
      <use transform="translate(560.122955 0.703125)" xlink:href="#Ubuntu-41"/>
     </g>
    </g>
    <g id="line2d_29">
     <path d="M 428.695475 52.7735 
L 448.695475 52.7735 
" style="fill:none;stroke:#800080;stroke-width:2.7;"/>
    </g>
    <g id="line2d_30"/>
    <g id="text_17">
     <!-- GT ($f$) -->
     <defs>
      <path d="M 54.90625 69.296875 
L 54.90625 60.90625 
L 33.09375 60.90625 
L 33.09375 0 
L 23.40625 0 
L 23.40625 60.90625 
L 1.59375 60.90625 
L 1.59375 69.296875 
z
" id="Ubuntu-84"/>
      <path d="M 47.796875 75.984375 
L 46.390625 68.5 
L 37.796875 68.5 
Q 32.90625 68.5 30.6875 66.578125 
Q 28.46875 64.65625 27.390625 59.515625 
L 26.421875 54.6875 
L 41.21875 54.6875 
L 39.890625 47.703125 
L 25.09375 47.703125 
L 15.828125 0 
L 6.78125 0 
L 16.109375 47.703125 
L 7.515625 47.703125 
L 8.796875 54.6875 
L 17.390625 54.6875 
L 18.109375 58.5 
Q 19.96875 68.171875 24.625 72.078125 
Q 29.296875 75.984375 39.3125 75.984375 
z
" id="DejaVuSans-Oblique-102"/>
     </defs>
     <g transform="translate(456.695475 56.2735)scale(0.1 -0.1)">
      <use transform="translate(0 0.703125)" xlink:href="#Ubuntu-71"/>
      <use transform="translate(67.199997 0.703125)" xlink:href="#Ubuntu-84"/>
      <use transform="translate(123.699982 0.703125)" xlink:href="#Ubuntu-32"/>
      <use transform="translate(146.799973 0.703125)" xlink:href="#Ubuntu-40"/>
      <use transform="translate(179.199966 0.703125)" xlink:href="#DejaVuSans-Oblique-102"/>
      <use transform="translate(214.405045 0.703125)" xlink:href="#Ubuntu-41"/>
     </g>
    </g>
    <g id="patch_8">
     <path d="M 428.695475 70.932875 
L 448.695475 70.932875 
L 448.695475 63.932875 
L 428.695475 63.932875 
z
" style="fill:#808080;opacity:0.4;stroke:#808080;stroke-linejoin:miter;stroke-width:0.5;"/>
    </g>
    <g id="text_18">
     <!-- $\mu \pm \sigma$ -->
     <defs>
      <path d="M 46 62.703125 
L 46 43.796875 
L 73.1875 43.796875 
L 73.1875 35.5 
L 46 35.5 
L 46 16.609375 
L 37.796875 16.609375 
L 37.796875 35.5 
L 10.59375 35.5 
L 10.59375 43.796875 
L 37.796875 43.796875 
L 37.796875 62.703125 
z
M 10.59375 8.296875 
L 73.1875 8.296875 
L 73.1875 0 
L 10.59375 0 
z
" id="DejaVuSans-177"/>
      <path d="M 34.671875 47.5625 
Q 27.25 47.5625 22.21875 42.1875 
Q 16.890625 36.578125 15.140625 27.296875 
Q 13.1875 17.484375 16.3125 11.8125 
Q 19.390625 6.203125 26.65625 6.203125 
Q 33.84375 6.203125 39.109375 11.859375 
Q 44.4375 17.53125 46.34375 27.296875 
Q 48.046875 36.234375 45.015625 42.1875 
Q 42.1875 47.5625 34.671875 47.5625 
z
M 36.078125 54.734375 
L 65.921875 54.6875 
L 64.15625 45.703125 
L 54.109375 45.703125 
Q 57.90625 38.09375 55.859375 27.296875 
Q 53.21875 13.875 45.0625 6.25 
Q 36.859375 -1.421875 25.140625 -1.421875 
Q 13.375 -1.421875 8.203125 6.25 
Q 3.03125 13.875 5.671875 27.296875 
Q 8.25 40.765625 16.40625 48.390625 
Q 23.1875 54.734375 36.078125 54.734375 
z
" id="DejaVuSans-Oblique-963"/>
     </defs>
     <g transform="translate(456.695475 70.932875)scale(0.1 -0.1)">
      <use transform="translate(0 0.296875)" xlink:href="#DejaVuSans-Oblique-956"/>
      <use transform="translate(83.105469 0.296875)" xlink:href="#DejaVuSans-177"/>
      <use transform="translate(186.376953 0.296875)" xlink:href="#DejaVuSans-Oblique-963"/>
     </g>
    </g>
    <g id="PathCollection_1">
     <defs>
      <path d="M 0 8.660254 
C 2.296726 8.660254 4.499694 7.747755 6.123724 6.123724 
C 7.747755 4.499694 8.660254 2.296726 8.660254 0 
C 8.660254 -2.296726 7.747755 -4.499694 6.123724 -6.123724 
C 4.499694 -7.747755 2.296726 -8.660254 0 -8.660254 
C -2.296726 -8.660254 -4.499694 -7.747755 -6.123724 -6.123724 
C -7.747755 -4.499694 -8.660254 -2.296726 -8.660254 0 
C -8.660254 2.296726 -7.747755 4.499694 -6.123724 6.123724 
C -4.499694 7.747755 -2.296726 8.660254 0 8.660254 
z
" id="m1399475c25" style="stroke:#ff0000;stroke-width:0.5;"/>
     </defs>
     <g>
      <use style="fill:#ff0000;stroke:#ff0000;stroke-width:0.5;" x="438.695475" xlink:href="#m1399475c25" y="83.16725"/>
     </g>
    </g>
    <g id="text_19">
     <!-- Last Added Point -->
     <defs>
      <path d="M 50.296875 8.40625 
L 50.296875 0 
L 8.59375 0 
L 8.59375 69.296875 
L 18.296875 69.296875 
L 18.296875 8.40625 
z
" id="Ubuntu-76"/>
      <path d="M 25.59375 6.703125 
Q 28.90625 6.703125 31.453125 6.84375 
Q 34 7 35.703125 7.40625 
L 35.703125 22.90625 
Q 34.703125 23.40625 32.453125 23.75 
Q 30.203125 24.09375 27 24.09375 
Q 24.90625 24.09375 22.546875 23.796875 
Q 20.203125 23.5 18.25 22.546875 
Q 16.296875 21.59375 15 19.9375 
Q 13.703125 18.296875 13.703125 15.59375 
Q 13.703125 10.59375 16.890625 8.640625 
Q 20.09375 6.703125 25.59375 6.703125 
z
M 24.796875 53.296875 
Q 30.40625 53.296875 34.25 51.84375 
Q 38.09375 50.40625 40.4375 47.75 
Q 42.796875 45.09375 43.796875 41.4375 
Q 44.796875 37.796875 44.796875 33.40625 
L 44.796875 0.90625 
Q 43.59375 0.703125 41.4375 0.34375 
Q 39.296875 0 36.59375 -0.296875 
Q 33.90625 -0.59375 30.75 -0.84375 
Q 27.59375 -1.09375 24.5 -1.09375 
Q 20.09375 -1.09375 16.390625 -0.1875 
Q 12.703125 0.703125 10 2.640625 
Q 7.296875 4.59375 5.796875 7.796875 
Q 4.296875 11 4.296875 15.5 
Q 4.296875 19.796875 6.046875 22.890625 
Q 7.796875 26 10.796875 27.890625 
Q 13.796875 29.796875 17.796875 30.6875 
Q 21.796875 31.59375 26.203125 31.59375 
Q 27.59375 31.59375 29.09375 31.4375 
Q 30.59375 31.296875 31.9375 31.046875 
Q 33.296875 30.796875 34.296875 30.59375 
Q 35.296875 30.40625 35.703125 30.296875 
L 35.703125 32.90625 
Q 35.703125 35.203125 35.203125 37.453125 
Q 34.703125 39.703125 33.390625 41.453125 
Q 32.09375 43.203125 29.84375 44.25 
Q 27.59375 45.296875 24 45.296875 
Q 19.40625 45.296875 15.953125 44.640625 
Q 12.5 44 10.796875 43.296875 
L 9.703125 51 
Q 11.5 51.796875 15.703125 52.546875 
Q 19.90625 53.296875 24.796875 53.296875 
z
" id="Ubuntu-97"/>
      <path d="M 54.90625 0 
Q 53.203125 4.5 51.703125 8.84375 
Q 50.203125 13.203125 48.59375 17.703125 
L 17.203125 17.703125 
L 10.90625 0 
L 0.796875 0 
Q 4.796875 11 8.296875 20.34375 
Q 11.796875 29.703125 15.140625 38.09375 
Q 18.5 46.5 21.796875 54.140625 
Q 25.09375 61.796875 28.703125 69.296875 
L 37.59375 69.296875 
Q 41.203125 61.796875 44.5 54.140625 
Q 47.796875 46.5 51.140625 38.09375 
Q 54.5 29.703125 58 20.34375 
Q 61.5 11 65.5 0 
z
M 45.796875 25.703125 
Q 42.59375 34.40625 39.4375 42.546875 
Q 36.296875 50.703125 32.90625 58.203125 
Q 29.40625 50.703125 26.25 42.546875 
Q 23.09375 34.40625 20 25.703125 
z
" id="Ubuntu-65"/>
     </defs>
     <g transform="translate(456.695475 85.79225)scale(0.1 -0.1)">
      <use xlink:href="#Ubuntu-76"/>
      <use x="51.899994" xlink:href="#Ubuntu-97"/>
      <use x="104.099991" xlink:href="#Ubuntu-115"/>
      <use x="148.699982" xlink:href="#Ubuntu-116"/>
      <use x="188.899979" xlink:href="#Ubuntu-32"/>
      <use x="211.999969" xlink:href="#Ubuntu-65"/>
      <use x="278.284332" xlink:href="#Ubuntu-100"/>
      <use x="337.184326" xlink:href="#Ubuntu-100"/>
      <use x="396.08432" xlink:href="#Ubuntu-101"/>
      <use x="451.984314" xlink:href="#Ubuntu-100"/>
      <use x="510.884308" xlink:href="#Ubuntu-32"/>
      <use x="533.984299" xlink:href="#Ubuntu-80"/>
      <use x="594.753036" xlink:href="#Ubuntu-111"/>
      <use x="653.753021" xlink:href="#Ubuntu-105"/>
      <use x="679.053009" xlink:href="#Ubuntu-110"/>
      <use x="736.453003" xlink:href="#Ubuntu-116"/>
     </g>
    </g>
   </g>
   <g id="PathCollection_2">
    <g clip-path="url(#p815b02483a)">
     <use style="fill:#ff0000;stroke:#ff0000;stroke-width:0.5;" x="74.378239" xlink:href="#m1399475c25" y="97.489309"/>
    </g>
   </g>
  </g>
 </g>
 <defs>
  <clipPath id="p815b02483a">
   <rect height="217.44" width="375.84" x="28.821875" y="24.3735"/>
  </clipPath>
 </defs>
</svg>
